M48
; DRILL file {KiCad 8.0.5} date 2025-01-30T00:55:54+0100
; FORMAT={-:-/ absolute / metric / decimal}
; #@! TF.CreationDate,2025-01-30T00:55:54+01:00
; #@! TF.GenerationSoftware,Kicad,Pcbnew,8.0.5
; #@! TF.FileFunction,Plated,1,2,PTH
FMAT,2
METRIC
; #@! TA.AperFunction,Plated,PTH,ViaDrill
T1C0.300
; #@! TA.AperFunction,Plated,PTH,ComponentDrill
T2C0.650
; #@! TA.AperFunction,Plated,PTH,ComponentDrill
T3C0.700
; #@! TA.AperFunction,Plated,PTH,ComponentDrill
T4C1.000
; #@! TA.AperFunction,Plated,PTH,ComponentDrill
T5C1.100
; #@! TA.AperFunction,Plated,PTH,ComponentDrill
T6C1.500
; #@! TA.AperFunction,Plated,PTH,ComponentDrill
T7C2.600
%
G90
G05
T1
X97.5Y-120.0
X107.35Y-78.4
X112.35Y-74.25
X114.0Y-120.0
X114.1Y-76.0
X114.25Y-72.9
X114.6Y-101.5
X114.95Y-77.7
X117.9Y-102.9
X118.3Y-105.2
X119.0Y-79.5
X120.0Y-120.0
X120.2Y-126.4
X120.85Y-73.4
X121.0Y-129.7
X121.5Y-95.0
X121.5Y-126.8
X121.65Y-104.7
X122.289Y-93.189
X122.501Y-83.895
X122.75Y-84.4
X123.15Y-93.2
X123.5Y-113.5
X123.55Y-84.4
X124.15Y-80.2
X124.35Y-84.4
X124.5Y-100.5
X124.85Y-87.4
X125.15Y-84.4
X125.85Y-84.4
X125.85Y-87.2
X126.0Y-104.15
X126.25Y-83.1
X126.25Y-83.8
X126.35Y-81.6
X126.35Y-82.3
X126.45Y-81.0
X126.45Y-89.6
X126.5Y-106.5
X127.136Y-114.364
X127.883Y-86.816
X128.0Y-102.8
X128.043Y-87.6
X128.14Y-106.5
X129.15Y-78.4
X129.6Y-73.0
X130.6Y-72.75
X131.0Y-101.2
X131.8Y-101.2
X131.882Y-89.582
X132.3Y-124.3
X132.425Y-101.5
X133.1Y-76.0
X133.5Y-119.5
X133.5Y-126.8
X133.6Y-87.5
X133.8Y-109.0
X134.4Y-126.8
X134.5Y-97.5
X134.55Y-79.991
X134.55Y-83.0
X135.0Y-125.925
X136.0Y-125.925
X137.1Y-73.25
X138.85Y-81.0
X138.85Y-87.5
X139.2Y-129.0
X139.35Y-84.5
X139.6Y-76.0
X140.85Y-77.5
X140.85Y-78.5
X140.85Y-79.5
X140.85Y-80.5
X141.35Y-81.5
X141.35Y-82.5
X141.35Y-83.5
X141.35Y-84.5
X141.35Y-85.5
X141.35Y-86.5
X142.35Y-81.5
X142.35Y-82.5
X142.35Y-83.5
X142.35Y-87.0
X143.35Y-81.5
X143.35Y-82.5
X143.35Y-83.5
X144.85Y-81.5
X144.85Y-82.5
X144.85Y-83.5
X146.35Y-81.5
X146.35Y-82.5
X146.35Y-83.5
X147.35Y-76.0
X147.35Y-81.5
X147.35Y-82.5
X147.35Y-83.5
X147.35Y-87.0
X147.9Y-89.4
X148.35Y-76.0
X148.35Y-81.5
X148.35Y-82.5
X148.35Y-83.5
X148.35Y-84.5
X148.35Y-85.5
X148.35Y-86.5
X148.85Y-77.5
X148.85Y-78.5
X148.85Y-79.5
X148.85Y-80.5
X151.2Y-99.2
X156.0Y-85.5
T4
X97.475Y-97.475
X97.475Y-102.475
X111.975Y-97.475
X111.975Y-99.975
X111.975Y-102.475
X138.05Y-97.5
X138.05Y-102.5
X152.55Y-97.5
X152.55Y-100.0
X152.55Y-102.5
T5
X104.1Y-80.75
X104.1Y-85.25
X110.6Y-80.75
X110.6Y-85.25
X111.15Y-61.0
X111.15Y-65.5
X117.65Y-61.0
X117.65Y-65.5
T6
X101.69Y-114.96
X101.69Y-134.46
X108.04Y-112.42
X108.04Y-131.92
X121.19Y-114.96
X121.19Y-134.46
X127.54Y-112.42
X127.54Y-131.92
X140.69Y-114.96
X140.69Y-134.46
X147.04Y-112.42
X147.04Y-131.92
T7
X104.475Y-94.375
X104.475Y-105.575
X145.05Y-94.4
X145.05Y-105.6
T2
G00X122.855Y-63.67
M15
G01X122.855Y-64.07
M16
G05
G00X127.695Y-63.67
M15
G01X127.695Y-64.07
M16
G05
T3
G00X122.545Y-60.62
M15
G01X122.545Y-61.12
M16
G05
G00X128.005Y-60.62
M15
G01X128.005Y-61.12
M16
G05
M30
