%TF.GenerationSoftware,KiCad,Pcbnew,8.0.5*%
%TF.CreationDate,2025-01-30T00:55:53+01:00*%
%TF.ProjectId,rp2040_pad,72703230-3430-45f7-9061-642e6b696361,rev?*%
%TF.SameCoordinates,Original*%
%TF.FileFunction,Copper,L2,Bot*%
%TF.FilePolarity,Positive*%
%FSLAX46Y46*%
G04 Gerber Fmt 4.6, Leading zero omitted, Abs format (unit mm)*
G04 Created by KiCad (PCBNEW 8.0.5) date 2025-01-30 00:55:53*
%MOMM*%
%LPD*%
G01*
G04 APERTURE LIST*
%TA.AperFunction,ComponentPad*%
%ADD10C,2.200000*%
%TD*%
%TA.AperFunction,ComponentPad*%
%ADD11C,2.000000*%
%TD*%
%TA.AperFunction,ComponentPad*%
%ADD12O,1.350000X1.700000*%
%TD*%
%TA.AperFunction,ComponentPad*%
%ADD13O,1.100000X1.500000*%
%TD*%
%TA.AperFunction,ComponentPad*%
%ADD14R,2.000000X2.000000*%
%TD*%
%TA.AperFunction,ComponentPad*%
%ADD15C,3.200000*%
%TD*%
%TA.AperFunction,SMDPad,CuDef*%
%ADD16R,1.500000X0.900000*%
%TD*%
%TA.AperFunction,ViaPad*%
%ADD17C,0.600000*%
%TD*%
%TA.AperFunction,Conductor*%
%ADD18C,0.200000*%
%TD*%
%TA.AperFunction,Conductor*%
%ADD19C,0.800000*%
%TD*%
%ADD20C,0.300000*%
%ADD21C,0.350000*%
%ADD22O,0.700000X1.200000*%
%ADD23O,0.650000X1.050000*%
G04 APERTURE END LIST*
D10*
%TO.P,SW9,1,1*%
%TO.N,COL_C*%
X147040000Y-131920000D03*
%TO.P,SW9,2,2*%
%TO.N,Net-(D8-A)*%
X140690000Y-134460000D03*
%TD*%
%TO.P,SW8,1,1*%
%TO.N,COL_B*%
X127540000Y-131920000D03*
%TO.P,SW8,2,2*%
%TO.N,Net-(D7-A)*%
X121190000Y-134460000D03*
%TD*%
%TO.P,SW7,1,1*%
%TO.N,COL_A*%
X108040000Y-131920000D03*
%TO.P,SW7,2,2*%
%TO.N,Net-(D6-A)*%
X101690000Y-134460000D03*
%TD*%
%TO.P,SW4,1,1*%
%TO.N,COL_A*%
X108040000Y-112420000D03*
%TO.P,SW4,2,2*%
%TO.N,Net-(D1-A)*%
X101690000Y-114960000D03*
%TD*%
%TO.P,SW5,1,1*%
%TO.N,COL_B*%
X127540000Y-112420000D03*
%TO.P,SW5,2,2*%
%TO.N,Net-(D2-A)*%
X121190000Y-114960000D03*
%TD*%
%TO.P,SW6,1,1*%
%TO.N,COL_C*%
X147040000Y-112420000D03*
%TO.P,SW6,2,2*%
%TO.N,Net-(D3-A)*%
X140690000Y-114960000D03*
%TD*%
D11*
%TO.P,RESET,2,2*%
%TO.N,Net-(U1-RUN)*%
X110600000Y-85250000D03*
X104100000Y-85250000D03*
%TO.P,RESET,1,1*%
%TO.N,GND*%
X110600000Y-80750000D03*
X104100000Y-80750000D03*
%TD*%
D12*
%TO.P,J1,6,Shield*%
%TO.N,GND*%
X122545000Y-60870000D03*
D13*
X122855000Y-63870000D03*
X127695000Y-63870000D03*
D12*
X128005000Y-60870000D03*
%TD*%
D11*
%TO.P,USB_BOOT1,2,2*%
%TO.N,Net-(R3-Pad1)*%
X111150000Y-61000000D03*
X117650000Y-61000000D03*
%TO.P,USB_BOOT1,1,1*%
%TO.N,GND*%
X111150000Y-65500000D03*
X117650000Y-65500000D03*
%TD*%
D14*
%TO.P,SW2,A,A*%
%TO.N,ENC_SA2*%
X152550000Y-102500000D03*
D11*
%TO.P,SW2,B,B*%
%TO.N,ENC_SB2*%
X152550000Y-97500000D03*
%TO.P,SW2,C,C*%
%TO.N,GND*%
X152550000Y-100000000D03*
D15*
%TO.P,SW2,MP*%
%TO.N,N/C*%
X145050000Y-105600000D03*
X145050000Y-94400000D03*
D11*
%TO.P,SW2,S1,S1*%
%TO.N,Net-(D5-A)*%
X138050000Y-97500000D03*
%TO.P,SW2,S2,S2*%
%TO.N,COL_C*%
X138050000Y-102500000D03*
%TD*%
D16*
%TO.P,D11,1,VDD*%
%TO.N,VBUS*%
X135450000Y-125750000D03*
%TO.P,D11,2,DOUT*%
%TO.N,LEDS*%
X135450000Y-129050000D03*
%TO.P,D11,3,VSS*%
%TO.N,GND*%
X130550000Y-129050000D03*
%TO.P,D11,4,DIN*%
%TO.N,Net-(D10-DOUT)*%
X130550000Y-125750000D03*
%TD*%
%TO.P,D9,1,VDD*%
%TO.N,VBUS*%
X119500000Y-105200000D03*
%TO.P,D9,2,DOUT*%
%TO.N,Net-(D10-DIN)*%
X119500000Y-108500000D03*
%TO.P,D9,3,VSS*%
%TO.N,GND*%
X114600000Y-108500000D03*
%TO.P,D9,4,DIN*%
%TO.N,LED*%
X114600000Y-105200000D03*
%TD*%
%TO.P,D10,1,VDD*%
%TO.N,VBUS*%
X135400000Y-105200000D03*
%TO.P,D10,2,DOUT*%
%TO.N,Net-(D10-DOUT)*%
X135400000Y-108500000D03*
%TO.P,D10,3,VSS*%
%TO.N,GND*%
X130500000Y-108500000D03*
%TO.P,D10,4,DIN*%
%TO.N,Net-(D10-DIN)*%
X130500000Y-105200000D03*
%TD*%
%TO.P,D12,1,VDD*%
%TO.N,VBUS*%
X119400000Y-125600000D03*
%TO.P,D12,2,DOUT*%
%TO.N,unconnected-(D12-DOUT-Pad2)*%
X119400000Y-128900000D03*
%TO.P,D12,3,VSS*%
%TO.N,GND*%
X114500000Y-128900000D03*
%TO.P,D12,4,DIN*%
%TO.N,LEDS*%
X114500000Y-125600000D03*
%TD*%
D14*
%TO.P,SW3,A,A*%
%TO.N,ENC_SA*%
X111975000Y-102475000D03*
D11*
%TO.P,SW3,B,B*%
%TO.N,ENC_SB*%
X111975000Y-97475000D03*
%TO.P,SW3,C,C*%
%TO.N,GND*%
X111975000Y-99975000D03*
D15*
%TO.P,SW3,MP*%
%TO.N,N/C*%
X104475000Y-105575000D03*
X104475000Y-94375000D03*
D11*
%TO.P,SW3,S1,S1*%
%TO.N,Net-(D4-A)*%
X97475000Y-97475000D03*
%TO.P,SW3,S2,S2*%
%TO.N,COL_A*%
X97475000Y-102475000D03*
%TD*%
D17*
%TO.N,GND*%
X156000000Y-85500000D03*
%TO.N,ROW_A*%
X128140000Y-106500000D03*
X126500000Y-106500000D03*
%TO.N,GND*%
X121500000Y-95000000D03*
X122289063Y-93189062D03*
X123150000Y-93200000D03*
X131882255Y-89582427D03*
%TO.N,LED*%
X124500000Y-100500000D03*
%TO.N,Net-(U1-RUN)*%
X125850000Y-87200000D03*
%TO.N,COL_C*%
X134500000Y-97500000D03*
%TO.N,ROW_B*%
X127136397Y-114363603D03*
X123500000Y-113500000D03*
%TO.N,GND*%
X133600000Y-87500000D03*
X133100000Y-76000000D03*
X126350000Y-81600000D03*
X126250000Y-83800000D03*
X148350000Y-76000000D03*
X138850000Y-81000000D03*
X126250000Y-83100000D03*
X125850000Y-84400000D03*
X139350000Y-84500000D03*
X151200000Y-99200000D03*
X128000000Y-102800000D03*
X122501250Y-83895442D03*
X134550000Y-83000000D03*
X123550000Y-84400000D03*
X126450000Y-81000000D03*
X138850000Y-87500000D03*
X147350000Y-76000000D03*
X129600000Y-73000000D03*
X125150000Y-84400000D03*
X126350000Y-82300000D03*
X121000000Y-129700000D03*
X139200000Y-129000000D03*
X117900000Y-102900000D03*
X122750000Y-84400000D03*
X137100000Y-73250000D03*
X107350000Y-78400000D03*
X126450000Y-89600000D03*
X139600000Y-76000000D03*
X134550000Y-79990930D03*
X147900000Y-89400000D03*
X124350000Y-84400000D03*
X130600000Y-72750000D03*
%TO.N,VBUS*%
X131000000Y-101200000D03*
X131800000Y-101200000D03*
X132425000Y-101500000D03*
X133500000Y-126800000D03*
X118300000Y-105200000D03*
X135000000Y-125925000D03*
X121500000Y-126800000D03*
X134400000Y-126800000D03*
X120200000Y-126400000D03*
X136000000Y-125925000D03*
%TO.N,+3V3*%
X148850000Y-79500000D03*
X147350000Y-87000000D03*
X143350000Y-83500000D03*
X140850000Y-80500000D03*
X124850000Y-87400000D03*
X142350000Y-83500000D03*
X141350000Y-83500000D03*
X143350000Y-81500000D03*
X148350000Y-81500000D03*
X146350000Y-83500000D03*
X141350000Y-82500000D03*
X148850000Y-78500000D03*
X148350000Y-84500000D03*
X146350000Y-81500000D03*
X120850000Y-73400000D03*
X140850000Y-78500000D03*
X148350000Y-85500000D03*
X140850000Y-79500000D03*
X144850000Y-81500000D03*
X147350000Y-82500000D03*
X147350000Y-81500000D03*
X142350000Y-87000000D03*
X148350000Y-83500000D03*
X148350000Y-82500000D03*
X144850000Y-83500000D03*
X147350000Y-83500000D03*
X148850000Y-77500000D03*
X141350000Y-84500000D03*
X143350000Y-82500000D03*
X128042821Y-87600000D03*
X141350000Y-86500000D03*
X119000000Y-79500000D03*
X148850000Y-80500000D03*
X148350000Y-86500000D03*
X142350000Y-82500000D03*
X140850000Y-77500000D03*
X141350000Y-85500000D03*
X142350000Y-81500000D03*
X141350000Y-81500000D03*
X146350000Y-82500000D03*
X144850000Y-82500000D03*
%TO.N,Net-(U1-VREG_VOUT)*%
X129150000Y-78400000D03*
X124150000Y-80200000D03*
%TO.N,ROW_B*%
X120000000Y-120000000D03*
X133500000Y-119500000D03*
X114000000Y-120000000D03*
X97500000Y-120000000D03*
%TO.N,LED*%
X127882586Y-86816209D03*
X114600000Y-101500000D03*
%TO.N,Net-(D10-DIN)*%
X126000000Y-104150000D03*
X121650000Y-104700000D03*
%TO.N,Net-(D10-DOUT)*%
X133800000Y-109000000D03*
X132300000Y-124300000D03*
%TO.N,QSPI_SS*%
X114950000Y-77700000D03*
X114250000Y-72900000D03*
%TO.N,QSPI_SD1*%
X114100000Y-76000000D03*
X112350000Y-74250000D03*
%TD*%
D18*
%TO.N,+3V3*%
X119000000Y-79500000D02*
X120850000Y-77650000D01*
X120850000Y-77650000D02*
X120850000Y-73400000D01*
%TO.N,ROW_A*%
X126500000Y-106500000D02*
X128140000Y-106500000D01*
%TO.N,COL_C*%
X134972793Y-101972793D02*
X134500000Y-101500000D01*
X135689949Y-101972793D02*
X134972793Y-101972793D01*
X136100000Y-102382844D02*
X135689949Y-101972793D01*
X136100000Y-102500000D02*
X136100000Y-102382844D01*
X138050000Y-102500000D02*
X136100000Y-102500000D01*
X134500000Y-101500000D02*
X134500000Y-97500000D01*
%TO.N,LED*%
X124500000Y-100500000D02*
X131100000Y-93900000D01*
X131100000Y-93900000D02*
X131100000Y-89750000D01*
X128166209Y-86816209D02*
X127882586Y-86816209D01*
X131100000Y-89750000D02*
X128166209Y-86816209D01*
%TO.N,Net-(U1-RUN)*%
X123900000Y-85250000D02*
X125850000Y-87200000D01*
X110600000Y-85250000D02*
X123900000Y-85250000D01*
X104100000Y-85250000D02*
X110600000Y-85250000D01*
%TO.N,+3V3*%
X127842821Y-87800000D02*
X128042821Y-87600000D01*
X125250000Y-87800000D02*
X127842821Y-87800000D01*
X124850000Y-87400000D02*
X125250000Y-87800000D01*
%TO.N,LED*%
X114600000Y-101500000D02*
X114600000Y-105200000D01*
%TO.N,ROW_B*%
X124363603Y-114363603D02*
X123500000Y-113500000D01*
X127136397Y-114363603D02*
X124363603Y-114363603D01*
D19*
%TO.N,VBUS*%
X131800000Y-101200000D02*
X131000000Y-101200000D01*
X135400000Y-102672793D02*
X133672793Y-102672793D01*
X120600000Y-126800000D02*
X120200000Y-126400000D01*
X132200000Y-101200000D02*
X131800000Y-101200000D01*
X134400000Y-126800000D02*
X133500000Y-126800000D01*
X120200000Y-126400000D02*
X119400000Y-125600000D01*
X117600000Y-110100000D02*
X131000000Y-110100000D01*
X119400000Y-125600000D02*
X117500000Y-123700000D01*
X135400000Y-102672793D02*
X135400000Y-105200000D01*
X117500000Y-110000000D02*
X117600000Y-110100000D01*
X131000000Y-110100000D02*
X135400000Y-105700000D01*
X119500000Y-105200000D02*
X118300000Y-105200000D01*
X117500000Y-123700000D02*
X117500000Y-110000000D01*
X117500000Y-107200000D02*
X119500000Y-105200000D01*
X133672793Y-102672793D02*
X132200000Y-101200000D01*
X133500000Y-126800000D02*
X121500000Y-126800000D01*
X135400000Y-105700000D02*
X135400000Y-105200000D01*
X135450000Y-125750000D02*
X134400000Y-126800000D01*
X117500000Y-110000000D02*
X117500000Y-107200000D01*
X121500000Y-126800000D02*
X120600000Y-126800000D01*
D18*
%TO.N,Net-(U1-VREG_VOUT)*%
X124350000Y-80000000D02*
X127550000Y-80000000D01*
X127550000Y-80000000D02*
X129150000Y-78400000D01*
X124150000Y-80200000D02*
X124350000Y-80000000D01*
%TO.N,ROW_B*%
X120000000Y-120000000D02*
X133000000Y-120000000D01*
X97500000Y-120000000D02*
X114000000Y-120000000D01*
X133000000Y-120000000D02*
X133500000Y-119500000D01*
%TO.N,Net-(D10-DIN)*%
X121650000Y-104700000D02*
X121650000Y-106350000D01*
X130500000Y-105200000D02*
X129000000Y-105200000D01*
X126550000Y-104700000D02*
X126000000Y-104150000D01*
X121650000Y-106350000D02*
X119500000Y-108500000D01*
X128500000Y-104700000D02*
X126550000Y-104700000D01*
X129000000Y-105200000D02*
X128500000Y-104700000D01*
%TO.N,Net-(D10-DOUT)*%
X130850000Y-125750000D02*
X132300000Y-124300000D01*
X134900000Y-109000000D02*
X135400000Y-108500000D01*
X133800000Y-109000000D02*
X134900000Y-109000000D01*
X130550000Y-125750000D02*
X130850000Y-125750000D01*
%TO.N,LEDS*%
X134550000Y-128150000D02*
X135450000Y-129050000D01*
X117050000Y-128150000D02*
X134550000Y-128150000D01*
X114500000Y-125600000D02*
X117050000Y-128150000D01*
%TO.N,QSPI_SS*%
X114950000Y-77700000D02*
X114950000Y-73600000D01*
X114950000Y-73600000D02*
X114250000Y-72900000D01*
%TO.N,Net-(R3-Pad1)*%
X111150000Y-61000000D02*
X117650000Y-61000000D01*
%TO.N,QSPI_SD1*%
X114100000Y-76000000D02*
X112350000Y-74250000D01*
%TD*%
%TA.AperFunction,Conductor*%
%TO.N,+3V3*%
G36*
X149293039Y-77019685D02*
G01*
X149338794Y-77072489D01*
X149350000Y-77124000D01*
X149350000Y-87376000D01*
X149330315Y-87443039D01*
X149277511Y-87488794D01*
X149226000Y-87500000D01*
X140474000Y-87500000D01*
X140406961Y-87480315D01*
X140361206Y-87427511D01*
X140350000Y-87376000D01*
X140350000Y-77124000D01*
X140369685Y-77056961D01*
X140422489Y-77011206D01*
X140474000Y-77000000D01*
X149226000Y-77000000D01*
X149293039Y-77019685D01*
G37*
%TD.AperFunction*%
%TD*%
%TA.AperFunction,Conductor*%
%TO.N,+3V3*%
G36*
X149293039Y-77019685D02*
G01*
X149338794Y-77072489D01*
X149350000Y-77124000D01*
X149350000Y-87376000D01*
X149330315Y-87443039D01*
X149277511Y-87488794D01*
X149226000Y-87500000D01*
X140474000Y-87500000D01*
X140406961Y-87480315D01*
X140361206Y-87427511D01*
X140350000Y-87376000D01*
X140350000Y-77124000D01*
X140369685Y-77056961D01*
X140422489Y-77011206D01*
X140474000Y-77000000D01*
X149226000Y-77000000D01*
X149293039Y-77019685D01*
G37*
%TD.AperFunction*%
%TD*%
%TA.AperFunction,Conductor*%
%TO.N,GND*%
G36*
X160503032Y-59000648D02*
G01*
X160836929Y-59017052D01*
X160849037Y-59018245D01*
X160952146Y-59033539D01*
X161176699Y-59066849D01*
X161188617Y-59069219D01*
X161509951Y-59149709D01*
X161521588Y-59153240D01*
X161592806Y-59178722D01*
X161833467Y-59264832D01*
X161844688Y-59269479D01*
X162144163Y-59411120D01*
X162154871Y-59416844D01*
X162438988Y-59587137D01*
X162449103Y-59593895D01*
X162465538Y-59606084D01*
X162715170Y-59791224D01*
X162724576Y-59798944D01*
X162970013Y-60021395D01*
X162978604Y-60029986D01*
X163165755Y-60236475D01*
X163201055Y-60275423D01*
X163208775Y-60284829D01*
X163406102Y-60550893D01*
X163412862Y-60561011D01*
X163579387Y-60838842D01*
X163583148Y-60845116D01*
X163588883Y-60855844D01*
X163713819Y-61120000D01*
X163730514Y-61155297D01*
X163735170Y-61166540D01*
X163846759Y-61478411D01*
X163850292Y-61490055D01*
X163930777Y-61811369D01*
X163933151Y-61823305D01*
X163981754Y-62150962D01*
X163982947Y-62163071D01*
X163999351Y-62496966D01*
X163999500Y-62503051D01*
X163999500Y-149496948D01*
X163999351Y-149503033D01*
X163982947Y-149836928D01*
X163981754Y-149849037D01*
X163933151Y-150176694D01*
X163930777Y-150188630D01*
X163850292Y-150509944D01*
X163846759Y-150521588D01*
X163735170Y-150833459D01*
X163730514Y-150844702D01*
X163588885Y-151144151D01*
X163583148Y-151154883D01*
X163412862Y-151438988D01*
X163406102Y-151449106D01*
X163208775Y-151715170D01*
X163201055Y-151724576D01*
X162978611Y-151970006D01*
X162970006Y-151978611D01*
X162724576Y-152201055D01*
X162715170Y-152208775D01*
X162449106Y-152406102D01*
X162438988Y-152412862D01*
X162154883Y-152583148D01*
X162144151Y-152588885D01*
X161844702Y-152730514D01*
X161833459Y-152735170D01*
X161521588Y-152846759D01*
X161509944Y-152850292D01*
X161188630Y-152930777D01*
X161176694Y-152933151D01*
X160849037Y-152981754D01*
X160836928Y-152982947D01*
X160521989Y-152998419D01*
X160503031Y-152999351D01*
X160496949Y-152999500D01*
X89503051Y-152999500D01*
X89496968Y-152999351D01*
X89476900Y-152998365D01*
X89163071Y-152982947D01*
X89150962Y-152981754D01*
X88823305Y-152933151D01*
X88811369Y-152930777D01*
X88490055Y-152850292D01*
X88478411Y-152846759D01*
X88166540Y-152735170D01*
X88155301Y-152730515D01*
X87855844Y-152588883D01*
X87845121Y-152583150D01*
X87561011Y-152412862D01*
X87550893Y-152406102D01*
X87284829Y-152208775D01*
X87275423Y-152201055D01*
X87236475Y-152165755D01*
X87029986Y-151978604D01*
X87021395Y-151970013D01*
X86798944Y-151724576D01*
X86791224Y-151715170D01*
X86593897Y-151449106D01*
X86587137Y-151438988D01*
X86474162Y-151250500D01*
X86416844Y-151154871D01*
X86411120Y-151144163D01*
X86269479Y-150844688D01*
X86264829Y-150833459D01*
X86259626Y-150818918D01*
X86153240Y-150521588D01*
X86149707Y-150509944D01*
X86091080Y-150275890D01*
X86069219Y-150188617D01*
X86066848Y-150176694D01*
X86018245Y-149849037D01*
X86017052Y-149836927D01*
X86006136Y-149614734D01*
X86000649Y-149503032D01*
X86000500Y-149496948D01*
X86000500Y-149385258D01*
X87749500Y-149385258D01*
X87749500Y-149614741D01*
X87760264Y-149696496D01*
X87779452Y-149842238D01*
X87781274Y-149849037D01*
X87838842Y-150063887D01*
X87926650Y-150275876D01*
X87926657Y-150275890D01*
X88041392Y-150474617D01*
X88181081Y-150656661D01*
X88181089Y-150656670D01*
X88343330Y-150818911D01*
X88343338Y-150818918D01*
X88525382Y-150958607D01*
X88525385Y-150958608D01*
X88525388Y-150958611D01*
X88724112Y-151073344D01*
X88724117Y-151073346D01*
X88724123Y-151073349D01*
X88815480Y-151111190D01*
X88936113Y-151161158D01*
X89157762Y-151220548D01*
X89385266Y-151250500D01*
X89385273Y-151250500D01*
X89614727Y-151250500D01*
X89614734Y-151250500D01*
X89842238Y-151220548D01*
X90063887Y-151161158D01*
X90275888Y-151073344D01*
X90474612Y-150958611D01*
X90656661Y-150818919D01*
X90656665Y-150818914D01*
X90656670Y-150818911D01*
X90818911Y-150656670D01*
X90818914Y-150656665D01*
X90818919Y-150656661D01*
X90958611Y-150474612D01*
X91073344Y-150275888D01*
X91161158Y-150063887D01*
X91220548Y-149842238D01*
X91250500Y-149614734D01*
X91250500Y-149385266D01*
X91250499Y-149385258D01*
X158749500Y-149385258D01*
X158749500Y-149614741D01*
X158760264Y-149696496D01*
X158779452Y-149842238D01*
X158781274Y-149849037D01*
X158838842Y-150063887D01*
X158926650Y-150275876D01*
X158926657Y-150275890D01*
X159041392Y-150474617D01*
X159181081Y-150656661D01*
X159181089Y-150656670D01*
X159343330Y-150818911D01*
X159343338Y-150818918D01*
X159525382Y-150958607D01*
X159525385Y-150958608D01*
X159525388Y-150958611D01*
X159724112Y-151073344D01*
X159724117Y-151073346D01*
X159724123Y-151073349D01*
X159815480Y-151111190D01*
X159936113Y-151161158D01*
X160157762Y-151220548D01*
X160385266Y-151250500D01*
X160385273Y-151250500D01*
X160614727Y-151250500D01*
X160614734Y-151250500D01*
X160842238Y-151220548D01*
X161063887Y-151161158D01*
X161275888Y-151073344D01*
X161474612Y-150958611D01*
X161656661Y-150818919D01*
X161656665Y-150818914D01*
X161656670Y-150818911D01*
X161818911Y-150656670D01*
X161818914Y-150656665D01*
X161818919Y-150656661D01*
X161958611Y-150474612D01*
X162073344Y-150275888D01*
X162161158Y-150063887D01*
X162220548Y-149842238D01*
X162250500Y-149614734D01*
X162250500Y-149385266D01*
X162220548Y-149157762D01*
X162161158Y-148936113D01*
X162073344Y-148724112D01*
X161958611Y-148525388D01*
X161958608Y-148525385D01*
X161958607Y-148525382D01*
X161818918Y-148343338D01*
X161818911Y-148343330D01*
X161656670Y-148181089D01*
X161656661Y-148181081D01*
X161474617Y-148041392D01*
X161275890Y-147926657D01*
X161275876Y-147926650D01*
X161063887Y-147838842D01*
X160842238Y-147779452D01*
X160804215Y-147774446D01*
X160614741Y-147749500D01*
X160614734Y-147749500D01*
X160385266Y-147749500D01*
X160385258Y-147749500D01*
X160168715Y-147778009D01*
X160157762Y-147779452D01*
X160064076Y-147804554D01*
X159936112Y-147838842D01*
X159724123Y-147926650D01*
X159724109Y-147926657D01*
X159525382Y-148041392D01*
X159343338Y-148181081D01*
X159181081Y-148343338D01*
X159041392Y-148525382D01*
X158926657Y-148724109D01*
X158926650Y-148724123D01*
X158838842Y-148936112D01*
X158779453Y-149157759D01*
X158779451Y-149157770D01*
X158749500Y-149385258D01*
X91250499Y-149385258D01*
X91220548Y-149157762D01*
X91161158Y-148936113D01*
X91073344Y-148724112D01*
X90958611Y-148525388D01*
X90958608Y-148525385D01*
X90958607Y-148525382D01*
X90818918Y-148343338D01*
X90818911Y-148343330D01*
X90656670Y-148181089D01*
X90656661Y-148181081D01*
X90474617Y-148041392D01*
X90275890Y-147926657D01*
X90275876Y-147926650D01*
X90063887Y-147838842D01*
X89842238Y-147779452D01*
X89804215Y-147774446D01*
X89614741Y-147749500D01*
X89614734Y-147749500D01*
X89385266Y-147749500D01*
X89385258Y-147749500D01*
X89168715Y-147778009D01*
X89157762Y-147779452D01*
X89064076Y-147804554D01*
X88936112Y-147838842D01*
X88724123Y-147926650D01*
X88724109Y-147926657D01*
X88525382Y-148041392D01*
X88343338Y-148181081D01*
X88181081Y-148343338D01*
X88041392Y-148525382D01*
X87926657Y-148724109D01*
X87926650Y-148724123D01*
X87838842Y-148936112D01*
X87779453Y-149157759D01*
X87779451Y-149157770D01*
X87749500Y-149385258D01*
X86000500Y-149385258D01*
X86000500Y-136913389D01*
X99319500Y-136913389D01*
X99319500Y-137086611D01*
X99346598Y-137257701D01*
X99400127Y-137422445D01*
X99478768Y-137576788D01*
X99580586Y-137716928D01*
X99703072Y-137839414D01*
X99843212Y-137941232D01*
X99997555Y-138019873D01*
X100162299Y-138073402D01*
X100333389Y-138100500D01*
X100333390Y-138100500D01*
X100506610Y-138100500D01*
X100506611Y-138100500D01*
X100677701Y-138073402D01*
X100842445Y-138019873D01*
X100996788Y-137941232D01*
X101136928Y-137839414D01*
X101259414Y-137716928D01*
X101361232Y-137576788D01*
X101439873Y-137422445D01*
X101493402Y-137257701D01*
X101520500Y-137086611D01*
X101520500Y-136913389D01*
X101510854Y-136852486D01*
X103249500Y-136852486D01*
X103249500Y-137147513D01*
X103281571Y-137391113D01*
X103288007Y-137439993D01*
X103362212Y-137716930D01*
X103364361Y-137724951D01*
X103364364Y-137724961D01*
X103477254Y-137997500D01*
X103477258Y-137997510D01*
X103624761Y-138252993D01*
X103804352Y-138487040D01*
X103804358Y-138487047D01*
X104012952Y-138695641D01*
X104012959Y-138695647D01*
X104247006Y-138875238D01*
X104502489Y-139022741D01*
X104502490Y-139022741D01*
X104502493Y-139022743D01*
X104775048Y-139135639D01*
X105060007Y-139211993D01*
X105352494Y-139250500D01*
X105352501Y-139250500D01*
X105647499Y-139250500D01*
X105647506Y-139250500D01*
X105939993Y-139211993D01*
X106224952Y-139135639D01*
X106497507Y-139022743D01*
X106752994Y-138875238D01*
X106987042Y-138695646D01*
X107195646Y-138487042D01*
X107375238Y-138252994D01*
X107522743Y-137997507D01*
X107635639Y-137724952D01*
X107711993Y-137439993D01*
X107750500Y-137147506D01*
X107750500Y-136913389D01*
X109479500Y-136913389D01*
X109479500Y-137086611D01*
X109506598Y-137257701D01*
X109560127Y-137422445D01*
X109638768Y-137576788D01*
X109740586Y-137716928D01*
X109863072Y-137839414D01*
X110003212Y-137941232D01*
X110157555Y-138019873D01*
X110322299Y-138073402D01*
X110493389Y-138100500D01*
X110493390Y-138100500D01*
X110666610Y-138100500D01*
X110666611Y-138100500D01*
X110837701Y-138073402D01*
X111002445Y-138019873D01*
X111156788Y-137941232D01*
X111296928Y-137839414D01*
X111419414Y-137716928D01*
X111521232Y-137576788D01*
X111599873Y-137422445D01*
X111653402Y-137257701D01*
X111680500Y-137086611D01*
X111680500Y-136913389D01*
X118819500Y-136913389D01*
X118819500Y-137086611D01*
X118846598Y-137257701D01*
X118900127Y-137422445D01*
X118978768Y-137576788D01*
X119080586Y-137716928D01*
X119203072Y-137839414D01*
X119343212Y-137941232D01*
X119497555Y-138019873D01*
X119662299Y-138073402D01*
X119833389Y-138100500D01*
X119833390Y-138100500D01*
X120006610Y-138100500D01*
X120006611Y-138100500D01*
X120177701Y-138073402D01*
X120342445Y-138019873D01*
X120496788Y-137941232D01*
X120636928Y-137839414D01*
X120759414Y-137716928D01*
X120861232Y-137576788D01*
X120939873Y-137422445D01*
X120993402Y-137257701D01*
X121020500Y-137086611D01*
X121020500Y-136913389D01*
X121010854Y-136852486D01*
X122749500Y-136852486D01*
X122749500Y-137147513D01*
X122781571Y-137391113D01*
X122788007Y-137439993D01*
X122862212Y-137716930D01*
X122864361Y-137724951D01*
X122864364Y-137724961D01*
X122977254Y-137997500D01*
X122977258Y-137997510D01*
X123124761Y-138252993D01*
X123304352Y-138487040D01*
X123304358Y-138487047D01*
X123512952Y-138695641D01*
X123512959Y-138695647D01*
X123747006Y-138875238D01*
X124002489Y-139022741D01*
X124002490Y-139022741D01*
X124002493Y-139022743D01*
X124275048Y-139135639D01*
X124560007Y-139211993D01*
X124852494Y-139250500D01*
X124852501Y-139250500D01*
X125147499Y-139250500D01*
X125147506Y-139250500D01*
X125439993Y-139211993D01*
X125724952Y-139135639D01*
X125997507Y-139022743D01*
X126252994Y-138875238D01*
X126487042Y-138695646D01*
X126695646Y-138487042D01*
X126875238Y-138252994D01*
X127022743Y-137997507D01*
X127135639Y-137724952D01*
X127211993Y-137439993D01*
X127250500Y-137147506D01*
X127250500Y-136913389D01*
X128979500Y-136913389D01*
X128979500Y-137086611D01*
X129006598Y-137257701D01*
X129060127Y-137422445D01*
X129138768Y-137576788D01*
X129240586Y-137716928D01*
X129363072Y-137839414D01*
X129503212Y-137941232D01*
X129657555Y-138019873D01*
X129822299Y-138073402D01*
X129993389Y-138100500D01*
X129993390Y-138100500D01*
X130166610Y-138100500D01*
X130166611Y-138100500D01*
X130337701Y-138073402D01*
X130502445Y-138019873D01*
X130656788Y-137941232D01*
X130796928Y-137839414D01*
X130919414Y-137716928D01*
X131021232Y-137576788D01*
X131099873Y-137422445D01*
X131153402Y-137257701D01*
X131180500Y-137086611D01*
X131180500Y-136913389D01*
X138319500Y-136913389D01*
X138319500Y-137086611D01*
X138346598Y-137257701D01*
X138400127Y-137422445D01*
X138478768Y-137576788D01*
X138580586Y-137716928D01*
X138703072Y-137839414D01*
X138843212Y-137941232D01*
X138997555Y-138019873D01*
X139162299Y-138073402D01*
X139333389Y-138100500D01*
X139333390Y-138100500D01*
X139506610Y-138100500D01*
X139506611Y-138100500D01*
X139677701Y-138073402D01*
X139842445Y-138019873D01*
X139996788Y-137941232D01*
X140136928Y-137839414D01*
X140259414Y-137716928D01*
X140361232Y-137576788D01*
X140439873Y-137422445D01*
X140493402Y-137257701D01*
X140520500Y-137086611D01*
X140520500Y-136913389D01*
X140510854Y-136852486D01*
X142249500Y-136852486D01*
X142249500Y-137147513D01*
X142281571Y-137391113D01*
X142288007Y-137439993D01*
X142362212Y-137716930D01*
X142364361Y-137724951D01*
X142364364Y-137724961D01*
X142477254Y-137997500D01*
X142477258Y-137997510D01*
X142624761Y-138252993D01*
X142804352Y-138487040D01*
X142804358Y-138487047D01*
X143012952Y-138695641D01*
X143012959Y-138695647D01*
X143247006Y-138875238D01*
X143502489Y-139022741D01*
X143502490Y-139022741D01*
X143502493Y-139022743D01*
X143775048Y-139135639D01*
X144060007Y-139211993D01*
X144352494Y-139250500D01*
X144352501Y-139250500D01*
X144647499Y-139250500D01*
X144647506Y-139250500D01*
X144939993Y-139211993D01*
X145224952Y-139135639D01*
X145497507Y-139022743D01*
X145752994Y-138875238D01*
X145987042Y-138695646D01*
X146195646Y-138487042D01*
X146375238Y-138252994D01*
X146522743Y-137997507D01*
X146635639Y-137724952D01*
X146711993Y-137439993D01*
X146750500Y-137147506D01*
X146750500Y-136913389D01*
X148479500Y-136913389D01*
X148479500Y-137086611D01*
X148506598Y-137257701D01*
X148560127Y-137422445D01*
X148638768Y-137576788D01*
X148740586Y-137716928D01*
X148863072Y-137839414D01*
X149003212Y-137941232D01*
X149157555Y-138019873D01*
X149322299Y-138073402D01*
X149493389Y-138100500D01*
X149493390Y-138100500D01*
X149666610Y-138100500D01*
X149666611Y-138100500D01*
X149837701Y-138073402D01*
X150002445Y-138019873D01*
X150156788Y-137941232D01*
X150296928Y-137839414D01*
X150419414Y-137716928D01*
X150521232Y-137576788D01*
X150599873Y-137422445D01*
X150653402Y-137257701D01*
X150680500Y-137086611D01*
X150680500Y-136913389D01*
X150653402Y-136742299D01*
X150599873Y-136577555D01*
X150521232Y-136423212D01*
X150419414Y-136283072D01*
X150296928Y-136160586D01*
X150156788Y-136058768D01*
X150002445Y-135980127D01*
X149837701Y-135926598D01*
X149837699Y-135926597D01*
X149837698Y-135926597D01*
X149706271Y-135905781D01*
X149666611Y-135899500D01*
X149493389Y-135899500D01*
X149453728Y-135905781D01*
X149322302Y-135926597D01*
X149157552Y-135980128D01*
X149003211Y-136058768D01*
X148923256Y-136116859D01*
X148863072Y-136160586D01*
X148863070Y-136160588D01*
X148863069Y-136160588D01*
X148740588Y-136283069D01*
X148740588Y-136283070D01*
X148740586Y-136283072D01*
X148696859Y-136343256D01*
X148638768Y-136423211D01*
X148560128Y-136577552D01*
X148506597Y-136742302D01*
X148489146Y-136852486D01*
X148479500Y-136913389D01*
X146750500Y-136913389D01*
X146750500Y-136852494D01*
X146711993Y-136560007D01*
X146635639Y-136275048D01*
X146522743Y-136002493D01*
X146458064Y-135890466D01*
X146375238Y-135747006D01*
X146195647Y-135512959D01*
X146195641Y-135512952D01*
X145987047Y-135304358D01*
X145987040Y-135304352D01*
X145752993Y-135124761D01*
X145497510Y-134977258D01*
X145497500Y-134977254D01*
X145224961Y-134864364D01*
X145224954Y-134864362D01*
X145224952Y-134864361D01*
X144939993Y-134788007D01*
X144891113Y-134781571D01*
X144647513Y-134749500D01*
X144647506Y-134749500D01*
X144352494Y-134749500D01*
X144352486Y-134749500D01*
X144074085Y-134786153D01*
X144060007Y-134788007D01*
X143775048Y-134864361D01*
X143775038Y-134864364D01*
X143502499Y-134977254D01*
X143502489Y-134977258D01*
X143247006Y-135124761D01*
X143012959Y-135304352D01*
X143012952Y-135304358D01*
X142804358Y-135512952D01*
X142804352Y-135512959D01*
X142624761Y-135747006D01*
X142477258Y-136002489D01*
X142477254Y-136002499D01*
X142364364Y-136275038D01*
X142364361Y-136275048D01*
X142288008Y-136560004D01*
X142288006Y-136560015D01*
X142249500Y-136852486D01*
X140510854Y-136852486D01*
X140493402Y-136742299D01*
X140439873Y-136577555D01*
X140361232Y-136423212D01*
X140259414Y-136283072D01*
X140201232Y-136224890D01*
X140167747Y-136163567D01*
X140172731Y-136093875D01*
X140214603Y-136037942D01*
X140280067Y-136013525D01*
X140317856Y-136016634D01*
X140438852Y-136045683D01*
X140690000Y-136065449D01*
X140941148Y-136045683D01*
X141186111Y-135986873D01*
X141418859Y-135890466D01*
X141633659Y-135758836D01*
X141825224Y-135595224D01*
X141988836Y-135403659D01*
X142120466Y-135188859D01*
X142216873Y-134956111D01*
X142275683Y-134711148D01*
X142295449Y-134460000D01*
X142275683Y-134208852D01*
X142216873Y-133963889D01*
X142120466Y-133731141D01*
X142120466Y-133731140D01*
X141988839Y-133516346D01*
X141988838Y-133516343D01*
X141847165Y-133350466D01*
X141825224Y-133324776D01*
X141698571Y-133216604D01*
X141633656Y-133161161D01*
X141633653Y-133161160D01*
X141418859Y-133029533D01*
X141186110Y-132933126D01*
X140941151Y-132874317D01*
X140690000Y-132854551D01*
X140438848Y-132874317D01*
X140193889Y-132933126D01*
X139961140Y-133029533D01*
X139746346Y-133161160D01*
X139746343Y-133161161D01*
X139554776Y-133324776D01*
X139391161Y-133516343D01*
X139391160Y-133516346D01*
X139259533Y-133731140D01*
X139163126Y-133963889D01*
X139104317Y-134208848D01*
X139084551Y-134460000D01*
X139104317Y-134711151D01*
X139163126Y-134956110D01*
X139259533Y-135188859D01*
X139391160Y-135403653D01*
X139391161Y-135403656D01*
X139391164Y-135403659D01*
X139554776Y-135595224D01*
X139668783Y-135692595D01*
X139706976Y-135751102D01*
X139707474Y-135820970D01*
X139670121Y-135880016D01*
X139606774Y-135909494D01*
X139568854Y-135909358D01*
X139506611Y-135899500D01*
X139333389Y-135899500D01*
X139293728Y-135905781D01*
X139162302Y-135926597D01*
X138997552Y-135980128D01*
X138843211Y-136058768D01*
X138763256Y-136116859D01*
X138703072Y-136160586D01*
X138703070Y-136160588D01*
X138703069Y-136160588D01*
X138580588Y-136283069D01*
X138580588Y-136283070D01*
X138580586Y-136283072D01*
X138536859Y-136343256D01*
X138478768Y-136423211D01*
X138400128Y-136577552D01*
X138346597Y-136742302D01*
X138329146Y-136852486D01*
X138319500Y-136913389D01*
X131180500Y-136913389D01*
X131153402Y-136742299D01*
X131099873Y-136577555D01*
X131021232Y-136423212D01*
X130919414Y-136283072D01*
X130796928Y-136160586D01*
X130656788Y-136058768D01*
X130502445Y-135980127D01*
X130337701Y-135926598D01*
X130337699Y-135926597D01*
X130337698Y-135926597D01*
X130206271Y-135905781D01*
X130166611Y-135899500D01*
X129993389Y-135899500D01*
X129953728Y-135905781D01*
X129822302Y-135926597D01*
X129657552Y-135980128D01*
X129503211Y-136058768D01*
X129423256Y-136116859D01*
X129363072Y-136160586D01*
X129363070Y-136160588D01*
X129363069Y-136160588D01*
X129240588Y-136283069D01*
X129240588Y-136283070D01*
X129240586Y-136283072D01*
X129196859Y-136343256D01*
X129138768Y-136423211D01*
X129060128Y-136577552D01*
X129006597Y-136742302D01*
X128989146Y-136852486D01*
X128979500Y-136913389D01*
X127250500Y-136913389D01*
X127250500Y-136852494D01*
X127211993Y-136560007D01*
X127135639Y-136275048D01*
X127022743Y-136002493D01*
X126958064Y-135890466D01*
X126875238Y-135747006D01*
X126695647Y-135512959D01*
X126695641Y-135512952D01*
X126487047Y-135304358D01*
X126487040Y-135304352D01*
X126252993Y-135124761D01*
X125997510Y-134977258D01*
X125997500Y-134977254D01*
X125724961Y-134864364D01*
X125724954Y-134864362D01*
X125724952Y-134864361D01*
X125439993Y-134788007D01*
X125391113Y-134781571D01*
X125147513Y-134749500D01*
X125147506Y-134749500D01*
X124852494Y-134749500D01*
X124852486Y-134749500D01*
X124574085Y-134786153D01*
X124560007Y-134788007D01*
X124275048Y-134864361D01*
X124275038Y-134864364D01*
X124002499Y-134977254D01*
X124002489Y-134977258D01*
X123747006Y-135124761D01*
X123512959Y-135304352D01*
X123512952Y-135304358D01*
X123304358Y-135512952D01*
X123304352Y-135512959D01*
X123124761Y-135747006D01*
X122977258Y-136002489D01*
X122977254Y-136002499D01*
X122864364Y-136275038D01*
X122864361Y-136275048D01*
X122788008Y-136560004D01*
X122788006Y-136560015D01*
X122749500Y-136852486D01*
X121010854Y-136852486D01*
X120993402Y-136742299D01*
X120939873Y-136577555D01*
X120861232Y-136423212D01*
X120759414Y-136283072D01*
X120701232Y-136224890D01*
X120667747Y-136163567D01*
X120672731Y-136093875D01*
X120714603Y-136037942D01*
X120780067Y-136013525D01*
X120817856Y-136016634D01*
X120938852Y-136045683D01*
X121190000Y-136065449D01*
X121441148Y-136045683D01*
X121686111Y-135986873D01*
X121918859Y-135890466D01*
X122133659Y-135758836D01*
X122325224Y-135595224D01*
X122488836Y-135403659D01*
X122620466Y-135188859D01*
X122716873Y-134956111D01*
X122775683Y-134711148D01*
X122795449Y-134460000D01*
X122775683Y-134208852D01*
X122716873Y-133963889D01*
X122620466Y-133731141D01*
X122620466Y-133731140D01*
X122488839Y-133516346D01*
X122488838Y-133516343D01*
X122347165Y-133350466D01*
X122325224Y-133324776D01*
X122198571Y-133216604D01*
X122133656Y-133161161D01*
X122133653Y-133161160D01*
X121918859Y-133029533D01*
X121686110Y-132933126D01*
X121441151Y-132874317D01*
X121190000Y-132854551D01*
X120938848Y-132874317D01*
X120693889Y-132933126D01*
X120461140Y-133029533D01*
X120246346Y-133161160D01*
X120246343Y-133161161D01*
X120054776Y-133324776D01*
X119891161Y-133516343D01*
X119891160Y-133516346D01*
X119759533Y-133731140D01*
X119663126Y-133963889D01*
X119604317Y-134208848D01*
X119584551Y-134460000D01*
X119604317Y-134711151D01*
X119663126Y-134956110D01*
X119759533Y-135188859D01*
X119891160Y-135403653D01*
X119891161Y-135403656D01*
X119891164Y-135403659D01*
X120054776Y-135595224D01*
X120168783Y-135692595D01*
X120206976Y-135751102D01*
X120207474Y-135820970D01*
X120170121Y-135880016D01*
X120106774Y-135909494D01*
X120068854Y-135909358D01*
X120006611Y-135899500D01*
X119833389Y-135899500D01*
X119793728Y-135905781D01*
X119662302Y-135926597D01*
X119497552Y-135980128D01*
X119343211Y-136058768D01*
X119263256Y-136116859D01*
X119203072Y-136160586D01*
X119203070Y-136160588D01*
X119203069Y-136160588D01*
X119080588Y-136283069D01*
X119080588Y-136283070D01*
X119080586Y-136283072D01*
X119036859Y-136343256D01*
X118978768Y-136423211D01*
X118900128Y-136577552D01*
X118846597Y-136742302D01*
X118829146Y-136852486D01*
X118819500Y-136913389D01*
X111680500Y-136913389D01*
X111653402Y-136742299D01*
X111599873Y-136577555D01*
X111521232Y-136423212D01*
X111419414Y-136283072D01*
X111296928Y-136160586D01*
X111156788Y-136058768D01*
X111002445Y-135980127D01*
X110837701Y-135926598D01*
X110837699Y-135926597D01*
X110837698Y-135926597D01*
X110706271Y-135905781D01*
X110666611Y-135899500D01*
X110493389Y-135899500D01*
X110453728Y-135905781D01*
X110322302Y-135926597D01*
X110157552Y-135980128D01*
X110003211Y-136058768D01*
X109923256Y-136116859D01*
X109863072Y-136160586D01*
X109863070Y-136160588D01*
X109863069Y-136160588D01*
X109740588Y-136283069D01*
X109740588Y-136283070D01*
X109740586Y-136283072D01*
X109696859Y-136343256D01*
X109638768Y-136423211D01*
X109560128Y-136577552D01*
X109506597Y-136742302D01*
X109489146Y-136852486D01*
X109479500Y-136913389D01*
X107750500Y-136913389D01*
X107750500Y-136852494D01*
X107711993Y-136560007D01*
X107635639Y-136275048D01*
X107522743Y-136002493D01*
X107458064Y-135890466D01*
X107375238Y-135747006D01*
X107195647Y-135512959D01*
X107195641Y-135512952D01*
X106987047Y-135304358D01*
X106987040Y-135304352D01*
X106752993Y-135124761D01*
X106497510Y-134977258D01*
X106497500Y-134977254D01*
X106224961Y-134864364D01*
X106224954Y-134864362D01*
X106224952Y-134864361D01*
X105939993Y-134788007D01*
X105891113Y-134781571D01*
X105647513Y-134749500D01*
X105647506Y-134749500D01*
X105352494Y-134749500D01*
X105352486Y-134749500D01*
X105074085Y-134786153D01*
X105060007Y-134788007D01*
X104775048Y-134864361D01*
X104775038Y-134864364D01*
X104502499Y-134977254D01*
X104502489Y-134977258D01*
X104247006Y-135124761D01*
X104012959Y-135304352D01*
X104012952Y-135304358D01*
X103804358Y-135512952D01*
X103804352Y-135512959D01*
X103624761Y-135747006D01*
X103477258Y-136002489D01*
X103477254Y-136002499D01*
X103364364Y-136275038D01*
X103364361Y-136275048D01*
X103288008Y-136560004D01*
X103288006Y-136560015D01*
X103249500Y-136852486D01*
X101510854Y-136852486D01*
X101493402Y-136742299D01*
X101439873Y-136577555D01*
X101361232Y-136423212D01*
X101259414Y-136283072D01*
X101201232Y-136224890D01*
X101167747Y-136163567D01*
X101172731Y-136093875D01*
X101214603Y-136037942D01*
X101280067Y-136013525D01*
X101317856Y-136016634D01*
X101438852Y-136045683D01*
X101690000Y-136065449D01*
X101941148Y-136045683D01*
X102186111Y-135986873D01*
X102418859Y-135890466D01*
X102633659Y-135758836D01*
X102825224Y-135595224D01*
X102988836Y-135403659D01*
X103120466Y-135188859D01*
X103216873Y-134956111D01*
X103275683Y-134711148D01*
X103295449Y-134460000D01*
X103275683Y-134208852D01*
X103216873Y-133963889D01*
X103120466Y-133731141D01*
X103120466Y-133731140D01*
X102988839Y-133516346D01*
X102988838Y-133516343D01*
X102847165Y-133350466D01*
X102825224Y-133324776D01*
X102698571Y-133216604D01*
X102633656Y-133161161D01*
X102633653Y-133161160D01*
X102418859Y-133029533D01*
X102186110Y-132933126D01*
X101941151Y-132874317D01*
X101690000Y-132854551D01*
X101438848Y-132874317D01*
X101193889Y-132933126D01*
X100961140Y-133029533D01*
X100746346Y-133161160D01*
X100746343Y-133161161D01*
X100554776Y-133324776D01*
X100391161Y-133516343D01*
X100391160Y-133516346D01*
X100259533Y-133731140D01*
X100163126Y-133963889D01*
X100104317Y-134208848D01*
X100084551Y-134460000D01*
X100104317Y-134711151D01*
X100163126Y-134956110D01*
X100259533Y-135188859D01*
X100391160Y-135403653D01*
X100391161Y-135403656D01*
X100391164Y-135403659D01*
X100554776Y-135595224D01*
X100668783Y-135692595D01*
X100706976Y-135751102D01*
X100707474Y-135820970D01*
X100670121Y-135880016D01*
X100606774Y-135909494D01*
X100568854Y-135909358D01*
X100506611Y-135899500D01*
X100333389Y-135899500D01*
X100293728Y-135905781D01*
X100162302Y-135926597D01*
X99997552Y-135980128D01*
X99843211Y-136058768D01*
X99763256Y-136116859D01*
X99703072Y-136160586D01*
X99703070Y-136160588D01*
X99703069Y-136160588D01*
X99580588Y-136283069D01*
X99580588Y-136283070D01*
X99580586Y-136283072D01*
X99536859Y-136343256D01*
X99478768Y-136423211D01*
X99400128Y-136577552D01*
X99346597Y-136742302D01*
X99329146Y-136852486D01*
X99319500Y-136913389D01*
X86000500Y-136913389D01*
X86000500Y-131920000D01*
X106434551Y-131920000D01*
X106454317Y-132171151D01*
X106513126Y-132416110D01*
X106609533Y-132648859D01*
X106741160Y-132863653D01*
X106741161Y-132863656D01*
X106796604Y-132928571D01*
X106904776Y-133055224D01*
X107028811Y-133161160D01*
X107096343Y-133218838D01*
X107096346Y-133218839D01*
X107311140Y-133350466D01*
X107543889Y-133446873D01*
X107788852Y-133505683D01*
X108040000Y-133525449D01*
X108291148Y-133505683D01*
X108536111Y-133446873D01*
X108768859Y-133350466D01*
X108983659Y-133218836D01*
X109175224Y-133055224D01*
X109338836Y-132863659D01*
X109470466Y-132648859D01*
X109566873Y-132416111D01*
X109625683Y-132171148D01*
X109645449Y-131920000D01*
X125934551Y-131920000D01*
X125954317Y-132171151D01*
X126013126Y-132416110D01*
X126109533Y-132648859D01*
X126241160Y-132863653D01*
X126241161Y-132863656D01*
X126296604Y-132928571D01*
X126404776Y-133055224D01*
X126528811Y-133161160D01*
X126596343Y-133218838D01*
X126596346Y-133218839D01*
X126811140Y-133350466D01*
X127043889Y-133446873D01*
X127288852Y-133505683D01*
X127540000Y-133525449D01*
X127791148Y-133505683D01*
X128036111Y-133446873D01*
X128268859Y-133350466D01*
X128483659Y-133218836D01*
X128675224Y-133055224D01*
X128838836Y-132863659D01*
X128970466Y-132648859D01*
X129066873Y-132416111D01*
X129125683Y-132171148D01*
X129145449Y-131920000D01*
X145434551Y-131920000D01*
X145454317Y-132171151D01*
X145513126Y-132416110D01*
X145609533Y-132648859D01*
X145741160Y-132863653D01*
X145741161Y-132863656D01*
X145796604Y-132928571D01*
X145904776Y-133055224D01*
X146028811Y-133161160D01*
X146096343Y-133218838D01*
X146096346Y-133218839D01*
X146311140Y-133350466D01*
X146543889Y-133446873D01*
X146788852Y-133505683D01*
X147040000Y-133525449D01*
X147291148Y-133505683D01*
X147536111Y-133446873D01*
X147768859Y-133350466D01*
X147983659Y-133218836D01*
X148175224Y-133055224D01*
X148338836Y-132863659D01*
X148470466Y-132648859D01*
X148566873Y-132416111D01*
X148625683Y-132171148D01*
X148645449Y-131920000D01*
X148625683Y-131668852D01*
X148566873Y-131423889D01*
X148470466Y-131191141D01*
X148470466Y-131191140D01*
X148338839Y-130976346D01*
X148338838Y-130976343D01*
X148301875Y-130933066D01*
X148175224Y-130784776D01*
X148048571Y-130676604D01*
X147983656Y-130621161D01*
X147983653Y-130621160D01*
X147768859Y-130489533D01*
X147536110Y-130393126D01*
X147291151Y-130334317D01*
X147040000Y-130314551D01*
X146788848Y-130334317D01*
X146543889Y-130393126D01*
X146311140Y-130489533D01*
X146096346Y-130621160D01*
X146096343Y-130621161D01*
X145904776Y-130784776D01*
X145741161Y-130976343D01*
X145741160Y-130976346D01*
X145609533Y-131191140D01*
X145513126Y-131423889D01*
X145454317Y-131668848D01*
X145434551Y-131920000D01*
X129145449Y-131920000D01*
X129125683Y-131668852D01*
X129066873Y-131423889D01*
X128970466Y-131191141D01*
X128970466Y-131191140D01*
X128838839Y-130976346D01*
X128838838Y-130976343D01*
X128801875Y-130933066D01*
X128675224Y-130784776D01*
X128548571Y-130676604D01*
X128483656Y-130621161D01*
X128483653Y-130621160D01*
X128268859Y-130489533D01*
X128036110Y-130393126D01*
X127791151Y-130334317D01*
X127540000Y-130314551D01*
X127288848Y-130334317D01*
X127043889Y-130393126D01*
X126811140Y-130489533D01*
X126596346Y-130621160D01*
X126596343Y-130621161D01*
X126404776Y-130784776D01*
X126241161Y-130976343D01*
X126241160Y-130976346D01*
X126109533Y-131191140D01*
X126013126Y-131423889D01*
X125954317Y-131668848D01*
X125934551Y-131920000D01*
X109645449Y-131920000D01*
X109625683Y-131668852D01*
X109566873Y-131423889D01*
X109470466Y-131191141D01*
X109470466Y-131191140D01*
X109338839Y-130976346D01*
X109338838Y-130976343D01*
X109301875Y-130933066D01*
X109175224Y-130784776D01*
X109048571Y-130676604D01*
X108983656Y-130621161D01*
X108983653Y-130621160D01*
X108768859Y-130489533D01*
X108536110Y-130393126D01*
X108291151Y-130334317D01*
X108040000Y-130314551D01*
X107788848Y-130334317D01*
X107543889Y-130393126D01*
X107311140Y-130489533D01*
X107096346Y-130621160D01*
X107096343Y-130621161D01*
X106904776Y-130784776D01*
X106741161Y-130976343D01*
X106741160Y-130976346D01*
X106609533Y-131191140D01*
X106513126Y-131423889D01*
X106454317Y-131668848D01*
X106434551Y-131920000D01*
X86000500Y-131920000D01*
X86000500Y-129397844D01*
X113250000Y-129397844D01*
X113256401Y-129457372D01*
X113256403Y-129457379D01*
X113306645Y-129592086D01*
X113306649Y-129592093D01*
X113392809Y-129707187D01*
X113392812Y-129707190D01*
X113507906Y-129793350D01*
X113507913Y-129793354D01*
X113642620Y-129843596D01*
X113642627Y-129843598D01*
X113702155Y-129849999D01*
X113702172Y-129850000D01*
X114250000Y-129850000D01*
X114750000Y-129850000D01*
X115297828Y-129850000D01*
X115297844Y-129849999D01*
X115357372Y-129843598D01*
X115357379Y-129843596D01*
X115492086Y-129793354D01*
X115492093Y-129793350D01*
X115607187Y-129707190D01*
X115607190Y-129707187D01*
X115693350Y-129592093D01*
X115693354Y-129592086D01*
X115743596Y-129457379D01*
X115743598Y-129457372D01*
X115749999Y-129397844D01*
X115750000Y-129397827D01*
X115750000Y-129150000D01*
X114750000Y-129150000D01*
X114750000Y-129850000D01*
X114250000Y-129850000D01*
X114250000Y-129150000D01*
X113250000Y-129150000D01*
X113250000Y-129397844D01*
X86000500Y-129397844D01*
X86000500Y-128402155D01*
X113250000Y-128402155D01*
X113250000Y-128650000D01*
X114250000Y-128650000D01*
X114750000Y-128650000D01*
X115750000Y-128650000D01*
X115750000Y-128402172D01*
X115749999Y-128402155D01*
X115743598Y-128342627D01*
X115743596Y-128342620D01*
X115693354Y-128207913D01*
X115693350Y-128207906D01*
X115607190Y-128092812D01*
X115607187Y-128092809D01*
X115492093Y-128006649D01*
X115492086Y-128006645D01*
X115357379Y-127956403D01*
X115357372Y-127956401D01*
X115297844Y-127950000D01*
X114750000Y-127950000D01*
X114750000Y-128650000D01*
X114250000Y-128650000D01*
X114250000Y-127950000D01*
X113702155Y-127950000D01*
X113642627Y-127956401D01*
X113642620Y-127956403D01*
X113507913Y-128006645D01*
X113507906Y-128006649D01*
X113392812Y-128092809D01*
X113392809Y-128092812D01*
X113306649Y-128207906D01*
X113306645Y-128207913D01*
X113256403Y-128342620D01*
X113256401Y-128342627D01*
X113250000Y-128402155D01*
X86000500Y-128402155D01*
X86000500Y-125102135D01*
X113249500Y-125102135D01*
X113249500Y-126097870D01*
X113249501Y-126097876D01*
X113255908Y-126157483D01*
X113306202Y-126292328D01*
X113306206Y-126292335D01*
X113392452Y-126407544D01*
X113392455Y-126407547D01*
X113507664Y-126493793D01*
X113507671Y-126493797D01*
X113642517Y-126544091D01*
X113642516Y-126544091D01*
X113649444Y-126544835D01*
X113702127Y-126550500D01*
X114549902Y-126550499D01*
X114616941Y-126570183D01*
X114637582Y-126586817D01*
X116681284Y-128630520D01*
X116681286Y-128630521D01*
X116681290Y-128630524D01*
X116818209Y-128709573D01*
X116818216Y-128709577D01*
X116970943Y-128750501D01*
X116970945Y-128750501D01*
X117136654Y-128750501D01*
X117136670Y-128750500D01*
X118025500Y-128750500D01*
X118092539Y-128770185D01*
X118138294Y-128822989D01*
X118149500Y-128874500D01*
X118149500Y-129397870D01*
X118149501Y-129397876D01*
X118155908Y-129457483D01*
X118206202Y-129592328D01*
X118206206Y-129592335D01*
X118292452Y-129707544D01*
X118292455Y-129707547D01*
X118407664Y-129793793D01*
X118407671Y-129793797D01*
X118542517Y-129844091D01*
X118542516Y-129844091D01*
X118549444Y-129844835D01*
X118602127Y-129850500D01*
X120197872Y-129850499D01*
X120257483Y-129844091D01*
X120392331Y-129793796D01*
X120507546Y-129707546D01*
X120593796Y-129592331D01*
X120610389Y-129547844D01*
X129300000Y-129547844D01*
X129306401Y-129607372D01*
X129306403Y-129607379D01*
X129356645Y-129742086D01*
X129356649Y-129742093D01*
X129442809Y-129857187D01*
X129442812Y-129857190D01*
X129557906Y-129943350D01*
X129557913Y-129943354D01*
X129692620Y-129993596D01*
X129692627Y-129993598D01*
X129752155Y-129999999D01*
X129752172Y-130000000D01*
X130300000Y-130000000D01*
X130800000Y-130000000D01*
X131347828Y-130000000D01*
X131347844Y-129999999D01*
X131407372Y-129993598D01*
X131407379Y-129993596D01*
X131542086Y-129943354D01*
X131542093Y-129943350D01*
X131657187Y-129857190D01*
X131657190Y-129857187D01*
X131743350Y-129742093D01*
X131743354Y-129742086D01*
X131793596Y-129607379D01*
X131793598Y-129607372D01*
X131799999Y-129547844D01*
X131800000Y-129547827D01*
X131800000Y-129300000D01*
X130800000Y-129300000D01*
X130800000Y-130000000D01*
X130300000Y-130000000D01*
X130300000Y-129300000D01*
X129300000Y-129300000D01*
X129300000Y-129547844D01*
X120610389Y-129547844D01*
X120644091Y-129457483D01*
X120650500Y-129397873D01*
X120650499Y-128874499D01*
X120670183Y-128807461D01*
X120722987Y-128761706D01*
X120774499Y-128750500D01*
X129199138Y-128750500D01*
X129266177Y-128770185D01*
X129286819Y-128786819D01*
X129300000Y-128800000D01*
X131800000Y-128800000D01*
X131813181Y-128786819D01*
X131874504Y-128753334D01*
X131900862Y-128750500D01*
X134075500Y-128750500D01*
X134142539Y-128770185D01*
X134188294Y-128822989D01*
X134199500Y-128874500D01*
X134199500Y-129547870D01*
X134199501Y-129547876D01*
X134205908Y-129607483D01*
X134256202Y-129742328D01*
X134256206Y-129742335D01*
X134342452Y-129857544D01*
X134342455Y-129857547D01*
X134457664Y-129943793D01*
X134457671Y-129943797D01*
X134592517Y-129994091D01*
X134592516Y-129994091D01*
X134599444Y-129994835D01*
X134652127Y-130000500D01*
X136247872Y-130000499D01*
X136307483Y-129994091D01*
X136442331Y-129943796D01*
X136557546Y-129857546D01*
X136643796Y-129742331D01*
X136694091Y-129607483D01*
X136700500Y-129547873D01*
X136700499Y-128552128D01*
X136694091Y-128492517D01*
X136643796Y-128357669D01*
X136643795Y-128357668D01*
X136643793Y-128357664D01*
X136557547Y-128242455D01*
X136557544Y-128242452D01*
X136442335Y-128156206D01*
X136442328Y-128156202D01*
X136307482Y-128105908D01*
X136307483Y-128105908D01*
X136247883Y-128099501D01*
X136247881Y-128099500D01*
X136247873Y-128099500D01*
X136247865Y-128099500D01*
X135400097Y-128099500D01*
X135333058Y-128079815D01*
X135312416Y-128063181D01*
X135037590Y-127788355D01*
X135037588Y-127788352D01*
X134945796Y-127696560D01*
X134912311Y-127635237D01*
X134917295Y-127565545D01*
X134959167Y-127509612D01*
X134964570Y-127505788D01*
X134974036Y-127499464D01*
X135726741Y-126746757D01*
X135788062Y-126713274D01*
X135828303Y-126711220D01*
X135999996Y-126730565D01*
X136000000Y-126730565D01*
X136000004Y-126730565D01*
X136179247Y-126710369D01*
X136179248Y-126710368D01*
X136179255Y-126710368D01*
X136183122Y-126709014D01*
X136187572Y-126707458D01*
X136228527Y-126700499D01*
X136247871Y-126700499D01*
X136247872Y-126700499D01*
X136307483Y-126694091D01*
X136442331Y-126643796D01*
X136557546Y-126557546D01*
X136643796Y-126442331D01*
X136673609Y-126362394D01*
X136684794Y-126339763D01*
X136725789Y-126274522D01*
X136785368Y-126104255D01*
X136786087Y-126097876D01*
X136805565Y-125925003D01*
X136805565Y-125924996D01*
X136785369Y-125745750D01*
X136785366Y-125745737D01*
X136725790Y-125575480D01*
X136719504Y-125565475D01*
X136700499Y-125499505D01*
X136700499Y-125252129D01*
X136700498Y-125252123D01*
X136700497Y-125252116D01*
X136694091Y-125192517D01*
X136660378Y-125102129D01*
X136643797Y-125057671D01*
X136643793Y-125057664D01*
X136557547Y-124942455D01*
X136557544Y-124942452D01*
X136442335Y-124856206D01*
X136442328Y-124856202D01*
X136307482Y-124805908D01*
X136307483Y-124805908D01*
X136247883Y-124799501D01*
X136247881Y-124799500D01*
X136247873Y-124799500D01*
X136247864Y-124799500D01*
X134652129Y-124799500D01*
X134652123Y-124799501D01*
X134592516Y-124805908D01*
X134457671Y-124856202D01*
X134457664Y-124856206D01*
X134342455Y-124942452D01*
X134342452Y-124942455D01*
X134256206Y-125057664D01*
X134256202Y-125057671D01*
X134205908Y-125192517D01*
X134199501Y-125252116D01*
X134199501Y-125252123D01*
X134199500Y-125252135D01*
X134199500Y-125675637D01*
X134179815Y-125742676D01*
X134163185Y-125763313D01*
X134063317Y-125863182D01*
X134001997Y-125896666D01*
X133975638Y-125899500D01*
X131924500Y-125899500D01*
X131857461Y-125879815D01*
X131811706Y-125827011D01*
X131800500Y-125775502D01*
X131800499Y-125700098D01*
X131820183Y-125633058D01*
X131836813Y-125612420D01*
X132318535Y-125130698D01*
X132379856Y-125097215D01*
X132392311Y-125095163D01*
X132479255Y-125085368D01*
X132649522Y-125025789D01*
X132802262Y-124929816D01*
X132929816Y-124802262D01*
X133025789Y-124649522D01*
X133085368Y-124479255D01*
X133105565Y-124300000D01*
X133102640Y-124274041D01*
X133085369Y-124120750D01*
X133085368Y-124120745D01*
X133058726Y-124044606D01*
X133025789Y-123950478D01*
X132929816Y-123797738D01*
X132802262Y-123670184D01*
X132649523Y-123574211D01*
X132479254Y-123514631D01*
X132479249Y-123514630D01*
X132300004Y-123494435D01*
X132299996Y-123494435D01*
X132120750Y-123514630D01*
X132120745Y-123514631D01*
X131950476Y-123574211D01*
X131797737Y-123670184D01*
X131670184Y-123797737D01*
X131574210Y-123950478D01*
X131514630Y-124120750D01*
X131504837Y-124207668D01*
X131477770Y-124272082D01*
X131469298Y-124281465D01*
X130987582Y-124763181D01*
X130926259Y-124796666D01*
X130899901Y-124799500D01*
X129752129Y-124799500D01*
X129752123Y-124799501D01*
X129692516Y-124805908D01*
X129557671Y-124856202D01*
X129557664Y-124856206D01*
X129442455Y-124942452D01*
X129442452Y-124942455D01*
X129356206Y-125057664D01*
X129356202Y-125057671D01*
X129305910Y-125192513D01*
X129305909Y-125192517D01*
X129299500Y-125252127D01*
X129299500Y-125575480D01*
X129299501Y-125775500D01*
X129279817Y-125842539D01*
X129227013Y-125888294D01*
X129175501Y-125899500D01*
X121024362Y-125899500D01*
X120957323Y-125879815D01*
X120936681Y-125863181D01*
X120686818Y-125613318D01*
X120653333Y-125551995D01*
X120650499Y-125525637D01*
X120650499Y-125102129D01*
X120650498Y-125102123D01*
X120650497Y-125102116D01*
X120644091Y-125042517D01*
X120606770Y-124942455D01*
X120593797Y-124907671D01*
X120593793Y-124907664D01*
X120507547Y-124792455D01*
X120507544Y-124792452D01*
X120392335Y-124706206D01*
X120392328Y-124706202D01*
X120257482Y-124655908D01*
X120257483Y-124655908D01*
X120197883Y-124649501D01*
X120197881Y-124649500D01*
X120197873Y-124649500D01*
X120197865Y-124649500D01*
X119774361Y-124649500D01*
X119707322Y-124629815D01*
X119686680Y-124613181D01*
X118436819Y-123363319D01*
X118403334Y-123301996D01*
X118400500Y-123275638D01*
X118400500Y-119999996D01*
X119194435Y-119999996D01*
X119194435Y-120000003D01*
X119214630Y-120179249D01*
X119214631Y-120179254D01*
X119274211Y-120349523D01*
X119370184Y-120502262D01*
X119497738Y-120629816D01*
X119650478Y-120725789D01*
X119820745Y-120785368D01*
X119820750Y-120785369D01*
X119999996Y-120805565D01*
X120000000Y-120805565D01*
X120000004Y-120805565D01*
X120179249Y-120785369D01*
X120179252Y-120785368D01*
X120179255Y-120785368D01*
X120349522Y-120725789D01*
X120502262Y-120629816D01*
X120502267Y-120629810D01*
X120505097Y-120627555D01*
X120507275Y-120626665D01*
X120508158Y-120626111D01*
X120508255Y-120626265D01*
X120569783Y-120601145D01*
X120582412Y-120600500D01*
X132913331Y-120600500D01*
X132913347Y-120600501D01*
X132920943Y-120600501D01*
X133079054Y-120600501D01*
X133079057Y-120600501D01*
X133231785Y-120559577D01*
X133281904Y-120530639D01*
X133368716Y-120480520D01*
X133480520Y-120368716D01*
X133480521Y-120368714D01*
X133499713Y-120349522D01*
X133518535Y-120330700D01*
X133579858Y-120297215D01*
X133592315Y-120295163D01*
X133679255Y-120285368D01*
X133849522Y-120225789D01*
X134002262Y-120129816D01*
X134129816Y-120002262D01*
X134225789Y-119849522D01*
X134285368Y-119679255D01*
X134285369Y-119679249D01*
X134305565Y-119500003D01*
X134305565Y-119499996D01*
X134285369Y-119320750D01*
X134285368Y-119320745D01*
X134225788Y-119150476D01*
X134129815Y-118997737D01*
X134002262Y-118870184D01*
X133849523Y-118774211D01*
X133679254Y-118714631D01*
X133679249Y-118714630D01*
X133500004Y-118694435D01*
X133499996Y-118694435D01*
X133320750Y-118714630D01*
X133320745Y-118714631D01*
X133150476Y-118774211D01*
X132997737Y-118870184D01*
X132870184Y-118997737D01*
X132774211Y-119150477D01*
X132716133Y-119316455D01*
X132675411Y-119373231D01*
X132610458Y-119398978D01*
X132599091Y-119399500D01*
X126582551Y-119399500D01*
X126515512Y-119379815D01*
X126469757Y-119327011D01*
X126459813Y-119257853D01*
X126488838Y-119194297D01*
X126494870Y-119187819D01*
X126695641Y-118987047D01*
X126695646Y-118987042D01*
X126875238Y-118752994D01*
X127022743Y-118497507D01*
X127135639Y-118224952D01*
X127211993Y-117939993D01*
X127250500Y-117647506D01*
X127250500Y-117413389D01*
X128979500Y-117413389D01*
X128979500Y-117586611D01*
X129006598Y-117757701D01*
X129060127Y-117922445D01*
X129138768Y-118076788D01*
X129240586Y-118216928D01*
X129363072Y-118339414D01*
X129503212Y-118441232D01*
X129657555Y-118519873D01*
X129822299Y-118573402D01*
X129993389Y-118600500D01*
X129993390Y-118600500D01*
X130166610Y-118600500D01*
X130166611Y-118600500D01*
X130337701Y-118573402D01*
X130502445Y-118519873D01*
X130656788Y-118441232D01*
X130796928Y-118339414D01*
X130919414Y-118216928D01*
X131021232Y-118076788D01*
X131099873Y-117922445D01*
X131153402Y-117757701D01*
X131180500Y-117586611D01*
X131180500Y-117413389D01*
X138319500Y-117413389D01*
X138319500Y-117586611D01*
X138346598Y-117757701D01*
X138400127Y-117922445D01*
X138478768Y-118076788D01*
X138580586Y-118216928D01*
X138703072Y-118339414D01*
X138843212Y-118441232D01*
X138997555Y-118519873D01*
X139162299Y-118573402D01*
X139333389Y-118600500D01*
X139333390Y-118600500D01*
X139506610Y-118600500D01*
X139506611Y-118600500D01*
X139677701Y-118573402D01*
X139842445Y-118519873D01*
X139996788Y-118441232D01*
X140136928Y-118339414D01*
X140259414Y-118216928D01*
X140361232Y-118076788D01*
X140439873Y-117922445D01*
X140493402Y-117757701D01*
X140520500Y-117586611D01*
X140520500Y-117413389D01*
X140510854Y-117352486D01*
X142249500Y-117352486D01*
X142249500Y-117647513D01*
X142281571Y-117891113D01*
X142288007Y-117939993D01*
X142362212Y-118216930D01*
X142364361Y-118224951D01*
X142364364Y-118224961D01*
X142477254Y-118497500D01*
X142477258Y-118497510D01*
X142624761Y-118752993D01*
X142804352Y-118987040D01*
X142804358Y-118987047D01*
X143012952Y-119195641D01*
X143012959Y-119195647D01*
X143247006Y-119375238D01*
X143502489Y-119522741D01*
X143502490Y-119522741D01*
X143502493Y-119522743D01*
X143775048Y-119635639D01*
X144060007Y-119711993D01*
X144352494Y-119750500D01*
X144352501Y-119750500D01*
X144647499Y-119750500D01*
X144647506Y-119750500D01*
X144939993Y-119711993D01*
X145224952Y-119635639D01*
X145497507Y-119522743D01*
X145752994Y-119375238D01*
X145987042Y-119195646D01*
X146195646Y-118987042D01*
X146375238Y-118752994D01*
X146522743Y-118497507D01*
X146635639Y-118224952D01*
X146711993Y-117939993D01*
X146750500Y-117647506D01*
X146750500Y-117413389D01*
X148479500Y-117413389D01*
X148479500Y-117586611D01*
X148506598Y-117757701D01*
X148560127Y-117922445D01*
X148638768Y-118076788D01*
X148740586Y-118216928D01*
X148863072Y-118339414D01*
X149003212Y-118441232D01*
X149157555Y-118519873D01*
X149322299Y-118573402D01*
X149493389Y-118600500D01*
X149493390Y-118600500D01*
X149666610Y-118600500D01*
X149666611Y-118600500D01*
X149837701Y-118573402D01*
X150002445Y-118519873D01*
X150156788Y-118441232D01*
X150296928Y-118339414D01*
X150419414Y-118216928D01*
X150521232Y-118076788D01*
X150599873Y-117922445D01*
X150653402Y-117757701D01*
X150680500Y-117586611D01*
X150680500Y-117413389D01*
X150653402Y-117242299D01*
X150599873Y-117077555D01*
X150521232Y-116923212D01*
X150419414Y-116783072D01*
X150296928Y-116660586D01*
X150156788Y-116558768D01*
X150002445Y-116480127D01*
X149837701Y-116426598D01*
X149837699Y-116426597D01*
X149837698Y-116426597D01*
X149706271Y-116405781D01*
X149666611Y-116399500D01*
X149493389Y-116399500D01*
X149453728Y-116405781D01*
X149322302Y-116426597D01*
X149157552Y-116480128D01*
X149003211Y-116558768D01*
X148923256Y-116616859D01*
X148863072Y-116660586D01*
X148863070Y-116660588D01*
X148863069Y-116660588D01*
X148740588Y-116783069D01*
X148740588Y-116783070D01*
X148740586Y-116783072D01*
X148696859Y-116843256D01*
X148638768Y-116923211D01*
X148560128Y-117077552D01*
X148506597Y-117242302D01*
X148489146Y-117352486D01*
X148479500Y-117413389D01*
X146750500Y-117413389D01*
X146750500Y-117352494D01*
X146711993Y-117060007D01*
X146635639Y-116775048D01*
X146522743Y-116502493D01*
X146458064Y-116390466D01*
X146375238Y-116247006D01*
X146195647Y-116012959D01*
X146195641Y-116012952D01*
X145987047Y-115804358D01*
X145987040Y-115804352D01*
X145752993Y-115624761D01*
X145497510Y-115477258D01*
X145497500Y-115477254D01*
X145224961Y-115364364D01*
X145224954Y-115364362D01*
X145224952Y-115364361D01*
X144939993Y-115288007D01*
X144891113Y-115281571D01*
X144647513Y-115249500D01*
X144647506Y-115249500D01*
X144352494Y-115249500D01*
X144352486Y-115249500D01*
X144074085Y-115286153D01*
X144060007Y-115288007D01*
X143775048Y-115364361D01*
X143775038Y-115364364D01*
X143502499Y-115477254D01*
X143502489Y-115477258D01*
X143247006Y-115624761D01*
X143012959Y-115804352D01*
X143012952Y-115804358D01*
X142804358Y-116012952D01*
X142804352Y-116012959D01*
X142624761Y-116247006D01*
X142477258Y-116502489D01*
X142477254Y-116502499D01*
X142364364Y-116775038D01*
X142364361Y-116775048D01*
X142288008Y-117060004D01*
X142288006Y-117060015D01*
X142249500Y-117352486D01*
X140510854Y-117352486D01*
X140493402Y-117242299D01*
X140439873Y-117077555D01*
X140361232Y-116923212D01*
X140259414Y-116783072D01*
X140201232Y-116724890D01*
X140167747Y-116663567D01*
X140172731Y-116593875D01*
X140214603Y-116537942D01*
X140280067Y-116513525D01*
X140317856Y-116516634D01*
X140438852Y-116545683D01*
X140690000Y-116565449D01*
X140941148Y-116545683D01*
X141186111Y-116486873D01*
X141418859Y-116390466D01*
X141633659Y-116258836D01*
X141825224Y-116095224D01*
X141988836Y-115903659D01*
X142120466Y-115688859D01*
X142216873Y-115456111D01*
X142275683Y-115211148D01*
X142295449Y-114960000D01*
X142275683Y-114708852D01*
X142216873Y-114463889D01*
X142175335Y-114363606D01*
X142120466Y-114231140D01*
X141988839Y-114016346D01*
X141988838Y-114016343D01*
X141847165Y-113850466D01*
X141825224Y-113824776D01*
X141654834Y-113679249D01*
X141633656Y-113661161D01*
X141633653Y-113661160D01*
X141418859Y-113529533D01*
X141186110Y-113433126D01*
X140941151Y-113374317D01*
X140690000Y-113354551D01*
X140438848Y-113374317D01*
X140193889Y-113433126D01*
X139961140Y-113529533D01*
X139746346Y-113661160D01*
X139746343Y-113661161D01*
X139554776Y-113824776D01*
X139391161Y-114016343D01*
X139391160Y-114016346D01*
X139259533Y-114231140D01*
X139163126Y-114463889D01*
X139104317Y-114708848D01*
X139084551Y-114960000D01*
X139104317Y-115211151D01*
X139163126Y-115456110D01*
X139259533Y-115688859D01*
X139391160Y-115903653D01*
X139391161Y-115903656D01*
X139391164Y-115903659D01*
X139554776Y-116095224D01*
X139668783Y-116192595D01*
X139706976Y-116251102D01*
X139707474Y-116320970D01*
X139670121Y-116380016D01*
X139606774Y-116409494D01*
X139568854Y-116409358D01*
X139506611Y-116399500D01*
X139333389Y-116399500D01*
X139293728Y-116405781D01*
X139162302Y-116426597D01*
X138997552Y-116480128D01*
X138843211Y-116558768D01*
X138763256Y-116616859D01*
X138703072Y-116660586D01*
X138703070Y-116660588D01*
X138703069Y-116660588D01*
X138580588Y-116783069D01*
X138580588Y-116783070D01*
X138580586Y-116783072D01*
X138536859Y-116843256D01*
X138478768Y-116923211D01*
X138400128Y-117077552D01*
X138346597Y-117242302D01*
X138329146Y-117352486D01*
X138319500Y-117413389D01*
X131180500Y-117413389D01*
X131153402Y-117242299D01*
X131099873Y-117077555D01*
X131021232Y-116923212D01*
X130919414Y-116783072D01*
X130796928Y-116660586D01*
X130656788Y-116558768D01*
X130502445Y-116480127D01*
X130337701Y-116426598D01*
X130337699Y-116426597D01*
X130337698Y-116426597D01*
X130206271Y-116405781D01*
X130166611Y-116399500D01*
X129993389Y-116399500D01*
X129953728Y-116405781D01*
X129822302Y-116426597D01*
X129657552Y-116480128D01*
X129503211Y-116558768D01*
X129423256Y-116616859D01*
X129363072Y-116660586D01*
X129363070Y-116660588D01*
X129363069Y-116660588D01*
X129240588Y-116783069D01*
X129240588Y-116783070D01*
X129240586Y-116783072D01*
X129196859Y-116843256D01*
X129138768Y-116923211D01*
X129060128Y-117077552D01*
X129006597Y-117242302D01*
X128989146Y-117352486D01*
X128979500Y-117413389D01*
X127250500Y-117413389D01*
X127250500Y-117352494D01*
X127211993Y-117060007D01*
X127135639Y-116775048D01*
X127022743Y-116502493D01*
X126958064Y-116390466D01*
X126875238Y-116247006D01*
X126695647Y-116012959D01*
X126695641Y-116012952D01*
X126487047Y-115804358D01*
X126487040Y-115804352D01*
X126252993Y-115624761D01*
X125997510Y-115477258D01*
X125997500Y-115477254D01*
X125724961Y-115364364D01*
X125724954Y-115364362D01*
X125724952Y-115364361D01*
X125439993Y-115288007D01*
X125391113Y-115281571D01*
X125147513Y-115249500D01*
X125147506Y-115249500D01*
X124852494Y-115249500D01*
X124852486Y-115249500D01*
X124574085Y-115286153D01*
X124560007Y-115288007D01*
X124275048Y-115364361D01*
X124275038Y-115364364D01*
X124002499Y-115477254D01*
X124002489Y-115477258D01*
X123747006Y-115624761D01*
X123512959Y-115804352D01*
X123512952Y-115804358D01*
X123304358Y-116012952D01*
X123304352Y-116012959D01*
X123124761Y-116247006D01*
X122977258Y-116502489D01*
X122977254Y-116502499D01*
X122864364Y-116775038D01*
X122864361Y-116775048D01*
X122788008Y-117060004D01*
X122788006Y-117060015D01*
X122749500Y-117352486D01*
X122749500Y-117647513D01*
X122781571Y-117891113D01*
X122788007Y-117939993D01*
X122862212Y-118216930D01*
X122864361Y-118224951D01*
X122864364Y-118224961D01*
X122977254Y-118497500D01*
X122977258Y-118497510D01*
X123124761Y-118752993D01*
X123304352Y-118987040D01*
X123304358Y-118987047D01*
X123505130Y-119187819D01*
X123538615Y-119249142D01*
X123533631Y-119318834D01*
X123491759Y-119374767D01*
X123426295Y-119399184D01*
X123417449Y-119399500D01*
X120582412Y-119399500D01*
X120515373Y-119379815D01*
X120505097Y-119372445D01*
X120502263Y-119370185D01*
X120502262Y-119370184D01*
X120433553Y-119327011D01*
X120349523Y-119274211D01*
X120179254Y-119214631D01*
X120179249Y-119214630D01*
X120000004Y-119194435D01*
X119999996Y-119194435D01*
X119820750Y-119214630D01*
X119820745Y-119214631D01*
X119650476Y-119274211D01*
X119497737Y-119370184D01*
X119370184Y-119497737D01*
X119274211Y-119650476D01*
X119214631Y-119820745D01*
X119214630Y-119820750D01*
X119194435Y-119999996D01*
X118400500Y-119999996D01*
X118400500Y-117413389D01*
X118819500Y-117413389D01*
X118819500Y-117586611D01*
X118846598Y-117757701D01*
X118900127Y-117922445D01*
X118978768Y-118076788D01*
X119080586Y-118216928D01*
X119203072Y-118339414D01*
X119343212Y-118441232D01*
X119497555Y-118519873D01*
X119662299Y-118573402D01*
X119833389Y-118600500D01*
X119833390Y-118600500D01*
X120006610Y-118600500D01*
X120006611Y-118600500D01*
X120177701Y-118573402D01*
X120342445Y-118519873D01*
X120496788Y-118441232D01*
X120636928Y-118339414D01*
X120759414Y-118216928D01*
X120861232Y-118076788D01*
X120939873Y-117922445D01*
X120993402Y-117757701D01*
X121020500Y-117586611D01*
X121020500Y-117413389D01*
X120993402Y-117242299D01*
X120939873Y-117077555D01*
X120861232Y-116923212D01*
X120759414Y-116783072D01*
X120701232Y-116724890D01*
X120667747Y-116663567D01*
X120672731Y-116593875D01*
X120714603Y-116537942D01*
X120780067Y-116513525D01*
X120817856Y-116516634D01*
X120938852Y-116545683D01*
X121190000Y-116565449D01*
X121441148Y-116545683D01*
X121686111Y-116486873D01*
X121918859Y-116390466D01*
X122133659Y-116258836D01*
X122325224Y-116095224D01*
X122488836Y-115903659D01*
X122620466Y-115688859D01*
X122716873Y-115456111D01*
X122775683Y-115211148D01*
X122795449Y-114960000D01*
X122775683Y-114708852D01*
X122716873Y-114463889D01*
X122675335Y-114363606D01*
X122620466Y-114231140D01*
X122488839Y-114016346D01*
X122488838Y-114016343D01*
X122347165Y-113850466D01*
X122325224Y-113824776D01*
X122154834Y-113679249D01*
X122133656Y-113661161D01*
X122133653Y-113661160D01*
X121918859Y-113529533D01*
X121686110Y-113433126D01*
X121441151Y-113374317D01*
X121190000Y-113354551D01*
X120938848Y-113374317D01*
X120693889Y-113433126D01*
X120461140Y-113529533D01*
X120246346Y-113661160D01*
X120246343Y-113661161D01*
X120054776Y-113824776D01*
X119891161Y-114016343D01*
X119891160Y-114016346D01*
X119759533Y-114231140D01*
X119663126Y-114463889D01*
X119604317Y-114708848D01*
X119584551Y-114960000D01*
X119604317Y-115211151D01*
X119663126Y-115456110D01*
X119759533Y-115688859D01*
X119891160Y-115903653D01*
X119891161Y-115903656D01*
X119891164Y-115903659D01*
X120054776Y-116095224D01*
X120168783Y-116192595D01*
X120206976Y-116251102D01*
X120207474Y-116320970D01*
X120170121Y-116380016D01*
X120106774Y-116409494D01*
X120068854Y-116409358D01*
X120006611Y-116399500D01*
X119833389Y-116399500D01*
X119793728Y-116405781D01*
X119662302Y-116426597D01*
X119497552Y-116480128D01*
X119343211Y-116558768D01*
X119263256Y-116616859D01*
X119203072Y-116660586D01*
X119203070Y-116660588D01*
X119203069Y-116660588D01*
X119080588Y-116783069D01*
X119080588Y-116783070D01*
X119080586Y-116783072D01*
X119036859Y-116843256D01*
X118978768Y-116923211D01*
X118900128Y-117077552D01*
X118846597Y-117242302D01*
X118829146Y-117352486D01*
X118819500Y-117413389D01*
X118400500Y-117413389D01*
X118400500Y-111124500D01*
X118420185Y-111057461D01*
X118472989Y-111011706D01*
X118524500Y-111000500D01*
X126401504Y-111000500D01*
X126468543Y-111020185D01*
X126514298Y-111072989D01*
X126524242Y-111142147D01*
X126495217Y-111205703D01*
X126482036Y-111218790D01*
X126404776Y-111284776D01*
X126241161Y-111476343D01*
X126241160Y-111476346D01*
X126109533Y-111691140D01*
X126013126Y-111923889D01*
X125954317Y-112168848D01*
X125934551Y-112420000D01*
X125954317Y-112671151D01*
X126013126Y-112916110D01*
X126109533Y-113148859D01*
X126241160Y-113363653D01*
X126241161Y-113363656D01*
X126289405Y-113420142D01*
X126404775Y-113555223D01*
X126407635Y-113558571D01*
X126436206Y-113622333D01*
X126425769Y-113691418D01*
X126379638Y-113743894D01*
X126313345Y-113763103D01*
X124663700Y-113763103D01*
X124596661Y-113743418D01*
X124576019Y-113726784D01*
X124330700Y-113481465D01*
X124297215Y-113420142D01*
X124295163Y-113407686D01*
X124285368Y-113320745D01*
X124225789Y-113150478D01*
X124129816Y-112997738D01*
X124002262Y-112870184D01*
X123849523Y-112774211D01*
X123679254Y-112714631D01*
X123679249Y-112714630D01*
X123500004Y-112694435D01*
X123499996Y-112694435D01*
X123320750Y-112714630D01*
X123320745Y-112714631D01*
X123150476Y-112774211D01*
X122997737Y-112870184D01*
X122870184Y-112997737D01*
X122774211Y-113150476D01*
X122714631Y-113320745D01*
X122714630Y-113320750D01*
X122694435Y-113499996D01*
X122694435Y-113500003D01*
X122714630Y-113679249D01*
X122714631Y-113679254D01*
X122774211Y-113849523D01*
X122774804Y-113850466D01*
X122870184Y-114002262D01*
X122997738Y-114129816D01*
X123150478Y-114225789D01*
X123320745Y-114285368D01*
X123407669Y-114295161D01*
X123472080Y-114322226D01*
X123481465Y-114330700D01*
X123878742Y-114727977D01*
X123878752Y-114727988D01*
X123883082Y-114732318D01*
X123883083Y-114732319D01*
X123994887Y-114844123D01*
X124081698Y-114894242D01*
X124081700Y-114894244D01*
X124119754Y-114916214D01*
X124131818Y-114923180D01*
X124284546Y-114964103D01*
X126553985Y-114964103D01*
X126621024Y-114983788D01*
X126631300Y-114991158D01*
X126634133Y-114993417D01*
X126634135Y-114993419D01*
X126786875Y-115089392D01*
X126957142Y-115148971D01*
X126957147Y-115148972D01*
X127136393Y-115169168D01*
X127136397Y-115169168D01*
X127136401Y-115169168D01*
X127315646Y-115148972D01*
X127315649Y-115148971D01*
X127315652Y-115148971D01*
X127485919Y-115089392D01*
X127638659Y-114993419D01*
X127766213Y-114865865D01*
X127862186Y-114713125D01*
X127921765Y-114542858D01*
X127941962Y-114363603D01*
X127934250Y-114295160D01*
X127921766Y-114184353D01*
X127921765Y-114184348D01*
X127899284Y-114120101D01*
X127895723Y-114050322D01*
X127930452Y-113989694D01*
X127987380Y-113958572D01*
X127987410Y-113958564D01*
X128036111Y-113946873D01*
X128268859Y-113850466D01*
X128483659Y-113718836D01*
X128675224Y-113555224D01*
X128838836Y-113363659D01*
X128970466Y-113148859D01*
X129066873Y-112916111D01*
X129125683Y-112671148D01*
X129145449Y-112420000D01*
X145434551Y-112420000D01*
X145454317Y-112671151D01*
X145513126Y-112916110D01*
X145609533Y-113148859D01*
X145741160Y-113363653D01*
X145741161Y-113363656D01*
X145789405Y-113420142D01*
X145904776Y-113555224D01*
X145983351Y-113622333D01*
X146096343Y-113718838D01*
X146096346Y-113718839D01*
X146311140Y-113850466D01*
X146543889Y-113946873D01*
X146788852Y-114005683D01*
X147040000Y-114025449D01*
X147291148Y-114005683D01*
X147536111Y-113946873D01*
X147768859Y-113850466D01*
X147983659Y-113718836D01*
X148175224Y-113555224D01*
X148338836Y-113363659D01*
X148470466Y-113148859D01*
X148566873Y-112916111D01*
X148625683Y-112671148D01*
X148645449Y-112420000D01*
X148625683Y-112168852D01*
X148566873Y-111923889D01*
X148470466Y-111691141D01*
X148470466Y-111691140D01*
X148338839Y-111476346D01*
X148338838Y-111476343D01*
X148301875Y-111433066D01*
X148175224Y-111284776D01*
X148048571Y-111176604D01*
X147983656Y-111121161D01*
X147983653Y-111121160D01*
X147768859Y-110989533D01*
X147536110Y-110893126D01*
X147291151Y-110834317D01*
X147040000Y-110814551D01*
X146788848Y-110834317D01*
X146543889Y-110893126D01*
X146311140Y-110989533D01*
X146096346Y-111121160D01*
X146096343Y-111121161D01*
X145904776Y-111284776D01*
X145741161Y-111476343D01*
X145741160Y-111476346D01*
X145609533Y-111691140D01*
X145513126Y-111923889D01*
X145454317Y-112168848D01*
X145434551Y-112420000D01*
X129145449Y-112420000D01*
X129125683Y-112168852D01*
X129066873Y-111923889D01*
X128970466Y-111691141D01*
X128970466Y-111691140D01*
X128838839Y-111476346D01*
X128838838Y-111476343D01*
X128801875Y-111433066D01*
X128675224Y-111284776D01*
X128597963Y-111218789D01*
X128559771Y-111160283D01*
X128559273Y-111090415D01*
X128596626Y-111031369D01*
X128659973Y-111001891D01*
X128678496Y-111000500D01*
X131088693Y-111000500D01*
X131088694Y-111000499D01*
X131262666Y-110965895D01*
X131344606Y-110931953D01*
X131426547Y-110898013D01*
X131551456Y-110814551D01*
X131574036Y-110799464D01*
X132944879Y-109428618D01*
X133006200Y-109395135D01*
X133075891Y-109400119D01*
X133131825Y-109441990D01*
X133137551Y-109450328D01*
X133170182Y-109502260D01*
X133170184Y-109502262D01*
X133297738Y-109629816D01*
X133450478Y-109725789D01*
X133620745Y-109785368D01*
X133620750Y-109785369D01*
X133799996Y-109805565D01*
X133800000Y-109805565D01*
X133800004Y-109805565D01*
X133979249Y-109785369D01*
X133979252Y-109785368D01*
X133979255Y-109785368D01*
X134149522Y-109725789D01*
X134302262Y-109629816D01*
X134302267Y-109629810D01*
X134305097Y-109627555D01*
X134307275Y-109626665D01*
X134308158Y-109626111D01*
X134308255Y-109626265D01*
X134369783Y-109601145D01*
X134382412Y-109600500D01*
X134813331Y-109600500D01*
X134813347Y-109600501D01*
X134820943Y-109600501D01*
X134979054Y-109600501D01*
X134979057Y-109600501D01*
X135131785Y-109559577D01*
X135190004Y-109525964D01*
X135268716Y-109480520D01*
X135268721Y-109480514D01*
X135274444Y-109476124D01*
X135339613Y-109450929D01*
X135349932Y-109450499D01*
X136197871Y-109450499D01*
X136197872Y-109450499D01*
X136257483Y-109444091D01*
X136392331Y-109393796D01*
X136507546Y-109307546D01*
X136593796Y-109192331D01*
X136644091Y-109057483D01*
X136650500Y-108997873D01*
X136650499Y-108002128D01*
X136644091Y-107942517D01*
X136626363Y-107894987D01*
X136593797Y-107807671D01*
X136593793Y-107807664D01*
X136507547Y-107692455D01*
X136507544Y-107692452D01*
X136392335Y-107606206D01*
X136392328Y-107606202D01*
X136257482Y-107555908D01*
X136257483Y-107555908D01*
X136197883Y-107549501D01*
X136197881Y-107549500D01*
X136197873Y-107549500D01*
X136197865Y-107549500D01*
X135123360Y-107549500D01*
X135056321Y-107529815D01*
X135010566Y-107477011D01*
X135000622Y-107407853D01*
X135029647Y-107344297D01*
X135035679Y-107337819D01*
X135469799Y-106903700D01*
X136099464Y-106274035D01*
X136148572Y-106200538D01*
X136202181Y-106155735D01*
X136238420Y-106146140D01*
X136257483Y-106144091D01*
X136392331Y-106093796D01*
X136507546Y-106007546D01*
X136593796Y-105892331D01*
X136644091Y-105757483D01*
X136650500Y-105697873D01*
X136650500Y-105600000D01*
X142944592Y-105600000D01*
X142964201Y-105886680D01*
X142964201Y-105886684D01*
X142964202Y-105886686D01*
X142965375Y-105892331D01*
X143022666Y-106168034D01*
X143022667Y-106168037D01*
X143118894Y-106438793D01*
X143118893Y-106438793D01*
X143251098Y-106693935D01*
X143416812Y-106928700D01*
X143424876Y-106937334D01*
X143612947Y-107138708D01*
X143835853Y-107320055D01*
X144040264Y-107444361D01*
X144081382Y-107469365D01*
X144220554Y-107529815D01*
X144344942Y-107583844D01*
X144621642Y-107661371D01*
X144850367Y-107692809D01*
X144906321Y-107700500D01*
X144906322Y-107700500D01*
X145193679Y-107700500D01*
X145249611Y-107692812D01*
X145478358Y-107661371D01*
X145755058Y-107583844D01*
X145917741Y-107513181D01*
X146018617Y-107469365D01*
X146018620Y-107469363D01*
X146018625Y-107469361D01*
X146264147Y-107320055D01*
X146487053Y-107138708D01*
X146683189Y-106928698D01*
X146848901Y-106693936D01*
X146981104Y-106438797D01*
X147077334Y-106168032D01*
X147135798Y-105886686D01*
X147155408Y-105600000D01*
X147135798Y-105313314D01*
X147077334Y-105031968D01*
X146981105Y-104761206D01*
X146981106Y-104761206D01*
X146848901Y-104506064D01*
X146683187Y-104271299D01*
X146595127Y-104177011D01*
X146487053Y-104061292D01*
X146311903Y-103918797D01*
X146264146Y-103879944D01*
X146018617Y-103730634D01*
X145755063Y-103616158D01*
X145755061Y-103616157D01*
X145755058Y-103616156D01*
X145602073Y-103573292D01*
X145478364Y-103538630D01*
X145478359Y-103538629D01*
X145478358Y-103538629D01*
X145296480Y-103513630D01*
X145193679Y-103499500D01*
X145193678Y-103499500D01*
X144906322Y-103499500D01*
X144906321Y-103499500D01*
X144621642Y-103538629D01*
X144621635Y-103538630D01*
X144464213Y-103582738D01*
X144344942Y-103616156D01*
X144344939Y-103616156D01*
X144344936Y-103616158D01*
X144344935Y-103616158D01*
X144081382Y-103730634D01*
X143835853Y-103879944D01*
X143612950Y-104061289D01*
X143612947Y-104061291D01*
X143612947Y-104061292D01*
X143595648Y-104079815D01*
X143416812Y-104271299D01*
X143251098Y-104506064D01*
X143118894Y-104761206D01*
X143022667Y-105031962D01*
X143022666Y-105031965D01*
X142964201Y-105313319D01*
X142944592Y-105600000D01*
X136650500Y-105600000D01*
X136650499Y-104702128D01*
X136644091Y-104642517D01*
X136600389Y-104525347D01*
X136593797Y-104507671D01*
X136593793Y-104507664D01*
X136507547Y-104392455D01*
X136507544Y-104392452D01*
X136392335Y-104306206D01*
X136392332Y-104306205D01*
X136392331Y-104306204D01*
X136381161Y-104302038D01*
X136325231Y-104260166D01*
X136300816Y-104194701D01*
X136300500Y-104185858D01*
X136300500Y-103224500D01*
X136320185Y-103157461D01*
X136372989Y-103111706D01*
X136424500Y-103100500D01*
X136593884Y-103100500D01*
X136660923Y-103120185D01*
X136706678Y-103172989D01*
X136707440Y-103174689D01*
X136725827Y-103216608D01*
X136861833Y-103424782D01*
X136861836Y-103424785D01*
X137030256Y-103607738D01*
X137226491Y-103760474D01*
X137445190Y-103878828D01*
X137680386Y-103959571D01*
X137925665Y-104000500D01*
X138174335Y-104000500D01*
X138419614Y-103959571D01*
X138654810Y-103878828D01*
X138873509Y-103760474D01*
X139069744Y-103607738D01*
X139238164Y-103424785D01*
X139374173Y-103216607D01*
X139474063Y-102988881D01*
X139535108Y-102747821D01*
X139535109Y-102747812D01*
X139555643Y-102500005D01*
X139555643Y-102499994D01*
X139535109Y-102252187D01*
X139535107Y-102252175D01*
X139474063Y-102011118D01*
X139374173Y-101783393D01*
X139238166Y-101575217D01*
X139215150Y-101550215D01*
X139069744Y-101392262D01*
X138873509Y-101239526D01*
X138873507Y-101239525D01*
X138873506Y-101239524D01*
X138654811Y-101121172D01*
X138654802Y-101121169D01*
X138419616Y-101040429D01*
X138174335Y-100999500D01*
X137925665Y-100999500D01*
X137680383Y-101040429D01*
X137445197Y-101121169D01*
X137445188Y-101121172D01*
X137226493Y-101239524D01*
X137030257Y-101392261D01*
X136861833Y-101575217D01*
X136725827Y-101783391D01*
X136707440Y-101825311D01*
X136662483Y-101878796D01*
X136595747Y-101899486D01*
X136593884Y-101899500D01*
X136517254Y-101899500D01*
X136450215Y-101879815D01*
X136429573Y-101863181D01*
X136058666Y-101492274D01*
X136058658Y-101492268D01*
X135935118Y-101420943D01*
X135935115Y-101420942D01*
X135934091Y-101420351D01*
X135921734Y-101413216D01*
X135769006Y-101372292D01*
X135610892Y-101372292D01*
X135603296Y-101372292D01*
X135603280Y-101372293D01*
X135272890Y-101372293D01*
X135205851Y-101352608D01*
X135185209Y-101335974D01*
X135136819Y-101287584D01*
X135103334Y-101226261D01*
X135100500Y-101199903D01*
X135100500Y-98082412D01*
X135120185Y-98015373D01*
X135127555Y-98005097D01*
X135129810Y-98002267D01*
X135129816Y-98002262D01*
X135225789Y-97849522D01*
X135285368Y-97679255D01*
X135285369Y-97679249D01*
X135305565Y-97500003D01*
X135305565Y-97499996D01*
X135305565Y-97499994D01*
X136544357Y-97499994D01*
X136544357Y-97500005D01*
X136564890Y-97747812D01*
X136564892Y-97747824D01*
X136625936Y-97988881D01*
X136725826Y-98216606D01*
X136861833Y-98424782D01*
X136861836Y-98424785D01*
X137030256Y-98607738D01*
X137226491Y-98760474D01*
X137445190Y-98878828D01*
X137680386Y-98959571D01*
X137925665Y-99000500D01*
X138174335Y-99000500D01*
X138419614Y-98959571D01*
X138654810Y-98878828D01*
X138873509Y-98760474D01*
X139069744Y-98607738D01*
X139238164Y-98424785D01*
X139374173Y-98216607D01*
X139474063Y-97988881D01*
X139535108Y-97747821D01*
X139535109Y-97747812D01*
X139555643Y-97500005D01*
X139555643Y-97499994D01*
X151044357Y-97499994D01*
X151044357Y-97500005D01*
X151064890Y-97747812D01*
X151064892Y-97747824D01*
X151125936Y-97988881D01*
X151225826Y-98216606D01*
X151361833Y-98424782D01*
X151361836Y-98424785D01*
X151530256Y-98607738D01*
X151530259Y-98607740D01*
X151530262Y-98607743D01*
X151631374Y-98686442D01*
X151672187Y-98743152D01*
X151676300Y-98772748D01*
X152420590Y-99517037D01*
X152357007Y-99534075D01*
X152242993Y-99599901D01*
X152149901Y-99692993D01*
X152084075Y-99807007D01*
X152067037Y-99870590D01*
X151326564Y-99130116D01*
X151226267Y-99283632D01*
X151126412Y-99511282D01*
X151065387Y-99752261D01*
X151065385Y-99752270D01*
X151044859Y-99999994D01*
X151044859Y-100000005D01*
X151065385Y-100247729D01*
X151065387Y-100247738D01*
X151126412Y-100488717D01*
X151226267Y-100716367D01*
X151338484Y-100888129D01*
X151358672Y-100955018D01*
X151339491Y-101022204D01*
X151308987Y-101055216D01*
X151192452Y-101142455D01*
X151106206Y-101257664D01*
X151106202Y-101257671D01*
X151055908Y-101392517D01*
X151052187Y-101427135D01*
X151049501Y-101452123D01*
X151049500Y-101452135D01*
X151049500Y-103547870D01*
X151049501Y-103547876D01*
X151055908Y-103607483D01*
X151106202Y-103742328D01*
X151106206Y-103742335D01*
X151192452Y-103857544D01*
X151192455Y-103857547D01*
X151307664Y-103943793D01*
X151307671Y-103943797D01*
X151442517Y-103994091D01*
X151442516Y-103994091D01*
X151449444Y-103994835D01*
X151502127Y-104000500D01*
X153597872Y-104000499D01*
X153657483Y-103994091D01*
X153792331Y-103943796D01*
X153907546Y-103857546D01*
X153993796Y-103742331D01*
X154044091Y-103607483D01*
X154050500Y-103547873D01*
X154050499Y-101452128D01*
X154044091Y-101392517D01*
X154034766Y-101367516D01*
X153993797Y-101257671D01*
X153993793Y-101257664D01*
X153942123Y-101188643D01*
X153907546Y-101142454D01*
X153792331Y-101056204D01*
X153792329Y-101056203D01*
X153791012Y-101055217D01*
X153749141Y-100999283D01*
X153744157Y-100929591D01*
X153761515Y-100888128D01*
X153873731Y-100716369D01*
X153973587Y-100488717D01*
X154034612Y-100247738D01*
X154034614Y-100247729D01*
X154055141Y-100000005D01*
X154055141Y-99999994D01*
X154034614Y-99752270D01*
X154034612Y-99752261D01*
X153973587Y-99511282D01*
X153873731Y-99283630D01*
X153773434Y-99130116D01*
X153032962Y-99870588D01*
X153015925Y-99807007D01*
X152950099Y-99692993D01*
X152857007Y-99599901D01*
X152742993Y-99534075D01*
X152679410Y-99517037D01*
X153425898Y-98770548D01*
X153436515Y-98723852D01*
X153468621Y-98686444D01*
X153569744Y-98607738D01*
X153738164Y-98424785D01*
X153874173Y-98216607D01*
X153974063Y-97988881D01*
X154035108Y-97747821D01*
X154035109Y-97747812D01*
X154055643Y-97500005D01*
X154055643Y-97499994D01*
X154035109Y-97252187D01*
X154035107Y-97252175D01*
X153974063Y-97011118D01*
X153874173Y-96783393D01*
X153738166Y-96575217D01*
X153669384Y-96500500D01*
X153569744Y-96392262D01*
X153373509Y-96239526D01*
X153373507Y-96239525D01*
X153373506Y-96239524D01*
X153154811Y-96121172D01*
X153154802Y-96121169D01*
X152919616Y-96040429D01*
X152674335Y-95999500D01*
X152425665Y-95999500D01*
X152180383Y-96040429D01*
X151945197Y-96121169D01*
X151945188Y-96121172D01*
X151726493Y-96239524D01*
X151530257Y-96392261D01*
X151361833Y-96575217D01*
X151225826Y-96783393D01*
X151125936Y-97011118D01*
X151064892Y-97252175D01*
X151064890Y-97252187D01*
X151044357Y-97499994D01*
X139555643Y-97499994D01*
X139535109Y-97252187D01*
X139535107Y-97252175D01*
X139474063Y-97011118D01*
X139374173Y-96783393D01*
X139238166Y-96575217D01*
X139169384Y-96500500D01*
X139069744Y-96392262D01*
X138873509Y-96239526D01*
X138873507Y-96239525D01*
X138873506Y-96239524D01*
X138654811Y-96121172D01*
X138654802Y-96121169D01*
X138419616Y-96040429D01*
X138174335Y-95999500D01*
X137925665Y-95999500D01*
X137680383Y-96040429D01*
X137445197Y-96121169D01*
X137445188Y-96121172D01*
X137226493Y-96239524D01*
X137030257Y-96392261D01*
X136861833Y-96575217D01*
X136725826Y-96783393D01*
X136625936Y-97011118D01*
X136564892Y-97252175D01*
X136564890Y-97252187D01*
X136544357Y-97499994D01*
X135305565Y-97499994D01*
X135285369Y-97320750D01*
X135285368Y-97320745D01*
X135225789Y-97150478D01*
X135129816Y-96997738D01*
X135002262Y-96870184D01*
X134849523Y-96774211D01*
X134679254Y-96714631D01*
X134679249Y-96714630D01*
X134500004Y-96694435D01*
X134499996Y-96694435D01*
X134320750Y-96714630D01*
X134320745Y-96714631D01*
X134150476Y-96774211D01*
X133997737Y-96870184D01*
X133870184Y-96997737D01*
X133774211Y-97150476D01*
X133714631Y-97320745D01*
X133714630Y-97320750D01*
X133694435Y-97499996D01*
X133694435Y-97500003D01*
X133714630Y-97679249D01*
X133714631Y-97679254D01*
X133774211Y-97849523D01*
X133870185Y-98002263D01*
X133872445Y-98005097D01*
X133873334Y-98007275D01*
X133873889Y-98008158D01*
X133873734Y-98008255D01*
X133898855Y-98069783D01*
X133899500Y-98082412D01*
X133899500Y-101326638D01*
X133879815Y-101393677D01*
X133827011Y-101439432D01*
X133757853Y-101449376D01*
X133694297Y-101420351D01*
X133687819Y-101414319D01*
X132774035Y-100500535D01*
X132774030Y-100500531D01*
X132714961Y-100461064D01*
X132714960Y-100461063D01*
X132626544Y-100401985D01*
X132626542Y-100401984D01*
X132544607Y-100368046D01*
X132544606Y-100368046D01*
X132462666Y-100334105D01*
X132462658Y-100334103D01*
X132288696Y-100299500D01*
X132288692Y-100299500D01*
X132288691Y-100299500D01*
X131888691Y-100299500D01*
X130911309Y-100299500D01*
X130911306Y-100299500D01*
X130737341Y-100334103D01*
X130737332Y-100334106D01*
X130573459Y-100401983D01*
X130573446Y-100401990D01*
X130425965Y-100500535D01*
X130425961Y-100500538D01*
X130300538Y-100625961D01*
X130300535Y-100625965D01*
X130201990Y-100773446D01*
X130201983Y-100773459D01*
X130134106Y-100937332D01*
X130134103Y-100937341D01*
X130099500Y-101111304D01*
X130099500Y-101288695D01*
X130134103Y-101462658D01*
X130134106Y-101462667D01*
X130201983Y-101626540D01*
X130201990Y-101626553D01*
X130300535Y-101774034D01*
X130300538Y-101774038D01*
X130425961Y-101899461D01*
X130425965Y-101899464D01*
X130573446Y-101998009D01*
X130573459Y-101998016D01*
X130654487Y-102031578D01*
X130737334Y-102065894D01*
X130737336Y-102065894D01*
X130737341Y-102065896D01*
X130911304Y-102100499D01*
X130911307Y-102100500D01*
X130911309Y-102100500D01*
X131711309Y-102100500D01*
X131775638Y-102100500D01*
X131842677Y-102120185D01*
X131863319Y-102136819D01*
X133098751Y-103372252D01*
X133098754Y-103372255D01*
X133139957Y-103399786D01*
X133139956Y-103399786D01*
X133246243Y-103470804D01*
X133246246Y-103470806D01*
X133294245Y-103490688D01*
X133410127Y-103538688D01*
X133584096Y-103573292D01*
X133584100Y-103573293D01*
X133584101Y-103573293D01*
X133584102Y-103573293D01*
X134375500Y-103573293D01*
X134442539Y-103592978D01*
X134488294Y-103645782D01*
X134499500Y-103697293D01*
X134499500Y-104185858D01*
X134479815Y-104252897D01*
X134427011Y-104298652D01*
X134418847Y-104302034D01*
X134407669Y-104306204D01*
X134407664Y-104306206D01*
X134292455Y-104392452D01*
X134292452Y-104392455D01*
X134206206Y-104507664D01*
X134206202Y-104507671D01*
X134155908Y-104642517D01*
X134149728Y-104700003D01*
X134149501Y-104702123D01*
X134149500Y-104702135D01*
X134149500Y-105625637D01*
X134129815Y-105692676D01*
X134113181Y-105713318D01*
X131918140Y-107908358D01*
X131856817Y-107941843D01*
X131787125Y-107936859D01*
X131731192Y-107894987D01*
X131714277Y-107864010D01*
X131693354Y-107807913D01*
X131693350Y-107807906D01*
X131607190Y-107692812D01*
X131607187Y-107692809D01*
X131492093Y-107606649D01*
X131492086Y-107606645D01*
X131357379Y-107556403D01*
X131357372Y-107556401D01*
X131297844Y-107550000D01*
X130750000Y-107550000D01*
X130750000Y-108626000D01*
X130730315Y-108693039D01*
X130677511Y-108738794D01*
X130626000Y-108750000D01*
X129250000Y-108750000D01*
X129250000Y-108997844D01*
X129256925Y-109062244D01*
X129244520Y-109131004D01*
X129196910Y-109182141D01*
X129133636Y-109199500D01*
X120866868Y-109199500D01*
X120799829Y-109179815D01*
X120754074Y-109127011D01*
X120743579Y-109062244D01*
X120750499Y-108997881D01*
X120750500Y-108997873D01*
X120750499Y-108150095D01*
X120770183Y-108083057D01*
X120786813Y-108062420D01*
X120847078Y-108002155D01*
X129250000Y-108002155D01*
X129250000Y-108250000D01*
X130250000Y-108250000D01*
X130250000Y-107550000D01*
X129702155Y-107550000D01*
X129642627Y-107556401D01*
X129642620Y-107556403D01*
X129507913Y-107606645D01*
X129507906Y-107606649D01*
X129392812Y-107692809D01*
X129392809Y-107692812D01*
X129306649Y-107807906D01*
X129306645Y-107807913D01*
X129256403Y-107942620D01*
X129256401Y-107942627D01*
X129250000Y-108002155D01*
X120847078Y-108002155D01*
X122008506Y-106840728D01*
X122008511Y-106840724D01*
X122018714Y-106830520D01*
X122018716Y-106830520D01*
X122130520Y-106718716D01*
X122197646Y-106602450D01*
X122209577Y-106581785D01*
X122250500Y-106429057D01*
X122250500Y-106270943D01*
X122250500Y-105282412D01*
X122270185Y-105215373D01*
X122277555Y-105205097D01*
X122279810Y-105202267D01*
X122279816Y-105202262D01*
X122375789Y-105049522D01*
X122435368Y-104879255D01*
X122446572Y-104779815D01*
X122455565Y-104700003D01*
X122455565Y-104699996D01*
X122435369Y-104520750D01*
X122435368Y-104520745D01*
X122430793Y-104507671D01*
X122375789Y-104350478D01*
X122279816Y-104197738D01*
X122232074Y-104149996D01*
X125194435Y-104149996D01*
X125194435Y-104150003D01*
X125214630Y-104329249D01*
X125214631Y-104329254D01*
X125274211Y-104499523D01*
X125337031Y-104599500D01*
X125370184Y-104652262D01*
X125497738Y-104779816D01*
X125650478Y-104875789D01*
X125820745Y-104935368D01*
X125907669Y-104945161D01*
X125972080Y-104972226D01*
X125981465Y-104980700D01*
X126065139Y-105064374D01*
X126065149Y-105064385D01*
X126069479Y-105068715D01*
X126069480Y-105068716D01*
X126181284Y-105180520D01*
X126181286Y-105180521D01*
X126181290Y-105180524D01*
X126318209Y-105259573D01*
X126318216Y-105259577D01*
X126425464Y-105288314D01*
X126425463Y-105288314D01*
X126435073Y-105290889D01*
X126470942Y-105300500D01*
X126470943Y-105300500D01*
X128199903Y-105300500D01*
X128266942Y-105320185D01*
X128287584Y-105336819D01*
X128467553Y-105516789D01*
X128501038Y-105578112D01*
X128496054Y-105647804D01*
X128454182Y-105703737D01*
X128388718Y-105728154D01*
X128338917Y-105721512D01*
X128319254Y-105714631D01*
X128319249Y-105714630D01*
X128140004Y-105694435D01*
X128139996Y-105694435D01*
X127960750Y-105714630D01*
X127960745Y-105714631D01*
X127790476Y-105774211D01*
X127637736Y-105870185D01*
X127634903Y-105872445D01*
X127632724Y-105873334D01*
X127631842Y-105873889D01*
X127631744Y-105873734D01*
X127570217Y-105898855D01*
X127557588Y-105899500D01*
X127082412Y-105899500D01*
X127015373Y-105879815D01*
X127005097Y-105872445D01*
X127002263Y-105870185D01*
X127002262Y-105870184D01*
X126922689Y-105820185D01*
X126849523Y-105774211D01*
X126679254Y-105714631D01*
X126679249Y-105714630D01*
X126500004Y-105694435D01*
X126499996Y-105694435D01*
X126320750Y-105714630D01*
X126320745Y-105714631D01*
X126150476Y-105774211D01*
X125997737Y-105870184D01*
X125870184Y-105997737D01*
X125774211Y-106150476D01*
X125714631Y-106320745D01*
X125714630Y-106320750D01*
X125694435Y-106499996D01*
X125694435Y-106500003D01*
X125714630Y-106679249D01*
X125714631Y-106679254D01*
X125728440Y-106718716D01*
X125774211Y-106849522D01*
X125870184Y-107002262D01*
X125997738Y-107129816D01*
X126150478Y-107225789D01*
X126320745Y-107285368D01*
X126320750Y-107285369D01*
X126499996Y-107305565D01*
X126500000Y-107305565D01*
X126500004Y-107305565D01*
X126679249Y-107285369D01*
X126679252Y-107285368D01*
X126679255Y-107285368D01*
X126849522Y-107225789D01*
X127002262Y-107129816D01*
X127002267Y-107129810D01*
X127005097Y-107127555D01*
X127007275Y-107126665D01*
X127008158Y-107126111D01*
X127008255Y-107126265D01*
X127069783Y-107101145D01*
X127082412Y-107100500D01*
X127557588Y-107100500D01*
X127624627Y-107120185D01*
X127634903Y-107127555D01*
X127637736Y-107129814D01*
X127637738Y-107129816D01*
X127790478Y-107225789D01*
X127960745Y-107285368D01*
X127960750Y-107285369D01*
X128139996Y-107305565D01*
X128140000Y-107305565D01*
X128140004Y-107305565D01*
X128319249Y-107285369D01*
X128319252Y-107285368D01*
X128319255Y-107285368D01*
X128489522Y-107225789D01*
X128642262Y-107129816D01*
X128769816Y-107002262D01*
X128865789Y-106849522D01*
X128925368Y-106679255D01*
X128926531Y-106668935D01*
X128945565Y-106500003D01*
X128945565Y-106499996D01*
X128925369Y-106320750D01*
X128925368Y-106320745D01*
X128865789Y-106150478D01*
X128861110Y-106143032D01*
X128775979Y-106007547D01*
X128769816Y-105997738D01*
X128769815Y-105997737D01*
X128765475Y-105992295D01*
X128767213Y-105990908D01*
X128738813Y-105938897D01*
X128743797Y-105869205D01*
X128785669Y-105813272D01*
X128851133Y-105788855D01*
X128892071Y-105792764D01*
X128920943Y-105800501D01*
X128920944Y-105800501D01*
X129086654Y-105800501D01*
X129086670Y-105800500D01*
X129185859Y-105800500D01*
X129252898Y-105820185D01*
X129298653Y-105872989D01*
X129302030Y-105881140D01*
X129306204Y-105892331D01*
X129306205Y-105892332D01*
X129306206Y-105892335D01*
X129392452Y-106007544D01*
X129392455Y-106007547D01*
X129507664Y-106093793D01*
X129507671Y-106093797D01*
X129642517Y-106144091D01*
X129642516Y-106144091D01*
X129649444Y-106144835D01*
X129702127Y-106150500D01*
X131297872Y-106150499D01*
X131357483Y-106144091D01*
X131492331Y-106093796D01*
X131607546Y-106007546D01*
X131693796Y-105892331D01*
X131744091Y-105757483D01*
X131750500Y-105697873D01*
X131750499Y-104702128D01*
X131744091Y-104642517D01*
X131700389Y-104525347D01*
X131693797Y-104507671D01*
X131693793Y-104507664D01*
X131607547Y-104392455D01*
X131607544Y-104392452D01*
X131492335Y-104306206D01*
X131492328Y-104306202D01*
X131357482Y-104255908D01*
X131357483Y-104255908D01*
X131297883Y-104249501D01*
X131297881Y-104249500D01*
X131297873Y-104249500D01*
X131297864Y-104249500D01*
X129702129Y-104249500D01*
X129702123Y-104249501D01*
X129642516Y-104255908D01*
X129507671Y-104306202D01*
X129507664Y-104306206D01*
X129392455Y-104392452D01*
X129392452Y-104392455D01*
X129328045Y-104478492D01*
X129272111Y-104520363D01*
X129202420Y-104525347D01*
X129141098Y-104491862D01*
X128868717Y-104219481D01*
X128868709Y-104219475D01*
X128766936Y-104160717D01*
X128766934Y-104160716D01*
X128731790Y-104140425D01*
X128731789Y-104140424D01*
X128676092Y-104125500D01*
X128579057Y-104099499D01*
X128420943Y-104099499D01*
X128413347Y-104099499D01*
X128413331Y-104099500D01*
X126910689Y-104099500D01*
X126843650Y-104079815D01*
X126797895Y-104027011D01*
X126787469Y-103989385D01*
X126785369Y-103970749D01*
X126785368Y-103970745D01*
X126765733Y-103914631D01*
X126725789Y-103800478D01*
X126700653Y-103760475D01*
X126666198Y-103705639D01*
X126629816Y-103647738D01*
X126502262Y-103520184D01*
X126469344Y-103499500D01*
X126349523Y-103424211D01*
X126179254Y-103364631D01*
X126179249Y-103364630D01*
X126000004Y-103344435D01*
X125999996Y-103344435D01*
X125820750Y-103364630D01*
X125820745Y-103364631D01*
X125650476Y-103424211D01*
X125497737Y-103520184D01*
X125370184Y-103647737D01*
X125274211Y-103800476D01*
X125214631Y-103970745D01*
X125214630Y-103970750D01*
X125194435Y-104149996D01*
X122232074Y-104149996D01*
X122152262Y-104070184D01*
X121999523Y-103974211D01*
X121829254Y-103914631D01*
X121829249Y-103914630D01*
X121650004Y-103894435D01*
X121649996Y-103894435D01*
X121470750Y-103914630D01*
X121470745Y-103914631D01*
X121300476Y-103974211D01*
X121147737Y-104070184D01*
X121020184Y-104197737D01*
X120924208Y-104350480D01*
X120890187Y-104447708D01*
X120849465Y-104504484D01*
X120784512Y-104530231D01*
X120715951Y-104516774D01*
X120673879Y-104481064D01*
X120671954Y-104478492D01*
X120607546Y-104392454D01*
X120584709Y-104375358D01*
X120492335Y-104306206D01*
X120492328Y-104306202D01*
X120357482Y-104255908D01*
X120357483Y-104255908D01*
X120297883Y-104249501D01*
X120297881Y-104249500D01*
X120297873Y-104249500D01*
X120297864Y-104249500D01*
X118702129Y-104249500D01*
X118702123Y-104249501D01*
X118642516Y-104255908D01*
X118546604Y-104291682D01*
X118503271Y-104299500D01*
X118211306Y-104299500D01*
X118037341Y-104334103D01*
X118037332Y-104334106D01*
X117873459Y-104401983D01*
X117873446Y-104401990D01*
X117725965Y-104500535D01*
X117725961Y-104500538D01*
X117600538Y-104625961D01*
X117600535Y-104625965D01*
X117501990Y-104773446D01*
X117501983Y-104773459D01*
X117434106Y-104937332D01*
X117434103Y-104937341D01*
X117399500Y-105111304D01*
X117399500Y-105288695D01*
X117434103Y-105462658D01*
X117434106Y-105462667D01*
X117501983Y-105626540D01*
X117501990Y-105626553D01*
X117564797Y-105720550D01*
X117585675Y-105787228D01*
X117567190Y-105854608D01*
X117549376Y-105877122D01*
X116800537Y-106625961D01*
X116771824Y-106668935D01*
X116764929Y-106679255D01*
X116761064Y-106685039D01*
X116761063Y-106685040D01*
X116701988Y-106773449D01*
X116670479Y-106849521D01*
X116670479Y-106849522D01*
X116634105Y-106937334D01*
X116609790Y-107059577D01*
X116609790Y-107059578D01*
X116599500Y-107111307D01*
X116599500Y-123788696D01*
X116634103Y-123962658D01*
X116634105Y-123962666D01*
X116668046Y-124044606D01*
X116668046Y-124044607D01*
X116701984Y-124126542D01*
X116701985Y-124126544D01*
X116761063Y-124214960D01*
X116800537Y-124274038D01*
X116800540Y-124274041D01*
X118113181Y-125586680D01*
X118146666Y-125648003D01*
X118149500Y-125674361D01*
X118149500Y-126097870D01*
X118149501Y-126097876D01*
X118155908Y-126157483D01*
X118206202Y-126292328D01*
X118206206Y-126292335D01*
X118292452Y-126407544D01*
X118292455Y-126407547D01*
X118407664Y-126493793D01*
X118407671Y-126493797D01*
X118452618Y-126510561D01*
X118542517Y-126544091D01*
X118602127Y-126550500D01*
X119025637Y-126550499D01*
X119092676Y-126570183D01*
X119113318Y-126586818D01*
X119500536Y-126974036D01*
X119864320Y-127337819D01*
X119897805Y-127399142D01*
X119892821Y-127468833D01*
X119850950Y-127524767D01*
X119785485Y-127549184D01*
X119776639Y-127549500D01*
X117350098Y-127549500D01*
X117283059Y-127529815D01*
X117262417Y-127513181D01*
X115786818Y-126037582D01*
X115753333Y-125976259D01*
X115750499Y-125949901D01*
X115750499Y-125102129D01*
X115750498Y-125102123D01*
X115750497Y-125102116D01*
X115744091Y-125042517D01*
X115706770Y-124942455D01*
X115693797Y-124907671D01*
X115693793Y-124907664D01*
X115607547Y-124792455D01*
X115607544Y-124792452D01*
X115492335Y-124706206D01*
X115492328Y-124706202D01*
X115357482Y-124655908D01*
X115357483Y-124655908D01*
X115297883Y-124649501D01*
X115297881Y-124649500D01*
X115297873Y-124649500D01*
X115297864Y-124649500D01*
X113702129Y-124649500D01*
X113702123Y-124649501D01*
X113642516Y-124655908D01*
X113507671Y-124706202D01*
X113507664Y-124706206D01*
X113392455Y-124792452D01*
X113392452Y-124792455D01*
X113306206Y-124907664D01*
X113306202Y-124907671D01*
X113255908Y-125042517D01*
X113249501Y-125102116D01*
X113249501Y-125102123D01*
X113249500Y-125102135D01*
X86000500Y-125102135D01*
X86000500Y-119999996D01*
X96694435Y-119999996D01*
X96694435Y-120000003D01*
X96714630Y-120179249D01*
X96714631Y-120179254D01*
X96774211Y-120349523D01*
X96870184Y-120502262D01*
X96997738Y-120629816D01*
X97150478Y-120725789D01*
X97320745Y-120785368D01*
X97320750Y-120785369D01*
X97499996Y-120805565D01*
X97500000Y-120805565D01*
X97500004Y-120805565D01*
X97679249Y-120785369D01*
X97679252Y-120785368D01*
X97679255Y-120785368D01*
X97849522Y-120725789D01*
X98002262Y-120629816D01*
X98002267Y-120629810D01*
X98005097Y-120627555D01*
X98007275Y-120626665D01*
X98008158Y-120626111D01*
X98008255Y-120626265D01*
X98069783Y-120601145D01*
X98082412Y-120600500D01*
X113417588Y-120600500D01*
X113484627Y-120620185D01*
X113494903Y-120627555D01*
X113497736Y-120629814D01*
X113497738Y-120629816D01*
X113650478Y-120725789D01*
X113820745Y-120785368D01*
X113820750Y-120785369D01*
X113999996Y-120805565D01*
X114000000Y-120805565D01*
X114000004Y-120805565D01*
X114179249Y-120785369D01*
X114179252Y-120785368D01*
X114179255Y-120785368D01*
X114349522Y-120725789D01*
X114502262Y-120629816D01*
X114629816Y-120502262D01*
X114725789Y-120349522D01*
X114785368Y-120179255D01*
X114785369Y-120179249D01*
X114805565Y-120000003D01*
X114805565Y-119999996D01*
X114785369Y-119820750D01*
X114785368Y-119820745D01*
X114747313Y-119711991D01*
X114725789Y-119650478D01*
X114716464Y-119635638D01*
X114645529Y-119522745D01*
X114629816Y-119497738D01*
X114502262Y-119370184D01*
X114433553Y-119327011D01*
X114349523Y-119274211D01*
X114179254Y-119214631D01*
X114179249Y-119214630D01*
X114000004Y-119194435D01*
X113999996Y-119194435D01*
X113820750Y-119214630D01*
X113820745Y-119214631D01*
X113650476Y-119274211D01*
X113497736Y-119370185D01*
X113494903Y-119372445D01*
X113492724Y-119373334D01*
X113491842Y-119373889D01*
X113491744Y-119373734D01*
X113430217Y-119398855D01*
X113417588Y-119399500D01*
X107082551Y-119399500D01*
X107015512Y-119379815D01*
X106969757Y-119327011D01*
X106959813Y-119257853D01*
X106988838Y-119194297D01*
X106994870Y-119187819D01*
X107195641Y-118987047D01*
X107195646Y-118987042D01*
X107375238Y-118752994D01*
X107522743Y-118497507D01*
X107635639Y-118224952D01*
X107711993Y-117939993D01*
X107750500Y-117647506D01*
X107750500Y-117413389D01*
X109479500Y-117413389D01*
X109479500Y-117586611D01*
X109506598Y-117757701D01*
X109560127Y-117922445D01*
X109638768Y-118076788D01*
X109740586Y-118216928D01*
X109863072Y-118339414D01*
X110003212Y-118441232D01*
X110157555Y-118519873D01*
X110322299Y-118573402D01*
X110493389Y-118600500D01*
X110493390Y-118600500D01*
X110666610Y-118600500D01*
X110666611Y-118600500D01*
X110837701Y-118573402D01*
X111002445Y-118519873D01*
X111156788Y-118441232D01*
X111296928Y-118339414D01*
X111419414Y-118216928D01*
X111521232Y-118076788D01*
X111599873Y-117922445D01*
X111653402Y-117757701D01*
X111680500Y-117586611D01*
X111680500Y-117413389D01*
X111653402Y-117242299D01*
X111599873Y-117077555D01*
X111521232Y-116923212D01*
X111419414Y-116783072D01*
X111296928Y-116660586D01*
X111156788Y-116558768D01*
X111002445Y-116480127D01*
X110837701Y-116426598D01*
X110837699Y-116426597D01*
X110837698Y-116426597D01*
X110706271Y-116405781D01*
X110666611Y-116399500D01*
X110493389Y-116399500D01*
X110453728Y-116405781D01*
X110322302Y-116426597D01*
X110157552Y-116480128D01*
X110003211Y-116558768D01*
X109923256Y-116616859D01*
X109863072Y-116660586D01*
X109863070Y-116660588D01*
X109863069Y-116660588D01*
X109740588Y-116783069D01*
X109740588Y-116783070D01*
X109740586Y-116783072D01*
X109696859Y-116843256D01*
X109638768Y-116923211D01*
X109560128Y-117077552D01*
X109506597Y-117242302D01*
X109489146Y-117352486D01*
X109479500Y-117413389D01*
X107750500Y-117413389D01*
X107750500Y-117352494D01*
X107711993Y-117060007D01*
X107635639Y-116775048D01*
X107522743Y-116502493D01*
X107458064Y-116390466D01*
X107375238Y-116247006D01*
X107195647Y-116012959D01*
X107195641Y-116012952D01*
X106987047Y-115804358D01*
X106987040Y-115804352D01*
X106752993Y-115624761D01*
X106497510Y-115477258D01*
X106497500Y-115477254D01*
X106224961Y-115364364D01*
X106224954Y-115364362D01*
X106224952Y-115364361D01*
X105939993Y-115288007D01*
X105891113Y-115281571D01*
X105647513Y-115249500D01*
X105647506Y-115249500D01*
X105352494Y-115249500D01*
X105352486Y-115249500D01*
X105074085Y-115286153D01*
X105060007Y-115288007D01*
X104775048Y-115364361D01*
X104775038Y-115364364D01*
X104502499Y-115477254D01*
X104502489Y-115477258D01*
X104247006Y-115624761D01*
X104012959Y-115804352D01*
X104012952Y-115804358D01*
X103804358Y-116012952D01*
X103804352Y-116012959D01*
X103624761Y-116247006D01*
X103477258Y-116502489D01*
X103477254Y-116502499D01*
X103364364Y-116775038D01*
X103364361Y-116775048D01*
X103288008Y-117060004D01*
X103288006Y-117060015D01*
X103249500Y-117352486D01*
X103249500Y-117647513D01*
X103281571Y-117891113D01*
X103288007Y-117939993D01*
X103362212Y-118216930D01*
X103364361Y-118224951D01*
X103364364Y-118224961D01*
X103477254Y-118497500D01*
X103477258Y-118497510D01*
X103624761Y-118752993D01*
X103804352Y-118987040D01*
X103804358Y-118987047D01*
X104005130Y-119187819D01*
X104038615Y-119249142D01*
X104033631Y-119318834D01*
X103991759Y-119374767D01*
X103926295Y-119399184D01*
X103917449Y-119399500D01*
X98082412Y-119399500D01*
X98015373Y-119379815D01*
X98005097Y-119372445D01*
X98002263Y-119370185D01*
X98002262Y-119370184D01*
X97933553Y-119327011D01*
X97849523Y-119274211D01*
X97679254Y-119214631D01*
X97679249Y-119214630D01*
X97500004Y-119194435D01*
X97499996Y-119194435D01*
X97320750Y-119214630D01*
X97320745Y-119214631D01*
X97150476Y-119274211D01*
X96997737Y-119370184D01*
X96870184Y-119497737D01*
X96774211Y-119650476D01*
X96714631Y-119820745D01*
X96714630Y-119820750D01*
X96694435Y-119999996D01*
X86000500Y-119999996D01*
X86000500Y-117413389D01*
X99319500Y-117413389D01*
X99319500Y-117586611D01*
X99346598Y-117757701D01*
X99400127Y-117922445D01*
X99478768Y-118076788D01*
X99580586Y-118216928D01*
X99703072Y-118339414D01*
X99843212Y-118441232D01*
X99997555Y-118519873D01*
X100162299Y-118573402D01*
X100333389Y-118600500D01*
X100333390Y-118600500D01*
X100506610Y-118600500D01*
X100506611Y-118600500D01*
X100677701Y-118573402D01*
X100842445Y-118519873D01*
X100996788Y-118441232D01*
X101136928Y-118339414D01*
X101259414Y-118216928D01*
X101361232Y-118076788D01*
X101439873Y-117922445D01*
X101493402Y-117757701D01*
X101520500Y-117586611D01*
X101520500Y-117413389D01*
X101493402Y-117242299D01*
X101439873Y-117077555D01*
X101361232Y-116923212D01*
X101259414Y-116783072D01*
X101201232Y-116724890D01*
X101167747Y-116663567D01*
X101172731Y-116593875D01*
X101214603Y-116537942D01*
X101280067Y-116513525D01*
X101317856Y-116516634D01*
X101438852Y-116545683D01*
X101690000Y-116565449D01*
X101941148Y-116545683D01*
X102186111Y-116486873D01*
X102418859Y-116390466D01*
X102633659Y-116258836D01*
X102825224Y-116095224D01*
X102988836Y-115903659D01*
X103120466Y-115688859D01*
X103216873Y-115456111D01*
X103275683Y-115211148D01*
X103295449Y-114960000D01*
X103275683Y-114708852D01*
X103216873Y-114463889D01*
X103175335Y-114363606D01*
X103120466Y-114231140D01*
X102988839Y-114016346D01*
X102988838Y-114016343D01*
X102847165Y-113850466D01*
X102825224Y-113824776D01*
X102654834Y-113679249D01*
X102633656Y-113661161D01*
X102633653Y-113661160D01*
X102418859Y-113529533D01*
X102186110Y-113433126D01*
X101941151Y-113374317D01*
X101690000Y-113354551D01*
X101438848Y-113374317D01*
X101193889Y-113433126D01*
X100961140Y-113529533D01*
X100746346Y-113661160D01*
X100746343Y-113661161D01*
X100554776Y-113824776D01*
X100391161Y-114016343D01*
X100391160Y-114016346D01*
X100259533Y-114231140D01*
X100163126Y-114463889D01*
X100104317Y-114708848D01*
X100084551Y-114960000D01*
X100104317Y-115211151D01*
X100163126Y-115456110D01*
X100259533Y-115688859D01*
X100391160Y-115903653D01*
X100391161Y-115903656D01*
X100391164Y-115903659D01*
X100554776Y-116095224D01*
X100668783Y-116192595D01*
X100706976Y-116251102D01*
X100707474Y-116320970D01*
X100670121Y-116380016D01*
X100606774Y-116409494D01*
X100568854Y-116409358D01*
X100506611Y-116399500D01*
X100333389Y-116399500D01*
X100293728Y-116405781D01*
X100162302Y-116426597D01*
X99997552Y-116480128D01*
X99843211Y-116558768D01*
X99763256Y-116616859D01*
X99703072Y-116660586D01*
X99703070Y-116660588D01*
X99703069Y-116660588D01*
X99580588Y-116783069D01*
X99580588Y-116783070D01*
X99580586Y-116783072D01*
X99536859Y-116843256D01*
X99478768Y-116923211D01*
X99400128Y-117077552D01*
X99346597Y-117242302D01*
X99329146Y-117352486D01*
X99319500Y-117413389D01*
X86000500Y-117413389D01*
X86000500Y-112420000D01*
X106434551Y-112420000D01*
X106454317Y-112671151D01*
X106513126Y-112916110D01*
X106609533Y-113148859D01*
X106741160Y-113363653D01*
X106741161Y-113363656D01*
X106789405Y-113420142D01*
X106904776Y-113555224D01*
X106983351Y-113622333D01*
X107096343Y-113718838D01*
X107096346Y-113718839D01*
X107311140Y-113850466D01*
X107543889Y-113946873D01*
X107788852Y-114005683D01*
X108040000Y-114025449D01*
X108291148Y-114005683D01*
X108536111Y-113946873D01*
X108768859Y-113850466D01*
X108983659Y-113718836D01*
X109175224Y-113555224D01*
X109338836Y-113363659D01*
X109470466Y-113148859D01*
X109566873Y-112916111D01*
X109625683Y-112671148D01*
X109645449Y-112420000D01*
X109625683Y-112168852D01*
X109566873Y-111923889D01*
X109470466Y-111691141D01*
X109470466Y-111691140D01*
X109338839Y-111476346D01*
X109338838Y-111476343D01*
X109301875Y-111433066D01*
X109175224Y-111284776D01*
X109048571Y-111176604D01*
X108983656Y-111121161D01*
X108983653Y-111121160D01*
X108768859Y-110989533D01*
X108536110Y-110893126D01*
X108291151Y-110834317D01*
X108040000Y-110814551D01*
X107788848Y-110834317D01*
X107543889Y-110893126D01*
X107311140Y-110989533D01*
X107096346Y-111121160D01*
X107096343Y-111121161D01*
X106904776Y-111284776D01*
X106741161Y-111476343D01*
X106741160Y-111476346D01*
X106609533Y-111691140D01*
X106513126Y-111923889D01*
X106454317Y-112168848D01*
X106434551Y-112420000D01*
X86000500Y-112420000D01*
X86000500Y-108997844D01*
X113350000Y-108997844D01*
X113356401Y-109057372D01*
X113356403Y-109057379D01*
X113406645Y-109192086D01*
X113406649Y-109192093D01*
X113492809Y-109307187D01*
X113492812Y-109307190D01*
X113607906Y-109393350D01*
X113607913Y-109393354D01*
X113742620Y-109443596D01*
X113742627Y-109443598D01*
X113802155Y-109449999D01*
X113802172Y-109450000D01*
X114350000Y-109450000D01*
X114850000Y-109450000D01*
X115397828Y-109450000D01*
X115397844Y-109449999D01*
X115457372Y-109443598D01*
X115457379Y-109443596D01*
X115592086Y-109393354D01*
X115592093Y-109393350D01*
X115707187Y-109307190D01*
X115707190Y-109307187D01*
X115793350Y-109192093D01*
X115793354Y-109192086D01*
X115843596Y-109057379D01*
X115843598Y-109057372D01*
X115849999Y-108997844D01*
X115850000Y-108997827D01*
X115850000Y-108750000D01*
X114850000Y-108750000D01*
X114850000Y-109450000D01*
X114350000Y-109450000D01*
X114350000Y-108750000D01*
X113350000Y-108750000D01*
X113350000Y-108997844D01*
X86000500Y-108997844D01*
X86000500Y-108002155D01*
X113350000Y-108002155D01*
X113350000Y-108250000D01*
X114350000Y-108250000D01*
X114850000Y-108250000D01*
X115850000Y-108250000D01*
X115850000Y-108002172D01*
X115849999Y-108002155D01*
X115843598Y-107942627D01*
X115843596Y-107942620D01*
X115793354Y-107807913D01*
X115793350Y-107807906D01*
X115707190Y-107692812D01*
X115707187Y-107692809D01*
X115592093Y-107606649D01*
X115592086Y-107606645D01*
X115457379Y-107556403D01*
X115457372Y-107556401D01*
X115397844Y-107550000D01*
X114850000Y-107550000D01*
X114850000Y-108250000D01*
X114350000Y-108250000D01*
X114350000Y-107550000D01*
X113802155Y-107550000D01*
X113742627Y-107556401D01*
X113742620Y-107556403D01*
X113607913Y-107606645D01*
X113607906Y-107606649D01*
X113492812Y-107692809D01*
X113492809Y-107692812D01*
X113406649Y-107807906D01*
X113406645Y-107807913D01*
X113356403Y-107942620D01*
X113356401Y-107942627D01*
X113350000Y-108002155D01*
X86000500Y-108002155D01*
X86000500Y-105575000D01*
X102369592Y-105575000D01*
X102389201Y-105861680D01*
X102389201Y-105861684D01*
X102389202Y-105861686D01*
X102395570Y-105892331D01*
X102447666Y-106143034D01*
X102447667Y-106143037D01*
X102543894Y-106413793D01*
X102543893Y-106413793D01*
X102676098Y-106668935D01*
X102841812Y-106903700D01*
X102926923Y-106994831D01*
X103037947Y-107113708D01*
X103260853Y-107295055D01*
X103446340Y-107407853D01*
X103506382Y-107444365D01*
X103664815Y-107513181D01*
X103769942Y-107558844D01*
X104046642Y-107636371D01*
X104296920Y-107670771D01*
X104331321Y-107675500D01*
X104331322Y-107675500D01*
X104618679Y-107675500D01*
X104649370Y-107671281D01*
X104903358Y-107636371D01*
X105180058Y-107558844D01*
X105293015Y-107509779D01*
X105443617Y-107444365D01*
X105443620Y-107444363D01*
X105443625Y-107444361D01*
X105689147Y-107295055D01*
X105912053Y-107113708D01*
X106108189Y-106903698D01*
X106273901Y-106668936D01*
X106406104Y-106413797D01*
X106502334Y-106143032D01*
X106560798Y-105861686D01*
X106580408Y-105575000D01*
X106560798Y-105288314D01*
X106502334Y-105006968D01*
X106406105Y-104736206D01*
X106406106Y-104736206D01*
X106388452Y-104702135D01*
X113349500Y-104702135D01*
X113349500Y-105697870D01*
X113349501Y-105697876D01*
X113355908Y-105757483D01*
X113406202Y-105892328D01*
X113406206Y-105892335D01*
X113492452Y-106007544D01*
X113492455Y-106007547D01*
X113607664Y-106093793D01*
X113607671Y-106093797D01*
X113742517Y-106144091D01*
X113742516Y-106144091D01*
X113749444Y-106144835D01*
X113802127Y-106150500D01*
X115397872Y-106150499D01*
X115457483Y-106144091D01*
X115592331Y-106093796D01*
X115707546Y-106007546D01*
X115793796Y-105892331D01*
X115844091Y-105757483D01*
X115850500Y-105697873D01*
X115850499Y-104702128D01*
X115844091Y-104642517D01*
X115800389Y-104525347D01*
X115793797Y-104507671D01*
X115793793Y-104507664D01*
X115707547Y-104392455D01*
X115707544Y-104392452D01*
X115592335Y-104306206D01*
X115592328Y-104306202D01*
X115457482Y-104255908D01*
X115457483Y-104255908D01*
X115397883Y-104249501D01*
X115397881Y-104249500D01*
X115397873Y-104249500D01*
X115397865Y-104249500D01*
X115324500Y-104249500D01*
X115257461Y-104229815D01*
X115211706Y-104177011D01*
X115200500Y-104125500D01*
X115200500Y-102082412D01*
X115220185Y-102015373D01*
X115227555Y-102005097D01*
X115229810Y-102002267D01*
X115229816Y-102002262D01*
X115325789Y-101849522D01*
X115385368Y-101679255D01*
X115391307Y-101626547D01*
X115405565Y-101500003D01*
X115405565Y-101499996D01*
X115385369Y-101320750D01*
X115385368Y-101320745D01*
X115356948Y-101239526D01*
X115325789Y-101150478D01*
X115320748Y-101142456D01*
X115265932Y-101055216D01*
X115229816Y-100997738D01*
X115102262Y-100870184D01*
X115091034Y-100863129D01*
X114949523Y-100774211D01*
X114779254Y-100714631D01*
X114779249Y-100714630D01*
X114600004Y-100694435D01*
X114599996Y-100694435D01*
X114420750Y-100714630D01*
X114420745Y-100714631D01*
X114250476Y-100774211D01*
X114097737Y-100870184D01*
X113970184Y-100997737D01*
X113874211Y-101150476D01*
X113814631Y-101320745D01*
X113814630Y-101320750D01*
X113794435Y-101499996D01*
X113794435Y-101500003D01*
X113814630Y-101679249D01*
X113814631Y-101679254D01*
X113874211Y-101849523D01*
X113905605Y-101899486D01*
X113967514Y-101998013D01*
X113970185Y-102002263D01*
X113972445Y-102005097D01*
X113973334Y-102007275D01*
X113973889Y-102008158D01*
X113973734Y-102008255D01*
X113998855Y-102069783D01*
X113999500Y-102082412D01*
X113999500Y-104125500D01*
X113979815Y-104192539D01*
X113927011Y-104238294D01*
X113875502Y-104249500D01*
X113802130Y-104249500D01*
X113802123Y-104249501D01*
X113742516Y-104255908D01*
X113607671Y-104306202D01*
X113607664Y-104306206D01*
X113492455Y-104392452D01*
X113492452Y-104392455D01*
X113406206Y-104507664D01*
X113406202Y-104507671D01*
X113355908Y-104642517D01*
X113349728Y-104700003D01*
X113349501Y-104702123D01*
X113349500Y-104702135D01*
X106388452Y-104702135D01*
X106273901Y-104481064D01*
X106108187Y-104246299D01*
X106018245Y-104149996D01*
X105912053Y-104036292D01*
X105718502Y-103878827D01*
X105689146Y-103854944D01*
X105443617Y-103705634D01*
X105180063Y-103591158D01*
X105180061Y-103591157D01*
X105180058Y-103591156D01*
X105050578Y-103554877D01*
X104903364Y-103513630D01*
X104903359Y-103513629D01*
X104903358Y-103513629D01*
X104736453Y-103490688D01*
X104618679Y-103474500D01*
X104618678Y-103474500D01*
X104331322Y-103474500D01*
X104331321Y-103474500D01*
X104046642Y-103513629D01*
X104046635Y-103513630D01*
X103838861Y-103571845D01*
X103769942Y-103591156D01*
X103769939Y-103591156D01*
X103769936Y-103591158D01*
X103769935Y-103591158D01*
X103506382Y-103705634D01*
X103260853Y-103854944D01*
X103037950Y-104036289D01*
X102841812Y-104246299D01*
X102676098Y-104481064D01*
X102543894Y-104736206D01*
X102447667Y-105006962D01*
X102447666Y-105006965D01*
X102389201Y-105288319D01*
X102369592Y-105575000D01*
X86000500Y-105575000D01*
X86000500Y-102474994D01*
X95969357Y-102474994D01*
X95969357Y-102475005D01*
X95989890Y-102722812D01*
X95989892Y-102722824D01*
X96050936Y-102963881D01*
X96150826Y-103191606D01*
X96286833Y-103399782D01*
X96286836Y-103399785D01*
X96455256Y-103582738D01*
X96651491Y-103735474D01*
X96870190Y-103853828D01*
X97105386Y-103934571D01*
X97350665Y-103975500D01*
X97599335Y-103975500D01*
X97844614Y-103934571D01*
X98079810Y-103853828D01*
X98298509Y-103735474D01*
X98494744Y-103582738D01*
X98663164Y-103399785D01*
X98799173Y-103191607D01*
X98899063Y-102963881D01*
X98960108Y-102722821D01*
X98978571Y-102500005D01*
X98980643Y-102475005D01*
X98980643Y-102474994D01*
X98960109Y-102227187D01*
X98960107Y-102227175D01*
X98899063Y-101986118D01*
X98799173Y-101758393D01*
X98663166Y-101550217D01*
X98641557Y-101526744D01*
X98494744Y-101367262D01*
X98298509Y-101214526D01*
X98298507Y-101214525D01*
X98298506Y-101214524D01*
X98079811Y-101096172D01*
X98079802Y-101096169D01*
X97844616Y-101015429D01*
X97599335Y-100974500D01*
X97350665Y-100974500D01*
X97105383Y-101015429D01*
X96870197Y-101096169D01*
X96870188Y-101096172D01*
X96651493Y-101214524D01*
X96455257Y-101367261D01*
X96286833Y-101550217D01*
X96150826Y-101758393D01*
X96050936Y-101986118D01*
X95989892Y-102227175D01*
X95989890Y-102227187D01*
X95969357Y-102474994D01*
X86000500Y-102474994D01*
X86000500Y-97474994D01*
X95969357Y-97474994D01*
X95969357Y-97475005D01*
X95989890Y-97722812D01*
X95989892Y-97722824D01*
X96050936Y-97963881D01*
X96150826Y-98191606D01*
X96286833Y-98399782D01*
X96286836Y-98399785D01*
X96455256Y-98582738D01*
X96651491Y-98735474D01*
X96870190Y-98853828D01*
X97105386Y-98934571D01*
X97350665Y-98975500D01*
X97599335Y-98975500D01*
X97844614Y-98934571D01*
X98079810Y-98853828D01*
X98298509Y-98735474D01*
X98494744Y-98582738D01*
X98663164Y-98399785D01*
X98799173Y-98191607D01*
X98899063Y-97963881D01*
X98960108Y-97722821D01*
X98963718Y-97679254D01*
X98980643Y-97475005D01*
X98980643Y-97474994D01*
X110469357Y-97474994D01*
X110469357Y-97475005D01*
X110489890Y-97722812D01*
X110489892Y-97722824D01*
X110550936Y-97963881D01*
X110650826Y-98191606D01*
X110786833Y-98399782D01*
X110786836Y-98399785D01*
X110955256Y-98582738D01*
X110955259Y-98582740D01*
X110955262Y-98582743D01*
X111056374Y-98661442D01*
X111097187Y-98718152D01*
X111101300Y-98747748D01*
X111845590Y-99492037D01*
X111782007Y-99509075D01*
X111667993Y-99574901D01*
X111574901Y-99667993D01*
X111509075Y-99782007D01*
X111492037Y-99845590D01*
X110751564Y-99105116D01*
X110651267Y-99258632D01*
X110551412Y-99486282D01*
X110490387Y-99727261D01*
X110490385Y-99727270D01*
X110469859Y-99974994D01*
X110469859Y-99975005D01*
X110490385Y-100222729D01*
X110490387Y-100222738D01*
X110551412Y-100463717D01*
X110651267Y-100691367D01*
X110763484Y-100863129D01*
X110783672Y-100930018D01*
X110764491Y-100997204D01*
X110733987Y-101030216D01*
X110617452Y-101117455D01*
X110531206Y-101232664D01*
X110531202Y-101232671D01*
X110480908Y-101367517D01*
X110475165Y-101420939D01*
X110474501Y-101427123D01*
X110474500Y-101427135D01*
X110474500Y-103522870D01*
X110474501Y-103522876D01*
X110480908Y-103582483D01*
X110531202Y-103717328D01*
X110531206Y-103717335D01*
X110617452Y-103832544D01*
X110617455Y-103832547D01*
X110732664Y-103918793D01*
X110732671Y-103918797D01*
X110867517Y-103969091D01*
X110867516Y-103969091D01*
X110874444Y-103969835D01*
X110927127Y-103975500D01*
X113022872Y-103975499D01*
X113082483Y-103969091D01*
X113217331Y-103918796D01*
X113332546Y-103832546D01*
X113418796Y-103717331D01*
X113469091Y-103582483D01*
X113475500Y-103522873D01*
X113475499Y-101427128D01*
X113469091Y-101367517D01*
X113463530Y-101352608D01*
X113418797Y-101232671D01*
X113418793Y-101232664D01*
X113357266Y-101150476D01*
X113332546Y-101117454D01*
X113217331Y-101031204D01*
X113217329Y-101031203D01*
X113216012Y-101030217D01*
X113174141Y-100974283D01*
X113169157Y-100904591D01*
X113186515Y-100863128D01*
X113298731Y-100691369D01*
X113398587Y-100463717D01*
X113459612Y-100222738D01*
X113459614Y-100222729D01*
X113480141Y-99975005D01*
X113480141Y-99974994D01*
X113459614Y-99727270D01*
X113459612Y-99727261D01*
X113398587Y-99486282D01*
X113298731Y-99258630D01*
X113198434Y-99105116D01*
X112457962Y-99845588D01*
X112440925Y-99782007D01*
X112375099Y-99667993D01*
X112282007Y-99574901D01*
X112167993Y-99509075D01*
X112104410Y-99492037D01*
X112850898Y-98745548D01*
X112861515Y-98698852D01*
X112893621Y-98661444D01*
X112994744Y-98582738D01*
X113163164Y-98399785D01*
X113299173Y-98191607D01*
X113399063Y-97963881D01*
X113460108Y-97722821D01*
X113463718Y-97679254D01*
X113480643Y-97475005D01*
X113480643Y-97474994D01*
X113460109Y-97227187D01*
X113460107Y-97227175D01*
X113399063Y-96986118D01*
X113299173Y-96758393D01*
X113163166Y-96550217D01*
X113081376Y-96461370D01*
X112994744Y-96367262D01*
X112798509Y-96214526D01*
X112798507Y-96214525D01*
X112798506Y-96214524D01*
X112579811Y-96096172D01*
X112579802Y-96096169D01*
X112344616Y-96015429D01*
X112099335Y-95974500D01*
X111850665Y-95974500D01*
X111605383Y-96015429D01*
X111370197Y-96096169D01*
X111370188Y-96096172D01*
X111151493Y-96214524D01*
X110955257Y-96367261D01*
X110786833Y-96550217D01*
X110650826Y-96758393D01*
X110550936Y-96986118D01*
X110489892Y-97227175D01*
X110489890Y-97227187D01*
X110469357Y-97474994D01*
X98980643Y-97474994D01*
X98960109Y-97227187D01*
X98960107Y-97227175D01*
X98899063Y-96986118D01*
X98799173Y-96758393D01*
X98663166Y-96550217D01*
X98581376Y-96461370D01*
X98494744Y-96367262D01*
X98298509Y-96214526D01*
X98298507Y-96214525D01*
X98298506Y-96214524D01*
X98079811Y-96096172D01*
X98079802Y-96096169D01*
X97844616Y-96015429D01*
X97599335Y-95974500D01*
X97350665Y-95974500D01*
X97105383Y-96015429D01*
X96870197Y-96096169D01*
X96870188Y-96096172D01*
X96651493Y-96214524D01*
X96455257Y-96367261D01*
X96286833Y-96550217D01*
X96150826Y-96758393D01*
X96050936Y-96986118D01*
X95989892Y-97227175D01*
X95989890Y-97227187D01*
X95969357Y-97474994D01*
X86000500Y-97474994D01*
X86000500Y-94375000D01*
X102369592Y-94375000D01*
X102389201Y-94661680D01*
X102447666Y-94943034D01*
X102447667Y-94943037D01*
X102543894Y-95213793D01*
X102543893Y-95213793D01*
X102676098Y-95468935D01*
X102841812Y-95703700D01*
X102865159Y-95728698D01*
X103037947Y-95913708D01*
X103260853Y-96095055D01*
X103498424Y-96239526D01*
X103506382Y-96244365D01*
X103693237Y-96325526D01*
X103769942Y-96358844D01*
X104046642Y-96436371D01*
X104296920Y-96470771D01*
X104331321Y-96475500D01*
X104331322Y-96475500D01*
X104618679Y-96475500D01*
X104649370Y-96471281D01*
X104903358Y-96436371D01*
X105180058Y-96358844D01*
X105293015Y-96309779D01*
X105443617Y-96244365D01*
X105443620Y-96244363D01*
X105443625Y-96244361D01*
X105689147Y-96095055D01*
X105912053Y-95913708D01*
X106108189Y-95703698D01*
X106273901Y-95468936D01*
X106406104Y-95213797D01*
X106502334Y-94943032D01*
X106560798Y-94661686D01*
X106580408Y-94375000D01*
X106560798Y-94088314D01*
X106502334Y-93806968D01*
X106406105Y-93536206D01*
X106406106Y-93536206D01*
X106273901Y-93281064D01*
X106108187Y-93046299D01*
X106029554Y-92962105D01*
X105912053Y-92836292D01*
X105689147Y-92654945D01*
X105689146Y-92654944D01*
X105443617Y-92505634D01*
X105180063Y-92391158D01*
X105180061Y-92391157D01*
X105180058Y-92391156D01*
X105050578Y-92354877D01*
X104903364Y-92313630D01*
X104903359Y-92313629D01*
X104903358Y-92313629D01*
X104761018Y-92294064D01*
X104618679Y-92274500D01*
X104618678Y-92274500D01*
X104331322Y-92274500D01*
X104331321Y-92274500D01*
X104046642Y-92313629D01*
X104046635Y-92313630D01*
X103838861Y-92371845D01*
X103769942Y-92391156D01*
X103769939Y-92391156D01*
X103769936Y-92391158D01*
X103769935Y-92391158D01*
X103506382Y-92505634D01*
X103260853Y-92654944D01*
X103037950Y-92836289D01*
X102841812Y-93046299D01*
X102676098Y-93281064D01*
X102543894Y-93536206D01*
X102447667Y-93806962D01*
X102447666Y-93806965D01*
X102389201Y-94088319D01*
X102369592Y-94375000D01*
X86000500Y-94375000D01*
X86000500Y-85249994D01*
X102594357Y-85249994D01*
X102594357Y-85250005D01*
X102614890Y-85497812D01*
X102614892Y-85497824D01*
X102675936Y-85738881D01*
X102775826Y-85966606D01*
X102911833Y-86174782D01*
X102911836Y-86174785D01*
X103080256Y-86357738D01*
X103276491Y-86510474D01*
X103495190Y-86628828D01*
X103730386Y-86709571D01*
X103975665Y-86750500D01*
X104224335Y-86750500D01*
X104469614Y-86709571D01*
X104704810Y-86628828D01*
X104923509Y-86510474D01*
X105119744Y-86357738D01*
X105288164Y-86174785D01*
X105424173Y-85966607D01*
X105442560Y-85924689D01*
X105487517Y-85871204D01*
X105554253Y-85850514D01*
X105556116Y-85850500D01*
X109143884Y-85850500D01*
X109210923Y-85870185D01*
X109256678Y-85922989D01*
X109257440Y-85924689D01*
X109275827Y-85966608D01*
X109411833Y-86174782D01*
X109411836Y-86174785D01*
X109580256Y-86357738D01*
X109776491Y-86510474D01*
X109995190Y-86628828D01*
X110230386Y-86709571D01*
X110475665Y-86750500D01*
X110724335Y-86750500D01*
X110969614Y-86709571D01*
X111204810Y-86628828D01*
X111423509Y-86510474D01*
X111619744Y-86357738D01*
X111788164Y-86174785D01*
X111924173Y-85966607D01*
X111942560Y-85924689D01*
X111987517Y-85871204D01*
X112054253Y-85850514D01*
X112056116Y-85850500D01*
X123599903Y-85850500D01*
X123666942Y-85870185D01*
X123687584Y-85886819D01*
X124374867Y-86574102D01*
X124408352Y-86635425D01*
X124403368Y-86705117D01*
X124361496Y-86761050D01*
X124353165Y-86766772D01*
X124347745Y-86770177D01*
X124347739Y-86770182D01*
X124220184Y-86897737D01*
X124124211Y-87050476D01*
X124064631Y-87220745D01*
X124064630Y-87220750D01*
X124044435Y-87399996D01*
X124044435Y-87400003D01*
X124064630Y-87579249D01*
X124064631Y-87579254D01*
X124124211Y-87749523D01*
X124200428Y-87870820D01*
X124220184Y-87902262D01*
X124347738Y-88029816D01*
X124500478Y-88125789D01*
X124670745Y-88185368D01*
X124757668Y-88195161D01*
X124822079Y-88222226D01*
X124831464Y-88230700D01*
X124881284Y-88280520D01*
X124881286Y-88280521D01*
X124881290Y-88280524D01*
X125018209Y-88359573D01*
X125018216Y-88359577D01*
X125114470Y-88385368D01*
X125170942Y-88400500D01*
X125170943Y-88400500D01*
X127756152Y-88400500D01*
X127756168Y-88400501D01*
X127763764Y-88400501D01*
X127921883Y-88400501D01*
X127929942Y-88399440D01*
X127930005Y-88399925D01*
X127967690Y-88397099D01*
X128042821Y-88405565D01*
X128042824Y-88405565D01*
X128222070Y-88385369D01*
X128222073Y-88385368D01*
X128222076Y-88385368D01*
X128392343Y-88325789D01*
X128545083Y-88229816D01*
X128550151Y-88224748D01*
X128611474Y-88191263D01*
X128681166Y-88196247D01*
X128725513Y-88224748D01*
X130463181Y-89962416D01*
X130496666Y-90023739D01*
X130499500Y-90050097D01*
X130499500Y-93599902D01*
X130479815Y-93666941D01*
X130463181Y-93687583D01*
X124481465Y-99669298D01*
X124420142Y-99702783D01*
X124407668Y-99704837D01*
X124320750Y-99714630D01*
X124150478Y-99774210D01*
X123997737Y-99870184D01*
X123870184Y-99997737D01*
X123774211Y-100150476D01*
X123714631Y-100320745D01*
X123714630Y-100320750D01*
X123694435Y-100499996D01*
X123694435Y-100500003D01*
X123714630Y-100679249D01*
X123714631Y-100679254D01*
X123774211Y-100849523D01*
X123856767Y-100980909D01*
X123870184Y-101002262D01*
X123997738Y-101129816D01*
X124150478Y-101225789D01*
X124241572Y-101257664D01*
X124320745Y-101285368D01*
X124320750Y-101285369D01*
X124499996Y-101305565D01*
X124500000Y-101305565D01*
X124500004Y-101305565D01*
X124679249Y-101285369D01*
X124679252Y-101285368D01*
X124679255Y-101285368D01*
X124849522Y-101225789D01*
X125002262Y-101129816D01*
X125129816Y-101002262D01*
X125225789Y-100849522D01*
X125285368Y-100679255D01*
X125295161Y-100592329D01*
X125322226Y-100527918D01*
X125330690Y-100518543D01*
X131449236Y-94400000D01*
X142944592Y-94400000D01*
X142964201Y-94686680D01*
X143022666Y-94968034D01*
X143022667Y-94968037D01*
X143118894Y-95238793D01*
X143118893Y-95238793D01*
X143251098Y-95493935D01*
X143416812Y-95728700D01*
X143501923Y-95819831D01*
X143612947Y-95938708D01*
X143835853Y-96120055D01*
X144040264Y-96244361D01*
X144081382Y-96269365D01*
X144268237Y-96350526D01*
X144344942Y-96383844D01*
X144621642Y-96461371D01*
X144871920Y-96495771D01*
X144906321Y-96500500D01*
X144906322Y-96500500D01*
X145193679Y-96500500D01*
X145224370Y-96496281D01*
X145478358Y-96461371D01*
X145755058Y-96383844D01*
X145868015Y-96334779D01*
X146018617Y-96269365D01*
X146018620Y-96269363D01*
X146018625Y-96269361D01*
X146264147Y-96120055D01*
X146487053Y-95938708D01*
X146683189Y-95728698D01*
X146848901Y-95493936D01*
X146981104Y-95238797D01*
X147077334Y-94968032D01*
X147135798Y-94686686D01*
X147155408Y-94400000D01*
X147135798Y-94113314D01*
X147077334Y-93831968D01*
X146981105Y-93561206D01*
X146981106Y-93561206D01*
X146848901Y-93306064D01*
X146683187Y-93071299D01*
X146604554Y-92987105D01*
X146487053Y-92861292D01*
X146264147Y-92679945D01*
X146264146Y-92679944D01*
X146018617Y-92530634D01*
X145755063Y-92416158D01*
X145755061Y-92416157D01*
X145755058Y-92416156D01*
X145625578Y-92379877D01*
X145478364Y-92338630D01*
X145478359Y-92338629D01*
X145478358Y-92338629D01*
X145296480Y-92313630D01*
X145193679Y-92299500D01*
X145193678Y-92299500D01*
X144906322Y-92299500D01*
X144906321Y-92299500D01*
X144621642Y-92338629D01*
X144621635Y-92338630D01*
X144434169Y-92391156D01*
X144344942Y-92416156D01*
X144344939Y-92416156D01*
X144344936Y-92416158D01*
X144344935Y-92416158D01*
X144081382Y-92530634D01*
X143835853Y-92679944D01*
X143612950Y-92861289D01*
X143416812Y-93071299D01*
X143251098Y-93306064D01*
X143118894Y-93561206D01*
X143022667Y-93831962D01*
X143022666Y-93831965D01*
X142964201Y-94113319D01*
X142944592Y-94400000D01*
X131449236Y-94400000D01*
X131580520Y-94268716D01*
X131659577Y-94131784D01*
X131700501Y-93979057D01*
X131700501Y-93820942D01*
X131700501Y-93813347D01*
X131700500Y-93813329D01*
X131700500Y-89839059D01*
X131700501Y-89839046D01*
X131700501Y-89670945D01*
X131700501Y-89670943D01*
X131659577Y-89518215D01*
X131630639Y-89468095D01*
X131580520Y-89381284D01*
X131468716Y-89269480D01*
X131468715Y-89269479D01*
X131464385Y-89265149D01*
X131464374Y-89265139D01*
X128653799Y-86454564D01*
X128653797Y-86454561D01*
X128534926Y-86335690D01*
X128533581Y-86334658D01*
X128517411Y-86318787D01*
X128517327Y-86318872D01*
X128512401Y-86313946D01*
X128384848Y-86186393D01*
X128340547Y-86158557D01*
X128232109Y-86090420D01*
X128061840Y-86030840D01*
X128061835Y-86030839D01*
X127882590Y-86010644D01*
X127882582Y-86010644D01*
X127703336Y-86030839D01*
X127703331Y-86030840D01*
X127533062Y-86090420D01*
X127380323Y-86186393D01*
X127252770Y-86313946D01*
X127156797Y-86466685D01*
X127097217Y-86636954D01*
X127097216Y-86636959D01*
X127077021Y-86816205D01*
X127077021Y-86816212D01*
X127097216Y-86995458D01*
X127097217Y-86995463D01*
X127110893Y-87034545D01*
X127114454Y-87104324D01*
X127079725Y-87164952D01*
X127017732Y-87197179D01*
X126993851Y-87199500D01*
X126766322Y-87199500D01*
X126699283Y-87179815D01*
X126653528Y-87127011D01*
X126643102Y-87089383D01*
X126635369Y-87020750D01*
X126635368Y-87020748D01*
X126635368Y-87020745D01*
X126575789Y-86850478D01*
X126479816Y-86697738D01*
X126352262Y-86570184D01*
X126257236Y-86510475D01*
X126199521Y-86474210D01*
X126029249Y-86414630D01*
X125942330Y-86404837D01*
X125877916Y-86377770D01*
X125868533Y-86369298D01*
X124387590Y-84888355D01*
X124387588Y-84888352D01*
X124268717Y-84769481D01*
X124268709Y-84769475D01*
X124173717Y-84714632D01*
X124173715Y-84714631D01*
X124131790Y-84690425D01*
X124131789Y-84690424D01*
X124119263Y-84687067D01*
X123979057Y-84649499D01*
X123820943Y-84649499D01*
X123813347Y-84649499D01*
X123813331Y-84649500D01*
X112056116Y-84649500D01*
X111989077Y-84629815D01*
X111943322Y-84577011D01*
X111942560Y-84575311D01*
X111924172Y-84533391D01*
X111788166Y-84325217D01*
X111766557Y-84301744D01*
X111619744Y-84142262D01*
X111423509Y-83989526D01*
X111423507Y-83989525D01*
X111423506Y-83989524D01*
X111204811Y-83871172D01*
X111204802Y-83871169D01*
X110969616Y-83790429D01*
X110724335Y-83749500D01*
X110475665Y-83749500D01*
X110230383Y-83790429D01*
X109995197Y-83871169D01*
X109995188Y-83871172D01*
X109776493Y-83989524D01*
X109580257Y-84142261D01*
X109411833Y-84325217D01*
X109275827Y-84533391D01*
X109257440Y-84575311D01*
X109212483Y-84628796D01*
X109145747Y-84649486D01*
X109143884Y-84649500D01*
X105556116Y-84649500D01*
X105489077Y-84629815D01*
X105443322Y-84577011D01*
X105442560Y-84575311D01*
X105424172Y-84533391D01*
X105288166Y-84325217D01*
X105266557Y-84301744D01*
X105119744Y-84142262D01*
X104923509Y-83989526D01*
X104923507Y-83989525D01*
X104923506Y-83989524D01*
X104704811Y-83871172D01*
X104704802Y-83871169D01*
X104469616Y-83790429D01*
X104224335Y-83749500D01*
X103975665Y-83749500D01*
X103730383Y-83790429D01*
X103495197Y-83871169D01*
X103495188Y-83871172D01*
X103276493Y-83989524D01*
X103080257Y-84142261D01*
X102911833Y-84325217D01*
X102775826Y-84533393D01*
X102675936Y-84761118D01*
X102614892Y-85002175D01*
X102614890Y-85002187D01*
X102594357Y-85249994D01*
X86000500Y-85249994D01*
X86000500Y-80749994D01*
X102594859Y-80749994D01*
X102594859Y-80750005D01*
X102615385Y-80997729D01*
X102615387Y-80997738D01*
X102676412Y-81238717D01*
X102776266Y-81466364D01*
X102876564Y-81619882D01*
X103576212Y-80920234D01*
X103587482Y-80962292D01*
X103659890Y-81087708D01*
X103762292Y-81190110D01*
X103887708Y-81262518D01*
X103929765Y-81273787D01*
X103229942Y-81973609D01*
X103276768Y-82010055D01*
X103276770Y-82010056D01*
X103495385Y-82128364D01*
X103495396Y-82128369D01*
X103730506Y-82209083D01*
X103975707Y-82250000D01*
X104224293Y-82250000D01*
X104469493Y-82209083D01*
X104704603Y-82128369D01*
X104704614Y-82128364D01*
X104923228Y-82010057D01*
X104923231Y-82010055D01*
X104970056Y-81973609D01*
X104270234Y-81273787D01*
X104312292Y-81262518D01*
X104437708Y-81190110D01*
X104540110Y-81087708D01*
X104612518Y-80962292D01*
X104623787Y-80920235D01*
X105323434Y-81619882D01*
X105423731Y-81466369D01*
X105523587Y-81238717D01*
X105584612Y-80997738D01*
X105584614Y-80997729D01*
X105605141Y-80750005D01*
X105605141Y-80749994D01*
X109094859Y-80749994D01*
X109094859Y-80750005D01*
X109115385Y-80997729D01*
X109115387Y-80997738D01*
X109176412Y-81238717D01*
X109276266Y-81466364D01*
X109376564Y-81619882D01*
X110076212Y-80920234D01*
X110087482Y-80962292D01*
X110159890Y-81087708D01*
X110262292Y-81190110D01*
X110387708Y-81262518D01*
X110429765Y-81273787D01*
X109729942Y-81973609D01*
X109776768Y-82010055D01*
X109776770Y-82010056D01*
X109995385Y-82128364D01*
X109995396Y-82128369D01*
X110230506Y-82209083D01*
X110475707Y-82250000D01*
X110724293Y-82250000D01*
X110969493Y-82209083D01*
X111204603Y-82128369D01*
X111204614Y-82128364D01*
X111423228Y-82010057D01*
X111423231Y-82010055D01*
X111470056Y-81973609D01*
X110770234Y-81273787D01*
X110812292Y-81262518D01*
X110937708Y-81190110D01*
X111040110Y-81087708D01*
X111112518Y-80962292D01*
X111123787Y-80920235D01*
X111823434Y-81619882D01*
X111923731Y-81466369D01*
X112023587Y-81238717D01*
X112084612Y-80997738D01*
X112084614Y-80997729D01*
X112105141Y-80750005D01*
X112105141Y-80749994D01*
X112084614Y-80502270D01*
X112084612Y-80502261D01*
X112023587Y-80261282D01*
X111923731Y-80033630D01*
X111823434Y-79880116D01*
X111123787Y-80579764D01*
X111112518Y-80537708D01*
X111040110Y-80412292D01*
X110937708Y-80309890D01*
X110812292Y-80237482D01*
X110770235Y-80226212D01*
X111470057Y-79526390D01*
X111470056Y-79526389D01*
X111436145Y-79499996D01*
X118194435Y-79499996D01*
X118194435Y-79500003D01*
X118214630Y-79679249D01*
X118214631Y-79679254D01*
X118274211Y-79849523D01*
X118370184Y-80002262D01*
X118497738Y-80129816D01*
X118650478Y-80225789D01*
X118820745Y-80285368D01*
X118820750Y-80285369D01*
X118999996Y-80305565D01*
X119000000Y-80305565D01*
X119000004Y-80305565D01*
X119179249Y-80285369D01*
X119179252Y-80285368D01*
X119179255Y-80285368D01*
X119349522Y-80225789D01*
X119390571Y-80199996D01*
X123344435Y-80199996D01*
X123344435Y-80200003D01*
X123364630Y-80379249D01*
X123364631Y-80379254D01*
X123424211Y-80549523D01*
X123456243Y-80600501D01*
X123520184Y-80702262D01*
X123647738Y-80829816D01*
X123800478Y-80925789D01*
X123904798Y-80962292D01*
X123970745Y-80985368D01*
X123970750Y-80985369D01*
X124149996Y-81005565D01*
X124150000Y-81005565D01*
X124150004Y-81005565D01*
X124329249Y-80985369D01*
X124329252Y-80985368D01*
X124329255Y-80985368D01*
X124499522Y-80925789D01*
X124652262Y-80829816D01*
X124779816Y-80702262D01*
X124795318Y-80677591D01*
X124807297Y-80658527D01*
X124859631Y-80612237D01*
X124912290Y-80600500D01*
X127463331Y-80600500D01*
X127463347Y-80600501D01*
X127470943Y-80600501D01*
X127629054Y-80600501D01*
X127629057Y-80600501D01*
X127781785Y-80559577D01*
X127831904Y-80530639D01*
X127918716Y-80480520D01*
X128030520Y-80368716D01*
X128030520Y-80368714D01*
X128040728Y-80358507D01*
X128040729Y-80358504D01*
X129168536Y-79230698D01*
X129229857Y-79197215D01*
X129242310Y-79195163D01*
X129329255Y-79185368D01*
X129499522Y-79125789D01*
X129652262Y-79029816D01*
X129779816Y-78902262D01*
X129875789Y-78749522D01*
X129935368Y-78579255D01*
X129943671Y-78505565D01*
X129955565Y-78400003D01*
X129955565Y-78399996D01*
X129935369Y-78220750D01*
X129935368Y-78220745D01*
X129875789Y-78050478D01*
X129875188Y-78049522D01*
X129801209Y-77931785D01*
X129779816Y-77897738D01*
X129652262Y-77770184D01*
X129586809Y-77729057D01*
X129499523Y-77674211D01*
X129329254Y-77614631D01*
X129329249Y-77614630D01*
X129150004Y-77594435D01*
X129149996Y-77594435D01*
X128970750Y-77614630D01*
X128970745Y-77614631D01*
X128800476Y-77674211D01*
X128647737Y-77770184D01*
X128520184Y-77897737D01*
X128424210Y-78050478D01*
X128364630Y-78220750D01*
X128354837Y-78307667D01*
X128327770Y-78372081D01*
X128319298Y-78381464D01*
X127337584Y-79363181D01*
X127276261Y-79396666D01*
X127249903Y-79399500D01*
X124436670Y-79399500D01*
X124436654Y-79399499D01*
X124429058Y-79399499D01*
X124270943Y-79399499D01*
X124270941Y-79399499D01*
X124262887Y-79400560D01*
X124262823Y-79400076D01*
X124225130Y-79402900D01*
X124150003Y-79394435D01*
X124149996Y-79394435D01*
X123970750Y-79414630D01*
X123970745Y-79414631D01*
X123800476Y-79474211D01*
X123647737Y-79570184D01*
X123520184Y-79697737D01*
X123424211Y-79850476D01*
X123364631Y-80020745D01*
X123364630Y-80020750D01*
X123344435Y-80199996D01*
X119390571Y-80199996D01*
X119502262Y-80129816D01*
X119629816Y-80002262D01*
X119725789Y-79849522D01*
X119785368Y-79679255D01*
X119795161Y-79592329D01*
X119822226Y-79527918D01*
X119830690Y-79518543D01*
X121208506Y-78140728D01*
X121208511Y-78140724D01*
X121218714Y-78130520D01*
X121218716Y-78130520D01*
X121330520Y-78018716D01*
X121333884Y-78012888D01*
X121380710Y-77931785D01*
X121380710Y-77931784D01*
X121409577Y-77881785D01*
X121450500Y-77729057D01*
X121450500Y-77570943D01*
X121450500Y-77500000D01*
X123000000Y-77500000D01*
X128000000Y-77500000D01*
X127992167Y-77124000D01*
X139844500Y-77124000D01*
X139844500Y-87376000D01*
X139844501Y-87376009D01*
X139856052Y-87483450D01*
X139856054Y-87483462D01*
X139867260Y-87534972D01*
X139901383Y-87637497D01*
X139901386Y-87637503D01*
X139979171Y-87758537D01*
X139979179Y-87758548D01*
X140024923Y-87811340D01*
X140024926Y-87811343D01*
X140024930Y-87811347D01*
X140133664Y-87905567D01*
X140133667Y-87905568D01*
X140133668Y-87905569D01*
X140227925Y-87948616D01*
X140264541Y-87965338D01*
X140331580Y-87985023D01*
X140331584Y-87985024D01*
X140474000Y-88005500D01*
X140474003Y-88005500D01*
X149225990Y-88005500D01*
X149226000Y-88005500D01*
X149333456Y-87993947D01*
X149384967Y-87982741D01*
X149419197Y-87971347D01*
X149487497Y-87948616D01*
X149487501Y-87948613D01*
X149487504Y-87948613D01*
X149608543Y-87870825D01*
X149661347Y-87825070D01*
X149755567Y-87716336D01*
X149815338Y-87585459D01*
X149835023Y-87518420D01*
X149835024Y-87518416D01*
X149855500Y-87376000D01*
X149855500Y-77124000D01*
X149843947Y-77016544D01*
X149832741Y-76965033D01*
X149816491Y-76916209D01*
X149798616Y-76862502D01*
X149798613Y-76862496D01*
X149720828Y-76741462D01*
X149720825Y-76741457D01*
X149707248Y-76725788D01*
X149675076Y-76688659D01*
X149675072Y-76688656D01*
X149675070Y-76688653D01*
X149566336Y-76594433D01*
X149566333Y-76594431D01*
X149566331Y-76594430D01*
X149435465Y-76534664D01*
X149435460Y-76534662D01*
X149435459Y-76534662D01*
X149368420Y-76514977D01*
X149368422Y-76514977D01*
X149368417Y-76514976D01*
X149306347Y-76506052D01*
X149226000Y-76494500D01*
X140474000Y-76494500D01*
X140473991Y-76494500D01*
X140473990Y-76494501D01*
X140366549Y-76506052D01*
X140366537Y-76506054D01*
X140315027Y-76517260D01*
X140212502Y-76551383D01*
X140212496Y-76551386D01*
X140091462Y-76629171D01*
X140091451Y-76629179D01*
X140038659Y-76674923D01*
X139944433Y-76783664D01*
X139944430Y-76783668D01*
X139884664Y-76914534D01*
X139864976Y-76981582D01*
X139859949Y-77016549D01*
X139844500Y-77124000D01*
X127992167Y-77124000D01*
X127750000Y-65500000D01*
X123250000Y-65500000D01*
X123000000Y-77500000D01*
X121450500Y-77500000D01*
X121450500Y-73982412D01*
X121470185Y-73915373D01*
X121477555Y-73905097D01*
X121479810Y-73902267D01*
X121479816Y-73902262D01*
X121575789Y-73749522D01*
X121635368Y-73579255D01*
X121635369Y-73579249D01*
X121655565Y-73400003D01*
X121655565Y-73399996D01*
X121635369Y-73220750D01*
X121635368Y-73220745D01*
X121598415Y-73115139D01*
X121575789Y-73050478D01*
X121479816Y-72897738D01*
X121352262Y-72770184D01*
X121199523Y-72674211D01*
X121029254Y-72614631D01*
X121029249Y-72614630D01*
X120850004Y-72594435D01*
X120849996Y-72594435D01*
X120670750Y-72614630D01*
X120670745Y-72614631D01*
X120500476Y-72674211D01*
X120347737Y-72770184D01*
X120220184Y-72897737D01*
X120124211Y-73050476D01*
X120064631Y-73220745D01*
X120064630Y-73220750D01*
X120044435Y-73399996D01*
X120044435Y-73400003D01*
X120064630Y-73579249D01*
X120064631Y-73579254D01*
X120124211Y-73749523D01*
X120220185Y-73902263D01*
X120222445Y-73905097D01*
X120223334Y-73907275D01*
X120223889Y-73908158D01*
X120223734Y-73908255D01*
X120248855Y-73969783D01*
X120249500Y-73982412D01*
X120249500Y-77349902D01*
X120229815Y-77416941D01*
X120213181Y-77437583D01*
X118981465Y-78669298D01*
X118920142Y-78702783D01*
X118907668Y-78704837D01*
X118820750Y-78714630D01*
X118650478Y-78774210D01*
X118497737Y-78870184D01*
X118370184Y-78997737D01*
X118274211Y-79150476D01*
X118214631Y-79320745D01*
X118214630Y-79320750D01*
X118194435Y-79499996D01*
X111436145Y-79499996D01*
X111423229Y-79489943D01*
X111204614Y-79371635D01*
X111204603Y-79371630D01*
X110969493Y-79290916D01*
X110724293Y-79250000D01*
X110475707Y-79250000D01*
X110230506Y-79290916D01*
X109995396Y-79371630D01*
X109995390Y-79371632D01*
X109776761Y-79489949D01*
X109729942Y-79526388D01*
X109729942Y-79526390D01*
X110429765Y-80226212D01*
X110387708Y-80237482D01*
X110262292Y-80309890D01*
X110159890Y-80412292D01*
X110087482Y-80537708D01*
X110076212Y-80579764D01*
X109376564Y-79880116D01*
X109276267Y-80033632D01*
X109176412Y-80261282D01*
X109115387Y-80502261D01*
X109115385Y-80502270D01*
X109094859Y-80749994D01*
X105605141Y-80749994D01*
X105584614Y-80502270D01*
X105584612Y-80502261D01*
X105523587Y-80261282D01*
X105423731Y-80033630D01*
X105323434Y-79880116D01*
X104623787Y-80579764D01*
X104612518Y-80537708D01*
X104540110Y-80412292D01*
X104437708Y-80309890D01*
X104312292Y-80237482D01*
X104270235Y-80226212D01*
X104970057Y-79526390D01*
X104970056Y-79526389D01*
X104923229Y-79489943D01*
X104704614Y-79371635D01*
X104704603Y-79371630D01*
X104469493Y-79290916D01*
X104224293Y-79250000D01*
X103975707Y-79250000D01*
X103730506Y-79290916D01*
X103495396Y-79371630D01*
X103495390Y-79371632D01*
X103276761Y-79489949D01*
X103229942Y-79526388D01*
X103229942Y-79526390D01*
X103929765Y-80226212D01*
X103887708Y-80237482D01*
X103762292Y-80309890D01*
X103659890Y-80412292D01*
X103587482Y-80537708D01*
X103576212Y-80579764D01*
X102876564Y-79880116D01*
X102776267Y-80033632D01*
X102676412Y-80261282D01*
X102615387Y-80502261D01*
X102615385Y-80502270D01*
X102594859Y-80749994D01*
X86000500Y-80749994D01*
X86000500Y-74249996D01*
X111544435Y-74249996D01*
X111544435Y-74250003D01*
X111564630Y-74429249D01*
X111564631Y-74429254D01*
X111624211Y-74599523D01*
X111720184Y-74752262D01*
X111847738Y-74879816D01*
X112000478Y-74975789D01*
X112170745Y-75035368D01*
X112257669Y-75045161D01*
X112322080Y-75072226D01*
X112331465Y-75080700D01*
X113269298Y-76018534D01*
X113302783Y-76079857D01*
X113304837Y-76092331D01*
X113314630Y-76179249D01*
X113374210Y-76349521D01*
X113374211Y-76349522D01*
X113470184Y-76502262D01*
X113597738Y-76629816D01*
X113750478Y-76725789D01*
X113915875Y-76783664D01*
X113920745Y-76785368D01*
X113920750Y-76785369D01*
X114099996Y-76805565D01*
X114100000Y-76805565D01*
X114100003Y-76805565D01*
X114211616Y-76792989D01*
X114280438Y-76805043D01*
X114331818Y-76852392D01*
X114349500Y-76916209D01*
X114349500Y-77117587D01*
X114329815Y-77184626D01*
X114322450Y-77194896D01*
X114320186Y-77197734D01*
X114224211Y-77350476D01*
X114164631Y-77520745D01*
X114164630Y-77520750D01*
X114144435Y-77699996D01*
X114144435Y-77700003D01*
X114164630Y-77879249D01*
X114164631Y-77879254D01*
X114224211Y-78049523D01*
X114275105Y-78130520D01*
X114320184Y-78202262D01*
X114447738Y-78329816D01*
X114600478Y-78425789D01*
X114770745Y-78485368D01*
X114770750Y-78485369D01*
X114949996Y-78505565D01*
X114950000Y-78505565D01*
X114950004Y-78505565D01*
X115129249Y-78485369D01*
X115129252Y-78485368D01*
X115129255Y-78485368D01*
X115299522Y-78425789D01*
X115452262Y-78329816D01*
X115579816Y-78202262D01*
X115675789Y-78049522D01*
X115735368Y-77879255D01*
X115735369Y-77879249D01*
X115755565Y-77700003D01*
X115755565Y-77699996D01*
X115735369Y-77520750D01*
X115735368Y-77520745D01*
X115675788Y-77350476D01*
X115579813Y-77197734D01*
X115577550Y-77194896D01*
X115576659Y-77192715D01*
X115576111Y-77191842D01*
X115576264Y-77191745D01*
X115551144Y-77130209D01*
X115550500Y-77117587D01*
X115550500Y-73520945D01*
X115550500Y-73520943D01*
X115509577Y-73368216D01*
X115509573Y-73368209D01*
X115430524Y-73231290D01*
X115430521Y-73231286D01*
X115430520Y-73231284D01*
X115318716Y-73119480D01*
X115318715Y-73119479D01*
X115314385Y-73115149D01*
X115314374Y-73115139D01*
X115080700Y-72881465D01*
X115047215Y-72820142D01*
X115045163Y-72807686D01*
X115035368Y-72720745D01*
X114975789Y-72550478D01*
X114879816Y-72397738D01*
X114752262Y-72270184D01*
X114599523Y-72174211D01*
X114429254Y-72114631D01*
X114429249Y-72114630D01*
X114250004Y-72094435D01*
X114249996Y-72094435D01*
X114070750Y-72114630D01*
X114070745Y-72114631D01*
X113900476Y-72174211D01*
X113747737Y-72270184D01*
X113620184Y-72397737D01*
X113524211Y-72550476D01*
X113464631Y-72720745D01*
X113464630Y-72720750D01*
X113444435Y-72899996D01*
X113444435Y-72900003D01*
X113464630Y-73079249D01*
X113464631Y-73079254D01*
X113524211Y-73249523D01*
X113598787Y-73368209D01*
X113620184Y-73402262D01*
X113747738Y-73529816D01*
X113900478Y-73625789D01*
X114070745Y-73685368D01*
X114157669Y-73695161D01*
X114222080Y-73722226D01*
X114231465Y-73730700D01*
X114313181Y-73812416D01*
X114346666Y-73873739D01*
X114349500Y-73900097D01*
X114349500Y-75083790D01*
X114329815Y-75150829D01*
X114277011Y-75196584D01*
X114211616Y-75207010D01*
X114192331Y-75204837D01*
X114127917Y-75177770D01*
X114118534Y-75169298D01*
X113180700Y-74231465D01*
X113147215Y-74170142D01*
X113145163Y-74157686D01*
X113135368Y-74070745D01*
X113075789Y-73900478D01*
X112979816Y-73747738D01*
X112852262Y-73620184D01*
X112787124Y-73579255D01*
X112699523Y-73524211D01*
X112529254Y-73464631D01*
X112529249Y-73464630D01*
X112350004Y-73444435D01*
X112349996Y-73444435D01*
X112170750Y-73464630D01*
X112170745Y-73464631D01*
X112000476Y-73524211D01*
X111847737Y-73620184D01*
X111720184Y-73747737D01*
X111624211Y-73900476D01*
X111564631Y-74070745D01*
X111564630Y-74070750D01*
X111544435Y-74249996D01*
X86000500Y-74249996D01*
X86000500Y-65499994D01*
X109644859Y-65499994D01*
X109644859Y-65500000D01*
X109665385Y-65747729D01*
X109665387Y-65747738D01*
X109726412Y-65988717D01*
X109826266Y-66216364D01*
X109926564Y-66369882D01*
X110626212Y-65670234D01*
X110637482Y-65712292D01*
X110709890Y-65837708D01*
X110812292Y-65940110D01*
X110937708Y-66012518D01*
X110979765Y-66023787D01*
X110279942Y-66723609D01*
X110326768Y-66760055D01*
X110326770Y-66760056D01*
X110545385Y-66878364D01*
X110545396Y-66878369D01*
X110780506Y-66959083D01*
X111025707Y-67000000D01*
X111274293Y-67000000D01*
X111519493Y-66959083D01*
X111754603Y-66878369D01*
X111754614Y-66878364D01*
X111973228Y-66760057D01*
X111973231Y-66760055D01*
X112020056Y-66723609D01*
X111320234Y-66023787D01*
X111362292Y-66012518D01*
X111487708Y-65940110D01*
X111590110Y-65837708D01*
X111662518Y-65712292D01*
X111673787Y-65670235D01*
X112373434Y-66369882D01*
X112473731Y-66216369D01*
X112573587Y-65988717D01*
X112634612Y-65747738D01*
X112634614Y-65747729D01*
X112655141Y-65500000D01*
X112655141Y-65499994D01*
X116144859Y-65499994D01*
X116144859Y-65500000D01*
X116165385Y-65747729D01*
X116165387Y-65747738D01*
X116226412Y-65988717D01*
X116326266Y-66216364D01*
X116426564Y-66369882D01*
X117126212Y-65670234D01*
X117137482Y-65712292D01*
X117209890Y-65837708D01*
X117312292Y-65940110D01*
X117437708Y-66012518D01*
X117479765Y-66023787D01*
X116779942Y-66723609D01*
X116826768Y-66760055D01*
X116826770Y-66760056D01*
X117045385Y-66878364D01*
X117045396Y-66878369D01*
X117280506Y-66959083D01*
X117525707Y-67000000D01*
X117774293Y-67000000D01*
X118019493Y-66959083D01*
X118254603Y-66878369D01*
X118254614Y-66878364D01*
X118473228Y-66760057D01*
X118473231Y-66760055D01*
X118520056Y-66723609D01*
X117820234Y-66023787D01*
X117862292Y-66012518D01*
X117987708Y-65940110D01*
X118090110Y-65837708D01*
X118162518Y-65712292D01*
X118173787Y-65670235D01*
X118873434Y-66369882D01*
X118973731Y-66216369D01*
X119073587Y-65988717D01*
X119134612Y-65747738D01*
X119134614Y-65747729D01*
X119155141Y-65500000D01*
X119155141Y-65499994D01*
X119134614Y-65252270D01*
X119134612Y-65252261D01*
X119073587Y-65011282D01*
X118973731Y-64783630D01*
X118873434Y-64630116D01*
X118173787Y-65329764D01*
X118162518Y-65287708D01*
X118090110Y-65162292D01*
X117987708Y-65059890D01*
X117862292Y-64987482D01*
X117820235Y-64976212D01*
X118520057Y-64276390D01*
X118520056Y-64276389D01*
X118473229Y-64239943D01*
X118254614Y-64121635D01*
X118254603Y-64121630D01*
X118019493Y-64040916D01*
X117774293Y-64000000D01*
X117525707Y-64000000D01*
X117280506Y-64040916D01*
X117045396Y-64121630D01*
X117045390Y-64121632D01*
X116826761Y-64239949D01*
X116779942Y-64276388D01*
X116779942Y-64276390D01*
X117479765Y-64976212D01*
X117437708Y-64987482D01*
X117312292Y-65059890D01*
X117209890Y-65162292D01*
X117137482Y-65287708D01*
X117126212Y-65329764D01*
X116426564Y-64630116D01*
X116326267Y-64783632D01*
X116226412Y-65011282D01*
X116165387Y-65252261D01*
X116165385Y-65252270D01*
X116144859Y-65499994D01*
X112655141Y-65499994D01*
X112634614Y-65252270D01*
X112634612Y-65252261D01*
X112573587Y-65011282D01*
X112473731Y-64783630D01*
X112373434Y-64630116D01*
X111673787Y-65329764D01*
X111662518Y-65287708D01*
X111590110Y-65162292D01*
X111487708Y-65059890D01*
X111362292Y-64987482D01*
X111320235Y-64976212D01*
X112020057Y-64276390D01*
X112020056Y-64276389D01*
X111973229Y-64239943D01*
X111754614Y-64121635D01*
X111754603Y-64121630D01*
X111519493Y-64040916D01*
X111274293Y-64000000D01*
X111025707Y-64000000D01*
X110780506Y-64040916D01*
X110545396Y-64121630D01*
X110545390Y-64121632D01*
X110326761Y-64239949D01*
X110279942Y-64276388D01*
X110279942Y-64276390D01*
X110979765Y-64976212D01*
X110937708Y-64987482D01*
X110812292Y-65059890D01*
X110709890Y-65162292D01*
X110637482Y-65287708D01*
X110626212Y-65329764D01*
X109926564Y-64630116D01*
X109826267Y-64783632D01*
X109726412Y-65011282D01*
X109665387Y-65252261D01*
X109665385Y-65252270D01*
X109644859Y-65499994D01*
X86000500Y-65499994D01*
X86000500Y-62503051D01*
X86000649Y-62496967D01*
X86006136Y-62385272D01*
X86006137Y-62385258D01*
X87749500Y-62385258D01*
X87749500Y-62614741D01*
X87774446Y-62804215D01*
X87779452Y-62842238D01*
X87821901Y-63000660D01*
X87838842Y-63063887D01*
X87926650Y-63275876D01*
X87926657Y-63275890D01*
X88041392Y-63474617D01*
X88181081Y-63656661D01*
X88181089Y-63656670D01*
X88343330Y-63818911D01*
X88343338Y-63818918D01*
X88525382Y-63958607D01*
X88525385Y-63958608D01*
X88525388Y-63958611D01*
X88724112Y-64073344D01*
X88724117Y-64073346D01*
X88724123Y-64073349D01*
X88815480Y-64111190D01*
X88936113Y-64161158D01*
X89157762Y-64220548D01*
X89385266Y-64250500D01*
X89385273Y-64250500D01*
X89614727Y-64250500D01*
X89614734Y-64250500D01*
X89842238Y-64220548D01*
X90063887Y-64161158D01*
X90275888Y-64073344D01*
X90474612Y-63958611D01*
X90656661Y-63818919D01*
X90656665Y-63818914D01*
X90656670Y-63818911D01*
X90818911Y-63656670D01*
X90818914Y-63656665D01*
X90818919Y-63656661D01*
X90888042Y-63566579D01*
X121805000Y-63566579D01*
X121805000Y-63620000D01*
X122531933Y-63620000D01*
X122530000Y-63627213D01*
X122530000Y-64112787D01*
X122531933Y-64120000D01*
X121805000Y-64120000D01*
X121805000Y-64173420D01*
X121845348Y-64376266D01*
X121845350Y-64376274D01*
X121924500Y-64567358D01*
X121924505Y-64567368D01*
X122039410Y-64739335D01*
X122039413Y-64739339D01*
X122185660Y-64885586D01*
X122185664Y-64885589D01*
X122357631Y-65000494D01*
X122357641Y-65000499D01*
X122548723Y-65079648D01*
X122548725Y-65079649D01*
X122605000Y-65090842D01*
X122605000Y-64279618D01*
X122655446Y-64330064D01*
X122729555Y-64372851D01*
X122812213Y-64395000D01*
X122897787Y-64395000D01*
X122980445Y-64372851D01*
X123054554Y-64330064D01*
X123105000Y-64279618D01*
X123105000Y-65090842D01*
X123161274Y-65079649D01*
X123161276Y-65079648D01*
X123352358Y-65000499D01*
X123352368Y-65000494D01*
X123524335Y-64885589D01*
X123524339Y-64885586D01*
X123670586Y-64739339D01*
X123670589Y-64739335D01*
X123785494Y-64567368D01*
X123785499Y-64567358D01*
X123864649Y-64376274D01*
X123864651Y-64376266D01*
X123904999Y-64173420D01*
X123905000Y-64173417D01*
X123905000Y-64120000D01*
X123178067Y-64120000D01*
X123180000Y-64112787D01*
X123180000Y-63627213D01*
X123178067Y-63620000D01*
X123905000Y-63620000D01*
X123905000Y-63566583D01*
X123904999Y-63566579D01*
X126645000Y-63566579D01*
X126645000Y-63620000D01*
X127371933Y-63620000D01*
X127370000Y-63627213D01*
X127370000Y-64112787D01*
X127371933Y-64120000D01*
X126645000Y-64120000D01*
X126645000Y-64173420D01*
X126685348Y-64376266D01*
X126685350Y-64376274D01*
X126764500Y-64567358D01*
X126764505Y-64567368D01*
X126879410Y-64739335D01*
X126879413Y-64739339D01*
X127025660Y-64885586D01*
X127025664Y-64885589D01*
X127197631Y-65000494D01*
X127197641Y-65000499D01*
X127388723Y-65079648D01*
X127388725Y-65079649D01*
X127445000Y-65090842D01*
X127445000Y-64279618D01*
X127495446Y-64330064D01*
X127569555Y-64372851D01*
X127652213Y-64395000D01*
X127737787Y-64395000D01*
X127820445Y-64372851D01*
X127894554Y-64330064D01*
X127945000Y-64279618D01*
X127945000Y-65090842D01*
X128001274Y-65079649D01*
X128001276Y-65079648D01*
X128192358Y-65000499D01*
X128192368Y-65000494D01*
X128364335Y-64885589D01*
X128364339Y-64885586D01*
X128510586Y-64739339D01*
X128510589Y-64739335D01*
X128625494Y-64567368D01*
X128625499Y-64567358D01*
X128704649Y-64376274D01*
X128704651Y-64376266D01*
X128744999Y-64173420D01*
X128745000Y-64173417D01*
X128745000Y-64120000D01*
X128018067Y-64120000D01*
X128020000Y-64112787D01*
X128020000Y-63627213D01*
X128018067Y-63620000D01*
X128745000Y-63620000D01*
X128745000Y-63566583D01*
X128744999Y-63566579D01*
X128704651Y-63363733D01*
X128704649Y-63363725D01*
X128625499Y-63172641D01*
X128625494Y-63172631D01*
X128510589Y-63000664D01*
X128510586Y-63000660D01*
X128364339Y-62854413D01*
X128364335Y-62854410D01*
X128192368Y-62739505D01*
X128192358Y-62739500D01*
X128001272Y-62660349D01*
X128001267Y-62660347D01*
X127945000Y-62649155D01*
X127945000Y-63460382D01*
X127894554Y-63409936D01*
X127820445Y-63367149D01*
X127737787Y-63345000D01*
X127652213Y-63345000D01*
X127569555Y-63367149D01*
X127495446Y-63409936D01*
X127445000Y-63460382D01*
X127445000Y-62649156D01*
X127444999Y-62649155D01*
X127388732Y-62660347D01*
X127388727Y-62660349D01*
X127197641Y-62739500D01*
X127197631Y-62739505D01*
X127025664Y-62854410D01*
X127025660Y-62854413D01*
X126879413Y-63000660D01*
X126879410Y-63000664D01*
X126764505Y-63172631D01*
X126764500Y-63172641D01*
X126685350Y-63363725D01*
X126685348Y-63363733D01*
X126645000Y-63566579D01*
X123904999Y-63566579D01*
X123864651Y-63363733D01*
X123864649Y-63363725D01*
X123785499Y-63172641D01*
X123785494Y-63172631D01*
X123670589Y-63000664D01*
X123670586Y-63000660D01*
X123524339Y-62854413D01*
X123524335Y-62854410D01*
X123352368Y-62739505D01*
X123352358Y-62739500D01*
X123161272Y-62660349D01*
X123161267Y-62660347D01*
X123105000Y-62649155D01*
X123105000Y-63460382D01*
X123054554Y-63409936D01*
X122980445Y-63367149D01*
X122897787Y-63345000D01*
X122812213Y-63345000D01*
X122729555Y-63367149D01*
X122655446Y-63409936D01*
X122605000Y-63460382D01*
X122605000Y-62649156D01*
X122604999Y-62649155D01*
X122548732Y-62660347D01*
X122548727Y-62660349D01*
X122357641Y-62739500D01*
X122357631Y-62739505D01*
X122185664Y-62854410D01*
X122185660Y-62854413D01*
X122039413Y-63000660D01*
X122039410Y-63000664D01*
X121924505Y-63172631D01*
X121924500Y-63172641D01*
X121845350Y-63363725D01*
X121845348Y-63363733D01*
X121805000Y-63566579D01*
X90888042Y-63566579D01*
X90958611Y-63474612D01*
X91073344Y-63275888D01*
X91161158Y-63063887D01*
X91220548Y-62842238D01*
X91250500Y-62614734D01*
X91250500Y-62385266D01*
X91220548Y-62157762D01*
X91161158Y-61936113D01*
X91073344Y-61724112D01*
X90958611Y-61525388D01*
X90958608Y-61525385D01*
X90958607Y-61525382D01*
X90818918Y-61343338D01*
X90818911Y-61343330D01*
X90656670Y-61181089D01*
X90656661Y-61181081D01*
X90474617Y-61041392D01*
X90402914Y-60999994D01*
X109644357Y-60999994D01*
X109644357Y-61000005D01*
X109664890Y-61247812D01*
X109664892Y-61247824D01*
X109725936Y-61488881D01*
X109825826Y-61716606D01*
X109961833Y-61924782D01*
X109961836Y-61924785D01*
X110130256Y-62107738D01*
X110326491Y-62260474D01*
X110545190Y-62378828D01*
X110780386Y-62459571D01*
X111025665Y-62500500D01*
X111274335Y-62500500D01*
X111519614Y-62459571D01*
X111754810Y-62378828D01*
X111973509Y-62260474D01*
X112169744Y-62107738D01*
X112338164Y-61924785D01*
X112474173Y-61716607D01*
X112492560Y-61674689D01*
X112537517Y-61621204D01*
X112604253Y-61600514D01*
X112606116Y-61600500D01*
X116193884Y-61600500D01*
X116260923Y-61620185D01*
X116306678Y-61672989D01*
X116307440Y-61674689D01*
X116325827Y-61716608D01*
X116461833Y-61924782D01*
X116461836Y-61924785D01*
X116630256Y-62107738D01*
X116826491Y-62260474D01*
X117045190Y-62378828D01*
X117280386Y-62459571D01*
X117525665Y-62500500D01*
X117774335Y-62500500D01*
X118019614Y-62459571D01*
X118236080Y-62385258D01*
X158749500Y-62385258D01*
X158749500Y-62614741D01*
X158774446Y-62804215D01*
X158779452Y-62842238D01*
X158821901Y-63000660D01*
X158838842Y-63063887D01*
X158926650Y-63275876D01*
X158926657Y-63275890D01*
X159041392Y-63474617D01*
X159181081Y-63656661D01*
X159181089Y-63656670D01*
X159343330Y-63818911D01*
X159343338Y-63818918D01*
X159525382Y-63958607D01*
X159525385Y-63958608D01*
X159525388Y-63958611D01*
X159724112Y-64073344D01*
X159724117Y-64073346D01*
X159724123Y-64073349D01*
X159815480Y-64111190D01*
X159936113Y-64161158D01*
X160157762Y-64220548D01*
X160385266Y-64250500D01*
X160385273Y-64250500D01*
X160614727Y-64250500D01*
X160614734Y-64250500D01*
X160842238Y-64220548D01*
X161063887Y-64161158D01*
X161275888Y-64073344D01*
X161474612Y-63958611D01*
X161656661Y-63818919D01*
X161656665Y-63818914D01*
X161656670Y-63818911D01*
X161818911Y-63656670D01*
X161818914Y-63656665D01*
X161818919Y-63656661D01*
X161958611Y-63474612D01*
X162073344Y-63275888D01*
X162161158Y-63063887D01*
X162220548Y-62842238D01*
X162250500Y-62614734D01*
X162250500Y-62385266D01*
X162220548Y-62157762D01*
X162161158Y-61936113D01*
X162073344Y-61724112D01*
X161958611Y-61525388D01*
X161958608Y-61525385D01*
X161958607Y-61525382D01*
X161818918Y-61343338D01*
X161818911Y-61343330D01*
X161656670Y-61181089D01*
X161656661Y-61181081D01*
X161474617Y-61041392D01*
X161275890Y-60926657D01*
X161275876Y-60926650D01*
X161063887Y-60838842D01*
X160842238Y-60779452D01*
X160804215Y-60774446D01*
X160614741Y-60749500D01*
X160614734Y-60749500D01*
X160385266Y-60749500D01*
X160385258Y-60749500D01*
X160183283Y-60776092D01*
X160157762Y-60779452D01*
X160064076Y-60804554D01*
X159936112Y-60838842D01*
X159724123Y-60926650D01*
X159724109Y-60926657D01*
X159525382Y-61041392D01*
X159343338Y-61181081D01*
X159181081Y-61343338D01*
X159041392Y-61525382D01*
X158926657Y-61724109D01*
X158926650Y-61724123D01*
X158848827Y-61912007D01*
X158838842Y-61936113D01*
X158785842Y-62133916D01*
X158779453Y-62157759D01*
X158779451Y-62157770D01*
X158749500Y-62385258D01*
X118236080Y-62385258D01*
X118254810Y-62378828D01*
X118473509Y-62260474D01*
X118669744Y-62107738D01*
X118838164Y-61924785D01*
X118974173Y-61716607D01*
X119074063Y-61488881D01*
X119135108Y-61247821D01*
X119140638Y-61181089D01*
X119155643Y-61000005D01*
X119155643Y-60999994D01*
X119135109Y-60752187D01*
X119135107Y-60752175D01*
X119097211Y-60602526D01*
X121370000Y-60602526D01*
X121370000Y-60620000D01*
X122195000Y-60620000D01*
X122195000Y-61120000D01*
X121370000Y-61120000D01*
X121370000Y-61137473D01*
X121398933Y-61320147D01*
X121456083Y-61496040D01*
X121456084Y-61496043D01*
X121540052Y-61660837D01*
X121648754Y-61810454D01*
X121648758Y-61810459D01*
X121779540Y-61941241D01*
X121779545Y-61941245D01*
X121929162Y-62049947D01*
X122093956Y-62133915D01*
X122093959Y-62133916D01*
X122269845Y-62191064D01*
X122269858Y-62191067D01*
X122295000Y-62195049D01*
X122295000Y-61364975D01*
X122330095Y-61400070D01*
X122409905Y-61446148D01*
X122498922Y-61470000D01*
X122591078Y-61470000D01*
X122680095Y-61446148D01*
X122759905Y-61400070D01*
X122795000Y-61364975D01*
X122795000Y-62195048D01*
X122820141Y-62191067D01*
X122820154Y-62191064D01*
X122996040Y-62133916D01*
X122996043Y-62133915D01*
X123160837Y-62049947D01*
X123310454Y-61941245D01*
X123310459Y-61941241D01*
X123441241Y-61810459D01*
X123441245Y-61810454D01*
X123549947Y-61660837D01*
X123633915Y-61496043D01*
X123633916Y-61496040D01*
X123691066Y-61320147D01*
X123720000Y-61137473D01*
X123720000Y-61120000D01*
X122895000Y-61120000D01*
X122895000Y-60620000D01*
X123720000Y-60620000D01*
X123720000Y-60602526D01*
X126830000Y-60602526D01*
X126830000Y-60620000D01*
X127655000Y-60620000D01*
X127655000Y-61120000D01*
X126830000Y-61120000D01*
X126830000Y-61137473D01*
X126858933Y-61320147D01*
X126916083Y-61496040D01*
X126916084Y-61496043D01*
X127000052Y-61660837D01*
X127108754Y-61810454D01*
X127108758Y-61810459D01*
X127239540Y-61941241D01*
X127239545Y-61941245D01*
X127389162Y-62049947D01*
X127553956Y-62133915D01*
X127553959Y-62133916D01*
X127729845Y-62191064D01*
X127729858Y-62191067D01*
X127755000Y-62195049D01*
X127755000Y-61364975D01*
X127790095Y-61400070D01*
X127869905Y-61446148D01*
X127958922Y-61470000D01*
X128051078Y-61470000D01*
X128140095Y-61446148D01*
X128219905Y-61400070D01*
X128255000Y-61364975D01*
X128255000Y-62195048D01*
X128280141Y-62191067D01*
X128280154Y-62191064D01*
X128456040Y-62133916D01*
X128456043Y-62133915D01*
X128620837Y-62049947D01*
X128770454Y-61941245D01*
X128770459Y-61941241D01*
X128901241Y-61810459D01*
X128901245Y-61810454D01*
X129009947Y-61660837D01*
X129093915Y-61496043D01*
X129093916Y-61496040D01*
X129151066Y-61320147D01*
X129180000Y-61137473D01*
X129180000Y-61120000D01*
X128355000Y-61120000D01*
X128355000Y-60620000D01*
X129180000Y-60620000D01*
X129180000Y-60602526D01*
X129151066Y-60419852D01*
X129093916Y-60243959D01*
X129093915Y-60243956D01*
X129009947Y-60079162D01*
X128901245Y-59929545D01*
X128901241Y-59929540D01*
X128770459Y-59798758D01*
X128770454Y-59798754D01*
X128620837Y-59690052D01*
X128456043Y-59606084D01*
X128456037Y-59606082D01*
X128280144Y-59548932D01*
X128255000Y-59544950D01*
X128255000Y-60375025D01*
X128219905Y-60339930D01*
X128140095Y-60293852D01*
X128051078Y-60270000D01*
X127958922Y-60270000D01*
X127869905Y-60293852D01*
X127790095Y-60339930D01*
X127755000Y-60375025D01*
X127755000Y-59544950D01*
X127754999Y-59544950D01*
X127729855Y-59548932D01*
X127553962Y-59606082D01*
X127553956Y-59606084D01*
X127389162Y-59690052D01*
X127239545Y-59798754D01*
X127239540Y-59798758D01*
X127108758Y-59929540D01*
X127108754Y-59929545D01*
X127000052Y-60079162D01*
X126916084Y-60243956D01*
X126916083Y-60243959D01*
X126858933Y-60419852D01*
X126830000Y-60602526D01*
X123720000Y-60602526D01*
X123691066Y-60419852D01*
X123633916Y-60243959D01*
X123633915Y-60243956D01*
X123549947Y-60079162D01*
X123441245Y-59929545D01*
X123441241Y-59929540D01*
X123310459Y-59798758D01*
X123310454Y-59798754D01*
X123160837Y-59690052D01*
X122996043Y-59606084D01*
X122996037Y-59606082D01*
X122820144Y-59548932D01*
X122795000Y-59544950D01*
X122795000Y-60375025D01*
X122759905Y-60339930D01*
X122680095Y-60293852D01*
X122591078Y-60270000D01*
X122498922Y-60270000D01*
X122409905Y-60293852D01*
X122330095Y-60339930D01*
X122295000Y-60375025D01*
X122295000Y-59544950D01*
X122294999Y-59544950D01*
X122269855Y-59548932D01*
X122093962Y-59606082D01*
X122093956Y-59606084D01*
X121929162Y-59690052D01*
X121779545Y-59798754D01*
X121779540Y-59798758D01*
X121648758Y-59929540D01*
X121648754Y-59929545D01*
X121540052Y-60079162D01*
X121456084Y-60243956D01*
X121456083Y-60243959D01*
X121398933Y-60419852D01*
X121370000Y-60602526D01*
X119097211Y-60602526D01*
X119074063Y-60511118D01*
X118974173Y-60283393D01*
X118838166Y-60075217D01*
X118704065Y-59929545D01*
X118669744Y-59892262D01*
X118473509Y-59739526D01*
X118473507Y-59739525D01*
X118473506Y-59739524D01*
X118254811Y-59621172D01*
X118254802Y-59621169D01*
X118019616Y-59540429D01*
X117774335Y-59499500D01*
X117525665Y-59499500D01*
X117280383Y-59540429D01*
X117045197Y-59621169D01*
X117045188Y-59621172D01*
X116826493Y-59739524D01*
X116630257Y-59892261D01*
X116461833Y-60075217D01*
X116325827Y-60283391D01*
X116307440Y-60325311D01*
X116262483Y-60378796D01*
X116195747Y-60399486D01*
X116193884Y-60399500D01*
X112606116Y-60399500D01*
X112539077Y-60379815D01*
X112493322Y-60327011D01*
X112492560Y-60325311D01*
X112474172Y-60283391D01*
X112338166Y-60075217D01*
X112204065Y-59929545D01*
X112169744Y-59892262D01*
X111973509Y-59739526D01*
X111973507Y-59739525D01*
X111973506Y-59739524D01*
X111754811Y-59621172D01*
X111754802Y-59621169D01*
X111519616Y-59540429D01*
X111274335Y-59499500D01*
X111025665Y-59499500D01*
X110780383Y-59540429D01*
X110545197Y-59621169D01*
X110545188Y-59621172D01*
X110326493Y-59739524D01*
X110130257Y-59892261D01*
X109961833Y-60075217D01*
X109825826Y-60283393D01*
X109725936Y-60511118D01*
X109664892Y-60752175D01*
X109664890Y-60752187D01*
X109644357Y-60999994D01*
X90402914Y-60999994D01*
X90275890Y-60926657D01*
X90275876Y-60926650D01*
X90063887Y-60838842D01*
X89842238Y-60779452D01*
X89804215Y-60774446D01*
X89614741Y-60749500D01*
X89614734Y-60749500D01*
X89385266Y-60749500D01*
X89385258Y-60749500D01*
X89183283Y-60776092D01*
X89157762Y-60779452D01*
X89064076Y-60804554D01*
X88936112Y-60838842D01*
X88724123Y-60926650D01*
X88724109Y-60926657D01*
X88525382Y-61041392D01*
X88343338Y-61181081D01*
X88181081Y-61343338D01*
X88041392Y-61525382D01*
X87926657Y-61724109D01*
X87926650Y-61724123D01*
X87848827Y-61912007D01*
X87838842Y-61936113D01*
X87785842Y-62133916D01*
X87779453Y-62157759D01*
X87779451Y-62157770D01*
X87749500Y-62385258D01*
X86006137Y-62385258D01*
X86017052Y-62163068D01*
X86018245Y-62150962D01*
X86033229Y-62049947D01*
X86066849Y-61823296D01*
X86069218Y-61811385D01*
X86149710Y-61490043D01*
X86153240Y-61478411D01*
X86264835Y-61166525D01*
X86269476Y-61155318D01*
X86411124Y-60855828D01*
X86416840Y-60845136D01*
X86587145Y-60560998D01*
X86593888Y-60550905D01*
X86791232Y-60284818D01*
X86798935Y-60275433D01*
X87021405Y-60029975D01*
X87029975Y-60021405D01*
X87275433Y-59798935D01*
X87284818Y-59791232D01*
X87550905Y-59593888D01*
X87560998Y-59587145D01*
X87845136Y-59416840D01*
X87855828Y-59411124D01*
X88155318Y-59269476D01*
X88166525Y-59264835D01*
X88478412Y-59153239D01*
X88490043Y-59149710D01*
X88811385Y-59069218D01*
X88823296Y-59066849D01*
X89150962Y-59018244D01*
X89163068Y-59017052D01*
X89496967Y-59000648D01*
X89503051Y-59000500D01*
X89565892Y-59000500D01*
X160434108Y-59000500D01*
X160496949Y-59000500D01*
X160503032Y-59000648D01*
G37*
%TD.AperFunction*%
%TD*%
D20*
X156000000Y-85500000D03*
X128140000Y-106500000D03*
X126500000Y-106500000D03*
X121500000Y-95000000D03*
X122289063Y-93189062D03*
X123150000Y-93200000D03*
X131882255Y-89582427D03*
X124500000Y-100500000D03*
X125850000Y-87200000D03*
X134500000Y-97500000D03*
X127136397Y-114363603D03*
X123500000Y-113500000D03*
X133600000Y-87500000D03*
X133100000Y-76000000D03*
X126350000Y-81600000D03*
X126250000Y-83800000D03*
X148350000Y-76000000D03*
X138850000Y-81000000D03*
X126250000Y-83100000D03*
X125850000Y-84400000D03*
X139350000Y-84500000D03*
X151200000Y-99200000D03*
X128000000Y-102800000D03*
X122501250Y-83895442D03*
X134550000Y-83000000D03*
X123550000Y-84400000D03*
X126450000Y-81000000D03*
X138850000Y-87500000D03*
X147350000Y-76000000D03*
X129600000Y-73000000D03*
X125150000Y-84400000D03*
X126350000Y-82300000D03*
X121000000Y-129700000D03*
X139200000Y-129000000D03*
X117900000Y-102900000D03*
X122750000Y-84400000D03*
X137100000Y-73250000D03*
X107350000Y-78400000D03*
X126450000Y-89600000D03*
X139600000Y-76000000D03*
X134550000Y-79990930D03*
X147900000Y-89400000D03*
X124350000Y-84400000D03*
X130600000Y-72750000D03*
X131000000Y-101200000D03*
X131800000Y-101200000D03*
X132425000Y-101500000D03*
X133500000Y-126800000D03*
X118300000Y-105200000D03*
X135000000Y-125925000D03*
X121500000Y-126800000D03*
X134400000Y-126800000D03*
X120200000Y-126400000D03*
X136000000Y-125925000D03*
X148850000Y-79500000D03*
X147350000Y-87000000D03*
X143350000Y-83500000D03*
X140850000Y-80500000D03*
X124850000Y-87400000D03*
X142350000Y-83500000D03*
X141350000Y-83500000D03*
X143350000Y-81500000D03*
X148350000Y-81500000D03*
X146350000Y-83500000D03*
X141350000Y-82500000D03*
X148850000Y-78500000D03*
X148350000Y-84500000D03*
X146350000Y-81500000D03*
X120850000Y-73400000D03*
X140850000Y-78500000D03*
X148350000Y-85500000D03*
X140850000Y-79500000D03*
X144850000Y-81500000D03*
X147350000Y-82500000D03*
X147350000Y-81500000D03*
X142350000Y-87000000D03*
X148350000Y-83500000D03*
X148350000Y-82500000D03*
X144850000Y-83500000D03*
X147350000Y-83500000D03*
X148850000Y-77500000D03*
X141350000Y-84500000D03*
X143350000Y-82500000D03*
X128042821Y-87600000D03*
X141350000Y-86500000D03*
X119000000Y-79500000D03*
X148850000Y-80500000D03*
X148350000Y-86500000D03*
X142350000Y-82500000D03*
X140850000Y-77500000D03*
X141350000Y-85500000D03*
X142350000Y-81500000D03*
X141350000Y-81500000D03*
X146350000Y-82500000D03*
X144850000Y-82500000D03*
X129150000Y-78400000D03*
X124150000Y-80200000D03*
X120000000Y-120000000D03*
X133500000Y-119500000D03*
X114000000Y-120000000D03*
X97500000Y-120000000D03*
X127882586Y-86816209D03*
X114600000Y-101500000D03*
X126000000Y-104150000D03*
X121650000Y-104700000D03*
X133800000Y-109000000D03*
X132300000Y-124300000D03*
X114950000Y-77700000D03*
X114250000Y-72900000D03*
X114100000Y-76000000D03*
X112350000Y-74250000D03*
D21*
X139420000Y-137000000D03*
X144500000Y-137000000D03*
X149580000Y-137000000D03*
X147040000Y-131920000D03*
X140690000Y-134460000D03*
X119920000Y-137000000D03*
X125000000Y-137000000D03*
X130080000Y-137000000D03*
X127540000Y-131920000D03*
X121190000Y-134460000D03*
X100420000Y-137000000D03*
X105500000Y-137000000D03*
X110580000Y-137000000D03*
X108040000Y-131920000D03*
X101690000Y-134460000D03*
X100420000Y-117500000D03*
X105500000Y-117500000D03*
X110580000Y-117500000D03*
X108040000Y-112420000D03*
X101690000Y-114960000D03*
X119920000Y-117500000D03*
X125000000Y-117500000D03*
X130080000Y-117500000D03*
X127540000Y-112420000D03*
X121190000Y-114960000D03*
X139420000Y-117500000D03*
X144500000Y-117500000D03*
X149580000Y-117500000D03*
X147040000Y-112420000D03*
X140690000Y-114960000D03*
X110600000Y-85250000D03*
X104100000Y-85250000D03*
X110600000Y-80750000D03*
X104100000Y-80750000D03*
D22*
X122545000Y-60870000D03*
D23*
X122855000Y-63870000D03*
X127695000Y-63870000D03*
D22*
X128005000Y-60870000D03*
D21*
X111150000Y-61000000D03*
X117650000Y-61000000D03*
X111150000Y-65500000D03*
X117650000Y-65500000D03*
X160500000Y-149500000D03*
X152550000Y-102500000D03*
X152550000Y-97500000D03*
X152550000Y-100000000D03*
X145050000Y-105600000D03*
X145050000Y-94400000D03*
X138050000Y-97500000D03*
X138050000Y-102500000D03*
X160500000Y-62500000D03*
X89500000Y-62500000D03*
X89500000Y-149500000D03*
X111975000Y-102475000D03*
X111975000Y-97475000D03*
X111975000Y-99975000D03*
X104475000Y-105575000D03*
X104475000Y-94375000D03*
X97475000Y-97475000D03*
X97475000Y-102475000D03*
M02*
