%TF.GenerationSoftware,KiCad,Pcbnew,8.0.5*%
%TF.CreationDate,2025-01-30T00:55:53+01:00*%
%TF.ProjectId,rp2040_pad,72703230-3430-45f7-9061-642e6b696361,rev?*%
%TF.SameCoordinates,Original*%
%TF.FileFunction,Legend,Top*%
%TF.FilePolarity,Positive*%
%FSLAX46Y46*%
G04 Gerber Fmt 4.6, Leading zero omitted, Abs format (unit mm)*
G04 Created by KiCad (PCBNEW 8.0.5) date 2025-01-30 00:55:53*
%MOMM*%
%LPD*%
G01*
G04 APERTURE LIST*
%ADD10C,0.300000*%
%ADD11C,0.150000*%
%ADD12C,0.125000*%
%ADD13C,0.000000*%
%ADD14C,0.120000*%
%ADD15C,0.250000*%
%ADD16C,0.350000*%
%ADD17O,0.700000X1.200000*%
%ADD18O,0.650000X1.050000*%
G04 APERTURE END LIST*
D10*
G36*
X144003035Y-68365272D02*
G01*
X144012212Y-68427125D01*
X144014026Y-68504124D01*
X144014026Y-69254438D01*
X144013985Y-69271826D01*
X144012273Y-69352213D01*
X144003401Y-69430293D01*
X143956873Y-69463632D01*
X143911810Y-69435055D01*
X143907813Y-69417224D01*
X143902554Y-69343121D01*
X143901552Y-69266528D01*
X143901552Y-68504124D01*
X143903019Y-68437291D01*
X143916573Y-68359776D01*
X143959804Y-68338161D01*
X144003035Y-68365272D01*
G37*
G36*
X146201760Y-68361621D02*
G01*
X146276692Y-68374797D01*
X146305268Y-68416563D01*
X146310774Y-68480380D01*
X146311863Y-68557979D01*
X146311863Y-69208642D01*
X146311389Y-69256855D01*
X146307596Y-69334120D01*
X146292445Y-69406845D01*
X146272724Y-69425826D01*
X146198290Y-69440184D01*
X146198290Y-68361608D01*
X146201760Y-68361621D01*
G37*
G36*
X148706186Y-68361801D02*
G01*
X148778960Y-68383590D01*
X148794141Y-68407323D01*
X148803872Y-68480310D01*
X148803872Y-68573000D01*
X148801873Y-68625219D01*
X148778593Y-68695732D01*
X148767967Y-68701709D01*
X148695429Y-68713318D01*
X148695429Y-68361608D01*
X148706186Y-68361801D01*
G37*
G36*
X151904018Y-69935114D02*
G01*
X140133891Y-69935114D01*
X140133891Y-68505589D01*
X140300558Y-68505589D01*
X140303340Y-68576716D01*
X140314296Y-68653652D01*
X140335729Y-68725041D01*
X140340242Y-68735659D01*
X140375846Y-68801886D01*
X140425122Y-68860230D01*
X140454033Y-68884160D01*
X140513338Y-68927408D01*
X140576032Y-68969683D01*
X140642009Y-69012271D01*
X140651898Y-69018557D01*
X140722561Y-69064776D01*
X140784101Y-69108124D01*
X140842044Y-69157351D01*
X140860108Y-69188785D01*
X140875764Y-69262226D01*
X140879413Y-69341266D01*
X140878957Y-69360144D01*
X140860729Y-69433956D01*
X140805774Y-69463632D01*
X140754483Y-69440917D01*
X140743767Y-69401167D01*
X140740195Y-69327344D01*
X140740195Y-69111922D01*
X140313747Y-69111922D01*
X140313747Y-69232822D01*
X140314704Y-69290167D01*
X140320217Y-69373286D01*
X140332275Y-69454095D01*
X140352948Y-69528112D01*
X140358189Y-69541109D01*
X140399189Y-69607376D01*
X140454344Y-69659955D01*
X140518545Y-69701036D01*
X140593670Y-69733622D01*
X140667212Y-69753635D01*
X140747120Y-69765221D01*
X140822260Y-69768447D01*
X140881345Y-69766425D01*
X140955878Y-69757437D01*
X141007771Y-69745000D01*
X141422365Y-69745000D01*
X142197958Y-69745000D01*
X142197958Y-69393290D01*
X141879588Y-69393290D01*
X141879588Y-69041580D01*
X142150697Y-69041580D01*
X142150697Y-68689870D01*
X141879588Y-68689870D01*
X141879588Y-68658729D01*
X142282222Y-68658729D01*
X142282222Y-69138667D01*
X142282863Y-69197697D01*
X142286229Y-69279202D01*
X142292480Y-69352257D01*
X142303420Y-69426809D01*
X142323255Y-69505764D01*
X142331768Y-69528378D01*
X142370980Y-69597014D01*
X142426865Y-69655274D01*
X142491416Y-69698838D01*
X142507566Y-69707267D01*
X142577347Y-69735546D01*
X142655417Y-69755123D01*
X142730528Y-69765116D01*
X142811985Y-69768447D01*
X142823628Y-69768365D01*
X142901904Y-69763226D01*
X142984451Y-69747564D01*
X143059624Y-69721461D01*
X143127424Y-69684916D01*
X143150669Y-69669012D01*
X143210818Y-69618403D01*
X143260793Y-69557073D01*
X143293021Y-69490376D01*
X143307725Y-69434497D01*
X143320107Y-69353119D01*
X143326298Y-69279823D01*
X143329835Y-69196017D01*
X143330757Y-69118150D01*
X143330757Y-69041580D01*
X142873534Y-69041580D01*
X142873534Y-69263230D01*
X142873483Y-69279773D01*
X142871357Y-69356378D01*
X142860345Y-69431392D01*
X142806856Y-69463632D01*
X142751901Y-69432124D01*
X142741196Y-69359395D01*
X142739445Y-69283747D01*
X142739445Y-68525006D01*
X142741196Y-68446301D01*
X142751901Y-68370767D01*
X142810153Y-68338161D01*
X142861444Y-68364539D01*
X142871834Y-68434120D01*
X142873534Y-68511451D01*
X142873534Y-68807107D01*
X143330757Y-68807107D01*
X143330757Y-68760212D01*
X143444330Y-68760212D01*
X143444330Y-69041580D01*
X143444378Y-69072773D01*
X143445108Y-69159275D01*
X143446714Y-69235164D01*
X143450217Y-69319839D01*
X143456786Y-69399152D01*
X143468111Y-69456136D01*
X143496644Y-69528599D01*
X143536287Y-69591493D01*
X143582304Y-69642576D01*
X143642428Y-69688768D01*
X143712508Y-69724483D01*
X143733217Y-69732340D01*
X143805689Y-69752948D01*
X143883455Y-69764969D01*
X143957972Y-69768447D01*
X143984591Y-69768038D01*
X144060737Y-69761904D01*
X144138819Y-69746455D01*
X144143042Y-69745000D01*
X144603872Y-69745000D01*
X144990020Y-69745000D01*
X144978297Y-68976367D01*
X145195184Y-69745000D01*
X145595987Y-69745000D01*
X145595987Y-69440184D01*
X145741067Y-69440184D01*
X145741067Y-69745000D01*
X146299773Y-69745000D01*
X146381831Y-69743637D01*
X146458596Y-69738929D01*
X146535711Y-69727780D01*
X146604850Y-69705337D01*
X146670167Y-69665498D01*
X146717062Y-69612192D01*
X146747103Y-69542400D01*
X146759619Y-69471304D01*
X146765457Y-69397682D01*
X146768313Y-69318124D01*
X146769085Y-69238684D01*
X146769085Y-68655799D01*
X146768557Y-68572083D01*
X146766606Y-68488187D01*
X146762616Y-68410466D01*
X146762393Y-68408503D01*
X147196999Y-68408503D01*
X147453454Y-68408503D01*
X147453454Y-69745000D01*
X147910676Y-69745000D01*
X147910676Y-68713318D01*
X148238206Y-68713318D01*
X148238206Y-69745000D01*
X148695429Y-69745000D01*
X148695429Y-68994685D01*
X148716563Y-68995365D01*
X148785554Y-69022529D01*
X148788828Y-69028648D01*
X148801708Y-69103095D01*
X148803872Y-69180432D01*
X148803872Y-69745000D01*
X149230321Y-69745000D01*
X149230321Y-69294738D01*
X149230309Y-69282205D01*
X149229611Y-69203032D01*
X149227115Y-69123237D01*
X149218963Y-69045244D01*
X149203931Y-69005691D01*
X149161078Y-68942662D01*
X149123532Y-68911027D01*
X149055526Y-68882038D01*
X148979727Y-68865359D01*
X149047825Y-68859841D01*
X149121570Y-68838419D01*
X149179030Y-68792452D01*
X149199015Y-68755417D01*
X149219051Y-68681342D01*
X149227866Y-68604154D01*
X149230321Y-68523541D01*
X149230043Y-68496884D01*
X149225878Y-68422356D01*
X149214704Y-68345727D01*
X149193603Y-68271762D01*
X149159246Y-68205903D01*
X149111046Y-68150412D01*
X149048770Y-68106645D01*
X148976796Y-68080973D01*
X148945793Y-68075306D01*
X148865376Y-68066238D01*
X148788955Y-68061421D01*
X148714723Y-68058706D01*
X148630903Y-68057171D01*
X148556943Y-68056793D01*
X149265491Y-68056793D01*
X149574337Y-69132438D01*
X149574337Y-69745000D01*
X149999685Y-69745000D01*
X150758792Y-69745000D01*
X151170952Y-69745000D01*
X151170952Y-69393290D01*
X150758792Y-69393290D01*
X150758792Y-69745000D01*
X149999685Y-69745000D01*
X149999685Y-69132438D01*
X150145390Y-68642976D01*
X150730949Y-68642976D01*
X151170952Y-68642976D01*
X151170952Y-68538196D01*
X151170998Y-68521961D01*
X151172887Y-68446587D01*
X151182676Y-68371866D01*
X151233234Y-68338161D01*
X151274267Y-68363806D01*
X151282156Y-68401292D01*
X151285258Y-68476280D01*
X151285258Y-68744459D01*
X151285063Y-68781507D01*
X151282873Y-68857700D01*
X151272801Y-68935701D01*
X151217847Y-68971238D01*
X151171493Y-68929908D01*
X151161060Y-68854002D01*
X150758792Y-68854002D01*
X150758792Y-69346395D01*
X151170952Y-69346395D01*
X151170952Y-69187027D01*
X151174533Y-69192504D01*
X151233128Y-69244668D01*
X151303997Y-69269011D01*
X151384909Y-69276053D01*
X151457008Y-69269613D01*
X151529375Y-69247653D01*
X151594469Y-69210108D01*
X151630581Y-69180132D01*
X151678537Y-69124259D01*
X151710607Y-69057334D01*
X151712252Y-69051854D01*
X151727923Y-68977897D01*
X151735236Y-68904696D01*
X151737351Y-68829822D01*
X151737351Y-68626489D01*
X151737110Y-68592921D01*
X151734104Y-68511685D01*
X151726618Y-68434692D01*
X151709874Y-68355746D01*
X151698574Y-68323460D01*
X151666314Y-68256336D01*
X151623412Y-68193080D01*
X151591149Y-68157429D01*
X151533052Y-68111765D01*
X151463311Y-68075478D01*
X151457005Y-68072885D01*
X151383438Y-68049803D01*
X151309871Y-68037460D01*
X151229937Y-68033346D01*
X151152096Y-68037150D01*
X151070735Y-68050814D01*
X150997479Y-68074416D01*
X150924755Y-68112847D01*
X150910108Y-68122889D01*
X150852306Y-68170664D01*
X150803648Y-68228710D01*
X150769050Y-68298593D01*
X150760601Y-68327216D01*
X150745441Y-68406685D01*
X150737337Y-68482920D01*
X150732958Y-68558311D01*
X150730949Y-68642976D01*
X150145390Y-68642976D01*
X150319888Y-68056793D01*
X149896004Y-68056793D01*
X149880275Y-68130696D01*
X149861015Y-68225567D01*
X149843713Y-68316248D01*
X149828368Y-68402739D01*
X149814982Y-68485039D01*
X149803553Y-68563149D01*
X149794082Y-68637069D01*
X149784996Y-68723576D01*
X149784925Y-68712787D01*
X149780546Y-68634443D01*
X149771721Y-68551327D01*
X149761274Y-68473166D01*
X149747816Y-68384632D01*
X149735746Y-68311424D01*
X149721983Y-68232382D01*
X149706526Y-68147505D01*
X149689375Y-68056793D01*
X149265491Y-68056793D01*
X148556943Y-68056793D01*
X148238206Y-68056793D01*
X148238206Y-68713318D01*
X147910676Y-68713318D01*
X147910676Y-68408503D01*
X148168230Y-68408503D01*
X148168230Y-68056793D01*
X147196999Y-68056793D01*
X147196999Y-68408503D01*
X146762393Y-68408503D01*
X146754064Y-68335230D01*
X146750917Y-68319834D01*
X146723204Y-68246718D01*
X146679326Y-68184288D01*
X146641504Y-68148852D01*
X146577911Y-68111251D01*
X146506402Y-68086468D01*
X146466079Y-68077919D01*
X146393007Y-68068385D01*
X146314941Y-68062473D01*
X146239005Y-68059140D01*
X146153175Y-68057257D01*
X146077390Y-68056793D01*
X145741067Y-68056793D01*
X145741067Y-69440184D01*
X145595987Y-69440184D01*
X145595987Y-68056793D01*
X145209839Y-68056793D01*
X145221563Y-68818098D01*
X144986723Y-68056793D01*
X144603872Y-68056793D01*
X144603872Y-69745000D01*
X144143042Y-69745000D01*
X144210031Y-69721919D01*
X144273672Y-69688602D01*
X144333595Y-69642698D01*
X144382955Y-69587096D01*
X144411760Y-69542079D01*
X144442775Y-69470604D01*
X144459159Y-69394389D01*
X144463267Y-69350060D01*
X144467423Y-69275288D01*
X144469820Y-69195173D01*
X144470953Y-69115592D01*
X144471249Y-69041580D01*
X144471249Y-68760212D01*
X144471200Y-68729020D01*
X144470470Y-68642518D01*
X144468864Y-68566629D01*
X144465361Y-68481953D01*
X144458792Y-68402641D01*
X144447468Y-68345685D01*
X144418934Y-68273351D01*
X144379291Y-68210666D01*
X144333274Y-68159425D01*
X144273150Y-68113226D01*
X144203070Y-68077676D01*
X144182364Y-68069753D01*
X144109950Y-68048974D01*
X144032312Y-68036852D01*
X143957972Y-68033346D01*
X143931285Y-68033758D01*
X143854932Y-68039940D01*
X143776622Y-68055511D01*
X143705181Y-68080240D01*
X143641733Y-68113363D01*
X143581940Y-68159138D01*
X143532623Y-68214696D01*
X143503818Y-68259713D01*
X143472803Y-68331188D01*
X143456420Y-68407404D01*
X143452311Y-68451732D01*
X143449399Y-68504124D01*
X143448155Y-68526505D01*
X143445758Y-68606619D01*
X143444625Y-68686201D01*
X143444330Y-68760212D01*
X143330757Y-68760212D01*
X143330757Y-68639312D01*
X143330599Y-68610749D01*
X143328238Y-68530708D01*
X143321902Y-68448039D01*
X143309938Y-68367685D01*
X143290457Y-68295296D01*
X143282131Y-68274604D01*
X143243262Y-68210376D01*
X143187291Y-68153447D01*
X143122295Y-68108450D01*
X143106095Y-68099356D01*
X143036028Y-68068844D01*
X142957535Y-68047721D01*
X142881940Y-68036940D01*
X142799895Y-68033346D01*
X142773185Y-68033771D01*
X142696494Y-68040146D01*
X142617332Y-68056203D01*
X142544539Y-68081706D01*
X142485864Y-68111777D01*
X142424383Y-68156324D01*
X142370150Y-68214696D01*
X142348296Y-68246527D01*
X142313143Y-68317084D01*
X142294678Y-68389818D01*
X142289825Y-68433741D01*
X142284959Y-68510964D01*
X142282818Y-68585004D01*
X142282222Y-68658729D01*
X141879588Y-68658729D01*
X141879588Y-68408503D01*
X142169382Y-68408503D01*
X142169382Y-68056793D01*
X141422365Y-68056793D01*
X141422365Y-69745000D01*
X141007771Y-69745000D01*
X141033924Y-69738732D01*
X141105826Y-69710928D01*
X141168575Y-69676165D01*
X141228186Y-69627694D01*
X141271789Y-69567313D01*
X141288634Y-69525246D01*
X141305521Y-69449883D01*
X141312952Y-69376662D01*
X141315020Y-69303164D01*
X141314341Y-69258452D01*
X141308906Y-69176081D01*
X141295695Y-69091864D01*
X141275086Y-69020444D01*
X141237718Y-68947424D01*
X141186152Y-68887730D01*
X141129806Y-68837219D01*
X141071281Y-68791368D01*
X141002237Y-68742100D01*
X140939428Y-68700226D01*
X140869888Y-68656165D01*
X140863805Y-68652387D01*
X140802754Y-68610682D01*
X140751186Y-68558346D01*
X140737428Y-68522113D01*
X140729937Y-68446971D01*
X140730088Y-68436532D01*
X140747156Y-68364173D01*
X140797348Y-68338161D01*
X140839846Y-68357944D01*
X140848612Y-68387136D01*
X140852669Y-68460526D01*
X140852669Y-68596081D01*
X141279117Y-68596081D01*
X141279117Y-68518412D01*
X141278133Y-68458375D01*
X141273450Y-68383790D01*
X141261761Y-68304124D01*
X141238817Y-68231549D01*
X141201622Y-68175908D01*
X141144946Y-68127367D01*
X141076517Y-68089399D01*
X141020776Y-68067558D01*
X140942153Y-68047359D01*
X140865698Y-68036849D01*
X140783060Y-68033346D01*
X140744471Y-68034136D01*
X140662796Y-68041690D01*
X140588250Y-68057242D01*
X140513782Y-68083904D01*
X140455590Y-68115296D01*
X140397690Y-68162243D01*
X140351116Y-68224221D01*
X140328997Y-68275604D01*
X140311667Y-68348518D01*
X140302977Y-68426759D01*
X140300558Y-68505589D01*
X140133891Y-68505589D01*
X140133891Y-67866679D01*
X151904018Y-67866679D01*
X151904018Y-69935114D01*
G37*
D11*
G36*
X120872622Y-96048807D02*
G01*
X120921074Y-96064836D01*
X120933872Y-96089383D01*
X120938904Y-96138353D01*
X120938904Y-96228967D01*
X120937667Y-96260147D01*
X120923272Y-96309811D01*
X120916643Y-96316368D01*
X120868073Y-96329106D01*
X120846824Y-96328374D01*
X120846824Y-96047739D01*
X120872622Y-96048807D01*
G37*
G36*
X122555528Y-97096742D02*
G01*
X120446530Y-97096742D01*
X120446530Y-96328374D01*
X120557641Y-96328374D01*
X120557641Y-96970000D01*
X120846824Y-96970000D01*
X120846824Y-96516685D01*
X120924494Y-96516685D01*
X120930381Y-96516660D01*
X120980192Y-96514180D01*
X121028831Y-96506667D01*
X121077878Y-96491039D01*
X121088591Y-96485990D01*
X121130011Y-96457259D01*
X121158722Y-96417034D01*
X121160075Y-96413956D01*
X121173749Y-96363826D01*
X121179330Y-96312482D01*
X121180704Y-96263405D01*
X121180704Y-96167662D01*
X121179796Y-96113954D01*
X121176657Y-96064295D01*
X121172350Y-96036015D01*
X121210746Y-96036015D01*
X121210746Y-96157159D01*
X121238101Y-96157159D01*
X121261087Y-96157373D01*
X121313238Y-96160165D01*
X121361933Y-96170837D01*
X121363652Y-96171689D01*
X121395882Y-96210648D01*
X121396651Y-96214352D01*
X121400645Y-96263039D01*
X121401929Y-96315370D01*
X121402233Y-96367452D01*
X121402233Y-96970000D01*
X121679937Y-96970000D01*
X121679937Y-96547948D01*
X121780321Y-96547948D01*
X121780321Y-96608276D01*
X121780454Y-96627316D01*
X121782458Y-96680648D01*
X121787834Y-96735684D01*
X121797985Y-96789108D01*
X121814515Y-96837131D01*
X121819003Y-96846209D01*
X121846972Y-96887335D01*
X121884148Y-96921352D01*
X121930530Y-96948262D01*
X121967542Y-96962823D01*
X122018702Y-96976289D01*
X122067550Y-96983295D01*
X122119574Y-96985631D01*
X122131397Y-96985533D01*
X122181766Y-96982658D01*
X122232294Y-96974797D01*
X122281263Y-96960474D01*
X122305136Y-96950276D01*
X122349734Y-96922937D01*
X122384577Y-96888422D01*
X122393454Y-96876508D01*
X122418151Y-96832764D01*
X122432937Y-96785840D01*
X122435628Y-96770999D01*
X122441177Y-96720070D01*
X122443699Y-96667367D01*
X122444417Y-96612184D01*
X122444417Y-96453182D01*
X122443497Y-96409302D01*
X122438669Y-96350437D01*
X122429701Y-96299919D01*
X122414008Y-96251530D01*
X122385554Y-96206008D01*
X122361606Y-96184095D01*
X122318310Y-96159726D01*
X122266165Y-96145558D01*
X122212386Y-96141528D01*
X122181471Y-96143388D01*
X122130421Y-96156114D01*
X122085283Y-96180895D01*
X122046057Y-96217732D01*
X122046057Y-96016475D01*
X122390195Y-96016475D01*
X122390195Y-95860160D01*
X121794731Y-95860160D01*
X121783007Y-96407264D01*
X122057780Y-96407264D01*
X122057909Y-96388405D01*
X122061444Y-96338632D01*
X122078297Y-96310788D01*
X122110537Y-96297843D01*
X122153768Y-96322023D01*
X122164432Y-96362398D01*
X122166957Y-96412393D01*
X122166957Y-96646378D01*
X122166511Y-96682234D01*
X122165768Y-96733612D01*
X122164515Y-96785596D01*
X122150837Y-96815638D01*
X122117620Y-96829316D01*
X122091278Y-96823688D01*
X122065352Y-96781688D01*
X122063999Y-96772181D01*
X122059917Y-96722601D01*
X122058254Y-96673290D01*
X122057780Y-96620732D01*
X122057780Y-96547948D01*
X121780321Y-96547948D01*
X121679937Y-96547948D01*
X121679937Y-95860160D01*
X121516294Y-95860160D01*
X121495887Y-95884324D01*
X121458088Y-95921068D01*
X121415554Y-95953399D01*
X121368286Y-95981318D01*
X121316283Y-96004824D01*
X121259545Y-96023917D01*
X121210746Y-96036015D01*
X121172350Y-96036015D01*
X121169225Y-96015498D01*
X121154130Y-95972465D01*
X121125994Y-95931479D01*
X121119759Y-95925120D01*
X121077009Y-95896063D01*
X121030495Y-95878478D01*
X121000106Y-95871341D01*
X120947651Y-95864185D01*
X120898028Y-95861037D01*
X120849023Y-95860160D01*
X120557641Y-95860160D01*
X120557641Y-96328374D01*
X120446530Y-96328374D01*
X120446530Y-95749049D01*
X122555528Y-95749049D01*
X122555528Y-97096742D01*
G37*
D10*
G36*
X137255379Y-93685114D02*
G01*
X132466839Y-93685114D01*
X132466839Y-93211288D01*
X132633506Y-93211288D01*
X132637020Y-93285806D01*
X132652753Y-93338423D01*
X132694467Y-93401098D01*
X132753524Y-93451036D01*
X132809921Y-93480528D01*
X132887764Y-93503635D01*
X132969755Y-93515221D01*
X133051378Y-93518447D01*
X133124505Y-93515729D01*
X133202283Y-93505969D01*
X133248868Y-93495000D01*
X133846022Y-93495000D01*
X134510607Y-93495000D01*
X134606409Y-93211288D01*
X134846347Y-93211288D01*
X134849860Y-93285806D01*
X134865593Y-93338423D01*
X134907307Y-93401098D01*
X134966364Y-93451036D01*
X135022761Y-93480528D01*
X135100604Y-93503635D01*
X135182596Y-93515221D01*
X135264218Y-93518447D01*
X135337345Y-93515729D01*
X135415123Y-93505969D01*
X135486719Y-93489111D01*
X135559874Y-93461660D01*
X135575089Y-93454359D01*
X135644641Y-93411755D01*
X135703317Y-93358990D01*
X135751116Y-93296064D01*
X135755348Y-93289156D01*
X135790987Y-93219456D01*
X135818968Y-93146115D01*
X135840596Y-93073150D01*
X135859560Y-92991981D01*
X135866087Y-92959748D01*
X135879413Y-92885640D01*
X135889760Y-92808918D01*
X135890656Y-92791580D01*
X136034682Y-92791580D01*
X136396650Y-92791580D01*
X136318614Y-93166737D01*
X136588258Y-93166737D01*
X136666294Y-92791580D01*
X137030094Y-92791580D01*
X137088712Y-92510212D01*
X136724912Y-92510212D01*
X136802581Y-92135055D01*
X136532937Y-92135055D01*
X136455268Y-92510212D01*
X136093300Y-92510212D01*
X136034682Y-92791580D01*
X135890656Y-92791580D01*
X135893978Y-92727339D01*
X135881908Y-92653827D01*
X135847387Y-92598178D01*
X135784455Y-92555275D01*
X135799644Y-92547438D01*
X135863457Y-92505243D01*
X135918911Y-92449762D01*
X135954786Y-92389827D01*
X135982150Y-92315516D01*
X136000610Y-92240935D01*
X136007870Y-92201629D01*
X136015667Y-92127887D01*
X136013433Y-92050059D01*
X135995939Y-91971932D01*
X135962508Y-91905345D01*
X135957146Y-91897839D01*
X135899129Y-91846371D01*
X135826312Y-91813845D01*
X135747517Y-91795260D01*
X135670303Y-91786324D01*
X135582588Y-91783346D01*
X135525115Y-91784731D01*
X135445259Y-91792004D01*
X135361731Y-91808368D01*
X135288581Y-91833217D01*
X135217690Y-91872006D01*
X135158362Y-91926228D01*
X135114301Y-91990201D01*
X135082367Y-92057315D01*
X135055817Y-92135762D01*
X135037805Y-92209794D01*
X135004832Y-92369528D01*
X135435676Y-92369528D01*
X135469382Y-92206130D01*
X135484487Y-92142386D01*
X135511880Y-92070942D01*
X135567934Y-92041266D01*
X135606769Y-92065812D01*
X135609241Y-92106754D01*
X135597609Y-92180484D01*
X135577093Y-92279403D01*
X135564232Y-92332505D01*
X135536793Y-92402868D01*
X135481106Y-92452327D01*
X135448376Y-92458123D01*
X135370954Y-92462448D01*
X135294260Y-92463318D01*
X135240771Y-92720872D01*
X135256743Y-92721231D01*
X135331137Y-92724588D01*
X135406001Y-92735893D01*
X135451796Y-92788649D01*
X135454892Y-92846357D01*
X135443370Y-92922006D01*
X135419190Y-93038143D01*
X135409392Y-93083717D01*
X135391460Y-93157047D01*
X135366067Y-93227187D01*
X135304518Y-93260526D01*
X135265683Y-93236713D01*
X135269150Y-93178422D01*
X135282536Y-93104455D01*
X135342986Y-92815027D01*
X134912142Y-92815027D01*
X134883199Y-92953147D01*
X134880194Y-92967690D01*
X134864824Y-93049332D01*
X134852655Y-93132405D01*
X134846347Y-93211288D01*
X134606409Y-93211288D01*
X135080669Y-91806793D01*
X134608060Y-91806793D01*
X134511706Y-92122233D01*
X134497458Y-92169558D01*
X134475892Y-92242505D01*
X134454095Y-92317802D01*
X134432066Y-92395451D01*
X134409805Y-92475449D01*
X134387312Y-92557799D01*
X134364588Y-92642498D01*
X134341631Y-92729549D01*
X134318443Y-92818950D01*
X134295023Y-92910702D01*
X134271371Y-93004804D01*
X134281610Y-92941778D01*
X134296728Y-92844276D01*
X134311556Y-92743220D01*
X134326095Y-92638609D01*
X134340343Y-92530443D01*
X134349681Y-92456357D01*
X134358890Y-92380691D01*
X134367971Y-92303446D01*
X134376922Y-92224620D01*
X134385745Y-92144214D01*
X134394439Y-92062229D01*
X134403004Y-91978664D01*
X134411441Y-91893518D01*
X134419748Y-91806793D01*
X133948604Y-91806793D01*
X133846022Y-93495000D01*
X133248868Y-93495000D01*
X133273879Y-93489111D01*
X133347034Y-93461660D01*
X133362249Y-93454359D01*
X133431801Y-93411755D01*
X133490477Y-93358990D01*
X133538276Y-93296064D01*
X133542508Y-93289156D01*
X133578147Y-93219456D01*
X133606128Y-93146115D01*
X133627756Y-93073150D01*
X133646720Y-92991981D01*
X133653247Y-92959748D01*
X133666572Y-92885640D01*
X133676919Y-92808918D01*
X133681138Y-92727339D01*
X133669068Y-92653827D01*
X133634547Y-92598178D01*
X133571615Y-92555275D01*
X133586804Y-92547438D01*
X133650617Y-92505243D01*
X133706071Y-92449762D01*
X133741946Y-92389827D01*
X133769310Y-92315516D01*
X133787770Y-92240935D01*
X133795030Y-92201629D01*
X133802827Y-92127887D01*
X133800593Y-92050059D01*
X133783099Y-91971932D01*
X133749668Y-91905345D01*
X133744306Y-91897839D01*
X133686289Y-91846371D01*
X133613472Y-91813845D01*
X133534677Y-91795260D01*
X133457463Y-91786324D01*
X133369748Y-91783346D01*
X133312275Y-91784731D01*
X133232419Y-91792004D01*
X133148891Y-91808368D01*
X133075741Y-91833217D01*
X133004849Y-91872006D01*
X132945521Y-91926228D01*
X132901461Y-91990201D01*
X132869527Y-92057315D01*
X132842977Y-92135762D01*
X132824965Y-92209794D01*
X132791992Y-92369528D01*
X133222836Y-92369528D01*
X133256542Y-92206130D01*
X133271646Y-92142386D01*
X133299040Y-92070942D01*
X133355094Y-92041266D01*
X133393928Y-92065812D01*
X133396401Y-92106754D01*
X133384769Y-92180484D01*
X133364253Y-92279403D01*
X133351391Y-92332505D01*
X133323953Y-92402868D01*
X133268265Y-92452327D01*
X133235536Y-92458123D01*
X133158114Y-92462448D01*
X133081420Y-92463318D01*
X133027930Y-92720872D01*
X133043903Y-92721231D01*
X133118297Y-92724588D01*
X133193161Y-92735893D01*
X133238956Y-92788649D01*
X133242052Y-92846357D01*
X133230530Y-92922006D01*
X133206350Y-93038143D01*
X133196552Y-93083717D01*
X133178620Y-93157047D01*
X133153227Y-93227187D01*
X133091678Y-93260526D01*
X133052843Y-93236713D01*
X133056310Y-93178422D01*
X133069696Y-93104455D01*
X133130146Y-92815027D01*
X132699302Y-92815027D01*
X132670359Y-92953147D01*
X132667354Y-92967690D01*
X132651984Y-93049332D01*
X132639815Y-93132405D01*
X132633506Y-93211288D01*
X132466839Y-93211288D01*
X132466839Y-91616679D01*
X137255379Y-91616679D01*
X137255379Y-93685114D01*
G37*
D11*
G36*
X155611920Y-87331952D02*
G01*
X155659176Y-87347131D01*
X155671820Y-87385090D01*
X155674319Y-87434082D01*
X155674319Y-87538129D01*
X155672673Y-87575500D01*
X155657466Y-87623126D01*
X155629562Y-87636620D01*
X155579553Y-87642421D01*
X155579553Y-87329790D01*
X155611920Y-87331952D01*
G37*
G36*
X155590269Y-86907998D02*
G01*
X155639637Y-86914089D01*
X155664549Y-86940711D01*
X155671228Y-86965335D01*
X155674319Y-87014717D01*
X155674216Y-87032800D01*
X155672075Y-87087239D01*
X155662595Y-87136106D01*
X155655994Y-87144290D01*
X155608374Y-87157110D01*
X155579553Y-87157843D01*
X155579553Y-86907739D01*
X155590269Y-86907998D01*
G37*
G36*
X157575974Y-87956742D02*
G01*
X154380584Y-87956742D01*
X154380584Y-86720160D01*
X154491695Y-86720160D01*
X154658757Y-87830000D01*
X155097662Y-87830000D01*
X155186711Y-87157843D01*
X155290369Y-87157843D01*
X155290369Y-87642421D01*
X155290369Y-87830000D01*
X155624982Y-87830000D01*
X155646349Y-87829921D01*
X155695716Y-87829041D01*
X155747322Y-87826694D01*
X155803173Y-87821374D01*
X155855792Y-87809972D01*
X155866100Y-87805916D01*
X155909527Y-87776621D01*
X155937857Y-87735722D01*
X155943925Y-87721193D01*
X155956440Y-87671833D01*
X155962129Y-87621187D01*
X155963747Y-87568415D01*
X155963747Y-87465101D01*
X155963607Y-87451705D01*
X155960241Y-87402528D01*
X155954121Y-87372533D01*
X156059002Y-87372533D01*
X156059108Y-87417122D01*
X156059543Y-87467235D01*
X156060504Y-87519121D01*
X156062234Y-87568282D01*
X156065840Y-87617264D01*
X156068735Y-87635292D01*
X156084897Y-87684313D01*
X156110537Y-87727906D01*
X156141095Y-87761531D01*
X156180716Y-87790539D01*
X156224598Y-87812903D01*
X156244016Y-87820573D01*
X156295765Y-87835276D01*
X156346254Y-87843042D01*
X156400453Y-87845631D01*
X156406063Y-87845604D01*
X156459586Y-87842370D01*
X156508435Y-87833745D01*
X156556769Y-87818032D01*
X156588352Y-87802629D01*
X156629602Y-87773515D01*
X156663503Y-87737187D01*
X156673135Y-87723857D01*
X156697482Y-87681113D01*
X156712351Y-87632896D01*
X156715587Y-87607105D01*
X156718831Y-87557894D01*
X156720258Y-87508049D01*
X156720655Y-87456796D01*
X156720655Y-87011542D01*
X156804187Y-87011542D01*
X156805621Y-87053185D01*
X156812280Y-87104064D01*
X156827145Y-87154668D01*
X156828592Y-87158140D01*
X156853096Y-87204555D01*
X156885031Y-87242351D01*
X156900779Y-87255555D01*
X156942942Y-87286496D01*
X156984410Y-87314473D01*
X157028157Y-87342735D01*
X157041307Y-87351104D01*
X157082388Y-87378052D01*
X157123907Y-87407341D01*
X157163224Y-87440921D01*
X157178520Y-87469569D01*
X157187965Y-87519057D01*
X157190090Y-87568660D01*
X157189412Y-87586972D01*
X157175924Y-87635582D01*
X157133182Y-87658053D01*
X157092882Y-87640223D01*
X157084115Y-87608405D01*
X157081646Y-87559378D01*
X157081646Y-87423579D01*
X156812979Y-87423579D01*
X156812979Y-87496364D01*
X156813599Y-87534124D01*
X156817171Y-87588735D01*
X156824985Y-87641633D01*
X156838381Y-87689804D01*
X156841777Y-87698198D01*
X156868371Y-87741022D01*
X156904168Y-87775044D01*
X156945847Y-87801667D01*
X156994714Y-87822919D01*
X157042693Y-87835971D01*
X157094945Y-87843527D01*
X157144173Y-87845631D01*
X157182913Y-87844317D01*
X157231708Y-87838478D01*
X157282698Y-87826326D01*
X157329553Y-87808262D01*
X157366128Y-87788356D01*
X157405851Y-87757396D01*
X157437020Y-87715450D01*
X157443546Y-87700631D01*
X157457005Y-87650001D01*
X157463123Y-87597801D01*
X157464863Y-87543258D01*
X157464668Y-87523516D01*
X157461734Y-87468444D01*
X157453862Y-87412072D01*
X157438997Y-87358037D01*
X157414794Y-87310495D01*
X157380829Y-87271386D01*
X157343634Y-87238167D01*
X157304964Y-87207939D01*
X157259318Y-87175398D01*
X157217777Y-87147699D01*
X157171772Y-87118520D01*
X157167611Y-87115940D01*
X157125748Y-87087283D01*
X157089951Y-87050621D01*
X157079599Y-87022678D01*
X157074808Y-86972463D01*
X157075136Y-86960300D01*
X157088241Y-86912135D01*
X157127564Y-86892107D01*
X157162002Y-86907983D01*
X157169365Y-86932043D01*
X157172260Y-86981500D01*
X157172260Y-87064054D01*
X157440928Y-87064054D01*
X157440928Y-87020090D01*
X157440296Y-86980606D01*
X157437287Y-86931659D01*
X157429778Y-86879581D01*
X157415038Y-86832512D01*
X157393762Y-86799849D01*
X157354378Y-86765502D01*
X157310013Y-86740921D01*
X157273696Y-86726740D01*
X157222330Y-86713627D01*
X157172260Y-86706803D01*
X157118039Y-86704528D01*
X157092744Y-86705040D01*
X157039292Y-86709930D01*
X156990632Y-86719998D01*
X156942184Y-86737257D01*
X156908295Y-86755209D01*
X156866850Y-86788090D01*
X156836671Y-86828115D01*
X156824013Y-86856678D01*
X156811324Y-86908713D01*
X156805741Y-86959855D01*
X156804187Y-87011542D01*
X156720655Y-87011542D01*
X156720655Y-86720160D01*
X156431472Y-86720160D01*
X156431472Y-87531535D01*
X156430338Y-87584818D01*
X156423412Y-87636071D01*
X156387997Y-87658053D01*
X156356001Y-87638025D01*
X156349475Y-87595901D01*
X156348185Y-87545945D01*
X156348185Y-86720160D01*
X156059002Y-86720160D01*
X156059002Y-87372533D01*
X155954121Y-87372533D01*
X155949722Y-87350974D01*
X155927843Y-87303656D01*
X155925551Y-87300388D01*
X155888188Y-87265750D01*
X155843146Y-87243338D01*
X155791800Y-87228185D01*
X155823502Y-87219873D01*
X155870739Y-87201423D01*
X155912456Y-87169567D01*
X155931060Y-87132713D01*
X155940571Y-87084387D01*
X155942986Y-87034501D01*
X155942944Y-87025632D01*
X155940918Y-86975646D01*
X155934712Y-86924318D01*
X155922553Y-86874874D01*
X155899755Y-86826894D01*
X155870064Y-86790840D01*
X155831234Y-86760987D01*
X155785938Y-86741409D01*
X155781477Y-86740102D01*
X155729728Y-86729311D01*
X155678986Y-86723667D01*
X155627776Y-86720907D01*
X155578820Y-86720160D01*
X155290369Y-86720160D01*
X155290369Y-87157843D01*
X155186711Y-87157843D01*
X155244696Y-86720160D01*
X154939637Y-86720160D01*
X154919609Y-86924836D01*
X154918069Y-86940521D01*
X154911948Y-87004963D01*
X154907397Y-87055078D01*
X154902880Y-87106721D01*
X154898398Y-87159893D01*
X154893950Y-87214592D01*
X154889536Y-87270821D01*
X154885157Y-87328578D01*
X154880812Y-87387863D01*
X154876502Y-87448676D01*
X154872226Y-87511018D01*
X154869298Y-87468917D01*
X154864458Y-87403933D01*
X154859082Y-87336751D01*
X154853170Y-87267371D01*
X154846720Y-87195792D01*
X154842123Y-87146852D01*
X154837286Y-87096935D01*
X154832212Y-87046041D01*
X154826899Y-86994170D01*
X154821347Y-86941322D01*
X154815556Y-86887497D01*
X154809528Y-86832695D01*
X154803260Y-86776916D01*
X154796755Y-86720160D01*
X154491695Y-86720160D01*
X154380584Y-86720160D01*
X154380584Y-86593417D01*
X157575974Y-86593417D01*
X157575974Y-87956742D01*
G37*
X119682142Y-104839580D02*
X119634523Y-104887200D01*
X119634523Y-104887200D02*
X119491666Y-104934819D01*
X119491666Y-104934819D02*
X119396428Y-104934819D01*
X119396428Y-104934819D02*
X119253571Y-104887200D01*
X119253571Y-104887200D02*
X119158333Y-104791961D01*
X119158333Y-104791961D02*
X119110714Y-104696723D01*
X119110714Y-104696723D02*
X119063095Y-104506247D01*
X119063095Y-104506247D02*
X119063095Y-104363390D01*
X119063095Y-104363390D02*
X119110714Y-104172914D01*
X119110714Y-104172914D02*
X119158333Y-104077676D01*
X119158333Y-104077676D02*
X119253571Y-103982438D01*
X119253571Y-103982438D02*
X119396428Y-103934819D01*
X119396428Y-103934819D02*
X119491666Y-103934819D01*
X119491666Y-103934819D02*
X119634523Y-103982438D01*
X119634523Y-103982438D02*
X119682142Y-104030057D01*
X120063095Y-104030057D02*
X120110714Y-103982438D01*
X120110714Y-103982438D02*
X120205952Y-103934819D01*
X120205952Y-103934819D02*
X120444047Y-103934819D01*
X120444047Y-103934819D02*
X120539285Y-103982438D01*
X120539285Y-103982438D02*
X120586904Y-104030057D01*
X120586904Y-104030057D02*
X120634523Y-104125295D01*
X120634523Y-104125295D02*
X120634523Y-104220533D01*
X120634523Y-104220533D02*
X120586904Y-104363390D01*
X120586904Y-104363390D02*
X120015476Y-104934819D01*
X120015476Y-104934819D02*
X120634523Y-104934819D01*
X121253571Y-103934819D02*
X121348809Y-103934819D01*
X121348809Y-103934819D02*
X121444047Y-103982438D01*
X121444047Y-103982438D02*
X121491666Y-104030057D01*
X121491666Y-104030057D02*
X121539285Y-104125295D01*
X121539285Y-104125295D02*
X121586904Y-104315771D01*
X121586904Y-104315771D02*
X121586904Y-104553866D01*
X121586904Y-104553866D02*
X121539285Y-104744342D01*
X121539285Y-104744342D02*
X121491666Y-104839580D01*
X121491666Y-104839580D02*
X121444047Y-104887200D01*
X121444047Y-104887200D02*
X121348809Y-104934819D01*
X121348809Y-104934819D02*
X121253571Y-104934819D01*
X121253571Y-104934819D02*
X121158333Y-104887200D01*
X121158333Y-104887200D02*
X121110714Y-104839580D01*
X121110714Y-104839580D02*
X121063095Y-104744342D01*
X121063095Y-104744342D02*
X121015476Y-104553866D01*
X121015476Y-104553866D02*
X121015476Y-104315771D01*
X121015476Y-104315771D02*
X121063095Y-104125295D01*
X121063095Y-104125295D02*
X121110714Y-104030057D01*
X121110714Y-104030057D02*
X121158333Y-103982438D01*
X121158333Y-103982438D02*
X121253571Y-103934819D01*
X139739580Y-128042857D02*
X139787200Y-128090476D01*
X139787200Y-128090476D02*
X139834819Y-128233333D01*
X139834819Y-128233333D02*
X139834819Y-128328571D01*
X139834819Y-128328571D02*
X139787200Y-128471428D01*
X139787200Y-128471428D02*
X139691961Y-128566666D01*
X139691961Y-128566666D02*
X139596723Y-128614285D01*
X139596723Y-128614285D02*
X139406247Y-128661904D01*
X139406247Y-128661904D02*
X139263390Y-128661904D01*
X139263390Y-128661904D02*
X139072914Y-128614285D01*
X139072914Y-128614285D02*
X138977676Y-128566666D01*
X138977676Y-128566666D02*
X138882438Y-128471428D01*
X138882438Y-128471428D02*
X138834819Y-128328571D01*
X138834819Y-128328571D02*
X138834819Y-128233333D01*
X138834819Y-128233333D02*
X138882438Y-128090476D01*
X138882438Y-128090476D02*
X138930057Y-128042857D01*
X139834819Y-127090476D02*
X139834819Y-127661904D01*
X139834819Y-127376190D02*
X138834819Y-127376190D01*
X138834819Y-127376190D02*
X138977676Y-127471428D01*
X138977676Y-127471428D02*
X139072914Y-127566666D01*
X139072914Y-127566666D02*
X139120533Y-127661904D01*
X139834819Y-126614285D02*
X139834819Y-126423809D01*
X139834819Y-126423809D02*
X139787200Y-126328571D01*
X139787200Y-126328571D02*
X139739580Y-126280952D01*
X139739580Y-126280952D02*
X139596723Y-126185714D01*
X139596723Y-126185714D02*
X139406247Y-126138095D01*
X139406247Y-126138095D02*
X139025295Y-126138095D01*
X139025295Y-126138095D02*
X138930057Y-126185714D01*
X138930057Y-126185714D02*
X138882438Y-126233333D01*
X138882438Y-126233333D02*
X138834819Y-126328571D01*
X138834819Y-126328571D02*
X138834819Y-126519047D01*
X138834819Y-126519047D02*
X138882438Y-126614285D01*
X138882438Y-126614285D02*
X138930057Y-126661904D01*
X138930057Y-126661904D02*
X139025295Y-126709523D01*
X139025295Y-126709523D02*
X139263390Y-126709523D01*
X139263390Y-126709523D02*
X139358628Y-126661904D01*
X139358628Y-126661904D02*
X139406247Y-126614285D01*
X139406247Y-126614285D02*
X139453866Y-126519047D01*
X139453866Y-126519047D02*
X139453866Y-126328571D01*
X139453866Y-126328571D02*
X139406247Y-126233333D01*
X139406247Y-126233333D02*
X139358628Y-126185714D01*
X139358628Y-126185714D02*
X139263390Y-126138095D01*
X123539580Y-127842857D02*
X123587200Y-127890476D01*
X123587200Y-127890476D02*
X123634819Y-128033333D01*
X123634819Y-128033333D02*
X123634819Y-128128571D01*
X123634819Y-128128571D02*
X123587200Y-128271428D01*
X123587200Y-128271428D02*
X123491961Y-128366666D01*
X123491961Y-128366666D02*
X123396723Y-128414285D01*
X123396723Y-128414285D02*
X123206247Y-128461904D01*
X123206247Y-128461904D02*
X123063390Y-128461904D01*
X123063390Y-128461904D02*
X122872914Y-128414285D01*
X122872914Y-128414285D02*
X122777676Y-128366666D01*
X122777676Y-128366666D02*
X122682438Y-128271428D01*
X122682438Y-128271428D02*
X122634819Y-128128571D01*
X122634819Y-128128571D02*
X122634819Y-128033333D01*
X122634819Y-128033333D02*
X122682438Y-127890476D01*
X122682438Y-127890476D02*
X122730057Y-127842857D01*
X123634819Y-126890476D02*
X123634819Y-127461904D01*
X123634819Y-127176190D02*
X122634819Y-127176190D01*
X122634819Y-127176190D02*
X122777676Y-127271428D01*
X122777676Y-127271428D02*
X122872914Y-127366666D01*
X122872914Y-127366666D02*
X122920533Y-127461904D01*
X123063390Y-126319047D02*
X123015771Y-126414285D01*
X123015771Y-126414285D02*
X122968152Y-126461904D01*
X122968152Y-126461904D02*
X122872914Y-126509523D01*
X122872914Y-126509523D02*
X122825295Y-126509523D01*
X122825295Y-126509523D02*
X122730057Y-126461904D01*
X122730057Y-126461904D02*
X122682438Y-126414285D01*
X122682438Y-126414285D02*
X122634819Y-126319047D01*
X122634819Y-126319047D02*
X122634819Y-126128571D01*
X122634819Y-126128571D02*
X122682438Y-126033333D01*
X122682438Y-126033333D02*
X122730057Y-125985714D01*
X122730057Y-125985714D02*
X122825295Y-125938095D01*
X122825295Y-125938095D02*
X122872914Y-125938095D01*
X122872914Y-125938095D02*
X122968152Y-125985714D01*
X122968152Y-125985714D02*
X123015771Y-126033333D01*
X123015771Y-126033333D02*
X123063390Y-126128571D01*
X123063390Y-126128571D02*
X123063390Y-126319047D01*
X123063390Y-126319047D02*
X123111009Y-126414285D01*
X123111009Y-126414285D02*
X123158628Y-126461904D01*
X123158628Y-126461904D02*
X123253866Y-126509523D01*
X123253866Y-126509523D02*
X123444342Y-126509523D01*
X123444342Y-126509523D02*
X123539580Y-126461904D01*
X123539580Y-126461904D02*
X123587200Y-126414285D01*
X123587200Y-126414285D02*
X123634819Y-126319047D01*
X123634819Y-126319047D02*
X123634819Y-126128571D01*
X123634819Y-126128571D02*
X123587200Y-126033333D01*
X123587200Y-126033333D02*
X123539580Y-125985714D01*
X123539580Y-125985714D02*
X123444342Y-125938095D01*
X123444342Y-125938095D02*
X123253866Y-125938095D01*
X123253866Y-125938095D02*
X123158628Y-125985714D01*
X123158628Y-125985714D02*
X123111009Y-126033333D01*
X123111009Y-126033333D02*
X123063390Y-126128571D01*
X129932142Y-104939580D02*
X129884523Y-104987200D01*
X129884523Y-104987200D02*
X129741666Y-105034819D01*
X129741666Y-105034819D02*
X129646428Y-105034819D01*
X129646428Y-105034819D02*
X129503571Y-104987200D01*
X129503571Y-104987200D02*
X129408333Y-104891961D01*
X129408333Y-104891961D02*
X129360714Y-104796723D01*
X129360714Y-104796723D02*
X129313095Y-104606247D01*
X129313095Y-104606247D02*
X129313095Y-104463390D01*
X129313095Y-104463390D02*
X129360714Y-104272914D01*
X129360714Y-104272914D02*
X129408333Y-104177676D01*
X129408333Y-104177676D02*
X129503571Y-104082438D01*
X129503571Y-104082438D02*
X129646428Y-104034819D01*
X129646428Y-104034819D02*
X129741666Y-104034819D01*
X129741666Y-104034819D02*
X129884523Y-104082438D01*
X129884523Y-104082438D02*
X129932142Y-104130057D01*
X130884523Y-105034819D02*
X130313095Y-105034819D01*
X130598809Y-105034819D02*
X130598809Y-104034819D01*
X130598809Y-104034819D02*
X130503571Y-104177676D01*
X130503571Y-104177676D02*
X130408333Y-104272914D01*
X130408333Y-104272914D02*
X130313095Y-104320533D01*
X131217857Y-104034819D02*
X131884523Y-104034819D01*
X131884523Y-104034819D02*
X131455952Y-105034819D01*
X143166667Y-129533200D02*
X143309524Y-129580819D01*
X143309524Y-129580819D02*
X143547619Y-129580819D01*
X143547619Y-129580819D02*
X143642857Y-129533200D01*
X143642857Y-129533200D02*
X143690476Y-129485580D01*
X143690476Y-129485580D02*
X143738095Y-129390342D01*
X143738095Y-129390342D02*
X143738095Y-129295104D01*
X143738095Y-129295104D02*
X143690476Y-129199866D01*
X143690476Y-129199866D02*
X143642857Y-129152247D01*
X143642857Y-129152247D02*
X143547619Y-129104628D01*
X143547619Y-129104628D02*
X143357143Y-129057009D01*
X143357143Y-129057009D02*
X143261905Y-129009390D01*
X143261905Y-129009390D02*
X143214286Y-128961771D01*
X143214286Y-128961771D02*
X143166667Y-128866533D01*
X143166667Y-128866533D02*
X143166667Y-128771295D01*
X143166667Y-128771295D02*
X143214286Y-128676057D01*
X143214286Y-128676057D02*
X143261905Y-128628438D01*
X143261905Y-128628438D02*
X143357143Y-128580819D01*
X143357143Y-128580819D02*
X143595238Y-128580819D01*
X143595238Y-128580819D02*
X143738095Y-128628438D01*
X144071429Y-128580819D02*
X144309524Y-129580819D01*
X144309524Y-129580819D02*
X144500000Y-128866533D01*
X144500000Y-128866533D02*
X144690476Y-129580819D01*
X144690476Y-129580819D02*
X144928572Y-128580819D01*
X145357143Y-129580819D02*
X145547619Y-129580819D01*
X145547619Y-129580819D02*
X145642857Y-129533200D01*
X145642857Y-129533200D02*
X145690476Y-129485580D01*
X145690476Y-129485580D02*
X145785714Y-129342723D01*
X145785714Y-129342723D02*
X145833333Y-129152247D01*
X145833333Y-129152247D02*
X145833333Y-128771295D01*
X145833333Y-128771295D02*
X145785714Y-128676057D01*
X145785714Y-128676057D02*
X145738095Y-128628438D01*
X145738095Y-128628438D02*
X145642857Y-128580819D01*
X145642857Y-128580819D02*
X145452381Y-128580819D01*
X145452381Y-128580819D02*
X145357143Y-128628438D01*
X145357143Y-128628438D02*
X145309524Y-128676057D01*
X145309524Y-128676057D02*
X145261905Y-128771295D01*
X145261905Y-128771295D02*
X145261905Y-129009390D01*
X145261905Y-129009390D02*
X145309524Y-129104628D01*
X145309524Y-129104628D02*
X145357143Y-129152247D01*
X145357143Y-129152247D02*
X145452381Y-129199866D01*
X145452381Y-129199866D02*
X145642857Y-129199866D01*
X145642857Y-129199866D02*
X145738095Y-129152247D01*
X145738095Y-129152247D02*
X145785714Y-129104628D01*
X145785714Y-129104628D02*
X145833333Y-129009390D01*
X123666667Y-129533200D02*
X123809524Y-129580819D01*
X123809524Y-129580819D02*
X124047619Y-129580819D01*
X124047619Y-129580819D02*
X124142857Y-129533200D01*
X124142857Y-129533200D02*
X124190476Y-129485580D01*
X124190476Y-129485580D02*
X124238095Y-129390342D01*
X124238095Y-129390342D02*
X124238095Y-129295104D01*
X124238095Y-129295104D02*
X124190476Y-129199866D01*
X124190476Y-129199866D02*
X124142857Y-129152247D01*
X124142857Y-129152247D02*
X124047619Y-129104628D01*
X124047619Y-129104628D02*
X123857143Y-129057009D01*
X123857143Y-129057009D02*
X123761905Y-129009390D01*
X123761905Y-129009390D02*
X123714286Y-128961771D01*
X123714286Y-128961771D02*
X123666667Y-128866533D01*
X123666667Y-128866533D02*
X123666667Y-128771295D01*
X123666667Y-128771295D02*
X123714286Y-128676057D01*
X123714286Y-128676057D02*
X123761905Y-128628438D01*
X123761905Y-128628438D02*
X123857143Y-128580819D01*
X123857143Y-128580819D02*
X124095238Y-128580819D01*
X124095238Y-128580819D02*
X124238095Y-128628438D01*
X124571429Y-128580819D02*
X124809524Y-129580819D01*
X124809524Y-129580819D02*
X125000000Y-128866533D01*
X125000000Y-128866533D02*
X125190476Y-129580819D01*
X125190476Y-129580819D02*
X125428572Y-128580819D01*
X125952381Y-129009390D02*
X125857143Y-128961771D01*
X125857143Y-128961771D02*
X125809524Y-128914152D01*
X125809524Y-128914152D02*
X125761905Y-128818914D01*
X125761905Y-128818914D02*
X125761905Y-128771295D01*
X125761905Y-128771295D02*
X125809524Y-128676057D01*
X125809524Y-128676057D02*
X125857143Y-128628438D01*
X125857143Y-128628438D02*
X125952381Y-128580819D01*
X125952381Y-128580819D02*
X126142857Y-128580819D01*
X126142857Y-128580819D02*
X126238095Y-128628438D01*
X126238095Y-128628438D02*
X126285714Y-128676057D01*
X126285714Y-128676057D02*
X126333333Y-128771295D01*
X126333333Y-128771295D02*
X126333333Y-128818914D01*
X126333333Y-128818914D02*
X126285714Y-128914152D01*
X126285714Y-128914152D02*
X126238095Y-128961771D01*
X126238095Y-128961771D02*
X126142857Y-129009390D01*
X126142857Y-129009390D02*
X125952381Y-129009390D01*
X125952381Y-129009390D02*
X125857143Y-129057009D01*
X125857143Y-129057009D02*
X125809524Y-129104628D01*
X125809524Y-129104628D02*
X125761905Y-129199866D01*
X125761905Y-129199866D02*
X125761905Y-129390342D01*
X125761905Y-129390342D02*
X125809524Y-129485580D01*
X125809524Y-129485580D02*
X125857143Y-129533200D01*
X125857143Y-129533200D02*
X125952381Y-129580819D01*
X125952381Y-129580819D02*
X126142857Y-129580819D01*
X126142857Y-129580819D02*
X126238095Y-129533200D01*
X126238095Y-129533200D02*
X126285714Y-129485580D01*
X126285714Y-129485580D02*
X126333333Y-129390342D01*
X126333333Y-129390342D02*
X126333333Y-129199866D01*
X126333333Y-129199866D02*
X126285714Y-129104628D01*
X126285714Y-129104628D02*
X126238095Y-129057009D01*
X126238095Y-129057009D02*
X126142857Y-129009390D01*
X104166667Y-129533200D02*
X104309524Y-129580819D01*
X104309524Y-129580819D02*
X104547619Y-129580819D01*
X104547619Y-129580819D02*
X104642857Y-129533200D01*
X104642857Y-129533200D02*
X104690476Y-129485580D01*
X104690476Y-129485580D02*
X104738095Y-129390342D01*
X104738095Y-129390342D02*
X104738095Y-129295104D01*
X104738095Y-129295104D02*
X104690476Y-129199866D01*
X104690476Y-129199866D02*
X104642857Y-129152247D01*
X104642857Y-129152247D02*
X104547619Y-129104628D01*
X104547619Y-129104628D02*
X104357143Y-129057009D01*
X104357143Y-129057009D02*
X104261905Y-129009390D01*
X104261905Y-129009390D02*
X104214286Y-128961771D01*
X104214286Y-128961771D02*
X104166667Y-128866533D01*
X104166667Y-128866533D02*
X104166667Y-128771295D01*
X104166667Y-128771295D02*
X104214286Y-128676057D01*
X104214286Y-128676057D02*
X104261905Y-128628438D01*
X104261905Y-128628438D02*
X104357143Y-128580819D01*
X104357143Y-128580819D02*
X104595238Y-128580819D01*
X104595238Y-128580819D02*
X104738095Y-128628438D01*
X105071429Y-128580819D02*
X105309524Y-129580819D01*
X105309524Y-129580819D02*
X105500000Y-128866533D01*
X105500000Y-128866533D02*
X105690476Y-129580819D01*
X105690476Y-129580819D02*
X105928572Y-128580819D01*
X106214286Y-128580819D02*
X106880952Y-128580819D01*
X106880952Y-128580819D02*
X106452381Y-129580819D01*
X104166667Y-110033200D02*
X104309524Y-110080819D01*
X104309524Y-110080819D02*
X104547619Y-110080819D01*
X104547619Y-110080819D02*
X104642857Y-110033200D01*
X104642857Y-110033200D02*
X104690476Y-109985580D01*
X104690476Y-109985580D02*
X104738095Y-109890342D01*
X104738095Y-109890342D02*
X104738095Y-109795104D01*
X104738095Y-109795104D02*
X104690476Y-109699866D01*
X104690476Y-109699866D02*
X104642857Y-109652247D01*
X104642857Y-109652247D02*
X104547619Y-109604628D01*
X104547619Y-109604628D02*
X104357143Y-109557009D01*
X104357143Y-109557009D02*
X104261905Y-109509390D01*
X104261905Y-109509390D02*
X104214286Y-109461771D01*
X104214286Y-109461771D02*
X104166667Y-109366533D01*
X104166667Y-109366533D02*
X104166667Y-109271295D01*
X104166667Y-109271295D02*
X104214286Y-109176057D01*
X104214286Y-109176057D02*
X104261905Y-109128438D01*
X104261905Y-109128438D02*
X104357143Y-109080819D01*
X104357143Y-109080819D02*
X104595238Y-109080819D01*
X104595238Y-109080819D02*
X104738095Y-109128438D01*
X105071429Y-109080819D02*
X105309524Y-110080819D01*
X105309524Y-110080819D02*
X105500000Y-109366533D01*
X105500000Y-109366533D02*
X105690476Y-110080819D01*
X105690476Y-110080819D02*
X105928572Y-109080819D01*
X106738095Y-109414152D02*
X106738095Y-110080819D01*
X106500000Y-109033200D02*
X106261905Y-109747485D01*
X106261905Y-109747485D02*
X106880952Y-109747485D01*
X123666667Y-110033200D02*
X123809524Y-110080819D01*
X123809524Y-110080819D02*
X124047619Y-110080819D01*
X124047619Y-110080819D02*
X124142857Y-110033200D01*
X124142857Y-110033200D02*
X124190476Y-109985580D01*
X124190476Y-109985580D02*
X124238095Y-109890342D01*
X124238095Y-109890342D02*
X124238095Y-109795104D01*
X124238095Y-109795104D02*
X124190476Y-109699866D01*
X124190476Y-109699866D02*
X124142857Y-109652247D01*
X124142857Y-109652247D02*
X124047619Y-109604628D01*
X124047619Y-109604628D02*
X123857143Y-109557009D01*
X123857143Y-109557009D02*
X123761905Y-109509390D01*
X123761905Y-109509390D02*
X123714286Y-109461771D01*
X123714286Y-109461771D02*
X123666667Y-109366533D01*
X123666667Y-109366533D02*
X123666667Y-109271295D01*
X123666667Y-109271295D02*
X123714286Y-109176057D01*
X123714286Y-109176057D02*
X123761905Y-109128438D01*
X123761905Y-109128438D02*
X123857143Y-109080819D01*
X123857143Y-109080819D02*
X124095238Y-109080819D01*
X124095238Y-109080819D02*
X124238095Y-109128438D01*
X124571429Y-109080819D02*
X124809524Y-110080819D01*
X124809524Y-110080819D02*
X125000000Y-109366533D01*
X125000000Y-109366533D02*
X125190476Y-110080819D01*
X125190476Y-110080819D02*
X125428572Y-109080819D01*
X126285714Y-109080819D02*
X125809524Y-109080819D01*
X125809524Y-109080819D02*
X125761905Y-109557009D01*
X125761905Y-109557009D02*
X125809524Y-109509390D01*
X125809524Y-109509390D02*
X125904762Y-109461771D01*
X125904762Y-109461771D02*
X126142857Y-109461771D01*
X126142857Y-109461771D02*
X126238095Y-109509390D01*
X126238095Y-109509390D02*
X126285714Y-109557009D01*
X126285714Y-109557009D02*
X126333333Y-109652247D01*
X126333333Y-109652247D02*
X126333333Y-109890342D01*
X126333333Y-109890342D02*
X126285714Y-109985580D01*
X126285714Y-109985580D02*
X126238095Y-110033200D01*
X126238095Y-110033200D02*
X126142857Y-110080819D01*
X126142857Y-110080819D02*
X125904762Y-110080819D01*
X125904762Y-110080819D02*
X125809524Y-110033200D01*
X125809524Y-110033200D02*
X125761905Y-109985580D01*
X143166667Y-110033200D02*
X143309524Y-110080819D01*
X143309524Y-110080819D02*
X143547619Y-110080819D01*
X143547619Y-110080819D02*
X143642857Y-110033200D01*
X143642857Y-110033200D02*
X143690476Y-109985580D01*
X143690476Y-109985580D02*
X143738095Y-109890342D01*
X143738095Y-109890342D02*
X143738095Y-109795104D01*
X143738095Y-109795104D02*
X143690476Y-109699866D01*
X143690476Y-109699866D02*
X143642857Y-109652247D01*
X143642857Y-109652247D02*
X143547619Y-109604628D01*
X143547619Y-109604628D02*
X143357143Y-109557009D01*
X143357143Y-109557009D02*
X143261905Y-109509390D01*
X143261905Y-109509390D02*
X143214286Y-109461771D01*
X143214286Y-109461771D02*
X143166667Y-109366533D01*
X143166667Y-109366533D02*
X143166667Y-109271295D01*
X143166667Y-109271295D02*
X143214286Y-109176057D01*
X143214286Y-109176057D02*
X143261905Y-109128438D01*
X143261905Y-109128438D02*
X143357143Y-109080819D01*
X143357143Y-109080819D02*
X143595238Y-109080819D01*
X143595238Y-109080819D02*
X143738095Y-109128438D01*
X144071429Y-109080819D02*
X144309524Y-110080819D01*
X144309524Y-110080819D02*
X144500000Y-109366533D01*
X144500000Y-109366533D02*
X144690476Y-110080819D01*
X144690476Y-110080819D02*
X144928572Y-109080819D01*
X145738095Y-109080819D02*
X145547619Y-109080819D01*
X145547619Y-109080819D02*
X145452381Y-109128438D01*
X145452381Y-109128438D02*
X145404762Y-109176057D01*
X145404762Y-109176057D02*
X145309524Y-109318914D01*
X145309524Y-109318914D02*
X145261905Y-109509390D01*
X145261905Y-109509390D02*
X145261905Y-109890342D01*
X145261905Y-109890342D02*
X145309524Y-109985580D01*
X145309524Y-109985580D02*
X145357143Y-110033200D01*
X145357143Y-110033200D02*
X145452381Y-110080819D01*
X145452381Y-110080819D02*
X145642857Y-110080819D01*
X145642857Y-110080819D02*
X145738095Y-110033200D01*
X145738095Y-110033200D02*
X145785714Y-109985580D01*
X145785714Y-109985580D02*
X145833333Y-109890342D01*
X145833333Y-109890342D02*
X145833333Y-109652247D01*
X145833333Y-109652247D02*
X145785714Y-109557009D01*
X145785714Y-109557009D02*
X145738095Y-109509390D01*
X145738095Y-109509390D02*
X145642857Y-109461771D01*
X145642857Y-109461771D02*
X145452381Y-109461771D01*
X145452381Y-109461771D02*
X145357143Y-109509390D01*
X145357143Y-109509390D02*
X145309524Y-109557009D01*
X145309524Y-109557009D02*
X145261905Y-109652247D01*
D12*
G36*
X106163780Y-87055548D02*
G01*
X106216595Y-87056710D01*
X106271441Y-87059129D01*
X106323664Y-87063361D01*
X106372191Y-87071036D01*
X106417781Y-87089697D01*
X106455542Y-87125573D01*
X106470865Y-87151636D01*
X106484466Y-87199650D01*
X106486794Y-87248949D01*
X106482595Y-87300024D01*
X106474363Y-87349701D01*
X106472575Y-87358510D01*
X106460155Y-87411183D01*
X106444329Y-87461421D01*
X106422099Y-87509277D01*
X106404920Y-87532899D01*
X106362911Y-87563172D01*
X106313512Y-87579656D01*
X106269609Y-87586388D01*
X106317342Y-87602700D01*
X106360387Y-87630431D01*
X106370482Y-87643297D01*
X106390222Y-87689338D01*
X106392708Y-87708510D01*
X106387291Y-87759414D01*
X106377962Y-87812008D01*
X106367553Y-87864347D01*
X106365841Y-87872641D01*
X106305025Y-88165000D01*
X106042219Y-88165000D01*
X106118912Y-87796437D01*
X106127794Y-87747350D01*
X106130921Y-87698585D01*
X106128193Y-87686039D01*
X106083578Y-87665807D01*
X106060293Y-87664790D01*
X105956246Y-88165000D01*
X105673413Y-88165000D01*
X105813199Y-87492843D01*
X106095953Y-87492843D01*
X106145584Y-87487596D01*
X106165562Y-87479410D01*
X106191573Y-87435372D01*
X106202931Y-87391482D01*
X106215876Y-87329689D01*
X106219918Y-87279172D01*
X106211968Y-87259591D01*
X106165110Y-87243331D01*
X106147976Y-87242739D01*
X106095953Y-87492843D01*
X105813199Y-87492843D01*
X105904222Y-87055160D01*
X106104501Y-87055160D01*
X106163780Y-87055548D01*
G37*
G36*
X106657467Y-87055160D02*
G01*
X107129344Y-87055160D01*
X107083671Y-87274002D01*
X106894627Y-87274002D01*
X106852373Y-87477212D01*
X107029205Y-87477212D01*
X106983775Y-87696053D01*
X106806944Y-87696053D01*
X106754920Y-87946158D01*
X106962526Y-87946158D01*
X106917097Y-88165000D01*
X106426658Y-88165000D01*
X106657467Y-87055160D01*
G37*
G36*
X107766574Y-87399054D02*
G01*
X107503768Y-87399054D01*
X107520865Y-87316500D01*
X107528274Y-87267043D01*
X107525995Y-87242983D01*
X107495708Y-87227107D01*
X107452966Y-87247135D01*
X107430988Y-87292989D01*
X107427565Y-87307463D01*
X107421734Y-87357678D01*
X107425855Y-87385621D01*
X107455832Y-87424509D01*
X107492045Y-87453520D01*
X107540081Y-87489763D01*
X107581761Y-87523692D01*
X107623386Y-87561353D01*
X107660380Y-87601080D01*
X107689637Y-87645495D01*
X107703520Y-87693037D01*
X107706874Y-87747072D01*
X107702872Y-87803444D01*
X107694288Y-87858516D01*
X107690370Y-87878258D01*
X107679090Y-87926402D01*
X107664481Y-87974239D01*
X107643644Y-88023260D01*
X107627355Y-88050450D01*
X107591784Y-88089376D01*
X107552013Y-88118036D01*
X107508348Y-88140894D01*
X107503036Y-88143262D01*
X107453422Y-88161326D01*
X107401026Y-88173478D01*
X107352117Y-88179317D01*
X107313992Y-88180631D01*
X107259755Y-88177883D01*
X107210860Y-88169640D01*
X107162240Y-88153798D01*
X107129100Y-88136667D01*
X107087336Y-88103614D01*
X107057969Y-88061104D01*
X107047034Y-88024804D01*
X107044004Y-87971202D01*
X107048008Y-87917299D01*
X107056464Y-87861795D01*
X107062422Y-87831364D01*
X107077565Y-87758579D01*
X107340370Y-87758579D01*
X107312038Y-87894378D01*
X107304356Y-87943405D01*
X107306420Y-87975223D01*
X107342080Y-87993053D01*
X107387331Y-87971965D01*
X107388486Y-87970582D01*
X107410249Y-87926826D01*
X107416085Y-87903660D01*
X107424419Y-87854057D01*
X107425552Y-87804569D01*
X107416574Y-87775921D01*
X107381830Y-87739384D01*
X107341435Y-87705725D01*
X107304955Y-87677735D01*
X107263250Y-87645724D01*
X107222282Y-87612193D01*
X107185764Y-87577351D01*
X107159970Y-87533980D01*
X107147174Y-87489668D01*
X107143239Y-87439064D01*
X107147403Y-87388185D01*
X107154745Y-87346542D01*
X107167021Y-87294855D01*
X107183110Y-87243713D01*
X107203838Y-87196287D01*
X107224599Y-87163115D01*
X107258836Y-87126153D01*
X107301096Y-87095193D01*
X107346476Y-87072257D01*
X107397543Y-87054998D01*
X107447296Y-87044930D01*
X107500643Y-87040040D01*
X107525506Y-87039528D01*
X107578079Y-87041803D01*
X107631239Y-87049799D01*
X107682874Y-87065437D01*
X107705757Y-87075921D01*
X107747283Y-87103163D01*
X107779168Y-87141088D01*
X107789533Y-87167512D01*
X107793986Y-87219764D01*
X107789708Y-87273199D01*
X107781866Y-87323201D01*
X107775611Y-87355090D01*
X107766574Y-87399054D01*
G37*
G36*
X107962701Y-87055160D02*
G01*
X108434578Y-87055160D01*
X108388905Y-87274002D01*
X108199861Y-87274002D01*
X108157607Y-87477212D01*
X108334438Y-87477212D01*
X108289009Y-87696053D01*
X108112177Y-87696053D01*
X108060154Y-87946158D01*
X108267760Y-87946158D01*
X108222331Y-88165000D01*
X107731891Y-88165000D01*
X107962701Y-87055160D01*
G37*
G36*
X109095255Y-87055160D02*
G01*
X109049581Y-87274002D01*
X108881542Y-87274002D01*
X108696406Y-88165000D01*
X108413573Y-88165000D01*
X108598709Y-87274002D01*
X108431403Y-87274002D01*
X108477076Y-87055160D01*
X109095255Y-87055160D01*
G37*
D11*
X139395833Y-88954819D02*
X139062500Y-88478628D01*
X138824405Y-88954819D02*
X138824405Y-87954819D01*
X138824405Y-87954819D02*
X139205357Y-87954819D01*
X139205357Y-87954819D02*
X139300595Y-88002438D01*
X139300595Y-88002438D02*
X139348214Y-88050057D01*
X139348214Y-88050057D02*
X139395833Y-88145295D01*
X139395833Y-88145295D02*
X139395833Y-88288152D01*
X139395833Y-88288152D02*
X139348214Y-88383390D01*
X139348214Y-88383390D02*
X139300595Y-88431009D01*
X139300595Y-88431009D02*
X139205357Y-88478628D01*
X139205357Y-88478628D02*
X138824405Y-88478628D01*
X139967262Y-88383390D02*
X139872024Y-88335771D01*
X139872024Y-88335771D02*
X139824405Y-88288152D01*
X139824405Y-88288152D02*
X139776786Y-88192914D01*
X139776786Y-88192914D02*
X139776786Y-88145295D01*
X139776786Y-88145295D02*
X139824405Y-88050057D01*
X139824405Y-88050057D02*
X139872024Y-88002438D01*
X139872024Y-88002438D02*
X139967262Y-87954819D01*
X139967262Y-87954819D02*
X140157738Y-87954819D01*
X140157738Y-87954819D02*
X140252976Y-88002438D01*
X140252976Y-88002438D02*
X140300595Y-88050057D01*
X140300595Y-88050057D02*
X140348214Y-88145295D01*
X140348214Y-88145295D02*
X140348214Y-88192914D01*
X140348214Y-88192914D02*
X140300595Y-88288152D01*
X140300595Y-88288152D02*
X140252976Y-88335771D01*
X140252976Y-88335771D02*
X140157738Y-88383390D01*
X140157738Y-88383390D02*
X139967262Y-88383390D01*
X139967262Y-88383390D02*
X139872024Y-88431009D01*
X139872024Y-88431009D02*
X139824405Y-88478628D01*
X139824405Y-88478628D02*
X139776786Y-88573866D01*
X139776786Y-88573866D02*
X139776786Y-88764342D01*
X139776786Y-88764342D02*
X139824405Y-88859580D01*
X139824405Y-88859580D02*
X139872024Y-88907200D01*
X139872024Y-88907200D02*
X139967262Y-88954819D01*
X139967262Y-88954819D02*
X140157738Y-88954819D01*
X140157738Y-88954819D02*
X140252976Y-88907200D01*
X140252976Y-88907200D02*
X140300595Y-88859580D01*
X140300595Y-88859580D02*
X140348214Y-88764342D01*
X140348214Y-88764342D02*
X140348214Y-88573866D01*
X140348214Y-88573866D02*
X140300595Y-88478628D01*
X140300595Y-88478628D02*
X140252976Y-88431009D01*
X140252976Y-88431009D02*
X140157738Y-88383390D01*
X113375595Y-77704819D02*
X113375595Y-78514342D01*
X113375595Y-78514342D02*
X113423214Y-78609580D01*
X113423214Y-78609580D02*
X113470833Y-78657200D01*
X113470833Y-78657200D02*
X113566071Y-78704819D01*
X113566071Y-78704819D02*
X113756547Y-78704819D01*
X113756547Y-78704819D02*
X113851785Y-78657200D01*
X113851785Y-78657200D02*
X113899404Y-78609580D01*
X113899404Y-78609580D02*
X113947023Y-78514342D01*
X113947023Y-78514342D02*
X113947023Y-77704819D01*
X114851785Y-78038152D02*
X114851785Y-78704819D01*
X114613690Y-77657200D02*
X114375595Y-78371485D01*
X114375595Y-78371485D02*
X114994642Y-78371485D01*
X139309580Y-70916666D02*
X139357200Y-70964285D01*
X139357200Y-70964285D02*
X139404819Y-71107142D01*
X139404819Y-71107142D02*
X139404819Y-71202380D01*
X139404819Y-71202380D02*
X139357200Y-71345237D01*
X139357200Y-71345237D02*
X139261961Y-71440475D01*
X139261961Y-71440475D02*
X139166723Y-71488094D01*
X139166723Y-71488094D02*
X138976247Y-71535713D01*
X138976247Y-71535713D02*
X138833390Y-71535713D01*
X138833390Y-71535713D02*
X138642914Y-71488094D01*
X138642914Y-71488094D02*
X138547676Y-71440475D01*
X138547676Y-71440475D02*
X138452438Y-71345237D01*
X138452438Y-71345237D02*
X138404819Y-71202380D01*
X138404819Y-71202380D02*
X138404819Y-71107142D01*
X138404819Y-71107142D02*
X138452438Y-70964285D01*
X138452438Y-70964285D02*
X138500057Y-70916666D01*
X138404819Y-70583332D02*
X138404819Y-69916666D01*
X138404819Y-69916666D02*
X139404819Y-70345237D01*
X94761905Y-132954819D02*
X94761905Y-131954819D01*
X94761905Y-131954819D02*
X95000000Y-131954819D01*
X95000000Y-131954819D02*
X95142857Y-132002438D01*
X95142857Y-132002438D02*
X95238095Y-132097676D01*
X95238095Y-132097676D02*
X95285714Y-132192914D01*
X95285714Y-132192914D02*
X95333333Y-132383390D01*
X95333333Y-132383390D02*
X95333333Y-132526247D01*
X95333333Y-132526247D02*
X95285714Y-132716723D01*
X95285714Y-132716723D02*
X95238095Y-132811961D01*
X95238095Y-132811961D02*
X95142857Y-132907200D01*
X95142857Y-132907200D02*
X95000000Y-132954819D01*
X95000000Y-132954819D02*
X94761905Y-132954819D01*
X96190476Y-131954819D02*
X96000000Y-131954819D01*
X96000000Y-131954819D02*
X95904762Y-132002438D01*
X95904762Y-132002438D02*
X95857143Y-132050057D01*
X95857143Y-132050057D02*
X95761905Y-132192914D01*
X95761905Y-132192914D02*
X95714286Y-132383390D01*
X95714286Y-132383390D02*
X95714286Y-132764342D01*
X95714286Y-132764342D02*
X95761905Y-132859580D01*
X95761905Y-132859580D02*
X95809524Y-132907200D01*
X95809524Y-132907200D02*
X95904762Y-132954819D01*
X95904762Y-132954819D02*
X96095238Y-132954819D01*
X96095238Y-132954819D02*
X96190476Y-132907200D01*
X96190476Y-132907200D02*
X96238095Y-132859580D01*
X96238095Y-132859580D02*
X96285714Y-132764342D01*
X96285714Y-132764342D02*
X96285714Y-132526247D01*
X96285714Y-132526247D02*
X96238095Y-132431009D01*
X96238095Y-132431009D02*
X96190476Y-132383390D01*
X96190476Y-132383390D02*
X96095238Y-132335771D01*
X96095238Y-132335771D02*
X95904762Y-132335771D01*
X95904762Y-132335771D02*
X95809524Y-132383390D01*
X95809524Y-132383390D02*
X95761905Y-132431009D01*
X95761905Y-132431009D02*
X95714286Y-132526247D01*
X128109580Y-75916666D02*
X128157200Y-75964285D01*
X128157200Y-75964285D02*
X128204819Y-76107142D01*
X128204819Y-76107142D02*
X128204819Y-76202380D01*
X128204819Y-76202380D02*
X128157200Y-76345237D01*
X128157200Y-76345237D02*
X128061961Y-76440475D01*
X128061961Y-76440475D02*
X127966723Y-76488094D01*
X127966723Y-76488094D02*
X127776247Y-76535713D01*
X127776247Y-76535713D02*
X127633390Y-76535713D01*
X127633390Y-76535713D02*
X127442914Y-76488094D01*
X127442914Y-76488094D02*
X127347676Y-76440475D01*
X127347676Y-76440475D02*
X127252438Y-76345237D01*
X127252438Y-76345237D02*
X127204819Y-76202380D01*
X127204819Y-76202380D02*
X127204819Y-76107142D01*
X127204819Y-76107142D02*
X127252438Y-75964285D01*
X127252438Y-75964285D02*
X127300057Y-75916666D01*
X127204819Y-75059523D02*
X127204819Y-75249999D01*
X127204819Y-75249999D02*
X127252438Y-75345237D01*
X127252438Y-75345237D02*
X127300057Y-75392856D01*
X127300057Y-75392856D02*
X127442914Y-75488094D01*
X127442914Y-75488094D02*
X127633390Y-75535713D01*
X127633390Y-75535713D02*
X128014342Y-75535713D01*
X128014342Y-75535713D02*
X128109580Y-75488094D01*
X128109580Y-75488094D02*
X128157200Y-75440475D01*
X128157200Y-75440475D02*
X128204819Y-75345237D01*
X128204819Y-75345237D02*
X128204819Y-75154761D01*
X128204819Y-75154761D02*
X128157200Y-75059523D01*
X128157200Y-75059523D02*
X128109580Y-75011904D01*
X128109580Y-75011904D02*
X128014342Y-74964285D01*
X128014342Y-74964285D02*
X127776247Y-74964285D01*
X127776247Y-74964285D02*
X127681009Y-75011904D01*
X127681009Y-75011904D02*
X127633390Y-75059523D01*
X127633390Y-75059523D02*
X127585771Y-75154761D01*
X127585771Y-75154761D02*
X127585771Y-75345237D01*
X127585771Y-75345237D02*
X127633390Y-75440475D01*
X127633390Y-75440475D02*
X127681009Y-75488094D01*
X127681009Y-75488094D02*
X127776247Y-75535713D01*
X133285714Y-89054819D02*
X133285714Y-88054819D01*
X133285714Y-88054819D02*
X133523809Y-88054819D01*
X133523809Y-88054819D02*
X133666666Y-88102438D01*
X133666666Y-88102438D02*
X133761904Y-88197676D01*
X133761904Y-88197676D02*
X133809523Y-88292914D01*
X133809523Y-88292914D02*
X133857142Y-88483390D01*
X133857142Y-88483390D02*
X133857142Y-88626247D01*
X133857142Y-88626247D02*
X133809523Y-88816723D01*
X133809523Y-88816723D02*
X133761904Y-88911961D01*
X133761904Y-88911961D02*
X133666666Y-89007200D01*
X133666666Y-89007200D02*
X133523809Y-89054819D01*
X133523809Y-89054819D02*
X133285714Y-89054819D01*
X134809523Y-89054819D02*
X134238095Y-89054819D01*
X134523809Y-89054819D02*
X134523809Y-88054819D01*
X134523809Y-88054819D02*
X134428571Y-88197676D01*
X134428571Y-88197676D02*
X134333333Y-88292914D01*
X134333333Y-88292914D02*
X134238095Y-88340533D01*
X135666666Y-88388152D02*
X135666666Y-89054819D01*
X135428571Y-88007200D02*
X135190476Y-88721485D01*
X135190476Y-88721485D02*
X135809523Y-88721485D01*
X130354819Y-91116666D02*
X129878628Y-91449999D01*
X130354819Y-91688094D02*
X129354819Y-91688094D01*
X129354819Y-91688094D02*
X129354819Y-91307142D01*
X129354819Y-91307142D02*
X129402438Y-91211904D01*
X129402438Y-91211904D02*
X129450057Y-91164285D01*
X129450057Y-91164285D02*
X129545295Y-91116666D01*
X129545295Y-91116666D02*
X129688152Y-91116666D01*
X129688152Y-91116666D02*
X129783390Y-91164285D01*
X129783390Y-91164285D02*
X129831009Y-91211904D01*
X129831009Y-91211904D02*
X129878628Y-91307142D01*
X129878628Y-91307142D02*
X129878628Y-91688094D01*
X130354819Y-90164285D02*
X130354819Y-90735713D01*
X130354819Y-90449999D02*
X129354819Y-90449999D01*
X129354819Y-90449999D02*
X129497676Y-90545237D01*
X129497676Y-90545237D02*
X129592914Y-90640475D01*
X129592914Y-90640475D02*
X129640533Y-90735713D01*
X136457142Y-77909580D02*
X136409523Y-77957200D01*
X136409523Y-77957200D02*
X136266666Y-78004819D01*
X136266666Y-78004819D02*
X136171428Y-78004819D01*
X136171428Y-78004819D02*
X136028571Y-77957200D01*
X136028571Y-77957200D02*
X135933333Y-77861961D01*
X135933333Y-77861961D02*
X135885714Y-77766723D01*
X135885714Y-77766723D02*
X135838095Y-77576247D01*
X135838095Y-77576247D02*
X135838095Y-77433390D01*
X135838095Y-77433390D02*
X135885714Y-77242914D01*
X135885714Y-77242914D02*
X135933333Y-77147676D01*
X135933333Y-77147676D02*
X136028571Y-77052438D01*
X136028571Y-77052438D02*
X136171428Y-77004819D01*
X136171428Y-77004819D02*
X136266666Y-77004819D01*
X136266666Y-77004819D02*
X136409523Y-77052438D01*
X136409523Y-77052438D02*
X136457142Y-77100057D01*
X137409523Y-78004819D02*
X136838095Y-78004819D01*
X137123809Y-78004819D02*
X137123809Y-77004819D01*
X137123809Y-77004819D02*
X137028571Y-77147676D01*
X137028571Y-77147676D02*
X136933333Y-77242914D01*
X136933333Y-77242914D02*
X136838095Y-77290533D01*
X137742857Y-77004819D02*
X138361904Y-77004819D01*
X138361904Y-77004819D02*
X138028571Y-77385771D01*
X138028571Y-77385771D02*
X138171428Y-77385771D01*
X138171428Y-77385771D02*
X138266666Y-77433390D01*
X138266666Y-77433390D02*
X138314285Y-77481009D01*
X138314285Y-77481009D02*
X138361904Y-77576247D01*
X138361904Y-77576247D02*
X138361904Y-77814342D01*
X138361904Y-77814342D02*
X138314285Y-77909580D01*
X138314285Y-77909580D02*
X138266666Y-77957200D01*
X138266666Y-77957200D02*
X138171428Y-78004819D01*
X138171428Y-78004819D02*
X137885714Y-78004819D01*
X137885714Y-78004819D02*
X137790476Y-77957200D01*
X137790476Y-77957200D02*
X137742857Y-77909580D01*
X123004819Y-70966666D02*
X122528628Y-71299999D01*
X123004819Y-71538094D02*
X122004819Y-71538094D01*
X122004819Y-71538094D02*
X122004819Y-71157142D01*
X122004819Y-71157142D02*
X122052438Y-71061904D01*
X122052438Y-71061904D02*
X122100057Y-71014285D01*
X122100057Y-71014285D02*
X122195295Y-70966666D01*
X122195295Y-70966666D02*
X122338152Y-70966666D01*
X122338152Y-70966666D02*
X122433390Y-71014285D01*
X122433390Y-71014285D02*
X122481009Y-71061904D01*
X122481009Y-71061904D02*
X122528628Y-71157142D01*
X122528628Y-71157142D02*
X122528628Y-71538094D01*
X122338152Y-70109523D02*
X123004819Y-70109523D01*
X121957200Y-70347618D02*
X122671485Y-70585713D01*
X122671485Y-70585713D02*
X122671485Y-69966666D01*
X114261905Y-132954819D02*
X114261905Y-131954819D01*
X114261905Y-131954819D02*
X114500000Y-131954819D01*
X114500000Y-131954819D02*
X114642857Y-132002438D01*
X114642857Y-132002438D02*
X114738095Y-132097676D01*
X114738095Y-132097676D02*
X114785714Y-132192914D01*
X114785714Y-132192914D02*
X114833333Y-132383390D01*
X114833333Y-132383390D02*
X114833333Y-132526247D01*
X114833333Y-132526247D02*
X114785714Y-132716723D01*
X114785714Y-132716723D02*
X114738095Y-132811961D01*
X114738095Y-132811961D02*
X114642857Y-132907200D01*
X114642857Y-132907200D02*
X114500000Y-132954819D01*
X114500000Y-132954819D02*
X114261905Y-132954819D01*
X115166667Y-131954819D02*
X115833333Y-131954819D01*
X115833333Y-131954819D02*
X115404762Y-132954819D01*
D12*
G36*
X112323099Y-67305160D02*
G01*
X112169958Y-68041796D01*
X112158875Y-68093049D01*
X112147068Y-68142894D01*
X112133596Y-68192105D01*
X112125018Y-68217896D01*
X112102651Y-68262862D01*
X112070915Y-68305537D01*
X112055897Y-68322187D01*
X112018771Y-68355763D01*
X111976913Y-68383278D01*
X111934752Y-68403032D01*
X111884146Y-68418745D01*
X111834535Y-68427370D01*
X111781488Y-68430604D01*
X111775995Y-68430631D01*
X111723515Y-68428042D01*
X111670688Y-68419093D01*
X111623633Y-68403751D01*
X111610642Y-68397903D01*
X111565591Y-68370608D01*
X111530041Y-68334838D01*
X111516609Y-68312906D01*
X111499939Y-68265883D01*
X111495237Y-68216709D01*
X111496092Y-68202264D01*
X111502694Y-68153282D01*
X111511176Y-68104121D01*
X111520976Y-68052235D01*
X111530927Y-68002122D01*
X111540056Y-67957533D01*
X111675855Y-67305160D01*
X111958688Y-67305160D01*
X111786985Y-68130945D01*
X111777786Y-68180901D01*
X111775506Y-68223025D01*
X111802617Y-68243053D01*
X111841940Y-68221071D01*
X111858368Y-68173495D01*
X111870429Y-68121620D01*
X111871493Y-68116535D01*
X112040265Y-67305160D01*
X112323099Y-67305160D01*
G37*
G36*
X112972784Y-67649054D02*
G01*
X112709979Y-67649054D01*
X112727076Y-67566500D01*
X112734484Y-67517043D01*
X112732205Y-67492983D01*
X112701919Y-67477107D01*
X112659177Y-67497135D01*
X112637199Y-67542989D01*
X112633775Y-67557463D01*
X112627945Y-67607678D01*
X112632066Y-67635621D01*
X112662043Y-67674509D01*
X112698256Y-67703520D01*
X112746292Y-67739763D01*
X112787972Y-67773692D01*
X112829597Y-67811353D01*
X112866591Y-67851080D01*
X112895848Y-67895495D01*
X112909730Y-67943037D01*
X112913085Y-67997072D01*
X112909083Y-68053444D01*
X112900499Y-68108516D01*
X112896581Y-68128258D01*
X112885301Y-68176402D01*
X112870692Y-68224239D01*
X112849855Y-68273260D01*
X112833566Y-68300450D01*
X112797994Y-68339376D01*
X112758224Y-68368036D01*
X112714558Y-68390894D01*
X112709246Y-68393262D01*
X112659633Y-68411326D01*
X112607237Y-68423478D01*
X112558327Y-68429317D01*
X112520202Y-68430631D01*
X112465965Y-68427883D01*
X112417071Y-68419640D01*
X112368451Y-68403798D01*
X112335311Y-68386667D01*
X112293547Y-68353614D01*
X112264180Y-68311104D01*
X112253245Y-68274804D01*
X112250215Y-68221202D01*
X112254218Y-68167299D01*
X112262675Y-68111795D01*
X112268632Y-68081364D01*
X112283775Y-68008579D01*
X112546581Y-68008579D01*
X112518249Y-68144378D01*
X112510567Y-68193405D01*
X112512631Y-68225223D01*
X112548290Y-68243053D01*
X112593542Y-68221965D01*
X112594697Y-68220582D01*
X112616459Y-68176826D01*
X112622296Y-68153660D01*
X112630629Y-68104057D01*
X112631763Y-68054569D01*
X112622784Y-68025921D01*
X112588041Y-67989384D01*
X112547645Y-67955725D01*
X112511165Y-67927735D01*
X112469461Y-67895724D01*
X112428493Y-67862193D01*
X112391975Y-67827351D01*
X112366181Y-67783980D01*
X112353385Y-67739668D01*
X112349450Y-67689064D01*
X112353614Y-67638185D01*
X112360956Y-67596542D01*
X112373231Y-67544855D01*
X112389321Y-67493713D01*
X112410049Y-67446287D01*
X112430810Y-67413115D01*
X112465046Y-67376153D01*
X112507306Y-67345193D01*
X112552687Y-67322257D01*
X112603754Y-67304998D01*
X112653507Y-67294930D01*
X112706854Y-67290040D01*
X112731717Y-67289528D01*
X112784290Y-67291803D01*
X112837450Y-67299799D01*
X112889085Y-67315437D01*
X112911968Y-67325921D01*
X112953493Y-67353163D01*
X112985378Y-67391088D01*
X112995743Y-67417512D01*
X113000197Y-67469764D01*
X112995919Y-67523199D01*
X112988076Y-67573201D01*
X112981821Y-67605090D01*
X112972784Y-67649054D01*
G37*
G36*
X113506250Y-67306177D02*
G01*
X113561250Y-67309829D01*
X113612762Y-67317113D01*
X113649337Y-67326409D01*
X113695842Y-67350651D01*
X113730577Y-67389243D01*
X113742638Y-67411894D01*
X113754926Y-67459874D01*
X113756514Y-67509318D01*
X113751892Y-67560646D01*
X113743466Y-67610632D01*
X113741661Y-67619501D01*
X113728985Y-67669387D01*
X113709661Y-67717713D01*
X113683775Y-67754567D01*
X113640345Y-67784540D01*
X113591463Y-67803368D01*
X113553594Y-67813185D01*
X113600707Y-67828338D01*
X113643334Y-67853313D01*
X113671075Y-67888656D01*
X113683022Y-67940634D01*
X113681734Y-67993289D01*
X113674143Y-68043348D01*
X113672784Y-68050101D01*
X113651291Y-68153415D01*
X113638743Y-68206187D01*
X113622656Y-68256833D01*
X113602334Y-68302276D01*
X113591207Y-68320722D01*
X113557691Y-68359134D01*
X113516678Y-68386259D01*
X113495220Y-68394972D01*
X113447378Y-68405533D01*
X113393408Y-68411166D01*
X113343774Y-68413748D01*
X113286292Y-68414921D01*
X113265387Y-68415000D01*
X112938102Y-68415000D01*
X112977112Y-68227421D01*
X113260014Y-68227421D01*
X113309901Y-68221620D01*
X113339881Y-68208126D01*
X113363754Y-68163697D01*
X113374075Y-68123129D01*
X113395813Y-68019082D01*
X113403525Y-67970090D01*
X113398988Y-67932131D01*
X113349895Y-67916288D01*
X113324983Y-67914790D01*
X113260014Y-68227421D01*
X112977112Y-68227421D01*
X113077888Y-67742843D01*
X113360642Y-67742843D01*
X113388974Y-67742110D01*
X113436922Y-67730295D01*
X113446371Y-67721106D01*
X113465777Y-67672239D01*
X113477894Y-67623519D01*
X113483008Y-67599717D01*
X113490272Y-67550335D01*
X113488870Y-67525711D01*
X113470063Y-67499089D01*
X113420558Y-67492919D01*
X113412666Y-67492739D01*
X113360642Y-67742843D01*
X113077888Y-67742843D01*
X113168911Y-67305160D01*
X113451012Y-67305160D01*
X113506250Y-67306177D01*
G37*
G36*
X113623692Y-68524420D02*
G01*
X114399895Y-68524420D01*
X114386951Y-68586946D01*
X113610747Y-68586946D01*
X113623692Y-68524420D01*
G37*
G36*
X115051819Y-67306177D02*
G01*
X115106819Y-67309829D01*
X115158331Y-67317113D01*
X115194906Y-67326409D01*
X115241411Y-67350651D01*
X115276145Y-67389243D01*
X115288207Y-67411894D01*
X115300495Y-67459874D01*
X115302083Y-67509318D01*
X115297461Y-67560646D01*
X115289035Y-67610632D01*
X115287230Y-67619501D01*
X115274554Y-67669387D01*
X115255230Y-67717713D01*
X115229344Y-67754567D01*
X115185914Y-67784540D01*
X115137032Y-67803368D01*
X115099163Y-67813185D01*
X115146276Y-67828338D01*
X115188903Y-67853313D01*
X115216644Y-67888656D01*
X115228591Y-67940634D01*
X115227303Y-67993289D01*
X115219712Y-68043348D01*
X115218353Y-68050101D01*
X115196860Y-68153415D01*
X115184312Y-68206187D01*
X115168225Y-68256833D01*
X115147903Y-68302276D01*
X115136776Y-68320722D01*
X115103260Y-68359134D01*
X115062247Y-68386259D01*
X115040789Y-68394972D01*
X114992947Y-68405533D01*
X114938977Y-68411166D01*
X114889343Y-68413748D01*
X114831861Y-68414921D01*
X114810956Y-68415000D01*
X114483671Y-68415000D01*
X114522681Y-68227421D01*
X114805583Y-68227421D01*
X114855469Y-68221620D01*
X114885450Y-68208126D01*
X114909323Y-68163697D01*
X114919644Y-68123129D01*
X114941382Y-68019082D01*
X114949093Y-67970090D01*
X114944557Y-67932131D01*
X114895464Y-67916288D01*
X114870551Y-67914790D01*
X114805583Y-68227421D01*
X114522681Y-68227421D01*
X114623457Y-67742843D01*
X114906211Y-67742843D01*
X114934543Y-67742110D01*
X114982491Y-67730295D01*
X114991940Y-67721106D01*
X115011346Y-67672239D01*
X115023463Y-67623519D01*
X115028577Y-67599717D01*
X115035841Y-67550335D01*
X115034438Y-67525711D01*
X115015632Y-67499089D01*
X114966126Y-67492919D01*
X114958235Y-67492739D01*
X114906211Y-67742843D01*
X114623457Y-67742843D01*
X114714480Y-67305160D01*
X114996581Y-67305160D01*
X115051819Y-67306177D01*
G37*
G36*
X115862092Y-67292343D02*
G01*
X115914149Y-67301940D01*
X115960607Y-67318349D01*
X116003563Y-67343869D01*
X116039557Y-67380740D01*
X116054396Y-67404567D01*
X116073156Y-67452895D01*
X116079823Y-67504609D01*
X116078821Y-67529619D01*
X116072295Y-67581802D01*
X116064321Y-67630110D01*
X116055253Y-67679237D01*
X116044125Y-67735491D01*
X116037788Y-67766290D01*
X115998953Y-67953869D01*
X115988490Y-68003040D01*
X115976720Y-68055842D01*
X115964074Y-68108893D01*
X115951053Y-68158245D01*
X115942289Y-68187365D01*
X115923569Y-68233165D01*
X115897634Y-68276193D01*
X115867795Y-68312906D01*
X115829119Y-68348914D01*
X115784959Y-68378687D01*
X115740056Y-68400345D01*
X115691288Y-68416316D01*
X115639325Y-68426372D01*
X115589825Y-68430365D01*
X115572750Y-68430631D01*
X115520414Y-68427840D01*
X115468189Y-68418324D01*
X115421563Y-68402055D01*
X115378573Y-68376421D01*
X115342465Y-68339581D01*
X115327530Y-68315837D01*
X115308770Y-68267351D01*
X115302104Y-68215559D01*
X115302519Y-68205180D01*
X115579298Y-68205180D01*
X115579344Y-68220826D01*
X115610851Y-68243053D01*
X115653105Y-68217651D01*
X115669240Y-68170482D01*
X115681663Y-68118729D01*
X115686567Y-68095774D01*
X115790614Y-67595565D01*
X115799556Y-67546174D01*
X115802094Y-67498356D01*
X115771808Y-67477107D01*
X115734438Y-67494204D01*
X115714651Y-67541812D01*
X115703036Y-67590364D01*
X115701954Y-67595565D01*
X115596197Y-68103834D01*
X115586050Y-68155979D01*
X115579298Y-68205180D01*
X115302519Y-68205180D01*
X115303105Y-68190540D01*
X115309889Y-68138357D01*
X115317987Y-68090050D01*
X115327123Y-68040923D01*
X115338286Y-67984669D01*
X115344627Y-67953869D01*
X115383461Y-67766290D01*
X115393913Y-67717120D01*
X115405637Y-67664318D01*
X115418186Y-67611267D01*
X115431039Y-67561915D01*
X115439637Y-67532794D01*
X115458357Y-67486995D01*
X115484293Y-67443966D01*
X115514131Y-67407254D01*
X115552946Y-67371275D01*
X115597187Y-67341587D01*
X115642115Y-67320059D01*
X115690930Y-67303959D01*
X115743036Y-67293822D01*
X115792747Y-67289797D01*
X115809909Y-67289528D01*
X115862092Y-67292343D01*
G37*
G36*
X116627061Y-67292343D02*
G01*
X116679118Y-67301940D01*
X116725576Y-67318349D01*
X116768532Y-67343869D01*
X116804525Y-67380740D01*
X116819365Y-67404567D01*
X116838125Y-67452895D01*
X116844791Y-67504609D01*
X116843789Y-67529619D01*
X116837263Y-67581802D01*
X116829289Y-67630110D01*
X116820222Y-67679237D01*
X116809094Y-67735491D01*
X116802757Y-67766290D01*
X116763922Y-67953869D01*
X116753458Y-68003040D01*
X116741689Y-68055842D01*
X116729043Y-68108893D01*
X116716022Y-68158245D01*
X116707258Y-68187365D01*
X116688537Y-68233165D01*
X116662602Y-68276193D01*
X116632764Y-68312906D01*
X116594088Y-68348914D01*
X116549928Y-68378687D01*
X116505025Y-68400345D01*
X116456257Y-68416316D01*
X116404293Y-68426372D01*
X116354793Y-68430365D01*
X116337718Y-68430631D01*
X116285382Y-68427840D01*
X116233158Y-68418324D01*
X116186532Y-68402055D01*
X116143541Y-68376421D01*
X116107433Y-68339581D01*
X116092498Y-68315837D01*
X116073739Y-68267351D01*
X116067072Y-68215559D01*
X116067488Y-68205180D01*
X116344267Y-68205180D01*
X116344313Y-68220826D01*
X116375820Y-68243053D01*
X116418074Y-68217651D01*
X116434208Y-68170482D01*
X116446631Y-68118729D01*
X116451535Y-68095774D01*
X116555583Y-67595565D01*
X116564524Y-67546174D01*
X116567062Y-67498356D01*
X116536776Y-67477107D01*
X116499407Y-67494204D01*
X116479619Y-67541812D01*
X116468004Y-67590364D01*
X116466923Y-67595565D01*
X116361165Y-68103834D01*
X116351019Y-68155979D01*
X116344267Y-68205180D01*
X116067488Y-68205180D01*
X116068074Y-68190540D01*
X116074858Y-68138357D01*
X116082955Y-68090050D01*
X116092091Y-68040923D01*
X116103254Y-67984669D01*
X116109595Y-67953869D01*
X116148430Y-67766290D01*
X116158882Y-67717120D01*
X116170606Y-67664318D01*
X116183154Y-67611267D01*
X116196008Y-67561915D01*
X116204606Y-67532794D01*
X116223326Y-67486995D01*
X116249261Y-67443966D01*
X116279100Y-67407254D01*
X116317915Y-67371275D01*
X116362156Y-67341587D01*
X116407083Y-67320059D01*
X116455898Y-67303959D01*
X116508005Y-67293822D01*
X116557715Y-67289797D01*
X116574878Y-67289528D01*
X116627061Y-67292343D01*
G37*
G36*
X117587020Y-67305160D02*
G01*
X117541347Y-67524002D01*
X117373308Y-67524002D01*
X117188172Y-68415000D01*
X116905339Y-68415000D01*
X117090475Y-67524002D01*
X116923168Y-67524002D01*
X116968842Y-67305160D01*
X117587020Y-67305160D01*
G37*
G36*
X118072575Y-67305160D02*
G01*
X117841766Y-68415000D01*
X117570168Y-68415000D01*
X117695464Y-67812452D01*
X117705993Y-67760370D01*
X117715614Y-67708039D01*
X117721825Y-67659352D01*
X117721842Y-67655648D01*
X117696930Y-67615837D01*
X117647625Y-67604777D01*
X117595733Y-67602280D01*
X117578716Y-67602159D01*
X117551849Y-67602159D01*
X117577006Y-67481015D01*
X117627236Y-67468917D01*
X117675100Y-67453995D01*
X117731603Y-67431372D01*
X117784409Y-67404336D01*
X117833517Y-67372887D01*
X117878929Y-67337026D01*
X117912596Y-67305160D01*
X118072575Y-67305160D01*
G37*
D11*
X131683333Y-81259580D02*
X131635714Y-81307200D01*
X131635714Y-81307200D02*
X131492857Y-81354819D01*
X131492857Y-81354819D02*
X131397619Y-81354819D01*
X131397619Y-81354819D02*
X131254762Y-81307200D01*
X131254762Y-81307200D02*
X131159524Y-81211961D01*
X131159524Y-81211961D02*
X131111905Y-81116723D01*
X131111905Y-81116723D02*
X131064286Y-80926247D01*
X131064286Y-80926247D02*
X131064286Y-80783390D01*
X131064286Y-80783390D02*
X131111905Y-80592914D01*
X131111905Y-80592914D02*
X131159524Y-80497676D01*
X131159524Y-80497676D02*
X131254762Y-80402438D01*
X131254762Y-80402438D02*
X131397619Y-80354819D01*
X131397619Y-80354819D02*
X131492857Y-80354819D01*
X131492857Y-80354819D02*
X131635714Y-80402438D01*
X131635714Y-80402438D02*
X131683333Y-80450057D01*
X132159524Y-81354819D02*
X132350000Y-81354819D01*
X132350000Y-81354819D02*
X132445238Y-81307200D01*
X132445238Y-81307200D02*
X132492857Y-81259580D01*
X132492857Y-81259580D02*
X132588095Y-81116723D01*
X132588095Y-81116723D02*
X132635714Y-80926247D01*
X132635714Y-80926247D02*
X132635714Y-80545295D01*
X132635714Y-80545295D02*
X132588095Y-80450057D01*
X132588095Y-80450057D02*
X132540476Y-80402438D01*
X132540476Y-80402438D02*
X132445238Y-80354819D01*
X132445238Y-80354819D02*
X132254762Y-80354819D01*
X132254762Y-80354819D02*
X132159524Y-80402438D01*
X132159524Y-80402438D02*
X132111905Y-80450057D01*
X132111905Y-80450057D02*
X132064286Y-80545295D01*
X132064286Y-80545295D02*
X132064286Y-80783390D01*
X132064286Y-80783390D02*
X132111905Y-80878628D01*
X132111905Y-80878628D02*
X132159524Y-80926247D01*
X132159524Y-80926247D02*
X132254762Y-80973866D01*
X132254762Y-80973866D02*
X132445238Y-80973866D01*
X132445238Y-80973866D02*
X132540476Y-80926247D01*
X132540476Y-80926247D02*
X132588095Y-80878628D01*
X132588095Y-80878628D02*
X132635714Y-80783390D01*
X135309580Y-74142857D02*
X135357200Y-74190476D01*
X135357200Y-74190476D02*
X135404819Y-74333333D01*
X135404819Y-74333333D02*
X135404819Y-74428571D01*
X135404819Y-74428571D02*
X135357200Y-74571428D01*
X135357200Y-74571428D02*
X135261961Y-74666666D01*
X135261961Y-74666666D02*
X135166723Y-74714285D01*
X135166723Y-74714285D02*
X134976247Y-74761904D01*
X134976247Y-74761904D02*
X134833390Y-74761904D01*
X134833390Y-74761904D02*
X134642914Y-74714285D01*
X134642914Y-74714285D02*
X134547676Y-74666666D01*
X134547676Y-74666666D02*
X134452438Y-74571428D01*
X134452438Y-74571428D02*
X134404819Y-74428571D01*
X134404819Y-74428571D02*
X134404819Y-74333333D01*
X134404819Y-74333333D02*
X134452438Y-74190476D01*
X134452438Y-74190476D02*
X134500057Y-74142857D01*
X135404819Y-73190476D02*
X135404819Y-73761904D01*
X135404819Y-73476190D02*
X134404819Y-73476190D01*
X134404819Y-73476190D02*
X134547676Y-73571428D01*
X134547676Y-73571428D02*
X134642914Y-73666666D01*
X134642914Y-73666666D02*
X134690533Y-73761904D01*
X134404819Y-72333333D02*
X134404819Y-72523809D01*
X134404819Y-72523809D02*
X134452438Y-72619047D01*
X134452438Y-72619047D02*
X134500057Y-72666666D01*
X134500057Y-72666666D02*
X134642914Y-72761904D01*
X134642914Y-72761904D02*
X134833390Y-72809523D01*
X134833390Y-72809523D02*
X135214342Y-72809523D01*
X135214342Y-72809523D02*
X135309580Y-72761904D01*
X135309580Y-72761904D02*
X135357200Y-72714285D01*
X135357200Y-72714285D02*
X135404819Y-72619047D01*
X135404819Y-72619047D02*
X135404819Y-72428571D01*
X135404819Y-72428571D02*
X135357200Y-72333333D01*
X135357200Y-72333333D02*
X135309580Y-72285714D01*
X135309580Y-72285714D02*
X135214342Y-72238095D01*
X135214342Y-72238095D02*
X134976247Y-72238095D01*
X134976247Y-72238095D02*
X134881009Y-72285714D01*
X134881009Y-72285714D02*
X134833390Y-72333333D01*
X134833390Y-72333333D02*
X134785771Y-72428571D01*
X134785771Y-72428571D02*
X134785771Y-72619047D01*
X134785771Y-72619047D02*
X134833390Y-72714285D01*
X134833390Y-72714285D02*
X134881009Y-72761904D01*
X134881009Y-72761904D02*
X134976247Y-72809523D01*
X116254819Y-91016666D02*
X115778628Y-91349999D01*
X116254819Y-91588094D02*
X115254819Y-91588094D01*
X115254819Y-91588094D02*
X115254819Y-91207142D01*
X115254819Y-91207142D02*
X115302438Y-91111904D01*
X115302438Y-91111904D02*
X115350057Y-91064285D01*
X115350057Y-91064285D02*
X115445295Y-91016666D01*
X115445295Y-91016666D02*
X115588152Y-91016666D01*
X115588152Y-91016666D02*
X115683390Y-91064285D01*
X115683390Y-91064285D02*
X115731009Y-91111904D01*
X115731009Y-91111904D02*
X115778628Y-91207142D01*
X115778628Y-91207142D02*
X115778628Y-91588094D01*
X115254819Y-90683332D02*
X115254819Y-90016666D01*
X115254819Y-90016666D02*
X116254819Y-90445237D01*
X132736905Y-105329819D02*
X132736905Y-104329819D01*
X132736905Y-104329819D02*
X132975000Y-104329819D01*
X132975000Y-104329819D02*
X133117857Y-104377438D01*
X133117857Y-104377438D02*
X133213095Y-104472676D01*
X133213095Y-104472676D02*
X133260714Y-104567914D01*
X133260714Y-104567914D02*
X133308333Y-104758390D01*
X133308333Y-104758390D02*
X133308333Y-104901247D01*
X133308333Y-104901247D02*
X133260714Y-105091723D01*
X133260714Y-105091723D02*
X133213095Y-105186961D01*
X133213095Y-105186961D02*
X133117857Y-105282200D01*
X133117857Y-105282200D02*
X132975000Y-105329819D01*
X132975000Y-105329819D02*
X132736905Y-105329819D01*
X134213095Y-104329819D02*
X133736905Y-104329819D01*
X133736905Y-104329819D02*
X133689286Y-104806009D01*
X133689286Y-104806009D02*
X133736905Y-104758390D01*
X133736905Y-104758390D02*
X133832143Y-104710771D01*
X133832143Y-104710771D02*
X134070238Y-104710771D01*
X134070238Y-104710771D02*
X134165476Y-104758390D01*
X134165476Y-104758390D02*
X134213095Y-104806009D01*
X134213095Y-104806009D02*
X134260714Y-104901247D01*
X134260714Y-104901247D02*
X134260714Y-105139342D01*
X134260714Y-105139342D02*
X134213095Y-105234580D01*
X134213095Y-105234580D02*
X134165476Y-105282200D01*
X134165476Y-105282200D02*
X134070238Y-105329819D01*
X134070238Y-105329819D02*
X133832143Y-105329819D01*
X133832143Y-105329819D02*
X133736905Y-105282200D01*
X133736905Y-105282200D02*
X133689286Y-105234580D01*
X129074819Y-71010416D02*
X128598628Y-71343749D01*
X129074819Y-71581844D02*
X128074819Y-71581844D01*
X128074819Y-71581844D02*
X128074819Y-71200892D01*
X128074819Y-71200892D02*
X128122438Y-71105654D01*
X128122438Y-71105654D02*
X128170057Y-71058035D01*
X128170057Y-71058035D02*
X128265295Y-71010416D01*
X128265295Y-71010416D02*
X128408152Y-71010416D01*
X128408152Y-71010416D02*
X128503390Y-71058035D01*
X128503390Y-71058035D02*
X128551009Y-71105654D01*
X128551009Y-71105654D02*
X128598628Y-71200892D01*
X128598628Y-71200892D02*
X128598628Y-71581844D01*
X128074819Y-70105654D02*
X128074819Y-70581844D01*
X128074819Y-70581844D02*
X128551009Y-70629463D01*
X128551009Y-70629463D02*
X128503390Y-70581844D01*
X128503390Y-70581844D02*
X128455771Y-70486606D01*
X128455771Y-70486606D02*
X128455771Y-70248511D01*
X128455771Y-70248511D02*
X128503390Y-70153273D01*
X128503390Y-70153273D02*
X128551009Y-70105654D01*
X128551009Y-70105654D02*
X128646247Y-70058035D01*
X128646247Y-70058035D02*
X128884342Y-70058035D01*
X128884342Y-70058035D02*
X128979580Y-70105654D01*
X128979580Y-70105654D02*
X129027200Y-70153273D01*
X129027200Y-70153273D02*
X129074819Y-70248511D01*
X129074819Y-70248511D02*
X129074819Y-70486606D01*
X129074819Y-70486606D02*
X129027200Y-70581844D01*
X129027200Y-70581844D02*
X128979580Y-70629463D01*
X136457142Y-74509580D02*
X136409523Y-74557200D01*
X136409523Y-74557200D02*
X136266666Y-74604819D01*
X136266666Y-74604819D02*
X136171428Y-74604819D01*
X136171428Y-74604819D02*
X136028571Y-74557200D01*
X136028571Y-74557200D02*
X135933333Y-74461961D01*
X135933333Y-74461961D02*
X135885714Y-74366723D01*
X135885714Y-74366723D02*
X135838095Y-74176247D01*
X135838095Y-74176247D02*
X135838095Y-74033390D01*
X135838095Y-74033390D02*
X135885714Y-73842914D01*
X135885714Y-73842914D02*
X135933333Y-73747676D01*
X135933333Y-73747676D02*
X136028571Y-73652438D01*
X136028571Y-73652438D02*
X136171428Y-73604819D01*
X136171428Y-73604819D02*
X136266666Y-73604819D01*
X136266666Y-73604819D02*
X136409523Y-73652438D01*
X136409523Y-73652438D02*
X136457142Y-73700057D01*
X137409523Y-74604819D02*
X136838095Y-74604819D01*
X137123809Y-74604819D02*
X137123809Y-73604819D01*
X137123809Y-73604819D02*
X137028571Y-73747676D01*
X137028571Y-73747676D02*
X136933333Y-73842914D01*
X136933333Y-73842914D02*
X136838095Y-73890533D01*
X137790476Y-73700057D02*
X137838095Y-73652438D01*
X137838095Y-73652438D02*
X137933333Y-73604819D01*
X137933333Y-73604819D02*
X138171428Y-73604819D01*
X138171428Y-73604819D02*
X138266666Y-73652438D01*
X138266666Y-73652438D02*
X138314285Y-73700057D01*
X138314285Y-73700057D02*
X138361904Y-73795295D01*
X138361904Y-73795295D02*
X138361904Y-73890533D01*
X138361904Y-73890533D02*
X138314285Y-74033390D01*
X138314285Y-74033390D02*
X137742857Y-74604819D01*
X137742857Y-74604819D02*
X138361904Y-74604819D01*
X136457142Y-84609580D02*
X136409523Y-84657200D01*
X136409523Y-84657200D02*
X136266666Y-84704819D01*
X136266666Y-84704819D02*
X136171428Y-84704819D01*
X136171428Y-84704819D02*
X136028571Y-84657200D01*
X136028571Y-84657200D02*
X135933333Y-84561961D01*
X135933333Y-84561961D02*
X135885714Y-84466723D01*
X135885714Y-84466723D02*
X135838095Y-84276247D01*
X135838095Y-84276247D02*
X135838095Y-84133390D01*
X135838095Y-84133390D02*
X135885714Y-83942914D01*
X135885714Y-83942914D02*
X135933333Y-83847676D01*
X135933333Y-83847676D02*
X136028571Y-83752438D01*
X136028571Y-83752438D02*
X136171428Y-83704819D01*
X136171428Y-83704819D02*
X136266666Y-83704819D01*
X136266666Y-83704819D02*
X136409523Y-83752438D01*
X136409523Y-83752438D02*
X136457142Y-83800057D01*
X137409523Y-84704819D02*
X136838095Y-84704819D01*
X137123809Y-84704819D02*
X137123809Y-83704819D01*
X137123809Y-83704819D02*
X137028571Y-83847676D01*
X137028571Y-83847676D02*
X136933333Y-83942914D01*
X136933333Y-83942914D02*
X136838095Y-83990533D01*
X138314285Y-83704819D02*
X137838095Y-83704819D01*
X137838095Y-83704819D02*
X137790476Y-84181009D01*
X137790476Y-84181009D02*
X137838095Y-84133390D01*
X137838095Y-84133390D02*
X137933333Y-84085771D01*
X137933333Y-84085771D02*
X138171428Y-84085771D01*
X138171428Y-84085771D02*
X138266666Y-84133390D01*
X138266666Y-84133390D02*
X138314285Y-84181009D01*
X138314285Y-84181009D02*
X138361904Y-84276247D01*
X138361904Y-84276247D02*
X138361904Y-84514342D01*
X138361904Y-84514342D02*
X138314285Y-84609580D01*
X138314285Y-84609580D02*
X138266666Y-84657200D01*
X138266666Y-84657200D02*
X138171428Y-84704819D01*
X138171428Y-84704819D02*
X137933333Y-84704819D01*
X137933333Y-84704819D02*
X137838095Y-84657200D01*
X137838095Y-84657200D02*
X137790476Y-84609580D01*
X123588095Y-87770819D02*
X123588095Y-88580342D01*
X123588095Y-88580342D02*
X123635714Y-88675580D01*
X123635714Y-88675580D02*
X123683333Y-88723200D01*
X123683333Y-88723200D02*
X123778571Y-88770819D01*
X123778571Y-88770819D02*
X123969047Y-88770819D01*
X123969047Y-88770819D02*
X124064285Y-88723200D01*
X124064285Y-88723200D02*
X124111904Y-88675580D01*
X124111904Y-88675580D02*
X124159523Y-88580342D01*
X124159523Y-88580342D02*
X124159523Y-87770819D01*
X124540476Y-87770819D02*
X125159523Y-87770819D01*
X125159523Y-87770819D02*
X124826190Y-88151771D01*
X124826190Y-88151771D02*
X124969047Y-88151771D01*
X124969047Y-88151771D02*
X125064285Y-88199390D01*
X125064285Y-88199390D02*
X125111904Y-88247009D01*
X125111904Y-88247009D02*
X125159523Y-88342247D01*
X125159523Y-88342247D02*
X125159523Y-88580342D01*
X125159523Y-88580342D02*
X125111904Y-88675580D01*
X125111904Y-88675580D02*
X125064285Y-88723200D01*
X125064285Y-88723200D02*
X124969047Y-88770819D01*
X124969047Y-88770819D02*
X124683333Y-88770819D01*
X124683333Y-88770819D02*
X124588095Y-88723200D01*
X124588095Y-88723200D02*
X124540476Y-88675580D01*
X106183333Y-71384819D02*
X105850000Y-70908628D01*
X105611905Y-71384819D02*
X105611905Y-70384819D01*
X105611905Y-70384819D02*
X105992857Y-70384819D01*
X105992857Y-70384819D02*
X106088095Y-70432438D01*
X106088095Y-70432438D02*
X106135714Y-70480057D01*
X106135714Y-70480057D02*
X106183333Y-70575295D01*
X106183333Y-70575295D02*
X106183333Y-70718152D01*
X106183333Y-70718152D02*
X106135714Y-70813390D01*
X106135714Y-70813390D02*
X106088095Y-70861009D01*
X106088095Y-70861009D02*
X105992857Y-70908628D01*
X105992857Y-70908628D02*
X105611905Y-70908628D01*
X106516667Y-70384819D02*
X107135714Y-70384819D01*
X107135714Y-70384819D02*
X106802381Y-70765771D01*
X106802381Y-70765771D02*
X106945238Y-70765771D01*
X106945238Y-70765771D02*
X107040476Y-70813390D01*
X107040476Y-70813390D02*
X107088095Y-70861009D01*
X107088095Y-70861009D02*
X107135714Y-70956247D01*
X107135714Y-70956247D02*
X107135714Y-71194342D01*
X107135714Y-71194342D02*
X107088095Y-71289580D01*
X107088095Y-71289580D02*
X107040476Y-71337200D01*
X107040476Y-71337200D02*
X106945238Y-71384819D01*
X106945238Y-71384819D02*
X106659524Y-71384819D01*
X106659524Y-71384819D02*
X106564286Y-71337200D01*
X106564286Y-71337200D02*
X106516667Y-71289580D01*
X148416667Y-107607200D02*
X148559524Y-107654819D01*
X148559524Y-107654819D02*
X148797619Y-107654819D01*
X148797619Y-107654819D02*
X148892857Y-107607200D01*
X148892857Y-107607200D02*
X148940476Y-107559580D01*
X148940476Y-107559580D02*
X148988095Y-107464342D01*
X148988095Y-107464342D02*
X148988095Y-107369104D01*
X148988095Y-107369104D02*
X148940476Y-107273866D01*
X148940476Y-107273866D02*
X148892857Y-107226247D01*
X148892857Y-107226247D02*
X148797619Y-107178628D01*
X148797619Y-107178628D02*
X148607143Y-107131009D01*
X148607143Y-107131009D02*
X148511905Y-107083390D01*
X148511905Y-107083390D02*
X148464286Y-107035771D01*
X148464286Y-107035771D02*
X148416667Y-106940533D01*
X148416667Y-106940533D02*
X148416667Y-106845295D01*
X148416667Y-106845295D02*
X148464286Y-106750057D01*
X148464286Y-106750057D02*
X148511905Y-106702438D01*
X148511905Y-106702438D02*
X148607143Y-106654819D01*
X148607143Y-106654819D02*
X148845238Y-106654819D01*
X148845238Y-106654819D02*
X148988095Y-106702438D01*
X149321429Y-106654819D02*
X149559524Y-107654819D01*
X149559524Y-107654819D02*
X149750000Y-106940533D01*
X149750000Y-106940533D02*
X149940476Y-107654819D01*
X149940476Y-107654819D02*
X150178572Y-106654819D01*
X150511905Y-106750057D02*
X150559524Y-106702438D01*
X150559524Y-106702438D02*
X150654762Y-106654819D01*
X150654762Y-106654819D02*
X150892857Y-106654819D01*
X150892857Y-106654819D02*
X150988095Y-106702438D01*
X150988095Y-106702438D02*
X151035714Y-106750057D01*
X151035714Y-106750057D02*
X151083333Y-106845295D01*
X151083333Y-106845295D02*
X151083333Y-106940533D01*
X151083333Y-106940533D02*
X151035714Y-107083390D01*
X151035714Y-107083390D02*
X150464286Y-107654819D01*
X150464286Y-107654819D02*
X151083333Y-107654819D01*
X154954819Y-79460416D02*
X154478628Y-79793749D01*
X154954819Y-80031844D02*
X153954819Y-80031844D01*
X153954819Y-80031844D02*
X153954819Y-79650892D01*
X153954819Y-79650892D02*
X154002438Y-79555654D01*
X154002438Y-79555654D02*
X154050057Y-79508035D01*
X154050057Y-79508035D02*
X154145295Y-79460416D01*
X154145295Y-79460416D02*
X154288152Y-79460416D01*
X154288152Y-79460416D02*
X154383390Y-79508035D01*
X154383390Y-79508035D02*
X154431009Y-79555654D01*
X154431009Y-79555654D02*
X154478628Y-79650892D01*
X154478628Y-79650892D02*
X154478628Y-80031844D01*
X154954819Y-78984225D02*
X154954819Y-78793749D01*
X154954819Y-78793749D02*
X154907200Y-78698511D01*
X154907200Y-78698511D02*
X154859580Y-78650892D01*
X154859580Y-78650892D02*
X154716723Y-78555654D01*
X154716723Y-78555654D02*
X154526247Y-78508035D01*
X154526247Y-78508035D02*
X154145295Y-78508035D01*
X154145295Y-78508035D02*
X154050057Y-78555654D01*
X154050057Y-78555654D02*
X154002438Y-78603273D01*
X154002438Y-78603273D02*
X153954819Y-78698511D01*
X153954819Y-78698511D02*
X153954819Y-78888987D01*
X153954819Y-78888987D02*
X154002438Y-78984225D01*
X154002438Y-78984225D02*
X154050057Y-79031844D01*
X154050057Y-79031844D02*
X154145295Y-79079463D01*
X154145295Y-79079463D02*
X154383390Y-79079463D01*
X154383390Y-79079463D02*
X154478628Y-79031844D01*
X154478628Y-79031844D02*
X154526247Y-78984225D01*
X154526247Y-78984225D02*
X154573866Y-78888987D01*
X154573866Y-78888987D02*
X154573866Y-78698511D01*
X154573866Y-78698511D02*
X154526247Y-78603273D01*
X154526247Y-78603273D02*
X154478628Y-78555654D01*
X154478628Y-78555654D02*
X154383390Y-78508035D01*
X110583333Y-70954819D02*
X110250000Y-70478628D01*
X110011905Y-70954819D02*
X110011905Y-69954819D01*
X110011905Y-69954819D02*
X110392857Y-69954819D01*
X110392857Y-69954819D02*
X110488095Y-70002438D01*
X110488095Y-70002438D02*
X110535714Y-70050057D01*
X110535714Y-70050057D02*
X110583333Y-70145295D01*
X110583333Y-70145295D02*
X110583333Y-70288152D01*
X110583333Y-70288152D02*
X110535714Y-70383390D01*
X110535714Y-70383390D02*
X110488095Y-70431009D01*
X110488095Y-70431009D02*
X110392857Y-70478628D01*
X110392857Y-70478628D02*
X110011905Y-70478628D01*
X110964286Y-70050057D02*
X111011905Y-70002438D01*
X111011905Y-70002438D02*
X111107143Y-69954819D01*
X111107143Y-69954819D02*
X111345238Y-69954819D01*
X111345238Y-69954819D02*
X111440476Y-70002438D01*
X111440476Y-70002438D02*
X111488095Y-70050057D01*
X111488095Y-70050057D02*
X111535714Y-70145295D01*
X111535714Y-70145295D02*
X111535714Y-70240533D01*
X111535714Y-70240533D02*
X111488095Y-70383390D01*
X111488095Y-70383390D02*
X110916667Y-70954819D01*
X110916667Y-70954819D02*
X111535714Y-70954819D01*
X144708333Y-73909580D02*
X144660714Y-73957200D01*
X144660714Y-73957200D02*
X144517857Y-74004819D01*
X144517857Y-74004819D02*
X144422619Y-74004819D01*
X144422619Y-74004819D02*
X144279762Y-73957200D01*
X144279762Y-73957200D02*
X144184524Y-73861961D01*
X144184524Y-73861961D02*
X144136905Y-73766723D01*
X144136905Y-73766723D02*
X144089286Y-73576247D01*
X144089286Y-73576247D02*
X144089286Y-73433390D01*
X144089286Y-73433390D02*
X144136905Y-73242914D01*
X144136905Y-73242914D02*
X144184524Y-73147676D01*
X144184524Y-73147676D02*
X144279762Y-73052438D01*
X144279762Y-73052438D02*
X144422619Y-73004819D01*
X144422619Y-73004819D02*
X144517857Y-73004819D01*
X144517857Y-73004819D02*
X144660714Y-73052438D01*
X144660714Y-73052438D02*
X144708333Y-73100057D01*
X145660714Y-74004819D02*
X145089286Y-74004819D01*
X145375000Y-74004819D02*
X145375000Y-73004819D01*
X145375000Y-73004819D02*
X145279762Y-73147676D01*
X145279762Y-73147676D02*
X145184524Y-73242914D01*
X145184524Y-73242914D02*
X145089286Y-73290533D01*
X134261905Y-132954819D02*
X134261905Y-131954819D01*
X134261905Y-131954819D02*
X134500000Y-131954819D01*
X134500000Y-131954819D02*
X134642857Y-132002438D01*
X134642857Y-132002438D02*
X134738095Y-132097676D01*
X134738095Y-132097676D02*
X134785714Y-132192914D01*
X134785714Y-132192914D02*
X134833333Y-132383390D01*
X134833333Y-132383390D02*
X134833333Y-132526247D01*
X134833333Y-132526247D02*
X134785714Y-132716723D01*
X134785714Y-132716723D02*
X134738095Y-132811961D01*
X134738095Y-132811961D02*
X134642857Y-132907200D01*
X134642857Y-132907200D02*
X134500000Y-132954819D01*
X134500000Y-132954819D02*
X134261905Y-132954819D01*
X135404762Y-132383390D02*
X135309524Y-132335771D01*
X135309524Y-132335771D02*
X135261905Y-132288152D01*
X135261905Y-132288152D02*
X135214286Y-132192914D01*
X135214286Y-132192914D02*
X135214286Y-132145295D01*
X135214286Y-132145295D02*
X135261905Y-132050057D01*
X135261905Y-132050057D02*
X135309524Y-132002438D01*
X135309524Y-132002438D02*
X135404762Y-131954819D01*
X135404762Y-131954819D02*
X135595238Y-131954819D01*
X135595238Y-131954819D02*
X135690476Y-132002438D01*
X135690476Y-132002438D02*
X135738095Y-132050057D01*
X135738095Y-132050057D02*
X135785714Y-132145295D01*
X135785714Y-132145295D02*
X135785714Y-132192914D01*
X135785714Y-132192914D02*
X135738095Y-132288152D01*
X135738095Y-132288152D02*
X135690476Y-132335771D01*
X135690476Y-132335771D02*
X135595238Y-132383390D01*
X135595238Y-132383390D02*
X135404762Y-132383390D01*
X135404762Y-132383390D02*
X135309524Y-132431009D01*
X135309524Y-132431009D02*
X135261905Y-132478628D01*
X135261905Y-132478628D02*
X135214286Y-132573866D01*
X135214286Y-132573866D02*
X135214286Y-132764342D01*
X135214286Y-132764342D02*
X135261905Y-132859580D01*
X135261905Y-132859580D02*
X135309524Y-132907200D01*
X135309524Y-132907200D02*
X135404762Y-132954819D01*
X135404762Y-132954819D02*
X135595238Y-132954819D01*
X135595238Y-132954819D02*
X135690476Y-132907200D01*
X135690476Y-132907200D02*
X135738095Y-132859580D01*
X135738095Y-132859580D02*
X135785714Y-132764342D01*
X135785714Y-132764342D02*
X135785714Y-132573866D01*
X135785714Y-132573866D02*
X135738095Y-132478628D01*
X135738095Y-132478628D02*
X135690476Y-132431009D01*
X135690476Y-132431009D02*
X135595238Y-132383390D01*
X123588095Y-77124819D02*
X123588095Y-77934342D01*
X123588095Y-77934342D02*
X123635714Y-78029580D01*
X123635714Y-78029580D02*
X123683333Y-78077200D01*
X123683333Y-78077200D02*
X123778571Y-78124819D01*
X123778571Y-78124819D02*
X123969047Y-78124819D01*
X123969047Y-78124819D02*
X124064285Y-78077200D01*
X124064285Y-78077200D02*
X124111904Y-78029580D01*
X124111904Y-78029580D02*
X124159523Y-77934342D01*
X124159523Y-77934342D02*
X124159523Y-77124819D01*
X125159523Y-78124819D02*
X124588095Y-78124819D01*
X124873809Y-78124819D02*
X124873809Y-77124819D01*
X124873809Y-77124819D02*
X124778571Y-77267676D01*
X124778571Y-77267676D02*
X124683333Y-77362914D01*
X124683333Y-77362914D02*
X124588095Y-77410533D01*
X117886905Y-115479819D02*
X117886905Y-114479819D01*
X117886905Y-114479819D02*
X118125000Y-114479819D01*
X118125000Y-114479819D02*
X118267857Y-114527438D01*
X118267857Y-114527438D02*
X118363095Y-114622676D01*
X118363095Y-114622676D02*
X118410714Y-114717914D01*
X118410714Y-114717914D02*
X118458333Y-114908390D01*
X118458333Y-114908390D02*
X118458333Y-115051247D01*
X118458333Y-115051247D02*
X118410714Y-115241723D01*
X118410714Y-115241723D02*
X118363095Y-115336961D01*
X118363095Y-115336961D02*
X118267857Y-115432200D01*
X118267857Y-115432200D02*
X118125000Y-115479819D01*
X118125000Y-115479819D02*
X117886905Y-115479819D01*
X118839286Y-114575057D02*
X118886905Y-114527438D01*
X118886905Y-114527438D02*
X118982143Y-114479819D01*
X118982143Y-114479819D02*
X119220238Y-114479819D01*
X119220238Y-114479819D02*
X119315476Y-114527438D01*
X119315476Y-114527438D02*
X119363095Y-114575057D01*
X119363095Y-114575057D02*
X119410714Y-114670295D01*
X119410714Y-114670295D02*
X119410714Y-114765533D01*
X119410714Y-114765533D02*
X119363095Y-114908390D01*
X119363095Y-114908390D02*
X118791667Y-115479819D01*
X118791667Y-115479819D02*
X119410714Y-115479819D01*
X131232142Y-78259580D02*
X131184523Y-78307200D01*
X131184523Y-78307200D02*
X131041666Y-78354819D01*
X131041666Y-78354819D02*
X130946428Y-78354819D01*
X130946428Y-78354819D02*
X130803571Y-78307200D01*
X130803571Y-78307200D02*
X130708333Y-78211961D01*
X130708333Y-78211961D02*
X130660714Y-78116723D01*
X130660714Y-78116723D02*
X130613095Y-77926247D01*
X130613095Y-77926247D02*
X130613095Y-77783390D01*
X130613095Y-77783390D02*
X130660714Y-77592914D01*
X130660714Y-77592914D02*
X130708333Y-77497676D01*
X130708333Y-77497676D02*
X130803571Y-77402438D01*
X130803571Y-77402438D02*
X130946428Y-77354819D01*
X130946428Y-77354819D02*
X131041666Y-77354819D01*
X131041666Y-77354819D02*
X131184523Y-77402438D01*
X131184523Y-77402438D02*
X131232142Y-77450057D01*
X132184523Y-78354819D02*
X131613095Y-78354819D01*
X131898809Y-78354819D02*
X131898809Y-77354819D01*
X131898809Y-77354819D02*
X131803571Y-77497676D01*
X131803571Y-77497676D02*
X131708333Y-77592914D01*
X131708333Y-77592914D02*
X131613095Y-77640533D01*
X133136904Y-78354819D02*
X132565476Y-78354819D01*
X132851190Y-78354819D02*
X132851190Y-77354819D01*
X132851190Y-77354819D02*
X132755952Y-77497676D01*
X132755952Y-77497676D02*
X132660714Y-77592914D01*
X132660714Y-77592914D02*
X132565476Y-77640533D01*
X103504819Y-83066666D02*
X103028628Y-83399999D01*
X103504819Y-83638094D02*
X102504819Y-83638094D01*
X102504819Y-83638094D02*
X102504819Y-83257142D01*
X102504819Y-83257142D02*
X102552438Y-83161904D01*
X102552438Y-83161904D02*
X102600057Y-83114285D01*
X102600057Y-83114285D02*
X102695295Y-83066666D01*
X102695295Y-83066666D02*
X102838152Y-83066666D01*
X102838152Y-83066666D02*
X102933390Y-83114285D01*
X102933390Y-83114285D02*
X102981009Y-83161904D01*
X102981009Y-83161904D02*
X103028628Y-83257142D01*
X103028628Y-83257142D02*
X103028628Y-83638094D01*
X102504819Y-82209523D02*
X102504819Y-82399999D01*
X102504819Y-82399999D02*
X102552438Y-82495237D01*
X102552438Y-82495237D02*
X102600057Y-82542856D01*
X102600057Y-82542856D02*
X102742914Y-82638094D01*
X102742914Y-82638094D02*
X102933390Y-82685713D01*
X102933390Y-82685713D02*
X103314342Y-82685713D01*
X103314342Y-82685713D02*
X103409580Y-82638094D01*
X103409580Y-82638094D02*
X103457200Y-82590475D01*
X103457200Y-82590475D02*
X103504819Y-82495237D01*
X103504819Y-82495237D02*
X103504819Y-82304761D01*
X103504819Y-82304761D02*
X103457200Y-82209523D01*
X103457200Y-82209523D02*
X103409580Y-82161904D01*
X103409580Y-82161904D02*
X103314342Y-82114285D01*
X103314342Y-82114285D02*
X103076247Y-82114285D01*
X103076247Y-82114285D02*
X102981009Y-82161904D01*
X102981009Y-82161904D02*
X102933390Y-82209523D01*
X102933390Y-82209523D02*
X102885771Y-82304761D01*
X102885771Y-82304761D02*
X102885771Y-82495237D01*
X102885771Y-82495237D02*
X102933390Y-82590475D01*
X102933390Y-82590475D02*
X102981009Y-82638094D01*
X102981009Y-82638094D02*
X103076247Y-82685713D01*
X144708333Y-87909580D02*
X144660714Y-87957200D01*
X144660714Y-87957200D02*
X144517857Y-88004819D01*
X144517857Y-88004819D02*
X144422619Y-88004819D01*
X144422619Y-88004819D02*
X144279762Y-87957200D01*
X144279762Y-87957200D02*
X144184524Y-87861961D01*
X144184524Y-87861961D02*
X144136905Y-87766723D01*
X144136905Y-87766723D02*
X144089286Y-87576247D01*
X144089286Y-87576247D02*
X144089286Y-87433390D01*
X144089286Y-87433390D02*
X144136905Y-87242914D01*
X144136905Y-87242914D02*
X144184524Y-87147676D01*
X144184524Y-87147676D02*
X144279762Y-87052438D01*
X144279762Y-87052438D02*
X144422619Y-87004819D01*
X144422619Y-87004819D02*
X144517857Y-87004819D01*
X144517857Y-87004819D02*
X144660714Y-87052438D01*
X144660714Y-87052438D02*
X144708333Y-87100057D01*
X145089286Y-87100057D02*
X145136905Y-87052438D01*
X145136905Y-87052438D02*
X145232143Y-87004819D01*
X145232143Y-87004819D02*
X145470238Y-87004819D01*
X145470238Y-87004819D02*
X145565476Y-87052438D01*
X145565476Y-87052438D02*
X145613095Y-87100057D01*
X145613095Y-87100057D02*
X145660714Y-87195295D01*
X145660714Y-87195295D02*
X145660714Y-87290533D01*
X145660714Y-87290533D02*
X145613095Y-87433390D01*
X145613095Y-87433390D02*
X145041667Y-88004819D01*
X145041667Y-88004819D02*
X145660714Y-88004819D01*
X136457142Y-81259580D02*
X136409523Y-81307200D01*
X136409523Y-81307200D02*
X136266666Y-81354819D01*
X136266666Y-81354819D02*
X136171428Y-81354819D01*
X136171428Y-81354819D02*
X136028571Y-81307200D01*
X136028571Y-81307200D02*
X135933333Y-81211961D01*
X135933333Y-81211961D02*
X135885714Y-81116723D01*
X135885714Y-81116723D02*
X135838095Y-80926247D01*
X135838095Y-80926247D02*
X135838095Y-80783390D01*
X135838095Y-80783390D02*
X135885714Y-80592914D01*
X135885714Y-80592914D02*
X135933333Y-80497676D01*
X135933333Y-80497676D02*
X136028571Y-80402438D01*
X136028571Y-80402438D02*
X136171428Y-80354819D01*
X136171428Y-80354819D02*
X136266666Y-80354819D01*
X136266666Y-80354819D02*
X136409523Y-80402438D01*
X136409523Y-80402438D02*
X136457142Y-80450057D01*
X137409523Y-81354819D02*
X136838095Y-81354819D01*
X137123809Y-81354819D02*
X137123809Y-80354819D01*
X137123809Y-80354819D02*
X137028571Y-80497676D01*
X137028571Y-80497676D02*
X136933333Y-80592914D01*
X136933333Y-80592914D02*
X136838095Y-80640533D01*
X138266666Y-80688152D02*
X138266666Y-81354819D01*
X138028571Y-80307200D02*
X137790476Y-81021485D01*
X137790476Y-81021485D02*
X138409523Y-81021485D01*
X131207142Y-84609580D02*
X131159523Y-84657200D01*
X131159523Y-84657200D02*
X131016666Y-84704819D01*
X131016666Y-84704819D02*
X130921428Y-84704819D01*
X130921428Y-84704819D02*
X130778571Y-84657200D01*
X130778571Y-84657200D02*
X130683333Y-84561961D01*
X130683333Y-84561961D02*
X130635714Y-84466723D01*
X130635714Y-84466723D02*
X130588095Y-84276247D01*
X130588095Y-84276247D02*
X130588095Y-84133390D01*
X130588095Y-84133390D02*
X130635714Y-83942914D01*
X130635714Y-83942914D02*
X130683333Y-83847676D01*
X130683333Y-83847676D02*
X130778571Y-83752438D01*
X130778571Y-83752438D02*
X130921428Y-83704819D01*
X130921428Y-83704819D02*
X131016666Y-83704819D01*
X131016666Y-83704819D02*
X131159523Y-83752438D01*
X131159523Y-83752438D02*
X131207142Y-83800057D01*
X132159523Y-84704819D02*
X131588095Y-84704819D01*
X131873809Y-84704819D02*
X131873809Y-83704819D01*
X131873809Y-83704819D02*
X131778571Y-83847676D01*
X131778571Y-83847676D02*
X131683333Y-83942914D01*
X131683333Y-83942914D02*
X131588095Y-83990533D01*
X132778571Y-83704819D02*
X132873809Y-83704819D01*
X132873809Y-83704819D02*
X132969047Y-83752438D01*
X132969047Y-83752438D02*
X133016666Y-83800057D01*
X133016666Y-83800057D02*
X133064285Y-83895295D01*
X133064285Y-83895295D02*
X133111904Y-84085771D01*
X133111904Y-84085771D02*
X133111904Y-84323866D01*
X133111904Y-84323866D02*
X133064285Y-84514342D01*
X133064285Y-84514342D02*
X133016666Y-84609580D01*
X133016666Y-84609580D02*
X132969047Y-84657200D01*
X132969047Y-84657200D02*
X132873809Y-84704819D01*
X132873809Y-84704819D02*
X132778571Y-84704819D01*
X132778571Y-84704819D02*
X132683333Y-84657200D01*
X132683333Y-84657200D02*
X132635714Y-84609580D01*
X132635714Y-84609580D02*
X132588095Y-84514342D01*
X132588095Y-84514342D02*
X132540476Y-84323866D01*
X132540476Y-84323866D02*
X132540476Y-84085771D01*
X132540476Y-84085771D02*
X132588095Y-83895295D01*
X132588095Y-83895295D02*
X132635714Y-83800057D01*
X132635714Y-83800057D02*
X132683333Y-83752438D01*
X132683333Y-83752438D02*
X132778571Y-83704819D01*
X148804819Y-83261904D02*
X149614342Y-83261904D01*
X149614342Y-83261904D02*
X149709580Y-83214285D01*
X149709580Y-83214285D02*
X149757200Y-83166666D01*
X149757200Y-83166666D02*
X149804819Y-83071428D01*
X149804819Y-83071428D02*
X149804819Y-82880952D01*
X149804819Y-82880952D02*
X149757200Y-82785714D01*
X149757200Y-82785714D02*
X149709580Y-82738095D01*
X149709580Y-82738095D02*
X149614342Y-82690476D01*
X149614342Y-82690476D02*
X148804819Y-82690476D01*
X148900057Y-82261904D02*
X148852438Y-82214285D01*
X148852438Y-82214285D02*
X148804819Y-82119047D01*
X148804819Y-82119047D02*
X148804819Y-81880952D01*
X148804819Y-81880952D02*
X148852438Y-81785714D01*
X148852438Y-81785714D02*
X148900057Y-81738095D01*
X148900057Y-81738095D02*
X148995295Y-81690476D01*
X148995295Y-81690476D02*
X149090533Y-81690476D01*
X149090533Y-81690476D02*
X149233390Y-81738095D01*
X149233390Y-81738095D02*
X149804819Y-82309523D01*
X149804819Y-82309523D02*
X149804819Y-81690476D01*
X135261905Y-113454819D02*
X135261905Y-112454819D01*
X135261905Y-112454819D02*
X135500000Y-112454819D01*
X135500000Y-112454819D02*
X135642857Y-112502438D01*
X135642857Y-112502438D02*
X135738095Y-112597676D01*
X135738095Y-112597676D02*
X135785714Y-112692914D01*
X135785714Y-112692914D02*
X135833333Y-112883390D01*
X135833333Y-112883390D02*
X135833333Y-113026247D01*
X135833333Y-113026247D02*
X135785714Y-113216723D01*
X135785714Y-113216723D02*
X135738095Y-113311961D01*
X135738095Y-113311961D02*
X135642857Y-113407200D01*
X135642857Y-113407200D02*
X135500000Y-113454819D01*
X135500000Y-113454819D02*
X135261905Y-113454819D01*
X136166667Y-112454819D02*
X136785714Y-112454819D01*
X136785714Y-112454819D02*
X136452381Y-112835771D01*
X136452381Y-112835771D02*
X136595238Y-112835771D01*
X136595238Y-112835771D02*
X136690476Y-112883390D01*
X136690476Y-112883390D02*
X136738095Y-112931009D01*
X136738095Y-112931009D02*
X136785714Y-113026247D01*
X136785714Y-113026247D02*
X136785714Y-113264342D01*
X136785714Y-113264342D02*
X136738095Y-113359580D01*
X136738095Y-113359580D02*
X136690476Y-113407200D01*
X136690476Y-113407200D02*
X136595238Y-113454819D01*
X136595238Y-113454819D02*
X136309524Y-113454819D01*
X136309524Y-113454819D02*
X136214286Y-113407200D01*
X136214286Y-113407200D02*
X136166667Y-113359580D01*
X124183333Y-96759580D02*
X124135714Y-96807200D01*
X124135714Y-96807200D02*
X123992857Y-96854819D01*
X123992857Y-96854819D02*
X123897619Y-96854819D01*
X123897619Y-96854819D02*
X123754762Y-96807200D01*
X123754762Y-96807200D02*
X123659524Y-96711961D01*
X123659524Y-96711961D02*
X123611905Y-96616723D01*
X123611905Y-96616723D02*
X123564286Y-96426247D01*
X123564286Y-96426247D02*
X123564286Y-96283390D01*
X123564286Y-96283390D02*
X123611905Y-96092914D01*
X123611905Y-96092914D02*
X123659524Y-95997676D01*
X123659524Y-95997676D02*
X123754762Y-95902438D01*
X123754762Y-95902438D02*
X123897619Y-95854819D01*
X123897619Y-95854819D02*
X123992857Y-95854819D01*
X123992857Y-95854819D02*
X124135714Y-95902438D01*
X124135714Y-95902438D02*
X124183333Y-95950057D01*
X124516667Y-95854819D02*
X125135714Y-95854819D01*
X125135714Y-95854819D02*
X124802381Y-96235771D01*
X124802381Y-96235771D02*
X124945238Y-96235771D01*
X124945238Y-96235771D02*
X125040476Y-96283390D01*
X125040476Y-96283390D02*
X125088095Y-96331009D01*
X125088095Y-96331009D02*
X125135714Y-96426247D01*
X125135714Y-96426247D02*
X125135714Y-96664342D01*
X125135714Y-96664342D02*
X125088095Y-96759580D01*
X125088095Y-96759580D02*
X125040476Y-96807200D01*
X125040476Y-96807200D02*
X124945238Y-96854819D01*
X124945238Y-96854819D02*
X124659524Y-96854819D01*
X124659524Y-96854819D02*
X124564286Y-96807200D01*
X124564286Y-96807200D02*
X124516667Y-96759580D01*
X117785714Y-96854819D02*
X117785714Y-95854819D01*
X117785714Y-95854819D02*
X118023809Y-95854819D01*
X118023809Y-95854819D02*
X118166666Y-95902438D01*
X118166666Y-95902438D02*
X118261904Y-95997676D01*
X118261904Y-95997676D02*
X118309523Y-96092914D01*
X118309523Y-96092914D02*
X118357142Y-96283390D01*
X118357142Y-96283390D02*
X118357142Y-96426247D01*
X118357142Y-96426247D02*
X118309523Y-96616723D01*
X118309523Y-96616723D02*
X118261904Y-96711961D01*
X118261904Y-96711961D02*
X118166666Y-96807200D01*
X118166666Y-96807200D02*
X118023809Y-96854819D01*
X118023809Y-96854819D02*
X117785714Y-96854819D01*
X119309523Y-96854819D02*
X118738095Y-96854819D01*
X119023809Y-96854819D02*
X119023809Y-95854819D01*
X119023809Y-95854819D02*
X118928571Y-95997676D01*
X118928571Y-95997676D02*
X118833333Y-96092914D01*
X118833333Y-96092914D02*
X118738095Y-96140533D01*
X119642857Y-95854819D02*
X120261904Y-95854819D01*
X120261904Y-95854819D02*
X119928571Y-96235771D01*
X119928571Y-96235771D02*
X120071428Y-96235771D01*
X120071428Y-96235771D02*
X120166666Y-96283390D01*
X120166666Y-96283390D02*
X120214285Y-96331009D01*
X120214285Y-96331009D02*
X120261904Y-96426247D01*
X120261904Y-96426247D02*
X120261904Y-96664342D01*
X120261904Y-96664342D02*
X120214285Y-96759580D01*
X120214285Y-96759580D02*
X120166666Y-96807200D01*
X120166666Y-96807200D02*
X120071428Y-96854819D01*
X120071428Y-96854819D02*
X119785714Y-96854819D01*
X119785714Y-96854819D02*
X119690476Y-96807200D01*
X119690476Y-96807200D02*
X119642857Y-96759580D01*
X106208333Y-75009580D02*
X106160714Y-75057200D01*
X106160714Y-75057200D02*
X106017857Y-75104819D01*
X106017857Y-75104819D02*
X105922619Y-75104819D01*
X105922619Y-75104819D02*
X105779762Y-75057200D01*
X105779762Y-75057200D02*
X105684524Y-74961961D01*
X105684524Y-74961961D02*
X105636905Y-74866723D01*
X105636905Y-74866723D02*
X105589286Y-74676247D01*
X105589286Y-74676247D02*
X105589286Y-74533390D01*
X105589286Y-74533390D02*
X105636905Y-74342914D01*
X105636905Y-74342914D02*
X105684524Y-74247676D01*
X105684524Y-74247676D02*
X105779762Y-74152438D01*
X105779762Y-74152438D02*
X105922619Y-74104819D01*
X105922619Y-74104819D02*
X106017857Y-74104819D01*
X106017857Y-74104819D02*
X106160714Y-74152438D01*
X106160714Y-74152438D02*
X106208333Y-74200057D01*
X107113095Y-74104819D02*
X106636905Y-74104819D01*
X106636905Y-74104819D02*
X106589286Y-74581009D01*
X106589286Y-74581009D02*
X106636905Y-74533390D01*
X106636905Y-74533390D02*
X106732143Y-74485771D01*
X106732143Y-74485771D02*
X106970238Y-74485771D01*
X106970238Y-74485771D02*
X107065476Y-74533390D01*
X107065476Y-74533390D02*
X107113095Y-74581009D01*
X107113095Y-74581009D02*
X107160714Y-74676247D01*
X107160714Y-74676247D02*
X107160714Y-74914342D01*
X107160714Y-74914342D02*
X107113095Y-75009580D01*
X107113095Y-75009580D02*
X107065476Y-75057200D01*
X107065476Y-75057200D02*
X106970238Y-75104819D01*
X106970238Y-75104819D02*
X106732143Y-75104819D01*
X106732143Y-75104819D02*
X106636905Y-75057200D01*
X106636905Y-75057200D02*
X106589286Y-75009580D01*
X119359580Y-91066666D02*
X119407200Y-91114285D01*
X119407200Y-91114285D02*
X119454819Y-91257142D01*
X119454819Y-91257142D02*
X119454819Y-91352380D01*
X119454819Y-91352380D02*
X119407200Y-91495237D01*
X119407200Y-91495237D02*
X119311961Y-91590475D01*
X119311961Y-91590475D02*
X119216723Y-91638094D01*
X119216723Y-91638094D02*
X119026247Y-91685713D01*
X119026247Y-91685713D02*
X118883390Y-91685713D01*
X118883390Y-91685713D02*
X118692914Y-91638094D01*
X118692914Y-91638094D02*
X118597676Y-91590475D01*
X118597676Y-91590475D02*
X118502438Y-91495237D01*
X118502438Y-91495237D02*
X118454819Y-91352380D01*
X118454819Y-91352380D02*
X118454819Y-91257142D01*
X118454819Y-91257142D02*
X118502438Y-91114285D01*
X118502438Y-91114285D02*
X118550057Y-91066666D01*
X118788152Y-90209523D02*
X119454819Y-90209523D01*
X118407200Y-90447618D02*
X119121485Y-90685713D01*
X119121485Y-90685713D02*
X119121485Y-90066666D01*
X94761905Y-113454819D02*
X94761905Y-112454819D01*
X94761905Y-112454819D02*
X95000000Y-112454819D01*
X95000000Y-112454819D02*
X95142857Y-112502438D01*
X95142857Y-112502438D02*
X95238095Y-112597676D01*
X95238095Y-112597676D02*
X95285714Y-112692914D01*
X95285714Y-112692914D02*
X95333333Y-112883390D01*
X95333333Y-112883390D02*
X95333333Y-113026247D01*
X95333333Y-113026247D02*
X95285714Y-113216723D01*
X95285714Y-113216723D02*
X95238095Y-113311961D01*
X95238095Y-113311961D02*
X95142857Y-113407200D01*
X95142857Y-113407200D02*
X95000000Y-113454819D01*
X95000000Y-113454819D02*
X94761905Y-113454819D01*
X96285714Y-113454819D02*
X95714286Y-113454819D01*
X96000000Y-113454819D02*
X96000000Y-112454819D01*
X96000000Y-112454819D02*
X95904762Y-112597676D01*
X95904762Y-112597676D02*
X95809524Y-112692914D01*
X95809524Y-112692914D02*
X95714286Y-112740533D01*
X154954819Y-85714285D02*
X153954819Y-85714285D01*
X153954819Y-85714285D02*
X153954819Y-85476190D01*
X153954819Y-85476190D02*
X154002438Y-85333333D01*
X154002438Y-85333333D02*
X154097676Y-85238095D01*
X154097676Y-85238095D02*
X154192914Y-85190476D01*
X154192914Y-85190476D02*
X154383390Y-85142857D01*
X154383390Y-85142857D02*
X154526247Y-85142857D01*
X154526247Y-85142857D02*
X154716723Y-85190476D01*
X154716723Y-85190476D02*
X154811961Y-85238095D01*
X154811961Y-85238095D02*
X154907200Y-85333333D01*
X154907200Y-85333333D02*
X154954819Y-85476190D01*
X154954819Y-85476190D02*
X154954819Y-85714285D01*
X154954819Y-84190476D02*
X154954819Y-84761904D01*
X154954819Y-84476190D02*
X153954819Y-84476190D01*
X153954819Y-84476190D02*
X154097676Y-84571428D01*
X154097676Y-84571428D02*
X154192914Y-84666666D01*
X154192914Y-84666666D02*
X154240533Y-84761904D01*
X153954819Y-83285714D02*
X153954819Y-83761904D01*
X153954819Y-83761904D02*
X154431009Y-83809523D01*
X154431009Y-83809523D02*
X154383390Y-83761904D01*
X154383390Y-83761904D02*
X154335771Y-83666666D01*
X154335771Y-83666666D02*
X154335771Y-83428571D01*
X154335771Y-83428571D02*
X154383390Y-83333333D01*
X154383390Y-83333333D02*
X154431009Y-83285714D01*
X154431009Y-83285714D02*
X154526247Y-83238095D01*
X154526247Y-83238095D02*
X154764342Y-83238095D01*
X154764342Y-83238095D02*
X154859580Y-83285714D01*
X154859580Y-83285714D02*
X154907200Y-83333333D01*
X154907200Y-83333333D02*
X154954819Y-83428571D01*
X154954819Y-83428571D02*
X154954819Y-83666666D01*
X154954819Y-83666666D02*
X154907200Y-83761904D01*
X154907200Y-83761904D02*
X154859580Y-83809523D01*
X132809580Y-70416666D02*
X132857200Y-70464285D01*
X132857200Y-70464285D02*
X132904819Y-70607142D01*
X132904819Y-70607142D02*
X132904819Y-70702380D01*
X132904819Y-70702380D02*
X132857200Y-70845237D01*
X132857200Y-70845237D02*
X132761961Y-70940475D01*
X132761961Y-70940475D02*
X132666723Y-70988094D01*
X132666723Y-70988094D02*
X132476247Y-71035713D01*
X132476247Y-71035713D02*
X132333390Y-71035713D01*
X132333390Y-71035713D02*
X132142914Y-70988094D01*
X132142914Y-70988094D02*
X132047676Y-70940475D01*
X132047676Y-70940475D02*
X131952438Y-70845237D01*
X131952438Y-70845237D02*
X131904819Y-70702380D01*
X131904819Y-70702380D02*
X131904819Y-70607142D01*
X131904819Y-70607142D02*
X131952438Y-70464285D01*
X131952438Y-70464285D02*
X132000057Y-70416666D01*
X132333390Y-69845237D02*
X132285771Y-69940475D01*
X132285771Y-69940475D02*
X132238152Y-69988094D01*
X132238152Y-69988094D02*
X132142914Y-70035713D01*
X132142914Y-70035713D02*
X132095295Y-70035713D01*
X132095295Y-70035713D02*
X132000057Y-69988094D01*
X132000057Y-69988094D02*
X131952438Y-69940475D01*
X131952438Y-69940475D02*
X131904819Y-69845237D01*
X131904819Y-69845237D02*
X131904819Y-69654761D01*
X131904819Y-69654761D02*
X131952438Y-69559523D01*
X131952438Y-69559523D02*
X132000057Y-69511904D01*
X132000057Y-69511904D02*
X132095295Y-69464285D01*
X132095295Y-69464285D02*
X132142914Y-69464285D01*
X132142914Y-69464285D02*
X132238152Y-69511904D01*
X132238152Y-69511904D02*
X132285771Y-69559523D01*
X132285771Y-69559523D02*
X132333390Y-69654761D01*
X132333390Y-69654761D02*
X132333390Y-69845237D01*
X132333390Y-69845237D02*
X132381009Y-69940475D01*
X132381009Y-69940475D02*
X132428628Y-69988094D01*
X132428628Y-69988094D02*
X132523866Y-70035713D01*
X132523866Y-70035713D02*
X132714342Y-70035713D01*
X132714342Y-70035713D02*
X132809580Y-69988094D01*
X132809580Y-69988094D02*
X132857200Y-69940475D01*
X132857200Y-69940475D02*
X132904819Y-69845237D01*
X132904819Y-69845237D02*
X132904819Y-69654761D01*
X132904819Y-69654761D02*
X132857200Y-69559523D01*
X132857200Y-69559523D02*
X132809580Y-69511904D01*
X132809580Y-69511904D02*
X132714342Y-69464285D01*
X132714342Y-69464285D02*
X132523866Y-69464285D01*
X132523866Y-69464285D02*
X132428628Y-69511904D01*
X132428628Y-69511904D02*
X132381009Y-69559523D01*
X132381009Y-69559523D02*
X132333390Y-69654761D01*
X116286905Y-108579819D02*
X116286905Y-107579819D01*
X116286905Y-107579819D02*
X116525000Y-107579819D01*
X116525000Y-107579819D02*
X116667857Y-107627438D01*
X116667857Y-107627438D02*
X116763095Y-107722676D01*
X116763095Y-107722676D02*
X116810714Y-107817914D01*
X116810714Y-107817914D02*
X116858333Y-108008390D01*
X116858333Y-108008390D02*
X116858333Y-108151247D01*
X116858333Y-108151247D02*
X116810714Y-108341723D01*
X116810714Y-108341723D02*
X116763095Y-108436961D01*
X116763095Y-108436961D02*
X116667857Y-108532200D01*
X116667857Y-108532200D02*
X116525000Y-108579819D01*
X116525000Y-108579819D02*
X116286905Y-108579819D01*
X117715476Y-107913152D02*
X117715476Y-108579819D01*
X117477381Y-107532200D02*
X117239286Y-108246485D01*
X117239286Y-108246485D02*
X117858333Y-108246485D01*
X107841667Y-107582200D02*
X107984524Y-107629819D01*
X107984524Y-107629819D02*
X108222619Y-107629819D01*
X108222619Y-107629819D02*
X108317857Y-107582200D01*
X108317857Y-107582200D02*
X108365476Y-107534580D01*
X108365476Y-107534580D02*
X108413095Y-107439342D01*
X108413095Y-107439342D02*
X108413095Y-107344104D01*
X108413095Y-107344104D02*
X108365476Y-107248866D01*
X108365476Y-107248866D02*
X108317857Y-107201247D01*
X108317857Y-107201247D02*
X108222619Y-107153628D01*
X108222619Y-107153628D02*
X108032143Y-107106009D01*
X108032143Y-107106009D02*
X107936905Y-107058390D01*
X107936905Y-107058390D02*
X107889286Y-107010771D01*
X107889286Y-107010771D02*
X107841667Y-106915533D01*
X107841667Y-106915533D02*
X107841667Y-106820295D01*
X107841667Y-106820295D02*
X107889286Y-106725057D01*
X107889286Y-106725057D02*
X107936905Y-106677438D01*
X107936905Y-106677438D02*
X108032143Y-106629819D01*
X108032143Y-106629819D02*
X108270238Y-106629819D01*
X108270238Y-106629819D02*
X108413095Y-106677438D01*
X108746429Y-106629819D02*
X108984524Y-107629819D01*
X108984524Y-107629819D02*
X109175000Y-106915533D01*
X109175000Y-106915533D02*
X109365476Y-107629819D01*
X109365476Y-107629819D02*
X109603572Y-106629819D01*
X109889286Y-106629819D02*
X110508333Y-106629819D01*
X110508333Y-106629819D02*
X110175000Y-107010771D01*
X110175000Y-107010771D02*
X110317857Y-107010771D01*
X110317857Y-107010771D02*
X110413095Y-107058390D01*
X110413095Y-107058390D02*
X110460714Y-107106009D01*
X110460714Y-107106009D02*
X110508333Y-107201247D01*
X110508333Y-107201247D02*
X110508333Y-107439342D01*
X110508333Y-107439342D02*
X110460714Y-107534580D01*
X110460714Y-107534580D02*
X110413095Y-107582200D01*
X110413095Y-107582200D02*
X110317857Y-107629819D01*
X110317857Y-107629819D02*
X110032143Y-107629819D01*
X110032143Y-107629819D02*
X109936905Y-107582200D01*
X109936905Y-107582200D02*
X109889286Y-107534580D01*
D13*
%TO.C,G\u002A\u002A\u002A*%
G36*
X133228565Y-59929333D02*
G01*
X133318834Y-59942528D01*
X133467106Y-59957569D01*
X133651351Y-59972434D01*
X133814196Y-59983097D01*
X134274921Y-60010000D01*
X134286905Y-60173142D01*
X134276622Y-60324816D01*
X134219671Y-60433142D01*
X134140454Y-60530000D01*
X134163937Y-60350000D01*
X134187420Y-60170000D01*
X134080934Y-60295774D01*
X134012811Y-60394072D01*
X133976364Y-60481410D01*
X133974448Y-60498129D01*
X133960313Y-60567153D01*
X133927338Y-60636261D01*
X133889667Y-60685114D01*
X133861445Y-60693372D01*
X133854920Y-60670000D01*
X133845234Y-60625372D01*
X133825709Y-60641329D01*
X133803018Y-60700170D01*
X133783833Y-60784199D01*
X133774827Y-60875714D01*
X133774746Y-60882668D01*
X133734696Y-61065220D01*
X133673397Y-61167201D01*
X133600938Y-61283403D01*
X133528352Y-61432845D01*
X133496040Y-61514532D01*
X133451076Y-61631662D01*
X133425962Y-61677561D01*
X133420228Y-61658381D01*
X133433404Y-61580277D01*
X133465020Y-61449401D01*
X133514563Y-61272054D01*
X133575561Y-61038810D01*
X133607268Y-60857059D01*
X133609139Y-60733452D01*
X133580630Y-60674641D01*
X133563802Y-60670589D01*
X133501100Y-60682161D01*
X133388545Y-60711651D01*
X133273344Y-60745720D01*
X133112367Y-60808745D01*
X133001047Y-60891668D01*
X132923990Y-61012891D01*
X132865806Y-61190817D01*
X132851557Y-61250000D01*
X132788738Y-61499098D01*
X132720324Y-61730370D01*
X132700416Y-61790000D01*
X132696341Y-61828724D01*
X132708440Y-61824307D01*
X132735087Y-61776240D01*
X132778370Y-61673649D01*
X132829364Y-61537832D01*
X132834168Y-61524307D01*
X132880711Y-61403889D01*
X132914240Y-61339433D01*
X132929721Y-61340073D01*
X132930204Y-61350000D01*
X132915932Y-61452384D01*
X132881719Y-61580323D01*
X132871558Y-61610000D01*
X132835563Y-61752222D01*
X132814636Y-61916641D01*
X132812608Y-61970000D01*
X132805128Y-62097917D01*
X132787499Y-62196992D01*
X132775990Y-62225820D01*
X132772196Y-62304780D01*
X132826722Y-62435319D01*
X132836699Y-62453518D01*
X132893730Y-62567020D01*
X132925331Y-62652410D01*
X132929347Y-62697366D01*
X132903626Y-62689566D01*
X132871439Y-62652354D01*
X132844394Y-62623778D01*
X132827142Y-62631750D01*
X132817532Y-62687491D01*
X132813412Y-62802220D01*
X132812619Y-62959083D01*
X132810177Y-63134034D01*
X132803627Y-63284401D01*
X132794131Y-63388239D01*
X132788361Y-63416728D01*
X132791736Y-63436106D01*
X132829426Y-63396292D01*
X132848752Y-63370000D01*
X132910867Y-63237635D01*
X132909889Y-63140000D01*
X132897962Y-63052572D01*
X132909572Y-63033812D01*
X132936690Y-63078856D01*
X132969439Y-63176075D01*
X132986100Y-63265736D01*
X132981581Y-63361433D01*
X132952602Y-63486984D01*
X132906168Y-63635325D01*
X132855830Y-63791815D01*
X132829137Y-63900724D01*
X132824188Y-63990296D01*
X132839081Y-64088774D01*
X132867654Y-64207469D01*
X132906131Y-64372196D01*
X132925250Y-64480261D01*
X132924886Y-64526240D01*
X132904917Y-64504711D01*
X132872713Y-64430000D01*
X132818714Y-64290000D01*
X132816280Y-64490000D01*
X132819312Y-64604949D01*
X132833128Y-64646077D01*
X132852682Y-64630000D01*
X132884100Y-64590176D01*
X132892571Y-64620074D01*
X132892860Y-64630000D01*
X132914976Y-64695589D01*
X132970091Y-64797816D01*
X133013663Y-64866019D01*
X133104468Y-65049331D01*
X133135129Y-65231976D01*
X133104324Y-65395389D01*
X133057019Y-65474973D01*
X132980915Y-65568810D01*
X132993704Y-65379405D01*
X132993639Y-65250257D01*
X132970359Y-65193557D01*
X132957632Y-65190000D01*
X132874716Y-65225654D01*
X132822731Y-65318426D01*
X132812619Y-65395639D01*
X132799561Y-65484883D01*
X132773014Y-65529716D01*
X132749792Y-65523442D01*
X132755714Y-65496123D01*
X132749237Y-65428559D01*
X132729146Y-65407935D01*
X132669704Y-65408364D01*
X132616890Y-65472020D01*
X132580270Y-65582182D01*
X132569135Y-65687645D01*
X132553099Y-65825090D01*
X132516167Y-65984533D01*
X132495425Y-66050000D01*
X132424821Y-66250000D01*
X132396430Y-65970000D01*
X132379919Y-65783710D01*
X132366315Y-65588811D01*
X132359942Y-65461086D01*
X132344539Y-65302463D01*
X132307765Y-65200040D01*
X132271742Y-65155266D01*
X132142775Y-65065163D01*
X132025832Y-65052890D01*
X131933280Y-65107953D01*
X131874919Y-65162873D01*
X131853885Y-65161467D01*
X131851104Y-65110115D01*
X131876830Y-65037123D01*
X131942931Y-64935088D01*
X132001341Y-64864229D01*
X132151578Y-64698228D01*
X132162979Y-64194114D01*
X132166904Y-63987305D01*
X132166768Y-63849899D01*
X132161333Y-63771348D01*
X132149362Y-63741104D01*
X132129614Y-63748620D01*
X132112900Y-63767645D01*
X132065660Y-63815318D01*
X132055271Y-63793273D01*
X132081670Y-63702794D01*
X132112002Y-63625006D01*
X132702839Y-63625006D01*
X132732187Y-63605834D01*
X132737464Y-63600666D01*
X132769109Y-63548222D01*
X132764818Y-63528941D01*
X132735016Y-63540945D01*
X132715037Y-63578274D01*
X132702839Y-63625006D01*
X132112002Y-63625006D01*
X132121530Y-63600570D01*
X132173778Y-63498936D01*
X132225192Y-63437962D01*
X132243991Y-63430149D01*
X132272076Y-63414905D01*
X132246682Y-63359733D01*
X132233976Y-63341099D01*
X132207064Y-63284517D01*
X132188580Y-63195984D01*
X132177194Y-63062317D01*
X132171574Y-62870334D01*
X132170391Y-62711099D01*
X132168455Y-62490685D01*
X132163302Y-62342475D01*
X132154167Y-62258713D01*
X132140283Y-62231640D01*
X132124533Y-62246787D01*
X132098981Y-62328521D01*
X132080927Y-62456712D01*
X132075672Y-62552849D01*
X132068916Y-62691784D01*
X132053044Y-62753214D01*
X132024793Y-62739419D01*
X131980900Y-62652680D01*
X131969951Y-62626763D01*
X131949170Y-62563878D01*
X131944028Y-62496990D01*
X131957232Y-62408461D01*
X131991489Y-62280650D01*
X132049506Y-62095919D01*
X132053160Y-62084624D01*
X132112459Y-61896586D01*
X132147909Y-61766236D01*
X132162223Y-61675789D01*
X132158115Y-61607455D01*
X132138295Y-61543449D01*
X132136409Y-61538719D01*
X132094560Y-61425330D01*
X132065792Y-61331196D01*
X132065504Y-61330000D01*
X132060205Y-61287693D01*
X132083767Y-61312460D01*
X132107584Y-61350000D01*
X132168770Y-61450000D01*
X132170190Y-61301027D01*
X132159961Y-61193008D01*
X132113042Y-61127573D01*
X132049699Y-61089111D01*
X131978216Y-61032507D01*
X132822505Y-61032507D01*
X132829296Y-61043239D01*
X132858880Y-60987907D01*
X132890925Y-60919563D01*
X132974005Y-60787473D01*
X133068631Y-60711802D01*
X133074180Y-60709563D01*
X133198037Y-60678503D01*
X133288327Y-60670000D01*
X133401572Y-60648340D01*
X133476018Y-60610760D01*
X133527307Y-60561703D01*
X133514160Y-60526415D01*
X133493691Y-60511372D01*
X133377661Y-60473132D01*
X133257723Y-60491446D01*
X133198941Y-60530000D01*
X133115991Y-60574233D01*
X133020343Y-60590000D01*
X132958989Y-60594202D01*
X132917345Y-60616756D01*
X132887829Y-60672584D01*
X132862856Y-60776607D01*
X132834841Y-60943748D01*
X132832287Y-60960000D01*
X132822505Y-61032507D01*
X131978216Y-61032507D01*
X131952765Y-61012354D01*
X131884009Y-60909850D01*
X131859699Y-60809683D01*
X131867124Y-60773940D01*
X131890249Y-60771397D01*
X131913175Y-60820000D01*
X131960596Y-60896682D01*
X132036591Y-60899512D01*
X132085744Y-60874387D01*
X132116309Y-60834799D01*
X132095760Y-60812639D01*
X132061978Y-60754865D01*
X132056067Y-60697639D01*
X132062723Y-60644190D01*
X132075625Y-60667506D01*
X132079036Y-60679999D01*
X132104638Y-60731143D01*
X132153018Y-60742406D01*
X132236629Y-60711026D01*
X132367924Y-60634239D01*
X132411988Y-60606122D01*
X132488693Y-60556666D01*
X132812619Y-60556666D01*
X132816890Y-60618040D01*
X132823955Y-60626666D01*
X132854739Y-60585004D01*
X132888955Y-60540000D01*
X132921415Y-60486459D01*
X132895305Y-60470502D01*
X132877619Y-60470000D01*
X132823776Y-60503557D01*
X132812619Y-60556666D01*
X132488693Y-60556666D01*
X132632335Y-60464052D01*
X132371925Y-60485589D01*
X132103030Y-60507574D01*
X131905966Y-60522892D01*
X131772747Y-60531879D01*
X131695383Y-60534871D01*
X131665889Y-60532204D01*
X131676276Y-60524213D01*
X131710884Y-60513377D01*
X131755272Y-60496295D01*
X131739082Y-60485017D01*
X131655563Y-60478182D01*
X131518763Y-60474732D01*
X131354433Y-60469284D01*
X131247481Y-60455227D01*
X131217164Y-60443333D01*
X132986225Y-60443333D01*
X132991725Y-60467113D01*
X133012934Y-60470000D01*
X133045911Y-60455364D01*
X133039643Y-60443333D01*
X132992097Y-60438546D01*
X132986225Y-60443333D01*
X131217164Y-60443333D01*
X131175211Y-60426874D01*
X131114928Y-60378537D01*
X131108116Y-60371818D01*
X131040939Y-60278500D01*
X131012309Y-60186295D01*
X131012319Y-60181818D01*
X131014858Y-60090000D01*
X131051091Y-60179999D01*
X131096216Y-60255488D01*
X131156342Y-60259545D01*
X131209760Y-60231053D01*
X131247627Y-60188383D01*
X131219776Y-60143665D01*
X131175834Y-60068018D01*
X131170032Y-60034354D01*
X131181135Y-60004539D01*
X131220177Y-60042305D01*
X131227780Y-60052354D01*
X131282303Y-60104618D01*
X131339954Y-60091665D01*
X131357985Y-60079904D01*
X131432131Y-60034097D01*
X131509794Y-60002462D01*
X131605400Y-59983564D01*
X131733370Y-59975967D01*
X131908130Y-59978236D01*
X132144103Y-59988935D01*
X132226774Y-59993451D01*
X132473329Y-60006124D01*
X132653920Y-60012067D01*
X132782468Y-60010769D01*
X132872892Y-60001715D01*
X132939112Y-59984392D01*
X132981368Y-59965613D01*
X133145225Y-59921708D01*
X133228565Y-59929333D01*
G37*
G36*
X139239781Y-59550000D02*
G01*
X139259138Y-59752809D01*
X139280145Y-59981557D01*
X139296056Y-60161490D01*
X139319234Y-60348644D01*
X139354583Y-60467054D01*
X139408990Y-60527799D01*
X139489339Y-60541961D01*
X139529545Y-60537191D01*
X139593376Y-60541553D01*
X139596268Y-60573906D01*
X139544308Y-60622336D01*
X139497643Y-60637661D01*
X139444491Y-60653715D01*
X139451742Y-60691909D01*
X139478559Y-60730000D01*
X139531228Y-60783643D01*
X139587837Y-60778247D01*
X139630920Y-60754742D01*
X139723502Y-60699484D01*
X139626376Y-60804742D01*
X139514584Y-60886971D01*
X139420331Y-60910000D01*
X139342844Y-60922239D01*
X139295150Y-60968516D01*
X139270691Y-61063170D01*
X139262912Y-61220540D01*
X139262776Y-61254556D01*
X139251107Y-61410654D01*
X139221481Y-61559820D01*
X139202156Y-61617426D01*
X139167246Y-61712879D01*
X139155187Y-61771646D01*
X139157078Y-61777801D01*
X139180242Y-61757328D01*
X139215646Y-61684600D01*
X139253987Y-61584415D01*
X139285964Y-61481572D01*
X139302275Y-61400870D01*
X139302839Y-61389190D01*
X139320089Y-61324637D01*
X139343666Y-61310000D01*
X139364640Y-61344196D01*
X139353373Y-61438729D01*
X139311671Y-61581517D01*
X139296973Y-61622603D01*
X139275867Y-61719604D01*
X139263690Y-61852576D01*
X139262530Y-61902603D01*
X139249863Y-62042955D01*
X139218447Y-62168556D01*
X139204811Y-62200000D01*
X139174535Y-62275475D01*
X139178845Y-62309804D01*
X139180740Y-62310000D01*
X139224498Y-62341080D01*
X139234820Y-62360000D01*
X139263142Y-62427213D01*
X139307566Y-62531486D01*
X139319771Y-62560000D01*
X139351321Y-62652432D01*
X139353740Y-62705236D01*
X139346378Y-62710000D01*
X139305833Y-62677043D01*
X139290393Y-62640000D01*
X139281845Y-62645308D01*
X139273950Y-62717119D01*
X139267860Y-62841939D01*
X139265665Y-62930000D01*
X139256666Y-63112577D01*
X139238329Y-63283044D01*
X139214098Y-63412151D01*
X139205644Y-63440000D01*
X139175294Y-63533899D01*
X139164642Y-63586156D01*
X139166525Y-63590000D01*
X139200117Y-63555649D01*
X139245117Y-63469306D01*
X139291397Y-63356036D01*
X139328829Y-63240904D01*
X139347285Y-63148973D01*
X139347714Y-63141593D01*
X139351906Y-63067153D01*
X139360324Y-63057774D01*
X139378283Y-63118489D01*
X139394768Y-63186148D01*
X139413835Y-63293263D01*
X139410949Y-63393057D01*
X139382720Y-63514881D01*
X139342335Y-63639953D01*
X139294737Y-63785776D01*
X139271282Y-63891520D01*
X139270097Y-63990056D01*
X139289309Y-64114255D01*
X139309647Y-64213804D01*
X139335280Y-64354544D01*
X139347033Y-64459052D01*
X139342966Y-64508410D01*
X139340024Y-64510000D01*
X139308836Y-64476152D01*
X139291050Y-64420000D01*
X139278936Y-64374972D01*
X139272715Y-64405218D01*
X139271160Y-64450000D01*
X139291361Y-64568823D01*
X139343572Y-64688204D01*
X139344701Y-64690000D01*
X139452483Y-64868347D01*
X139518709Y-65003703D01*
X139550689Y-65116478D01*
X139555731Y-65227083D01*
X139552389Y-65270000D01*
X139523162Y-65425808D01*
X139475546Y-65522510D01*
X139424475Y-65550000D01*
X139412763Y-65514783D01*
X139415999Y-65425534D01*
X139423029Y-65370000D01*
X139433281Y-65263388D01*
X139428008Y-65198831D01*
X139419954Y-65190000D01*
X139316534Y-65222589D01*
X139265210Y-65310816D01*
X139262163Y-65344279D01*
X139250896Y-65448078D01*
X139224887Y-65509320D01*
X139193716Y-65515240D01*
X139170205Y-65466803D01*
X139144240Y-65405619D01*
X139103186Y-65413843D01*
X139084520Y-65428319D01*
X139040837Y-65502454D01*
X139022400Y-65609090D01*
X139022398Y-65610304D01*
X139011018Y-65713752D01*
X138981929Y-65852169D01*
X138942710Y-65997686D01*
X138900939Y-66122436D01*
X138864194Y-66198553D01*
X138861514Y-66201923D01*
X138846374Y-66180255D01*
X138829440Y-66094960D01*
X138813588Y-65962274D01*
X138808377Y-65901923D01*
X138795881Y-65720629D01*
X138786627Y-65546427D01*
X138782362Y-65413013D01*
X138782259Y-65398181D01*
X138764983Y-65255562D01*
X138704692Y-65150534D01*
X138683683Y-65128181D01*
X138572283Y-65051344D01*
X138462719Y-65031887D01*
X138375348Y-65070298D01*
X138342574Y-65120000D01*
X138316680Y-65177719D01*
X138306577Y-65164786D01*
X138303802Y-65097745D01*
X138337270Y-64976167D01*
X138424449Y-64873153D01*
X138524195Y-64746538D01*
X138583745Y-64605408D01*
X138601624Y-64491335D01*
X138613528Y-64341372D01*
X138619500Y-64174314D01*
X138619583Y-64008951D01*
X138613819Y-63864076D01*
X138602252Y-63758482D01*
X138584924Y-63710959D01*
X138581704Y-63710000D01*
X138546183Y-63743153D01*
X138538478Y-63780000D01*
X138530405Y-63821989D01*
X138512901Y-63793390D01*
X138517433Y-63725449D01*
X138553518Y-63622666D01*
X138607144Y-63516004D01*
X138664297Y-63436425D01*
X138681143Y-63421665D01*
X138694329Y-63374744D01*
X138671511Y-63343665D01*
X138646999Y-63282182D01*
X138630935Y-63152417D01*
X138622906Y-62949911D01*
X138621767Y-62805271D01*
X138619028Y-62546147D01*
X138610572Y-62365418D01*
X138596041Y-62261661D01*
X138575079Y-62233450D01*
X138547326Y-62279360D01*
X138515979Y-62383921D01*
X138485636Y-62557833D01*
X138498880Y-62682236D01*
X138502467Y-62692336D01*
X138535928Y-62791907D01*
X138533194Y-62820164D01*
X138494128Y-62777232D01*
X138461515Y-62730000D01*
X138408649Y-62627836D01*
X138387694Y-62516788D01*
X138399723Y-62380383D01*
X138445808Y-62202147D01*
X138507891Y-62018452D01*
X138566372Y-61852065D01*
X138599702Y-61740773D01*
X138610325Y-61664563D01*
X138600685Y-61603424D01*
X138573225Y-61537344D01*
X138567985Y-61526324D01*
X138524779Y-61417337D01*
X138504371Y-61329038D01*
X138504117Y-61318642D01*
X138512644Y-61284610D01*
X138536434Y-61324388D01*
X138542889Y-61340000D01*
X138583326Y-61416664D01*
X138610061Y-61414829D01*
X138621467Y-61335081D01*
X138621767Y-61311577D01*
X138601293Y-61208379D01*
X138557858Y-61141577D01*
X138416039Y-61017807D01*
X138334708Y-60921397D01*
X138304484Y-60840542D01*
X138303802Y-60821818D01*
X138306341Y-60730000D01*
X138342574Y-60820000D01*
X138398928Y-60892214D01*
X138470217Y-60907153D01*
X138523767Y-60866514D01*
X138523738Y-60804264D01*
X138506099Y-60778514D01*
X138465364Y-60702375D01*
X138461515Y-60674354D01*
X138472618Y-60644539D01*
X138511660Y-60682305D01*
X138519263Y-60692354D01*
X138588409Y-60744979D01*
X138655799Y-60722699D01*
X138716070Y-60630529D01*
X138763859Y-60473486D01*
X138766383Y-60461263D01*
X138795754Y-60331273D01*
X138824066Y-60231457D01*
X138838858Y-60195260D01*
X138882578Y-60149175D01*
X138907374Y-60174609D01*
X138909986Y-60264621D01*
X138902209Y-60329999D01*
X138891013Y-60448685D01*
X138905475Y-60503107D01*
X138924305Y-60509999D01*
X138970616Y-60490410D01*
X139000696Y-60424430D01*
X139017099Y-60301247D01*
X139022379Y-60110044D01*
X139022398Y-60094519D01*
X139056514Y-59747617D01*
X139116359Y-59527791D01*
X139210320Y-59250000D01*
X139239781Y-59550000D01*
G37*
G36*
X140597317Y-59710000D02*
G01*
X140617762Y-59956349D01*
X140640689Y-60132958D01*
X140669072Y-60250086D01*
X140705886Y-60317992D01*
X140754107Y-60346933D01*
X140782921Y-60350000D01*
X140885319Y-60317374D01*
X140966588Y-60256996D01*
X141188773Y-60256996D01*
X141210786Y-60328453D01*
X141240479Y-60374520D01*
X141254521Y-60374725D01*
X141252302Y-60329989D01*
X141230758Y-60283000D01*
X141195334Y-60236008D01*
X141188773Y-60256996D01*
X140966588Y-60256996D01*
X140995370Y-60235613D01*
X141088831Y-60128892D01*
X141141457Y-60021387D01*
X141145742Y-59988216D01*
X141160799Y-59895763D01*
X141192613Y-59845798D01*
X141222820Y-59843871D01*
X141214394Y-59882157D01*
X141206831Y-59950413D01*
X141254047Y-59965055D01*
X141351309Y-59926037D01*
X141420599Y-59884194D01*
X141525289Y-59802483D01*
X141593632Y-59706497D01*
X141647729Y-59564565D01*
X141650936Y-59554121D01*
X141705380Y-59391565D01*
X141745889Y-59307554D01*
X141772682Y-59301891D01*
X141785979Y-59374379D01*
X141787616Y-59432000D01*
X141794187Y-59556257D01*
X141810854Y-59727347D01*
X141834366Y-59913221D01*
X141841136Y-59959596D01*
X141889916Y-60200486D01*
X141952452Y-60364145D01*
X142029594Y-60452296D01*
X142092405Y-60470000D01*
X142124689Y-60449929D01*
X142448533Y-60449929D01*
X142477966Y-60468953D01*
X142507547Y-60470000D01*
X142574739Y-60441884D01*
X142588013Y-60390000D01*
X142575241Y-60324944D01*
X142557587Y-60310000D01*
X142515128Y-60339985D01*
X142477121Y-60390000D01*
X142448533Y-60449929D01*
X142124689Y-60449929D01*
X142151461Y-60433285D01*
X142211083Y-60335104D01*
X142239226Y-60256996D01*
X142631044Y-60256996D01*
X142653057Y-60328453D01*
X142682750Y-60374520D01*
X142696792Y-60374725D01*
X142694574Y-60329989D01*
X142673030Y-60283000D01*
X142637606Y-60236008D01*
X142631044Y-60256996D01*
X142239226Y-60256996D01*
X142262138Y-60193405D01*
X142285770Y-60090000D01*
X142314152Y-59975335D01*
X142348200Y-59891618D01*
X142356125Y-59879999D01*
X142408758Y-59837902D01*
X142447878Y-59834455D01*
X142447223Y-59870386D01*
X142443095Y-59877587D01*
X142421253Y-59948746D01*
X142409345Y-60054570D01*
X142409237Y-60057587D01*
X142417383Y-60153144D01*
X142455824Y-60188576D01*
X142472107Y-60189999D01*
X142544575Y-60154117D01*
X142582686Y-60049975D01*
X142588013Y-59969089D01*
X142603276Y-59885691D01*
X142628076Y-59850000D01*
X142659202Y-59862689D01*
X142668139Y-59910972D01*
X142670830Y-59961746D01*
X142689530Y-59978548D01*
X142740176Y-59958816D01*
X142838708Y-59899989D01*
X142874360Y-59877835D01*
X142979417Y-59792748D01*
X143051356Y-59677386D01*
X143088564Y-59578470D01*
X143132207Y-59451470D01*
X143170391Y-59351584D01*
X143186681Y-59315946D01*
X143204426Y-59320985D01*
X143221182Y-59388083D01*
X143235530Y-59499303D01*
X143246050Y-59636706D01*
X143251323Y-59782351D01*
X143249930Y-59918302D01*
X143242045Y-60015807D01*
X143233334Y-60125399D01*
X143253489Y-60203045D01*
X143315495Y-60283207D01*
X143359965Y-60328736D01*
X143477018Y-60417942D01*
X143599415Y-60467937D01*
X143707851Y-60475611D01*
X143783019Y-60437854D01*
X143802352Y-60400000D01*
X143816811Y-60365233D01*
X143824502Y-60407072D01*
X143825321Y-60421255D01*
X143804449Y-60502605D01*
X143766515Y-60536821D01*
X143726099Y-60563942D01*
X143756499Y-60594954D01*
X143854893Y-60628069D01*
X143934557Y-60605345D01*
X143964421Y-60560000D01*
X143976053Y-60544075D01*
X143978021Y-60597236D01*
X143977374Y-60609459D01*
X143944440Y-60717286D01*
X143849554Y-60804354D01*
X143841528Y-60809459D01*
X143712866Y-60890000D01*
X143711323Y-61347645D01*
X143711585Y-61542766D01*
X143715022Y-61668624D01*
X143723251Y-61735940D01*
X143737886Y-61755436D01*
X143760545Y-61737831D01*
X143768600Y-61727645D01*
X143812830Y-61680588D01*
X143828695Y-61682194D01*
X143813193Y-61745594D01*
X143772571Y-61842214D01*
X143720174Y-61945872D01*
X143669347Y-62030387D01*
X143633433Y-62069579D01*
X143631028Y-62070000D01*
X143621601Y-62100079D01*
X143648318Y-62173173D01*
X143651814Y-62180000D01*
X143679163Y-62264679D01*
X143698023Y-62402816D01*
X143709269Y-62603652D01*
X143713494Y-62830000D01*
X143715478Y-63045223D01*
X143718435Y-63188749D01*
X143723802Y-63268881D01*
X143733018Y-63293919D01*
X143747521Y-63272166D01*
X143768750Y-63211924D01*
X143775866Y-63190000D01*
X143807518Y-63047014D01*
X143816232Y-62907436D01*
X143812944Y-62870509D01*
X143791858Y-62731018D01*
X143870744Y-62850509D01*
X143917943Y-62930376D01*
X143940950Y-63004161D01*
X143938462Y-63090609D01*
X143909175Y-63208464D01*
X143851783Y-63376470D01*
X143829969Y-63436504D01*
X143762734Y-63629662D01*
X143725235Y-63770366D01*
X143715519Y-63879644D01*
X143731636Y-63978519D01*
X143769874Y-64083830D01*
X143815573Y-64204571D01*
X143825058Y-64260176D01*
X143798352Y-64248186D01*
X143768600Y-64212354D01*
X143727336Y-64164167D01*
X143711978Y-64179723D01*
X143709781Y-64252354D01*
X143733645Y-64355291D01*
X143814989Y-64452362D01*
X143850002Y-64481705D01*
X143951954Y-64586511D01*
X143985634Y-64680370D01*
X143985574Y-64681705D01*
X143978877Y-64735341D01*
X143965932Y-64712180D01*
X143962605Y-64700000D01*
X143917674Y-64638223D01*
X143837827Y-64645693D01*
X143789906Y-64673657D01*
X143753631Y-64713575D01*
X143779890Y-64736378D01*
X143819650Y-64787954D01*
X143828751Y-64843333D01*
X143823623Y-64902023D01*
X143802384Y-64885893D01*
X143786697Y-64860000D01*
X143724160Y-64801607D01*
X143656553Y-64809846D01*
X143596769Y-64873386D01*
X143557703Y-64980894D01*
X143549527Y-65068425D01*
X143527890Y-65206421D01*
X143476012Y-65311781D01*
X143402497Y-65402425D01*
X143410267Y-65216212D01*
X143406776Y-65088638D01*
X143383619Y-65035577D01*
X143342340Y-65058520D01*
X143306142Y-65115608D01*
X143280151Y-65223771D01*
X143284115Y-65379596D01*
X143286338Y-65397546D01*
X143293010Y-65545755D01*
X143271271Y-65712044D01*
X143221102Y-65911937D01*
X143165030Y-66091806D01*
X143122145Y-66195686D01*
X143092991Y-66222871D01*
X143078110Y-66172657D01*
X143076321Y-66100000D01*
X143073036Y-65939456D01*
X143060692Y-65751121D01*
X143041569Y-65553637D01*
X143017947Y-65365646D01*
X142992104Y-65205788D01*
X142966322Y-65092706D01*
X142947796Y-65049055D01*
X142867012Y-65002093D01*
X142775672Y-65006527D01*
X142698663Y-65017425D01*
X142686476Y-65000284D01*
X142708223Y-64969975D01*
X142776430Y-64919158D01*
X142813265Y-64910000D01*
X142863450Y-64887748D01*
X142851592Y-64834139D01*
X142815419Y-64795849D01*
X142751106Y-64774534D01*
X142707717Y-64800951D01*
X142681336Y-64816030D01*
X142703326Y-64769580D01*
X142715265Y-64750000D01*
X142792477Y-64671970D01*
X142873046Y-64637170D01*
X142945142Y-64619722D01*
X142997249Y-64582117D01*
X143032537Y-64512972D01*
X143054176Y-64400906D01*
X143065337Y-64234539D01*
X143069190Y-64002488D01*
X143069384Y-63932354D01*
X143071968Y-63724867D01*
X143078635Y-63543810D01*
X143088463Y-63405368D01*
X143100528Y-63325725D01*
X143104572Y-63315514D01*
X143107656Y-63239534D01*
X143055740Y-63115915D01*
X143044346Y-63095514D01*
X142987460Y-62984496D01*
X142954845Y-62898341D01*
X142948854Y-62849975D01*
X142971837Y-62852325D01*
X143007401Y-62892354D01*
X143033247Y-62919309D01*
X143050319Y-62911463D01*
X143060468Y-62857914D01*
X143065540Y-62747760D01*
X143067386Y-62570100D01*
X143067496Y-62538013D01*
X143073149Y-62300043D01*
X143089360Y-62129897D01*
X143117452Y-62015933D01*
X143129893Y-61988013D01*
X143165612Y-61908805D01*
X143172403Y-61870622D01*
X143170631Y-61870000D01*
X143142971Y-61902595D01*
X143092855Y-61986751D01*
X143048679Y-62070116D01*
X142979397Y-62242198D01*
X142971223Y-62365885D01*
X142972221Y-62370116D01*
X142977320Y-62448583D01*
X142952924Y-62470000D01*
X142916038Y-62449538D01*
X142916150Y-62440000D01*
X142912973Y-62383525D01*
X142894799Y-62288149D01*
X142893732Y-62283622D01*
X142886334Y-62179879D01*
X142910438Y-62042121D01*
X142967721Y-61856290D01*
X143019023Y-61702891D01*
X143045722Y-61595144D01*
X143050047Y-61503322D01*
X143034227Y-61397695D01*
X143010170Y-61290186D01*
X142972578Y-61116721D01*
X142955289Y-61009393D01*
X142958324Y-60971264D01*
X142981703Y-61005397D01*
X143008675Y-61070000D01*
X143062674Y-61210000D01*
X143065109Y-61010000D01*
X143061088Y-60902512D01*
X143047426Y-60854940D01*
X143035042Y-60861135D01*
X143001805Y-60878105D01*
X142961992Y-60822852D01*
X142954524Y-60807050D01*
X142905905Y-60733043D01*
X142837381Y-60719840D01*
X142797339Y-60727421D01*
X142680728Y-60780875D01*
X142587176Y-60868970D01*
X142536555Y-60968764D01*
X142536086Y-61029023D01*
X142538917Y-61104477D01*
X142527877Y-61234762D01*
X142505252Y-61396353D01*
X142494168Y-61460651D01*
X142461064Y-61654424D01*
X142430885Y-61851146D01*
X142409242Y-62013829D01*
X142406394Y-62039369D01*
X142381831Y-62194787D01*
X142349513Y-62282535D01*
X142311845Y-62297785D01*
X142289701Y-62273491D01*
X142283453Y-62214143D01*
X142295419Y-62109619D01*
X142304688Y-62062839D01*
X142336800Y-61918761D01*
X142374776Y-61749030D01*
X142392509Y-61670000D01*
X142423771Y-61507231D01*
X142448031Y-61335914D01*
X142464313Y-61171685D01*
X142471640Y-61030184D01*
X142469036Y-60927048D01*
X142455524Y-60877917D01*
X142441776Y-60880865D01*
X142384413Y-60979692D01*
X142334360Y-61139018D01*
X142295678Y-61339409D01*
X142272429Y-61561428D01*
X142267508Y-61714656D01*
X142263246Y-61886644D01*
X142251901Y-62038312D01*
X142235632Y-62144031D01*
X142229594Y-62164357D01*
X142215178Y-62245529D01*
X142236802Y-62344558D01*
X142289689Y-62466764D01*
X142350669Y-62595602D01*
X142379693Y-62668604D01*
X142380689Y-62701462D01*
X142357584Y-62709871D01*
X142350572Y-62710000D01*
X142310487Y-62677050D01*
X142295125Y-62640000D01*
X142287055Y-62646569D01*
X142279825Y-62719867D01*
X142274386Y-62846625D01*
X142272156Y-62960000D01*
X142272284Y-63125599D01*
X142276385Y-63256284D01*
X142283693Y-63334910D01*
X142289584Y-63350000D01*
X142321963Y-63315429D01*
X142361902Y-63229646D01*
X142399623Y-63119541D01*
X142425349Y-63012006D01*
X142430923Y-62961284D01*
X142434086Y-62850000D01*
X142475359Y-62963097D01*
X142490961Y-63032615D01*
X142485576Y-63117099D01*
X142455769Y-63235551D01*
X142398104Y-63406978D01*
X142392070Y-63423867D01*
X142324792Y-63619341D01*
X142285850Y-63760929D01*
X142273291Y-63868814D01*
X142285165Y-63963174D01*
X142319521Y-64064192D01*
X142328140Y-64085115D01*
X142357837Y-64175808D01*
X142358331Y-64226285D01*
X142351511Y-64230000D01*
X142304352Y-64198747D01*
X142294041Y-64180000D01*
X142279475Y-64178148D01*
X142270992Y-64240500D01*
X142270672Y-64250000D01*
X142288148Y-64348709D01*
X142357112Y-64438326D01*
X142407730Y-64481705D01*
X142509683Y-64586511D01*
X142543363Y-64680370D01*
X142543302Y-64681705D01*
X142536606Y-64735341D01*
X142523661Y-64712180D01*
X142520333Y-64700000D01*
X142475403Y-64638223D01*
X142395555Y-64645693D01*
X142347634Y-64673657D01*
X142311359Y-64713575D01*
X142337619Y-64736378D01*
X142377378Y-64787954D01*
X142386479Y-64843333D01*
X142381352Y-64902023D01*
X142360113Y-64885893D01*
X142344425Y-64860000D01*
X142281889Y-64801607D01*
X142214282Y-64809846D01*
X142154498Y-64873386D01*
X142115431Y-64980894D01*
X142107256Y-65068425D01*
X142085618Y-65206421D01*
X142033741Y-65311781D01*
X141960226Y-65402425D01*
X141967996Y-65216212D01*
X141964505Y-65088638D01*
X141941348Y-65035577D01*
X141900069Y-65058520D01*
X141863871Y-65115608D01*
X141837880Y-65223771D01*
X141841844Y-65379596D01*
X141844067Y-65397546D01*
X141850739Y-65545755D01*
X141829000Y-65712044D01*
X141778831Y-65911937D01*
X141722894Y-66091356D01*
X141680035Y-66195360D01*
X141650904Y-66223102D01*
X141636147Y-66173739D01*
X141634569Y-66100000D01*
X141631544Y-65985319D01*
X141621083Y-65818454D01*
X141605464Y-65626628D01*
X141586964Y-65437068D01*
X141567861Y-65276997D01*
X141562731Y-65241285D01*
X141515924Y-65098393D01*
X141432664Y-65018261D01*
X141320529Y-65007924D01*
X141313270Y-65009622D01*
X141245165Y-65021925D01*
X141242075Y-65000979D01*
X141263840Y-64972515D01*
X141332172Y-64920302D01*
X141370994Y-64910000D01*
X141421179Y-64887748D01*
X141409320Y-64834139D01*
X141373148Y-64795849D01*
X141308835Y-64774534D01*
X141265446Y-64800951D01*
X141239065Y-64816030D01*
X141261055Y-64769580D01*
X141272993Y-64750000D01*
X141350206Y-64671970D01*
X141430774Y-64637170D01*
X141502871Y-64619722D01*
X141554978Y-64582117D01*
X141590266Y-64512972D01*
X141611905Y-64400906D01*
X141623066Y-64234539D01*
X141626919Y-64002488D01*
X141627112Y-63932354D01*
X141629697Y-63724867D01*
X141636364Y-63543810D01*
X141646192Y-63405368D01*
X141658256Y-63325725D01*
X141662301Y-63315514D01*
X141665384Y-63239534D01*
X141613468Y-63115915D01*
X141602075Y-63095514D01*
X141545188Y-62984496D01*
X141512574Y-62898341D01*
X141506583Y-62849975D01*
X141529566Y-62852325D01*
X141565130Y-62892354D01*
X141590358Y-62918481D01*
X141607267Y-62910642D01*
X141617547Y-62858116D01*
X141622889Y-62750180D01*
X141624982Y-62576111D01*
X141625225Y-62511099D01*
X141625106Y-62315727D01*
X141622230Y-62189714D01*
X141614766Y-62122421D01*
X141600880Y-62103214D01*
X141578740Y-62121454D01*
X141562004Y-62144133D01*
X141515744Y-62276616D01*
X141520939Y-62353033D01*
X141527574Y-62434987D01*
X141510998Y-62469983D01*
X141510428Y-62470000D01*
X141483627Y-62434656D01*
X141457599Y-62346234D01*
X141450653Y-62308693D01*
X141445155Y-62184276D01*
X141470193Y-62037334D01*
X141527321Y-61850875D01*
X141578087Y-61699137D01*
X141604137Y-61593726D01*
X141607537Y-61505571D01*
X141590355Y-61405600D01*
X141565914Y-61308113D01*
X141534921Y-61168575D01*
X141518642Y-61053531D01*
X141519541Y-60995931D01*
X141534009Y-60960558D01*
X141541783Y-61002016D01*
X141542339Y-61010000D01*
X141566129Y-61108754D01*
X141586436Y-61150000D01*
X141610085Y-61163661D01*
X141622430Y-61108460D01*
X141625272Y-61010000D01*
X141621880Y-60942360D01*
X142269433Y-60942360D01*
X142272764Y-61007482D01*
X142286333Y-61011438D01*
X142320552Y-60949587D01*
X142339543Y-60911109D01*
X142411176Y-60804976D01*
X142496852Y-60727856D01*
X142507887Y-60721699D01*
X142627285Y-60682104D01*
X142718218Y-60670589D01*
X142805916Y-60646781D01*
X142826977Y-60588882D01*
X142775026Y-60515575D01*
X142711623Y-60494718D01*
X142644821Y-60529405D01*
X142545407Y-60574615D01*
X142457808Y-60588727D01*
X142376329Y-60603316D01*
X142348879Y-60658583D01*
X142347634Y-60687639D01*
X142332863Y-60772335D01*
X142307571Y-60810000D01*
X142278352Y-60864508D01*
X142269433Y-60942360D01*
X141621880Y-60942360D01*
X141619850Y-60901864D01*
X141605284Y-60854666D01*
X141592771Y-60861135D01*
X141559530Y-60878733D01*
X141520214Y-60824053D01*
X141513717Y-60810258D01*
X141464858Y-60738023D01*
X141393217Y-60726274D01*
X141356532Y-60733090D01*
X141241745Y-60783893D01*
X141147576Y-60868196D01*
X141094483Y-60963520D01*
X141092334Y-61023371D01*
X141094418Y-61096561D01*
X141082418Y-61224395D01*
X141058804Y-61383246D01*
X141048947Y-61438116D01*
X141019386Y-61609002D01*
X140997107Y-61763261D01*
X140985902Y-61873782D01*
X140985266Y-61893117D01*
X140975360Y-62015381D01*
X140950512Y-62134805D01*
X140917363Y-62230736D01*
X140882548Y-62282521D01*
X140860521Y-62281228D01*
X140842391Y-62211962D01*
X140858073Y-62082091D01*
X140861454Y-62066432D01*
X140894216Y-61919867D01*
X140932620Y-61748479D01*
X140950237Y-61670000D01*
X140981500Y-61507231D01*
X141005760Y-61335914D01*
X141022042Y-61171685D01*
X141029369Y-61030184D01*
X141026765Y-60927048D01*
X141013253Y-60877917D01*
X140999505Y-60880865D01*
X140942142Y-60979692D01*
X140892088Y-61139018D01*
X140853406Y-61339409D01*
X140830158Y-61561428D01*
X140825237Y-61714656D01*
X140820613Y-61887979D01*
X140808309Y-62042288D01*
X140790675Y-62151296D01*
X140784313Y-62172261D01*
X140764823Y-62268378D01*
X140777971Y-62324865D01*
X140820459Y-62398314D01*
X140863099Y-62498612D01*
X140897433Y-62600695D01*
X140915000Y-62679502D01*
X140907976Y-62710000D01*
X140868169Y-62677055D01*
X140852853Y-62640000D01*
X140844598Y-62645799D01*
X140837245Y-62718186D01*
X140831819Y-62843750D01*
X140829884Y-62941284D01*
X140820148Y-63154309D01*
X140798339Y-63331668D01*
X140767187Y-63451284D01*
X140734031Y-63540083D01*
X140724119Y-63587533D01*
X140726309Y-63589999D01*
X140761215Y-63555618D01*
X140807274Y-63469134D01*
X140854239Y-63355539D01*
X140891862Y-63239824D01*
X140909896Y-63146982D01*
X140910174Y-63141593D01*
X140914366Y-63067153D01*
X140922785Y-63057774D01*
X140940744Y-63118489D01*
X140957229Y-63186148D01*
X140976338Y-63293674D01*
X140973338Y-63393823D01*
X140944838Y-63516161D01*
X140905406Y-63638163D01*
X140856940Y-63788924D01*
X140834204Y-63899367D01*
X140834576Y-64003997D01*
X140855435Y-64137323D01*
X140864102Y-64182015D01*
X140893855Y-64327154D01*
X140920297Y-64445806D01*
X140937042Y-64510000D01*
X140940033Y-64546492D01*
X140915148Y-64530000D01*
X140870244Y-64459218D01*
X140852688Y-64410000D01*
X140841526Y-64395433D01*
X140836258Y-64448993D01*
X140836536Y-64498910D01*
X140842965Y-64597513D01*
X140854193Y-64647782D01*
X140859476Y-64649147D01*
X140874613Y-64646666D01*
X140899460Y-64673161D01*
X140942094Y-64740679D01*
X141010591Y-64861266D01*
X141052751Y-64937406D01*
X141112676Y-65080316D01*
X141122458Y-65223956D01*
X141117450Y-65272830D01*
X141095071Y-65392691D01*
X141065896Y-65481883D01*
X141055299Y-65500000D01*
X141005133Y-65541196D01*
X140965160Y-65546855D01*
X140962934Y-65514801D01*
X140967353Y-65506938D01*
X140987718Y-65441968D01*
X140998781Y-65347616D01*
X140999338Y-65255424D01*
X140988185Y-65196934D01*
X140979445Y-65190000D01*
X140879193Y-65220947D01*
X140830248Y-65312962D01*
X140825237Y-65371918D01*
X140813839Y-65474896D01*
X140786505Y-65526184D01*
X140753522Y-65515770D01*
X140731662Y-65462972D01*
X140698246Y-65409276D01*
X140653965Y-65418083D01*
X140612439Y-65475725D01*
X140587289Y-65568531D01*
X140584858Y-65610304D01*
X140573329Y-65715317D01*
X140543843Y-65854818D01*
X140504052Y-66000909D01*
X140461606Y-66125693D01*
X140424158Y-66201271D01*
X140422079Y-66203815D01*
X140408723Y-66180038D01*
X140393719Y-66090428D01*
X140378874Y-65949078D01*
X140365998Y-65770079D01*
X140365634Y-65763815D01*
X140353245Y-65571212D01*
X140340055Y-65403371D01*
X140327695Y-65279084D01*
X140318342Y-65218934D01*
X140262420Y-65129170D01*
X140168775Y-65069838D01*
X140061184Y-65045330D01*
X139963424Y-65060041D01*
X139899270Y-65118364D01*
X139891334Y-65140027D01*
X139876893Y-65170090D01*
X139868889Y-65121770D01*
X139868370Y-65111904D01*
X139896721Y-65009246D01*
X139980771Y-64893329D01*
X139987027Y-64886790D01*
X140075457Y-64767505D01*
X140138495Y-64632803D01*
X140146324Y-64604886D01*
X140164167Y-64490954D01*
X140176036Y-64341098D01*
X140181977Y-64174117D01*
X140182036Y-64008812D01*
X140176257Y-63863982D01*
X140164686Y-63758428D01*
X140147368Y-63710951D01*
X140144164Y-63710000D01*
X140108643Y-63743153D01*
X140100938Y-63780000D01*
X140092866Y-63821989D01*
X140075362Y-63793390D01*
X140079893Y-63725449D01*
X140115979Y-63622666D01*
X140169604Y-63516004D01*
X140226757Y-63436425D01*
X140243604Y-63421665D01*
X140256790Y-63374744D01*
X140233971Y-63343665D01*
X140209460Y-63282182D01*
X140193395Y-63152417D01*
X140185367Y-62949911D01*
X140184227Y-62805271D01*
X140181488Y-62546147D01*
X140173032Y-62365418D01*
X140158502Y-62261661D01*
X140137539Y-62233450D01*
X140109787Y-62279360D01*
X140078440Y-62383921D01*
X140048007Y-62558367D01*
X140060885Y-62686844D01*
X140065146Y-62699732D01*
X140104538Y-62810000D01*
X140024194Y-62715568D01*
X139971994Y-62633813D01*
X139950165Y-62536534D01*
X139959658Y-62409236D01*
X140001425Y-62237425D01*
X140069465Y-62026742D01*
X140126891Y-61856555D01*
X140159919Y-61742191D01*
X140170892Y-61664062D01*
X140162153Y-61602579D01*
X140136048Y-61538153D01*
X140129560Y-61524469D01*
X140086692Y-61415935D01*
X140066759Y-61328088D01*
X140066578Y-61318642D01*
X140075105Y-61284610D01*
X140098895Y-61324388D01*
X140105350Y-61340000D01*
X140139817Y-61410500D01*
X140163166Y-61417390D01*
X140177032Y-61356076D01*
X140183048Y-61221964D01*
X140183614Y-61120000D01*
X140179759Y-60959379D01*
X140177512Y-60942360D01*
X140827161Y-60942360D01*
X140830493Y-61007482D01*
X140844062Y-61011438D01*
X140878281Y-60949587D01*
X140897272Y-60911109D01*
X140968905Y-60804976D01*
X141054580Y-60727856D01*
X141065615Y-60721699D01*
X141185014Y-60682104D01*
X141275947Y-60670589D01*
X141363645Y-60646781D01*
X141384706Y-60588882D01*
X141359941Y-60553937D01*
X142267508Y-60553937D01*
X142290523Y-60564390D01*
X142323562Y-60541577D01*
X142364064Y-60492763D01*
X142366291Y-60475994D01*
X142326307Y-60478625D01*
X142281416Y-60518525D01*
X142267508Y-60553937D01*
X141359941Y-60553937D01*
X141332754Y-60515575D01*
X141269352Y-60494718D01*
X141202549Y-60529405D01*
X141103135Y-60574615D01*
X141015537Y-60588727D01*
X140934057Y-60603316D01*
X140906608Y-60658583D01*
X140905363Y-60687639D01*
X140890591Y-60772335D01*
X140865300Y-60810000D01*
X140836081Y-60864508D01*
X140827161Y-60942360D01*
X140177512Y-60942360D01*
X140168608Y-60874907D01*
X140149599Y-60863012D01*
X140144164Y-60870000D01*
X140112255Y-60900327D01*
X140104715Y-60886019D01*
X140083310Y-60830130D01*
X140029136Y-60734690D01*
X139984641Y-60666019D01*
X139921697Y-60538668D01*
X140829299Y-60538668D01*
X140869443Y-60530275D01*
X140877044Y-60527428D01*
X140926103Y-60495740D01*
X140926455Y-60477725D01*
X140884074Y-60482211D01*
X140854617Y-60505036D01*
X140829299Y-60538668D01*
X139921697Y-60538668D01*
X139896638Y-60487968D01*
X139889515Y-60450663D01*
X141003845Y-60450663D01*
X141041053Y-60469333D01*
X141064206Y-60470000D01*
X141132124Y-60442422D01*
X141145742Y-60390000D01*
X141129548Y-60324992D01*
X141107088Y-60310000D01*
X141059779Y-60341210D01*
X141025552Y-60390000D01*
X141003845Y-60450663D01*
X139889515Y-60450663D01*
X139861536Y-60304127D01*
X139880966Y-60136442D01*
X139937238Y-60028218D01*
X140010752Y-59937574D01*
X140002983Y-60123787D01*
X140007290Y-60253192D01*
X140034484Y-60307800D01*
X140044752Y-60310000D01*
X140110560Y-60282301D01*
X140161196Y-60221412D01*
X140170218Y-60160640D01*
X140167515Y-60155361D01*
X140159720Y-60088601D01*
X140168804Y-60052434D01*
X140193405Y-60010380D01*
X140226802Y-60033362D01*
X140246363Y-60058824D01*
X140304778Y-60102312D01*
X140355089Y-60070578D01*
X140393354Y-59968296D01*
X140410050Y-59864843D01*
X140433869Y-59722112D01*
X140473070Y-59554171D01*
X140496955Y-59470000D01*
X140564677Y-59250000D01*
X140597317Y-59710000D01*
G37*
G36*
X134908038Y-59550000D02*
G01*
X134926009Y-59714543D01*
X134939824Y-59861752D01*
X134951784Y-60020163D01*
X134964190Y-60218311D01*
X134969911Y-60317142D01*
X135006320Y-60440369D01*
X135087277Y-60520781D01*
X135194117Y-60540476D01*
X135201483Y-60539234D01*
X135263150Y-60540269D01*
X135263187Y-60568751D01*
X135207261Y-60608710D01*
X135171393Y-60623999D01*
X135119630Y-60652805D01*
X135129178Y-60697044D01*
X135153021Y-60731196D01*
X135205238Y-60783976D01*
X135262667Y-60777949D01*
X135304106Y-60755660D01*
X135396688Y-60701320D01*
X135311377Y-60789725D01*
X135210246Y-60860856D01*
X135091030Y-60905566D01*
X135020211Y-60922872D01*
X134978165Y-60951587D01*
X134955006Y-61010849D01*
X134940852Y-61119797D01*
X134933021Y-61211500D01*
X134917134Y-61368332D01*
X134898076Y-61505886D01*
X134881029Y-61590000D01*
X134863933Y-61655868D01*
X134875640Y-61650503D01*
X134900814Y-61611370D01*
X134947164Y-61513919D01*
X134981538Y-61411370D01*
X135002140Y-61335973D01*
X135007589Y-61333179D01*
X135000656Y-61406119D01*
X134998035Y-61430000D01*
X134968638Y-61670845D01*
X134936768Y-61887860D01*
X134904914Y-62067005D01*
X134875567Y-62194243D01*
X134851708Y-62254966D01*
X134834996Y-62310327D01*
X134851354Y-62327234D01*
X134901694Y-62385850D01*
X134957095Y-62486301D01*
X135000572Y-62593509D01*
X135015475Y-62666145D01*
X135009238Y-62708442D01*
X134981824Y-62678862D01*
X134976026Y-62670000D01*
X134953990Y-62662066D01*
X134941014Y-62724373D01*
X134936178Y-62861528D01*
X134936135Y-62870000D01*
X134931945Y-63037025D01*
X134922215Y-63198184D01*
X134912669Y-63290000D01*
X134900951Y-63388060D01*
X134907429Y-63418166D01*
X134937524Y-63391341D01*
X134953173Y-63372354D01*
X134997831Y-63279053D01*
X135020115Y-63159005D01*
X135020379Y-63152354D01*
X135024670Y-63010000D01*
X135063926Y-63185684D01*
X135081407Y-63300608D01*
X135074296Y-63410898D01*
X135039006Y-63548571D01*
X135015058Y-63621848D01*
X134956555Y-63841247D01*
X134946461Y-64017013D01*
X134949678Y-64046163D01*
X134979144Y-64265754D01*
X134996099Y-64411605D01*
X135000908Y-64488940D01*
X134993936Y-64502978D01*
X134979358Y-64470000D01*
X134953686Y-64406312D01*
X134942801Y-64415341D01*
X134939956Y-64452025D01*
X134959639Y-64587520D01*
X135022764Y-64693076D01*
X135114528Y-64746870D01*
X135141855Y-64749687D01*
X135284726Y-64715646D01*
X135384961Y-64617139D01*
X135436211Y-64461025D01*
X135439702Y-64427874D01*
X135461592Y-64194796D01*
X135490716Y-63958312D01*
X135524645Y-63731766D01*
X135560945Y-63528507D01*
X135597187Y-63361880D01*
X135630937Y-63245231D01*
X135659766Y-63191907D01*
X135665213Y-63190000D01*
X135688991Y-63225793D01*
X135680554Y-63329413D01*
X135678562Y-63340000D01*
X135610518Y-63703428D01*
X135559408Y-64003848D01*
X135525729Y-64237728D01*
X135509981Y-64401536D01*
X135512662Y-64491740D01*
X135514901Y-64499281D01*
X135511420Y-64578095D01*
X135487521Y-64621574D01*
X135457691Y-64666226D01*
X135487214Y-64666460D01*
X135496846Y-64663443D01*
X135562111Y-64601351D01*
X135616093Y-64461058D01*
X135658868Y-64242254D01*
X135690508Y-63944632D01*
X135699173Y-63818360D01*
X135714320Y-63620405D01*
X135733337Y-63449041D01*
X135753905Y-63321433D01*
X135773705Y-63254745D01*
X135775690Y-63251921D01*
X135799093Y-63194244D01*
X135778626Y-63170825D01*
X135736213Y-63117500D01*
X135685437Y-63020511D01*
X135641182Y-62912753D01*
X135618335Y-62827118D01*
X135617648Y-62815115D01*
X135634506Y-62803653D01*
X135657098Y-62830000D01*
X135676291Y-62828440D01*
X135688883Y-62752560D01*
X135695120Y-62600194D01*
X135695934Y-62490000D01*
X135692904Y-62296999D01*
X135683648Y-62181610D01*
X135667919Y-62141669D01*
X135657098Y-62150000D01*
X135629073Y-62229937D01*
X135613858Y-62342353D01*
X135613548Y-62350000D01*
X135608833Y-62490000D01*
X135574404Y-62350000D01*
X135558483Y-62137446D01*
X135603860Y-61914968D01*
X135646190Y-61814708D01*
X135680084Y-61720628D01*
X135684066Y-61613503D01*
X135657613Y-61468265D01*
X135637337Y-61390000D01*
X135624187Y-61327149D01*
X135640546Y-61333498D01*
X135653009Y-61350000D01*
X135681069Y-61373262D01*
X135694023Y-61332984D01*
X135696548Y-61260000D01*
X135683528Y-61148017D01*
X135643630Y-61110001D01*
X135643276Y-61110000D01*
X135579799Y-61082546D01*
X135508020Y-61020746D01*
X135461157Y-60955440D01*
X135456783Y-60936850D01*
X135490340Y-60914792D01*
X135534544Y-60910000D01*
X135616747Y-60886760D01*
X135647159Y-60832162D01*
X135621557Y-60778514D01*
X135580822Y-60702375D01*
X135576972Y-60674354D01*
X135588075Y-60644539D01*
X135627117Y-60682305D01*
X135634720Y-60692354D01*
X135703959Y-60744530D01*
X135771346Y-60723438D01*
X135829395Y-60635614D01*
X135870626Y-60487592D01*
X135870877Y-60486127D01*
X135905121Y-60320970D01*
X135943291Y-60220098D01*
X135992300Y-60167851D01*
X136016089Y-60157191D01*
X136048651Y-60161546D01*
X136036213Y-60192398D01*
X136014299Y-60258757D01*
X136001384Y-60353554D01*
X135999240Y-60445520D01*
X136009637Y-60503386D01*
X136018223Y-60509999D01*
X136079610Y-60475801D01*
X136118744Y-60371218D01*
X136136515Y-60193270D01*
X136137855Y-60109766D01*
X136162233Y-59798838D01*
X136227114Y-59547766D01*
X136316374Y-59290000D01*
X136348387Y-59550000D01*
X136368427Y-59731708D01*
X136385862Y-59922056D01*
X136393727Y-60030000D01*
X136402323Y-60170900D01*
X136409726Y-60290520D01*
X136412675Y-60337142D01*
X136451719Y-60449300D01*
X136536768Y-60523701D01*
X136643695Y-60539245D01*
X136643755Y-60539234D01*
X136705422Y-60540269D01*
X136705458Y-60568751D01*
X136649532Y-60608710D01*
X136613664Y-60623999D01*
X136561901Y-60652805D01*
X136571449Y-60697044D01*
X136595292Y-60731196D01*
X136647510Y-60783976D01*
X136704938Y-60777949D01*
X136746377Y-60755660D01*
X136838959Y-60701320D01*
X136753648Y-60789725D01*
X136652519Y-60860865D01*
X136533301Y-60905597D01*
X136398265Y-60933064D01*
X136372514Y-61231532D01*
X136353769Y-61395145D01*
X136328979Y-61541561D01*
X136303381Y-61640067D01*
X136302403Y-61642603D01*
X136266145Y-61746419D01*
X136264307Y-61779186D01*
X136292941Y-61740088D01*
X136338171Y-61650000D01*
X136386255Y-61520382D01*
X136413390Y-61397493D01*
X136415326Y-61371999D01*
X136427309Y-61293858D01*
X136457542Y-61293201D01*
X136458530Y-61294169D01*
X136475248Y-61364584D01*
X136450834Y-61502219D01*
X136442649Y-61532169D01*
X136405487Y-61690599D01*
X136373218Y-61874232D01*
X136361136Y-61967365D01*
X136341150Y-62103083D01*
X136315704Y-62208787D01*
X136296397Y-62252058D01*
X136285743Y-62312062D01*
X136317645Y-62349590D01*
X136345292Y-62390461D01*
X136363875Y-62467562D01*
X136374999Y-62593948D01*
X136380271Y-62782675D01*
X136381024Y-62864897D01*
X136383815Y-63330000D01*
X136445015Y-63130808D01*
X136481014Y-62979711D01*
X136480032Y-62860077D01*
X136463595Y-62790808D01*
X136420974Y-62650000D01*
X136498871Y-62750000D01*
X136562832Y-62888011D01*
X136569638Y-63068257D01*
X136519119Y-63296226D01*
X136478391Y-63413849D01*
X136411542Y-63613799D01*
X136383670Y-63769251D01*
X136393239Y-63904728D01*
X136438714Y-64044750D01*
X136438866Y-64045115D01*
X136468563Y-64135808D01*
X136469057Y-64186285D01*
X136462236Y-64190000D01*
X136414406Y-64158910D01*
X136403501Y-64140000D01*
X136393741Y-64151455D01*
X136387487Y-64227312D01*
X136385872Y-64352005D01*
X136386164Y-64378638D01*
X136392419Y-64515385D01*
X136405132Y-64610868D01*
X136421729Y-64647041D01*
X136424330Y-64646277D01*
X136453592Y-64658847D01*
X136458360Y-64687639D01*
X136490550Y-64734883D01*
X136570014Y-64749834D01*
X136671090Y-64733325D01*
X136768117Y-64686188D01*
X136779902Y-64677204D01*
X136836261Y-64612177D01*
X136869075Y-64515551D01*
X136886412Y-64367204D01*
X136902320Y-64209119D01*
X136925300Y-64060308D01*
X136940807Y-63990000D01*
X136967405Y-63848321D01*
X136978945Y-63700787D01*
X136978957Y-63697712D01*
X136989632Y-63558153D01*
X137015830Y-63402639D01*
X137023999Y-63367712D01*
X137063332Y-63251029D01*
X137100891Y-63195148D01*
X137126578Y-63202959D01*
X137130291Y-63277354D01*
X137120833Y-63340000D01*
X137052789Y-63703428D01*
X137001679Y-64003848D01*
X136968000Y-64237728D01*
X136952252Y-64401536D01*
X136954933Y-64491740D01*
X136957172Y-64499281D01*
X136953691Y-64578095D01*
X136929792Y-64621574D01*
X136899963Y-64666238D01*
X136929496Y-64666513D01*
X136939117Y-64663510D01*
X137002334Y-64604240D01*
X137059542Y-64476307D01*
X137107907Y-64290989D01*
X137144595Y-64059559D01*
X137166772Y-63793292D01*
X137168714Y-63750000D01*
X137178608Y-63564770D01*
X137191657Y-63409023D01*
X137206096Y-63300118D01*
X137218936Y-63256377D01*
X137219494Y-63205114D01*
X137184966Y-63112652D01*
X137155563Y-63056377D01*
X137098677Y-62940141D01*
X137065755Y-62839953D01*
X137062328Y-62810000D01*
X137068055Y-62762804D01*
X137087504Y-62783730D01*
X137109433Y-62830000D01*
X137154481Y-62930000D01*
X137165644Y-62830000D01*
X137171885Y-62745694D01*
X137178997Y-62606175D01*
X137185780Y-62436200D01*
X137188167Y-62364181D01*
X137192893Y-62193374D01*
X137192476Y-62091756D01*
X137184496Y-62048564D01*
X137166531Y-62053031D01*
X137136159Y-62094395D01*
X137129681Y-62104181D01*
X137078752Y-62220906D01*
X137055280Y-62350000D01*
X137050725Y-62490000D01*
X137013041Y-62322249D01*
X136997523Y-62219860D01*
X137003520Y-62117826D01*
X137034776Y-61989623D01*
X137048617Y-61947395D01*
X137229381Y-61947395D01*
X137234861Y-61950000D01*
X137271422Y-61921840D01*
X137279653Y-61910000D01*
X137289862Y-61872604D01*
X137284382Y-61870000D01*
X137247821Y-61898159D01*
X137239590Y-61910000D01*
X137229381Y-61947395D01*
X137048617Y-61947395D01*
X137079089Y-61854431D01*
X137130214Y-61701917D01*
X137156743Y-61596090D01*
X137160733Y-61508194D01*
X137144241Y-61409472D01*
X137118318Y-61305827D01*
X137087581Y-61161338D01*
X137072851Y-61036869D01*
X137074651Y-60995115D01*
X137115605Y-60995115D01*
X137116351Y-61086276D01*
X137133577Y-61162408D01*
X137160227Y-61190000D01*
X137171744Y-61154346D01*
X137177918Y-61064691D01*
X137178277Y-61020000D01*
X137174297Y-60920160D01*
X137161446Y-60890555D01*
X137135389Y-60921546D01*
X137134599Y-60922897D01*
X137115605Y-60995115D01*
X137074651Y-60995115D01*
X137075728Y-60970117D01*
X137065053Y-60867938D01*
X136995838Y-60723463D01*
X136978317Y-60695082D01*
X136896468Y-60524502D01*
X136857499Y-60350399D01*
X136862895Y-60193737D01*
X136914141Y-60075479D01*
X136932985Y-60055540D01*
X136982332Y-60016560D01*
X137000565Y-60032026D01*
X136999346Y-60114077D01*
X136998751Y-60123999D01*
X136984588Y-60231429D01*
X136961584Y-60305968D01*
X136960373Y-60308022D01*
X136960595Y-60342411D01*
X137024403Y-60343363D01*
X137107295Y-60300844D01*
X137130567Y-60250000D01*
X137149257Y-60146092D01*
X137165340Y-60070000D01*
X137188127Y-59970000D01*
X137222583Y-60060000D01*
X137262790Y-60129365D01*
X137294475Y-60150000D01*
X137332966Y-60114985D01*
X137373249Y-60028186D01*
X137405475Y-59916971D01*
X137419796Y-59808705D01*
X137419874Y-59801546D01*
X137432569Y-59708751D01*
X137465006Y-59577816D01*
X137489985Y-59497515D01*
X137560095Y-59290000D01*
X137585460Y-59550000D01*
X137600453Y-59735570D01*
X137611730Y-59933014D01*
X137615507Y-60043076D01*
X137624229Y-60186277D01*
X137650582Y-60281359D01*
X137705565Y-60359930D01*
X137737297Y-60393076D01*
X137862208Y-60486264D01*
X137971705Y-60501947D01*
X138064256Y-60439998D01*
X138078643Y-60421099D01*
X138141010Y-60332199D01*
X138141010Y-60424176D01*
X138113673Y-60508980D01*
X138045353Y-60609262D01*
X138017330Y-60639638D01*
X137930213Y-60740314D01*
X137866754Y-60837733D01*
X137857078Y-60859165D01*
X137841432Y-60934143D01*
X137830209Y-61053848D01*
X137823374Y-61201223D01*
X137820889Y-61359210D01*
X137822718Y-61510754D01*
X137828823Y-61638797D01*
X137839168Y-61726282D01*
X137853716Y-61756152D01*
X137859003Y-61751158D01*
X137899392Y-61710246D01*
X137915218Y-61711230D01*
X137913623Y-61758258D01*
X137881491Y-61844765D01*
X137832540Y-61943541D01*
X137780493Y-62027376D01*
X137739069Y-62069060D01*
X137734309Y-62070000D01*
X137718319Y-62093228D01*
X137745489Y-62136114D01*
X137771938Y-62200532D01*
X137792917Y-62327087D01*
X137809152Y-62521874D01*
X137820505Y-62766114D01*
X137840537Y-63330000D01*
X137894045Y-63110000D01*
X137923816Y-62950717D01*
X137920973Y-62833868D01*
X137903398Y-62770000D01*
X137859242Y-62650000D01*
X137939140Y-62750000D01*
X137999794Y-62867264D01*
X138015124Y-63018122D01*
X137984829Y-63213628D01*
X137920663Y-63429999D01*
X137860655Y-63617895D01*
X137830182Y-63755019D01*
X137827765Y-63864367D01*
X137851927Y-63968933D01*
X137881137Y-64045115D01*
X137910834Y-64135808D01*
X137911328Y-64186285D01*
X137904507Y-64190000D01*
X137857348Y-64158747D01*
X137847038Y-64140000D01*
X137832879Y-64139368D01*
X137824252Y-64202601D01*
X137823668Y-64218972D01*
X137837297Y-64320572D01*
X137899344Y-64386518D01*
X137940114Y-64409700D01*
X138039924Y-64494419D01*
X138093892Y-64607108D01*
X138087990Y-64718283D01*
X138071360Y-64726504D01*
X138064046Y-64680000D01*
X138032149Y-64608101D01*
X137956258Y-64590495D01*
X137867225Y-64625045D01*
X137837143Y-64657901D01*
X137877241Y-64683178D01*
X137926929Y-64737929D01*
X137939476Y-64798744D01*
X137934394Y-64859905D01*
X137913996Y-64847078D01*
X137897422Y-64820000D01*
X137866702Y-64775420D01*
X137830195Y-64757637D01*
X137771810Y-64769903D01*
X137675454Y-64815472D01*
X137531617Y-64893943D01*
X137332454Y-65024551D01*
X137206389Y-65157898D01*
X137146603Y-65302466D01*
X137139432Y-65381740D01*
X137113688Y-65503294D01*
X137064346Y-65593719D01*
X136989260Y-65686300D01*
X137001173Y-65519303D01*
X137014403Y-65404864D01*
X137032815Y-65323883D01*
X137038561Y-65311153D01*
X137038184Y-65275156D01*
X136977770Y-65276602D01*
X136922362Y-65294279D01*
X136874021Y-65349125D01*
X136858377Y-65424279D01*
X136843606Y-65528153D01*
X136818928Y-65590000D01*
X136787880Y-65626772D01*
X136779608Y-65588967D01*
X136779478Y-65580000D01*
X136767275Y-65525637D01*
X136724287Y-65517276D01*
X136638926Y-65556598D01*
X136547305Y-65613690D01*
X136448102Y-65690793D01*
X136381895Y-65781789D01*
X136328718Y-65916155D01*
X136317020Y-65953690D01*
X136276069Y-66077128D01*
X136240983Y-66162623D01*
X136221654Y-66189946D01*
X136211125Y-66152595D01*
X136200525Y-66051255D01*
X136191163Y-65901922D01*
X136184938Y-65741727D01*
X136176500Y-65554371D01*
X136163669Y-65392162D01*
X136148317Y-65274533D01*
X136135121Y-65224899D01*
X136107744Y-65187639D01*
X136738802Y-65187639D01*
X136762609Y-65227278D01*
X136830614Y-65205011D01*
X136904631Y-65150812D01*
X136964982Y-65090945D01*
X136964491Y-65052759D01*
X136941030Y-65033451D01*
X136866185Y-65011609D01*
X136824968Y-65060762D01*
X136818928Y-65114721D01*
X136803122Y-65168528D01*
X136778865Y-65170000D01*
X136741947Y-65173171D01*
X136738802Y-65187639D01*
X136107744Y-65187639D01*
X136050440Y-65109649D01*
X135953347Y-65040932D01*
X135903253Y-65030000D01*
X135831349Y-65065419D01*
X135763234Y-65154867D01*
X135713681Y-65273128D01*
X135697161Y-65381740D01*
X135671350Y-65503369D01*
X135621866Y-65593975D01*
X135546572Y-65686814D01*
X135562374Y-65473896D01*
X135568309Y-65351280D01*
X135559698Y-65292006D01*
X135532457Y-65280101D01*
X135514203Y-65285489D01*
X135450053Y-65306806D01*
X135433474Y-65310000D01*
X135421109Y-65344605D01*
X135416106Y-65420000D01*
X135401919Y-65524930D01*
X135376656Y-65590000D01*
X135345609Y-65626772D01*
X135337336Y-65588967D01*
X135337207Y-65580000D01*
X135325004Y-65525637D01*
X135282015Y-65517276D01*
X135196654Y-65556598D01*
X135105034Y-65613690D01*
X135005831Y-65690793D01*
X134939623Y-65781789D01*
X134886447Y-65916155D01*
X134874749Y-65953690D01*
X134833498Y-66077164D01*
X134797653Y-66162682D01*
X134777431Y-66190000D01*
X134759858Y-66154610D01*
X134748477Y-66066875D01*
X134747251Y-66040000D01*
X134744379Y-65923081D01*
X134741217Y-65761392D01*
X134738479Y-65591898D01*
X134724752Y-65381474D01*
X134685406Y-65232999D01*
X134669348Y-65210363D01*
X135296530Y-65210363D01*
X135305749Y-65246638D01*
X135344798Y-65237470D01*
X135416720Y-65190000D01*
X135495625Y-65124686D01*
X135535666Y-65073510D01*
X135536909Y-65067276D01*
X135523143Y-65030598D01*
X135520154Y-65030000D01*
X135473061Y-65017556D01*
X135451973Y-65010000D01*
X135576972Y-65010000D01*
X135597003Y-65030000D01*
X135617035Y-65010000D01*
X135597003Y-64990000D01*
X135576972Y-65010000D01*
X135451973Y-65010000D01*
X135440028Y-65005720D01*
X135392752Y-65006926D01*
X135376946Y-65070242D01*
X135376656Y-65088081D01*
X135364396Y-65158768D01*
X135336593Y-65170000D01*
X135302706Y-65179563D01*
X135296530Y-65210363D01*
X134669348Y-65210363D01*
X134612640Y-65130427D01*
X134498650Y-65057709D01*
X134473408Y-65046658D01*
X134356694Y-65002947D01*
X134283875Y-64995642D01*
X134227180Y-65025369D01*
X134197657Y-65052857D01*
X134149252Y-65091224D01*
X134134824Y-65067486D01*
X134134701Y-65060857D01*
X134160959Y-64986323D01*
X134184445Y-64956334D01*
X134211716Y-64906559D01*
X134174429Y-64868946D01*
X134161975Y-64863568D01*
X135141419Y-64863568D01*
X135166593Y-64931470D01*
X135177751Y-64952629D01*
X135234399Y-65021213D01*
X135295199Y-65011334D01*
X135334671Y-64972312D01*
X135338400Y-64970000D01*
X135657098Y-64970000D01*
X135677130Y-64990000D01*
X135697161Y-64970000D01*
X135677130Y-64950000D01*
X135657098Y-64970000D01*
X135338400Y-64970000D01*
X135406780Y-64927606D01*
X135509845Y-64902312D01*
X135608120Y-64875967D01*
X135615891Y-64863568D01*
X136583690Y-64863568D01*
X136608865Y-64931470D01*
X136620022Y-64952629D01*
X136676670Y-65021213D01*
X136737470Y-65011334D01*
X136738819Y-65010000D01*
X137019243Y-65010000D01*
X137039275Y-65030000D01*
X137059306Y-65010000D01*
X137039275Y-64990000D01*
X137019243Y-65010000D01*
X136738819Y-65010000D01*
X136776943Y-64972312D01*
X136783025Y-64968541D01*
X137119564Y-64968541D01*
X137144293Y-64961118D01*
X137146181Y-64959262D01*
X137174423Y-64890113D01*
X137170993Y-64864531D01*
X137150351Y-64855245D01*
X137128664Y-64906793D01*
X137119564Y-64968541D01*
X136783025Y-64968541D01*
X136849052Y-64927606D01*
X136952116Y-64902312D01*
X137046639Y-64878699D01*
X137081886Y-64824088D01*
X137083484Y-64808320D01*
X137105943Y-64706501D01*
X137133563Y-64640950D01*
X137170627Y-64531993D01*
X137178616Y-64462629D01*
X137171529Y-64420902D01*
X137147905Y-64443652D01*
X137102825Y-64534699D01*
X136994509Y-64705570D01*
X136857042Y-64803079D01*
X136709856Y-64830000D01*
X136613131Y-64835509D01*
X136583690Y-64863568D01*
X135615891Y-64863568D01*
X135646008Y-64815516D01*
X135646787Y-64810000D01*
X135659732Y-64714953D01*
X135677683Y-64595021D01*
X135678469Y-64590000D01*
X135700431Y-64450000D01*
X135642797Y-64574867D01*
X135535640Y-64725736D01*
X135388087Y-64811945D01*
X135267584Y-64830000D01*
X135170860Y-64835509D01*
X135141419Y-64863568D01*
X134161975Y-64863568D01*
X134093525Y-64834009D01*
X134042371Y-64865757D01*
X134015760Y-64920000D01*
X133979527Y-65010000D01*
X133976988Y-64918181D01*
X134001903Y-64834014D01*
X134065056Y-64739090D01*
X134143306Y-64661667D01*
X134213006Y-64630000D01*
X134232588Y-64590870D01*
X134245639Y-64476487D01*
X134251782Y-64291364D01*
X134252074Y-64160000D01*
X134248284Y-63956803D01*
X134239986Y-63823242D01*
X134227529Y-63762992D01*
X134214827Y-63770000D01*
X134188387Y-63820857D01*
X134178596Y-63799027D01*
X134177580Y-63781357D01*
X134191635Y-63702721D01*
X134221878Y-63621842D01*
X134785584Y-63621842D01*
X134798441Y-63618770D01*
X134838959Y-63580952D01*
X134886712Y-63522432D01*
X134891998Y-63492771D01*
X134860300Y-63507697D01*
X134819795Y-63561819D01*
X134785584Y-63621842D01*
X134221878Y-63621842D01*
X134229673Y-63600997D01*
X134278397Y-63504285D01*
X134324508Y-63440685D01*
X134343846Y-63430000D01*
X134353137Y-63400692D01*
X134329383Y-63340000D01*
X134308790Y-63264175D01*
X134289650Y-63124368D01*
X134273669Y-62936597D01*
X134262552Y-62716880D01*
X134262327Y-62710413D01*
X134243786Y-62170826D01*
X134187443Y-62390413D01*
X134156134Y-62545133D01*
X134157459Y-62651830D01*
X134174463Y-62705169D01*
X134204037Y-62792139D01*
X134192964Y-62816105D01*
X134152545Y-62774972D01*
X134117623Y-62715703D01*
X134068538Y-62582429D01*
X134060890Y-62437646D01*
X134095897Y-62261938D01*
X134157378Y-62080913D01*
X134226273Y-61851058D01*
X134234022Y-61750000D01*
X134815773Y-61750000D01*
X134830432Y-61782924D01*
X134842482Y-61776666D01*
X134847277Y-61729196D01*
X134842482Y-61723333D01*
X134818664Y-61728824D01*
X134815773Y-61750000D01*
X134234022Y-61750000D01*
X134242068Y-61645067D01*
X134206689Y-61428651D01*
X134196190Y-61390000D01*
X134182310Y-61327294D01*
X134198422Y-61333675D01*
X134210738Y-61350000D01*
X134238798Y-61373262D01*
X134251752Y-61332984D01*
X134254276Y-61260000D01*
X134242468Y-61150422D01*
X134204147Y-61110441D01*
X134197703Y-61110000D01*
X134127507Y-61076827D01*
X134053184Y-60996336D01*
X133996057Y-60897064D01*
X133976988Y-60814605D01*
X133981047Y-60756805D01*
X133995292Y-60770841D01*
X134015760Y-60819999D01*
X134072114Y-60892214D01*
X134143403Y-60907153D01*
X134196953Y-60866514D01*
X134196924Y-60804264D01*
X134179286Y-60778514D01*
X134138550Y-60702375D01*
X134134701Y-60674354D01*
X134145804Y-60644539D01*
X134184846Y-60682305D01*
X134192449Y-60692354D01*
X134261675Y-60745817D01*
X134327758Y-60725154D01*
X134384612Y-60636188D01*
X134426153Y-60484739D01*
X134429338Y-60465707D01*
X134455758Y-60335435D01*
X134486471Y-60234770D01*
X134504354Y-60200000D01*
X134556477Y-60157910D01*
X134595474Y-60154419D01*
X134594921Y-60190263D01*
X134590729Y-60197587D01*
X134570325Y-60262049D01*
X134558732Y-60355738D01*
X134557454Y-60446929D01*
X134567989Y-60503899D01*
X134575952Y-60510000D01*
X134638286Y-60474315D01*
X134677685Y-60365980D01*
X134694735Y-60183069D01*
X134695584Y-60118209D01*
X134733341Y-59739112D01*
X134784723Y-59536209D01*
X134873861Y-59250000D01*
X134908038Y-59550000D01*
G37*
D14*
%TO.C,C20*%
X120586252Y-103535000D02*
X120063748Y-103535000D01*
X120586252Y-102065000D02*
X120063748Y-102065000D01*
%TO.C,C19*%
X138435000Y-127138748D02*
X138435000Y-127661252D01*
X136965000Y-127138748D02*
X136965000Y-127661252D01*
%TO.C,C18*%
X122235000Y-126938748D02*
X122235000Y-127461252D01*
X120765000Y-126938748D02*
X120765000Y-127461252D01*
%TO.C,C17*%
X130836252Y-103635000D02*
X130313748Y-103635000D01*
X130836252Y-102165000D02*
X130313748Y-102165000D01*
%TO.C,SW9*%
X137515000Y-130015000D02*
X151485000Y-130015000D01*
X137515000Y-143985000D02*
X137515000Y-130015000D01*
X151485000Y-130015000D02*
X151485000Y-143985000D01*
X151485000Y-143985000D02*
X137515000Y-143985000D01*
%TO.C,SW8*%
X118015000Y-130015000D02*
X131985000Y-130015000D01*
X118015000Y-143985000D02*
X118015000Y-130015000D01*
X131985000Y-130015000D02*
X131985000Y-143985000D01*
X131985000Y-143985000D02*
X118015000Y-143985000D01*
%TO.C,SW7*%
X98515000Y-130015000D02*
X112485000Y-130015000D01*
X98515000Y-143985000D02*
X98515000Y-130015000D01*
X112485000Y-130015000D02*
X112485000Y-143985000D01*
X112485000Y-143985000D02*
X98515000Y-143985000D01*
%TO.C,SW4*%
X98515000Y-110515000D02*
X112485000Y-110515000D01*
X98515000Y-124485000D02*
X98515000Y-110515000D01*
X112485000Y-110515000D02*
X112485000Y-124485000D01*
X112485000Y-124485000D02*
X98515000Y-124485000D01*
%TO.C,SW5*%
X118015000Y-110515000D02*
X131985000Y-110515000D01*
X118015000Y-124485000D02*
X118015000Y-110515000D01*
X131985000Y-110515000D02*
X131985000Y-124485000D01*
X131985000Y-124485000D02*
X118015000Y-124485000D01*
%TO.C,SW6*%
X137515000Y-110515000D02*
X151485000Y-110515000D01*
X137515000Y-124485000D02*
X137515000Y-110515000D01*
X151485000Y-110515000D02*
X151485000Y-124485000D01*
X151485000Y-124485000D02*
X137515000Y-124485000D01*
%TO.C,RESET*%
X110850000Y-83750000D02*
X110850000Y-82250000D01*
X109600000Y-79750000D02*
X105100000Y-79750000D01*
X105100000Y-86250000D02*
X109600000Y-86250000D01*
X103850000Y-82250000D02*
X103850000Y-83750000D01*
%TO.C,R8*%
X140289564Y-89340000D02*
X138835436Y-89340000D01*
X140289564Y-91160000D02*
X138835436Y-91160000D01*
%TO.C,U4*%
X110592500Y-72285000D02*
X110352500Y-71955000D01*
X110832500Y-71955000D01*
X110592500Y-72285000D01*
G36*
X110592500Y-72285000D02*
G01*
X110352500Y-71955000D01*
X110832500Y-71955000D01*
X110592500Y-72285000D01*
G37*
X116825000Y-77475000D02*
X116825000Y-77215000D01*
X116825000Y-72025000D02*
X116825000Y-72285000D01*
X114100000Y-77475000D02*
X116825000Y-77475000D01*
X114100000Y-77475000D02*
X111375000Y-77475000D01*
X114100000Y-72025000D02*
X116825000Y-72025000D01*
X114100000Y-72025000D02*
X111375000Y-72025000D01*
X111375000Y-77475000D02*
X111375000Y-77215000D01*
X111375000Y-72025000D02*
X111375000Y-72285000D01*
%TO.C,C7*%
X138010000Y-70038748D02*
X138010000Y-71461252D01*
X136190000Y-70038748D02*
X136190000Y-71461252D01*
%TO.C,D6*%
X93490000Y-133650000D02*
X93490000Y-135350000D01*
X93490000Y-133650000D02*
X96750000Y-133650000D01*
X93490000Y-135350000D02*
X96750000Y-135350000D01*
%TO.C,C6*%
X130510000Y-76461252D02*
X130510000Y-75038748D01*
X128690000Y-76461252D02*
X128690000Y-75038748D01*
%TO.C,J1*%
X129425000Y-62050000D02*
X129425000Y-63600000D01*
X129425000Y-62050000D02*
X129125000Y-62050000D01*
X129125000Y-59250000D02*
X129125000Y-62050000D01*
X126975000Y-65300000D02*
X126175000Y-65300000D01*
X126575000Y-64850000D02*
X126975000Y-65300000D01*
X126175000Y-65300000D02*
X126575000Y-64850000D01*
X121425000Y-62050000D02*
X121125000Y-62050000D01*
X121425000Y-59250000D02*
X121425000Y-62050000D01*
X121125000Y-62050000D02*
X121125000Y-63600000D01*
%TO.C,D14*%
X133764758Y-89340000D02*
X135435242Y-89340000D01*
X133764758Y-91160000D02*
X135435242Y-91160000D01*
%TO.C,R1*%
X129010000Y-91727064D02*
X129010000Y-90272936D01*
X127190000Y-91727064D02*
X127190000Y-90272936D01*
%TO.C,C13*%
X136388748Y-80310000D02*
X137811252Y-80310000D01*
X136388748Y-78490000D02*
X137811252Y-78490000D01*
%TO.C,R4*%
X125210000Y-70116686D02*
X125210000Y-71570814D01*
X123390000Y-70116686D02*
X123390000Y-71570814D01*
%TO.C,D7*%
X112990000Y-133650000D02*
X112990000Y-135350000D01*
X112990000Y-133650000D02*
X116250000Y-133650000D01*
X112990000Y-135350000D02*
X116250000Y-135350000D01*
%TO.C,USB_BOOT1*%
X117900000Y-64000000D02*
X117900000Y-62500000D01*
X116650000Y-60000000D02*
X112150000Y-60000000D01*
X112150000Y-66500000D02*
X116650000Y-66500000D01*
X110900000Y-62500000D02*
X110900000Y-64000000D01*
%TO.C,C9*%
X131138748Y-83660000D02*
X132561252Y-83660000D01*
X131138748Y-81840000D02*
X132561252Y-81840000D01*
%TO.C,C16*%
X134010000Y-72788748D02*
X134010000Y-74211252D01*
X132190000Y-72788748D02*
X132190000Y-74211252D01*
%TO.C,R7*%
X118260000Y-90172936D02*
X118260000Y-91627064D01*
X116440000Y-90172936D02*
X116440000Y-91627064D01*
%TO.C,D5*%
X131465000Y-105875000D02*
X131465000Y-107575000D01*
X131465000Y-105875000D02*
X134725000Y-105875000D01*
X131465000Y-107575000D02*
X134725000Y-107575000D01*
%TO.C,R5*%
X127710000Y-70116686D02*
X127710000Y-71570814D01*
X125890000Y-70116686D02*
X125890000Y-71570814D01*
%TO.C,C12*%
X136388748Y-76910000D02*
X137811252Y-76910000D01*
X136388748Y-75090000D02*
X137811252Y-75090000D01*
%TO.C,C15*%
X136388748Y-87010000D02*
X137811252Y-87010000D01*
X136388748Y-85190000D02*
X137811252Y-85190000D01*
%TO.C,U3*%
D15*
X122171000Y-90450000D02*
G75*
G02*
X121921000Y-90450000I-125000J0D01*
G01*
X121921000Y-90450000D02*
G75*
G02*
X122171000Y-90450000I125000J0D01*
G01*
D14*
X126050000Y-92914000D02*
X122650000Y-92914000D01*
X122650000Y-89586000D02*
X126050000Y-89586000D01*
%TO.C,R3*%
X105622936Y-73660000D02*
X107077064Y-73660000D01*
X105622936Y-71840000D02*
X107077064Y-71840000D01*
%TO.C,SW2*%
X138950000Y-94100000D02*
X143050000Y-94100000D01*
X138950000Y-96500000D02*
X138950000Y-94100000D01*
X138950000Y-101300000D02*
X138950000Y-98700000D01*
X138950000Y-105900000D02*
X138950000Y-103500000D01*
X143050000Y-105900000D02*
X138950000Y-105900000D01*
X145050000Y-100500000D02*
X145050000Y-99500000D01*
X145550000Y-100000000D02*
X144550000Y-100000000D01*
X147050000Y-94100000D02*
X151150000Y-94100000D01*
X147050000Y-105900000D02*
X151150000Y-105900000D01*
X151150000Y-105900000D02*
X151150000Y-94100000D01*
X152250000Y-104100000D02*
X152550000Y-103800000D01*
X152550000Y-103800000D02*
X152850000Y-104100000D01*
X152850000Y-104100000D02*
X152250000Y-104100000D01*
X148050000Y-100000000D02*
G75*
G02*
X142050000Y-100000000I-3000000J0D01*
G01*
X142050000Y-100000000D02*
G75*
G02*
X148050000Y-100000000I3000000J0D01*
G01*
%TO.C,R9*%
X151840000Y-78566686D02*
X151840000Y-80020814D01*
X153660000Y-78566686D02*
X153660000Y-80020814D01*
%TO.C,R2*%
X114827064Y-71410000D02*
X113372936Y-71410000D01*
X114827064Y-69590000D02*
X113372936Y-69590000D01*
%TO.C,C1*%
X144163748Y-76310000D02*
X145586252Y-76310000D01*
X144163748Y-74490000D02*
X145586252Y-74490000D01*
%TO.C,D8*%
X132990000Y-133650000D02*
X132990000Y-135350000D01*
X132990000Y-133650000D02*
X136250000Y-133650000D01*
X132990000Y-135350000D02*
X136250000Y-135350000D01*
%TO.C,U1*%
X120740000Y-78890000D02*
X120500000Y-78560000D01*
X120980000Y-78560000D01*
X120740000Y-78890000D01*
G36*
X120740000Y-78890000D02*
G01*
X120500000Y-78560000D01*
X120980000Y-78560000D01*
X120740000Y-78890000D01*
G37*
X127960000Y-86110000D02*
X127960000Y-85460000D01*
X127960000Y-78890000D02*
X127960000Y-79540000D01*
X127310000Y-86110000D02*
X127960000Y-86110000D01*
X127310000Y-78890000D02*
X127960000Y-78890000D01*
X121390000Y-86110000D02*
X120740000Y-86110000D01*
X121390000Y-78890000D02*
X121040000Y-78890000D01*
X120740000Y-86110000D02*
X120740000Y-85460000D01*
X120740000Y-79540000D02*
X120740000Y-79130000D01*
%TO.C,D2*%
X113490000Y-114150000D02*
X113490000Y-115850000D01*
X113490000Y-114150000D02*
X116750000Y-114150000D01*
X113490000Y-115850000D02*
X116750000Y-115850000D01*
%TO.C,C11*%
X131163748Y-80660000D02*
X132586252Y-80660000D01*
X131163748Y-78840000D02*
X132586252Y-78840000D01*
%TO.C,R6*%
X102260000Y-82272936D02*
X102260000Y-83727064D01*
X100440000Y-82272936D02*
X100440000Y-83727064D01*
%TO.C,C2*%
X144163748Y-90310000D02*
X145586252Y-90310000D01*
X144163748Y-88490000D02*
X145586252Y-88490000D01*
%TO.C,C14*%
X136388748Y-83660000D02*
X137811252Y-83660000D01*
X136388748Y-81840000D02*
X137811252Y-81840000D01*
%TO.C,C10*%
X131138748Y-87010000D02*
X132561252Y-87010000D01*
X131138748Y-85190000D02*
X132561252Y-85190000D01*
%TO.C,U2*%
X148490000Y-79610000D02*
X148160000Y-79370000D01*
X148490000Y-79130000D01*
X148490000Y-79610000D01*
G36*
X148490000Y-79610000D02*
G01*
X148160000Y-79370000D01*
X148490000Y-79130000D01*
X148490000Y-79610000D01*
G37*
X148260000Y-84410000D02*
X147000000Y-84410000D01*
X148260000Y-80650000D02*
X148260000Y-84410000D01*
X141440000Y-84410000D02*
X142700000Y-84410000D01*
X141440000Y-80650000D02*
X141440000Y-84410000D01*
%TO.C,D3*%
X132740000Y-114150000D02*
X132740000Y-115850000D01*
X132740000Y-114150000D02*
X136000000Y-114150000D01*
X132740000Y-115850000D02*
X136000000Y-115850000D01*
%TO.C,C3*%
X123638748Y-95660000D02*
X125061252Y-95660000D01*
X123638748Y-93840000D02*
X125061252Y-93840000D01*
%TO.C,D13*%
X119835242Y-93590000D02*
X118164758Y-93590000D01*
X119835242Y-95410000D02*
X118164758Y-95410000D01*
%TO.C,C5*%
X105663748Y-77410000D02*
X107086252Y-77410000D01*
X105663748Y-75590000D02*
X107086252Y-75590000D01*
%TO.C,C4*%
X121510000Y-91711252D02*
X121510000Y-90288748D01*
X119690000Y-91711252D02*
X119690000Y-90288748D01*
%TO.C,D1*%
X93490000Y-114150000D02*
X93490000Y-115850000D01*
X93490000Y-114150000D02*
X96750000Y-114150000D01*
X93490000Y-115850000D02*
X96750000Y-115850000D01*
%TO.C,D15*%
X151790000Y-85353992D02*
X151790000Y-83683508D01*
X153610000Y-85353992D02*
X153610000Y-83683508D01*
%TO.C,C8*%
X131510000Y-69538748D02*
X131510000Y-70961252D01*
X129690000Y-69538748D02*
X129690000Y-70961252D01*
%TO.C,D4*%
X118985000Y-105625000D02*
X115725000Y-105625000D01*
X118985000Y-107325000D02*
X115725000Y-107325000D01*
X118985000Y-107325000D02*
X118985000Y-105625000D01*
%TO.C,SW3*%
X98375000Y-94075000D02*
X102475000Y-94075000D01*
X98375000Y-96475000D02*
X98375000Y-94075000D01*
X98375000Y-101275000D02*
X98375000Y-98675000D01*
X98375000Y-105875000D02*
X98375000Y-103475000D01*
X102475000Y-105875000D02*
X98375000Y-105875000D01*
X104475000Y-100475000D02*
X104475000Y-99475000D01*
X104975000Y-99975000D02*
X103975000Y-99975000D01*
X106475000Y-94075000D02*
X110575000Y-94075000D01*
X106475000Y-105875000D02*
X110575000Y-105875000D01*
X110575000Y-105875000D02*
X110575000Y-94075000D01*
X111675000Y-104075000D02*
X111975000Y-103775000D01*
X111975000Y-103775000D02*
X112275000Y-104075000D01*
X112275000Y-104075000D02*
X111675000Y-104075000D01*
X107475000Y-99975000D02*
G75*
G02*
X101475000Y-99975000I-3000000J0D01*
G01*
X101475000Y-99975000D02*
G75*
G02*
X107475000Y-99975000I3000000J0D01*
G01*
%TD*%
D16*
X139420000Y-137000000D03*
X144500000Y-137000000D03*
X149580000Y-137000000D03*
X147040000Y-131920000D03*
X140690000Y-134460000D03*
X119920000Y-137000000D03*
X125000000Y-137000000D03*
X130080000Y-137000000D03*
X127540000Y-131920000D03*
X121190000Y-134460000D03*
X100420000Y-137000000D03*
X105500000Y-137000000D03*
X110580000Y-137000000D03*
X108040000Y-131920000D03*
X101690000Y-134460000D03*
X100420000Y-117500000D03*
X105500000Y-117500000D03*
X110580000Y-117500000D03*
X108040000Y-112420000D03*
X101690000Y-114960000D03*
X119920000Y-117500000D03*
X125000000Y-117500000D03*
X130080000Y-117500000D03*
X127540000Y-112420000D03*
X121190000Y-114960000D03*
X139420000Y-117500000D03*
X144500000Y-117500000D03*
X149580000Y-117500000D03*
X147040000Y-112420000D03*
X140690000Y-114960000D03*
X110600000Y-85250000D03*
X104100000Y-85250000D03*
X110600000Y-80750000D03*
X104100000Y-80750000D03*
D17*
X122545000Y-60870000D03*
D18*
X122855000Y-63870000D03*
X127695000Y-63870000D03*
D17*
X128005000Y-60870000D03*
D16*
X111150000Y-61000000D03*
X117650000Y-61000000D03*
X111150000Y-65500000D03*
X117650000Y-65500000D03*
X160500000Y-149500000D03*
X152550000Y-102500000D03*
X152550000Y-97500000D03*
X152550000Y-100000000D03*
X145050000Y-105600000D03*
X145050000Y-94400000D03*
X138050000Y-97500000D03*
X138050000Y-102500000D03*
X160500000Y-62500000D03*
X89500000Y-62500000D03*
X89500000Y-149500000D03*
X111975000Y-102475000D03*
X111975000Y-97475000D03*
X111975000Y-99975000D03*
X104475000Y-105575000D03*
X104475000Y-94375000D03*
X97475000Y-97475000D03*
X97475000Y-102475000D03*
M02*
