%TF.GenerationSoftware,KiCad,Pcbnew,8.0.5*%
%TF.CreationDate,2025-01-30T00:55:53+01:00*%
%TF.ProjectId,rp2040_pad,72703230-3430-45f7-9061-642e6b696361,rev?*%
%TF.SameCoordinates,Original*%
%TF.FileFunction,Copper,L1,Top*%
%TF.FilePolarity,Positive*%
%FSLAX46Y46*%
G04 Gerber Fmt 4.6, Leading zero omitted, Abs format (unit mm)*
G04 Created by KiCad (PCBNEW 8.0.5) date 2025-01-30 00:55:53*
%MOMM*%
%LPD*%
G01*
G04 APERTURE LIST*
G04 Aperture macros list*
%AMRoundRect*
0 Rectangle with rounded corners*
0 $1 Rounding radius*
0 $2 $3 $4 $5 $6 $7 $8 $9 X,Y pos of 4 corners*
0 Add a 4 corners polygon primitive as box body*
4,1,4,$2,$3,$4,$5,$6,$7,$8,$9,$2,$3,0*
0 Add four circle primitives for the rounded corners*
1,1,$1+$1,$2,$3*
1,1,$1+$1,$4,$5*
1,1,$1+$1,$6,$7*
1,1,$1+$1,$8,$9*
0 Add four rect primitives between the rounded corners*
20,1,$1+$1,$2,$3,$4,$5,0*
20,1,$1+$1,$4,$5,$6,$7,0*
20,1,$1+$1,$6,$7,$8,$9,0*
20,1,$1+$1,$8,$9,$2,$3,0*%
G04 Aperture macros list end*
%TA.AperFunction,SMDPad,CuDef*%
%ADD10RoundRect,0.250000X0.337500X0.475000X-0.337500X0.475000X-0.337500X-0.475000X0.337500X-0.475000X0*%
%TD*%
%TA.AperFunction,SMDPad,CuDef*%
%ADD11RoundRect,0.250000X-0.475000X0.337500X-0.475000X-0.337500X0.475000X-0.337500X0.475000X0.337500X0*%
%TD*%
%TA.AperFunction,ComponentPad*%
%ADD12C,2.200000*%
%TD*%
%TA.AperFunction,ComponentPad*%
%ADD13C,2.000000*%
%TD*%
%TA.AperFunction,SMDPad,CuDef*%
%ADD14RoundRect,0.250000X0.312500X0.625000X-0.312500X0.625000X-0.312500X-0.625000X0.312500X-0.625000X0*%
%TD*%
%TA.AperFunction,SMDPad,CuDef*%
%ADD15RoundRect,0.150000X-0.650000X-0.150000X0.650000X-0.150000X0.650000X0.150000X-0.650000X0.150000X0*%
%TD*%
%TA.AperFunction,SMDPad,CuDef*%
%ADD16RoundRect,0.250000X-0.650000X0.325000X-0.650000X-0.325000X0.650000X-0.325000X0.650000X0.325000X0*%
%TD*%
%TA.AperFunction,SMDPad,CuDef*%
%ADD17RoundRect,0.250000X-0.250000X-0.250000X0.250000X-0.250000X0.250000X0.250000X-0.250000X0.250000X0*%
%TD*%
%TA.AperFunction,SMDPad,CuDef*%
%ADD18RoundRect,0.250000X0.650000X-0.325000X0.650000X0.325000X-0.650000X0.325000X-0.650000X-0.325000X0*%
%TD*%
%TA.AperFunction,SMDPad,CuDef*%
%ADD19R,1.825000X0.700000*%
%TD*%
%TA.AperFunction,SMDPad,CuDef*%
%ADD20R,2.000000X1.500000*%
%TD*%
%TA.AperFunction,SMDPad,CuDef*%
%ADD21R,1.350000X2.000000*%
%TD*%
%TA.AperFunction,ComponentPad*%
%ADD22O,1.350000X1.700000*%
%TD*%
%TA.AperFunction,ComponentPad*%
%ADD23O,1.100000X1.500000*%
%TD*%
%TA.AperFunction,SMDPad,CuDef*%
%ADD24R,1.430000X2.500000*%
%TD*%
%TA.AperFunction,SMDPad,CuDef*%
%ADD25R,0.400000X1.650000*%
%TD*%
%TA.AperFunction,SMDPad,CuDef*%
%ADD26RoundRect,0.250000X-0.275000X-0.700000X0.275000X-0.700000X0.275000X0.700000X-0.275000X0.700000X0*%
%TD*%
%TA.AperFunction,SMDPad,CuDef*%
%ADD27RoundRect,0.250000X0.625000X-0.312500X0.625000X0.312500X-0.625000X0.312500X-0.625000X-0.312500X0*%
%TD*%
%TA.AperFunction,SMDPad,CuDef*%
%ADD28RoundRect,0.250000X-0.325000X-0.650000X0.325000X-0.650000X0.325000X0.650000X-0.325000X0.650000X0*%
%TD*%
%TA.AperFunction,SMDPad,CuDef*%
%ADD29RoundRect,0.250000X-0.625000X0.312500X-0.625000X-0.312500X0.625000X-0.312500X0.625000X0.312500X0*%
%TD*%
%TA.AperFunction,SMDPad,CuDef*%
%ADD30R,1.400000X1.100000*%
%TD*%
%TA.AperFunction,SMDPad,CuDef*%
%ADD31RoundRect,0.250000X-0.312500X-0.625000X0.312500X-0.625000X0.312500X0.625000X-0.312500X0.625000X0*%
%TD*%
%TA.AperFunction,ComponentPad*%
%ADD32R,2.000000X2.000000*%
%TD*%
%TA.AperFunction,ComponentPad*%
%ADD33C,3.200000*%
%TD*%
%TA.AperFunction,HeatsinkPad*%
%ADD34R,3.200000X3.200000*%
%TD*%
%TA.AperFunction,SMDPad,CuDef*%
%ADD35RoundRect,0.050000X-0.050000X-0.387500X0.050000X-0.387500X0.050000X0.387500X-0.050000X0.387500X0*%
%TD*%
%TA.AperFunction,SMDPad,CuDef*%
%ADD36RoundRect,0.050000X-0.387500X-0.050000X0.387500X-0.050000X0.387500X0.050000X-0.387500X0.050000X0*%
%TD*%
%TA.AperFunction,SMDPad,CuDef*%
%ADD37RoundRect,0.375000X-0.375000X0.625000X-0.375000X-0.625000X0.375000X-0.625000X0.375000X0.625000X0*%
%TD*%
%TA.AperFunction,SMDPad,CuDef*%
%ADD38RoundRect,0.500000X-1.400000X0.500000X-1.400000X-0.500000X1.400000X-0.500000X1.400000X0.500000X0*%
%TD*%
%TA.AperFunction,SMDPad,CuDef*%
%ADD39RoundRect,0.250000X0.275000X0.700000X-0.275000X0.700000X-0.275000X-0.700000X0.275000X-0.700000X0*%
%TD*%
%TA.AperFunction,SMDPad,CuDef*%
%ADD40RoundRect,0.250000X0.700000X-0.275000X0.700000X0.275000X-0.700000X0.275000X-0.700000X-0.275000X0*%
%TD*%
%TA.AperFunction,SMDPad,CuDef*%
%ADD41RoundRect,0.250000X0.250000X0.250000X-0.250000X0.250000X-0.250000X-0.250000X0.250000X-0.250000X0*%
%TD*%
%TA.AperFunction,ViaPad*%
%ADD42C,0.600000*%
%TD*%
%TA.AperFunction,Conductor*%
%ADD43C,0.200000*%
%TD*%
%TA.AperFunction,Conductor*%
%ADD44C,0.800000*%
%TD*%
%TA.AperFunction,Conductor*%
%ADD45C,0.500000*%
%TD*%
%ADD46C,0.300000*%
%ADD47C,0.350000*%
%ADD48O,0.700000X1.200000*%
%ADD49O,0.650000X1.050000*%
G04 APERTURE END LIST*
D10*
%TO.P,C20,1*%
%TO.N,VBUS*%
X121362500Y-102800000D03*
%TO.P,C20,2*%
%TO.N,GND*%
X119287500Y-102800000D03*
%TD*%
D11*
%TO.P,C19,1*%
%TO.N,VBUS*%
X137700000Y-126362500D03*
%TO.P,C19,2*%
%TO.N,GND*%
X137700000Y-128437500D03*
%TD*%
%TO.P,C18,1*%
%TO.N,VBUS*%
X121500000Y-126162500D03*
%TO.P,C18,2*%
%TO.N,GND*%
X121500000Y-128237500D03*
%TD*%
D10*
%TO.P,C17,1*%
%TO.N,VBUS*%
X131612500Y-102900000D03*
%TO.P,C17,2*%
%TO.N,GND*%
X129537500Y-102900000D03*
%TD*%
D12*
%TO.P,SW9,1,1*%
%TO.N,COL_C*%
X147040000Y-131920000D03*
%TO.P,SW9,2,2*%
%TO.N,Net-(D8-A)*%
X140690000Y-134460000D03*
%TD*%
%TO.P,SW8,1,1*%
%TO.N,COL_B*%
X127540000Y-131920000D03*
%TO.P,SW8,2,2*%
%TO.N,Net-(D7-A)*%
X121190000Y-134460000D03*
%TD*%
%TO.P,SW7,1,1*%
%TO.N,COL_A*%
X108040000Y-131920000D03*
%TO.P,SW7,2,2*%
%TO.N,Net-(D6-A)*%
X101690000Y-134460000D03*
%TD*%
%TO.P,SW4,1,1*%
%TO.N,COL_A*%
X108040000Y-112420000D03*
%TO.P,SW4,2,2*%
%TO.N,Net-(D1-A)*%
X101690000Y-114960000D03*
%TD*%
%TO.P,SW5,1,1*%
%TO.N,COL_B*%
X127540000Y-112420000D03*
%TO.P,SW5,2,2*%
%TO.N,Net-(D2-A)*%
X121190000Y-114960000D03*
%TD*%
%TO.P,SW6,1,1*%
%TO.N,COL_C*%
X147040000Y-112420000D03*
%TO.P,SW6,2,2*%
%TO.N,Net-(D3-A)*%
X140690000Y-114960000D03*
%TD*%
D13*
%TO.P,RESET,2,2*%
%TO.N,Net-(U1-RUN)*%
X110600000Y-85250000D03*
X104100000Y-85250000D03*
%TO.P,RESET,1,1*%
%TO.N,GND*%
X110600000Y-80750000D03*
X104100000Y-80750000D03*
%TD*%
D14*
%TO.P,R8,2*%
%TO.N,Net-(D14-A)*%
X138100000Y-90250000D03*
%TO.P,R8,1*%
%TO.N,+3V3*%
X141025000Y-90250000D03*
%TD*%
D15*
%TO.P,U4,8,VCC*%
%TO.N,+3V3*%
X117700000Y-72845000D03*
%TO.P,U4,7,IO3*%
%TO.N,QSPI_SD3*%
X117700000Y-74115000D03*
%TO.P,U4,6,CLK*%
%TO.N,QSPI_SCLK*%
X117700000Y-75385000D03*
%TO.P,U4,5,DI(IO0)*%
%TO.N,QSPI_SD0*%
X117700000Y-76655000D03*
%TO.P,U4,4,GND*%
%TO.N,GND*%
X110500000Y-76655000D03*
%TO.P,U4,3,IO2*%
%TO.N,QSPI_SD2*%
X110500000Y-75385000D03*
%TO.P,U4,2,DO(IO1)*%
%TO.N,QSPI_SD1*%
X110500000Y-74115000D03*
%TO.P,U4,1,~{CS}*%
%TO.N,QSPI_SS*%
X110500000Y-72845000D03*
%TD*%
D16*
%TO.P,C7,2*%
%TO.N,GND*%
X137100000Y-72225000D03*
%TO.P,C7,1*%
%TO.N,Net-(U1-VREG_VOUT)*%
X137100000Y-69275000D03*
%TD*%
D17*
%TO.P,D6,1,K*%
%TO.N,ROW_C*%
X94250000Y-134500000D03*
%TO.P,D6,2,A*%
%TO.N,Net-(D6-A)*%
X96750000Y-134500000D03*
%TD*%
D18*
%TO.P,C6,2*%
%TO.N,GND*%
X129600000Y-74275000D03*
%TO.P,C6,1*%
%TO.N,Net-(U1-VREG_VOUT)*%
X129600000Y-77225000D03*
%TD*%
D19*
%TO.P,J1,6,Shield*%
%TO.N,GND*%
X122275000Y-62550000D03*
D20*
X122375000Y-63870000D03*
D21*
X122525000Y-61800000D03*
D22*
X122545000Y-60870000D03*
D23*
X122855000Y-63870000D03*
D24*
X124315000Y-60600000D03*
X126235000Y-60600000D03*
D23*
X127695000Y-63870000D03*
D22*
X128005000Y-60870000D03*
D21*
X128005000Y-61800000D03*
D20*
X128125000Y-63850000D03*
D19*
X128225000Y-62550000D03*
D25*
%TO.P,J1,5,GND*%
X123975000Y-63750000D03*
%TO.P,J1,4,ID*%
%TO.N,unconnected-(J1-ID-Pad4)*%
X124625000Y-63750000D03*
%TO.P,J1,3,D+*%
%TO.N,USB_D+*%
X125275000Y-63750000D03*
%TO.P,J1,2,D-*%
%TO.N,USB_D-*%
X125925000Y-63750000D03*
%TO.P,J1,1,VBUS*%
%TO.N,VBUS*%
X126575000Y-63750000D03*
%TD*%
D26*
%TO.P,D14,2,A*%
%TO.N,Net-(D14-A)*%
X136175000Y-90250000D03*
%TO.P,D14,1,K*%
%TO.N,GND*%
X133025000Y-90250000D03*
%TD*%
D27*
%TO.P,R1,2*%
%TO.N,XOUT*%
X128100000Y-89537500D03*
%TO.P,R1,1*%
%TO.N,Net-(C3-Pad2)*%
X128100000Y-92462500D03*
%TD*%
D28*
%TO.P,C13,2*%
%TO.N,GND*%
X138575000Y-79400000D03*
%TO.P,C13,1*%
%TO.N,+3V3*%
X135625000Y-79400000D03*
%TD*%
D29*
%TO.P,R4,2*%
%TO.N,Net-(U1-USB_DP)*%
X124300000Y-72306250D03*
%TO.P,R4,1*%
%TO.N,USB_D+*%
X124300000Y-69381250D03*
%TD*%
D17*
%TO.P,D7,1,K*%
%TO.N,ROW_C*%
X113750000Y-134500000D03*
%TO.P,D7,2,A*%
%TO.N,Net-(D7-A)*%
X116250000Y-134500000D03*
%TD*%
D13*
%TO.P,USB_BOOT1,2,2*%
%TO.N,Net-(R3-Pad1)*%
X111150000Y-61000000D03*
X117650000Y-61000000D03*
%TO.P,USB_BOOT1,1,1*%
%TO.N,GND*%
X111150000Y-65500000D03*
X117650000Y-65500000D03*
%TD*%
D28*
%TO.P,C9,2*%
%TO.N,GND*%
X133325000Y-82750000D03*
%TO.P,C9,1*%
%TO.N,+3V3*%
X130375000Y-82750000D03*
%TD*%
D16*
%TO.P,C16,2*%
%TO.N,GND*%
X133100000Y-74975000D03*
%TO.P,C16,1*%
%TO.N,+3V3*%
X133100000Y-72025000D03*
%TD*%
D29*
%TO.P,R7,2*%
%TO.N,Net-(D13-A)*%
X117350000Y-92362500D03*
%TO.P,R7,1*%
%TO.N,TEST_LED*%
X117350000Y-89437500D03*
%TD*%
D17*
%TO.P,D5,1,K*%
%TO.N,ROW_A*%
X132225000Y-106725000D03*
%TO.P,D5,2,A*%
%TO.N,Net-(D5-A)*%
X134725000Y-106725000D03*
%TD*%
D29*
%TO.P,R5,2*%
%TO.N,Net-(U1-USB_DM)*%
X126800000Y-72306250D03*
%TO.P,R5,1*%
%TO.N,USB_D-*%
X126800000Y-69381250D03*
%TD*%
D28*
%TO.P,C12,2*%
%TO.N,GND*%
X138575000Y-76000000D03*
%TO.P,C12,1*%
%TO.N,+3V3*%
X135625000Y-76000000D03*
%TD*%
%TO.P,C15,2*%
%TO.N,GND*%
X138575000Y-86100000D03*
%TO.P,C15,1*%
%TO.N,+3V3*%
X135625000Y-86100000D03*
%TD*%
D30*
%TO.P,U3,4,4*%
%TO.N,GND*%
X125450000Y-90450000D03*
%TO.P,U3,3,3*%
%TO.N,Net-(C3-Pad2)*%
X125450000Y-92050000D03*
%TO.P,U3,2,2*%
%TO.N,GND*%
X123250000Y-92050000D03*
%TO.P,U3,1,1*%
%TO.N,XIN*%
X123250000Y-90450000D03*
%TD*%
D31*
%TO.P,R3,2*%
%TO.N,QSPI_SS*%
X107812500Y-72750000D03*
%TO.P,R3,1*%
%TO.N,Net-(R3-Pad1)*%
X104887500Y-72750000D03*
%TD*%
D32*
%TO.P,SW2,A,A*%
%TO.N,ENC_SA2*%
X152550000Y-102500000D03*
D13*
%TO.P,SW2,B,B*%
%TO.N,ENC_SB2*%
X152550000Y-97500000D03*
%TO.P,SW2,C,C*%
%TO.N,GND*%
X152550000Y-100000000D03*
D33*
%TO.P,SW2,MP*%
%TO.N,N/C*%
X145050000Y-105600000D03*
X145050000Y-94400000D03*
D13*
%TO.P,SW2,S1,S1*%
%TO.N,Net-(D5-A)*%
X138050000Y-97500000D03*
%TO.P,SW2,S2,S2*%
%TO.N,COL_C*%
X138050000Y-102500000D03*
%TD*%
D29*
%TO.P,R9,2*%
%TO.N,Net-(D15-A)*%
X152750000Y-80756250D03*
%TO.P,R9,1*%
%TO.N,VBUS*%
X152750000Y-77831250D03*
%TD*%
D14*
%TO.P,R2,2*%
%TO.N,QSPI_SS*%
X112637500Y-70500000D03*
%TO.P,R2,1*%
%TO.N,+3V3*%
X115562500Y-70500000D03*
%TD*%
D28*
%TO.P,C1,2*%
%TO.N,GND*%
X146350000Y-75400000D03*
%TO.P,C1,1*%
%TO.N,VBUS*%
X143400000Y-75400000D03*
%TD*%
D17*
%TO.P,D8,1,K*%
%TO.N,ROW_C*%
X133750000Y-134500000D03*
%TO.P,D8,2,A*%
%TO.N,Net-(D8-A)*%
X136250000Y-134500000D03*
%TD*%
D34*
%TO.P,U1,57,GND*%
%TO.N,GND*%
X124350000Y-82500000D03*
D35*
%TO.P,U1,56,QSPI_SS*%
%TO.N,QSPI_SS*%
X121750000Y-79062500D03*
%TO.P,U1,55,QSPI_SD1*%
%TO.N,QSPI_SD1*%
X122150000Y-79062500D03*
%TO.P,U1,54,QSPI_SD2*%
%TO.N,QSPI_SD2*%
X122550000Y-79062500D03*
%TO.P,U1,53,QSPI_SD0*%
%TO.N,QSPI_SD0*%
X122950000Y-79062500D03*
%TO.P,U1,52,QSPI_SCLK*%
%TO.N,QSPI_SCLK*%
X123350000Y-79062500D03*
%TO.P,U1,51,QSPI_SD3*%
%TO.N,QSPI_SD3*%
X123750000Y-79062500D03*
%TO.P,U1,50,DVDD*%
%TO.N,Net-(U1-VREG_VOUT)*%
X124150000Y-79062500D03*
%TO.P,U1,49,IOVDD*%
%TO.N,+3V3*%
X124550000Y-79062500D03*
%TO.P,U1,48,USB_VDD*%
X124950000Y-79062500D03*
%TO.P,U1,47,USB_DP*%
%TO.N,Net-(U1-USB_DP)*%
X125350000Y-79062500D03*
%TO.P,U1,46,USB_DM*%
%TO.N,Net-(U1-USB_DM)*%
X125750000Y-79062500D03*
%TO.P,U1,45,VREG_VOUT*%
%TO.N,Net-(U1-VREG_VOUT)*%
X126150000Y-79062500D03*
%TO.P,U1,44,VREG_IN*%
%TO.N,+3V3*%
X126550000Y-79062500D03*
%TO.P,U1,43,ADC_AVDD*%
X126950000Y-79062500D03*
D36*
%TO.P,U1,42,IOVDD*%
X127787500Y-79900000D03*
%TO.P,U1,41,GPIO29_ADC3*%
%TO.N,unconnected-(U1-GPIO29_ADC3-Pad41)*%
X127787500Y-80300000D03*
%TO.P,U1,40,GPIO28_ADC2*%
%TO.N,unconnected-(U1-GPIO28_ADC2-Pad40)*%
X127787500Y-80700000D03*
%TO.P,U1,39,GPIO27_ADC1*%
%TO.N,unconnected-(U1-GPIO27_ADC1-Pad39)*%
X127787500Y-81100000D03*
%TO.P,U1,38,GPIO26_ADC0*%
%TO.N,unconnected-(U1-GPIO26_ADC0-Pad38)*%
X127787500Y-81500000D03*
%TO.P,U1,37,GPIO25*%
%TO.N,unconnected-(U1-GPIO25-Pad37)*%
X127787500Y-81900000D03*
%TO.P,U1,36,GPIO24*%
%TO.N,unconnected-(U1-GPIO24-Pad36)*%
X127787500Y-82300000D03*
%TO.P,U1,35,GPIO23*%
%TO.N,unconnected-(U1-GPIO23-Pad35)*%
X127787500Y-82700000D03*
%TO.P,U1,34,GPIO22*%
%TO.N,unconnected-(U1-GPIO22-Pad34)*%
X127787500Y-83100000D03*
%TO.P,U1,33,IOVDD*%
%TO.N,+3V3*%
X127787500Y-83500000D03*
%TO.P,U1,32,GPIO21*%
%TO.N,unconnected-(U1-GPIO21-Pad32)*%
X127787500Y-83900000D03*
%TO.P,U1,31,GPIO20*%
%TO.N,unconnected-(U1-GPIO20-Pad31)*%
X127787500Y-84300000D03*
%TO.P,U1,30,GPIO19*%
%TO.N,unconnected-(U1-GPIO19-Pad30)*%
X127787500Y-84700000D03*
%TO.P,U1,29,GPIO18*%
%TO.N,unconnected-(U1-GPIO18-Pad29)*%
X127787500Y-85100000D03*
D35*
%TO.P,U1,28,GPIO17*%
%TO.N,unconnected-(U1-GPIO17-Pad28)*%
X126950000Y-85937500D03*
%TO.P,U1,27,GPIO16*%
%TO.N,LED*%
X126550000Y-85937500D03*
%TO.P,U1,26,RUN*%
%TO.N,Net-(U1-RUN)*%
X126150000Y-85937500D03*
%TO.P,U1,25,SWD*%
%TO.N,unconnected-(U1-SWD-Pad25)*%
X125750000Y-85937500D03*
%TO.P,U1,24,SWCLK*%
%TO.N,unconnected-(U1-SWCLK-Pad24)*%
X125350000Y-85937500D03*
%TO.P,U1,23,DVDD*%
%TO.N,Net-(U1-VREG_VOUT)*%
X124950000Y-85937500D03*
%TO.P,U1,22,IOVDD*%
%TO.N,+3V3*%
X124550000Y-85937500D03*
%TO.P,U1,21,XOUT*%
%TO.N,XOUT*%
X124150000Y-85937500D03*
%TO.P,U1,20,XIN*%
%TO.N,XIN*%
X123750000Y-85937500D03*
%TO.P,U1,19,TESTEN*%
%TO.N,unconnected-(U1-TESTEN-Pad19)*%
X123350000Y-85937500D03*
%TO.P,U1,18,GPIO15*%
%TO.N,TEST_LED*%
X122950000Y-85937500D03*
%TO.P,U1,17,GPIO14*%
%TO.N,unconnected-(U1-GPIO14-Pad17)*%
X122550000Y-85937500D03*
%TO.P,U1,16,GPIO13*%
%TO.N,unconnected-(U1-GPIO13-Pad16)*%
X122150000Y-85937500D03*
%TO.P,U1,15,GPIO12*%
%TO.N,unconnected-(U1-GPIO12-Pad15)*%
X121750000Y-85937500D03*
D36*
%TO.P,U1,14,GPIO11*%
%TO.N,unconnected-(U1-GPIO11-Pad14)*%
X120912500Y-85100000D03*
%TO.P,U1,13,GPIO10*%
%TO.N,unconnected-(U1-GPIO10-Pad13)*%
X120912500Y-84700000D03*
%TO.P,U1,12,GPIO9*%
%TO.N,COL_C*%
X120912500Y-84300000D03*
%TO.P,U1,11,GPIO8*%
%TO.N,ENC_SB2*%
X120912500Y-83900000D03*
%TO.P,U1,10,IOVDD*%
%TO.N,+3V3*%
X120912500Y-83500000D03*
%TO.P,U1,9,GPIO7*%
%TO.N,ENC_SA2*%
X120912500Y-83100000D03*
%TO.P,U1,8,GPIO6*%
%TO.N,ENC_SB*%
X120912500Y-82700000D03*
%TO.P,U1,7,GPIO5*%
%TO.N,ENC_SA*%
X120912500Y-82300000D03*
%TO.P,U1,6,GPIO4*%
%TO.N,COL_B*%
X120912500Y-81900000D03*
%TO.P,U1,5,GPIO3*%
%TO.N,ROW_A*%
X120912500Y-81500000D03*
%TO.P,U1,4,GPIO2*%
%TO.N,COL_A*%
X120912500Y-81100000D03*
%TO.P,U1,3,GPIO1*%
%TO.N,ROW_B*%
X120912500Y-80700000D03*
%TO.P,U1,2,GPIO0*%
%TO.N,ROW_C*%
X120912500Y-80300000D03*
%TO.P,U1,1,IOVDD*%
%TO.N,+3V3*%
X120912500Y-79900000D03*
%TD*%
D17*
%TO.P,D2,1,K*%
%TO.N,ROW_B*%
X114250000Y-115000000D03*
%TO.P,D2,2,A*%
%TO.N,Net-(D2-A)*%
X116750000Y-115000000D03*
%TD*%
D28*
%TO.P,C11,2*%
%TO.N,GND*%
X133350000Y-79750000D03*
%TO.P,C11,1*%
%TO.N,+3V3*%
X130400000Y-79750000D03*
%TD*%
D29*
%TO.P,R6,2*%
%TO.N,Net-(U1-RUN)*%
X101350000Y-84462500D03*
%TO.P,R6,1*%
%TO.N,+3V3*%
X101350000Y-81537500D03*
%TD*%
D28*
%TO.P,C2,2*%
%TO.N,GND*%
X146350000Y-89400000D03*
%TO.P,C2,1*%
%TO.N,+3V3*%
X143400000Y-89400000D03*
%TD*%
%TO.P,C14,2*%
%TO.N,GND*%
X138575000Y-82750000D03*
%TO.P,C14,1*%
%TO.N,+3V3*%
X135625000Y-82750000D03*
%TD*%
%TO.P,C10,2*%
%TO.N,GND*%
X133325000Y-86100000D03*
%TO.P,C10,1*%
%TO.N,+3V3*%
X130375000Y-86100000D03*
%TD*%
D37*
%TO.P,U2,3,VI*%
%TO.N,VBUS*%
X142550000Y-79350000D03*
D38*
%TO.P,U2,2,VO*%
%TO.N,+3V3*%
X144850000Y-85650000D03*
D37*
X144850000Y-79350000D03*
%TO.P,U2,1,GND*%
%TO.N,GND*%
X147150000Y-79350000D03*
%TD*%
D17*
%TO.P,D3,1,K*%
%TO.N,ROW_B*%
X133500000Y-115000000D03*
%TO.P,D3,2,A*%
%TO.N,Net-(D3-A)*%
X136000000Y-115000000D03*
%TD*%
D28*
%TO.P,C3,2*%
%TO.N,Net-(C3-Pad2)*%
X125825000Y-94750000D03*
%TO.P,C3,1*%
%TO.N,GND*%
X122875000Y-94750000D03*
%TD*%
D39*
%TO.P,D13,2,A*%
%TO.N,Net-(D13-A)*%
X117425000Y-94500000D03*
%TO.P,D13,1,K*%
%TO.N,GND*%
X120575000Y-94500000D03*
%TD*%
D28*
%TO.P,C5,2*%
%TO.N,GND*%
X107850000Y-76500000D03*
%TO.P,C5,1*%
%TO.N,+3V3*%
X104900000Y-76500000D03*
%TD*%
D18*
%TO.P,C4,2*%
%TO.N,XIN*%
X120600000Y-89525000D03*
%TO.P,C4,1*%
%TO.N,GND*%
X120600000Y-92475000D03*
%TD*%
D17*
%TO.P,D1,1,K*%
%TO.N,ROW_B*%
X94250000Y-115000000D03*
%TO.P,D1,2,A*%
%TO.N,Net-(D1-A)*%
X96750000Y-115000000D03*
%TD*%
D40*
%TO.P,D15,2,A*%
%TO.N,Net-(D15-A)*%
X152700000Y-82943750D03*
%TO.P,D15,1,K*%
%TO.N,GND*%
X152700000Y-86093750D03*
%TD*%
D16*
%TO.P,C8,2*%
%TO.N,GND*%
X130600000Y-71725000D03*
%TO.P,C8,1*%
%TO.N,Net-(U1-VREG_VOUT)*%
X130600000Y-68775000D03*
%TD*%
D41*
%TO.P,D4,1,K*%
%TO.N,ROW_A*%
X118225000Y-106475000D03*
%TO.P,D4,2,A*%
%TO.N,Net-(D4-A)*%
X115725000Y-106475000D03*
%TD*%
D32*
%TO.P,SW3,A,A*%
%TO.N,ENC_SA*%
X111975000Y-102475000D03*
D13*
%TO.P,SW3,B,B*%
%TO.N,ENC_SB*%
X111975000Y-97475000D03*
%TO.P,SW3,C,C*%
%TO.N,GND*%
X111975000Y-99975000D03*
D33*
%TO.P,SW3,MP*%
%TO.N,N/C*%
X104475000Y-105575000D03*
X104475000Y-94375000D03*
D13*
%TO.P,SW3,S1,S1*%
%TO.N,Net-(D4-A)*%
X97475000Y-97475000D03*
%TO.P,SW3,S2,S2*%
%TO.N,COL_A*%
X97475000Y-102475000D03*
%TD*%
D42*
%TO.N,GND*%
X156000000Y-85500000D03*
%TO.N,ROW_A*%
X128140000Y-106500000D03*
X126500000Y-106500000D03*
%TO.N,GND*%
X121500000Y-95000000D03*
X122289063Y-93189062D03*
X123150000Y-93200000D03*
X131882255Y-89582427D03*
%TO.N,LED*%
X124500000Y-100500000D03*
%TO.N,Net-(U1-RUN)*%
X125850000Y-87200000D03*
%TO.N,COL_C*%
X134500000Y-97500000D03*
%TO.N,ROW_B*%
X127136397Y-114363603D03*
X123500000Y-113500000D03*
%TO.N,GND*%
X133600000Y-87500000D03*
X133100000Y-76000000D03*
X126350000Y-81600000D03*
X126250000Y-83800000D03*
X148350000Y-76000000D03*
X138850000Y-81000000D03*
X126250000Y-83100000D03*
X125850000Y-84400000D03*
X139350000Y-84500000D03*
X151200000Y-99200000D03*
X128000000Y-102800000D03*
X122501250Y-83895442D03*
X134550000Y-83000000D03*
X123550000Y-84400000D03*
X126450000Y-81000000D03*
X138850000Y-87500000D03*
X147350000Y-76000000D03*
X129600000Y-73000000D03*
X125150000Y-84400000D03*
X126350000Y-82300000D03*
X121000000Y-129700000D03*
X139200000Y-129000000D03*
X117900000Y-102900000D03*
X122750000Y-84400000D03*
X137100000Y-73250000D03*
X107350000Y-78400000D03*
X126450000Y-89600000D03*
X139600000Y-76000000D03*
X134550000Y-79990930D03*
X147900000Y-89400000D03*
X124350000Y-84400000D03*
X130600000Y-72750000D03*
%TO.N,VBUS*%
X131000000Y-101200000D03*
X131800000Y-101200000D03*
X132425000Y-101500000D03*
X133500000Y-126800000D03*
X118300000Y-105200000D03*
X135000000Y-125925000D03*
X121500000Y-126800000D03*
X134400000Y-126800000D03*
X120200000Y-126400000D03*
X136000000Y-125925000D03*
%TO.N,+3V3*%
X148850000Y-79500000D03*
X147350000Y-87000000D03*
X143350000Y-83500000D03*
X140850000Y-80500000D03*
X124850000Y-87400000D03*
X142350000Y-83500000D03*
X141350000Y-83500000D03*
X143350000Y-81500000D03*
X148350000Y-81500000D03*
X146350000Y-83500000D03*
X141350000Y-82500000D03*
X148850000Y-78500000D03*
X148350000Y-84500000D03*
X146350000Y-81500000D03*
X120850000Y-73400000D03*
X140850000Y-78500000D03*
X148350000Y-85500000D03*
X140850000Y-79500000D03*
X144850000Y-81500000D03*
X147350000Y-82500000D03*
X147350000Y-81500000D03*
X142350000Y-87000000D03*
X148350000Y-83500000D03*
X148350000Y-82500000D03*
X144850000Y-83500000D03*
X147350000Y-83500000D03*
X148850000Y-77500000D03*
X141350000Y-84500000D03*
X143350000Y-82500000D03*
X128042821Y-87600000D03*
X141350000Y-86500000D03*
X119000000Y-79500000D03*
X148850000Y-80500000D03*
X148350000Y-86500000D03*
X142350000Y-82500000D03*
X140850000Y-77500000D03*
X141350000Y-85500000D03*
X142350000Y-81500000D03*
X141350000Y-81500000D03*
X146350000Y-82500000D03*
X144850000Y-82500000D03*
%TO.N,Net-(U1-VREG_VOUT)*%
X129150000Y-78400000D03*
X124150000Y-80200000D03*
%TO.N,ROW_B*%
X120000000Y-120000000D03*
X133500000Y-119500000D03*
X114000000Y-120000000D03*
X97500000Y-120000000D03*
%TO.N,LED*%
X127882586Y-86816209D03*
X114600000Y-101500000D03*
%TO.N,Net-(D10-DIN)*%
X126000000Y-104150000D03*
X121650000Y-104700000D03*
%TO.N,Net-(D10-DOUT)*%
X133800000Y-109000000D03*
X132300000Y-124300000D03*
%TO.N,QSPI_SS*%
X114950000Y-77700000D03*
X114250000Y-72900000D03*
%TO.N,QSPI_SD1*%
X114100000Y-76000000D03*
X112350000Y-74250000D03*
%TD*%
D43*
%TO.N,+3V3*%
X119400000Y-79900000D02*
X120912500Y-79900000D01*
X119000000Y-79500000D02*
X119400000Y-79900000D01*
%TO.N,ENC_SB*%
X112500000Y-96950000D02*
X111975000Y-97475000D01*
X115050000Y-83262744D02*
X115050000Y-87493811D01*
X115612744Y-82700000D02*
X115050000Y-83262744D01*
X115050000Y-87493811D02*
X112500000Y-90043811D01*
X118350000Y-82700000D02*
X115612744Y-82700000D01*
X112500000Y-90043811D02*
X112500000Y-96950000D01*
%TO.N,ENC_SA*%
X110000000Y-100500000D02*
X111975000Y-102475000D01*
X114650000Y-83097058D02*
X114650000Y-87328125D01*
X115447058Y-82300000D02*
X114650000Y-83097058D01*
X114650000Y-87328125D02*
X110000000Y-91978125D01*
X110000000Y-91978125D02*
X110000000Y-100500000D01*
X115850000Y-82300000D02*
X115447058Y-82300000D01*
%TO.N,COL_A*%
X95500000Y-100500000D02*
X97475000Y-102475000D01*
X95500000Y-97000000D02*
X95500000Y-100500000D01*
X100500000Y-92000000D02*
X95500000Y-97000000D01*
X108700000Y-91300000D02*
X108000000Y-92000000D01*
X108700000Y-91278124D02*
X108700000Y-91300000D01*
X113450000Y-86528124D02*
X108700000Y-91278124D01*
X113450000Y-82600000D02*
X113450000Y-86528124D01*
X108000000Y-92000000D02*
X100500000Y-92000000D01*
X114950000Y-81100000D02*
X113450000Y-82600000D01*
X120912500Y-81100000D02*
X114950000Y-81100000D01*
D44*
X102775000Y-107775000D02*
X97475000Y-102475000D01*
X112250000Y-111500000D02*
X108525000Y-107775000D01*
X112250000Y-112250000D02*
X112250000Y-111500000D01*
X108525000Y-107775000D02*
X102775000Y-107775000D01*
%TO.N,GND*%
X155406250Y-86093750D02*
X156000000Y-85500000D01*
X152700000Y-86093750D02*
X155406250Y-86093750D01*
%TO.N,VBUS*%
X152175000Y-77325000D02*
X150350000Y-75500000D01*
X150350000Y-75500000D02*
X150350000Y-87877207D01*
X150350000Y-74500000D02*
X150350000Y-75500000D01*
X121500000Y-126162500D02*
X121500000Y-126800000D01*
X120437500Y-126162500D02*
X120200000Y-126400000D01*
X121500000Y-126162500D02*
X120437500Y-126162500D01*
D43*
%TO.N,ROW_A*%
X128365000Y-106725000D02*
X132225000Y-106725000D01*
X126475000Y-106475000D02*
X126500000Y-106500000D01*
X128140000Y-106500000D02*
X128365000Y-106725000D01*
X118225000Y-106475000D02*
X126475000Y-106475000D01*
D44*
%TO.N,VBUS*%
X146500000Y-134500000D02*
X137925000Y-125925000D01*
X149329949Y-134500000D02*
X146500000Y-134500000D01*
X152500000Y-131329949D02*
X149329949Y-134500000D01*
X152500000Y-112000000D02*
X152500000Y-131329949D01*
X154500000Y-110000000D02*
X152500000Y-112000000D01*
X154500000Y-92027207D02*
X154500000Y-110000000D01*
X148350000Y-72500000D02*
X150350000Y-74500000D01*
X139100000Y-72500000D02*
X148350000Y-72500000D01*
X138600000Y-72000000D02*
X139100000Y-72500000D01*
X137925000Y-125925000D02*
X137700000Y-125925000D01*
X150350000Y-87877207D02*
X154500000Y-92027207D01*
D43*
%TO.N,ROW_C*%
X95000000Y-133750000D02*
X94250000Y-134500000D01*
X93450000Y-116515686D02*
X95000000Y-118065686D01*
X93765256Y-114200000D02*
X93450000Y-114515256D01*
X93450000Y-114515256D02*
X93450000Y-116515686D01*
X94100000Y-114200000D02*
X93765256Y-114200000D01*
X100168628Y-91200000D02*
X94100000Y-97268628D01*
X107278125Y-91200000D02*
X100168628Y-91200000D01*
X114550000Y-80300000D02*
X112650000Y-82200000D01*
X120912500Y-80300000D02*
X114550000Y-80300000D01*
X112650000Y-82200000D02*
X112650000Y-85828125D01*
X95000000Y-118065686D02*
X95000000Y-133750000D01*
X94100000Y-97268628D02*
X94100000Y-114200000D01*
X112650000Y-85828125D02*
X107278125Y-91200000D01*
%TO.N,ROW_B*%
X94500000Y-97434314D02*
X94500000Y-114750000D01*
X97467157Y-94467157D02*
X94500000Y-97434314D01*
X94500000Y-114750000D02*
X94250000Y-115000000D01*
X100334314Y-91600000D02*
X97434314Y-94500000D01*
X107443812Y-91600000D02*
X100334314Y-91600000D01*
X111521906Y-87521906D02*
X107443812Y-91600000D01*
X113050000Y-85993811D02*
X111521906Y-87521906D01*
%TO.N,ROW_A*%
X116250000Y-104500000D02*
X118225000Y-106475000D01*
X109100000Y-103100000D02*
X110500000Y-104500000D01*
X109100000Y-91443811D02*
X109100000Y-103100000D01*
X110500000Y-104500000D02*
X116250000Y-104500000D01*
X113850000Y-82765686D02*
X113850000Y-86693810D01*
X113850000Y-86693810D02*
X112215685Y-88328125D01*
X112215685Y-88328125D02*
X109100000Y-91443811D01*
X115115686Y-81500000D02*
X113850000Y-82765686D01*
X120912500Y-81500000D02*
X115115686Y-81500000D01*
%TO.N,COL_B*%
X126248529Y-103550000D02*
X127540000Y-104841471D01*
X125050000Y-103550000D02*
X126248529Y-103550000D01*
X122000000Y-100500000D02*
X125050000Y-103550000D01*
X113050000Y-104000000D02*
X116550000Y-100500000D01*
X109500000Y-102934314D02*
X110565686Y-104000000D01*
X127540000Y-104841471D02*
X127540000Y-112420000D01*
X109500000Y-91609497D02*
X109500000Y-102934314D01*
X116550000Y-100500000D02*
X122000000Y-100500000D01*
X114250000Y-86859496D02*
X113215686Y-87893811D01*
X114250000Y-82931372D02*
X114250000Y-86859496D01*
X110565686Y-104000000D02*
X113050000Y-104000000D01*
X115281372Y-81900000D02*
X114250000Y-82931372D01*
X120912500Y-81900000D02*
X115281372Y-81900000D01*
X113215686Y-87893811D02*
X109500000Y-91609497D01*
%TO.N,ENC_SA2*%
X115450000Y-87896755D02*
X115450000Y-83528125D01*
X115171905Y-88174850D02*
X115450000Y-87896755D01*
X115171905Y-95237591D02*
X115171905Y-88174850D01*
X135500000Y-97888604D02*
X135500000Y-97914215D01*
X137388604Y-96000000D02*
X135500000Y-97888604D01*
X135500000Y-97914215D02*
X133814215Y-99600000D01*
X115450000Y-83528125D02*
X115878125Y-83100000D01*
X133814215Y-99600000D02*
X119534314Y-99600000D01*
X139500000Y-96000000D02*
X137388604Y-96000000D01*
X146000000Y-102500000D02*
X139500000Y-96000000D01*
X115878125Y-83100000D02*
X120912500Y-83100000D01*
X152550000Y-102500000D02*
X146000000Y-102500000D01*
X119534314Y-99600000D02*
X115171905Y-95237591D01*
%TO.N,ENC_SB2*%
X141782843Y-97500000D02*
X152550000Y-97500000D01*
X139782843Y-95500000D02*
X141782843Y-97500000D01*
X135100000Y-97722918D02*
X137322918Y-95500000D01*
X135100000Y-97748529D02*
X135100000Y-97722918D01*
X133648529Y-99200000D02*
X135100000Y-97748529D01*
X115571905Y-95071905D02*
X119700000Y-99200000D01*
X115850000Y-88062440D02*
X115571905Y-88340535D01*
X137322918Y-95500000D02*
X139782843Y-95500000D01*
X115571905Y-88340535D02*
X115571905Y-95071905D01*
X115850000Y-84328125D02*
X115850000Y-88062440D01*
X119700000Y-99200000D02*
X133648529Y-99200000D01*
X116278125Y-83900000D02*
X115850000Y-84328125D01*
X120912500Y-83900000D02*
X116278125Y-83900000D01*
%TO.N,COL_C*%
X115989062Y-94823806D02*
X115989062Y-88489062D01*
X133200000Y-98800000D02*
X119965256Y-98800000D01*
X134500000Y-97500000D02*
X133200000Y-98800000D01*
X119965256Y-98800000D02*
X115989062Y-94823806D01*
X116250000Y-88228125D02*
X115989062Y-88489062D01*
%TO.N,GND*%
X121000000Y-94500000D02*
X121500000Y-95000000D01*
X120575000Y-94500000D02*
X121000000Y-94500000D01*
%TO.N,COL_C*%
X116443811Y-84300000D02*
X116250000Y-84493811D01*
X116250000Y-84493811D02*
X116250000Y-88228125D01*
X120912500Y-84300000D02*
X116443811Y-84300000D01*
%TO.N,GND*%
X122289063Y-93189063D02*
X122350000Y-93250000D01*
X122289063Y-93189062D02*
X122289063Y-93189063D01*
X122289062Y-93189062D02*
X122289063Y-93189062D01*
%TO.N,ROW_B*%
X113050000Y-82434314D02*
X113050000Y-85993811D01*
X114784314Y-80700000D02*
X113050000Y-82434314D01*
%TO.N,GND*%
X132549828Y-90250000D02*
X131882255Y-89582427D01*
X133025000Y-90250000D02*
X132549828Y-90250000D01*
D44*
%TO.N,Net-(D14-A)*%
X138100000Y-90250000D02*
X136175000Y-90250000D01*
%TO.N,+3V3*%
X141875000Y-89400000D02*
X141025000Y-90250000D01*
X143400000Y-89400000D02*
X141875000Y-89400000D01*
D43*
%TO.N,LED*%
X116100000Y-100000000D02*
X114600000Y-101500000D01*
X124000000Y-100000000D02*
X116100000Y-100000000D01*
X124500000Y-100500000D02*
X124000000Y-100000000D01*
%TO.N,Net-(U1-RUN)*%
X126150000Y-86900000D02*
X126150000Y-85937500D01*
X125850000Y-87200000D02*
X126150000Y-86900000D01*
X103312500Y-84462500D02*
X104100000Y-85250000D01*
X101350000Y-84462500D02*
X103312500Y-84462500D01*
%TO.N,+3V3*%
X104900000Y-77218750D02*
X104900000Y-76500000D01*
X101350000Y-80768750D02*
X104900000Y-77218750D01*
X101350000Y-81537500D02*
X101350000Y-80768750D01*
X124550000Y-87100000D02*
X124550000Y-85937500D01*
X124850000Y-87400000D02*
X124550000Y-87100000D01*
%TO.N,Net-(D5-A)*%
X138050000Y-100450000D02*
X138050000Y-97500000D01*
X134725000Y-103185051D02*
X136110051Y-101800000D01*
X136110051Y-101800000D02*
X136700000Y-101800000D01*
X136700000Y-101800000D02*
X138050000Y-100450000D01*
X134725000Y-106725000D02*
X134725000Y-103185051D01*
%TO.N,Net-(R3-Pad1)*%
X108850000Y-71000000D02*
X109350000Y-70500000D01*
X106637500Y-71000000D02*
X108850000Y-71000000D01*
X109350000Y-62800000D02*
X111150000Y-61000000D01*
X104887500Y-72750000D02*
X106637500Y-71000000D01*
X109350000Y-70500000D02*
X109350000Y-62800000D01*
%TO.N,ROW_B*%
X123500000Y-113500000D02*
X115750000Y-113500000D01*
X115750000Y-113500000D02*
X114250000Y-115000000D01*
%TO.N,Net-(U1-VREG_VOUT)*%
X127289320Y-77225000D02*
X129600000Y-77225000D01*
X126150000Y-79062500D02*
X126150000Y-78364320D01*
X126150000Y-78364320D02*
X127289320Y-77225000D01*
D45*
X128250000Y-75875000D02*
X129600000Y-77225000D01*
X130600000Y-68775000D02*
X128250000Y-71125000D01*
X128250000Y-71125000D02*
X128250000Y-75875000D01*
X131100000Y-69275000D02*
X130600000Y-68775000D01*
X137100000Y-69275000D02*
X131100000Y-69275000D01*
D43*
%TO.N,ROW_B*%
X120912500Y-80700000D02*
X114784314Y-80700000D01*
D44*
%TO.N,COL_A*%
X112500000Y-112500000D02*
X112250000Y-112250000D01*
X112500000Y-130000000D02*
X112500000Y-112500000D01*
X110420000Y-131920000D02*
X110500000Y-132000000D01*
X108040000Y-131920000D02*
X110420000Y-131920000D01*
X110500000Y-132000000D02*
X112500000Y-130000000D01*
%TO.N,COL_B*%
X126236397Y-114736397D02*
X126236397Y-113723603D01*
X128000000Y-116500000D02*
X126236397Y-114736397D01*
X126236397Y-113723603D02*
X127540000Y-112420000D01*
X128000000Y-131460000D02*
X128000000Y-116500000D01*
X127540000Y-131920000D02*
X128000000Y-131460000D01*
D43*
%TO.N,ENC_SB*%
X115612745Y-82700000D02*
X118350000Y-82700000D01*
X118350000Y-82700000D02*
X120912500Y-82700000D01*
%TO.N,ENC_SA*%
X115447059Y-82300000D02*
X115850000Y-82300000D01*
X115850000Y-82300000D02*
X120912500Y-82300000D01*
%TO.N,Net-(D4-A)*%
X108268503Y-106475000D02*
X115725000Y-106475000D01*
X99268503Y-97475000D02*
X108268503Y-106475000D01*
X97475000Y-97475000D02*
X99268503Y-97475000D01*
%TO.N,ROW_B*%
X127772794Y-115000000D02*
X127136397Y-114363603D01*
X133500000Y-115000000D02*
X127772794Y-115000000D01*
%TO.N,GND*%
X120600000Y-92475000D02*
X121575000Y-92475000D01*
X124350000Y-82800000D02*
X122750000Y-84400000D01*
X152000000Y-100000000D02*
X151200000Y-99200000D01*
D44*
X118850000Y-102800000D02*
X118000000Y-102800000D01*
D43*
X138575000Y-86100000D02*
X138575000Y-87225000D01*
X133100000Y-74975000D02*
X133100000Y-76000000D01*
X129600000Y-74275000D02*
X129600000Y-73000000D01*
X130600000Y-71725000D02*
X130600000Y-72750000D01*
D44*
X147350000Y-76000000D02*
X146950000Y-76000000D01*
D43*
X124350000Y-82500000D02*
X124350000Y-84400000D01*
X107850000Y-76500000D02*
X107850000Y-77900000D01*
X139350000Y-84500000D02*
X139350000Y-83525000D01*
X134300000Y-82750000D02*
X134550000Y-83000000D01*
X128100000Y-102900000D02*
X128000000Y-102800000D01*
D44*
X126235000Y-60600000D02*
X127735000Y-60600000D01*
D43*
X107850000Y-77900000D02*
X107350000Y-78400000D01*
X121575000Y-92475000D02*
X122289062Y-93189062D01*
X123400000Y-92050000D02*
X125000000Y-90450000D01*
X125450000Y-90450000D02*
X126087500Y-90450000D01*
X118000000Y-102800000D02*
X117900000Y-102900000D01*
X122495000Y-63750000D02*
X122375000Y-63870000D01*
X134309070Y-79750000D02*
X134550000Y-79990930D01*
D44*
X146350000Y-78550000D02*
X147150000Y-79350000D01*
X147350000Y-76000000D02*
X148350000Y-76000000D01*
D43*
X124350000Y-82500000D02*
X124350000Y-82800000D01*
X123896692Y-82500000D02*
X122501250Y-83895442D01*
D44*
X129100000Y-102900000D02*
X128100000Y-102900000D01*
D43*
X125650000Y-82500000D02*
X126250000Y-83100000D01*
X139350000Y-83525000D02*
X138575000Y-82750000D01*
D44*
X126235000Y-60600000D02*
X127100000Y-60600000D01*
D43*
X137100000Y-72225000D02*
X137100000Y-73250000D01*
X124350000Y-82500000D02*
X125650000Y-82500000D01*
D44*
X146950000Y-76000000D02*
X146350000Y-75400000D01*
D43*
X121500000Y-128675000D02*
X121500000Y-129200000D01*
X137700000Y-128875000D02*
X139075000Y-128875000D01*
X125450000Y-82500000D02*
X126350000Y-81600000D01*
X124350000Y-83600000D02*
X125150000Y-84400000D01*
X125600000Y-90450000D02*
X126450000Y-89600000D01*
X125450000Y-90450000D02*
X125600000Y-90450000D01*
X139075000Y-128875000D02*
X139200000Y-129000000D01*
X124350000Y-82500000D02*
X124350000Y-82900000D01*
X125850000Y-81000000D02*
X124350000Y-82500000D01*
X121500000Y-129200000D02*
X121000000Y-129700000D01*
X133325000Y-86100000D02*
X133325000Y-87225000D01*
X123250000Y-93100000D02*
X123150000Y-93200000D01*
X122875000Y-94750000D02*
X120600000Y-92475000D01*
X138850000Y-79675000D02*
X138575000Y-79400000D01*
X133325000Y-79775000D02*
X133350000Y-79750000D01*
X125000000Y-90450000D02*
X125450000Y-90450000D01*
X124350000Y-82900000D02*
X125850000Y-84400000D01*
X125650000Y-83800000D02*
X126250000Y-83800000D01*
X138575000Y-87225000D02*
X138850000Y-87500000D01*
D44*
X146350000Y-75400000D02*
X146350000Y-78550000D01*
D43*
X126150000Y-82500000D02*
X126350000Y-82300000D01*
X124350000Y-82500000D02*
X123896692Y-82500000D01*
X123125000Y-92050000D02*
X123250000Y-92050000D01*
X124350000Y-82500000D02*
X126150000Y-82500000D01*
X138575000Y-76000000D02*
X139600000Y-76000000D01*
X111975000Y-99975000D02*
X112425000Y-99975000D01*
X133325000Y-82750000D02*
X134300000Y-82750000D01*
X152550000Y-100000000D02*
X152000000Y-100000000D01*
D44*
X124315000Y-60600000D02*
X122815000Y-60600000D01*
D43*
X138850000Y-81000000D02*
X138850000Y-79675000D01*
X123250000Y-92050000D02*
X123250000Y-93100000D01*
X126450000Y-81000000D02*
X125850000Y-81000000D01*
X107850000Y-76500000D02*
X110345000Y-76500000D01*
X124350000Y-82500000D02*
X125450000Y-82500000D01*
X110345000Y-76500000D02*
X110500000Y-76655000D01*
D44*
X122815000Y-60600000D02*
X122545000Y-60870000D01*
D43*
X124350000Y-82500000D02*
X124350000Y-83600000D01*
X133350000Y-79750000D02*
X134309070Y-79750000D01*
X123250000Y-92050000D02*
X123400000Y-92050000D01*
X124350000Y-82500000D02*
X125650000Y-83800000D01*
X146350000Y-89400000D02*
X147900000Y-89400000D01*
X123975000Y-63750000D02*
X122495000Y-63750000D01*
X124350000Y-83600000D02*
X123550000Y-84400000D01*
D44*
X127735000Y-60600000D02*
X128005000Y-60870000D01*
D43*
X133325000Y-87225000D02*
X133600000Y-87500000D01*
D44*
%TO.N,VBUS*%
X142200000Y-79700000D02*
X142550000Y-79350000D01*
D43*
X132050000Y-101450000D02*
X131800000Y-101200000D01*
X132050000Y-102900000D02*
X131000000Y-101850000D01*
D44*
X138600000Y-68150000D02*
X138050000Y-67600000D01*
X142550000Y-79350000D02*
X142550000Y-76250000D01*
X138600000Y-73050000D02*
X138600000Y-72000000D01*
D43*
X127100000Y-65300000D02*
X127150000Y-65300000D01*
D44*
X138600000Y-72000000D02*
X138600000Y-68150000D01*
X134375000Y-125925000D02*
X133500000Y-126800000D01*
X129050000Y-67300000D02*
X127250000Y-65500000D01*
X121800000Y-102800000D02*
X119400000Y-105200000D01*
D43*
X126575000Y-64775000D02*
X127100000Y-65300000D01*
D44*
X135275000Y-125925000D02*
X134400000Y-126800000D01*
X136000000Y-125925000D02*
X135275000Y-125925000D01*
D43*
X132050000Y-101875000D02*
X132050000Y-102900000D01*
D44*
X142550000Y-76250000D02*
X143400000Y-75400000D01*
D43*
X121500000Y-125725000D02*
X120875000Y-125725000D01*
D44*
X135000000Y-125925000D02*
X134375000Y-125925000D01*
X137700000Y-125925000D02*
X136000000Y-125925000D01*
D43*
X131000000Y-101850000D02*
X131000000Y-101200000D01*
D44*
X140950000Y-75400000D02*
X138600000Y-73050000D01*
X119400000Y-105200000D02*
X118300000Y-105200000D01*
X138050000Y-67600000D02*
X129350000Y-67600000D01*
D43*
X132425000Y-101500000D02*
X132050000Y-101875000D01*
X137700000Y-125925000D02*
X135000000Y-125925000D01*
D44*
X129050000Y-67300000D02*
X129350000Y-67600000D01*
X143400000Y-75400000D02*
X140950000Y-75400000D01*
D43*
X132050000Y-102900000D02*
X132050000Y-101450000D01*
X126575000Y-63750000D02*
X126575000Y-64775000D01*
%TO.N,+3V3*%
X104900000Y-76500000D02*
X105784744Y-76500000D01*
D44*
X130400000Y-84500000D02*
X130400000Y-87050000D01*
X135625000Y-76000000D02*
X135625000Y-77700000D01*
D43*
X126146360Y-80000000D02*
X126650000Y-80000000D01*
X124150000Y-74984314D02*
X122565686Y-73400000D01*
X105784744Y-76500000D02*
X108784744Y-73500000D01*
X121446360Y-83500000D02*
X120912500Y-83500000D01*
D44*
X144850000Y-82500000D02*
X144850000Y-83500000D01*
D43*
X127787500Y-79900000D02*
X127253640Y-79900000D01*
X120912500Y-79900000D02*
X121446360Y-79900000D01*
D44*
X135625000Y-77700000D02*
X135625000Y-86100000D01*
X144850000Y-87950000D02*
X143400000Y-89400000D01*
D43*
X130250000Y-79900000D02*
X130400000Y-79750000D01*
X129625000Y-83500000D02*
X130375000Y-82750000D01*
X115562500Y-72436029D02*
X115562500Y-70500000D01*
X128850000Y-83500000D02*
X129625000Y-83500000D01*
D44*
X144850000Y-83500000D02*
X144850000Y-85650000D01*
X130400000Y-87050000D02*
X131750000Y-88400000D01*
D43*
X122565686Y-73400000D02*
X120850000Y-73400000D01*
D44*
X130400000Y-86075000D02*
X130375000Y-86100000D01*
D43*
X127787500Y-79900000D02*
X127150000Y-79900000D01*
X126650000Y-80000000D02*
X126950000Y-79700000D01*
X117700000Y-72845000D02*
X120295000Y-72845000D01*
D44*
X135625000Y-77700000D02*
X132450000Y-77700000D01*
D43*
X124550000Y-79062500D02*
X124550000Y-77333699D01*
X128850000Y-86792821D02*
X128042821Y-87600000D01*
D44*
X133100000Y-72025000D02*
X135625000Y-74550000D01*
D43*
X120295000Y-72845000D02*
X120850000Y-73400000D01*
X125353640Y-80000000D02*
X126146360Y-80000000D01*
X126146360Y-80000000D02*
X126550000Y-79596360D01*
X124150000Y-76933699D02*
X124150000Y-74984314D01*
D44*
X144850000Y-85650000D02*
X144850000Y-87950000D01*
D43*
X127787500Y-79900000D02*
X130250000Y-79900000D01*
X127253640Y-83500000D02*
X127787500Y-83500000D01*
D44*
X135625000Y-74550000D02*
X135625000Y-76000000D01*
X142400000Y-88400000D02*
X143400000Y-89400000D01*
X130400000Y-79750000D02*
X130400000Y-84500000D01*
D43*
X127050000Y-83296360D02*
X127253640Y-83500000D01*
X124550000Y-77333699D02*
X124150000Y-76933699D01*
D44*
X130400000Y-84500000D02*
X130400000Y-86075000D01*
D43*
X127787500Y-83500000D02*
X128850000Y-83500000D01*
X121548180Y-80001820D02*
X121650000Y-80103640D01*
X124950000Y-79062500D02*
X124950000Y-79596360D01*
X121446360Y-79900000D02*
X121548180Y-80001820D01*
D44*
X132450000Y-77700000D02*
X130400000Y-79750000D01*
D43*
X120378640Y-83500000D02*
X120912500Y-83500000D01*
X127150000Y-79900000D02*
X126950000Y-79700000D01*
D44*
X131750000Y-88400000D02*
X137925000Y-88400000D01*
X144850000Y-81500000D02*
X144850000Y-82500000D01*
X144850000Y-79350000D02*
X144850000Y-81500000D01*
D43*
X117700000Y-72637500D02*
X117700000Y-72845000D01*
X127050000Y-80103640D02*
X127050000Y-83296360D01*
X124950000Y-79596360D02*
X125353640Y-80000000D01*
D44*
X135625000Y-86100000D02*
X137925000Y-88400000D01*
D43*
X126550000Y-79596360D02*
X126550000Y-79062500D01*
D44*
X137925000Y-88400000D02*
X142400000Y-88400000D01*
D43*
X121650000Y-80103640D02*
X121650000Y-83296360D01*
X127253640Y-79900000D02*
X127050000Y-80103640D01*
X128850000Y-83500000D02*
X128850000Y-86792821D01*
X126950000Y-79700000D02*
X126950000Y-79062500D01*
X115562500Y-70500000D02*
X117700000Y-72637500D01*
X114498529Y-73500000D02*
X115562500Y-72436029D01*
X108784744Y-73500000D02*
X114498529Y-73500000D01*
X121650000Y-83296360D02*
X121446360Y-83500000D01*
%TO.N,Net-(C3-Pad2)*%
X127687500Y-92050000D02*
X128100000Y-92462500D01*
X125450000Y-92050000D02*
X127687500Y-92050000D01*
X125825000Y-94750000D02*
X128100000Y-92475000D01*
X128100000Y-92475000D02*
X128100000Y-92462500D01*
%TO.N,XIN*%
X123600000Y-88250000D02*
X123750000Y-88100000D01*
X121875000Y-88250000D02*
X123600000Y-88250000D01*
X123125000Y-89525000D02*
X120600000Y-89525000D01*
X123250000Y-90450000D02*
X123250000Y-89650000D01*
X123750000Y-88100000D02*
X123750000Y-85937500D01*
X120600000Y-89525000D02*
X121875000Y-88250000D01*
X123250000Y-89650000D02*
X123125000Y-89525000D01*
%TO.N,Net-(U1-VREG_VOUT)*%
X121750000Y-85200000D02*
X121650000Y-85100000D01*
X124950000Y-85403640D02*
X124746360Y-85200000D01*
X121650000Y-83900000D02*
X122050000Y-83500000D01*
X129150000Y-77675000D02*
X129600000Y-77225000D01*
X122050000Y-80000000D02*
X123950000Y-80000000D01*
X123950000Y-80000000D02*
X124150000Y-80200000D01*
X124746360Y-85200000D02*
X121750000Y-85200000D01*
X124150000Y-80200000D02*
X124150000Y-79062500D01*
X124950000Y-85937500D02*
X124950000Y-85403640D01*
X122050000Y-83500000D02*
X122050000Y-80000000D01*
X129150000Y-78400000D02*
X129150000Y-77675000D01*
X121650000Y-85100000D02*
X121650000Y-83900000D01*
%TO.N,ROW_B*%
X114250000Y-119750000D02*
X114250000Y-115000000D01*
X133500000Y-119500000D02*
X133500000Y-115000000D01*
X94250000Y-116750000D02*
X97500000Y-120000000D01*
X114000000Y-120000000D02*
X114250000Y-119750000D01*
X114250000Y-119750000D02*
X119750000Y-119750000D01*
X119750000Y-119750000D02*
X120000000Y-120000000D01*
X94250000Y-115000000D02*
X94250000Y-116750000D01*
X133025000Y-114525000D02*
X133500000Y-115000000D01*
D44*
%TO.N,Net-(D1-A)*%
X101690000Y-114960000D02*
X101650000Y-115000000D01*
X101650000Y-115000000D02*
X96750000Y-115000000D01*
%TO.N,Net-(D2-A)*%
X121150000Y-115000000D02*
X121190000Y-114960000D01*
X116750000Y-115000000D02*
X121150000Y-115000000D01*
%TO.N,Net-(D3-A)*%
X136000000Y-115000000D02*
X140650000Y-115000000D01*
X140650000Y-115000000D02*
X140690000Y-114960000D01*
D43*
%TO.N,ROW_A*%
X118250000Y-106500000D02*
X118225000Y-106475000D01*
D44*
%TO.N,Net-(D6-A)*%
X96750000Y-134500000D02*
X101650000Y-134500000D01*
X101650000Y-134500000D02*
X101690000Y-134460000D01*
D43*
%TO.N,ROW_C*%
X132500000Y-139500000D02*
X133750000Y-138250000D01*
X113750000Y-138750000D02*
X113750000Y-134500000D01*
X113000000Y-139500000D02*
X113750000Y-138750000D01*
X97000000Y-139500000D02*
X113000000Y-139500000D01*
X133750000Y-138250000D02*
X133750000Y-134500000D01*
X113000000Y-139500000D02*
X132500000Y-139500000D01*
X94250000Y-134500000D02*
X94250000Y-136750000D01*
X94250000Y-136750000D02*
X97000000Y-139500000D01*
D44*
%TO.N,Net-(D7-A)*%
X121150000Y-134500000D02*
X121190000Y-134460000D01*
X116250000Y-134500000D02*
X121150000Y-134500000D01*
D43*
%TO.N,Net-(D8-A)*%
X140690000Y-134460000D02*
X139740000Y-134460000D01*
D44*
X136250000Y-134500000D02*
X140650000Y-134500000D01*
X140650000Y-134500000D02*
X140690000Y-134460000D01*
D43*
%TO.N,LED*%
X127882586Y-86816209D02*
X126894849Y-86816209D01*
X126894849Y-86816209D02*
X126550000Y-86471360D01*
X126550000Y-86471360D02*
X126550000Y-85937500D01*
%TO.N,Net-(D10-DIN)*%
X126000000Y-104150000D02*
X122200000Y-104150000D01*
X122200000Y-104150000D02*
X121650000Y-104700000D01*
%TO.N,Net-(D10-DOUT)*%
X135000000Y-110200000D02*
X133800000Y-109000000D01*
X132300000Y-124300000D02*
X135000000Y-121600000D01*
X135000000Y-121600000D02*
X135000000Y-110200000D01*
D44*
%TO.N,USB_D-*%
X126350000Y-65943750D02*
X126350000Y-68143750D01*
D43*
X125925000Y-63750000D02*
X125925000Y-65518750D01*
D44*
X126350000Y-68143750D02*
X126800000Y-68593750D01*
X126800000Y-68593750D02*
X126800000Y-69381250D01*
D43*
X125925000Y-65518750D02*
X126350000Y-65943750D01*
D44*
%TO.N,USB_D+*%
X124300000Y-68693750D02*
X124300000Y-69381250D01*
X124850000Y-68143750D02*
X124850000Y-65943750D01*
D43*
X125275000Y-65518750D02*
X124850000Y-65943750D01*
X125275000Y-63750000D02*
X125275000Y-65518750D01*
X124382500Y-69381250D02*
X124300000Y-69381250D01*
D44*
X124850000Y-68143750D02*
X124300000Y-68693750D01*
D43*
%TO.N,XOUT*%
X126812500Y-88250000D02*
X124350000Y-88250000D01*
X124350000Y-88250000D02*
X124150000Y-88050000D01*
X124150000Y-88050000D02*
X124150000Y-85937500D01*
X128100000Y-89537500D02*
X126812500Y-88250000D01*
%TO.N,QSPI_SS*%
X112637500Y-70500000D02*
X110500000Y-72637500D01*
X113850000Y-72900000D02*
X113795000Y-72845000D01*
X114250000Y-72900000D02*
X113850000Y-72900000D01*
X107907500Y-72845000D02*
X107812500Y-72750000D01*
X113795000Y-72845000D02*
X110500000Y-72845000D01*
X121649654Y-78100346D02*
X115350346Y-78100346D01*
X121750000Y-78200692D02*
X121649654Y-78100346D01*
X110500000Y-72845000D02*
X107907500Y-72845000D01*
X115350346Y-78100346D02*
X114950000Y-77700000D01*
X110500000Y-72637500D02*
X110500000Y-72845000D01*
X121750000Y-79062500D02*
X121750000Y-78200692D01*
D44*
%TO.N,Net-(U1-USB_DP)*%
X124950000Y-72956250D02*
X124300000Y-72306250D01*
X124950000Y-76743750D02*
X124950000Y-72956250D01*
D43*
X125350000Y-77143750D02*
X124950000Y-76743750D01*
X125350000Y-79062500D02*
X125350000Y-77143750D01*
X124300000Y-72306250D02*
X124300000Y-72393750D01*
D44*
%TO.N,Net-(U1-USB_DM)*%
X126150000Y-76700000D02*
X126150000Y-72956250D01*
D43*
X125750000Y-79062500D02*
X125750000Y-77100000D01*
X125750000Y-77100000D02*
X126150000Y-76700000D01*
D44*
X126150000Y-72956250D02*
X126800000Y-72306250D01*
D43*
%TO.N,Net-(U1-RUN)*%
X126150000Y-85937500D02*
X126150000Y-86848529D01*
D44*
%TO.N,COL_C*%
X147040000Y-112420000D02*
X147040000Y-109960000D01*
X147040000Y-109960000D02*
X148000000Y-109000000D01*
X136400000Y-106900000D02*
X138500000Y-109000000D01*
X151080000Y-112080000D02*
X151080000Y-127880000D01*
X136400000Y-102500000D02*
X136400000Y-106900000D01*
X151080000Y-127880000D02*
X147040000Y-131920000D01*
X148000000Y-109000000D02*
X151080000Y-112080000D01*
D43*
X138050000Y-103430000D02*
X138050000Y-102500000D01*
D44*
X138500000Y-109000000D02*
X148000000Y-109000000D01*
X138050000Y-102500000D02*
X136400000Y-102500000D01*
%TO.N,COL_A*%
X112080000Y-112420000D02*
X112250000Y-112250000D01*
X108040000Y-112420000D02*
X112080000Y-112420000D01*
D43*
%TO.N,COL_B*%
X126620000Y-112420000D02*
X127540000Y-112420000D01*
%TO.N,QSPI_SD3*%
X123750000Y-75150000D02*
X122715000Y-74115000D01*
X123750000Y-79062500D02*
X123750000Y-75150000D01*
X122715000Y-74115000D02*
X117700000Y-74115000D01*
%TO.N,QSPI_SD1*%
X121600000Y-77655000D02*
X115755000Y-77655000D01*
X112350000Y-74250000D02*
X110635000Y-74250000D01*
X122150000Y-79062500D02*
X122150000Y-78035006D01*
X122150000Y-78035006D02*
X121982497Y-77867503D01*
X121769994Y-77655000D02*
X121600000Y-77655000D01*
X121982497Y-77867503D02*
X121769994Y-77655000D01*
X110635000Y-74250000D02*
X110500000Y-74115000D01*
X115755000Y-77655000D02*
X114100000Y-76000000D01*
%TO.N,Net-(D13-A)*%
X117350000Y-92362500D02*
X117350000Y-94225000D01*
%TO.N,QSPI_SCLK*%
X123350000Y-79062500D02*
X123350000Y-76000000D01*
X123350000Y-76000000D02*
X122735000Y-75385000D01*
X122735000Y-75385000D02*
X117700000Y-75385000D01*
%TO.N,QSPI_SD0*%
X122950000Y-77100000D02*
X122505000Y-76655000D01*
X122950000Y-79062500D02*
X122950000Y-77100000D01*
X122505000Y-76655000D02*
X117700000Y-76655000D01*
%TO.N,QSPI_SD2*%
X116305000Y-77255000D02*
X114435000Y-75385000D01*
X122550000Y-77869320D02*
X121935680Y-77255000D01*
X121935680Y-77255000D02*
X116305000Y-77255000D01*
X122550000Y-79062500D02*
X122550000Y-77869320D01*
X114435000Y-75385000D02*
X110500000Y-75385000D01*
%TO.N,TEST_LED*%
X121050000Y-88300000D02*
X118487500Y-88300000D01*
X121550000Y-87800000D02*
X121050000Y-88300000D01*
X118487500Y-88300000D02*
X117350000Y-89437500D01*
X122850000Y-87800000D02*
X121550000Y-87800000D01*
X122950000Y-85937500D02*
X122950000Y-87700000D01*
X122950000Y-87700000D02*
X122850000Y-87800000D01*
D44*
%TO.N,Net-(D15-A)*%
X152750000Y-82743750D02*
X152550000Y-82943750D01*
X152750000Y-80756250D02*
X152750000Y-82743750D01*
D43*
%TO.N,+3V3*%
X124550000Y-79600000D02*
X124550000Y-79062500D01*
X124750000Y-79800000D02*
X124550000Y-79600000D01*
X124950000Y-79600000D02*
X124750000Y-79800000D01*
X124950000Y-79062500D02*
X124950000Y-79600000D01*
%TD*%
%TA.AperFunction,Conductor*%
%TO.N,GND*%
G36*
X130676571Y-59199433D02*
G01*
X130743517Y-59219425D01*
X130789029Y-59272438D01*
X130800000Y-59323432D01*
X130800000Y-64876000D01*
X130780315Y-64943039D01*
X130727511Y-64988794D01*
X130676000Y-65000000D01*
X128074862Y-65000000D01*
X128007823Y-64980315D01*
X127987184Y-64963684D01*
X127824036Y-64800536D01*
X127824035Y-64800535D01*
X127824034Y-64800534D01*
X127676548Y-64701988D01*
X127512666Y-64634105D01*
X127512658Y-64634103D01*
X127375308Y-64606782D01*
X127313397Y-64574397D01*
X127278823Y-64513681D01*
X127275499Y-64485173D01*
X127275499Y-62877128D01*
X127269091Y-62817517D01*
X127218796Y-62682669D01*
X127218795Y-62682668D01*
X127218793Y-62682664D01*
X127132547Y-62567455D01*
X127132544Y-62567452D01*
X127017335Y-62481206D01*
X127017328Y-62481202D01*
X126882486Y-62430910D01*
X126882485Y-62430909D01*
X126882483Y-62430909D01*
X126822873Y-62424500D01*
X126822863Y-62424500D01*
X126327129Y-62424500D01*
X126327120Y-62424501D01*
X126263248Y-62431367D01*
X126236742Y-62431367D01*
X126232483Y-62430909D01*
X126172873Y-62424500D01*
X126172864Y-62424500D01*
X125677129Y-62424500D01*
X125677120Y-62424501D01*
X125613248Y-62431367D01*
X125586742Y-62431367D01*
X125582483Y-62430909D01*
X125522873Y-62424500D01*
X125522864Y-62424500D01*
X125027129Y-62424500D01*
X125027120Y-62424501D01*
X124963248Y-62431367D01*
X124936742Y-62431367D01*
X124932483Y-62430909D01*
X124872873Y-62424500D01*
X124872864Y-62424500D01*
X124377129Y-62424500D01*
X124377123Y-62424501D01*
X124317516Y-62430908D01*
X124182671Y-62481202D01*
X124182664Y-62481206D01*
X124067455Y-62567452D01*
X124067452Y-62567455D01*
X123981206Y-62682664D01*
X123981202Y-62682671D01*
X123930908Y-62817517D01*
X123924501Y-62877116D01*
X123924501Y-62877123D01*
X123924500Y-62877135D01*
X123924500Y-64622870D01*
X123924501Y-64622876D01*
X123930908Y-64682483D01*
X123984303Y-64825641D01*
X123982877Y-64826172D01*
X123995643Y-64884839D01*
X123971229Y-64950305D01*
X123915298Y-64992179D01*
X123871958Y-65000000D01*
X119975064Y-65000000D01*
X119908025Y-64980315D01*
X119862270Y-64927511D01*
X119851069Y-64874940D01*
X119872013Y-62424500D01*
X119898944Y-59273503D01*
X119919200Y-59206636D01*
X119972393Y-59161335D01*
X120023505Y-59150566D01*
X130676571Y-59199433D01*
G37*
%TD.AperFunction*%
%TD*%
%TA.AperFunction,Conductor*%
%TO.N,+3V3*%
G36*
X141592539Y-77019685D02*
G01*
X141638294Y-77072489D01*
X141649500Y-77124000D01*
X141649500Y-77964707D01*
X141629815Y-78031746D01*
X141603189Y-78061353D01*
X141552282Y-78102274D01*
X141552275Y-78102280D01*
X141432969Y-78250704D01*
X141432967Y-78250707D01*
X141348360Y-78421302D01*
X141302400Y-78606107D01*
X141299500Y-78648879D01*
X141299500Y-80051121D01*
X141299501Y-80051125D01*
X141302399Y-80093886D01*
X141302399Y-80093887D01*
X141348360Y-80278696D01*
X141432967Y-80449292D01*
X141432969Y-80449295D01*
X141552277Y-80597721D01*
X141552278Y-80597722D01*
X141700704Y-80717030D01*
X141700707Y-80717032D01*
X141871302Y-80801639D01*
X141871303Y-80801639D01*
X141871307Y-80801641D01*
X142056111Y-80847600D01*
X142098877Y-80850500D01*
X143001122Y-80850499D01*
X143043889Y-80847600D01*
X143228693Y-80801641D01*
X143399296Y-80717030D01*
X143547722Y-80597722D01*
X143603675Y-80528112D01*
X143661015Y-80488196D01*
X143730837Y-80485616D01*
X143790970Y-80521194D01*
X143796967Y-80528115D01*
X143852632Y-80597366D01*
X143852633Y-80597367D01*
X144000974Y-80716607D01*
X144000977Y-80716609D01*
X144171476Y-80801168D01*
X144356175Y-80847102D01*
X144398903Y-80850000D01*
X144550000Y-80850000D01*
X144550000Y-77850000D01*
X144398903Y-77850000D01*
X144356175Y-77852897D01*
X144171476Y-77898831D01*
X144000977Y-77983390D01*
X144000974Y-77983392D01*
X143852635Y-78102631D01*
X143796967Y-78171885D01*
X143739624Y-78211803D01*
X143669801Y-78214383D01*
X143609669Y-78178804D01*
X143603673Y-78171884D01*
X143547724Y-78102280D01*
X143547720Y-78102277D01*
X143546910Y-78101625D01*
X143496811Y-78061353D01*
X143456893Y-78004009D01*
X143450500Y-77964707D01*
X143450500Y-77124000D01*
X143470185Y-77056961D01*
X143522989Y-77011206D01*
X143574500Y-77000000D01*
X145325500Y-77000000D01*
X145392539Y-77019685D01*
X145438294Y-77072489D01*
X145449500Y-77124000D01*
X145449500Y-77727370D01*
X145429815Y-77794409D01*
X145377011Y-77840164D01*
X145317110Y-77851086D01*
X145301097Y-77850000D01*
X145150000Y-77850000D01*
X145150000Y-80850000D01*
X145301097Y-80850000D01*
X145343824Y-80847102D01*
X145528523Y-80801168D01*
X145699022Y-80716609D01*
X145699025Y-80716607D01*
X145847366Y-80597367D01*
X145847367Y-80597366D01*
X145903033Y-80528115D01*
X145960376Y-80488196D01*
X146030198Y-80485616D01*
X146090331Y-80521194D01*
X146096305Y-80528089D01*
X146152278Y-80597722D01*
X146152280Y-80597724D01*
X146300704Y-80717030D01*
X146300707Y-80717032D01*
X146471302Y-80801639D01*
X146471303Y-80801639D01*
X146471307Y-80801641D01*
X146656111Y-80847600D01*
X146698877Y-80850500D01*
X147601122Y-80850499D01*
X147643889Y-80847600D01*
X147828693Y-80801641D01*
X147999296Y-80717030D01*
X148147722Y-80597722D01*
X148267030Y-80449296D01*
X148351641Y-80278693D01*
X148397600Y-80093889D01*
X148400500Y-80051123D01*
X148400499Y-78648878D01*
X148397600Y-78606111D01*
X148351641Y-78421307D01*
X148349046Y-78416075D01*
X148267032Y-78250707D01*
X148267030Y-78250704D01*
X148147722Y-78102278D01*
X148147721Y-78102277D01*
X147999295Y-77982969D01*
X147999292Y-77982967D01*
X147828697Y-77898360D01*
X147643892Y-77852400D01*
X147618229Y-77850660D01*
X147601123Y-77849500D01*
X147601121Y-77849500D01*
X147374500Y-77849500D01*
X147307461Y-77829815D01*
X147261706Y-77777011D01*
X147250500Y-77725500D01*
X147250500Y-77124000D01*
X147270185Y-77056961D01*
X147322989Y-77011206D01*
X147374500Y-77000000D01*
X149226000Y-77000000D01*
X149293039Y-77019685D01*
X149338794Y-77072489D01*
X149350000Y-77124000D01*
X149350000Y-87376000D01*
X149330315Y-87443039D01*
X149277511Y-87488794D01*
X149226000Y-87500000D01*
X140474000Y-87500000D01*
X140406961Y-87480315D01*
X140361206Y-87427511D01*
X140350000Y-87376000D01*
X140350000Y-86208000D01*
X142450000Y-86208000D01*
X142460608Y-86327325D01*
X142460609Y-86327328D01*
X142516557Y-86522861D01*
X142610721Y-86703129D01*
X142739246Y-86860753D01*
X142896870Y-86989278D01*
X143077138Y-87083442D01*
X143272671Y-87139390D01*
X143272674Y-87139391D01*
X143391999Y-87149999D01*
X143392002Y-87150000D01*
X144550000Y-87150000D01*
X145150000Y-87150000D01*
X146307998Y-87150000D01*
X146308000Y-87149999D01*
X146427325Y-87139391D01*
X146427328Y-87139390D01*
X146622861Y-87083442D01*
X146803129Y-86989278D01*
X146960753Y-86860753D01*
X147089278Y-86703129D01*
X147183442Y-86522861D01*
X147239390Y-86327328D01*
X147239391Y-86327325D01*
X147249999Y-86208000D01*
X147250000Y-86207998D01*
X147250000Y-85950000D01*
X145150000Y-85950000D01*
X145150000Y-87150000D01*
X144550000Y-87150000D01*
X144550000Y-85950000D01*
X142450000Y-85950000D01*
X142450000Y-86208000D01*
X140350000Y-86208000D01*
X140350000Y-85091999D01*
X142450000Y-85091999D01*
X142450000Y-85350000D01*
X144550000Y-85350000D01*
X145150000Y-85350000D01*
X147250000Y-85350000D01*
X147250000Y-85092002D01*
X147249999Y-85091999D01*
X147239391Y-84972674D01*
X147239390Y-84972671D01*
X147183442Y-84777138D01*
X147089278Y-84596870D01*
X146960753Y-84439246D01*
X146803129Y-84310721D01*
X146622861Y-84216557D01*
X146427328Y-84160609D01*
X146427325Y-84160608D01*
X146308000Y-84150000D01*
X145150000Y-84150000D01*
X145150000Y-85350000D01*
X144550000Y-85350000D01*
X144550000Y-84150000D01*
X143391999Y-84150000D01*
X143272674Y-84160608D01*
X143272671Y-84160609D01*
X143077138Y-84216557D01*
X142896870Y-84310721D01*
X142739246Y-84439246D01*
X142610721Y-84596870D01*
X142516557Y-84777138D01*
X142460609Y-84972671D01*
X142460608Y-84972674D01*
X142450000Y-85091999D01*
X140350000Y-85091999D01*
X140350000Y-77124000D01*
X140369685Y-77056961D01*
X140422489Y-77011206D01*
X140474000Y-77000000D01*
X141525500Y-77000000D01*
X141592539Y-77019685D01*
G37*
%TD.AperFunction*%
%TD*%
D46*
X156000000Y-85500000D03*
X128140000Y-106500000D03*
X126500000Y-106500000D03*
X121500000Y-95000000D03*
X122289063Y-93189062D03*
X123150000Y-93200000D03*
X131882255Y-89582427D03*
X124500000Y-100500000D03*
X125850000Y-87200000D03*
X134500000Y-97500000D03*
X127136397Y-114363603D03*
X123500000Y-113500000D03*
X133600000Y-87500000D03*
X133100000Y-76000000D03*
X126350000Y-81600000D03*
X126250000Y-83800000D03*
X148350000Y-76000000D03*
X138850000Y-81000000D03*
X126250000Y-83100000D03*
X125850000Y-84400000D03*
X139350000Y-84500000D03*
X151200000Y-99200000D03*
X128000000Y-102800000D03*
X122501250Y-83895442D03*
X134550000Y-83000000D03*
X123550000Y-84400000D03*
X126450000Y-81000000D03*
X138850000Y-87500000D03*
X147350000Y-76000000D03*
X129600000Y-73000000D03*
X125150000Y-84400000D03*
X126350000Y-82300000D03*
X121000000Y-129700000D03*
X139200000Y-129000000D03*
X117900000Y-102900000D03*
X122750000Y-84400000D03*
X137100000Y-73250000D03*
X107350000Y-78400000D03*
X126450000Y-89600000D03*
X139600000Y-76000000D03*
X134550000Y-79990930D03*
X147900000Y-89400000D03*
X124350000Y-84400000D03*
X130600000Y-72750000D03*
X131000000Y-101200000D03*
X131800000Y-101200000D03*
X132425000Y-101500000D03*
X133500000Y-126800000D03*
X118300000Y-105200000D03*
X135000000Y-125925000D03*
X121500000Y-126800000D03*
X134400000Y-126800000D03*
X120200000Y-126400000D03*
X136000000Y-125925000D03*
X148850000Y-79500000D03*
X147350000Y-87000000D03*
X143350000Y-83500000D03*
X140850000Y-80500000D03*
X124850000Y-87400000D03*
X142350000Y-83500000D03*
X141350000Y-83500000D03*
X143350000Y-81500000D03*
X148350000Y-81500000D03*
X146350000Y-83500000D03*
X141350000Y-82500000D03*
X148850000Y-78500000D03*
X148350000Y-84500000D03*
X146350000Y-81500000D03*
X120850000Y-73400000D03*
X140850000Y-78500000D03*
X148350000Y-85500000D03*
X140850000Y-79500000D03*
X144850000Y-81500000D03*
X147350000Y-82500000D03*
X147350000Y-81500000D03*
X142350000Y-87000000D03*
X148350000Y-83500000D03*
X148350000Y-82500000D03*
X144850000Y-83500000D03*
X147350000Y-83500000D03*
X148850000Y-77500000D03*
X141350000Y-84500000D03*
X143350000Y-82500000D03*
X128042821Y-87600000D03*
X141350000Y-86500000D03*
X119000000Y-79500000D03*
X148850000Y-80500000D03*
X148350000Y-86500000D03*
X142350000Y-82500000D03*
X140850000Y-77500000D03*
X141350000Y-85500000D03*
X142350000Y-81500000D03*
X141350000Y-81500000D03*
X146350000Y-82500000D03*
X144850000Y-82500000D03*
X129150000Y-78400000D03*
X124150000Y-80200000D03*
X120000000Y-120000000D03*
X133500000Y-119500000D03*
X114000000Y-120000000D03*
X97500000Y-120000000D03*
X127882586Y-86816209D03*
X114600000Y-101500000D03*
X126000000Y-104150000D03*
X121650000Y-104700000D03*
X133800000Y-109000000D03*
X132300000Y-124300000D03*
X114950000Y-77700000D03*
X114250000Y-72900000D03*
X114100000Y-76000000D03*
X112350000Y-74250000D03*
D47*
X139420000Y-137000000D03*
X144500000Y-137000000D03*
X149580000Y-137000000D03*
X147040000Y-131920000D03*
X140690000Y-134460000D03*
X119920000Y-137000000D03*
X125000000Y-137000000D03*
X130080000Y-137000000D03*
X127540000Y-131920000D03*
X121190000Y-134460000D03*
X100420000Y-137000000D03*
X105500000Y-137000000D03*
X110580000Y-137000000D03*
X108040000Y-131920000D03*
X101690000Y-134460000D03*
X100420000Y-117500000D03*
X105500000Y-117500000D03*
X110580000Y-117500000D03*
X108040000Y-112420000D03*
X101690000Y-114960000D03*
X119920000Y-117500000D03*
X125000000Y-117500000D03*
X130080000Y-117500000D03*
X127540000Y-112420000D03*
X121190000Y-114960000D03*
X139420000Y-117500000D03*
X144500000Y-117500000D03*
X149580000Y-117500000D03*
X147040000Y-112420000D03*
X140690000Y-114960000D03*
X110600000Y-85250000D03*
X104100000Y-85250000D03*
X110600000Y-80750000D03*
X104100000Y-80750000D03*
D48*
X122545000Y-60870000D03*
D49*
X122855000Y-63870000D03*
X127695000Y-63870000D03*
D48*
X128005000Y-60870000D03*
D47*
X111150000Y-61000000D03*
X117650000Y-61000000D03*
X111150000Y-65500000D03*
X117650000Y-65500000D03*
X160500000Y-149500000D03*
X152550000Y-102500000D03*
X152550000Y-97500000D03*
X152550000Y-100000000D03*
X145050000Y-105600000D03*
X145050000Y-94400000D03*
X138050000Y-97500000D03*
X138050000Y-102500000D03*
X160500000Y-62500000D03*
X89500000Y-62500000D03*
X89500000Y-149500000D03*
X111975000Y-102475000D03*
X111975000Y-97475000D03*
X111975000Y-99975000D03*
X104475000Y-105575000D03*
X104475000Y-94375000D03*
X97475000Y-97475000D03*
X97475000Y-102475000D03*
M02*
