%TF.GenerationSoftware,KiCad,Pcbnew,8.0.5*%
%TF.CreationDate,2025-01-30T00:55:54+01:00*%
%TF.ProjectId,rp2040_pad,72703230-3430-45f7-9061-642e6b696361,rev?*%
%TF.SameCoordinates,Original*%
%TF.FileFunction,Paste,Top*%
%TF.FilePolarity,Positive*%
%FSLAX46Y46*%
G04 Gerber Fmt 4.6, Leading zero omitted, Abs format (unit mm)*
G04 Created by KiCad (PCBNEW 8.0.5) date 2025-01-30 00:55:54*
%MOMM*%
%LPD*%
G01*
G04 APERTURE LIST*
G04 Aperture macros list*
%AMRoundRect*
0 Rectangle with rounded corners*
0 $1 Rounding radius*
0 $2 $3 $4 $5 $6 $7 $8 $9 X,Y pos of 4 corners*
0 Add a 4 corners polygon primitive as box body*
4,1,4,$2,$3,$4,$5,$6,$7,$8,$9,$2,$3,0*
0 Add four circle primitives for the rounded corners*
1,1,$1+$1,$2,$3*
1,1,$1+$1,$4,$5*
1,1,$1+$1,$6,$7*
1,1,$1+$1,$8,$9*
0 Add four rect primitives between the rounded corners*
20,1,$1+$1,$2,$3,$4,$5,0*
20,1,$1+$1,$4,$5,$6,$7,0*
20,1,$1+$1,$6,$7,$8,$9,0*
20,1,$1+$1,$8,$9,$2,$3,0*%
G04 Aperture macros list end*
%ADD10RoundRect,0.250000X0.337500X0.475000X-0.337500X0.475000X-0.337500X-0.475000X0.337500X-0.475000X0*%
%ADD11RoundRect,0.250000X-0.475000X0.337500X-0.475000X-0.337500X0.475000X-0.337500X0.475000X0.337500X0*%
%ADD12RoundRect,0.250000X0.312500X0.625000X-0.312500X0.625000X-0.312500X-0.625000X0.312500X-0.625000X0*%
%ADD13RoundRect,0.150000X-0.650000X-0.150000X0.650000X-0.150000X0.650000X0.150000X-0.650000X0.150000X0*%
%ADD14RoundRect,0.250000X-0.650000X0.325000X-0.650000X-0.325000X0.650000X-0.325000X0.650000X0.325000X0*%
%ADD15RoundRect,0.250000X-0.250000X-0.250000X0.250000X-0.250000X0.250000X0.250000X-0.250000X0.250000X0*%
%ADD16RoundRect,0.250000X0.650000X-0.325000X0.650000X0.325000X-0.650000X0.325000X-0.650000X-0.325000X0*%
%ADD17R,1.825000X0.700000*%
%ADD18R,2.000000X1.500000*%
%ADD19R,1.350000X2.000000*%
%ADD20R,1.430000X2.500000*%
%ADD21R,0.400000X1.650000*%
%ADD22RoundRect,0.250000X-0.275000X-0.700000X0.275000X-0.700000X0.275000X0.700000X-0.275000X0.700000X0*%
%ADD23RoundRect,0.250000X0.625000X-0.312500X0.625000X0.312500X-0.625000X0.312500X-0.625000X-0.312500X0*%
%ADD24RoundRect,0.250000X-0.325000X-0.650000X0.325000X-0.650000X0.325000X0.650000X-0.325000X0.650000X0*%
%ADD25RoundRect,0.250000X-0.625000X0.312500X-0.625000X-0.312500X0.625000X-0.312500X0.625000X0.312500X0*%
%ADD26R,1.400000X1.100000*%
%ADD27RoundRect,0.250000X-0.312500X-0.625000X0.312500X-0.625000X0.312500X0.625000X-0.312500X0.625000X0*%
%ADD28RoundRect,0.050000X-0.050000X-0.387500X0.050000X-0.387500X0.050000X0.387500X-0.050000X0.387500X0*%
%ADD29RoundRect,0.050000X-0.387500X-0.050000X0.387500X-0.050000X0.387500X0.050000X-0.387500X0.050000X0*%
%ADD30RoundRect,0.249999X-0.395001X-0.395001X0.395001X-0.395001X0.395001X0.395001X-0.395001X0.395001X0*%
%ADD31RoundRect,0.375000X-0.375000X0.625000X-0.375000X-0.625000X0.375000X-0.625000X0.375000X0.625000X0*%
%ADD32RoundRect,0.500000X-1.400000X0.500000X-1.400000X-0.500000X1.400000X-0.500000X1.400000X0.500000X0*%
%ADD33RoundRect,0.250000X0.275000X0.700000X-0.275000X0.700000X-0.275000X-0.700000X0.275000X-0.700000X0*%
%ADD34RoundRect,0.250000X0.700000X-0.275000X0.700000X0.275000X-0.700000X0.275000X-0.700000X-0.275000X0*%
%ADD35RoundRect,0.250000X0.250000X0.250000X-0.250000X0.250000X-0.250000X-0.250000X0.250000X-0.250000X0*%
G04 APERTURE END LIST*
D10*
%TO.C,C20*%
X121362500Y-102800000D03*
X119287500Y-102800000D03*
%TD*%
D11*
%TO.C,C19*%
X137700000Y-126362500D03*
X137700000Y-128437500D03*
%TD*%
%TO.C,C18*%
X121500000Y-126162500D03*
X121500000Y-128237500D03*
%TD*%
D10*
%TO.C,C17*%
X131612500Y-102900000D03*
X129537500Y-102900000D03*
%TD*%
D12*
%TO.C,R8*%
X138100000Y-90250000D03*
X141025000Y-90250000D03*
%TD*%
D13*
%TO.C,U4*%
X117700000Y-72845000D03*
X117700000Y-74115000D03*
X117700000Y-75385000D03*
X117700000Y-76655000D03*
X110500000Y-76655000D03*
X110500000Y-75385000D03*
X110500000Y-74115000D03*
X110500000Y-72845000D03*
%TD*%
D14*
%TO.C,C7*%
X137100000Y-72225000D03*
X137100000Y-69275000D03*
%TD*%
D15*
%TO.C,D6*%
X94250000Y-134500000D03*
X96750000Y-134500000D03*
%TD*%
D16*
%TO.C,C6*%
X129600000Y-74275000D03*
X129600000Y-77225000D03*
%TD*%
D17*
%TO.C,J1*%
X122275000Y-62550000D03*
D18*
X122375000Y-63870000D03*
D19*
X122525000Y-61800000D03*
D20*
X124315000Y-60600000D03*
X126235000Y-60600000D03*
D19*
X128005000Y-61800000D03*
D18*
X128125000Y-63850000D03*
D17*
X128225000Y-62550000D03*
D21*
X123975000Y-63750000D03*
X124625000Y-63750000D03*
X125275000Y-63750000D03*
X125925000Y-63750000D03*
X126575000Y-63750000D03*
%TD*%
D22*
%TO.C,D14*%
X136175000Y-90250000D03*
X133025000Y-90250000D03*
%TD*%
D23*
%TO.C,R1*%
X128100000Y-89537500D03*
X128100000Y-92462500D03*
%TD*%
D24*
%TO.C,C13*%
X138575000Y-79400000D03*
X135625000Y-79400000D03*
%TD*%
D25*
%TO.C,R4*%
X124300000Y-72306250D03*
X124300000Y-69381250D03*
%TD*%
D15*
%TO.C,D7*%
X113750000Y-134500000D03*
X116250000Y-134500000D03*
%TD*%
D24*
%TO.C,C9*%
X133325000Y-82750000D03*
X130375000Y-82750000D03*
%TD*%
D14*
%TO.C,C16*%
X133100000Y-74975000D03*
X133100000Y-72025000D03*
%TD*%
D25*
%TO.C,R7*%
X117350000Y-92362500D03*
X117350000Y-89437500D03*
%TD*%
D15*
%TO.C,D5*%
X132225000Y-106725000D03*
X134725000Y-106725000D03*
%TD*%
D25*
%TO.C,R5*%
X126800000Y-72306250D03*
X126800000Y-69381250D03*
%TD*%
D24*
%TO.C,C12*%
X138575000Y-76000000D03*
X135625000Y-76000000D03*
%TD*%
%TO.C,C15*%
X138575000Y-86100000D03*
X135625000Y-86100000D03*
%TD*%
D26*
%TO.C,U3*%
X125450000Y-90450000D03*
X125450000Y-92050000D03*
X123250000Y-92050000D03*
X123250000Y-90450000D03*
%TD*%
D27*
%TO.C,R3*%
X107812500Y-72750000D03*
X104887500Y-72750000D03*
%TD*%
D25*
%TO.C,R9*%
X152750000Y-80756250D03*
X152750000Y-77831250D03*
%TD*%
D12*
%TO.C,R2*%
X112637500Y-70500000D03*
X115562500Y-70500000D03*
%TD*%
D24*
%TO.C,C1*%
X146350000Y-75400000D03*
X143400000Y-75400000D03*
%TD*%
D15*
%TO.C,D8*%
X133750000Y-134500000D03*
X136250000Y-134500000D03*
%TD*%
D28*
%TO.C,U1*%
X121750000Y-79062500D03*
X122150000Y-79062500D03*
X122550000Y-79062500D03*
X122950000Y-79062500D03*
X123350000Y-79062500D03*
X123750000Y-79062500D03*
X124150000Y-79062500D03*
X124550000Y-79062500D03*
X124950000Y-79062500D03*
X125350000Y-79062500D03*
X125750000Y-79062500D03*
X126150000Y-79062500D03*
X126550000Y-79062500D03*
X126950000Y-79062500D03*
D29*
X127787500Y-79900000D03*
X127787500Y-80300000D03*
X127787500Y-80700000D03*
X127787500Y-81100000D03*
X127787500Y-81500000D03*
X127787500Y-81900000D03*
X127787500Y-82300000D03*
X127787500Y-82700000D03*
X127787500Y-83100000D03*
X127787500Y-83500000D03*
X127787500Y-83900000D03*
X127787500Y-84300000D03*
X127787500Y-84700000D03*
X127787500Y-85100000D03*
D28*
X126950000Y-85937500D03*
X126550000Y-85937500D03*
X126150000Y-85937500D03*
X125750000Y-85937500D03*
X125350000Y-85937500D03*
X124950000Y-85937500D03*
X124550000Y-85937500D03*
X124150000Y-85937500D03*
X123750000Y-85937500D03*
X123350000Y-85937500D03*
X122950000Y-85937500D03*
X122550000Y-85937500D03*
X122150000Y-85937500D03*
X121750000Y-85937500D03*
D29*
X120912500Y-85100000D03*
X120912500Y-84700000D03*
X120912500Y-84300000D03*
X120912500Y-83900000D03*
X120912500Y-83500000D03*
X120912500Y-83100000D03*
X120912500Y-82700000D03*
X120912500Y-82300000D03*
X120912500Y-81900000D03*
X120912500Y-81500000D03*
X120912500Y-81100000D03*
X120912500Y-80700000D03*
X120912500Y-80300000D03*
X120912500Y-79900000D03*
D30*
X125150000Y-83300000D03*
X125150000Y-81700000D03*
X123550000Y-83300000D03*
X123550000Y-81700000D03*
%TD*%
D15*
%TO.C,D2*%
X114250000Y-115000000D03*
X116750000Y-115000000D03*
%TD*%
D24*
%TO.C,C11*%
X133350000Y-79750000D03*
X130400000Y-79750000D03*
%TD*%
D25*
%TO.C,R6*%
X101350000Y-84462500D03*
X101350000Y-81537500D03*
%TD*%
D24*
%TO.C,C2*%
X146350000Y-89400000D03*
X143400000Y-89400000D03*
%TD*%
%TO.C,C14*%
X138575000Y-82750000D03*
X135625000Y-82750000D03*
%TD*%
%TO.C,C10*%
X133325000Y-86100000D03*
X130375000Y-86100000D03*
%TD*%
D31*
%TO.C,U2*%
X142550000Y-79350000D03*
D32*
X144850000Y-85650000D03*
D31*
X144850000Y-79350000D03*
X147150000Y-79350000D03*
%TD*%
D15*
%TO.C,D3*%
X133500000Y-115000000D03*
X136000000Y-115000000D03*
%TD*%
D24*
%TO.C,C3*%
X125825000Y-94750000D03*
X122875000Y-94750000D03*
%TD*%
D33*
%TO.C,D13*%
X117425000Y-94500000D03*
X120575000Y-94500000D03*
%TD*%
D24*
%TO.C,C5*%
X107850000Y-76500000D03*
X104900000Y-76500000D03*
%TD*%
D16*
%TO.C,C4*%
X120600000Y-89525000D03*
X120600000Y-92475000D03*
%TD*%
D15*
%TO.C,D1*%
X94250000Y-115000000D03*
X96750000Y-115000000D03*
%TD*%
D34*
%TO.C,D15*%
X152700000Y-82943750D03*
X152700000Y-86093750D03*
%TD*%
D14*
%TO.C,C8*%
X130600000Y-71725000D03*
X130600000Y-68775000D03*
%TD*%
D35*
%TO.C,D4*%
X118225000Y-106475000D03*
X115725000Y-106475000D03*
%TD*%
M02*
