M48
METRIC,TZ
T1C0.300
T2C0.650
T3C0.700
T4C1.000
T5C1.100
T6C1.500
T7C2.600
%
G90
G05
T1
X97500Y-120000
X107350Y-78400
X112350Y-74250
X114000Y-120000
X114100Y-76000
X114250Y-72900
X114600Y-101500
X114950Y-77700
X117900Y-102900
X118300Y-105200
X119000Y-79500
X120000Y-120000
X120200Y-126400
X120850Y-73400
X121000Y-129700
X121500Y-95000
X121500Y-126800
X121650Y-104700
X122289Y-93189
X122501Y-83895
X122750Y-84400
X123150Y-93200
X123500Y-113500
X123550Y-84400
X124150Y-80200
X124350Y-84400
X124500Y-100500
X124850Y-87400
X125150Y-84400
X125850Y-84400
X125850Y-87200
X126000Y-104150
X126250Y-83100
X126250Y-83800
X126350Y-81600
X126350Y-82300
X126450Y-81000
X126450Y-89600
X126500Y-106500
X127136Y-114364
X127883Y-86816
X128000Y-102800
X128043Y-87600
X128140Y-106500
X129150Y-78400
X129600Y-73000
X130600Y-72750
X131000Y-101200
X131800Y-101200
X131882Y-89582
X132300Y-124300
X132425Y-101500
X133100Y-76000
X133500Y-119500
X133500Y-126800
X133600Y-87500
X133800Y-109000
X134400Y-126800
X134500Y-97500
X134550Y-79991
X134550Y-83000
X135000Y-125925
X136000Y-125925
X137100Y-73250
X138850Y-81000
X138850Y-87500
X139200Y-129000
X139350Y-84500
X139600Y-76000
X140850Y-77500
X140850Y-78500
X140850Y-79500
X140850Y-80500
X141350Y-81500
X141350Y-82500
X141350Y-83500
X141350Y-84500
X141350Y-85500
X141350Y-86500
X142350Y-81500
X142350Y-82500
X142350Y-83500
X142350Y-87000
X143350Y-81500
X143350Y-82500
X143350Y-83500
X144850Y-81500
X144850Y-82500
X144850Y-83500
X146350Y-81500
X146350Y-82500
X146350Y-83500
X147350Y-76000
X147350Y-81500
X147350Y-82500
X147350Y-83500
X147350Y-87000
X147900Y-89400
X148350Y-76000
X148350Y-81500
X148350Y-82500
X148350Y-83500
X148350Y-84500
X148350Y-85500
X148350Y-86500
X148850Y-77500
X148850Y-78500
X148850Y-79500
X148850Y-80500
X151200Y-99200
X156000Y-85500
T4
X97475Y-97475
X97475Y-102475
X111975Y-97475
X111975Y-99975
X111975Y-102475
X138050Y-97500
X138050Y-102500
X152550Y-97500
X152550Y-100000
X152550Y-102500
T5
X104100Y-80750
X104100Y-85250
X110600Y-80750
X110600Y-85250
X111150Y-61000
X111150Y-65500
X117650Y-61000
X117650Y-65500
T6
X101690Y-114960
X101690Y-134460
X108040Y-112420
X108040Y-131920
X121190Y-114960
X121190Y-134460
X127540Y-112420
X127540Y-131920
X140690Y-114960
X140690Y-134460
X147040Y-112420
X147040Y-131920
T7
X104475Y-94375
X104475Y-105575
X145050Y-94400
X145050Y-105600
T2
G00X122855Y-63670
M15
G01X122855Y-64070
M16
G05
G00X127695Y-63670
M15
G01X127695Y-64070
M16
G05
T3
G00X122545Y-60620
M15
G01X122545Y-61120
M16
G05
G00X128005Y-60620
M15
G01X128005Y-61120
M16
G05
M30
