M48
METRIC,TZ
T1C1.700
T2C3.000
T3C4.000
%
G90
G05
T1
X100420Y-117500
X100420Y-137000
X110580Y-117500
X110580Y-137000
X119920Y-117500
X119920Y-137000
X130080Y-117500
X130080Y-137000
X139420Y-117500
X139420Y-137000
X149580Y-117500
X149580Y-137000
T2
X89500Y-62500
X89500Y-149500
X160500Y-62500
X160500Y-149500
T3
X105500Y-117500
X105500Y-137000
X125000Y-117500
X125000Y-137000
X144500Y-117500
X144500Y-137000
M30
