%TF.GenerationSoftware,KiCad,Pcbnew,8.0.5*%
%TF.CreationDate,2025-01-14T19:01:26+01:00*%
%TF.ProjectId,rp_2040_pad_pre,72705f32-3034-4305-9f70-61645f707265,rev?*%
%TF.SameCoordinates,Original*%
%TF.FileFunction,Soldermask,Bot*%
%TF.FilePolarity,Negative*%
%FSLAX46Y46*%
G04 Gerber Fmt 4.6, Leading zero omitted, Abs format (unit mm)*
G04 Created by KiCad (PCBNEW 8.0.5) date 2025-01-14 19:01:26*
%MOMM*%
%LPD*%
G01*
G04 APERTURE LIST*
%ADD10C,2.000000*%
%ADD11C,3.200000*%
%ADD12R,2.000000X2.000000*%
%ADD13C,2.200000*%
%ADD14C,1.700000*%
%ADD15C,4.000000*%
%ADD16R,1.500000X0.900000*%
%ADD17O,2.500000X1.500000*%
%ADD18O,1.500000X2.500000*%
G04 APERTURE END LIST*
D10*
%TO.C,SW8*%
X162975000Y-84975000D03*
X162975000Y-79975000D03*
D11*
X169975000Y-76875000D03*
X169975000Y-88075000D03*
D10*
X177475000Y-82475000D03*
X177475000Y-79975000D03*
D12*
X177475000Y-84975000D03*
%TD*%
D13*
%TO.C,SW7*%
X165690000Y-116960000D03*
X172040000Y-114420000D03*
D14*
X174580000Y-119500000D03*
D15*
X169500000Y-119500000D03*
D14*
X164420000Y-119500000D03*
%TD*%
D13*
%TO.C,SW6*%
X165690000Y-97460000D03*
X172040000Y-94920000D03*
D14*
X174580000Y-100000000D03*
D15*
X169500000Y-100000000D03*
D14*
X164420000Y-100000000D03*
%TD*%
D13*
%TO.C,SW5*%
X146190000Y-116960000D03*
X152540000Y-114420000D03*
D14*
X155080000Y-119500000D03*
D15*
X150000000Y-119500000D03*
D14*
X144920000Y-119500000D03*
%TD*%
D13*
%TO.C,SW4*%
X146190000Y-97460000D03*
X152540000Y-94920000D03*
D14*
X155080000Y-100000000D03*
D15*
X150000000Y-100000000D03*
D14*
X144920000Y-100000000D03*
%TD*%
D10*
%TO.C,SW3*%
X136975000Y-79975000D03*
X136975000Y-84975000D03*
D11*
X129975000Y-88075000D03*
X129975000Y-76875000D03*
D10*
X122475000Y-82475000D03*
X122475000Y-84975000D03*
D12*
X122475000Y-79975000D03*
%TD*%
D13*
%TO.C,SW2*%
X126690000Y-116960000D03*
X133040000Y-114420000D03*
D14*
X135580000Y-119500000D03*
D15*
X130500000Y-119500000D03*
D14*
X125420000Y-119500000D03*
%TD*%
D13*
%TO.C,SW1*%
X126690000Y-97460000D03*
X133040000Y-94920000D03*
D14*
X135580000Y-100000000D03*
D15*
X130500000Y-100000000D03*
D14*
X125420000Y-100000000D03*
%TD*%
D13*
%TO.C,H4*%
X175000000Y-135000000D03*
%TD*%
%TO.C,H3*%
X125000000Y-134950000D03*
%TD*%
%TO.C,H2*%
X175000000Y-70000000D03*
%TD*%
%TO.C,H1*%
X125000000Y-70000000D03*
%TD*%
D16*
%TO.C,D11*%
X161975000Y-115325000D03*
X161975000Y-118625000D03*
X157075000Y-118625000D03*
X157075000Y-115325000D03*
%TD*%
%TO.C,D8*%
X142975000Y-115325000D03*
X142975000Y-118625000D03*
X138075000Y-118625000D03*
X138075000Y-115325000D03*
%TD*%
%TO.C,D2*%
X162425000Y-94325000D03*
X162425000Y-97625000D03*
X157525000Y-97625000D03*
X157525000Y-94325000D03*
%TD*%
%TO.C,D1*%
X137525000Y-96325000D03*
X137525000Y-99625000D03*
X142425000Y-99625000D03*
X142425000Y-96325000D03*
%TD*%
D17*
%TO.C,U1*%
X141855000Y-66815000D03*
X141855000Y-69355000D03*
X141855000Y-71895000D03*
X141855000Y-74435000D03*
X141855000Y-76975000D03*
X141855000Y-79515000D03*
X141855000Y-82055000D03*
X141855000Y-84595000D03*
X141855000Y-87135000D03*
D18*
X144895000Y-87635000D03*
X147435000Y-87635000D03*
X149975000Y-87635000D03*
X152515000Y-87635000D03*
X155055000Y-87635000D03*
D17*
X158095000Y-87135000D03*
X158095000Y-84595000D03*
X158095000Y-82055000D03*
X158095000Y-79515000D03*
X158095000Y-76975000D03*
X158095000Y-74435000D03*
X158095000Y-71895000D03*
X158095000Y-69355000D03*
X158095000Y-66815000D03*
%TD*%
M02*
