%TF.GenerationSoftware,KiCad,Pcbnew,8.0.5*%
%TF.CreationDate,2025-01-14T19:01:26+01:00*%
%TF.ProjectId,rp_2040_pad_pre,72705f32-3034-4305-9f70-61645f707265,rev?*%
%TF.SameCoordinates,Original*%
%TF.FileFunction,Copper,L1,Top*%
%TF.FilePolarity,Positive*%
%FSLAX46Y46*%
G04 Gerber Fmt 4.6, Leading zero omitted, Abs format (unit mm)*
G04 Created by KiCad (PCBNEW 8.0.5) date 2025-01-14 19:01:26*
%MOMM*%
%LPD*%
G01*
G04 APERTURE LIST*
G04 Aperture macros list*
%AMRoundRect*
0 Rectangle with rounded corners*
0 $1 Rounding radius*
0 $2 $3 $4 $5 $6 $7 $8 $9 X,Y pos of 4 corners*
0 Add a 4 corners polygon primitive as box body*
4,1,4,$2,$3,$4,$5,$6,$7,$8,$9,$2,$3,0*
0 Add four circle primitives for the rounded corners*
1,1,$1+$1,$2,$3*
1,1,$1+$1,$4,$5*
1,1,$1+$1,$6,$7*
1,1,$1+$1,$8,$9*
0 Add four rect primitives between the rounded corners*
20,1,$1+$1,$2,$3,$4,$5,0*
20,1,$1+$1,$4,$5,$6,$7,0*
20,1,$1+$1,$6,$7,$8,$9,0*
20,1,$1+$1,$8,$9,$2,$3,0*%
G04 Aperture macros list end*
%TA.AperFunction,ComponentPad*%
%ADD10C,2.000000*%
%TD*%
%TA.AperFunction,ComponentPad*%
%ADD11C,3.200000*%
%TD*%
%TA.AperFunction,ComponentPad*%
%ADD12R,2.000000X2.000000*%
%TD*%
%TA.AperFunction,ComponentPad*%
%ADD13C,2.200000*%
%TD*%
%TA.AperFunction,SMDPad,CuDef*%
%ADD14RoundRect,0.250000X-0.250000X-0.250000X0.250000X-0.250000X0.250000X0.250000X-0.250000X0.250000X0*%
%TD*%
%TA.AperFunction,SMDPad,CuDef*%
%ADD15RoundRect,0.250000X-0.250000X0.250000X-0.250000X-0.250000X0.250000X-0.250000X0.250000X0.250000X0*%
%TD*%
%TA.AperFunction,SMDPad,CuDef*%
%ADD16RoundRect,0.250000X0.250000X0.250000X-0.250000X0.250000X-0.250000X-0.250000X0.250000X-0.250000X0*%
%TD*%
%TA.AperFunction,SMDPad,CuDef*%
%ADD17RoundRect,0.250000X0.325000X0.650000X-0.325000X0.650000X-0.325000X-0.650000X0.325000X-0.650000X0*%
%TD*%
%TA.AperFunction,ComponentPad*%
%ADD18O,2.500000X1.500000*%
%TD*%
%TA.AperFunction,ComponentPad*%
%ADD19O,1.500000X2.500000*%
%TD*%
%TA.AperFunction,ViaPad*%
%ADD20C,0.600000*%
%TD*%
%TA.AperFunction,Conductor*%
%ADD21C,0.200000*%
%TD*%
%TA.AperFunction,Conductor*%
%ADD22C,1.200000*%
%TD*%
G04 APERTURE END LIST*
D10*
%TO.P,SW8,S2,S2*%
%TO.N,COL_C*%
X162975000Y-84975000D03*
%TO.P,SW8,S1,S1*%
%TO.N,Net-(D12-A)*%
X162975000Y-79975000D03*
D11*
%TO.P,SW8,MP*%
%TO.N,N/C*%
X169975000Y-76875000D03*
X169975000Y-88075000D03*
D10*
%TO.P,SW8,C,C*%
%TO.N,GND*%
X177475000Y-82475000D03*
%TO.P,SW8,B,B*%
%TO.N,ENC_SB2*%
X177475000Y-79975000D03*
D12*
%TO.P,SW8,A,A*%
%TO.N,ENC_SA2*%
X177475000Y-84975000D03*
%TD*%
D13*
%TO.P,SW7,2,2*%
%TO.N,Net-(D10-A)*%
X165690000Y-116960000D03*
%TO.P,SW7,1,1*%
%TO.N,COL_C*%
X172040000Y-114420000D03*
%TD*%
%TO.P,SW6,2,2*%
%TO.N,Net-(D9-A)*%
X165690000Y-97460000D03*
%TO.P,SW6,1,1*%
%TO.N,COL_C*%
X172040000Y-94920000D03*
%TD*%
%TO.P,SW5,2,2*%
%TO.N,Net-(D6-A)*%
X146190000Y-116960000D03*
%TO.P,SW5,1,1*%
%TO.N,COL_B*%
X152540000Y-114420000D03*
%TD*%
%TO.P,SW4,2,2*%
%TO.N,Net-(D5-A)*%
X146190000Y-97460000D03*
%TO.P,SW4,1,1*%
%TO.N,COL_B*%
X152540000Y-94920000D03*
%TD*%
D10*
%TO.P,SW3,S2,S2*%
%TO.N,COL_A*%
X136975000Y-79975000D03*
%TO.P,SW3,S1,S1*%
%TO.N,Net-(D7-A)*%
X136975000Y-84975000D03*
D11*
%TO.P,SW3,MP*%
%TO.N,N/C*%
X129975000Y-88075000D03*
X129975000Y-76875000D03*
D10*
%TO.P,SW3,C,C*%
%TO.N,GND*%
X122475000Y-82475000D03*
%TO.P,SW3,B,B*%
%TO.N,ENC_SB*%
X122475000Y-84975000D03*
D12*
%TO.P,SW3,A,A*%
%TO.N,ENC_SA*%
X122475000Y-79975000D03*
%TD*%
D13*
%TO.P,SW2,2,2*%
%TO.N,Net-(D4-A)*%
X126690000Y-116960000D03*
%TO.P,SW2,1,1*%
%TO.N,COL_A*%
X133040000Y-114420000D03*
%TD*%
%TO.P,SW1,2,2*%
%TO.N,Net-(D3-A)*%
X126690000Y-97460000D03*
%TO.P,SW1,1,1*%
%TO.N,COL_A*%
X133040000Y-94920000D03*
%TD*%
D14*
%TO.P,D12,2,A*%
%TO.N,Net-(D12-A)*%
X165225000Y-72975000D03*
%TO.P,D12,1,K*%
%TO.N,ROW_A*%
X162725000Y-72975000D03*
%TD*%
D15*
%TO.P,D10,2,A*%
%TO.N,Net-(D10-A)*%
X160925000Y-113225000D03*
%TO.P,D10,1,K*%
%TO.N,ROW_C*%
X160925000Y-110725000D03*
%TD*%
%TO.P,D9,2,A*%
%TO.N,Net-(D9-A)*%
X160925000Y-93725000D03*
%TO.P,D9,1,K*%
%TO.N,ROW_B*%
X160925000Y-91225000D03*
%TD*%
D16*
%TO.P,D7,2,A*%
%TO.N,Net-(D7-A)*%
X134725000Y-72975000D03*
%TO.P,D7,1,K*%
%TO.N,ROW_A*%
X137225000Y-72975000D03*
%TD*%
D15*
%TO.P,D6,2,A*%
%TO.N,Net-(D6-A)*%
X141425000Y-113225000D03*
%TO.P,D6,1,K*%
%TO.N,ROW_C*%
X141425000Y-110725000D03*
%TD*%
%TO.P,D5,2,A*%
%TO.N,Net-(D5-A)*%
X141425000Y-93725000D03*
%TO.P,D5,1,K*%
%TO.N,ROW_B*%
X141425000Y-91225000D03*
%TD*%
%TO.P,D4,2,A*%
%TO.N,Net-(D4-A)*%
X121925000Y-113225000D03*
%TO.P,D4,1,K*%
%TO.N,ROW_C*%
X121925000Y-110725000D03*
%TD*%
%TO.P,D3,2,A*%
%TO.N,Net-(D3-A)*%
X121825000Y-93735000D03*
%TO.P,D3,1,K*%
%TO.N,ROW_B*%
X121825000Y-91235000D03*
%TD*%
D17*
%TO.P,C20,1*%
%TO.N,VBUS*%
X141925000Y-120975000D03*
%TO.P,C20,2*%
%TO.N,GND*%
X138975000Y-120975000D03*
%TD*%
%TO.P,C17,1*%
%TO.N,VBUS*%
X161450000Y-120975000D03*
%TO.P,C17,2*%
%TO.N,GND*%
X158500000Y-120975000D03*
%TD*%
%TO.P,C13,1*%
%TO.N,VBUS*%
X161450000Y-99975000D03*
%TO.P,C13,2*%
%TO.N,GND*%
X158500000Y-99975000D03*
%TD*%
%TO.P,C3,1*%
%TO.N,VBUS*%
X141450000Y-101975000D03*
%TO.P,C3,2*%
%TO.N,GND*%
X138500000Y-101975000D03*
%TD*%
D18*
%TO.P,U1,23,5V*%
%TO.N,VBUS*%
X141855000Y-66815000D03*
%TO.P,U1,22,GND*%
%TO.N,GND*%
X141855000Y-69355000D03*
%TO.P,U1,21,3V3*%
%TO.N,unconnected-(U1-3V3-Pad21)*%
X141855000Y-71895000D03*
%TO.P,U1,20,29*%
%TO.N,unconnected-(U1-29-Pad20)*%
X141855000Y-74435000D03*
%TO.P,U1,19,28*%
%TO.N,unconnected-(U1-28-Pad19)*%
X141855000Y-76975000D03*
%TO.P,U1,18,27*%
%TO.N,unconnected-(U1-27-Pad18)*%
X141855000Y-79515000D03*
%TO.P,U1,17,26*%
%TO.N,unconnected-(U1-26-Pad17)*%
X141855000Y-82055000D03*
%TO.P,U1,16,15*%
%TO.N,unconnected-(U1-15-Pad16)*%
X141855000Y-84595000D03*
%TO.P,U1,15,14*%
%TO.N,unconnected-(U1-14-Pad15)*%
X141855000Y-87135000D03*
D19*
%TO.P,U1,14,13*%
%TO.N,unconnected-(U1-13-Pad14)*%
X144895000Y-87635000D03*
%TO.P,U1,13,12*%
%TO.N,unconnected-(U1-12-Pad13)*%
X147435000Y-87635000D03*
%TO.P,U1,12,11*%
%TO.N,unconnected-(U1-11-Pad12)*%
X149975000Y-87635000D03*
%TO.P,U1,11,10*%
%TO.N,LED*%
X152515000Y-87635000D03*
%TO.P,U1,10,9*%
%TO.N,COL_C*%
X155055000Y-87635000D03*
D18*
%TO.P,U1,9,8*%
%TO.N,COL_B*%
X158095000Y-87135000D03*
%TO.P,U1,8,7*%
%TO.N,COL_A*%
X158095000Y-84595000D03*
%TO.P,U1,7,6*%
%TO.N,ROW_C*%
X158095000Y-82055000D03*
%TO.P,U1,6,5*%
%TO.N,ROW_B*%
X158095000Y-79515000D03*
%TO.P,U1,5,4*%
%TO.N,ROW_A*%
X158095000Y-76975000D03*
%TO.P,U1,4,3*%
%TO.N,ENC_SB2*%
X158095000Y-74435000D03*
%TO.P,U1,3,2*%
%TO.N,ENC_SA2*%
X158095000Y-71895000D03*
%TO.P,U1,2,1*%
%TO.N,ENC_SB*%
X158095000Y-69355000D03*
%TO.P,U1,1,0*%
%TO.N,ENC_SA*%
X158095000Y-66815000D03*
%TD*%
D20*
%TO.N,GND*%
X157475000Y-120975000D03*
X157475000Y-101475000D03*
X137475000Y-121475000D03*
X137975000Y-104475000D03*
%TO.N,COL_B*%
X154475000Y-90475000D03*
X152975000Y-102475000D03*
X152975000Y-106475000D03*
X152975000Y-111475000D03*
%TO.N,LEDS*%
X138975000Y-96325000D03*
X144975000Y-106075000D03*
X154975000Y-117475000D03*
X161475000Y-117475000D03*
%TO.N,VBUS*%
X160975000Y-121475000D03*
X159975000Y-122475000D03*
X160475000Y-121975000D03*
X161475000Y-120975000D03*
X141475000Y-120475000D03*
X141475000Y-119475000D03*
X141475000Y-118475000D03*
X141475000Y-116975000D03*
%TO.N,Net-(D2-DOUT)*%
X157140000Y-95975000D03*
X161975000Y-96475000D03*
%TO.N,VBUS*%
X160975000Y-104975000D03*
X161475000Y-103975000D03*
X161475000Y-102475000D03*
X161475000Y-101475000D03*
X161475000Y-99975000D03*
X141450000Y-102975000D03*
X141450000Y-103975000D03*
X141975000Y-104975000D03*
%TO.N,Net-(D2-DOUT)*%
X137975000Y-108975000D03*
X155475000Y-102475000D03*
%TO.N,Net-(D11-DIN)*%
X143975000Y-120975000D03*
X153975000Y-115975000D03*
%TO.N,LED*%
X155975000Y-89975000D03*
%TD*%
D21*
%TO.N,GND*%
X158500000Y-120975000D02*
X157475000Y-120975000D01*
X158500000Y-100450000D02*
X157475000Y-101475000D01*
X158500000Y-99975000D02*
X158500000Y-100450000D01*
X137975000Y-120975000D02*
X137475000Y-121475000D01*
X138975000Y-120975000D02*
X137975000Y-120975000D01*
X138500000Y-103950000D02*
X137975000Y-104475000D01*
X138500000Y-101975000D02*
X138500000Y-103950000D01*
%TO.N,Net-(D2-DOUT)*%
X121125000Y-110240256D02*
X122390256Y-108975000D01*
X121440256Y-111525000D02*
X121125000Y-111209744D01*
X151960101Y-115820000D02*
X147665101Y-111525000D01*
X153119899Y-115820000D02*
X151960101Y-115820000D01*
X161409744Y-111525000D02*
X157414899Y-111525000D01*
X161725000Y-111209744D02*
X161409744Y-111525000D01*
X157414899Y-111525000D02*
X153119899Y-115820000D01*
X147665101Y-111525000D02*
X121440256Y-111525000D01*
X161725000Y-108725000D02*
X161725000Y-111209744D01*
X155475000Y-102475000D02*
X161725000Y-108725000D01*
X121125000Y-111209744D02*
X121125000Y-110240256D01*
X122390256Y-108975000D02*
X137975000Y-108975000D01*
%TO.N,COL_B*%
X156375000Y-90575000D02*
X157595000Y-89355000D01*
X154475000Y-90475000D02*
X154575000Y-90575000D01*
X154575000Y-90575000D02*
X156375000Y-90575000D01*
X157595000Y-89355000D02*
X157595000Y-87135000D01*
X152975000Y-106475000D02*
X152975000Y-102475000D01*
X152540000Y-111910000D02*
X152975000Y-111475000D01*
X152540000Y-114420000D02*
X152540000Y-111910000D01*
%TO.N,ENC_SA*%
X134145000Y-68305000D02*
X122475000Y-79975000D01*
%TO.N,ENC_SB*%
X124562006Y-84975000D02*
X122475000Y-84975000D01*
X131875000Y-74540256D02*
X131875000Y-77662006D01*
X131875000Y-77662006D02*
X124562006Y-84975000D01*
X136010256Y-70405000D02*
X131875000Y-74540256D01*
X156545000Y-70405000D02*
X136010256Y-70405000D01*
%TO.N,LEDS*%
X144975000Y-103740256D02*
X144975000Y-106075000D01*
X138975000Y-96325000D02*
X138975000Y-97740256D01*
X138975000Y-97740256D02*
X144975000Y-103740256D01*
X154975000Y-117475000D02*
X161475000Y-117475000D01*
D22*
%TO.N,VBUS*%
X159675000Y-122750000D02*
X161450000Y-120975000D01*
X143700000Y-122750000D02*
X159675000Y-122750000D01*
X141925000Y-120975000D02*
X143700000Y-122750000D01*
X141475000Y-119475000D02*
X141475000Y-118475000D01*
X141475000Y-118475000D02*
X141475000Y-116975000D01*
X141475000Y-120475000D02*
X141475000Y-119475000D01*
X141925000Y-120925000D02*
X141475000Y-120475000D01*
X141925000Y-120975000D02*
X141925000Y-120925000D01*
D21*
%TO.N,Net-(D2-DOUT)*%
X161475000Y-95975000D02*
X157140000Y-95975000D01*
X161975000Y-96475000D02*
X161475000Y-95975000D01*
%TO.N,ROW_C*%
X156545000Y-81005000D02*
X157595000Y-82055000D01*
X156545000Y-79080076D02*
X156545000Y-81005000D01*
X157160076Y-78465000D02*
X156545000Y-79080076D01*
X159029924Y-78465000D02*
X157160076Y-78465000D01*
X161325000Y-80760076D02*
X159029924Y-78465000D01*
X161325000Y-85325000D02*
X161325000Y-80760076D01*
X161409744Y-92025000D02*
X161975000Y-91459744D01*
X153940000Y-95010000D02*
X156925000Y-92025000D01*
X153940000Y-95499899D02*
X153940000Y-95010000D01*
X153880000Y-95559899D02*
X153940000Y-95499899D01*
X161975000Y-91459744D02*
X161975000Y-85975000D01*
X161975000Y-85975000D02*
X161325000Y-85325000D01*
X153880000Y-103680000D02*
X153880000Y-95559899D01*
X160925000Y-110725000D02*
X153880000Y-103680000D01*
X156925000Y-92025000D02*
X161409744Y-92025000D01*
D22*
%TO.N,VBUS*%
X161450000Y-104500000D02*
X160975000Y-104975000D01*
X161450000Y-99975000D02*
X161450000Y-104500000D01*
X141450000Y-104450000D02*
X141975000Y-104975000D01*
X141450000Y-101975000D02*
X141450000Y-104450000D01*
D21*
%TO.N,Net-(D11-DIN)*%
X144850000Y-121850000D02*
X143975000Y-120975000D01*
X153975000Y-115975000D02*
X153975000Y-118848402D01*
X150973402Y-121850000D02*
X144850000Y-121850000D01*
X153975000Y-118848402D02*
X150973402Y-121850000D01*
%TO.N,LED*%
X155975000Y-89975000D02*
X155355000Y-89975000D01*
X155355000Y-89975000D02*
X152515000Y-87135000D01*
%TO.N,ENC_SA2*%
X178775000Y-79436522D02*
X169555940Y-70217462D01*
X178775000Y-83675000D02*
X178775000Y-79436522D01*
X169555940Y-70217462D02*
X159272538Y-70217462D01*
X177475000Y-84975000D02*
X178775000Y-83675000D01*
X159272538Y-70217462D02*
X157595000Y-71895000D01*
%TO.N,ENC_SB2*%
X161185000Y-70845000D02*
X157595000Y-74435000D01*
X168345000Y-70845000D02*
X161185000Y-70845000D01*
X177475000Y-79975000D02*
X168345000Y-70845000D01*
%TO.N,ENC_SB*%
X157595000Y-69355000D02*
X156545000Y-70405000D01*
%TO.N,ENC_SA*%
X156105000Y-68305000D02*
X157595000Y-66815000D01*
X134145000Y-68305000D02*
X156105000Y-68305000D01*
%TO.N,ROW_C*%
X121925000Y-110725000D02*
X160925000Y-110725000D01*
%TO.N,ROW_B*%
X160925000Y-82845000D02*
X157595000Y-79515000D01*
X160925000Y-91225000D02*
X160925000Y-82845000D01*
X160915000Y-91235000D02*
X160925000Y-91225000D01*
X121825000Y-91235000D02*
X160915000Y-91235000D01*
%TO.N,ROW_A*%
X161595000Y-72975000D02*
X157595000Y-76975000D01*
X162725000Y-72975000D02*
X161595000Y-72975000D01*
X153595000Y-72975000D02*
X157595000Y-76975000D01*
X137225000Y-72975000D02*
X153595000Y-72975000D01*
%TO.N,Net-(D7-A)*%
X134725000Y-82725000D02*
X134725000Y-72975000D01*
X136975000Y-84975000D02*
X134725000Y-82725000D01*
%TO.N,Net-(D12-A)*%
X165225000Y-77725000D02*
X165225000Y-72975000D01*
X162975000Y-79975000D02*
X165225000Y-77725000D01*
%TO.N,Net-(D4-A)*%
X122955000Y-113225000D02*
X121925000Y-113225000D01*
X126690000Y-116960000D02*
X122955000Y-113225000D01*
%TO.N,Net-(D6-A)*%
X142455000Y-113225000D02*
X141425000Y-113225000D01*
X146190000Y-116960000D02*
X142455000Y-113225000D01*
%TO.N,Net-(D10-A)*%
X161955000Y-113225000D02*
X160925000Y-113225000D01*
X165690000Y-116960000D02*
X161955000Y-113225000D01*
%TO.N,Net-(D9-A)*%
X161955000Y-93725000D02*
X160925000Y-93725000D01*
X165690000Y-97460000D02*
X161955000Y-93725000D01*
%TO.N,Net-(D5-A)*%
X142455000Y-93725000D02*
X141425000Y-93725000D01*
X146190000Y-97460000D02*
X142455000Y-93725000D01*
%TO.N,Net-(D3-A)*%
X122965000Y-93735000D02*
X126690000Y-97460000D01*
X121825000Y-93735000D02*
X122965000Y-93735000D01*
%TO.N,COL_A*%
X153975000Y-80975000D02*
X157595000Y-84595000D01*
X136975000Y-79975000D02*
X137975000Y-80975000D01*
X137975000Y-80975000D02*
X153975000Y-80975000D01*
%TD*%
M02*
