%TF.GenerationSoftware,KiCad,Pcbnew,8.0.5*%
%TF.CreationDate,2025-01-14T19:01:26+01:00*%
%TF.ProjectId,rp_2040_pad_pre,72705f32-3034-4305-9f70-61645f707265,rev?*%
%TF.SameCoordinates,Original*%
%TF.FileFunction,Copper,L2,Bot*%
%TF.FilePolarity,Positive*%
%FSLAX46Y46*%
G04 Gerber Fmt 4.6, Leading zero omitted, Abs format (unit mm)*
G04 Created by KiCad (PCBNEW 8.0.5) date 2025-01-14 19:01:26*
%MOMM*%
%LPD*%
G01*
G04 APERTURE LIST*
%TA.AperFunction,ComponentPad*%
%ADD10C,2.000000*%
%TD*%
%TA.AperFunction,ComponentPad*%
%ADD11C,3.200000*%
%TD*%
%TA.AperFunction,ComponentPad*%
%ADD12R,2.000000X2.000000*%
%TD*%
%TA.AperFunction,ComponentPad*%
%ADD13C,2.200000*%
%TD*%
%TA.AperFunction,SMDPad,CuDef*%
%ADD14R,1.500000X0.900000*%
%TD*%
%TA.AperFunction,ComponentPad*%
%ADD15O,2.500000X1.500000*%
%TD*%
%TA.AperFunction,ComponentPad*%
%ADD16O,1.500000X2.500000*%
%TD*%
%TA.AperFunction,ViaPad*%
%ADD17C,0.600000*%
%TD*%
%TA.AperFunction,Conductor*%
%ADD18C,1.200000*%
%TD*%
%TA.AperFunction,Conductor*%
%ADD19C,0.200000*%
%TD*%
G04 APERTURE END LIST*
D10*
%TO.P,SW8,S2,S2*%
%TO.N,COL_C*%
X162975000Y-84975000D03*
%TO.P,SW8,S1,S1*%
%TO.N,Net-(D12-A)*%
X162975000Y-79975000D03*
D11*
%TO.P,SW8,MP*%
%TO.N,N/C*%
X169975000Y-76875000D03*
X169975000Y-88075000D03*
D10*
%TO.P,SW8,C,C*%
%TO.N,GND*%
X177475000Y-82475000D03*
%TO.P,SW8,B,B*%
%TO.N,ENC_SB2*%
X177475000Y-79975000D03*
D12*
%TO.P,SW8,A,A*%
%TO.N,ENC_SA2*%
X177475000Y-84975000D03*
%TD*%
D13*
%TO.P,SW7,2,2*%
%TO.N,Net-(D10-A)*%
X165690000Y-116960000D03*
%TO.P,SW7,1,1*%
%TO.N,COL_C*%
X172040000Y-114420000D03*
%TD*%
%TO.P,SW6,2,2*%
%TO.N,Net-(D9-A)*%
X165690000Y-97460000D03*
%TO.P,SW6,1,1*%
%TO.N,COL_C*%
X172040000Y-94920000D03*
%TD*%
%TO.P,SW5,2,2*%
%TO.N,Net-(D6-A)*%
X146190000Y-116960000D03*
%TO.P,SW5,1,1*%
%TO.N,COL_B*%
X152540000Y-114420000D03*
%TD*%
%TO.P,SW4,2,2*%
%TO.N,Net-(D5-A)*%
X146190000Y-97460000D03*
%TO.P,SW4,1,1*%
%TO.N,COL_B*%
X152540000Y-94920000D03*
%TD*%
D10*
%TO.P,SW3,S2,S2*%
%TO.N,COL_A*%
X136975000Y-79975000D03*
%TO.P,SW3,S1,S1*%
%TO.N,Net-(D7-A)*%
X136975000Y-84975000D03*
D11*
%TO.P,SW3,MP*%
%TO.N,N/C*%
X129975000Y-88075000D03*
X129975000Y-76875000D03*
D10*
%TO.P,SW3,C,C*%
%TO.N,GND*%
X122475000Y-82475000D03*
%TO.P,SW3,B,B*%
%TO.N,ENC_SB*%
X122475000Y-84975000D03*
D12*
%TO.P,SW3,A,A*%
%TO.N,ENC_SA*%
X122475000Y-79975000D03*
%TD*%
D13*
%TO.P,SW2,2,2*%
%TO.N,Net-(D4-A)*%
X126690000Y-116960000D03*
%TO.P,SW2,1,1*%
%TO.N,COL_A*%
X133040000Y-114420000D03*
%TD*%
%TO.P,SW1,2,2*%
%TO.N,Net-(D3-A)*%
X126690000Y-97460000D03*
%TO.P,SW1,1,1*%
%TO.N,COL_A*%
X133040000Y-94920000D03*
%TD*%
D14*
%TO.P,D11,1,VDD*%
%TO.N,VBUS*%
X161975000Y-115325000D03*
%TO.P,D11,2,DOUT*%
%TO.N,LEDS*%
X161975000Y-118625000D03*
%TO.P,D11,3,VSS*%
%TO.N,GND*%
X157075000Y-118625000D03*
%TO.P,D11,4,DIN*%
%TO.N,Net-(D11-DIN)*%
X157075000Y-115325000D03*
%TD*%
%TO.P,D8,1,VDD*%
%TO.N,VBUS*%
X142975000Y-115325000D03*
%TO.P,D8,2,DOUT*%
%TO.N,Net-(D11-DIN)*%
X142975000Y-118625000D03*
%TO.P,D8,3,VSS*%
%TO.N,GND*%
X138075000Y-118625000D03*
%TO.P,D8,4,DIN*%
%TO.N,Net-(D2-DOUT)*%
X138075000Y-115325000D03*
%TD*%
%TO.P,D2,1,VDD*%
%TO.N,VBUS*%
X162425000Y-94325000D03*
%TO.P,D2,2,DOUT*%
%TO.N,Net-(D2-DOUT)*%
X162425000Y-97625000D03*
%TO.P,D2,3,VSS*%
%TO.N,GND*%
X157525000Y-97625000D03*
%TO.P,D2,4,DIN*%
%TO.N,LED*%
X157525000Y-94325000D03*
%TD*%
%TO.P,D1,4,DIN*%
%TO.N,LEDS*%
X137525000Y-96325000D03*
%TO.P,D1,3,VSS*%
%TO.N,GND*%
X137525000Y-99625000D03*
%TO.P,D1,2,DOUT*%
%TO.N,unconnected-(D1-DOUT-Pad2)*%
X142425000Y-99625000D03*
%TO.P,D1,1,VDD*%
%TO.N,VBUS*%
X142425000Y-96325000D03*
%TD*%
D15*
%TO.P,U1,23,5V*%
%TO.N,VBUS*%
X141855000Y-66815000D03*
%TO.P,U1,22,GND*%
%TO.N,GND*%
X141855000Y-69355000D03*
%TO.P,U1,21,3V3*%
%TO.N,unconnected-(U1-3V3-Pad21)*%
X141855000Y-71895000D03*
%TO.P,U1,20,29*%
%TO.N,unconnected-(U1-29-Pad20)*%
X141855000Y-74435000D03*
%TO.P,U1,19,28*%
%TO.N,unconnected-(U1-28-Pad19)*%
X141855000Y-76975000D03*
%TO.P,U1,18,27*%
%TO.N,unconnected-(U1-27-Pad18)*%
X141855000Y-79515000D03*
%TO.P,U1,17,26*%
%TO.N,unconnected-(U1-26-Pad17)*%
X141855000Y-82055000D03*
%TO.P,U1,16,15*%
%TO.N,unconnected-(U1-15-Pad16)*%
X141855000Y-84595000D03*
%TO.P,U1,15,14*%
%TO.N,unconnected-(U1-14-Pad15)*%
X141855000Y-87135000D03*
D16*
%TO.P,U1,14,13*%
%TO.N,unconnected-(U1-13-Pad14)*%
X144895000Y-87635000D03*
%TO.P,U1,13,12*%
%TO.N,unconnected-(U1-12-Pad13)*%
X147435000Y-87635000D03*
%TO.P,U1,12,11*%
%TO.N,unconnected-(U1-11-Pad12)*%
X149975000Y-87635000D03*
%TO.P,U1,11,10*%
%TO.N,LED*%
X152515000Y-87635000D03*
%TO.P,U1,10,9*%
%TO.N,COL_C*%
X155055000Y-87635000D03*
D15*
%TO.P,U1,9,8*%
%TO.N,COL_B*%
X158095000Y-87135000D03*
%TO.P,U1,8,7*%
%TO.N,COL_A*%
X158095000Y-84595000D03*
%TO.P,U1,7,6*%
%TO.N,ROW_C*%
X158095000Y-82055000D03*
%TO.P,U1,6,5*%
%TO.N,ROW_B*%
X158095000Y-79515000D03*
%TO.P,U1,5,4*%
%TO.N,ROW_A*%
X158095000Y-76975000D03*
%TO.P,U1,4,3*%
%TO.N,ENC_SB2*%
X158095000Y-74435000D03*
%TO.P,U1,3,2*%
%TO.N,ENC_SA2*%
X158095000Y-71895000D03*
%TO.P,U1,2,1*%
%TO.N,ENC_SB*%
X158095000Y-69355000D03*
%TO.P,U1,1,0*%
%TO.N,ENC_SA*%
X158095000Y-66815000D03*
%TD*%
D17*
%TO.N,GND*%
X157475000Y-120975000D03*
X157475000Y-101475000D03*
X137475000Y-121475000D03*
X137975000Y-104475000D03*
%TO.N,COL_B*%
X154475000Y-90475000D03*
X152975000Y-102475000D03*
X152975000Y-106475000D03*
X152975000Y-111475000D03*
%TO.N,LEDS*%
X138975000Y-96325000D03*
X144975000Y-106075000D03*
X154975000Y-117475000D03*
X161475000Y-117475000D03*
%TO.N,VBUS*%
X160975000Y-121475000D03*
X159975000Y-122475000D03*
X160475000Y-121975000D03*
X161475000Y-120975000D03*
X141475000Y-120475000D03*
X141475000Y-119475000D03*
X141475000Y-118475000D03*
X141475000Y-116975000D03*
%TO.N,Net-(D2-DOUT)*%
X157140000Y-95975000D03*
X161975000Y-96475000D03*
%TO.N,VBUS*%
X160975000Y-104975000D03*
X161475000Y-103975000D03*
X161475000Y-102475000D03*
X161475000Y-101475000D03*
X161475000Y-99975000D03*
X141450000Y-102975000D03*
X141450000Y-103975000D03*
X141975000Y-104975000D03*
%TO.N,Net-(D2-DOUT)*%
X137975000Y-108975000D03*
X155475000Y-102475000D03*
%TO.N,Net-(D11-DIN)*%
X143975000Y-120975000D03*
X153975000Y-115975000D03*
%TO.N,LED*%
X155975000Y-89975000D03*
%TD*%
D18*
%TO.N,GND*%
X143735000Y-67975000D02*
X142355000Y-69355000D01*
X143735000Y-67975000D02*
X143975000Y-67975000D01*
X143975000Y-70975000D02*
X142355000Y-69355000D01*
D19*
X157075000Y-120575000D02*
X157075000Y-118625000D01*
X157475000Y-120975000D02*
X157075000Y-120575000D01*
X157475000Y-101475000D02*
X157475000Y-100475000D01*
X157475000Y-100475000D02*
X157525000Y-100425000D01*
X157525000Y-100425000D02*
X157525000Y-97625000D01*
X138075000Y-120875000D02*
X138075000Y-118625000D01*
X137475000Y-121475000D02*
X138075000Y-120875000D01*
X137525000Y-104025000D02*
X137525000Y-99625000D01*
X137975000Y-104475000D02*
X137525000Y-104025000D01*
%TO.N,Net-(D2-DOUT)*%
X156280000Y-101670000D02*
X155475000Y-102475000D01*
X156280000Y-98445000D02*
X156280000Y-101670000D01*
X155475000Y-97640000D02*
X156280000Y-98445000D01*
X157140000Y-95975000D02*
X155475000Y-97640000D01*
%TO.N,LED*%
X157525000Y-91525000D02*
X155975000Y-89975000D01*
X157525000Y-94325000D02*
X157525000Y-91525000D01*
%TO.N,COL_B*%
X154255000Y-90475000D02*
X154475000Y-90475000D01*
X152540000Y-92190000D02*
X154255000Y-90475000D01*
X152540000Y-92190000D02*
X152540000Y-94920000D01*
X152540000Y-102040000D02*
X152540000Y-94920000D01*
X152975000Y-102475000D02*
X152540000Y-102040000D01*
X152975000Y-111475000D02*
X152975000Y-106475000D01*
%TO.N,LEDS*%
X138975000Y-96325000D02*
X138775000Y-96525000D01*
X138775000Y-96525000D02*
X137525000Y-96525000D01*
X147075000Y-106075000D02*
X144975000Y-106075000D01*
X149975000Y-108975000D02*
X147075000Y-106075000D01*
X161475000Y-117625000D02*
X161475000Y-117475000D01*
X161225000Y-117875000D02*
X161475000Y-117625000D01*
D18*
%TO.N,VBUS*%
X160975000Y-121475000D02*
X160475000Y-121975000D01*
X160475000Y-121975000D02*
X159975000Y-122475000D01*
X161475000Y-120975000D02*
X160975000Y-121475000D01*
X160325000Y-119825000D02*
X161475000Y-120975000D01*
X160325000Y-116975000D02*
X160325000Y-119825000D01*
X161975000Y-115325000D02*
X160325000Y-116975000D01*
D19*
%TO.N,LEDS*%
X154075000Y-116575000D02*
X154975000Y-117475000D01*
X152715101Y-116575000D02*
X154075000Y-116575000D01*
X149975000Y-113834899D02*
X152715101Y-116575000D01*
X149975000Y-108975000D02*
X149975000Y-113834899D01*
D18*
%TO.N,VBUS*%
X141425000Y-116875000D02*
X141425000Y-120425000D01*
X142975000Y-115325000D02*
X141425000Y-116875000D01*
X141975000Y-114325000D02*
X142975000Y-115325000D01*
X141975000Y-104975000D02*
X141975000Y-114325000D01*
D19*
%TO.N,Net-(D2-DOUT)*%
X162425000Y-96925000D02*
X161975000Y-96475000D01*
X162425000Y-97625000D02*
X162425000Y-96925000D01*
D18*
%TO.N,VBUS*%
X160875000Y-95875000D02*
X162425000Y-94325000D01*
X160875000Y-99375000D02*
X160875000Y-95875000D01*
X161475000Y-99975000D02*
X160875000Y-99375000D01*
X161475000Y-103975000D02*
X161475000Y-102475000D01*
X161475000Y-102475000D02*
X161475000Y-101475000D01*
X161475000Y-101475000D02*
X161475000Y-99975000D01*
X161475000Y-104475000D02*
X161475000Y-103975000D01*
X160975000Y-104975000D02*
X161475000Y-104475000D01*
X141975000Y-104975000D02*
X160975000Y-104975000D01*
X141450000Y-102975000D02*
X140875000Y-102400000D01*
X141450000Y-102975000D02*
X141450000Y-103975000D01*
X140875000Y-102400000D02*
X140875000Y-97875000D01*
X140875000Y-97875000D02*
X142425000Y-96325000D01*
X141450000Y-103975000D02*
X141450000Y-104450000D01*
X141450000Y-104450000D02*
X141975000Y-104975000D01*
D19*
%TO.N,Net-(D2-DOUT)*%
X138075000Y-110075000D02*
X138075000Y-115325000D01*
X137975000Y-109975000D02*
X138075000Y-110075000D01*
X137975000Y-108975000D02*
X137975000Y-109975000D01*
%TO.N,Net-(D11-DIN)*%
X142975000Y-119975000D02*
X142975000Y-118625000D01*
X143975000Y-120975000D02*
X142975000Y-119975000D01*
X154625000Y-115325000D02*
X153975000Y-115975000D01*
X157075000Y-115325000D02*
X154625000Y-115325000D01*
%TO.N,LEDS*%
X161225000Y-117875000D02*
X161975000Y-118625000D01*
%TO.N,COL_C*%
X156545000Y-85645000D02*
X155055000Y-87135000D01*
X161975000Y-84975000D02*
X161305000Y-85645000D01*
X162975000Y-84975000D02*
X161975000Y-84975000D01*
X161305000Y-85645000D02*
X156545000Y-85645000D01*
X162975000Y-85855000D02*
X162975000Y-84975000D01*
X172040000Y-94920000D02*
X162975000Y-85855000D01*
X172040000Y-114420000D02*
X172040000Y-94920000D01*
%TO.N,COL_A*%
X133040000Y-83910000D02*
X136975000Y-79975000D01*
X133040000Y-94920000D02*
X133040000Y-83910000D01*
X133040000Y-114420000D02*
X133040000Y-94920000D01*
D18*
%TO.N,VBUS*%
X141702969Y-66815000D02*
X142355000Y-66815000D01*
X139805000Y-68712969D02*
X141702969Y-66815000D01*
X139805000Y-93705000D02*
X139805000Y-68712969D01*
X142425000Y-96325000D02*
X139805000Y-93705000D01*
%TD*%
%TA.AperFunction,Conductor*%
%TO.N,GND*%
G36*
X141889075Y-69162007D02*
G01*
X141855000Y-69289174D01*
X141855000Y-69420826D01*
X141889075Y-69547993D01*
X141921988Y-69605000D01*
X141729000Y-69605000D01*
X141661961Y-69585315D01*
X141616206Y-69532511D01*
X141605000Y-69481000D01*
X141605000Y-69229000D01*
X141624685Y-69161961D01*
X141677489Y-69116206D01*
X141729000Y-69105000D01*
X141921988Y-69105000D01*
X141889075Y-69162007D01*
G37*
%TD.AperFunction*%
%TA.AperFunction,Conductor*%
G36*
X178002933Y-64377534D02*
G01*
X178336700Y-64393349D01*
X178348352Y-64394456D01*
X178676237Y-64441348D01*
X178687728Y-64443551D01*
X179009691Y-64521234D01*
X179020957Y-64524523D01*
X179334126Y-64632301D01*
X179345024Y-64636639D01*
X179646595Y-64773545D01*
X179657037Y-64778895D01*
X179727633Y-64819396D01*
X179944303Y-64943700D01*
X179954197Y-64950017D01*
X180224598Y-65141251D01*
X180233850Y-65148475D01*
X180484953Y-65364417D01*
X180493475Y-65372477D01*
X180723039Y-65611204D01*
X180730761Y-65620035D01*
X180759413Y-65656116D01*
X180936722Y-65879398D01*
X180943579Y-65888927D01*
X181124083Y-66166591D01*
X181130008Y-66176724D01*
X181283453Y-66470222D01*
X181288393Y-66480871D01*
X181413396Y-66787562D01*
X181417307Y-66798629D01*
X181504849Y-67089511D01*
X181509208Y-67110324D01*
X181990424Y-71080352D01*
X181999099Y-71151916D01*
X182000000Y-71166837D01*
X182000000Y-124532130D01*
X181998762Y-124549610D01*
X180184035Y-137294117D01*
X180181049Y-137308726D01*
X180173734Y-137336027D01*
X180173734Y-137357682D01*
X180172496Y-137375160D01*
X180169443Y-137396603D01*
X180171342Y-137412304D01*
X180172069Y-137433683D01*
X180156686Y-137727177D01*
X180155329Y-137740086D01*
X180105394Y-138055349D01*
X180102696Y-138068044D01*
X180020076Y-138376377D01*
X180016065Y-138388721D01*
X179901670Y-138686727D01*
X179896390Y-138698584D01*
X179751481Y-138982980D01*
X179744992Y-138994221D01*
X179571135Y-139261935D01*
X179563506Y-139272435D01*
X179362628Y-139520498D01*
X179353943Y-139530144D01*
X179128228Y-139755856D01*
X179118583Y-139764540D01*
X178870515Y-139965422D01*
X178860014Y-139973051D01*
X178592315Y-140146895D01*
X178581075Y-140153385D01*
X178296655Y-140298304D01*
X178284797Y-140303583D01*
X177986802Y-140417972D01*
X177974459Y-140421983D01*
X177666128Y-140504600D01*
X177653431Y-140507298D01*
X177338164Y-140557230D01*
X177325257Y-140558587D01*
X177002784Y-140575488D01*
X176996294Y-140575658D01*
X123003246Y-140575658D01*
X122996756Y-140575488D01*
X122674739Y-140558611D01*
X122661831Y-140557254D01*
X122346562Y-140507321D01*
X122333867Y-140504623D01*
X122333781Y-140504600D01*
X122222879Y-140474884D01*
X122025537Y-140422007D01*
X122013192Y-140417996D01*
X121715184Y-140303601D01*
X121703328Y-140298322D01*
X121418917Y-140153409D01*
X121407676Y-140146919D01*
X121291989Y-140071791D01*
X121139965Y-139973065D01*
X121129476Y-139965446D01*
X120881400Y-139764558D01*
X120871755Y-139755874D01*
X120646039Y-139530160D01*
X120637354Y-139520514D01*
X120637341Y-139520498D01*
X120436470Y-139272445D01*
X120428844Y-139261948D01*
X120254991Y-138994239D01*
X120248502Y-138983000D01*
X120103584Y-138698587D01*
X120098304Y-138686729D01*
X120098303Y-138686727D01*
X119983911Y-138388728D01*
X119979900Y-138376384D01*
X119975175Y-138358751D01*
X119897277Y-138068039D01*
X119894584Y-138055368D01*
X119844644Y-137740070D01*
X119843290Y-137727194D01*
X119827433Y-137424647D01*
X119827743Y-137407265D01*
X119830123Y-137380337D01*
X119828131Y-137368981D01*
X119826266Y-137347556D01*
X119826266Y-137336030D01*
X119826266Y-137336029D01*
X119816336Y-137298973D01*
X119813978Y-137288316D01*
X119385094Y-134843713D01*
X123649500Y-134843713D01*
X123649500Y-135056286D01*
X123682753Y-135266239D01*
X123748444Y-135468414D01*
X123844951Y-135657820D01*
X123969890Y-135829786D01*
X124120213Y-135980109D01*
X124292179Y-136105048D01*
X124292181Y-136105049D01*
X124292184Y-136105051D01*
X124481588Y-136201557D01*
X124683757Y-136267246D01*
X124893713Y-136300500D01*
X124893714Y-136300500D01*
X125106286Y-136300500D01*
X125106287Y-136300500D01*
X125316243Y-136267246D01*
X125518412Y-136201557D01*
X125707816Y-136105051D01*
X125810966Y-136030109D01*
X125879786Y-135980109D01*
X125879788Y-135980106D01*
X125879792Y-135980104D01*
X126030104Y-135829792D01*
X126030106Y-135829788D01*
X126030109Y-135829786D01*
X126155048Y-135657820D01*
X126155047Y-135657820D01*
X126155051Y-135657816D01*
X126251557Y-135468412D01*
X126317246Y-135266243D01*
X126350500Y-135056287D01*
X126350500Y-134893713D01*
X173649500Y-134893713D01*
X173649500Y-135106286D01*
X173682753Y-135316239D01*
X173748444Y-135518414D01*
X173844951Y-135707820D01*
X173969890Y-135879786D01*
X174120213Y-136030109D01*
X174292179Y-136155048D01*
X174292181Y-136155049D01*
X174292184Y-136155051D01*
X174481588Y-136251557D01*
X174683757Y-136317246D01*
X174893713Y-136350500D01*
X174893714Y-136350500D01*
X175106286Y-136350500D01*
X175106287Y-136350500D01*
X175316243Y-136317246D01*
X175518412Y-136251557D01*
X175707816Y-136155051D01*
X175776640Y-136105048D01*
X175879786Y-136030109D01*
X175879788Y-136030106D01*
X175879792Y-136030104D01*
X176030104Y-135879792D01*
X176030106Y-135879788D01*
X176030109Y-135879786D01*
X176155048Y-135707820D01*
X176155047Y-135707820D01*
X176155051Y-135707816D01*
X176251557Y-135518412D01*
X176317246Y-135316243D01*
X176350500Y-135106287D01*
X176350500Y-134893713D01*
X176317246Y-134683757D01*
X176251557Y-134481588D01*
X176155051Y-134292184D01*
X176155049Y-134292181D01*
X176155048Y-134292179D01*
X176030109Y-134120213D01*
X175879786Y-133969890D01*
X175707820Y-133844951D01*
X175518414Y-133748444D01*
X175518413Y-133748443D01*
X175518412Y-133748443D01*
X175316243Y-133682754D01*
X175316241Y-133682753D01*
X175316240Y-133682753D01*
X175154957Y-133657208D01*
X175106287Y-133649500D01*
X174893713Y-133649500D01*
X174845042Y-133657208D01*
X174683760Y-133682753D01*
X174481585Y-133748444D01*
X174292179Y-133844951D01*
X174120213Y-133969890D01*
X173969890Y-134120213D01*
X173844951Y-134292179D01*
X173748444Y-134481585D01*
X173682753Y-134683760D01*
X173649500Y-134893713D01*
X126350500Y-134893713D01*
X126350500Y-134843713D01*
X126317246Y-134633757D01*
X126251557Y-134431588D01*
X126155051Y-134242184D01*
X126155049Y-134242181D01*
X126155048Y-134242179D01*
X126030109Y-134070213D01*
X125879786Y-133919890D01*
X125707820Y-133794951D01*
X125518414Y-133698444D01*
X125518413Y-133698443D01*
X125518412Y-133698443D01*
X125316243Y-133632754D01*
X125316241Y-133632753D01*
X125316240Y-133632753D01*
X125154957Y-133607208D01*
X125106287Y-133599500D01*
X124893713Y-133599500D01*
X124845042Y-133607208D01*
X124683760Y-133632753D01*
X124481585Y-133698444D01*
X124292179Y-133794951D01*
X124120213Y-133919890D01*
X123969890Y-134070213D01*
X123844951Y-134242179D01*
X123748444Y-134431585D01*
X123682753Y-134633760D01*
X123649500Y-134843713D01*
X119385094Y-134843713D01*
X118187130Y-128015414D01*
X118185277Y-127992492D01*
X118254464Y-122388389D01*
X158874500Y-122388389D01*
X158874500Y-122561611D01*
X158901598Y-122732701D01*
X158955127Y-122897445D01*
X159033768Y-123051788D01*
X159135586Y-123191928D01*
X159258072Y-123314414D01*
X159398212Y-123416232D01*
X159552555Y-123494873D01*
X159717299Y-123548402D01*
X159888389Y-123575500D01*
X159888390Y-123575500D01*
X160061610Y-123575500D01*
X160061611Y-123575500D01*
X160232701Y-123548402D01*
X160397445Y-123494873D01*
X160551788Y-123416232D01*
X160691928Y-123314414D01*
X161314414Y-122691928D01*
X161814414Y-122191928D01*
X162184859Y-121821481D01*
X162184866Y-121821476D01*
X162191926Y-121814416D01*
X162191928Y-121814415D01*
X162314415Y-121691928D01*
X162314417Y-121691924D01*
X162314420Y-121691922D01*
X162416229Y-121551792D01*
X162416228Y-121551792D01*
X162416232Y-121551788D01*
X162494873Y-121397446D01*
X162548403Y-121232701D01*
X162564661Y-121130047D01*
X162575500Y-121061615D01*
X162575500Y-120888384D01*
X162548404Y-120717304D01*
X162548403Y-120717302D01*
X162548403Y-120717299D01*
X162508000Y-120592956D01*
X162494873Y-120552554D01*
X162494873Y-120552553D01*
X162416231Y-120398211D01*
X162358087Y-120318182D01*
X162347169Y-120303154D01*
X162314418Y-120258075D01*
X161843523Y-119787180D01*
X161810038Y-119725857D01*
X161815022Y-119656165D01*
X161856894Y-119600232D01*
X161922358Y-119575815D01*
X161931204Y-119575499D01*
X162772871Y-119575499D01*
X162772872Y-119575499D01*
X162832483Y-119569091D01*
X162967331Y-119518796D01*
X163082546Y-119432546D01*
X163096235Y-119414259D01*
X163152166Y-119372390D01*
X163221857Y-119367406D01*
X163283181Y-119400890D01*
X163316666Y-119462213D01*
X163319500Y-119488572D01*
X163319500Y-119586611D01*
X163346598Y-119757701D01*
X163400127Y-119922445D01*
X163478768Y-120076788D01*
X163580586Y-120216928D01*
X163703072Y-120339414D01*
X163843212Y-120441232D01*
X163997555Y-120519873D01*
X164162299Y-120573402D01*
X164333389Y-120600500D01*
X164333390Y-120600500D01*
X164506610Y-120600500D01*
X164506611Y-120600500D01*
X164677701Y-120573402D01*
X164842445Y-120519873D01*
X164996788Y-120441232D01*
X165136928Y-120339414D01*
X165259414Y-120216928D01*
X165361232Y-120076788D01*
X165439873Y-119922445D01*
X165493402Y-119757701D01*
X165520500Y-119586611D01*
X165520500Y-119413389D01*
X165510854Y-119352486D01*
X167249500Y-119352486D01*
X167249500Y-119647513D01*
X167281571Y-119891113D01*
X167288007Y-119939993D01*
X167362212Y-120216930D01*
X167364361Y-120224951D01*
X167364364Y-120224961D01*
X167477254Y-120497500D01*
X167477258Y-120497510D01*
X167624761Y-120752993D01*
X167804352Y-120987040D01*
X167804358Y-120987047D01*
X168012952Y-121195641D01*
X168012959Y-121195647D01*
X168247006Y-121375238D01*
X168502489Y-121522741D01*
X168502490Y-121522741D01*
X168502493Y-121522743D01*
X168775048Y-121635639D01*
X169060007Y-121711993D01*
X169352494Y-121750500D01*
X169352501Y-121750500D01*
X169647499Y-121750500D01*
X169647506Y-121750500D01*
X169939993Y-121711993D01*
X170224952Y-121635639D01*
X170497507Y-121522743D01*
X170752994Y-121375238D01*
X170987042Y-121195646D01*
X171195646Y-120987042D01*
X171375238Y-120752994D01*
X171522743Y-120497507D01*
X171635639Y-120224952D01*
X171711993Y-119939993D01*
X171750500Y-119647506D01*
X171750500Y-119413389D01*
X173479500Y-119413389D01*
X173479500Y-119586611D01*
X173506598Y-119757701D01*
X173560127Y-119922445D01*
X173638768Y-120076788D01*
X173740586Y-120216928D01*
X173863072Y-120339414D01*
X174003212Y-120441232D01*
X174157555Y-120519873D01*
X174322299Y-120573402D01*
X174493389Y-120600500D01*
X174493390Y-120600500D01*
X174666610Y-120600500D01*
X174666611Y-120600500D01*
X174837701Y-120573402D01*
X175002445Y-120519873D01*
X175156788Y-120441232D01*
X175296928Y-120339414D01*
X175419414Y-120216928D01*
X175521232Y-120076788D01*
X175599873Y-119922445D01*
X175653402Y-119757701D01*
X175680500Y-119586611D01*
X175680500Y-119413389D01*
X175653402Y-119242299D01*
X175599873Y-119077555D01*
X175521232Y-118923212D01*
X175419414Y-118783072D01*
X175296928Y-118660586D01*
X175156788Y-118558768D01*
X175002445Y-118480127D01*
X174837701Y-118426598D01*
X174837699Y-118426597D01*
X174837698Y-118426597D01*
X174694246Y-118403877D01*
X174666611Y-118399500D01*
X174493389Y-118399500D01*
X174465754Y-118403877D01*
X174322302Y-118426597D01*
X174157552Y-118480128D01*
X174003211Y-118558768D01*
X173923256Y-118616859D01*
X173863072Y-118660586D01*
X173863070Y-118660588D01*
X173863069Y-118660588D01*
X173740588Y-118783069D01*
X173740588Y-118783070D01*
X173740586Y-118783072D01*
X173696859Y-118843256D01*
X173638768Y-118923211D01*
X173560128Y-119077552D01*
X173506597Y-119242302D01*
X173481480Y-119400890D01*
X173479500Y-119413389D01*
X171750500Y-119413389D01*
X171750500Y-119352494D01*
X171711993Y-119060007D01*
X171635639Y-118775048D01*
X171522743Y-118502493D01*
X171509829Y-118480126D01*
X171375238Y-118247006D01*
X171195647Y-118012959D01*
X171195641Y-118012952D01*
X170987047Y-117804358D01*
X170987040Y-117804352D01*
X170752993Y-117624761D01*
X170497510Y-117477258D01*
X170497500Y-117477254D01*
X170224961Y-117364364D01*
X170224954Y-117364362D01*
X170224952Y-117364361D01*
X169939993Y-117288007D01*
X169891113Y-117281571D01*
X169647513Y-117249500D01*
X169647506Y-117249500D01*
X169352494Y-117249500D01*
X169352486Y-117249500D01*
X169074085Y-117286153D01*
X169060007Y-117288007D01*
X168775048Y-117364361D01*
X168775038Y-117364364D01*
X168502499Y-117477254D01*
X168502489Y-117477258D01*
X168247006Y-117624761D01*
X168012959Y-117804352D01*
X168012952Y-117804358D01*
X167804358Y-118012952D01*
X167804352Y-118012959D01*
X167624761Y-118247006D01*
X167477258Y-118502489D01*
X167477254Y-118502499D01*
X167364364Y-118775038D01*
X167364361Y-118775048D01*
X167288227Y-119059188D01*
X167288008Y-119060004D01*
X167288006Y-119060015D01*
X167249500Y-119352486D01*
X165510854Y-119352486D01*
X165493402Y-119242299D01*
X165439873Y-119077555D01*
X165361232Y-118923212D01*
X165259414Y-118783072D01*
X165201232Y-118724890D01*
X165167747Y-118663567D01*
X165172731Y-118593875D01*
X165214603Y-118537942D01*
X165280067Y-118513525D01*
X165317856Y-118516634D01*
X165438852Y-118545683D01*
X165690000Y-118565449D01*
X165941148Y-118545683D01*
X166186111Y-118486873D01*
X166418859Y-118390466D01*
X166633659Y-118258836D01*
X166825224Y-118095224D01*
X166988836Y-117903659D01*
X167120466Y-117688859D01*
X167216873Y-117456111D01*
X167275683Y-117211148D01*
X167295449Y-116960000D01*
X167275683Y-116708852D01*
X167216873Y-116463889D01*
X167189669Y-116398212D01*
X167120466Y-116231140D01*
X166988839Y-116016346D01*
X166988838Y-116016343D01*
X166874510Y-115882483D01*
X166825224Y-115824776D01*
X166698571Y-115716604D01*
X166633656Y-115661161D01*
X166633653Y-115661160D01*
X166418859Y-115529533D01*
X166186110Y-115433126D01*
X165941151Y-115374317D01*
X165690000Y-115354551D01*
X165438848Y-115374317D01*
X165193889Y-115433126D01*
X164961140Y-115529533D01*
X164746346Y-115661160D01*
X164746343Y-115661161D01*
X164554776Y-115824776D01*
X164391161Y-116016343D01*
X164391160Y-116016346D01*
X164259533Y-116231140D01*
X164163126Y-116463889D01*
X164104317Y-116708848D01*
X164084551Y-116960000D01*
X164104317Y-117211151D01*
X164163126Y-117456110D01*
X164259533Y-117688859D01*
X164391160Y-117903653D01*
X164391161Y-117903656D01*
X164416143Y-117932906D01*
X164554776Y-118095224D01*
X164668783Y-118192595D01*
X164706976Y-118251102D01*
X164707474Y-118320970D01*
X164670121Y-118380016D01*
X164606774Y-118409494D01*
X164568854Y-118409358D01*
X164506611Y-118399500D01*
X164333389Y-118399500D01*
X164305754Y-118403877D01*
X164162302Y-118426597D01*
X163997552Y-118480128D01*
X163843211Y-118558768D01*
X163763256Y-118616859D01*
X163703072Y-118660586D01*
X163703070Y-118660588D01*
X163703069Y-118660588D01*
X163580588Y-118783069D01*
X163580588Y-118783070D01*
X163580586Y-118783072D01*
X163536859Y-118843256D01*
X163478768Y-118923211D01*
X163459983Y-118960078D01*
X163412007Y-119010873D01*
X163344186Y-119027667D01*
X163278052Y-119005128D01*
X163234601Y-118950412D01*
X163225499Y-118903784D01*
X163225499Y-118127128D01*
X163219091Y-118067517D01*
X163216165Y-118059673D01*
X163168797Y-117932671D01*
X163168793Y-117932664D01*
X163082547Y-117817455D01*
X163082544Y-117817452D01*
X162967335Y-117731206D01*
X162967328Y-117731202D01*
X162832482Y-117680908D01*
X162832483Y-117680908D01*
X162772883Y-117674501D01*
X162772881Y-117674500D01*
X162772873Y-117674500D01*
X162772865Y-117674500D01*
X162396843Y-117674500D01*
X162329804Y-117654815D01*
X162284049Y-117602011D01*
X162273623Y-117536617D01*
X162280565Y-117475003D01*
X162280565Y-117474996D01*
X162260369Y-117295750D01*
X162260368Y-117295745D01*
X162230766Y-117211148D01*
X162200789Y-117125478D01*
X162104816Y-116972738D01*
X162081890Y-116949812D01*
X162048405Y-116888489D01*
X162053389Y-116818797D01*
X162081886Y-116774455D01*
X162544523Y-116311817D01*
X162605846Y-116278333D01*
X162632204Y-116275499D01*
X162772871Y-116275499D01*
X162772872Y-116275499D01*
X162832483Y-116269091D01*
X162967331Y-116218796D01*
X163082546Y-116132546D01*
X163168796Y-116017331D01*
X163219091Y-115882483D01*
X163225500Y-115822873D01*
X163225499Y-114827128D01*
X163219091Y-114767517D01*
X163211605Y-114747447D01*
X163168797Y-114632671D01*
X163168793Y-114632664D01*
X163082547Y-114517455D01*
X163082544Y-114517452D01*
X162967335Y-114431206D01*
X162967328Y-114431202D01*
X162832482Y-114380908D01*
X162832483Y-114380908D01*
X162772883Y-114374501D01*
X162772881Y-114374500D01*
X162772873Y-114374500D01*
X162772865Y-114374500D01*
X162563367Y-114374500D01*
X162507072Y-114360985D01*
X162397447Y-114305128D01*
X162397446Y-114305127D01*
X162397445Y-114305127D01*
X162232701Y-114251598D01*
X162232699Y-114251597D01*
X162232697Y-114251597D01*
X162061615Y-114224500D01*
X162061610Y-114224500D01*
X161888389Y-114224500D01*
X161831359Y-114233532D01*
X161717297Y-114251598D01*
X161717294Y-114251598D01*
X161552555Y-114305126D01*
X161552554Y-114305126D01*
X161442923Y-114360985D01*
X161386630Y-114374500D01*
X161177130Y-114374500D01*
X161177123Y-114374501D01*
X161117516Y-114380908D01*
X160982671Y-114431202D01*
X160982664Y-114431206D01*
X160867455Y-114517452D01*
X160867452Y-114517455D01*
X160781206Y-114632664D01*
X160781202Y-114632671D01*
X160730908Y-114767517D01*
X160726425Y-114809218D01*
X160724501Y-114827123D01*
X160724500Y-114827135D01*
X160724500Y-114967795D01*
X160704815Y-115034834D01*
X160688181Y-115055476D01*
X159608072Y-116135586D01*
X159485588Y-116258069D01*
X159485588Y-116258070D01*
X159485586Y-116258072D01*
X159446537Y-116311818D01*
X159383768Y-116398211D01*
X159305128Y-116552552D01*
X159251597Y-116717302D01*
X159242546Y-116774450D01*
X159224500Y-116888389D01*
X159224500Y-119738389D01*
X159224500Y-119911611D01*
X159251598Y-120082701D01*
X159305127Y-120247445D01*
X159383768Y-120401788D01*
X159485586Y-120541928D01*
X159485588Y-120541930D01*
X159830975Y-120887318D01*
X159864460Y-120948641D01*
X159859476Y-121018333D01*
X159830976Y-121062679D01*
X159758072Y-121135585D01*
X159135588Y-121758069D01*
X159135588Y-121758070D01*
X159135586Y-121758072D01*
X159119244Y-121780565D01*
X159033768Y-121898211D01*
X158955128Y-122052552D01*
X158901597Y-122217302D01*
X158874500Y-122388389D01*
X118254464Y-122388389D01*
X118291192Y-119413389D01*
X124319500Y-119413389D01*
X124319500Y-119586611D01*
X124346598Y-119757701D01*
X124400127Y-119922445D01*
X124478768Y-120076788D01*
X124580586Y-120216928D01*
X124703072Y-120339414D01*
X124843212Y-120441232D01*
X124997555Y-120519873D01*
X125162299Y-120573402D01*
X125333389Y-120600500D01*
X125333390Y-120600500D01*
X125506610Y-120600500D01*
X125506611Y-120600500D01*
X125677701Y-120573402D01*
X125842445Y-120519873D01*
X125996788Y-120441232D01*
X126136928Y-120339414D01*
X126259414Y-120216928D01*
X126361232Y-120076788D01*
X126439873Y-119922445D01*
X126493402Y-119757701D01*
X126520500Y-119586611D01*
X126520500Y-119413389D01*
X126510854Y-119352486D01*
X128249500Y-119352486D01*
X128249500Y-119647513D01*
X128281571Y-119891113D01*
X128288007Y-119939993D01*
X128362212Y-120216930D01*
X128364361Y-120224951D01*
X128364364Y-120224961D01*
X128477254Y-120497500D01*
X128477258Y-120497510D01*
X128624761Y-120752993D01*
X128804352Y-120987040D01*
X128804358Y-120987047D01*
X129012952Y-121195641D01*
X129012959Y-121195647D01*
X129247006Y-121375238D01*
X129502489Y-121522741D01*
X129502490Y-121522741D01*
X129502493Y-121522743D01*
X129775048Y-121635639D01*
X130060007Y-121711993D01*
X130352494Y-121750500D01*
X130352501Y-121750500D01*
X130647499Y-121750500D01*
X130647506Y-121750500D01*
X130939993Y-121711993D01*
X131224952Y-121635639D01*
X131497507Y-121522743D01*
X131752994Y-121375238D01*
X131987042Y-121195646D01*
X132195646Y-120987042D01*
X132375238Y-120752994D01*
X132522743Y-120497507D01*
X132635639Y-120224952D01*
X132711993Y-119939993D01*
X132750500Y-119647506D01*
X132750500Y-119413389D01*
X134479500Y-119413389D01*
X134479500Y-119586611D01*
X134506598Y-119757701D01*
X134560127Y-119922445D01*
X134638768Y-120076788D01*
X134740586Y-120216928D01*
X134863072Y-120339414D01*
X135003212Y-120441232D01*
X135157555Y-120519873D01*
X135322299Y-120573402D01*
X135493389Y-120600500D01*
X135493390Y-120600500D01*
X135666610Y-120600500D01*
X135666611Y-120600500D01*
X135837701Y-120573402D01*
X136002445Y-120519873D01*
X136156788Y-120441232D01*
X136296928Y-120339414D01*
X136419414Y-120216928D01*
X136521232Y-120076788D01*
X136599873Y-119922445D01*
X136653402Y-119757701D01*
X136680500Y-119586611D01*
X136680500Y-119420948D01*
X136700185Y-119353909D01*
X136752989Y-119308154D01*
X136822147Y-119298210D01*
X136885703Y-119327235D01*
X136903766Y-119346637D01*
X136967809Y-119432187D01*
X136967812Y-119432190D01*
X137082906Y-119518350D01*
X137082913Y-119518354D01*
X137217620Y-119568596D01*
X137217627Y-119568598D01*
X137277155Y-119574999D01*
X137277172Y-119575000D01*
X137825000Y-119575000D01*
X138325000Y-119575000D01*
X138872828Y-119575000D01*
X138872844Y-119574999D01*
X138932372Y-119568598D01*
X138932379Y-119568596D01*
X139067086Y-119518354D01*
X139067093Y-119518350D01*
X139182187Y-119432190D01*
X139182190Y-119432187D01*
X139268350Y-119317093D01*
X139268354Y-119317086D01*
X139318596Y-119182379D01*
X139318598Y-119182372D01*
X139324999Y-119122844D01*
X139325000Y-119122827D01*
X139325000Y-118875000D01*
X138325000Y-118875000D01*
X138325000Y-119575000D01*
X137825000Y-119575000D01*
X137825000Y-118875000D01*
X136825000Y-118875000D01*
X136825000Y-119002893D01*
X136805315Y-119069932D01*
X136752511Y-119115687D01*
X136683353Y-119125631D01*
X136619797Y-119096606D01*
X136590515Y-119059188D01*
X136521231Y-118923211D01*
X136419414Y-118783072D01*
X136296928Y-118660586D01*
X136156788Y-118558768D01*
X136002445Y-118480127D01*
X135837701Y-118426598D01*
X135837699Y-118426597D01*
X135837698Y-118426597D01*
X135694246Y-118403877D01*
X135666611Y-118399500D01*
X135493389Y-118399500D01*
X135465754Y-118403877D01*
X135322302Y-118426597D01*
X135157552Y-118480128D01*
X135003211Y-118558768D01*
X134923256Y-118616859D01*
X134863072Y-118660586D01*
X134863070Y-118660588D01*
X134863069Y-118660588D01*
X134740588Y-118783069D01*
X134740588Y-118783070D01*
X134740586Y-118783072D01*
X134696859Y-118843256D01*
X134638768Y-118923211D01*
X134560128Y-119077552D01*
X134506597Y-119242302D01*
X134481480Y-119400890D01*
X134479500Y-119413389D01*
X132750500Y-119413389D01*
X132750500Y-119352494D01*
X132711993Y-119060007D01*
X132635639Y-118775048D01*
X132522743Y-118502493D01*
X132509829Y-118480126D01*
X132375238Y-118247006D01*
X132283273Y-118127155D01*
X136825000Y-118127155D01*
X136825000Y-118375000D01*
X137825000Y-118375000D01*
X138325000Y-118375000D01*
X139325000Y-118375000D01*
X139325000Y-118127172D01*
X139324999Y-118127155D01*
X139318598Y-118067627D01*
X139318596Y-118067620D01*
X139268354Y-117932913D01*
X139268350Y-117932906D01*
X139182190Y-117817812D01*
X139182187Y-117817809D01*
X139067093Y-117731649D01*
X139067086Y-117731645D01*
X138932379Y-117681403D01*
X138932372Y-117681401D01*
X138872844Y-117675000D01*
X138325000Y-117675000D01*
X138325000Y-118375000D01*
X137825000Y-118375000D01*
X137825000Y-117675000D01*
X137277155Y-117675000D01*
X137217627Y-117681401D01*
X137217620Y-117681403D01*
X137082913Y-117731645D01*
X137082906Y-117731649D01*
X136967812Y-117817809D01*
X136967809Y-117817812D01*
X136881649Y-117932906D01*
X136881645Y-117932913D01*
X136831403Y-118067620D01*
X136831401Y-118067627D01*
X136825000Y-118127155D01*
X132283273Y-118127155D01*
X132195647Y-118012959D01*
X132195641Y-118012952D01*
X131987047Y-117804358D01*
X131987040Y-117804352D01*
X131752993Y-117624761D01*
X131497510Y-117477258D01*
X131497500Y-117477254D01*
X131224961Y-117364364D01*
X131224954Y-117364362D01*
X131224952Y-117364361D01*
X130939993Y-117288007D01*
X130891113Y-117281571D01*
X130647513Y-117249500D01*
X130647506Y-117249500D01*
X130352494Y-117249500D01*
X130352486Y-117249500D01*
X130074085Y-117286153D01*
X130060007Y-117288007D01*
X129775048Y-117364361D01*
X129775038Y-117364364D01*
X129502499Y-117477254D01*
X129502489Y-117477258D01*
X129247006Y-117624761D01*
X129012959Y-117804352D01*
X129012952Y-117804358D01*
X128804358Y-118012952D01*
X128804352Y-118012959D01*
X128624761Y-118247006D01*
X128477258Y-118502489D01*
X128477254Y-118502499D01*
X128364364Y-118775038D01*
X128364361Y-118775048D01*
X128288227Y-119059188D01*
X128288008Y-119060004D01*
X128288006Y-119060015D01*
X128249500Y-119352486D01*
X126510854Y-119352486D01*
X126493402Y-119242299D01*
X126439873Y-119077555D01*
X126361232Y-118923212D01*
X126259414Y-118783072D01*
X126201232Y-118724890D01*
X126167747Y-118663567D01*
X126172731Y-118593875D01*
X126214603Y-118537942D01*
X126280067Y-118513525D01*
X126317856Y-118516634D01*
X126438852Y-118545683D01*
X126690000Y-118565449D01*
X126941148Y-118545683D01*
X127186111Y-118486873D01*
X127418859Y-118390466D01*
X127633659Y-118258836D01*
X127825224Y-118095224D01*
X127988836Y-117903659D01*
X128120466Y-117688859D01*
X128216873Y-117456111D01*
X128275683Y-117211148D01*
X128295449Y-116960000D01*
X128275683Y-116708852D01*
X128216873Y-116463889D01*
X128189669Y-116398212D01*
X128120466Y-116231140D01*
X127988839Y-116016346D01*
X127988838Y-116016343D01*
X127874510Y-115882483D01*
X127825224Y-115824776D01*
X127698571Y-115716604D01*
X127633656Y-115661161D01*
X127633653Y-115661160D01*
X127418859Y-115529533D01*
X127186110Y-115433126D01*
X126941151Y-115374317D01*
X126690000Y-115354551D01*
X126438848Y-115374317D01*
X126193889Y-115433126D01*
X125961140Y-115529533D01*
X125746346Y-115661160D01*
X125746343Y-115661161D01*
X125554776Y-115824776D01*
X125391161Y-116016343D01*
X125391160Y-116016346D01*
X125259533Y-116231140D01*
X125163126Y-116463889D01*
X125104317Y-116708848D01*
X125084551Y-116960000D01*
X125104317Y-117211151D01*
X125163126Y-117456110D01*
X125259533Y-117688859D01*
X125391160Y-117903653D01*
X125391161Y-117903656D01*
X125416143Y-117932906D01*
X125554776Y-118095224D01*
X125668783Y-118192595D01*
X125706976Y-118251102D01*
X125707474Y-118320970D01*
X125670121Y-118380016D01*
X125606774Y-118409494D01*
X125568854Y-118409358D01*
X125506611Y-118399500D01*
X125333389Y-118399500D01*
X125305754Y-118403877D01*
X125162302Y-118426597D01*
X124997552Y-118480128D01*
X124843211Y-118558768D01*
X124763256Y-118616859D01*
X124703072Y-118660586D01*
X124703070Y-118660588D01*
X124703069Y-118660588D01*
X124580588Y-118783069D01*
X124580588Y-118783070D01*
X124580586Y-118783072D01*
X124536859Y-118843256D01*
X124478768Y-118923211D01*
X124400128Y-119077552D01*
X124346597Y-119242302D01*
X124321480Y-119400890D01*
X124319500Y-119413389D01*
X118291192Y-119413389D01*
X118531933Y-99913389D01*
X124319500Y-99913389D01*
X124319500Y-100086611D01*
X124324426Y-100117712D01*
X124343848Y-100240343D01*
X124346598Y-100257701D01*
X124365974Y-100317335D01*
X124400128Y-100422447D01*
X124430575Y-100482204D01*
X124478768Y-100576788D01*
X124580586Y-100716928D01*
X124703072Y-100839414D01*
X124843212Y-100941232D01*
X124997555Y-101019873D01*
X125162299Y-101073402D01*
X125333389Y-101100500D01*
X125333390Y-101100500D01*
X125506610Y-101100500D01*
X125506611Y-101100500D01*
X125677701Y-101073402D01*
X125842445Y-101019873D01*
X125996788Y-100941232D01*
X126136928Y-100839414D01*
X126259414Y-100716928D01*
X126361232Y-100576788D01*
X126439873Y-100422445D01*
X126493402Y-100257701D01*
X126520500Y-100086611D01*
X126520500Y-99913389D01*
X126510854Y-99852486D01*
X128249500Y-99852486D01*
X128249500Y-100147513D01*
X128281571Y-100391113D01*
X128288007Y-100439993D01*
X128362212Y-100716930D01*
X128364361Y-100724951D01*
X128364364Y-100724961D01*
X128477254Y-100997500D01*
X128477258Y-100997510D01*
X128624761Y-101252993D01*
X128804352Y-101487040D01*
X128804358Y-101487047D01*
X129012952Y-101695641D01*
X129012959Y-101695647D01*
X129247006Y-101875238D01*
X129502489Y-102022741D01*
X129502490Y-102022741D01*
X129502493Y-102022743D01*
X129713296Y-102110060D01*
X129735015Y-102119057D01*
X129775048Y-102135639D01*
X130060007Y-102211993D01*
X130352494Y-102250500D01*
X130352501Y-102250500D01*
X130647499Y-102250500D01*
X130647506Y-102250500D01*
X130939993Y-102211993D01*
X131224952Y-102135639D01*
X131497507Y-102022743D01*
X131752994Y-101875238D01*
X131987042Y-101695646D01*
X132195646Y-101487042D01*
X132217124Y-101459052D01*
X132273552Y-101417849D01*
X132343298Y-101413694D01*
X132404218Y-101447906D01*
X132436971Y-101509624D01*
X132439500Y-101534538D01*
X132439500Y-112853511D01*
X132419815Y-112920550D01*
X132367011Y-112966305D01*
X132362953Y-112968072D01*
X132311140Y-112989533D01*
X132096346Y-113121160D01*
X132096343Y-113121161D01*
X131904776Y-113284776D01*
X131741161Y-113476343D01*
X131741160Y-113476346D01*
X131609533Y-113691140D01*
X131513126Y-113923889D01*
X131454317Y-114168848D01*
X131434551Y-114420000D01*
X131454317Y-114671151D01*
X131513126Y-114916110D01*
X131609533Y-115148859D01*
X131741160Y-115363653D01*
X131741161Y-115363656D01*
X131783033Y-115412681D01*
X131904776Y-115555224D01*
X132028811Y-115661160D01*
X132096343Y-115718838D01*
X132096346Y-115718839D01*
X132311140Y-115850466D01*
X132492290Y-115925500D01*
X132543889Y-115946873D01*
X132788852Y-116005683D01*
X133040000Y-116025449D01*
X133291148Y-116005683D01*
X133536111Y-115946873D01*
X133768859Y-115850466D01*
X133983659Y-115718836D01*
X134175224Y-115555224D01*
X134338836Y-115363659D01*
X134470466Y-115148859D01*
X134566873Y-114916111D01*
X134588234Y-114827135D01*
X136824500Y-114827135D01*
X136824500Y-115822870D01*
X136824501Y-115822876D01*
X136830908Y-115882483D01*
X136881202Y-116017328D01*
X136881206Y-116017335D01*
X136967452Y-116132544D01*
X136967455Y-116132547D01*
X137082664Y-116218793D01*
X137082671Y-116218797D01*
X137217517Y-116269091D01*
X137217516Y-116269091D01*
X137224444Y-116269835D01*
X137277127Y-116275500D01*
X138872872Y-116275499D01*
X138932483Y-116269091D01*
X139067331Y-116218796D01*
X139182546Y-116132546D01*
X139268796Y-116017331D01*
X139319091Y-115882483D01*
X139325500Y-115822873D01*
X139325499Y-114827128D01*
X139319091Y-114767517D01*
X139311605Y-114747447D01*
X139268797Y-114632671D01*
X139268793Y-114632664D01*
X139182547Y-114517455D01*
X139182544Y-114517452D01*
X139067335Y-114431206D01*
X139067328Y-114431202D01*
X138932482Y-114380908D01*
X138932483Y-114380908D01*
X138872883Y-114374501D01*
X138872881Y-114374500D01*
X138872873Y-114374500D01*
X138872865Y-114374500D01*
X138799500Y-114374500D01*
X138732461Y-114354815D01*
X138686706Y-114302011D01*
X138675500Y-114250500D01*
X138675500Y-109995945D01*
X138675500Y-109995943D01*
X138634577Y-109843216D01*
X138592112Y-109769663D01*
X138575500Y-109707664D01*
X138575500Y-109557412D01*
X138595185Y-109490373D01*
X138602555Y-109480097D01*
X138604810Y-109477267D01*
X138604816Y-109477262D01*
X138700789Y-109324522D01*
X138760368Y-109154255D01*
X138780565Y-108975000D01*
X138771657Y-108895943D01*
X138760369Y-108795750D01*
X138760368Y-108795745D01*
X138700788Y-108625476D01*
X138615756Y-108490149D01*
X138604816Y-108472738D01*
X138477262Y-108345184D01*
X138324523Y-108249211D01*
X138154254Y-108189631D01*
X138154249Y-108189630D01*
X137975004Y-108169435D01*
X137974996Y-108169435D01*
X137795750Y-108189630D01*
X137795745Y-108189631D01*
X137625476Y-108249211D01*
X137472737Y-108345184D01*
X137345184Y-108472737D01*
X137249211Y-108625476D01*
X137189631Y-108795745D01*
X137189630Y-108795750D01*
X137169435Y-108974996D01*
X137169435Y-108975003D01*
X137189630Y-109154249D01*
X137189631Y-109154254D01*
X137249211Y-109324523D01*
X137345185Y-109477263D01*
X137347445Y-109480097D01*
X137348334Y-109482275D01*
X137348889Y-109483158D01*
X137348734Y-109483255D01*
X137373855Y-109544783D01*
X137374500Y-109557412D01*
X137374500Y-109888330D01*
X137374499Y-109888348D01*
X137374499Y-110054054D01*
X137374498Y-110054054D01*
X137415423Y-110206785D01*
X137444358Y-110256900D01*
X137444359Y-110256903D01*
X137457887Y-110280334D01*
X137474500Y-110342334D01*
X137474500Y-114250500D01*
X137454815Y-114317539D01*
X137402011Y-114363294D01*
X137350502Y-114374500D01*
X137277130Y-114374500D01*
X137277123Y-114374501D01*
X137217516Y-114380908D01*
X137082671Y-114431202D01*
X137082664Y-114431206D01*
X136967455Y-114517452D01*
X136967452Y-114517455D01*
X136881206Y-114632664D01*
X136881202Y-114632671D01*
X136830908Y-114767517D01*
X136826425Y-114809218D01*
X136824501Y-114827123D01*
X136824500Y-114827135D01*
X134588234Y-114827135D01*
X134625683Y-114671148D01*
X134645449Y-114420000D01*
X134625683Y-114168852D01*
X134566873Y-113923889D01*
X134533846Y-113844154D01*
X134470466Y-113691140D01*
X134338839Y-113476346D01*
X134338838Y-113476343D01*
X134301875Y-113433066D01*
X134175224Y-113284776D01*
X134048571Y-113176604D01*
X133983656Y-113121161D01*
X133983653Y-113121160D01*
X133768858Y-112989533D01*
X133768859Y-112989533D01*
X133717047Y-112968072D01*
X133662643Y-112924230D01*
X133640579Y-112857936D01*
X133640500Y-112853511D01*
X133640500Y-99913389D01*
X134479500Y-99913389D01*
X134479500Y-100086611D01*
X134484426Y-100117712D01*
X134503848Y-100240343D01*
X134506598Y-100257701D01*
X134525974Y-100317335D01*
X134560128Y-100422447D01*
X134590575Y-100482204D01*
X134638768Y-100576788D01*
X134740586Y-100716928D01*
X134863072Y-100839414D01*
X135003212Y-100941232D01*
X135157555Y-101019873D01*
X135322299Y-101073402D01*
X135493389Y-101100500D01*
X135493390Y-101100500D01*
X135666610Y-101100500D01*
X135666611Y-101100500D01*
X135837701Y-101073402D01*
X136002445Y-101019873D01*
X136156788Y-100941232D01*
X136296928Y-100839414D01*
X136419414Y-100716928D01*
X136501748Y-100603604D01*
X136557078Y-100560939D01*
X136626691Y-100554960D01*
X136645403Y-100560310D01*
X136667621Y-100568597D01*
X136727155Y-100574999D01*
X136727172Y-100575000D01*
X137275000Y-100575000D01*
X137775000Y-100575000D01*
X138322828Y-100575000D01*
X138322844Y-100574999D01*
X138382372Y-100568598D01*
X138382379Y-100568596D01*
X138517086Y-100518354D01*
X138517093Y-100518350D01*
X138632187Y-100432190D01*
X138632190Y-100432187D01*
X138718350Y-100317093D01*
X138718354Y-100317086D01*
X138768596Y-100182379D01*
X138768598Y-100182372D01*
X138774999Y-100122844D01*
X138775000Y-100122827D01*
X138775000Y-99875000D01*
X137775000Y-99875000D01*
X137775000Y-100575000D01*
X137275000Y-100575000D01*
X137275000Y-99375000D01*
X137775000Y-99375000D01*
X138775000Y-99375000D01*
X138775000Y-99127172D01*
X138774999Y-99127155D01*
X138768598Y-99067627D01*
X138768596Y-99067620D01*
X138718354Y-98932913D01*
X138718350Y-98932906D01*
X138632190Y-98817812D01*
X138632187Y-98817809D01*
X138517093Y-98731649D01*
X138517086Y-98731645D01*
X138382379Y-98681403D01*
X138382372Y-98681401D01*
X138322844Y-98675000D01*
X137775000Y-98675000D01*
X137775000Y-99375000D01*
X137275000Y-99375000D01*
X137275000Y-98675000D01*
X136727155Y-98675000D01*
X136667627Y-98681401D01*
X136667620Y-98681403D01*
X136532913Y-98731645D01*
X136532906Y-98731649D01*
X136417812Y-98817809D01*
X136417809Y-98817812D01*
X136331649Y-98932906D01*
X136331645Y-98932913D01*
X136312867Y-98983261D01*
X136270996Y-99039195D01*
X136205531Y-99063612D01*
X136140390Y-99050413D01*
X136074096Y-99016635D01*
X136002445Y-98980127D01*
X135837701Y-98926598D01*
X135837699Y-98926597D01*
X135837698Y-98926597D01*
X135706271Y-98905781D01*
X135666611Y-98899500D01*
X135493389Y-98899500D01*
X135453728Y-98905781D01*
X135322302Y-98926597D01*
X135157552Y-98980128D01*
X135003211Y-99058768D01*
X134923256Y-99116859D01*
X134863072Y-99160586D01*
X134863070Y-99160588D01*
X134863069Y-99160588D01*
X134740588Y-99283069D01*
X134740588Y-99283070D01*
X134740586Y-99283072D01*
X134736723Y-99288389D01*
X134638768Y-99423211D01*
X134560128Y-99577552D01*
X134506597Y-99742302D01*
X134497863Y-99797447D01*
X134479500Y-99913389D01*
X133640500Y-99913389D01*
X133640500Y-96486487D01*
X133660185Y-96419448D01*
X133712989Y-96373693D01*
X133717002Y-96371945D01*
X133768859Y-96350466D01*
X133983659Y-96218836D01*
X134175224Y-96055224D01*
X134338836Y-95863659D01*
X134361218Y-95827135D01*
X136274500Y-95827135D01*
X136274500Y-96822870D01*
X136274501Y-96822876D01*
X136280908Y-96882483D01*
X136331202Y-97017328D01*
X136331206Y-97017335D01*
X136417452Y-97132544D01*
X136417455Y-97132547D01*
X136532664Y-97218793D01*
X136532671Y-97218797D01*
X136667517Y-97269091D01*
X136667516Y-97269091D01*
X136674444Y-97269835D01*
X136727127Y-97275500D01*
X138322872Y-97275499D01*
X138382483Y-97269091D01*
X138517331Y-97218796D01*
X138598448Y-97158072D01*
X138608920Y-97150233D01*
X138674385Y-97125816D01*
X138683231Y-97125500D01*
X138688331Y-97125500D01*
X138688347Y-97125501D01*
X138695943Y-97125501D01*
X138854062Y-97125501D01*
X138862121Y-97124440D01*
X138862184Y-97124925D01*
X138899869Y-97122099D01*
X138975000Y-97130565D01*
X138975003Y-97130565D01*
X139154249Y-97110369D01*
X139154252Y-97110368D01*
X139154255Y-97110368D01*
X139324522Y-97050789D01*
X139477262Y-96954816D01*
X139604816Y-96827262D01*
X139700789Y-96674522D01*
X139760368Y-96504255D01*
X139762869Y-96482059D01*
X139780565Y-96325003D01*
X139780565Y-96324996D01*
X139760369Y-96145750D01*
X139760368Y-96145745D01*
X139719704Y-96029534D01*
X139700789Y-95975478D01*
X139699067Y-95972738D01*
X139630528Y-95863659D01*
X139604816Y-95822738D01*
X139477262Y-95695184D01*
X139324523Y-95599211D01*
X139154254Y-95539631D01*
X139154249Y-95539630D01*
X138975004Y-95519435D01*
X138974996Y-95519435D01*
X138795746Y-95539631D01*
X138795745Y-95539631D01*
X138764818Y-95550453D01*
X138695039Y-95554014D01*
X138636184Y-95521092D01*
X138632544Y-95517452D01*
X138517335Y-95431206D01*
X138517328Y-95431202D01*
X138382482Y-95380908D01*
X138382483Y-95380908D01*
X138322883Y-95374501D01*
X138322881Y-95374500D01*
X138322873Y-95374500D01*
X138322864Y-95374500D01*
X136727129Y-95374500D01*
X136727123Y-95374501D01*
X136667516Y-95380908D01*
X136532671Y-95431202D01*
X136532664Y-95431206D01*
X136417455Y-95517452D01*
X136417452Y-95517455D01*
X136331206Y-95632664D01*
X136331202Y-95632671D01*
X136280908Y-95767517D01*
X136274972Y-95822737D01*
X136274501Y-95827123D01*
X136274500Y-95827135D01*
X134361218Y-95827135D01*
X134470466Y-95648859D01*
X134566873Y-95416111D01*
X134625683Y-95171148D01*
X134645449Y-94920000D01*
X134625683Y-94668852D01*
X134566873Y-94423889D01*
X134508013Y-94281788D01*
X134470466Y-94191140D01*
X134338839Y-93976346D01*
X134338838Y-93976343D01*
X134301875Y-93933066D01*
X134175224Y-93784776D01*
X133997124Y-93632664D01*
X133983656Y-93621161D01*
X133983653Y-93621160D01*
X133768858Y-93489533D01*
X133768859Y-93489533D01*
X133717047Y-93468072D01*
X133662643Y-93424230D01*
X133640579Y-93357936D01*
X133640500Y-93353511D01*
X133640500Y-84210096D01*
X133660185Y-84143057D01*
X133676814Y-84122420D01*
X136371452Y-81427781D01*
X136432773Y-81394298D01*
X136499392Y-81398182D01*
X136559436Y-81418796D01*
X136605385Y-81434571D01*
X136850665Y-81475500D01*
X137099335Y-81475500D01*
X137344614Y-81434571D01*
X137579810Y-81353828D01*
X137798509Y-81235474D01*
X137994744Y-81082738D01*
X138163164Y-80899785D01*
X138299173Y-80691607D01*
X138399063Y-80463881D01*
X138460108Y-80222821D01*
X138460107Y-80222821D01*
X138460294Y-80222087D01*
X138495834Y-80161931D01*
X138558254Y-80130539D01*
X138627738Y-80137877D01*
X138682223Y-80181616D01*
X138704412Y-80247868D01*
X138704500Y-80252527D01*
X138704500Y-84697472D01*
X138684815Y-84764511D01*
X138632011Y-84810266D01*
X138562853Y-84820210D01*
X138499297Y-84791185D01*
X138461523Y-84732407D01*
X138460294Y-84727912D01*
X138399063Y-84486118D01*
X138299173Y-84258393D01*
X138163166Y-84050217D01*
X138141557Y-84026744D01*
X137994744Y-83867262D01*
X137798509Y-83714526D01*
X137798507Y-83714525D01*
X137798506Y-83714524D01*
X137579811Y-83596172D01*
X137579802Y-83596169D01*
X137344616Y-83515429D01*
X137099335Y-83474500D01*
X136850665Y-83474500D01*
X136605383Y-83515429D01*
X136370197Y-83596169D01*
X136370188Y-83596172D01*
X136151493Y-83714524D01*
X135955257Y-83867261D01*
X135786833Y-84050217D01*
X135650826Y-84258393D01*
X135550936Y-84486118D01*
X135489892Y-84727175D01*
X135489890Y-84727187D01*
X135469357Y-84974994D01*
X135469357Y-84975005D01*
X135489890Y-85222812D01*
X135489892Y-85222824D01*
X135550936Y-85463881D01*
X135650826Y-85691606D01*
X135786833Y-85899782D01*
X135786836Y-85899785D01*
X135955256Y-86082738D01*
X136151491Y-86235474D01*
X136370190Y-86353828D01*
X136605386Y-86434571D01*
X136850665Y-86475500D01*
X137099335Y-86475500D01*
X137344614Y-86434571D01*
X137579810Y-86353828D01*
X137798509Y-86235474D01*
X137994744Y-86082738D01*
X138163164Y-85899785D01*
X138299173Y-85691607D01*
X138399063Y-85463881D01*
X138460108Y-85222821D01*
X138460107Y-85222821D01*
X138460294Y-85222087D01*
X138495834Y-85161931D01*
X138558254Y-85130539D01*
X138627738Y-85137877D01*
X138682223Y-85181616D01*
X138704412Y-85247868D01*
X138704500Y-85252527D01*
X138704500Y-93618389D01*
X138704500Y-93791611D01*
X138731598Y-93962701D01*
X138785127Y-94127445D01*
X138863768Y-94281788D01*
X138965586Y-94421928D01*
X138965588Y-94421930D01*
X140780977Y-96237319D01*
X140814462Y-96298642D01*
X140809478Y-96368334D01*
X140780977Y-96412681D01*
X140035588Y-97158069D01*
X140035588Y-97158070D01*
X140035586Y-97158072D01*
X139998695Y-97208848D01*
X139933768Y-97298211D01*
X139855128Y-97452552D01*
X139801597Y-97617302D01*
X139785481Y-97719057D01*
X139774500Y-97788389D01*
X139774500Y-102313389D01*
X139774500Y-102486611D01*
X139777083Y-102502918D01*
X139784944Y-102552555D01*
X139801598Y-102657701D01*
X139855127Y-102822445D01*
X139933768Y-102976788D01*
X140035586Y-103116928D01*
X140035588Y-103116930D01*
X140313181Y-103394523D01*
X140346666Y-103455846D01*
X140349500Y-103482204D01*
X140349500Y-103888389D01*
X140349500Y-104363389D01*
X140349500Y-104536611D01*
X140376598Y-104707701D01*
X140430127Y-104872445D01*
X140508768Y-105026788D01*
X140610586Y-105166928D01*
X140610588Y-105166930D01*
X140838181Y-105394523D01*
X140871666Y-105455846D01*
X140874500Y-105482204D01*
X140874500Y-114411610D01*
X140891263Y-114517452D01*
X140901598Y-114582701D01*
X140955127Y-114747445D01*
X141033768Y-114901788D01*
X141135586Y-115041928D01*
X141135588Y-115041930D01*
X141330977Y-115237319D01*
X141364462Y-115298642D01*
X141359478Y-115368334D01*
X141330977Y-115412681D01*
X140585588Y-116158069D01*
X140585588Y-116158070D01*
X140585586Y-116158072D01*
X140541859Y-116218256D01*
X140483768Y-116298211D01*
X140405128Y-116452552D01*
X140351597Y-116617302D01*
X140324500Y-116788389D01*
X140324500Y-120511610D01*
X140344050Y-120635049D01*
X140351598Y-120682701D01*
X140405127Y-120847445D01*
X140483768Y-121001788D01*
X140585586Y-121141928D01*
X140708072Y-121264414D01*
X140848212Y-121366232D01*
X141002555Y-121444873D01*
X141167299Y-121498402D01*
X141338389Y-121525500D01*
X141338390Y-121525500D01*
X141511610Y-121525500D01*
X141511611Y-121525500D01*
X141682701Y-121498402D01*
X141847445Y-121444873D01*
X142001788Y-121366232D01*
X142141928Y-121264414D01*
X142264414Y-121141928D01*
X142366232Y-121001788D01*
X142444873Y-120847445D01*
X142498402Y-120682701D01*
X142506144Y-120633813D01*
X142536072Y-120570683D01*
X142595383Y-120533751D01*
X142665246Y-120534747D01*
X142716298Y-120565533D01*
X143144298Y-120993533D01*
X143177783Y-121054856D01*
X143179837Y-121067330D01*
X143189630Y-121154249D01*
X143249210Y-121324521D01*
X143275419Y-121366232D01*
X143345184Y-121477262D01*
X143472738Y-121604816D01*
X143563080Y-121661582D01*
X143611375Y-121691928D01*
X143625478Y-121700789D01*
X143767541Y-121750499D01*
X143795745Y-121760368D01*
X143795750Y-121760369D01*
X143974996Y-121780565D01*
X143975000Y-121780565D01*
X143975004Y-121780565D01*
X144154249Y-121760369D01*
X144154252Y-121760368D01*
X144154255Y-121760368D01*
X144324522Y-121700789D01*
X144477262Y-121604816D01*
X144604816Y-121477262D01*
X144700789Y-121324522D01*
X144760368Y-121154255D01*
X144761757Y-121141928D01*
X144780565Y-120975003D01*
X144780565Y-120974996D01*
X144760369Y-120795750D01*
X144760366Y-120795737D01*
X144749770Y-120765455D01*
X144746208Y-120695676D01*
X144780936Y-120635049D01*
X144842930Y-120602821D01*
X144866811Y-120600500D01*
X145006610Y-120600500D01*
X145006611Y-120600500D01*
X145177701Y-120573402D01*
X145342445Y-120519873D01*
X145496788Y-120441232D01*
X145636928Y-120339414D01*
X145759414Y-120216928D01*
X145861232Y-120076788D01*
X145939873Y-119922445D01*
X145993402Y-119757701D01*
X146020500Y-119586611D01*
X146020500Y-119413389D01*
X146010854Y-119352486D01*
X147749500Y-119352486D01*
X147749500Y-119647513D01*
X147781571Y-119891113D01*
X147788007Y-119939993D01*
X147862212Y-120216930D01*
X147864361Y-120224951D01*
X147864364Y-120224961D01*
X147977254Y-120497500D01*
X147977258Y-120497510D01*
X148124761Y-120752993D01*
X148304352Y-120987040D01*
X148304358Y-120987047D01*
X148512952Y-121195641D01*
X148512959Y-121195647D01*
X148747006Y-121375238D01*
X149002489Y-121522741D01*
X149002490Y-121522741D01*
X149002493Y-121522743D01*
X149275048Y-121635639D01*
X149560007Y-121711993D01*
X149852494Y-121750500D01*
X149852501Y-121750500D01*
X150147499Y-121750500D01*
X150147506Y-121750500D01*
X150439993Y-121711993D01*
X150724952Y-121635639D01*
X150997507Y-121522743D01*
X151252994Y-121375238D01*
X151487042Y-121195646D01*
X151695646Y-120987042D01*
X151875238Y-120752994D01*
X152022743Y-120497507D01*
X152135639Y-120224952D01*
X152211993Y-119939993D01*
X152250500Y-119647506D01*
X152250500Y-119352494D01*
X152211993Y-119060007D01*
X152135639Y-118775048D01*
X152022743Y-118502493D01*
X152009829Y-118480126D01*
X151875238Y-118247006D01*
X151695647Y-118012959D01*
X151695641Y-118012952D01*
X151487047Y-117804358D01*
X151487040Y-117804352D01*
X151252993Y-117624761D01*
X150997510Y-117477258D01*
X150997500Y-117477254D01*
X150724961Y-117364364D01*
X150724954Y-117364362D01*
X150724952Y-117364361D01*
X150439993Y-117288007D01*
X150391113Y-117281571D01*
X150147513Y-117249500D01*
X150147506Y-117249500D01*
X149852494Y-117249500D01*
X149852486Y-117249500D01*
X149574085Y-117286153D01*
X149560007Y-117288007D01*
X149275048Y-117364361D01*
X149275038Y-117364364D01*
X149002499Y-117477254D01*
X149002489Y-117477258D01*
X148747006Y-117624761D01*
X148512959Y-117804352D01*
X148512952Y-117804358D01*
X148304358Y-118012952D01*
X148304352Y-118012959D01*
X148124761Y-118247006D01*
X147977258Y-118502489D01*
X147977254Y-118502499D01*
X147864364Y-118775038D01*
X147864361Y-118775048D01*
X147788227Y-119059188D01*
X147788008Y-119060004D01*
X147788006Y-119060015D01*
X147749500Y-119352486D01*
X146010854Y-119352486D01*
X145993402Y-119242299D01*
X145939873Y-119077555D01*
X145861232Y-118923212D01*
X145759414Y-118783072D01*
X145701232Y-118724890D01*
X145667747Y-118663567D01*
X145672731Y-118593875D01*
X145714603Y-118537942D01*
X145780067Y-118513525D01*
X145817856Y-118516634D01*
X145938852Y-118545683D01*
X146190000Y-118565449D01*
X146441148Y-118545683D01*
X146686111Y-118486873D01*
X146918859Y-118390466D01*
X147133659Y-118258836D01*
X147325224Y-118095224D01*
X147488836Y-117903659D01*
X147620466Y-117688859D01*
X147716873Y-117456111D01*
X147775683Y-117211148D01*
X147795449Y-116960000D01*
X147775683Y-116708852D01*
X147716873Y-116463889D01*
X147689669Y-116398212D01*
X147620466Y-116231140D01*
X147488839Y-116016346D01*
X147488838Y-116016343D01*
X147374510Y-115882483D01*
X147325224Y-115824776D01*
X147198571Y-115716604D01*
X147133656Y-115661161D01*
X147133653Y-115661160D01*
X146918859Y-115529533D01*
X146686110Y-115433126D01*
X146441151Y-115374317D01*
X146190000Y-115354551D01*
X145938848Y-115374317D01*
X145693889Y-115433126D01*
X145461140Y-115529533D01*
X145246346Y-115661160D01*
X145246343Y-115661161D01*
X145054776Y-115824776D01*
X144891161Y-116016343D01*
X144891160Y-116016346D01*
X144759533Y-116231140D01*
X144663126Y-116463889D01*
X144604317Y-116708848D01*
X144584551Y-116960000D01*
X144604317Y-117211151D01*
X144663126Y-117456110D01*
X144759533Y-117688859D01*
X144891160Y-117903653D01*
X144891161Y-117903656D01*
X144916143Y-117932906D01*
X145054776Y-118095224D01*
X145168783Y-118192595D01*
X145206976Y-118251102D01*
X145207474Y-118320970D01*
X145170121Y-118380016D01*
X145106774Y-118409494D01*
X145068854Y-118409358D01*
X145006611Y-118399500D01*
X144833389Y-118399500D01*
X144805754Y-118403877D01*
X144662302Y-118426597D01*
X144497549Y-118480129D01*
X144405793Y-118526881D01*
X144337124Y-118539777D01*
X144272384Y-118513500D01*
X144232127Y-118456394D01*
X144225499Y-118416396D01*
X144225499Y-118127129D01*
X144225498Y-118127123D01*
X144223100Y-118104816D01*
X144219091Y-118067517D01*
X144216165Y-118059673D01*
X144168797Y-117932671D01*
X144168793Y-117932664D01*
X144082547Y-117817455D01*
X144082544Y-117817452D01*
X143967335Y-117731206D01*
X143967328Y-117731202D01*
X143832482Y-117680908D01*
X143832483Y-117680908D01*
X143772883Y-117674501D01*
X143772881Y-117674500D01*
X143772873Y-117674500D01*
X143772865Y-117674500D01*
X142649500Y-117674500D01*
X142582461Y-117654815D01*
X142536706Y-117602011D01*
X142525500Y-117550500D01*
X142525500Y-117382203D01*
X142545185Y-117315164D01*
X142561814Y-117294526D01*
X143544523Y-116311817D01*
X143605846Y-116278333D01*
X143632204Y-116275499D01*
X143772871Y-116275499D01*
X143772872Y-116275499D01*
X143832483Y-116269091D01*
X143967331Y-116218796D01*
X144082546Y-116132546D01*
X144168796Y-116017331D01*
X144219091Y-115882483D01*
X144225500Y-115822873D01*
X144225499Y-114827128D01*
X144219091Y-114767517D01*
X144211605Y-114747447D01*
X144168797Y-114632671D01*
X144168793Y-114632664D01*
X144082547Y-114517455D01*
X144082544Y-114517452D01*
X143967335Y-114431206D01*
X143967328Y-114431202D01*
X143832482Y-114380908D01*
X143832483Y-114380908D01*
X143772883Y-114374501D01*
X143772881Y-114374500D01*
X143772873Y-114374500D01*
X143772865Y-114374500D01*
X143632204Y-114374500D01*
X143565165Y-114354815D01*
X143544523Y-114338181D01*
X143111819Y-113905477D01*
X143078334Y-113844154D01*
X143075500Y-113817796D01*
X143075500Y-106199500D01*
X143095185Y-106132461D01*
X143147989Y-106086706D01*
X143199500Y-106075500D01*
X144058678Y-106075500D01*
X144125717Y-106095185D01*
X144171472Y-106147989D01*
X144181898Y-106185617D01*
X144189630Y-106254249D01*
X144249210Y-106424521D01*
X144249211Y-106424522D01*
X144345184Y-106577262D01*
X144472738Y-106704816D01*
X144625478Y-106800789D01*
X144693306Y-106824523D01*
X144795745Y-106860368D01*
X144795750Y-106860369D01*
X144974996Y-106880565D01*
X144975000Y-106880565D01*
X144975004Y-106880565D01*
X145154249Y-106860369D01*
X145154252Y-106860368D01*
X145154255Y-106860368D01*
X145324522Y-106800789D01*
X145477262Y-106704816D01*
X145477267Y-106704810D01*
X145480097Y-106702555D01*
X145482275Y-106701665D01*
X145483158Y-106701111D01*
X145483255Y-106701265D01*
X145544783Y-106676145D01*
X145557412Y-106675500D01*
X146774903Y-106675500D01*
X146841942Y-106695185D01*
X146862584Y-106711819D01*
X149338181Y-109187416D01*
X149371666Y-109248739D01*
X149374500Y-109275097D01*
X149374500Y-113748229D01*
X149374499Y-113748247D01*
X149374499Y-113913953D01*
X149374498Y-113913953D01*
X149415423Y-114066684D01*
X149444358Y-114116799D01*
X149444359Y-114116803D01*
X149444360Y-114116803D01*
X149494479Y-114203613D01*
X149494481Y-114203616D01*
X149613349Y-114322484D01*
X149613355Y-114322489D01*
X152230240Y-116939374D01*
X152230250Y-116939385D01*
X152234580Y-116943715D01*
X152234581Y-116943716D01*
X152346385Y-117055520D01*
X152433196Y-117105639D01*
X152433198Y-117105641D01*
X152467553Y-117125476D01*
X152483316Y-117134577D01*
X152636044Y-117175501D01*
X152636047Y-117175501D01*
X152801754Y-117175501D01*
X152801770Y-117175500D01*
X153774903Y-117175500D01*
X153841942Y-117195185D01*
X153862584Y-117211819D01*
X154144298Y-117493533D01*
X154177783Y-117554856D01*
X154179837Y-117567330D01*
X154189630Y-117654249D01*
X154189631Y-117654254D01*
X154189632Y-117654255D01*
X154189828Y-117654815D01*
X154249210Y-117824521D01*
X154317313Y-117932906D01*
X154345184Y-117977262D01*
X154472738Y-118104816D01*
X154625478Y-118200789D01*
X154707933Y-118229641D01*
X154764709Y-118270363D01*
X154790457Y-118335315D01*
X154777001Y-118403877D01*
X154728614Y-118454280D01*
X154705299Y-118464613D01*
X154657554Y-118480126D01*
X154503211Y-118558768D01*
X154423256Y-118616859D01*
X154363072Y-118660586D01*
X154363070Y-118660588D01*
X154363069Y-118660588D01*
X154240588Y-118783069D01*
X154240588Y-118783070D01*
X154240586Y-118783072D01*
X154196859Y-118843256D01*
X154138768Y-118923211D01*
X154060128Y-119077552D01*
X154006597Y-119242302D01*
X153981480Y-119400890D01*
X153979500Y-119413389D01*
X153979500Y-119586611D01*
X154006598Y-119757701D01*
X154060127Y-119922445D01*
X154138768Y-120076788D01*
X154240586Y-120216928D01*
X154363072Y-120339414D01*
X154503212Y-120441232D01*
X154657555Y-120519873D01*
X154822299Y-120573402D01*
X154993389Y-120600500D01*
X154993390Y-120600500D01*
X155166610Y-120600500D01*
X155166611Y-120600500D01*
X155337701Y-120573402D01*
X155502445Y-120519873D01*
X155656788Y-120441232D01*
X155796928Y-120339414D01*
X155919414Y-120216928D01*
X156021232Y-120076788D01*
X156099873Y-119922445D01*
X156153402Y-119757701D01*
X156165772Y-119679602D01*
X156195701Y-119616467D01*
X156255013Y-119579536D01*
X156288245Y-119575000D01*
X156825000Y-119575000D01*
X157325000Y-119575000D01*
X157872828Y-119575000D01*
X157872844Y-119574999D01*
X157932372Y-119568598D01*
X157932379Y-119568596D01*
X158067086Y-119518354D01*
X158067093Y-119518350D01*
X158182187Y-119432190D01*
X158182190Y-119432187D01*
X158268350Y-119317093D01*
X158268354Y-119317086D01*
X158318596Y-119182379D01*
X158318598Y-119182372D01*
X158324999Y-119122844D01*
X158325000Y-119122827D01*
X158325000Y-118875000D01*
X157325000Y-118875000D01*
X157325000Y-119575000D01*
X156825000Y-119575000D01*
X156825000Y-118375000D01*
X157325000Y-118375000D01*
X158325000Y-118375000D01*
X158325000Y-118127172D01*
X158324999Y-118127155D01*
X158318598Y-118067627D01*
X158318596Y-118067620D01*
X158268354Y-117932913D01*
X158268350Y-117932906D01*
X158182190Y-117817812D01*
X158182187Y-117817809D01*
X158067093Y-117731649D01*
X158067086Y-117731645D01*
X157932379Y-117681403D01*
X157932372Y-117681401D01*
X157872844Y-117675000D01*
X157325000Y-117675000D01*
X157325000Y-118375000D01*
X156825000Y-118375000D01*
X156825000Y-117675000D01*
X156277155Y-117675000D01*
X156217627Y-117681401D01*
X156217620Y-117681403D01*
X156082913Y-117731645D01*
X156082906Y-117731649D01*
X155967812Y-117817809D01*
X155952729Y-117837958D01*
X155896795Y-117879828D01*
X155827103Y-117884812D01*
X155765780Y-117851326D01*
X155732296Y-117790002D01*
X155736422Y-117722691D01*
X155760366Y-117654262D01*
X155760369Y-117654249D01*
X155780565Y-117475003D01*
X155780565Y-117474996D01*
X155760369Y-117295750D01*
X155760368Y-117295745D01*
X155730766Y-117211148D01*
X155700789Y-117125478D01*
X155604816Y-116972738D01*
X155477262Y-116845184D01*
X155324521Y-116749210D01*
X155154249Y-116689630D01*
X155067330Y-116679837D01*
X155002916Y-116652770D01*
X154993533Y-116644298D01*
X154748875Y-116399640D01*
X154715390Y-116338317D01*
X154719514Y-116271006D01*
X154760368Y-116154255D01*
X154770161Y-116067330D01*
X154797226Y-116002920D01*
X154805701Y-115993533D01*
X154837418Y-115961817D01*
X154898742Y-115928333D01*
X154925098Y-115925500D01*
X155760859Y-115925500D01*
X155827898Y-115945185D01*
X155873653Y-115997989D01*
X155877030Y-116006140D01*
X155881204Y-116017331D01*
X155881205Y-116017332D01*
X155881206Y-116017335D01*
X155967452Y-116132544D01*
X155967455Y-116132547D01*
X156082664Y-116218793D01*
X156082671Y-116218797D01*
X156217517Y-116269091D01*
X156217516Y-116269091D01*
X156224444Y-116269835D01*
X156277127Y-116275500D01*
X157872872Y-116275499D01*
X157932483Y-116269091D01*
X158067331Y-116218796D01*
X158182546Y-116132546D01*
X158268796Y-116017331D01*
X158319091Y-115882483D01*
X158325500Y-115822873D01*
X158325499Y-114827128D01*
X158319091Y-114767517D01*
X158311605Y-114747447D01*
X158268797Y-114632671D01*
X158268793Y-114632664D01*
X158182547Y-114517455D01*
X158182544Y-114517452D01*
X158067335Y-114431206D01*
X158067328Y-114431202D01*
X157932482Y-114380908D01*
X157932483Y-114380908D01*
X157872883Y-114374501D01*
X157872881Y-114374500D01*
X157872873Y-114374500D01*
X157872864Y-114374500D01*
X156277129Y-114374500D01*
X156277123Y-114374501D01*
X156217516Y-114380908D01*
X156082671Y-114431202D01*
X156082664Y-114431206D01*
X155967455Y-114517452D01*
X155967452Y-114517455D01*
X155881206Y-114632664D01*
X155881204Y-114632668D01*
X155881204Y-114632669D01*
X155877039Y-114643834D01*
X155835171Y-114699766D01*
X155769707Y-114724184D01*
X155760859Y-114724500D01*
X154711669Y-114724500D01*
X154711653Y-114724499D01*
X154704057Y-114724499D01*
X154545943Y-114724499D01*
X154434741Y-114754296D01*
X154393214Y-114765423D01*
X154352871Y-114788716D01*
X154352869Y-114788717D01*
X154306307Y-114815599D01*
X154238407Y-114832070D01*
X154172380Y-114809218D01*
X154129190Y-114754296D01*
X154122549Y-114684743D01*
X154123735Y-114679261D01*
X154125683Y-114671148D01*
X154145449Y-114420000D01*
X154125683Y-114168852D01*
X154066873Y-113923889D01*
X154033846Y-113844154D01*
X153970466Y-113691140D01*
X153838839Y-113476346D01*
X153838838Y-113476343D01*
X153801875Y-113433066D01*
X153675224Y-113284776D01*
X153548571Y-113176604D01*
X153483656Y-113121161D01*
X153483653Y-113121160D01*
X153268859Y-112989533D01*
X153036110Y-112893126D01*
X152791151Y-112834317D01*
X152540000Y-112814551D01*
X152288848Y-112834317D01*
X152043889Y-112893126D01*
X151811140Y-112989533D01*
X151596346Y-113121160D01*
X151596343Y-113121161D01*
X151404776Y-113284776D01*
X151241161Y-113476343D01*
X151241160Y-113476346D01*
X151109533Y-113691140D01*
X151054883Y-113823077D01*
X151011041Y-113877481D01*
X150944747Y-113899545D01*
X150877048Y-113882265D01*
X150852641Y-113863305D01*
X150611819Y-113622483D01*
X150578334Y-113561160D01*
X150575500Y-113534802D01*
X150575500Y-108895945D01*
X150575500Y-108895943D01*
X150534577Y-108743216D01*
X150466602Y-108625478D01*
X150455524Y-108606290D01*
X150455521Y-108606286D01*
X150455520Y-108606284D01*
X150343716Y-108494480D01*
X150343715Y-108494479D01*
X150339385Y-108490149D01*
X150339374Y-108490139D01*
X148136416Y-106287181D01*
X148102931Y-106225858D01*
X148107915Y-106156166D01*
X148149787Y-106100233D01*
X148215251Y-106075816D01*
X148224097Y-106075500D01*
X152091937Y-106075500D01*
X152158976Y-106095185D01*
X152204731Y-106147989D01*
X152214675Y-106217147D01*
X152208978Y-106240455D01*
X152189633Y-106295737D01*
X152189630Y-106295750D01*
X152169435Y-106474996D01*
X152169435Y-106475003D01*
X152189630Y-106654249D01*
X152189631Y-106654254D01*
X152249211Y-106824523D01*
X152345185Y-106977263D01*
X152347445Y-106980097D01*
X152348334Y-106982275D01*
X152348889Y-106983158D01*
X152348734Y-106983255D01*
X152373855Y-107044783D01*
X152374500Y-107057412D01*
X152374500Y-110892587D01*
X152354815Y-110959626D01*
X152347450Y-110969896D01*
X152345186Y-110972734D01*
X152249211Y-111125476D01*
X152189631Y-111295745D01*
X152189630Y-111295750D01*
X152169435Y-111474996D01*
X152169435Y-111475003D01*
X152189630Y-111654249D01*
X152189631Y-111654254D01*
X152249211Y-111824523D01*
X152345184Y-111977262D01*
X152472738Y-112104816D01*
X152625478Y-112200789D01*
X152795745Y-112260368D01*
X152795750Y-112260369D01*
X152974996Y-112280565D01*
X152975000Y-112280565D01*
X152975004Y-112280565D01*
X153154249Y-112260369D01*
X153154252Y-112260368D01*
X153154255Y-112260368D01*
X153324522Y-112200789D01*
X153477262Y-112104816D01*
X153604816Y-111977262D01*
X153700789Y-111824522D01*
X153760368Y-111654255D01*
X153780565Y-111475000D01*
X153760368Y-111295745D01*
X153700789Y-111125478D01*
X153604816Y-110972738D01*
X153604814Y-110972736D01*
X153604813Y-110972734D01*
X153602550Y-110969896D01*
X153601659Y-110967715D01*
X153601111Y-110966842D01*
X153601264Y-110966745D01*
X153576144Y-110905209D01*
X153575500Y-110892587D01*
X153575500Y-107057412D01*
X153595185Y-106990373D01*
X153602555Y-106980097D01*
X153604810Y-106977267D01*
X153604816Y-106977262D01*
X153700789Y-106824522D01*
X153760368Y-106654255D01*
X153780565Y-106475000D01*
X153774877Y-106424521D01*
X153760369Y-106295750D01*
X153760366Y-106295737D01*
X153741022Y-106240455D01*
X153737460Y-106170676D01*
X153772188Y-106110049D01*
X153834182Y-106077821D01*
X153858063Y-106075500D01*
X161061610Y-106075500D01*
X161061611Y-106075500D01*
X161232701Y-106048402D01*
X161397445Y-105994873D01*
X161551788Y-105916232D01*
X161691928Y-105814414D01*
X162314414Y-105191928D01*
X162416232Y-105051788D01*
X162494873Y-104897445D01*
X162548402Y-104732701D01*
X162575500Y-104561611D01*
X162575500Y-104388389D01*
X162575500Y-103888389D01*
X162575500Y-102388389D01*
X162575500Y-101388389D01*
X162575500Y-99913389D01*
X163319500Y-99913389D01*
X163319500Y-100086611D01*
X163324426Y-100117712D01*
X163343848Y-100240343D01*
X163346598Y-100257701D01*
X163365974Y-100317335D01*
X163400128Y-100422447D01*
X163430575Y-100482204D01*
X163478768Y-100576788D01*
X163580586Y-100716928D01*
X163703072Y-100839414D01*
X163843212Y-100941232D01*
X163997555Y-101019873D01*
X164162299Y-101073402D01*
X164333389Y-101100500D01*
X164333390Y-101100500D01*
X164506610Y-101100500D01*
X164506611Y-101100500D01*
X164677701Y-101073402D01*
X164842445Y-101019873D01*
X164996788Y-100941232D01*
X165136928Y-100839414D01*
X165259414Y-100716928D01*
X165361232Y-100576788D01*
X165439873Y-100422445D01*
X165493402Y-100257701D01*
X165520500Y-100086611D01*
X165520500Y-99913389D01*
X165493402Y-99742299D01*
X165439873Y-99577555D01*
X165361232Y-99423212D01*
X165259414Y-99283072D01*
X165201232Y-99224890D01*
X165167747Y-99163567D01*
X165172731Y-99093875D01*
X165214603Y-99037942D01*
X165280067Y-99013525D01*
X165317856Y-99016634D01*
X165438852Y-99045683D01*
X165690000Y-99065449D01*
X165941148Y-99045683D01*
X166186111Y-98986873D01*
X166418859Y-98890466D01*
X166633659Y-98758836D01*
X166825224Y-98595224D01*
X166988836Y-98403659D01*
X167120466Y-98188859D01*
X167216873Y-97956111D01*
X167275683Y-97711148D01*
X167295449Y-97460000D01*
X167275683Y-97208852D01*
X167216873Y-96963889D01*
X167204042Y-96932913D01*
X167120466Y-96731140D01*
X166988839Y-96516346D01*
X166988838Y-96516343D01*
X166911493Y-96425784D01*
X166825224Y-96324776D01*
X166698571Y-96216604D01*
X166633656Y-96161161D01*
X166633653Y-96161160D01*
X166418859Y-96029533D01*
X166186110Y-95933126D01*
X165941151Y-95874317D01*
X165690000Y-95854551D01*
X165438848Y-95874317D01*
X165193889Y-95933126D01*
X164961140Y-96029533D01*
X164746346Y-96161160D01*
X164746343Y-96161161D01*
X164554776Y-96324776D01*
X164391161Y-96516343D01*
X164391160Y-96516346D01*
X164259533Y-96731140D01*
X164163126Y-96963889D01*
X164104317Y-97208848D01*
X164084551Y-97460000D01*
X164104317Y-97711151D01*
X164163126Y-97956110D01*
X164259533Y-98188859D01*
X164391160Y-98403653D01*
X164391161Y-98403656D01*
X164443948Y-98465461D01*
X164554776Y-98595224D01*
X164655679Y-98681403D01*
X164668783Y-98692595D01*
X164706976Y-98751102D01*
X164707474Y-98820970D01*
X164670121Y-98880016D01*
X164606774Y-98909494D01*
X164568854Y-98909358D01*
X164506611Y-98899500D01*
X164333389Y-98899500D01*
X164293728Y-98905781D01*
X164162302Y-98926597D01*
X163997552Y-98980128D01*
X163843211Y-99058768D01*
X163763256Y-99116859D01*
X163703072Y-99160586D01*
X163703070Y-99160588D01*
X163703069Y-99160588D01*
X163580588Y-99283069D01*
X163580588Y-99283070D01*
X163580586Y-99283072D01*
X163576723Y-99288389D01*
X163478768Y-99423211D01*
X163400128Y-99577552D01*
X163346597Y-99742302D01*
X163337863Y-99797447D01*
X163319500Y-99913389D01*
X162575500Y-99913389D01*
X162575500Y-99888389D01*
X162548402Y-99717299D01*
X162494873Y-99552555D01*
X162416232Y-99398212D01*
X162314414Y-99258072D01*
X162191928Y-99135586D01*
X162011819Y-98955477D01*
X161978334Y-98894154D01*
X161975500Y-98867796D01*
X161975500Y-98699499D01*
X161995185Y-98632460D01*
X162047989Y-98586705D01*
X162099500Y-98575499D01*
X163222871Y-98575499D01*
X163222872Y-98575499D01*
X163282483Y-98569091D01*
X163417331Y-98518796D01*
X163532546Y-98432546D01*
X163618796Y-98317331D01*
X163669091Y-98182483D01*
X163675500Y-98122873D01*
X163675499Y-97127128D01*
X163669091Y-97067517D01*
X163662851Y-97050788D01*
X163618797Y-96932671D01*
X163618793Y-96932664D01*
X163532547Y-96817455D01*
X163532544Y-96817452D01*
X163417335Y-96731206D01*
X163417328Y-96731202D01*
X163282482Y-96680908D01*
X163282483Y-96680908D01*
X163222883Y-96674501D01*
X163222881Y-96674500D01*
X163222873Y-96674500D01*
X163222865Y-96674500D01*
X163045363Y-96674500D01*
X162978324Y-96654815D01*
X162937975Y-96612499D01*
X162933539Y-96604816D01*
X162905520Y-96556284D01*
X162805699Y-96456463D01*
X162772215Y-96395140D01*
X162770161Y-96382664D01*
X162760369Y-96295747D01*
X162700789Y-96125478D01*
X162640503Y-96029534D01*
X162604816Y-95972738D01*
X162556890Y-95924812D01*
X162523405Y-95863489D01*
X162528389Y-95793797D01*
X162556888Y-95749452D01*
X162994523Y-95311818D01*
X163055846Y-95278333D01*
X163082204Y-95275499D01*
X163222871Y-95275499D01*
X163222872Y-95275499D01*
X163282483Y-95269091D01*
X163417331Y-95218796D01*
X163532546Y-95132546D01*
X163618796Y-95017331D01*
X163669091Y-94882483D01*
X163675500Y-94822873D01*
X163675499Y-93827128D01*
X163669091Y-93767517D01*
X163618796Y-93632669D01*
X163618795Y-93632668D01*
X163618793Y-93632664D01*
X163532547Y-93517455D01*
X163532544Y-93517452D01*
X163417335Y-93431206D01*
X163417328Y-93431202D01*
X163282482Y-93380908D01*
X163282483Y-93380908D01*
X163222883Y-93374501D01*
X163222881Y-93374500D01*
X163222873Y-93374500D01*
X163222865Y-93374500D01*
X163013368Y-93374500D01*
X162957073Y-93360985D01*
X162942404Y-93353511D01*
X162847445Y-93305127D01*
X162682701Y-93251598D01*
X162682699Y-93251597D01*
X162682698Y-93251597D01*
X162551271Y-93230781D01*
X162511611Y-93224500D01*
X162338389Y-93224500D01*
X162306192Y-93229599D01*
X162167301Y-93251597D01*
X162002555Y-93305126D01*
X161892924Y-93360985D01*
X161836631Y-93374500D01*
X161627130Y-93374500D01*
X161627123Y-93374501D01*
X161567516Y-93380908D01*
X161432671Y-93431202D01*
X161432664Y-93431206D01*
X161317455Y-93517452D01*
X161317452Y-93517455D01*
X161231206Y-93632664D01*
X161231202Y-93632671D01*
X161180908Y-93767517D01*
X161174501Y-93827116D01*
X161174501Y-93827123D01*
X161174500Y-93827135D01*
X161174500Y-93967795D01*
X161154815Y-94034834D01*
X161138181Y-94055476D01*
X160158072Y-95035586D01*
X160035588Y-95158069D01*
X160035588Y-95158070D01*
X160035586Y-95158072D01*
X160026086Y-95171148D01*
X159933768Y-95298211D01*
X159855128Y-95452552D01*
X159801597Y-95617302D01*
X159774500Y-95788389D01*
X159774500Y-99461610D01*
X159800504Y-99625799D01*
X159801598Y-99632701D01*
X159855127Y-99797445D01*
X159933768Y-99951788D01*
X160035586Y-100091928D01*
X160035588Y-100091930D01*
X160338181Y-100394523D01*
X160371666Y-100455846D01*
X160374500Y-100482204D01*
X160374500Y-103750500D01*
X160354815Y-103817539D01*
X160302011Y-103863294D01*
X160250500Y-103874500D01*
X142674500Y-103874500D01*
X142607461Y-103854815D01*
X142561706Y-103802011D01*
X142550500Y-103750500D01*
X142550500Y-102888389D01*
X142523402Y-102717299D01*
X142469873Y-102552555D01*
X142391232Y-102398212D01*
X142289414Y-102258072D01*
X142166928Y-102135586D01*
X142011819Y-101980477D01*
X141978334Y-101919154D01*
X141975500Y-101892796D01*
X141975500Y-100699499D01*
X141995185Y-100632460D01*
X142047989Y-100586705D01*
X142099500Y-100575499D01*
X143222871Y-100575499D01*
X143222872Y-100575499D01*
X143282483Y-100569091D01*
X143417331Y-100518796D01*
X143532546Y-100432546D01*
X143618796Y-100317331D01*
X143626649Y-100296275D01*
X143668519Y-100240343D01*
X143733983Y-100215925D01*
X143802256Y-100230776D01*
X143851662Y-100280180D01*
X143860759Y-100301285D01*
X143891055Y-100394523D01*
X143900128Y-100422447D01*
X143930575Y-100482204D01*
X143978768Y-100576788D01*
X144080586Y-100716928D01*
X144203072Y-100839414D01*
X144343212Y-100941232D01*
X144497555Y-101019873D01*
X144662299Y-101073402D01*
X144833389Y-101100500D01*
X144833390Y-101100500D01*
X145006610Y-101100500D01*
X145006611Y-101100500D01*
X145177701Y-101073402D01*
X145342445Y-101019873D01*
X145496788Y-100941232D01*
X145636928Y-100839414D01*
X145759414Y-100716928D01*
X145861232Y-100576788D01*
X145939873Y-100422445D01*
X145993402Y-100257701D01*
X146020500Y-100086611D01*
X146020500Y-99913389D01*
X145993402Y-99742299D01*
X145939873Y-99577555D01*
X145861232Y-99423212D01*
X145759414Y-99283072D01*
X145701232Y-99224890D01*
X145667747Y-99163567D01*
X145672731Y-99093875D01*
X145714603Y-99037942D01*
X145780067Y-99013525D01*
X145817856Y-99016634D01*
X145938852Y-99045683D01*
X146190000Y-99065449D01*
X146441148Y-99045683D01*
X146686111Y-98986873D01*
X146918859Y-98890466D01*
X147133659Y-98758836D01*
X147325224Y-98595224D01*
X147488836Y-98403659D01*
X147620466Y-98188859D01*
X147716873Y-97956111D01*
X147775683Y-97711148D01*
X147795449Y-97460000D01*
X147775683Y-97208852D01*
X147716873Y-96963889D01*
X147704042Y-96932913D01*
X147620466Y-96731140D01*
X147488839Y-96516346D01*
X147488838Y-96516343D01*
X147411493Y-96425784D01*
X147325224Y-96324776D01*
X147198571Y-96216604D01*
X147133656Y-96161161D01*
X147133653Y-96161160D01*
X146918859Y-96029533D01*
X146686110Y-95933126D01*
X146441151Y-95874317D01*
X146190000Y-95854551D01*
X145938848Y-95874317D01*
X145693889Y-95933126D01*
X145461140Y-96029533D01*
X145246346Y-96161160D01*
X145246343Y-96161161D01*
X145054776Y-96324776D01*
X144891161Y-96516343D01*
X144891160Y-96516346D01*
X144759533Y-96731140D01*
X144663126Y-96963889D01*
X144604317Y-97208848D01*
X144584551Y-97460000D01*
X144604317Y-97711151D01*
X144663126Y-97956110D01*
X144759533Y-98188859D01*
X144891160Y-98403653D01*
X144891161Y-98403656D01*
X144943948Y-98465461D01*
X145054776Y-98595224D01*
X145155679Y-98681403D01*
X145168783Y-98692595D01*
X145206976Y-98751102D01*
X145207474Y-98820970D01*
X145170121Y-98880016D01*
X145106774Y-98909494D01*
X145068854Y-98909358D01*
X145006611Y-98899500D01*
X144833389Y-98899500D01*
X144793728Y-98905781D01*
X144662302Y-98926597D01*
X144497552Y-98980128D01*
X144343211Y-99058768D01*
X144263256Y-99116859D01*
X144203072Y-99160586D01*
X144203070Y-99160588D01*
X144203069Y-99160588D01*
X144080588Y-99283069D01*
X144080588Y-99283070D01*
X144080586Y-99283072D01*
X144076723Y-99288389D01*
X143978768Y-99423211D01*
X143909984Y-99558208D01*
X143862009Y-99609004D01*
X143794188Y-99625799D01*
X143728053Y-99603262D01*
X143684602Y-99548546D01*
X143675499Y-99501913D01*
X143675499Y-99127129D01*
X143675498Y-99127123D01*
X143669091Y-99067516D01*
X143618797Y-98932671D01*
X143618793Y-98932664D01*
X143532547Y-98817455D01*
X143532544Y-98817452D01*
X143417335Y-98731206D01*
X143417328Y-98731202D01*
X143282482Y-98680908D01*
X143282483Y-98680908D01*
X143222883Y-98674501D01*
X143222881Y-98674500D01*
X143222873Y-98674500D01*
X143222865Y-98674500D01*
X142099500Y-98674500D01*
X142032461Y-98654815D01*
X141986706Y-98602011D01*
X141975500Y-98550500D01*
X141975500Y-98382203D01*
X141995185Y-98315164D01*
X142011814Y-98294526D01*
X142994523Y-97311817D01*
X143055846Y-97278333D01*
X143082204Y-97275499D01*
X143222871Y-97275499D01*
X143222872Y-97275499D01*
X143282483Y-97269091D01*
X143417331Y-97218796D01*
X143532546Y-97132546D01*
X143618796Y-97017331D01*
X143669091Y-96882483D01*
X143675500Y-96822873D01*
X143675499Y-95827128D01*
X143669091Y-95767517D01*
X143662352Y-95749450D01*
X143618797Y-95632671D01*
X143618793Y-95632664D01*
X143532547Y-95517455D01*
X143532544Y-95517452D01*
X143417335Y-95431206D01*
X143417328Y-95431202D01*
X143282482Y-95380908D01*
X143282483Y-95380908D01*
X143222883Y-95374501D01*
X143222881Y-95374500D01*
X143222873Y-95374500D01*
X143222865Y-95374500D01*
X143082204Y-95374500D01*
X143015165Y-95354815D01*
X142994523Y-95338181D01*
X140941819Y-93285477D01*
X140908334Y-93224154D01*
X140905500Y-93197796D01*
X140905500Y-88474387D01*
X140925185Y-88407348D01*
X140977989Y-88361593D01*
X141047147Y-88351649D01*
X141058460Y-88353816D01*
X141062160Y-88354704D01*
X141062174Y-88354709D01*
X141062187Y-88354711D01*
X141256578Y-88385500D01*
X141256583Y-88385500D01*
X142453422Y-88385500D01*
X142647826Y-88354709D01*
X142657244Y-88351649D01*
X142835025Y-88293884D01*
X143010405Y-88204524D01*
X143169646Y-88088828D01*
X143308828Y-87949646D01*
X143420182Y-87796380D01*
X143475512Y-87753716D01*
X143545126Y-87747737D01*
X143606921Y-87780343D01*
X143641278Y-87841182D01*
X143644500Y-87869267D01*
X143644500Y-88233422D01*
X143675290Y-88427826D01*
X143736117Y-88615029D01*
X143825475Y-88790403D01*
X143825476Y-88790405D01*
X143941172Y-88949646D01*
X144080354Y-89088828D01*
X144239595Y-89204524D01*
X144322455Y-89246743D01*
X144414970Y-89293882D01*
X144414972Y-89293882D01*
X144414975Y-89293884D01*
X144515317Y-89326487D01*
X144602173Y-89354709D01*
X144796578Y-89385500D01*
X144796583Y-89385500D01*
X144993422Y-89385500D01*
X145187826Y-89354709D01*
X145375025Y-89293884D01*
X145550405Y-89204524D01*
X145709646Y-89088828D01*
X145848828Y-88949646D01*
X145964524Y-88790405D01*
X146053884Y-88615025D01*
X146054515Y-88613787D01*
X146102489Y-88562990D01*
X146170310Y-88546195D01*
X146236445Y-88568732D01*
X146275485Y-88613787D01*
X146365474Y-88790403D01*
X146400234Y-88838246D01*
X146481172Y-88949646D01*
X146620354Y-89088828D01*
X146779595Y-89204524D01*
X146862455Y-89246743D01*
X146954970Y-89293882D01*
X146954972Y-89293882D01*
X146954975Y-89293884D01*
X147055317Y-89326487D01*
X147142173Y-89354709D01*
X147336578Y-89385500D01*
X147336583Y-89385500D01*
X147533422Y-89385500D01*
X147727826Y-89354709D01*
X147915025Y-89293884D01*
X148090405Y-89204524D01*
X148249646Y-89088828D01*
X148388828Y-88949646D01*
X148504524Y-88790405D01*
X148593884Y-88615025D01*
X148594515Y-88613787D01*
X148642489Y-88562990D01*
X148710310Y-88546195D01*
X148776445Y-88568732D01*
X148815485Y-88613787D01*
X148905474Y-88790403D01*
X148940234Y-88838246D01*
X149021172Y-88949646D01*
X149160354Y-89088828D01*
X149319595Y-89204524D01*
X149402455Y-89246743D01*
X149494970Y-89293882D01*
X149494972Y-89293882D01*
X149494975Y-89293884D01*
X149595317Y-89326487D01*
X149682173Y-89354709D01*
X149876578Y-89385500D01*
X149876583Y-89385500D01*
X150073422Y-89385500D01*
X150267826Y-89354709D01*
X150455025Y-89293884D01*
X150630405Y-89204524D01*
X150789646Y-89088828D01*
X150928828Y-88949646D01*
X151044524Y-88790405D01*
X151133884Y-88615025D01*
X151134515Y-88613787D01*
X151182489Y-88562990D01*
X151250310Y-88546195D01*
X151316445Y-88568732D01*
X151355485Y-88613787D01*
X151445474Y-88790403D01*
X151480234Y-88838246D01*
X151561172Y-88949646D01*
X151700354Y-89088828D01*
X151859595Y-89204524D01*
X151942455Y-89246743D01*
X152034970Y-89293882D01*
X152034972Y-89293882D01*
X152034975Y-89293884D01*
X152135317Y-89326487D01*
X152222173Y-89354709D01*
X152416578Y-89385500D01*
X152416583Y-89385500D01*
X152613422Y-89385500D01*
X152807826Y-89354709D01*
X152995025Y-89293884D01*
X153170405Y-89204524D01*
X153329646Y-89088828D01*
X153468828Y-88949646D01*
X153584524Y-88790405D01*
X153673884Y-88615025D01*
X153674515Y-88613787D01*
X153722489Y-88562990D01*
X153790310Y-88546195D01*
X153856445Y-88568732D01*
X153895485Y-88613787D01*
X153985474Y-88790403D01*
X154020234Y-88838246D01*
X154101172Y-88949646D01*
X154240354Y-89088828D01*
X154399595Y-89204524D01*
X154482455Y-89246743D01*
X154574970Y-89293882D01*
X154574972Y-89293882D01*
X154574975Y-89293884D01*
X154675317Y-89326487D01*
X154762173Y-89354709D01*
X154956578Y-89385500D01*
X154956583Y-89385500D01*
X155153416Y-89385500D01*
X155153417Y-89385500D01*
X155157607Y-89384836D01*
X155226900Y-89393785D01*
X155280356Y-89438777D01*
X155301001Y-89505527D01*
X155282282Y-89572842D01*
X155282009Y-89573279D01*
X155249211Y-89625477D01*
X155187332Y-89802318D01*
X155184648Y-89801378D01*
X155156738Y-89851200D01*
X155095055Y-89884018D01*
X155025422Y-89878278D01*
X154982332Y-89850254D01*
X154977262Y-89845184D01*
X154824523Y-89749211D01*
X154654254Y-89689631D01*
X154654249Y-89689630D01*
X154475004Y-89669435D01*
X154474996Y-89669435D01*
X154295750Y-89689630D01*
X154295745Y-89689631D01*
X154125476Y-89749211D01*
X153972737Y-89845184D01*
X153845182Y-89972739D01*
X153746371Y-90129996D01*
X153729059Y-90151704D01*
X152171286Y-91709478D01*
X152059481Y-91821282D01*
X152059477Y-91821287D01*
X152017662Y-91893715D01*
X152017662Y-91893716D01*
X151980423Y-91958214D01*
X151980423Y-91958215D01*
X151939499Y-92110943D01*
X151939499Y-92110945D01*
X151939499Y-92279046D01*
X151939500Y-92279059D01*
X151939500Y-93353511D01*
X151919815Y-93420550D01*
X151867011Y-93466305D01*
X151862953Y-93468072D01*
X151811140Y-93489533D01*
X151596346Y-93621160D01*
X151596343Y-93621161D01*
X151404776Y-93784776D01*
X151241161Y-93976343D01*
X151241160Y-93976346D01*
X151109533Y-94191140D01*
X151013126Y-94423889D01*
X150954317Y-94668848D01*
X150934551Y-94920000D01*
X150954317Y-95171151D01*
X151013126Y-95416110D01*
X151109533Y-95648859D01*
X151241160Y-95863653D01*
X151241161Y-95863656D01*
X151257398Y-95882667D01*
X151404776Y-96055224D01*
X151528811Y-96161160D01*
X151596343Y-96218838D01*
X151596346Y-96218839D01*
X151769577Y-96324996D01*
X151811141Y-96350466D01*
X151862953Y-96371927D01*
X151917355Y-96415765D01*
X151939421Y-96482059D01*
X151939500Y-96486487D01*
X151939500Y-98465461D01*
X151919815Y-98532500D01*
X151867011Y-98578255D01*
X151797853Y-98588199D01*
X151734297Y-98559174D01*
X151717125Y-98540949D01*
X151695644Y-98512955D01*
X151487047Y-98304358D01*
X151487040Y-98304352D01*
X151252993Y-98124761D01*
X150997510Y-97977258D01*
X150997500Y-97977254D01*
X150724961Y-97864364D01*
X150724954Y-97864362D01*
X150724952Y-97864361D01*
X150439993Y-97788007D01*
X150391113Y-97781571D01*
X150147513Y-97749500D01*
X150147506Y-97749500D01*
X149852494Y-97749500D01*
X149852486Y-97749500D01*
X149574085Y-97786153D01*
X149560007Y-97788007D01*
X149275048Y-97864361D01*
X149275038Y-97864364D01*
X149002499Y-97977254D01*
X149002489Y-97977258D01*
X148747006Y-98124761D01*
X148512959Y-98304352D01*
X148512952Y-98304358D01*
X148304358Y-98512952D01*
X148304352Y-98512959D01*
X148124761Y-98747006D01*
X147977258Y-99002489D01*
X147977254Y-99002499D01*
X147864364Y-99275038D01*
X147864361Y-99275048D01*
X147788008Y-99560004D01*
X147788006Y-99560015D01*
X147749500Y-99852486D01*
X147749500Y-100147513D01*
X147781571Y-100391113D01*
X147788007Y-100439993D01*
X147862212Y-100716930D01*
X147864361Y-100724951D01*
X147864364Y-100724961D01*
X147977254Y-100997500D01*
X147977258Y-100997510D01*
X148124761Y-101252993D01*
X148304352Y-101487040D01*
X148304358Y-101487047D01*
X148512952Y-101695641D01*
X148512959Y-101695647D01*
X148747006Y-101875238D01*
X149002489Y-102022741D01*
X149002490Y-102022741D01*
X149002493Y-102022743D01*
X149213296Y-102110060D01*
X149235015Y-102119057D01*
X149275048Y-102135639D01*
X149560007Y-102211993D01*
X149852494Y-102250500D01*
X149852501Y-102250500D01*
X150147499Y-102250500D01*
X150147506Y-102250500D01*
X150439993Y-102211993D01*
X150724952Y-102135639D01*
X150997507Y-102022743D01*
X151252994Y-101875238D01*
X151487042Y-101695646D01*
X151695646Y-101487042D01*
X151717124Y-101459052D01*
X151773552Y-101417849D01*
X151843298Y-101413694D01*
X151904218Y-101447906D01*
X151936971Y-101509624D01*
X151939500Y-101534538D01*
X151939500Y-101953330D01*
X151939499Y-101953348D01*
X151939499Y-102119054D01*
X151939498Y-102119054D01*
X151980423Y-102271786D01*
X151980424Y-102271787D01*
X152004443Y-102313389D01*
X152047744Y-102388389D01*
X152059481Y-102408717D01*
X152144298Y-102493534D01*
X152177783Y-102554857D01*
X152179837Y-102567331D01*
X152189630Y-102654249D01*
X152249210Y-102824521D01*
X152289341Y-102888389D01*
X152345184Y-102977262D01*
X152472738Y-103104816D01*
X152625478Y-103200789D01*
X152795745Y-103260368D01*
X152795750Y-103260369D01*
X152974996Y-103280565D01*
X152975000Y-103280565D01*
X152975004Y-103280565D01*
X153154249Y-103260369D01*
X153154252Y-103260368D01*
X153154255Y-103260368D01*
X153324522Y-103200789D01*
X153477262Y-103104816D01*
X153604816Y-102977262D01*
X153700789Y-102824522D01*
X153760368Y-102654255D01*
X153770162Y-102567331D01*
X153780565Y-102475003D01*
X153780565Y-102474996D01*
X153760369Y-102295750D01*
X153760368Y-102295745D01*
X153709552Y-102150521D01*
X153700789Y-102125478D01*
X153696754Y-102119057D01*
X153646270Y-102038712D01*
X153604816Y-101972738D01*
X153477262Y-101845184D01*
X153324521Y-101749210D01*
X153223546Y-101713878D01*
X153166770Y-101673156D01*
X153141022Y-101608204D01*
X153140500Y-101596836D01*
X153140500Y-96486487D01*
X153160185Y-96419448D01*
X153212989Y-96373693D01*
X153217002Y-96371945D01*
X153268859Y-96350466D01*
X153483659Y-96218836D01*
X153675224Y-96055224D01*
X153838836Y-95863659D01*
X153970466Y-95648859D01*
X154066873Y-95416111D01*
X154125683Y-95171148D01*
X154145449Y-94920000D01*
X154125683Y-94668852D01*
X154066873Y-94423889D01*
X154008013Y-94281788D01*
X153970466Y-94191140D01*
X153838839Y-93976346D01*
X153838838Y-93976343D01*
X153801875Y-93933066D01*
X153675224Y-93784776D01*
X153497124Y-93632664D01*
X153483656Y-93621161D01*
X153483653Y-93621160D01*
X153268858Y-93489533D01*
X153268859Y-93489533D01*
X153217047Y-93468072D01*
X153162643Y-93424230D01*
X153140579Y-93357936D01*
X153140500Y-93353511D01*
X153140500Y-92490096D01*
X153160185Y-92423057D01*
X153176814Y-92402419D01*
X154274301Y-91304932D01*
X154335622Y-91271449D01*
X154375864Y-91269395D01*
X154474998Y-91280565D01*
X154475000Y-91280565D01*
X154475004Y-91280565D01*
X154654249Y-91260369D01*
X154654252Y-91260368D01*
X154654255Y-91260368D01*
X154824522Y-91200789D01*
X154977262Y-91104816D01*
X155104816Y-90977262D01*
X155200789Y-90824522D01*
X155260368Y-90654255D01*
X155260368Y-90654254D01*
X155262668Y-90647682D01*
X155265370Y-90648627D01*
X155293176Y-90598882D01*
X155354827Y-90566005D01*
X155424466Y-90571678D01*
X155467667Y-90599745D01*
X155472738Y-90604816D01*
X155625478Y-90700789D01*
X155795745Y-90760368D01*
X155882669Y-90770161D01*
X155947080Y-90797226D01*
X155956465Y-90805700D01*
X156888181Y-91737416D01*
X156921666Y-91798739D01*
X156924500Y-91825097D01*
X156924500Y-93250500D01*
X156904815Y-93317539D01*
X156852011Y-93363294D01*
X156800502Y-93374500D01*
X156727130Y-93374500D01*
X156727123Y-93374501D01*
X156667516Y-93380908D01*
X156532671Y-93431202D01*
X156532664Y-93431206D01*
X156417455Y-93517452D01*
X156417452Y-93517455D01*
X156331206Y-93632664D01*
X156331202Y-93632671D01*
X156280908Y-93767517D01*
X156274501Y-93827116D01*
X156274501Y-93827123D01*
X156274500Y-93827135D01*
X156274500Y-94822870D01*
X156274501Y-94822876D01*
X156280908Y-94882483D01*
X156331202Y-95017328D01*
X156331206Y-95017335D01*
X156417452Y-95132544D01*
X156417455Y-95132547D01*
X156532664Y-95218793D01*
X156536998Y-95221160D01*
X156586402Y-95270567D01*
X156601252Y-95338841D01*
X156576833Y-95404304D01*
X156565250Y-95417672D01*
X156510183Y-95472739D01*
X156414210Y-95625478D01*
X156354630Y-95795750D01*
X156344837Y-95882667D01*
X156317770Y-95947081D01*
X156309298Y-95956464D01*
X155106284Y-97159481D01*
X154994483Y-97271281D01*
X154994481Y-97271284D01*
X154915423Y-97408214D01*
X154915423Y-97408215D01*
X154874499Y-97560943D01*
X154874499Y-97560945D01*
X154874499Y-97719054D01*
X154874498Y-97719054D01*
X154874499Y-97719057D01*
X154915423Y-97871785D01*
X154994481Y-98008716D01*
X154994483Y-98008718D01*
X155643181Y-98657416D01*
X155676666Y-98718739D01*
X155679500Y-98745097D01*
X155679500Y-98867990D01*
X155659815Y-98935029D01*
X155607011Y-98980784D01*
X155537853Y-98990728D01*
X155507338Y-98981065D01*
X155506954Y-98981994D01*
X155502452Y-98980129D01*
X155423694Y-98954539D01*
X155337701Y-98926598D01*
X155337699Y-98926597D01*
X155337698Y-98926597D01*
X155206271Y-98905781D01*
X155166611Y-98899500D01*
X154993389Y-98899500D01*
X154953728Y-98905781D01*
X154822302Y-98926597D01*
X154657552Y-98980128D01*
X154503211Y-99058768D01*
X154423256Y-99116859D01*
X154363072Y-99160586D01*
X154363070Y-99160588D01*
X154363069Y-99160588D01*
X154240588Y-99283069D01*
X154240588Y-99283070D01*
X154240586Y-99283072D01*
X154236723Y-99288389D01*
X154138768Y-99423211D01*
X154060128Y-99577552D01*
X154006597Y-99742302D01*
X153997863Y-99797447D01*
X153979500Y-99913389D01*
X153979500Y-100086611D01*
X153984426Y-100117712D01*
X154003848Y-100240343D01*
X154006598Y-100257701D01*
X154025974Y-100317335D01*
X154060128Y-100422447D01*
X154090575Y-100482204D01*
X154138768Y-100576788D01*
X154240586Y-100716928D01*
X154363072Y-100839414D01*
X154503212Y-100941232D01*
X154657555Y-101019873D01*
X154822299Y-101073402D01*
X154993389Y-101100500D01*
X154993390Y-101100500D01*
X155166610Y-101100500D01*
X155166611Y-101100500D01*
X155337701Y-101073402D01*
X155502445Y-101019873D01*
X155502448Y-101019870D01*
X155502452Y-101019870D01*
X155506954Y-101018006D01*
X155507746Y-101019920D01*
X155567873Y-101008628D01*
X155632614Y-101034904D01*
X155672871Y-101092010D01*
X155679500Y-101132009D01*
X155679500Y-101369902D01*
X155659815Y-101436941D01*
X155643181Y-101457583D01*
X155456465Y-101644298D01*
X155395142Y-101677783D01*
X155382668Y-101679837D01*
X155295750Y-101689630D01*
X155125478Y-101749210D01*
X154972737Y-101845184D01*
X154845184Y-101972737D01*
X154749211Y-102125476D01*
X154689631Y-102295745D01*
X154689630Y-102295750D01*
X154669435Y-102474996D01*
X154669435Y-102475003D01*
X154689630Y-102654249D01*
X154689631Y-102654254D01*
X154749211Y-102824523D01*
X154789341Y-102888389D01*
X154845184Y-102977262D01*
X154972738Y-103104816D01*
X155125478Y-103200789D01*
X155295745Y-103260368D01*
X155295750Y-103260369D01*
X155474996Y-103280565D01*
X155475000Y-103280565D01*
X155475004Y-103280565D01*
X155654249Y-103260369D01*
X155654252Y-103260368D01*
X155654255Y-103260368D01*
X155824522Y-103200789D01*
X155977262Y-103104816D01*
X156104816Y-102977262D01*
X156200789Y-102824522D01*
X156260368Y-102654255D01*
X156270161Y-102567329D01*
X156297226Y-102502918D01*
X156305690Y-102493543D01*
X156638506Y-102160728D01*
X156638511Y-102160724D01*
X156648714Y-102150520D01*
X156648716Y-102150520D01*
X156760520Y-102038716D01*
X156835105Y-101909530D01*
X156839577Y-101901785D01*
X156880501Y-101749057D01*
X156880501Y-101590943D01*
X156880501Y-101583348D01*
X156880500Y-101583330D01*
X156880500Y-98699000D01*
X156900185Y-98631961D01*
X156952989Y-98586206D01*
X157004500Y-98575000D01*
X157275000Y-98575000D01*
X157775000Y-98575000D01*
X158322828Y-98575000D01*
X158322844Y-98574999D01*
X158382372Y-98568598D01*
X158382379Y-98568596D01*
X158517086Y-98518354D01*
X158517093Y-98518350D01*
X158632187Y-98432190D01*
X158632190Y-98432187D01*
X158718350Y-98317093D01*
X158718354Y-98317086D01*
X158768596Y-98182379D01*
X158768598Y-98182372D01*
X158774999Y-98122844D01*
X158775000Y-98122827D01*
X158775000Y-97875000D01*
X157775000Y-97875000D01*
X157775000Y-98575000D01*
X157275000Y-98575000D01*
X157275000Y-97499000D01*
X157294685Y-97431961D01*
X157347489Y-97386206D01*
X157399000Y-97375000D01*
X158775000Y-97375000D01*
X158775000Y-97127172D01*
X158774999Y-97127155D01*
X158768598Y-97067627D01*
X158768596Y-97067620D01*
X158718354Y-96932913D01*
X158718350Y-96932906D01*
X158632190Y-96817812D01*
X158632187Y-96817809D01*
X158517093Y-96731649D01*
X158517086Y-96731645D01*
X158382379Y-96681403D01*
X158382372Y-96681401D01*
X158322844Y-96675000D01*
X157869614Y-96675000D01*
X157802575Y-96655315D01*
X157756820Y-96602511D01*
X157746876Y-96533353D01*
X157768045Y-96484373D01*
X157766111Y-96483158D01*
X157790414Y-96444480D01*
X157865789Y-96324522D01*
X157925368Y-96154255D01*
X157925369Y-96154249D01*
X157945565Y-95975003D01*
X157945565Y-95974996D01*
X157925369Y-95795750D01*
X157925368Y-95795745D01*
X157865788Y-95625476D01*
X157799158Y-95519435D01*
X157769816Y-95472738D01*
X157769815Y-95472737D01*
X157766111Y-95466842D01*
X157768402Y-95465401D01*
X157746655Y-95412107D01*
X157759421Y-95343413D01*
X157807299Y-95292527D01*
X157870012Y-95275499D01*
X158322871Y-95275499D01*
X158322872Y-95275499D01*
X158382483Y-95269091D01*
X158517331Y-95218796D01*
X158632546Y-95132546D01*
X158718796Y-95017331D01*
X158769091Y-94882483D01*
X158775500Y-94822873D01*
X158775499Y-93827128D01*
X158769091Y-93767517D01*
X158718796Y-93632669D01*
X158718795Y-93632668D01*
X158718793Y-93632664D01*
X158632547Y-93517455D01*
X158632544Y-93517452D01*
X158517335Y-93431206D01*
X158517328Y-93431202D01*
X158382482Y-93380908D01*
X158382483Y-93380908D01*
X158322883Y-93374501D01*
X158322881Y-93374500D01*
X158322873Y-93374500D01*
X158322865Y-93374500D01*
X158249500Y-93374500D01*
X158182461Y-93354815D01*
X158136706Y-93302011D01*
X158125500Y-93250500D01*
X158125500Y-91614059D01*
X158125501Y-91614046D01*
X158125501Y-91445945D01*
X158125501Y-91445943D01*
X158084577Y-91293215D01*
X158055639Y-91243095D01*
X158005520Y-91156284D01*
X157893716Y-91044480D01*
X157893715Y-91044479D01*
X157889385Y-91040149D01*
X157889374Y-91040139D01*
X156805700Y-89956465D01*
X156772215Y-89895142D01*
X156770163Y-89882686D01*
X156760368Y-89795745D01*
X156700789Y-89625478D01*
X156604816Y-89472738D01*
X156477262Y-89345184D01*
X156395619Y-89293884D01*
X156324523Y-89249211D01*
X156154254Y-89189631D01*
X156154250Y-89189630D01*
X156063739Y-89179432D01*
X155999325Y-89152365D01*
X155959770Y-89094770D01*
X155957633Y-89024933D01*
X155989942Y-88968531D01*
X156008828Y-88949646D01*
X156124524Y-88790405D01*
X156213884Y-88615025D01*
X156274709Y-88427826D01*
X156281413Y-88385500D01*
X156305500Y-88233422D01*
X156305500Y-87869267D01*
X156325185Y-87802228D01*
X156377989Y-87756473D01*
X156447147Y-87746529D01*
X156510703Y-87775554D01*
X156529817Y-87796380D01*
X156641172Y-87949646D01*
X156780354Y-88088828D01*
X156939595Y-88204524D01*
X156996301Y-88233417D01*
X157114970Y-88293882D01*
X157114972Y-88293882D01*
X157114975Y-88293884D01*
X157215317Y-88326487D01*
X157302173Y-88354709D01*
X157496578Y-88385500D01*
X157496583Y-88385500D01*
X158693422Y-88385500D01*
X158887826Y-88354709D01*
X158897244Y-88351649D01*
X159075025Y-88293884D01*
X159250405Y-88204524D01*
X159409646Y-88088828D01*
X159548828Y-87949646D01*
X159664524Y-87790405D01*
X159753884Y-87615025D01*
X159814709Y-87427826D01*
X159845500Y-87233422D01*
X159845500Y-87036577D01*
X159814709Y-86842173D01*
X159753882Y-86654970D01*
X159693412Y-86536292D01*
X159664524Y-86479595D01*
X159661547Y-86475498D01*
X159637490Y-86442385D01*
X159614010Y-86376579D01*
X159629835Y-86308525D01*
X159679941Y-86259830D01*
X159737808Y-86245500D01*
X161218331Y-86245500D01*
X161218347Y-86245501D01*
X161225943Y-86245501D01*
X161384054Y-86245501D01*
X161384057Y-86245501D01*
X161536785Y-86204577D01*
X161591566Y-86172949D01*
X161673716Y-86125520D01*
X161749435Y-86049800D01*
X161810754Y-86016318D01*
X161880446Y-86021302D01*
X161928340Y-86053499D01*
X161955256Y-86082738D01*
X162151491Y-86235474D01*
X162370190Y-86353828D01*
X162605386Y-86434571D01*
X162673758Y-86445979D01*
X162686171Y-86448051D01*
X162749057Y-86478501D01*
X162753444Y-86482679D01*
X170507707Y-94236942D01*
X170541192Y-94298265D01*
X170536208Y-94367957D01*
X170534588Y-94372073D01*
X170513127Y-94423886D01*
X170513127Y-94423887D01*
X170454317Y-94668848D01*
X170434551Y-94920000D01*
X170454317Y-95171151D01*
X170513126Y-95416110D01*
X170609533Y-95648859D01*
X170741160Y-95863653D01*
X170741161Y-95863656D01*
X170757398Y-95882667D01*
X170904776Y-96055224D01*
X171028811Y-96161160D01*
X171096343Y-96218838D01*
X171096346Y-96218839D01*
X171269577Y-96324996D01*
X171311141Y-96350466D01*
X171362953Y-96371927D01*
X171417355Y-96415765D01*
X171439421Y-96482059D01*
X171439500Y-96486487D01*
X171439500Y-98465461D01*
X171419815Y-98532500D01*
X171367011Y-98578255D01*
X171297853Y-98588199D01*
X171234297Y-98559174D01*
X171217125Y-98540949D01*
X171195644Y-98512955D01*
X170987047Y-98304358D01*
X170987040Y-98304352D01*
X170752993Y-98124761D01*
X170497510Y-97977258D01*
X170497500Y-97977254D01*
X170224961Y-97864364D01*
X170224954Y-97864362D01*
X170224952Y-97864361D01*
X169939993Y-97788007D01*
X169891113Y-97781571D01*
X169647513Y-97749500D01*
X169647506Y-97749500D01*
X169352494Y-97749500D01*
X169352486Y-97749500D01*
X169074085Y-97786153D01*
X169060007Y-97788007D01*
X168775048Y-97864361D01*
X168775038Y-97864364D01*
X168502499Y-97977254D01*
X168502489Y-97977258D01*
X168247006Y-98124761D01*
X168012959Y-98304352D01*
X168012952Y-98304358D01*
X167804358Y-98512952D01*
X167804352Y-98512959D01*
X167624761Y-98747006D01*
X167477258Y-99002489D01*
X167477254Y-99002499D01*
X167364364Y-99275038D01*
X167364361Y-99275048D01*
X167288008Y-99560004D01*
X167288006Y-99560015D01*
X167249500Y-99852486D01*
X167249500Y-100147513D01*
X167281571Y-100391113D01*
X167288007Y-100439993D01*
X167362212Y-100716930D01*
X167364361Y-100724951D01*
X167364364Y-100724961D01*
X167477254Y-100997500D01*
X167477258Y-100997510D01*
X167624761Y-101252993D01*
X167804352Y-101487040D01*
X167804358Y-101487047D01*
X168012952Y-101695641D01*
X168012959Y-101695647D01*
X168247006Y-101875238D01*
X168502489Y-102022741D01*
X168502490Y-102022741D01*
X168502493Y-102022743D01*
X168713296Y-102110060D01*
X168735015Y-102119057D01*
X168775048Y-102135639D01*
X169060007Y-102211993D01*
X169352494Y-102250500D01*
X169352501Y-102250500D01*
X169647499Y-102250500D01*
X169647506Y-102250500D01*
X169939993Y-102211993D01*
X170224952Y-102135639D01*
X170497507Y-102022743D01*
X170752994Y-101875238D01*
X170987042Y-101695646D01*
X171195646Y-101487042D01*
X171217124Y-101459052D01*
X171273552Y-101417849D01*
X171343298Y-101413694D01*
X171404218Y-101447906D01*
X171436971Y-101509624D01*
X171439500Y-101534538D01*
X171439500Y-112853511D01*
X171419815Y-112920550D01*
X171367011Y-112966305D01*
X171362953Y-112968072D01*
X171311140Y-112989533D01*
X171096346Y-113121160D01*
X171096343Y-113121161D01*
X170904776Y-113284776D01*
X170741161Y-113476343D01*
X170741160Y-113476346D01*
X170609533Y-113691140D01*
X170513126Y-113923889D01*
X170454317Y-114168848D01*
X170434551Y-114420000D01*
X170454317Y-114671151D01*
X170513126Y-114916110D01*
X170609533Y-115148859D01*
X170741160Y-115363653D01*
X170741161Y-115363656D01*
X170783033Y-115412681D01*
X170904776Y-115555224D01*
X171028811Y-115661160D01*
X171096343Y-115718838D01*
X171096346Y-115718839D01*
X171311140Y-115850466D01*
X171492290Y-115925500D01*
X171543889Y-115946873D01*
X171788852Y-116005683D01*
X172040000Y-116025449D01*
X172291148Y-116005683D01*
X172536111Y-115946873D01*
X172768859Y-115850466D01*
X172983659Y-115718836D01*
X173175224Y-115555224D01*
X173338836Y-115363659D01*
X173470466Y-115148859D01*
X173566873Y-114916111D01*
X173625683Y-114671148D01*
X173645449Y-114420000D01*
X173625683Y-114168852D01*
X173566873Y-113923889D01*
X173533846Y-113844154D01*
X173470466Y-113691140D01*
X173338839Y-113476346D01*
X173338838Y-113476343D01*
X173301875Y-113433066D01*
X173175224Y-113284776D01*
X173048571Y-113176604D01*
X172983656Y-113121161D01*
X172983653Y-113121160D01*
X172768858Y-112989533D01*
X172768859Y-112989533D01*
X172717047Y-112968072D01*
X172662643Y-112924230D01*
X172640579Y-112857936D01*
X172640500Y-112853511D01*
X172640500Y-99913389D01*
X173479500Y-99913389D01*
X173479500Y-100086611D01*
X173484426Y-100117712D01*
X173503848Y-100240343D01*
X173506598Y-100257701D01*
X173525974Y-100317335D01*
X173560128Y-100422447D01*
X173590575Y-100482204D01*
X173638768Y-100576788D01*
X173740586Y-100716928D01*
X173863072Y-100839414D01*
X174003212Y-100941232D01*
X174157555Y-101019873D01*
X174322299Y-101073402D01*
X174493389Y-101100500D01*
X174493390Y-101100500D01*
X174666610Y-101100500D01*
X174666611Y-101100500D01*
X174837701Y-101073402D01*
X175002445Y-101019873D01*
X175156788Y-100941232D01*
X175296928Y-100839414D01*
X175419414Y-100716928D01*
X175521232Y-100576788D01*
X175599873Y-100422445D01*
X175653402Y-100257701D01*
X175680500Y-100086611D01*
X175680500Y-99913389D01*
X175653402Y-99742299D01*
X175599873Y-99577555D01*
X175521232Y-99423212D01*
X175419414Y-99283072D01*
X175296928Y-99160586D01*
X175156788Y-99058768D01*
X175002445Y-98980127D01*
X174837701Y-98926598D01*
X174837699Y-98926597D01*
X174837698Y-98926597D01*
X174706271Y-98905781D01*
X174666611Y-98899500D01*
X174493389Y-98899500D01*
X174453728Y-98905781D01*
X174322302Y-98926597D01*
X174157552Y-98980128D01*
X174003211Y-99058768D01*
X173923256Y-99116859D01*
X173863072Y-99160586D01*
X173863070Y-99160588D01*
X173863069Y-99160588D01*
X173740588Y-99283069D01*
X173740588Y-99283070D01*
X173740586Y-99283072D01*
X173736723Y-99288389D01*
X173638768Y-99423211D01*
X173560128Y-99577552D01*
X173506597Y-99742302D01*
X173497863Y-99797447D01*
X173479500Y-99913389D01*
X172640500Y-99913389D01*
X172640500Y-96486487D01*
X172660185Y-96419448D01*
X172712989Y-96373693D01*
X172717002Y-96371945D01*
X172768859Y-96350466D01*
X172983659Y-96218836D01*
X173175224Y-96055224D01*
X173338836Y-95863659D01*
X173470466Y-95648859D01*
X173566873Y-95416111D01*
X173625683Y-95171148D01*
X173645449Y-94920000D01*
X173625683Y-94668852D01*
X173566873Y-94423889D01*
X173508013Y-94281788D01*
X173470466Y-94191140D01*
X173338839Y-93976346D01*
X173338838Y-93976343D01*
X173301875Y-93933066D01*
X173175224Y-93784776D01*
X172997124Y-93632664D01*
X172983656Y-93621161D01*
X172983653Y-93621160D01*
X172768859Y-93489533D01*
X172536110Y-93393126D01*
X172291151Y-93334317D01*
X172040000Y-93314551D01*
X171788848Y-93334317D01*
X171543887Y-93393127D01*
X171543886Y-93393127D01*
X171492073Y-93414588D01*
X171422604Y-93422055D01*
X171360125Y-93390779D01*
X171356942Y-93387707D01*
X166044235Y-88075000D01*
X167869592Y-88075000D01*
X167889201Y-88361680D01*
X167947666Y-88643034D01*
X167947667Y-88643037D01*
X168043894Y-88913793D01*
X168043893Y-88913793D01*
X168176098Y-89168935D01*
X168341812Y-89403700D01*
X168406289Y-89472737D01*
X168537947Y-89613708D01*
X168760853Y-89795055D01*
X168925438Y-89895142D01*
X169006382Y-89944365D01*
X169193237Y-90025526D01*
X169269942Y-90058844D01*
X169546642Y-90136371D01*
X169796920Y-90170771D01*
X169831321Y-90175500D01*
X169831322Y-90175500D01*
X170118679Y-90175500D01*
X170149370Y-90171281D01*
X170403358Y-90136371D01*
X170680058Y-90058844D01*
X170873087Y-89975000D01*
X170943617Y-89944365D01*
X170943620Y-89944363D01*
X170943625Y-89944361D01*
X171189147Y-89795055D01*
X171412053Y-89613708D01*
X171608189Y-89403698D01*
X171773901Y-89168936D01*
X171906104Y-88913797D01*
X172002334Y-88643032D01*
X172060798Y-88361686D01*
X172080408Y-88075000D01*
X172060798Y-87788314D01*
X172002334Y-87506968D01*
X171906105Y-87236206D01*
X171906106Y-87236206D01*
X171773901Y-86981064D01*
X171608187Y-86746299D01*
X171522891Y-86654970D01*
X171412053Y-86536292D01*
X171189147Y-86354945D01*
X171189146Y-86354944D01*
X170943617Y-86205634D01*
X170680063Y-86091158D01*
X170680061Y-86091157D01*
X170680058Y-86091156D01*
X170532466Y-86049803D01*
X170403364Y-86013630D01*
X170403359Y-86013629D01*
X170403358Y-86013629D01*
X170261018Y-85994064D01*
X170118679Y-85974500D01*
X170118678Y-85974500D01*
X169831322Y-85974500D01*
X169831321Y-85974500D01*
X169546642Y-86013629D01*
X169546635Y-86013630D01*
X169361603Y-86065474D01*
X169269942Y-86091156D01*
X169269939Y-86091156D01*
X169269936Y-86091158D01*
X169269935Y-86091158D01*
X169006382Y-86205634D01*
X168760853Y-86354944D01*
X168537950Y-86536289D01*
X168341812Y-86746299D01*
X168176098Y-86981064D01*
X168043894Y-87236206D01*
X167947667Y-87506962D01*
X167947666Y-87506965D01*
X167889201Y-87788319D01*
X167869592Y-88075000D01*
X166044235Y-88075000D01*
X164106304Y-86137069D01*
X164072819Y-86075746D01*
X164077803Y-86006054D01*
X164102754Y-85965406D01*
X164163164Y-85899785D01*
X164299173Y-85691607D01*
X164399063Y-85463881D01*
X164460108Y-85222821D01*
X164460169Y-85222087D01*
X164480643Y-84975005D01*
X164480643Y-84974994D01*
X164460109Y-84727187D01*
X164460107Y-84727175D01*
X164399063Y-84486118D01*
X164299173Y-84258393D01*
X164163166Y-84050217D01*
X164141557Y-84026744D01*
X163994744Y-83867262D01*
X163798509Y-83714526D01*
X163798507Y-83714525D01*
X163798506Y-83714524D01*
X163579811Y-83596172D01*
X163579802Y-83596169D01*
X163344616Y-83515429D01*
X163099335Y-83474500D01*
X162850665Y-83474500D01*
X162605383Y-83515429D01*
X162370197Y-83596169D01*
X162370188Y-83596172D01*
X162151493Y-83714524D01*
X161955257Y-83867261D01*
X161786833Y-84050217D01*
X161650826Y-84258393D01*
X161550939Y-84486112D01*
X161550936Y-84486120D01*
X161537713Y-84538336D01*
X161505193Y-84595570D01*
X161494485Y-84606278D01*
X161494480Y-84606284D01*
X161494478Y-84606286D01*
X161280555Y-84820210D01*
X161092584Y-85008181D01*
X161031261Y-85041666D01*
X161004903Y-85044500D01*
X159934388Y-85044500D01*
X159867349Y-85024815D01*
X159821594Y-84972011D01*
X159811650Y-84902853D01*
X159813814Y-84891553D01*
X159814704Y-84887840D01*
X159814709Y-84887826D01*
X159840037Y-84727912D01*
X159845500Y-84693422D01*
X159845500Y-84496577D01*
X159814709Y-84302173D01*
X159784791Y-84210096D01*
X159753884Y-84114975D01*
X159753882Y-84114972D01*
X159753882Y-84114970D01*
X159694822Y-83999059D01*
X159664524Y-83939595D01*
X159548828Y-83780354D01*
X159409646Y-83641172D01*
X159330025Y-83583324D01*
X159250403Y-83525474D01*
X159073787Y-83435485D01*
X159022990Y-83387511D01*
X159006195Y-83319690D01*
X159028732Y-83253555D01*
X159073787Y-83214515D01*
X159250403Y-83124525D01*
X159250402Y-83124525D01*
X159250405Y-83124524D01*
X159409646Y-83008828D01*
X159548828Y-82869646D01*
X159664524Y-82710405D01*
X159753884Y-82535025D01*
X159814709Y-82347826D01*
X159833803Y-82227270D01*
X159845500Y-82153422D01*
X159845500Y-81956577D01*
X159814709Y-81762173D01*
X159753882Y-81574970D01*
X159699934Y-81469091D01*
X159664524Y-81399595D01*
X159548828Y-81240354D01*
X159409646Y-81101172D01*
X159301891Y-81022883D01*
X159250403Y-80985474D01*
X159073787Y-80895485D01*
X159022990Y-80847511D01*
X159006195Y-80779690D01*
X159028732Y-80713555D01*
X159073787Y-80674515D01*
X159250403Y-80584525D01*
X159250402Y-80584525D01*
X159250405Y-80584524D01*
X159409646Y-80468828D01*
X159548828Y-80329646D01*
X159664524Y-80170405D01*
X159753884Y-79995025D01*
X159760393Y-79974994D01*
X161469357Y-79974994D01*
X161469357Y-79975005D01*
X161489890Y-80222812D01*
X161489892Y-80222824D01*
X161550936Y-80463881D01*
X161650826Y-80691606D01*
X161786833Y-80899782D01*
X161786836Y-80899785D01*
X161955256Y-81082738D01*
X162151491Y-81235474D01*
X162370190Y-81353828D01*
X162605386Y-81434571D01*
X162850665Y-81475500D01*
X163099335Y-81475500D01*
X163344614Y-81434571D01*
X163579810Y-81353828D01*
X163798509Y-81235474D01*
X163994744Y-81082738D01*
X164163164Y-80899785D01*
X164299173Y-80691607D01*
X164399063Y-80463881D01*
X164460108Y-80222821D01*
X164460169Y-80222087D01*
X164480643Y-79975005D01*
X164480643Y-79974994D01*
X175969357Y-79974994D01*
X175969357Y-79975005D01*
X175989890Y-80222812D01*
X175989892Y-80222824D01*
X176050936Y-80463881D01*
X176150826Y-80691606D01*
X176286833Y-80899782D01*
X176286836Y-80899785D01*
X176455256Y-81082738D01*
X176455259Y-81082740D01*
X176455262Y-81082743D01*
X176556374Y-81161442D01*
X176597187Y-81218152D01*
X176601300Y-81247748D01*
X177345590Y-81992037D01*
X177282007Y-82009075D01*
X177167993Y-82074901D01*
X177074901Y-82167993D01*
X177009075Y-82282007D01*
X176992037Y-82345590D01*
X176251564Y-81605116D01*
X176151267Y-81758632D01*
X176051412Y-81986282D01*
X175990387Y-82227261D01*
X175990385Y-82227270D01*
X175969859Y-82474994D01*
X175969859Y-82475005D01*
X175990385Y-82722729D01*
X175990387Y-82722738D01*
X176051412Y-82963717D01*
X176151267Y-83191367D01*
X176263484Y-83363129D01*
X176283672Y-83430018D01*
X176264491Y-83497204D01*
X176233987Y-83530216D01*
X176117452Y-83617455D01*
X176031206Y-83732664D01*
X176031202Y-83732671D01*
X175980908Y-83867517D01*
X175974501Y-83927116D01*
X175974501Y-83927123D01*
X175974500Y-83927135D01*
X175974500Y-86022870D01*
X175974501Y-86022876D01*
X175980908Y-86082483D01*
X176031202Y-86217328D01*
X176031206Y-86217335D01*
X176117452Y-86332544D01*
X176117455Y-86332547D01*
X176232664Y-86418793D01*
X176232671Y-86418797D01*
X176367517Y-86469091D01*
X176367516Y-86469091D01*
X176374444Y-86469835D01*
X176427127Y-86475500D01*
X178522872Y-86475499D01*
X178582483Y-86469091D01*
X178717331Y-86418796D01*
X178832546Y-86332546D01*
X178918796Y-86217331D01*
X178969091Y-86082483D01*
X178975500Y-86022873D01*
X178975499Y-83927128D01*
X178969091Y-83867517D01*
X178968995Y-83867260D01*
X178918797Y-83732671D01*
X178918793Y-83732664D01*
X178832547Y-83617456D01*
X178832548Y-83617456D01*
X178832546Y-83617454D01*
X178717331Y-83531204D01*
X178717329Y-83531203D01*
X178716012Y-83530217D01*
X178674141Y-83474283D01*
X178669157Y-83404591D01*
X178686515Y-83363128D01*
X178798731Y-83191369D01*
X178898587Y-82963717D01*
X178959612Y-82722738D01*
X178959614Y-82722729D01*
X178980141Y-82475005D01*
X178980141Y-82474994D01*
X178959614Y-82227270D01*
X178959612Y-82227261D01*
X178898587Y-81986282D01*
X178798731Y-81758630D01*
X178698434Y-81605116D01*
X177957962Y-82345588D01*
X177940925Y-82282007D01*
X177875099Y-82167993D01*
X177782007Y-82074901D01*
X177667993Y-82009075D01*
X177604410Y-81992037D01*
X178350898Y-81245548D01*
X178361515Y-81198852D01*
X178393621Y-81161444D01*
X178494744Y-81082738D01*
X178663164Y-80899785D01*
X178799173Y-80691607D01*
X178899063Y-80463881D01*
X178960108Y-80222821D01*
X178960169Y-80222087D01*
X178980643Y-79975005D01*
X178980643Y-79974994D01*
X178960109Y-79727187D01*
X178960107Y-79727175D01*
X178899063Y-79486118D01*
X178799173Y-79258393D01*
X178663166Y-79050217D01*
X178558361Y-78936369D01*
X178494744Y-78867262D01*
X178298509Y-78714526D01*
X178298507Y-78714525D01*
X178298506Y-78714524D01*
X178079811Y-78596172D01*
X178079802Y-78596169D01*
X177844616Y-78515429D01*
X177599335Y-78474500D01*
X177350665Y-78474500D01*
X177105383Y-78515429D01*
X176870197Y-78596169D01*
X176870188Y-78596172D01*
X176651493Y-78714524D01*
X176455257Y-78867261D01*
X176286833Y-79050217D01*
X176150826Y-79258393D01*
X176050936Y-79486118D01*
X175989892Y-79727175D01*
X175989890Y-79727187D01*
X175969357Y-79974994D01*
X164480643Y-79974994D01*
X164460109Y-79727187D01*
X164460107Y-79727175D01*
X164399063Y-79486118D01*
X164299173Y-79258393D01*
X164163166Y-79050217D01*
X164058361Y-78936369D01*
X163994744Y-78867262D01*
X163798509Y-78714526D01*
X163798507Y-78714525D01*
X163798506Y-78714524D01*
X163579811Y-78596172D01*
X163579802Y-78596169D01*
X163344616Y-78515429D01*
X163099335Y-78474500D01*
X162850665Y-78474500D01*
X162605383Y-78515429D01*
X162370197Y-78596169D01*
X162370188Y-78596172D01*
X162151493Y-78714524D01*
X161955257Y-78867261D01*
X161786833Y-79050217D01*
X161650826Y-79258393D01*
X161550936Y-79486118D01*
X161489892Y-79727175D01*
X161489890Y-79727187D01*
X161469357Y-79974994D01*
X159760393Y-79974994D01*
X159814709Y-79807826D01*
X159817345Y-79791185D01*
X159845500Y-79613422D01*
X159845500Y-79416577D01*
X159814709Y-79222173D01*
X159758836Y-79050217D01*
X159753884Y-79034975D01*
X159753882Y-79034972D01*
X159753882Y-79034970D01*
X159698934Y-78927129D01*
X159664524Y-78859595D01*
X159548828Y-78700354D01*
X159409646Y-78561172D01*
X159299173Y-78480908D01*
X159250403Y-78445474D01*
X159073787Y-78355485D01*
X159022990Y-78307511D01*
X159006195Y-78239690D01*
X159028732Y-78173555D01*
X159073787Y-78134515D01*
X159250403Y-78044525D01*
X159250402Y-78044525D01*
X159250405Y-78044524D01*
X159409646Y-77928828D01*
X159548828Y-77789646D01*
X159664524Y-77630405D01*
X159753884Y-77455025D01*
X159814709Y-77267826D01*
X159831521Y-77161680D01*
X159845500Y-77073422D01*
X159845500Y-76876577D01*
X159845250Y-76875000D01*
X167869592Y-76875000D01*
X167889201Y-77161680D01*
X167947666Y-77443034D01*
X167947667Y-77443037D01*
X168043894Y-77713793D01*
X168043893Y-77713793D01*
X168176098Y-77968935D01*
X168341812Y-78203700D01*
X168398596Y-78264500D01*
X168537947Y-78413708D01*
X168760853Y-78595055D01*
X168987148Y-78732669D01*
X169006382Y-78744365D01*
X169193237Y-78825526D01*
X169269942Y-78858844D01*
X169546642Y-78936371D01*
X169796920Y-78970771D01*
X169831321Y-78975500D01*
X169831322Y-78975500D01*
X170118679Y-78975500D01*
X170149370Y-78971281D01*
X170403358Y-78936371D01*
X170680058Y-78858844D01*
X170793015Y-78809779D01*
X170943617Y-78744365D01*
X170943620Y-78744363D01*
X170943625Y-78744361D01*
X171189147Y-78595055D01*
X171412053Y-78413708D01*
X171608189Y-78203698D01*
X171773901Y-77968936D01*
X171906104Y-77713797D01*
X172002334Y-77443032D01*
X172060798Y-77161686D01*
X172080408Y-76875000D01*
X172060798Y-76588314D01*
X172002334Y-76306968D01*
X171906105Y-76036206D01*
X171906106Y-76036206D01*
X171773901Y-75781064D01*
X171608187Y-75546299D01*
X171461115Y-75388825D01*
X171412053Y-75336292D01*
X171189147Y-75154945D01*
X171189146Y-75154944D01*
X170943617Y-75005634D01*
X170680063Y-74891158D01*
X170680061Y-74891157D01*
X170680058Y-74891156D01*
X170550578Y-74854877D01*
X170403364Y-74813630D01*
X170403359Y-74813629D01*
X170403358Y-74813629D01*
X170261018Y-74794064D01*
X170118679Y-74774500D01*
X170118678Y-74774500D01*
X169831322Y-74774500D01*
X169831321Y-74774500D01*
X169546642Y-74813629D01*
X169546635Y-74813630D01*
X169338861Y-74871845D01*
X169269942Y-74891156D01*
X169269939Y-74891156D01*
X169269936Y-74891158D01*
X169269935Y-74891158D01*
X169006382Y-75005634D01*
X168760853Y-75154944D01*
X168537950Y-75336289D01*
X168341812Y-75546299D01*
X168176098Y-75781064D01*
X168043894Y-76036206D01*
X167947667Y-76306962D01*
X167947666Y-76306965D01*
X167889201Y-76588319D01*
X167869592Y-76875000D01*
X159845250Y-76875000D01*
X159814709Y-76682173D01*
X159753882Y-76494970D01*
X159664523Y-76319594D01*
X159655350Y-76306968D01*
X159548828Y-76160354D01*
X159409646Y-76021172D01*
X159330025Y-75963324D01*
X159250403Y-75905474D01*
X159073787Y-75815485D01*
X159022990Y-75767511D01*
X159006195Y-75699690D01*
X159028732Y-75633555D01*
X159073787Y-75594515D01*
X159250403Y-75504525D01*
X159250402Y-75504525D01*
X159250405Y-75504524D01*
X159409646Y-75388828D01*
X159548828Y-75249646D01*
X159664524Y-75090405D01*
X159753884Y-74915025D01*
X159814709Y-74727826D01*
X159845500Y-74533422D01*
X159845500Y-74336577D01*
X159814709Y-74142173D01*
X159753882Y-73954970D01*
X159664523Y-73779594D01*
X159548828Y-73620354D01*
X159409646Y-73481172D01*
X159330025Y-73423324D01*
X159250403Y-73365474D01*
X159073787Y-73275485D01*
X159022990Y-73227511D01*
X159006195Y-73159690D01*
X159028732Y-73093555D01*
X159073787Y-73054515D01*
X159250403Y-72964525D01*
X159250402Y-72964525D01*
X159250405Y-72964524D01*
X159409646Y-72848828D01*
X159548828Y-72709646D01*
X159664524Y-72550405D01*
X159753884Y-72375025D01*
X159814709Y-72187826D01*
X159845500Y-71993422D01*
X159845500Y-71796577D01*
X159814709Y-71602173D01*
X159753882Y-71414970D01*
X159704089Y-71317246D01*
X159664524Y-71239595D01*
X159548828Y-71080354D01*
X159409646Y-70941172D01*
X159325156Y-70879786D01*
X159250403Y-70825474D01*
X159073787Y-70735485D01*
X159022990Y-70687511D01*
X159006195Y-70619690D01*
X159028732Y-70553555D01*
X159073787Y-70514515D01*
X159250403Y-70424525D01*
X159250402Y-70424525D01*
X159250405Y-70424524D01*
X159409646Y-70308828D01*
X159548828Y-70169646D01*
X159664524Y-70010405D01*
X159723981Y-69893713D01*
X173649500Y-69893713D01*
X173649500Y-70106286D01*
X173681579Y-70308828D01*
X173682754Y-70316243D01*
X173747085Y-70514234D01*
X173748444Y-70518414D01*
X173844951Y-70707820D01*
X173969890Y-70879786D01*
X174120213Y-71030109D01*
X174292179Y-71155048D01*
X174292181Y-71155049D01*
X174292184Y-71155051D01*
X174481588Y-71251557D01*
X174683757Y-71317246D01*
X174893713Y-71350500D01*
X174893714Y-71350500D01*
X175106286Y-71350500D01*
X175106287Y-71350500D01*
X175316243Y-71317246D01*
X175518412Y-71251557D01*
X175707816Y-71155051D01*
X175729789Y-71139086D01*
X175879786Y-71030109D01*
X175879788Y-71030106D01*
X175879792Y-71030104D01*
X176030104Y-70879792D01*
X176030106Y-70879788D01*
X176030109Y-70879786D01*
X176155048Y-70707820D01*
X176155047Y-70707820D01*
X176155051Y-70707816D01*
X176251557Y-70518412D01*
X176317246Y-70316243D01*
X176350500Y-70106287D01*
X176350500Y-69893713D01*
X176317246Y-69683757D01*
X176251557Y-69481588D01*
X176155051Y-69292184D01*
X176155049Y-69292181D01*
X176155048Y-69292179D01*
X176030109Y-69120213D01*
X175879786Y-68969890D01*
X175707820Y-68844951D01*
X175518414Y-68748444D01*
X175518413Y-68748443D01*
X175518412Y-68748443D01*
X175316243Y-68682754D01*
X175316241Y-68682753D01*
X175316240Y-68682753D01*
X175154957Y-68657208D01*
X175106287Y-68649500D01*
X174893713Y-68649500D01*
X174845042Y-68657208D01*
X174683760Y-68682753D01*
X174481585Y-68748444D01*
X174292179Y-68844951D01*
X174120213Y-68969890D01*
X173969890Y-69120213D01*
X173844951Y-69292179D01*
X173748444Y-69481585D01*
X173682753Y-69683760D01*
X173649500Y-69893713D01*
X159723981Y-69893713D01*
X159753884Y-69835025D01*
X159814709Y-69647826D01*
X159832973Y-69532511D01*
X159845500Y-69453422D01*
X159845500Y-69256577D01*
X159814709Y-69062173D01*
X159758465Y-68889075D01*
X159753884Y-68874975D01*
X159753882Y-68874972D01*
X159753882Y-68874970D01*
X159706743Y-68782455D01*
X159664524Y-68699595D01*
X159548828Y-68540354D01*
X159409646Y-68401172D01*
X159330025Y-68343324D01*
X159250403Y-68285474D01*
X159073787Y-68195485D01*
X159022990Y-68147511D01*
X159006195Y-68079690D01*
X159028732Y-68013555D01*
X159073787Y-67974515D01*
X159250403Y-67884525D01*
X159250402Y-67884525D01*
X159250405Y-67884524D01*
X159409646Y-67768828D01*
X159548828Y-67629646D01*
X159664524Y-67470405D01*
X159753884Y-67295025D01*
X159814709Y-67107826D01*
X159831787Y-67000000D01*
X159845500Y-66913422D01*
X159845500Y-66716577D01*
X159814709Y-66522173D01*
X159753882Y-66334970D01*
X159706743Y-66242455D01*
X159664524Y-66159595D01*
X159548828Y-66000354D01*
X159409646Y-65861172D01*
X159250405Y-65745476D01*
X159075029Y-65656117D01*
X158887826Y-65595290D01*
X158693422Y-65564500D01*
X158693417Y-65564500D01*
X157496583Y-65564500D01*
X157496578Y-65564500D01*
X157302173Y-65595290D01*
X157114970Y-65656117D01*
X156939594Y-65745476D01*
X156848741Y-65811485D01*
X156780354Y-65861172D01*
X156780352Y-65861174D01*
X156780351Y-65861174D01*
X156641174Y-66000351D01*
X156641174Y-66000352D01*
X156641172Y-66000354D01*
X156625040Y-66022558D01*
X156525476Y-66159594D01*
X156436117Y-66334970D01*
X156375290Y-66522173D01*
X156344500Y-66716577D01*
X156344500Y-66913422D01*
X156375290Y-67107826D01*
X156436117Y-67295029D01*
X156525476Y-67470405D01*
X156641172Y-67629646D01*
X156780354Y-67768828D01*
X156939595Y-67884524D01*
X157062992Y-67947397D01*
X157116213Y-67974515D01*
X157167009Y-68022489D01*
X157183804Y-68090310D01*
X157161267Y-68156445D01*
X157116213Y-68195485D01*
X156939594Y-68285476D01*
X156848741Y-68351485D01*
X156780354Y-68401172D01*
X156780352Y-68401174D01*
X156780351Y-68401174D01*
X156641174Y-68540351D01*
X156641174Y-68540352D01*
X156641172Y-68540354D01*
X156640937Y-68540678D01*
X156525476Y-68699594D01*
X156436117Y-68874970D01*
X156375290Y-69062173D01*
X156344500Y-69256577D01*
X156344500Y-69453422D01*
X156375290Y-69647826D01*
X156436117Y-69835029D01*
X156525343Y-70010143D01*
X156525476Y-70010405D01*
X156641172Y-70169646D01*
X156780354Y-70308828D01*
X156939595Y-70424524D01*
X157062992Y-70487397D01*
X157116213Y-70514515D01*
X157167009Y-70562489D01*
X157183804Y-70630310D01*
X157161267Y-70696445D01*
X157116213Y-70735485D01*
X156939594Y-70825476D01*
X156864844Y-70879786D01*
X156780354Y-70941172D01*
X156780352Y-70941174D01*
X156780351Y-70941174D01*
X156641174Y-71080351D01*
X156641174Y-71080352D01*
X156641172Y-71080354D01*
X156591485Y-71148741D01*
X156525476Y-71239594D01*
X156436117Y-71414970D01*
X156375290Y-71602173D01*
X156344500Y-71796577D01*
X156344500Y-71993422D01*
X156375290Y-72187826D01*
X156436117Y-72375029D01*
X156525476Y-72550405D01*
X156641172Y-72709646D01*
X156780354Y-72848828D01*
X156939595Y-72964524D01*
X157062992Y-73027397D01*
X157116213Y-73054515D01*
X157167009Y-73102489D01*
X157183804Y-73170310D01*
X157161267Y-73236445D01*
X157116213Y-73275485D01*
X156939594Y-73365476D01*
X156848741Y-73431485D01*
X156780354Y-73481172D01*
X156780352Y-73481174D01*
X156780351Y-73481174D01*
X156641174Y-73620351D01*
X156641174Y-73620352D01*
X156641172Y-73620354D01*
X156591485Y-73688741D01*
X156525476Y-73779594D01*
X156436117Y-73954970D01*
X156375290Y-74142173D01*
X156344500Y-74336577D01*
X156344500Y-74533422D01*
X156375290Y-74727826D01*
X156436117Y-74915029D01*
X156525476Y-75090405D01*
X156641172Y-75249646D01*
X156780354Y-75388828D01*
X156939595Y-75504524D01*
X157062992Y-75567397D01*
X157116213Y-75594515D01*
X157167009Y-75642489D01*
X157183804Y-75710310D01*
X157161267Y-75776445D01*
X157116213Y-75815485D01*
X156939594Y-75905476D01*
X156848741Y-75971485D01*
X156780354Y-76021172D01*
X156780352Y-76021174D01*
X156780351Y-76021174D01*
X156641174Y-76160351D01*
X156641174Y-76160352D01*
X156641172Y-76160354D01*
X156591485Y-76228741D01*
X156525476Y-76319594D01*
X156436117Y-76494970D01*
X156375290Y-76682173D01*
X156344500Y-76876577D01*
X156344500Y-77073422D01*
X156375290Y-77267826D01*
X156436117Y-77455029D01*
X156525476Y-77630405D01*
X156641172Y-77789646D01*
X156780354Y-77928828D01*
X156939595Y-78044524D01*
X157062992Y-78107397D01*
X157116213Y-78134515D01*
X157167009Y-78182489D01*
X157183804Y-78250310D01*
X157161267Y-78316445D01*
X157116213Y-78355485D01*
X156939594Y-78445476D01*
X156848741Y-78511485D01*
X156780354Y-78561172D01*
X156780352Y-78561174D01*
X156780351Y-78561174D01*
X156641174Y-78700351D01*
X156641174Y-78700352D01*
X156641172Y-78700354D01*
X156617694Y-78732669D01*
X156525476Y-78859594D01*
X156436117Y-79034970D01*
X156375290Y-79222173D01*
X156344500Y-79416577D01*
X156344500Y-79613422D01*
X156375290Y-79807826D01*
X156436117Y-79995029D01*
X156505163Y-80130539D01*
X156525476Y-80170405D01*
X156641172Y-80329646D01*
X156780354Y-80468828D01*
X156939595Y-80584524D01*
X157062992Y-80647397D01*
X157116213Y-80674515D01*
X157167009Y-80722489D01*
X157183804Y-80790310D01*
X157161267Y-80856445D01*
X157116213Y-80895485D01*
X156939594Y-80985476D01*
X156888109Y-81022883D01*
X156780354Y-81101172D01*
X156780352Y-81101174D01*
X156780351Y-81101174D01*
X156641174Y-81240351D01*
X156641174Y-81240352D01*
X156641172Y-81240354D01*
X156635800Y-81247748D01*
X156525476Y-81399594D01*
X156436117Y-81574970D01*
X156375290Y-81762173D01*
X156344500Y-81956577D01*
X156344500Y-82153422D01*
X156375290Y-82347826D01*
X156436117Y-82535029D01*
X156503866Y-82667993D01*
X156525476Y-82710405D01*
X156641172Y-82869646D01*
X156780354Y-83008828D01*
X156939595Y-83124524D01*
X157062992Y-83187397D01*
X157116213Y-83214515D01*
X157167009Y-83262489D01*
X157183804Y-83330310D01*
X157161267Y-83396445D01*
X157116213Y-83435485D01*
X156939594Y-83525476D01*
X156848741Y-83591485D01*
X156780354Y-83641172D01*
X156780352Y-83641174D01*
X156780351Y-83641174D01*
X156641174Y-83780351D01*
X156641174Y-83780352D01*
X156641172Y-83780354D01*
X156635213Y-83788556D01*
X156525476Y-83939594D01*
X156436117Y-84114970D01*
X156375290Y-84302173D01*
X156344500Y-84496577D01*
X156344500Y-84693422D01*
X156375291Y-84887827D01*
X156389093Y-84930306D01*
X156391088Y-85000148D01*
X156355007Y-85059980D01*
X156318622Y-85083182D01*
X156313215Y-85085421D01*
X156263096Y-85114359D01*
X156263095Y-85114360D01*
X156235072Y-85130539D01*
X156176285Y-85164479D01*
X156176282Y-85164481D01*
X156064478Y-85276286D01*
X155459532Y-85881231D01*
X155398209Y-85914716D01*
X155352453Y-85916023D01*
X155153422Y-85884500D01*
X155153417Y-85884500D01*
X154956583Y-85884500D01*
X154956578Y-85884500D01*
X154762173Y-85915290D01*
X154574970Y-85976117D01*
X154399594Y-86065476D01*
X154316952Y-86125520D01*
X154240354Y-86181172D01*
X154240352Y-86181174D01*
X154240351Y-86181174D01*
X154101174Y-86320351D01*
X154101174Y-86320352D01*
X154101172Y-86320354D01*
X154076852Y-86353828D01*
X153985476Y-86479594D01*
X153895485Y-86656213D01*
X153847511Y-86707009D01*
X153779690Y-86723804D01*
X153713555Y-86701267D01*
X153674515Y-86656213D01*
X153584523Y-86479594D01*
X153583729Y-86478501D01*
X153468828Y-86320354D01*
X153329646Y-86181172D01*
X153170405Y-86065476D01*
X153139645Y-86049803D01*
X152995029Y-85976117D01*
X152807826Y-85915290D01*
X152613422Y-85884500D01*
X152613417Y-85884500D01*
X152416583Y-85884500D01*
X152416578Y-85884500D01*
X152222173Y-85915290D01*
X152034970Y-85976117D01*
X151859594Y-86065476D01*
X151776952Y-86125520D01*
X151700354Y-86181172D01*
X151700352Y-86181174D01*
X151700351Y-86181174D01*
X151561174Y-86320351D01*
X151561174Y-86320352D01*
X151561172Y-86320354D01*
X151536852Y-86353828D01*
X151445476Y-86479594D01*
X151355485Y-86656213D01*
X151307511Y-86707009D01*
X151239690Y-86723804D01*
X151173555Y-86701267D01*
X151134515Y-86656213D01*
X151044523Y-86479594D01*
X151043729Y-86478501D01*
X150928828Y-86320354D01*
X150789646Y-86181172D01*
X150630405Y-86065476D01*
X150599645Y-86049803D01*
X150455029Y-85976117D01*
X150267826Y-85915290D01*
X150073422Y-85884500D01*
X150073417Y-85884500D01*
X149876583Y-85884500D01*
X149876578Y-85884500D01*
X149682173Y-85915290D01*
X149494970Y-85976117D01*
X149319594Y-86065476D01*
X149236952Y-86125520D01*
X149160354Y-86181172D01*
X149160352Y-86181174D01*
X149160351Y-86181174D01*
X149021174Y-86320351D01*
X149021174Y-86320352D01*
X149021172Y-86320354D01*
X148996852Y-86353828D01*
X148905476Y-86479594D01*
X148815485Y-86656213D01*
X148767511Y-86707009D01*
X148699690Y-86723804D01*
X148633555Y-86701267D01*
X148594515Y-86656213D01*
X148504523Y-86479594D01*
X148503729Y-86478501D01*
X148388828Y-86320354D01*
X148249646Y-86181172D01*
X148090405Y-86065476D01*
X148059645Y-86049803D01*
X147915029Y-85976117D01*
X147727826Y-85915290D01*
X147533422Y-85884500D01*
X147533417Y-85884500D01*
X147336583Y-85884500D01*
X147336578Y-85884500D01*
X147142173Y-85915290D01*
X146954970Y-85976117D01*
X146779594Y-86065476D01*
X146696952Y-86125520D01*
X146620354Y-86181172D01*
X146620352Y-86181174D01*
X146620351Y-86181174D01*
X146481174Y-86320351D01*
X146481174Y-86320352D01*
X146481172Y-86320354D01*
X146456852Y-86353828D01*
X146365476Y-86479594D01*
X146275485Y-86656213D01*
X146227511Y-86707009D01*
X146159690Y-86723804D01*
X146093555Y-86701267D01*
X146054515Y-86656213D01*
X145964523Y-86479594D01*
X145963729Y-86478501D01*
X145848828Y-86320354D01*
X145709646Y-86181172D01*
X145550405Y-86065476D01*
X145519645Y-86049803D01*
X145375029Y-85976117D01*
X145187826Y-85915290D01*
X144993422Y-85884500D01*
X144993417Y-85884500D01*
X144796583Y-85884500D01*
X144796578Y-85884500D01*
X144602173Y-85915290D01*
X144414970Y-85976117D01*
X144239594Y-86065476D01*
X144156952Y-86125520D01*
X144080354Y-86181172D01*
X144080352Y-86181174D01*
X144080351Y-86181174D01*
X143941174Y-86320351D01*
X143941174Y-86320352D01*
X143941172Y-86320354D01*
X143916852Y-86353828D01*
X143825476Y-86479594D01*
X143735485Y-86656213D01*
X143687511Y-86707009D01*
X143619690Y-86723804D01*
X143553555Y-86701267D01*
X143514515Y-86656213D01*
X143424523Y-86479594D01*
X143423729Y-86478501D01*
X143308828Y-86320354D01*
X143169646Y-86181172D01*
X143045753Y-86091158D01*
X143010403Y-86065474D01*
X142833787Y-85975485D01*
X142782990Y-85927511D01*
X142766195Y-85859690D01*
X142788732Y-85793555D01*
X142833787Y-85754515D01*
X143010403Y-85664525D01*
X143010402Y-85664525D01*
X143010405Y-85664524D01*
X143169646Y-85548828D01*
X143308828Y-85409646D01*
X143424524Y-85250405D01*
X143513884Y-85075025D01*
X143574709Y-84887826D01*
X143586993Y-84810266D01*
X143605500Y-84693422D01*
X143605500Y-84496577D01*
X143574709Y-84302173D01*
X143544791Y-84210096D01*
X143513884Y-84114975D01*
X143513882Y-84114972D01*
X143513882Y-84114970D01*
X143454822Y-83999059D01*
X143424524Y-83939595D01*
X143308828Y-83780354D01*
X143169646Y-83641172D01*
X143090025Y-83583324D01*
X143010403Y-83525474D01*
X142833787Y-83435485D01*
X142782990Y-83387511D01*
X142766195Y-83319690D01*
X142788732Y-83253555D01*
X142833787Y-83214515D01*
X143010403Y-83124525D01*
X143010402Y-83124525D01*
X143010405Y-83124524D01*
X143169646Y-83008828D01*
X143308828Y-82869646D01*
X143424524Y-82710405D01*
X143513884Y-82535025D01*
X143574709Y-82347826D01*
X143593803Y-82227270D01*
X143605500Y-82153422D01*
X143605500Y-81956577D01*
X143574709Y-81762173D01*
X143513882Y-81574970D01*
X143459934Y-81469091D01*
X143424524Y-81399595D01*
X143308828Y-81240354D01*
X143169646Y-81101172D01*
X143061891Y-81022883D01*
X143010403Y-80985474D01*
X142833787Y-80895485D01*
X142782990Y-80847511D01*
X142766195Y-80779690D01*
X142788732Y-80713555D01*
X142833787Y-80674515D01*
X143010403Y-80584525D01*
X143010402Y-80584525D01*
X143010405Y-80584524D01*
X143169646Y-80468828D01*
X143308828Y-80329646D01*
X143424524Y-80170405D01*
X143513884Y-79995025D01*
X143574709Y-79807826D01*
X143577345Y-79791185D01*
X143605500Y-79613422D01*
X143605500Y-79416577D01*
X143574709Y-79222173D01*
X143518836Y-79050217D01*
X143513884Y-79034975D01*
X143513882Y-79034972D01*
X143513882Y-79034970D01*
X143458934Y-78927129D01*
X143424524Y-78859595D01*
X143308828Y-78700354D01*
X143169646Y-78561172D01*
X143059173Y-78480908D01*
X143010403Y-78445474D01*
X142833787Y-78355485D01*
X142782990Y-78307511D01*
X142766195Y-78239690D01*
X142788732Y-78173555D01*
X142833787Y-78134515D01*
X143010403Y-78044525D01*
X143010402Y-78044525D01*
X143010405Y-78044524D01*
X143169646Y-77928828D01*
X143308828Y-77789646D01*
X143424524Y-77630405D01*
X143513884Y-77455025D01*
X143574709Y-77267826D01*
X143591521Y-77161680D01*
X143605500Y-77073422D01*
X143605500Y-76876577D01*
X143574709Y-76682173D01*
X143513882Y-76494970D01*
X143424523Y-76319594D01*
X143415350Y-76306968D01*
X143308828Y-76160354D01*
X143169646Y-76021172D01*
X143090025Y-75963324D01*
X143010403Y-75905474D01*
X142833787Y-75815485D01*
X142782990Y-75767511D01*
X142766195Y-75699690D01*
X142788732Y-75633555D01*
X142833787Y-75594515D01*
X143010403Y-75504525D01*
X143010402Y-75504525D01*
X143010405Y-75504524D01*
X143169646Y-75388828D01*
X143308828Y-75249646D01*
X143424524Y-75090405D01*
X143513884Y-74915025D01*
X143574709Y-74727826D01*
X143605500Y-74533422D01*
X143605500Y-74336577D01*
X143574709Y-74142173D01*
X143513882Y-73954970D01*
X143424523Y-73779594D01*
X143308828Y-73620354D01*
X143169646Y-73481172D01*
X143090025Y-73423324D01*
X143010403Y-73365474D01*
X142833787Y-73275485D01*
X142782990Y-73227511D01*
X142766195Y-73159690D01*
X142788732Y-73093555D01*
X142833787Y-73054515D01*
X143010403Y-72964525D01*
X143010402Y-72964525D01*
X143010405Y-72964524D01*
X143169646Y-72848828D01*
X143308828Y-72709646D01*
X143424524Y-72550405D01*
X143513884Y-72375025D01*
X143574709Y-72187826D01*
X143605500Y-71993422D01*
X143605500Y-71796577D01*
X143574709Y-71602173D01*
X143513882Y-71414970D01*
X143464089Y-71317246D01*
X143424524Y-71239595D01*
X143308828Y-71080354D01*
X143169646Y-70941172D01*
X143010405Y-70825476D01*
X142835025Y-70736116D01*
X142835024Y-70736115D01*
X142833235Y-70735204D01*
X142782439Y-70687230D01*
X142765644Y-70619409D01*
X142788181Y-70553274D01*
X142833236Y-70514234D01*
X143010141Y-70424097D01*
X143169321Y-70308444D01*
X143308444Y-70169321D01*
X143424095Y-70010143D01*
X143513418Y-69834837D01*
X143574218Y-69647716D01*
X143580984Y-69605000D01*
X142788012Y-69605000D01*
X142820925Y-69547993D01*
X142855000Y-69420826D01*
X142855000Y-69289174D01*
X142820925Y-69162007D01*
X142788012Y-69105000D01*
X143580984Y-69105000D01*
X143574218Y-69062283D01*
X143513418Y-68875162D01*
X143424095Y-68699856D01*
X143308444Y-68540678D01*
X143169321Y-68401555D01*
X143010143Y-68285904D01*
X142833235Y-68195765D01*
X142782439Y-68147790D01*
X142765644Y-68079969D01*
X142788181Y-68013835D01*
X142833236Y-67974795D01*
X142835022Y-67973884D01*
X142835025Y-67973884D01*
X143010405Y-67884524D01*
X143169646Y-67768828D01*
X143308828Y-67629646D01*
X143424524Y-67470405D01*
X143513884Y-67295025D01*
X143574709Y-67107826D01*
X143591787Y-67000000D01*
X143605500Y-66913422D01*
X143605500Y-66716577D01*
X143574709Y-66522173D01*
X143513882Y-66334970D01*
X143466743Y-66242455D01*
X143424524Y-66159595D01*
X143308828Y-66000354D01*
X143169646Y-65861172D01*
X143010405Y-65745476D01*
X142835029Y-65656117D01*
X142647826Y-65595290D01*
X142453422Y-65564500D01*
X142453417Y-65564500D01*
X141256583Y-65564500D01*
X141256578Y-65564500D01*
X141062173Y-65595290D01*
X140874970Y-65656117D01*
X140699594Y-65745476D01*
X140608741Y-65811485D01*
X140540354Y-65861172D01*
X140540352Y-65861174D01*
X140540351Y-65861174D01*
X140401174Y-66000351D01*
X140401174Y-66000352D01*
X140401172Y-66000354D01*
X140385040Y-66022558D01*
X140285476Y-66159594D01*
X140196117Y-66334970D01*
X140135290Y-66522173D01*
X140104500Y-66716577D01*
X140104500Y-66805765D01*
X140084815Y-66872804D01*
X140068181Y-66893446D01*
X138965588Y-67996038D01*
X138965588Y-67996039D01*
X138965586Y-67996041D01*
X138937492Y-68034709D01*
X138863768Y-68136180D01*
X138785128Y-68290521D01*
X138731597Y-68455271D01*
X138704500Y-68626358D01*
X138704500Y-79697472D01*
X138684815Y-79764511D01*
X138632011Y-79810266D01*
X138562853Y-79820210D01*
X138499297Y-79791185D01*
X138461523Y-79732407D01*
X138460294Y-79727912D01*
X138399063Y-79486118D01*
X138299173Y-79258393D01*
X138163166Y-79050217D01*
X138058361Y-78936369D01*
X137994744Y-78867262D01*
X137798509Y-78714526D01*
X137798507Y-78714525D01*
X137798506Y-78714524D01*
X137579811Y-78596172D01*
X137579802Y-78596169D01*
X137344616Y-78515429D01*
X137099335Y-78474500D01*
X136850665Y-78474500D01*
X136605383Y-78515429D01*
X136370197Y-78596169D01*
X136370188Y-78596172D01*
X136151493Y-78714524D01*
X135955257Y-78867261D01*
X135786833Y-79050217D01*
X135650826Y-79258393D01*
X135550936Y-79486118D01*
X135489892Y-79727175D01*
X135489890Y-79727187D01*
X135469357Y-79974994D01*
X135469357Y-79975005D01*
X135489890Y-80222812D01*
X135489892Y-80222824D01*
X135551007Y-80464160D01*
X135548382Y-80533980D01*
X135518482Y-80582281D01*
X132671286Y-83429478D01*
X132559481Y-83541282D01*
X132559480Y-83541284D01*
X132528756Y-83594500D01*
X132480423Y-83678215D01*
X132439499Y-83830943D01*
X132439499Y-83830945D01*
X132439499Y-83999046D01*
X132439500Y-83999059D01*
X132439500Y-93353511D01*
X132419815Y-93420550D01*
X132367011Y-93466305D01*
X132362953Y-93468072D01*
X132311140Y-93489533D01*
X132096346Y-93621160D01*
X132096343Y-93621161D01*
X131904776Y-93784776D01*
X131741161Y-93976343D01*
X131741160Y-93976346D01*
X131609533Y-94191140D01*
X131513126Y-94423889D01*
X131454317Y-94668848D01*
X131434551Y-94920000D01*
X131454317Y-95171151D01*
X131513126Y-95416110D01*
X131609533Y-95648859D01*
X131741160Y-95863653D01*
X131741161Y-95863656D01*
X131757398Y-95882667D01*
X131904776Y-96055224D01*
X132028811Y-96161160D01*
X132096343Y-96218838D01*
X132096346Y-96218839D01*
X132269577Y-96324996D01*
X132311141Y-96350466D01*
X132362953Y-96371927D01*
X132417355Y-96415765D01*
X132439421Y-96482059D01*
X132439500Y-96486487D01*
X132439500Y-98465461D01*
X132419815Y-98532500D01*
X132367011Y-98578255D01*
X132297853Y-98588199D01*
X132234297Y-98559174D01*
X132217125Y-98540949D01*
X132195644Y-98512955D01*
X131987047Y-98304358D01*
X131987040Y-98304352D01*
X131752993Y-98124761D01*
X131497510Y-97977258D01*
X131497500Y-97977254D01*
X131224961Y-97864364D01*
X131224954Y-97864362D01*
X131224952Y-97864361D01*
X130939993Y-97788007D01*
X130891113Y-97781571D01*
X130647513Y-97749500D01*
X130647506Y-97749500D01*
X130352494Y-97749500D01*
X130352486Y-97749500D01*
X130074085Y-97786153D01*
X130060007Y-97788007D01*
X129775048Y-97864361D01*
X129775038Y-97864364D01*
X129502499Y-97977254D01*
X129502489Y-97977258D01*
X129247006Y-98124761D01*
X129012959Y-98304352D01*
X129012952Y-98304358D01*
X128804358Y-98512952D01*
X128804352Y-98512959D01*
X128624761Y-98747006D01*
X128477258Y-99002489D01*
X128477254Y-99002499D01*
X128364364Y-99275038D01*
X128364361Y-99275048D01*
X128288008Y-99560004D01*
X128288006Y-99560015D01*
X128249500Y-99852486D01*
X126510854Y-99852486D01*
X126493402Y-99742299D01*
X126439873Y-99577555D01*
X126361232Y-99423212D01*
X126259414Y-99283072D01*
X126201232Y-99224890D01*
X126167747Y-99163567D01*
X126172731Y-99093875D01*
X126214603Y-99037942D01*
X126280067Y-99013525D01*
X126317856Y-99016634D01*
X126438852Y-99045683D01*
X126690000Y-99065449D01*
X126941148Y-99045683D01*
X127186111Y-98986873D01*
X127418859Y-98890466D01*
X127633659Y-98758836D01*
X127825224Y-98595224D01*
X127988836Y-98403659D01*
X128120466Y-98188859D01*
X128216873Y-97956111D01*
X128275683Y-97711148D01*
X128295449Y-97460000D01*
X128275683Y-97208852D01*
X128216873Y-96963889D01*
X128204042Y-96932913D01*
X128120466Y-96731140D01*
X127988839Y-96516346D01*
X127988838Y-96516343D01*
X127911493Y-96425784D01*
X127825224Y-96324776D01*
X127698571Y-96216604D01*
X127633656Y-96161161D01*
X127633653Y-96161160D01*
X127418859Y-96029533D01*
X127186110Y-95933126D01*
X126941151Y-95874317D01*
X126690000Y-95854551D01*
X126438848Y-95874317D01*
X126193889Y-95933126D01*
X125961140Y-96029533D01*
X125746346Y-96161160D01*
X125746343Y-96161161D01*
X125554776Y-96324776D01*
X125391161Y-96516343D01*
X125391160Y-96516346D01*
X125259533Y-96731140D01*
X125163126Y-96963889D01*
X125104317Y-97208848D01*
X125084551Y-97460000D01*
X125104317Y-97711151D01*
X125163126Y-97956110D01*
X125259533Y-98188859D01*
X125391160Y-98403653D01*
X125391161Y-98403656D01*
X125443948Y-98465461D01*
X125554776Y-98595224D01*
X125655679Y-98681403D01*
X125668783Y-98692595D01*
X125706976Y-98751102D01*
X125707474Y-98820970D01*
X125670121Y-98880016D01*
X125606774Y-98909494D01*
X125568854Y-98909358D01*
X125506611Y-98899500D01*
X125333389Y-98899500D01*
X125293728Y-98905781D01*
X125162302Y-98926597D01*
X124997552Y-98980128D01*
X124843211Y-99058768D01*
X124763256Y-99116859D01*
X124703072Y-99160586D01*
X124703070Y-99160588D01*
X124703069Y-99160588D01*
X124580588Y-99283069D01*
X124580588Y-99283070D01*
X124580586Y-99283072D01*
X124576723Y-99288389D01*
X124478768Y-99423211D01*
X124400128Y-99577552D01*
X124346597Y-99742302D01*
X124337863Y-99797447D01*
X124319500Y-99913389D01*
X118531933Y-99913389D01*
X118678086Y-88075000D01*
X127869592Y-88075000D01*
X127889201Y-88361680D01*
X127947666Y-88643034D01*
X127947667Y-88643037D01*
X128043894Y-88913793D01*
X128043893Y-88913793D01*
X128176098Y-89168935D01*
X128341812Y-89403700D01*
X128406289Y-89472737D01*
X128537947Y-89613708D01*
X128760853Y-89795055D01*
X128925438Y-89895142D01*
X129006382Y-89944365D01*
X129193237Y-90025526D01*
X129269942Y-90058844D01*
X129546642Y-90136371D01*
X129796920Y-90170771D01*
X129831321Y-90175500D01*
X129831322Y-90175500D01*
X130118679Y-90175500D01*
X130149370Y-90171281D01*
X130403358Y-90136371D01*
X130680058Y-90058844D01*
X130873087Y-89975000D01*
X130943617Y-89944365D01*
X130943620Y-89944363D01*
X130943625Y-89944361D01*
X131189147Y-89795055D01*
X131412053Y-89613708D01*
X131608189Y-89403698D01*
X131773901Y-89168936D01*
X131906104Y-88913797D01*
X132002334Y-88643032D01*
X132060798Y-88361686D01*
X132080408Y-88075000D01*
X132060798Y-87788314D01*
X132002334Y-87506968D01*
X131906105Y-87236206D01*
X131906106Y-87236206D01*
X131773901Y-86981064D01*
X131608187Y-86746299D01*
X131522891Y-86654970D01*
X131412053Y-86536292D01*
X131189147Y-86354945D01*
X131189146Y-86354944D01*
X130943617Y-86205634D01*
X130680063Y-86091158D01*
X130680061Y-86091157D01*
X130680058Y-86091156D01*
X130532466Y-86049803D01*
X130403364Y-86013630D01*
X130403359Y-86013629D01*
X130403358Y-86013629D01*
X130261018Y-85994064D01*
X130118679Y-85974500D01*
X130118678Y-85974500D01*
X129831322Y-85974500D01*
X129831321Y-85974500D01*
X129546642Y-86013629D01*
X129546635Y-86013630D01*
X129361603Y-86065474D01*
X129269942Y-86091156D01*
X129269939Y-86091156D01*
X129269936Y-86091158D01*
X129269935Y-86091158D01*
X129006382Y-86205634D01*
X128760853Y-86354944D01*
X128537950Y-86536289D01*
X128341812Y-86746299D01*
X128176098Y-86981064D01*
X128043894Y-87236206D01*
X127947667Y-87506962D01*
X127947666Y-87506965D01*
X127889201Y-87788319D01*
X127869592Y-88075000D01*
X118678086Y-88075000D01*
X118716358Y-84974994D01*
X120969357Y-84974994D01*
X120969357Y-84975005D01*
X120989890Y-85222812D01*
X120989892Y-85222824D01*
X121050936Y-85463881D01*
X121150826Y-85691606D01*
X121286833Y-85899782D01*
X121286836Y-85899785D01*
X121455256Y-86082738D01*
X121651491Y-86235474D01*
X121870190Y-86353828D01*
X122105386Y-86434571D01*
X122350665Y-86475500D01*
X122599335Y-86475500D01*
X122844614Y-86434571D01*
X123079810Y-86353828D01*
X123298509Y-86235474D01*
X123494744Y-86082738D01*
X123663164Y-85899785D01*
X123799173Y-85691607D01*
X123899063Y-85463881D01*
X123960108Y-85222821D01*
X123960169Y-85222087D01*
X123980643Y-84975005D01*
X123980643Y-84974994D01*
X123960109Y-84727187D01*
X123960107Y-84727175D01*
X123899063Y-84486118D01*
X123799173Y-84258393D01*
X123663166Y-84050217D01*
X123642860Y-84028159D01*
X123494744Y-83867262D01*
X123393623Y-83788556D01*
X123352810Y-83731846D01*
X123348697Y-83702249D01*
X122604409Y-82957962D01*
X122667993Y-82940925D01*
X122782007Y-82875099D01*
X122875099Y-82782007D01*
X122940925Y-82667993D01*
X122957962Y-82604410D01*
X123698434Y-83344882D01*
X123798731Y-83191369D01*
X123898587Y-82963717D01*
X123959612Y-82722738D01*
X123959614Y-82722729D01*
X123980141Y-82475005D01*
X123980141Y-82474994D01*
X123959614Y-82227270D01*
X123959612Y-82227261D01*
X123898587Y-81986282D01*
X123798732Y-81758632D01*
X123686515Y-81586870D01*
X123666328Y-81519981D01*
X123685508Y-81452795D01*
X123716013Y-81419782D01*
X123717329Y-81418796D01*
X123717331Y-81418796D01*
X123832546Y-81332546D01*
X123918796Y-81217331D01*
X123969091Y-81082483D01*
X123975500Y-81022873D01*
X123975499Y-78927128D01*
X123969091Y-78867517D01*
X123966136Y-78859595D01*
X123918797Y-78732671D01*
X123918793Y-78732664D01*
X123832547Y-78617455D01*
X123832544Y-78617452D01*
X123717335Y-78531206D01*
X123717328Y-78531202D01*
X123582482Y-78480908D01*
X123582483Y-78480908D01*
X123522883Y-78474501D01*
X123522881Y-78474500D01*
X123522873Y-78474500D01*
X123522864Y-78474500D01*
X121427129Y-78474500D01*
X121427123Y-78474501D01*
X121367516Y-78480908D01*
X121232671Y-78531202D01*
X121232664Y-78531206D01*
X121117455Y-78617452D01*
X121117452Y-78617455D01*
X121031206Y-78732664D01*
X121031202Y-78732671D01*
X120980908Y-78867517D01*
X120974501Y-78927116D01*
X120974501Y-78927123D01*
X120974500Y-78927135D01*
X120974500Y-81022870D01*
X120974501Y-81022876D01*
X120980908Y-81082483D01*
X121031202Y-81217328D01*
X121031206Y-81217335D01*
X121117452Y-81332544D01*
X121117455Y-81332547D01*
X121233986Y-81419783D01*
X121275857Y-81475717D01*
X121280841Y-81545408D01*
X121263484Y-81586870D01*
X121151267Y-81758631D01*
X121051412Y-81986282D01*
X120990387Y-82227261D01*
X120990385Y-82227270D01*
X120969859Y-82474994D01*
X120969859Y-82475005D01*
X120990385Y-82722729D01*
X120990387Y-82722738D01*
X121051412Y-82963717D01*
X121151266Y-83191364D01*
X121251564Y-83344882D01*
X121992037Y-82604408D01*
X122009075Y-82667993D01*
X122074901Y-82782007D01*
X122167993Y-82875099D01*
X122282007Y-82940925D01*
X122345590Y-82957962D01*
X121599100Y-83704450D01*
X121588482Y-83751148D01*
X121556376Y-83788556D01*
X121455255Y-83867262D01*
X121286833Y-84050217D01*
X121150826Y-84258393D01*
X121050936Y-84486118D01*
X120989892Y-84727175D01*
X120989890Y-84727187D01*
X120969357Y-84974994D01*
X118716358Y-84974994D01*
X118816358Y-76875000D01*
X127869592Y-76875000D01*
X127889201Y-77161680D01*
X127947666Y-77443034D01*
X127947667Y-77443037D01*
X128043894Y-77713793D01*
X128043893Y-77713793D01*
X128176098Y-77968935D01*
X128341812Y-78203700D01*
X128398596Y-78264500D01*
X128537947Y-78413708D01*
X128760853Y-78595055D01*
X128987148Y-78732669D01*
X129006382Y-78744365D01*
X129193237Y-78825526D01*
X129269942Y-78858844D01*
X129546642Y-78936371D01*
X129796920Y-78970771D01*
X129831321Y-78975500D01*
X129831322Y-78975500D01*
X130118679Y-78975500D01*
X130149370Y-78971281D01*
X130403358Y-78936371D01*
X130680058Y-78858844D01*
X130793015Y-78809779D01*
X130943617Y-78744365D01*
X130943620Y-78744363D01*
X130943625Y-78744361D01*
X131189147Y-78595055D01*
X131412053Y-78413708D01*
X131608189Y-78203698D01*
X131773901Y-77968936D01*
X131906104Y-77713797D01*
X132002334Y-77443032D01*
X132060798Y-77161686D01*
X132080408Y-76875000D01*
X132060798Y-76588314D01*
X132002334Y-76306968D01*
X131906105Y-76036206D01*
X131906106Y-76036206D01*
X131773901Y-75781064D01*
X131608187Y-75546299D01*
X131461115Y-75388825D01*
X131412053Y-75336292D01*
X131189147Y-75154945D01*
X131189146Y-75154944D01*
X130943617Y-75005634D01*
X130680063Y-74891158D01*
X130680061Y-74891157D01*
X130680058Y-74891156D01*
X130550578Y-74854877D01*
X130403364Y-74813630D01*
X130403359Y-74813629D01*
X130403358Y-74813629D01*
X130261018Y-74794064D01*
X130118679Y-74774500D01*
X130118678Y-74774500D01*
X129831322Y-74774500D01*
X129831321Y-74774500D01*
X129546642Y-74813629D01*
X129546635Y-74813630D01*
X129338861Y-74871845D01*
X129269942Y-74891156D01*
X129269939Y-74891156D01*
X129269936Y-74891158D01*
X129269935Y-74891158D01*
X129006382Y-75005634D01*
X128760853Y-75154944D01*
X128537950Y-75336289D01*
X128341812Y-75546299D01*
X128176098Y-75781064D01*
X128043894Y-76036206D01*
X127947667Y-76306962D01*
X127947666Y-76306965D01*
X127889201Y-76588319D01*
X127869592Y-76875000D01*
X118816358Y-76875000D01*
X118902547Y-69893713D01*
X123649500Y-69893713D01*
X123649500Y-70106286D01*
X123681579Y-70308828D01*
X123682754Y-70316243D01*
X123747085Y-70514234D01*
X123748444Y-70518414D01*
X123844951Y-70707820D01*
X123969890Y-70879786D01*
X124120213Y-71030109D01*
X124292179Y-71155048D01*
X124292181Y-71155049D01*
X124292184Y-71155051D01*
X124481588Y-71251557D01*
X124683757Y-71317246D01*
X124893713Y-71350500D01*
X124893714Y-71350500D01*
X125106286Y-71350500D01*
X125106287Y-71350500D01*
X125316243Y-71317246D01*
X125518412Y-71251557D01*
X125707816Y-71155051D01*
X125729789Y-71139086D01*
X125879786Y-71030109D01*
X125879788Y-71030106D01*
X125879792Y-71030104D01*
X126030104Y-70879792D01*
X126030106Y-70879788D01*
X126030109Y-70879786D01*
X126155048Y-70707820D01*
X126155047Y-70707820D01*
X126155051Y-70707816D01*
X126251557Y-70518412D01*
X126317246Y-70316243D01*
X126350500Y-70106287D01*
X126350500Y-69893713D01*
X126317246Y-69683757D01*
X126251557Y-69481588D01*
X126155051Y-69292184D01*
X126155049Y-69292181D01*
X126155048Y-69292179D01*
X126030109Y-69120213D01*
X125879786Y-68969890D01*
X125707820Y-68844951D01*
X125518414Y-68748444D01*
X125518413Y-68748443D01*
X125518412Y-68748443D01*
X125316243Y-68682754D01*
X125316241Y-68682753D01*
X125316240Y-68682753D01*
X125154957Y-68657208D01*
X125106287Y-68649500D01*
X124893713Y-68649500D01*
X124845042Y-68657208D01*
X124683760Y-68682753D01*
X124481585Y-68748444D01*
X124292179Y-68844951D01*
X124120213Y-68969890D01*
X123969890Y-69120213D01*
X123844951Y-69292179D01*
X123748444Y-69481585D01*
X123682753Y-69683760D01*
X123649500Y-69893713D01*
X118902547Y-69893713D01*
X118938272Y-67000000D01*
X118949523Y-66088607D01*
X118969548Y-66022561D01*
X119056430Y-65888914D01*
X119063272Y-65879407D01*
X119269247Y-65620026D01*
X119276950Y-65611216D01*
X119506535Y-65372468D01*
X119515028Y-65364434D01*
X119766160Y-65148465D01*
X119775397Y-65141254D01*
X120045806Y-64950014D01*
X120055682Y-64943709D01*
X120342971Y-64778892D01*
X120353395Y-64773550D01*
X120654976Y-64636640D01*
X120665873Y-64632302D01*
X120979048Y-64524522D01*
X120990301Y-64521236D01*
X121312276Y-64443551D01*
X121323759Y-64441350D01*
X121651649Y-64394457D01*
X121663297Y-64393350D01*
X121960988Y-64379244D01*
X121997090Y-64377534D01*
X122002959Y-64377395D01*
X122065892Y-64377395D01*
X177934108Y-64377395D01*
X177997064Y-64377395D01*
X178002933Y-64377534D01*
G37*
%TD.AperFunction*%
%TD*%
M02*
