M48
; DRILL file {KiCad 8.0.5} date 2025-01-14T19:01:21+0100
; FORMAT={-:-/ absolute / inch / decimal}
; #@! TF.CreationDate,2025-01-14T19:01:21+01:00
; #@! TF.GenerationSoftware,Kicad,Pcbnew,8.0.5
; #@! TF.FileFunction,Plated,1,2,PTH
FMAT,2
INCH
; #@! TA.AperFunction,Plated,PTH,ViaDrill
T1C0.0118
; #@! TA.AperFunction,Plated,PTH,ComponentDrill
T2C0.0394
; #@! TA.AperFunction,Plated,PTH,ComponentDrill
T3C0.0591
; #@! TA.AperFunction,Plated,PTH,ComponentDrill
T4C0.1024
%
G90
G05
T1
X5.4124Y-4.7825
X5.4321Y-4.1132
X5.4321Y-4.2904
X5.4715Y-3.7923
X5.5689Y-4.0541
X5.5689Y-4.0935
X5.5699Y-4.6053
X5.5699Y-4.6644
X5.5699Y-4.7037
X5.5699Y-4.7431
X5.5896Y-4.1329
X5.6683Y-4.7628
X5.7077Y-4.1762
X6.0226Y-4.0344
X6.0226Y-4.1919
X6.0226Y-4.3888
X6.062Y-4.5659
X6.0817Y-3.562
X6.1014Y-4.625
X6.1211Y-4.0344
X6.1407Y-3.5423
X6.1866Y-3.7785
X6.1998Y-3.9951
X6.1998Y-4.7628
X6.2982Y-4.8219
X6.3179Y-4.8022
X6.3376Y-4.1329
X6.3376Y-4.7825
X6.3573Y-3.936
X6.3573Y-3.9951
X6.3573Y-4.0344
X6.3573Y-4.0935
X6.3573Y-4.625
X6.3573Y-4.7628
X6.377Y-3.7982
T2
X4.8219Y-3.1486
X4.8219Y-3.247
X4.8219Y-3.3455
X5.3927Y-3.1486
X5.3927Y-3.3455
X5.6045Y-2.6305
X5.6045Y-2.7305
X5.6045Y-2.8305
X5.6045Y-2.9305
X5.6045Y-3.0305
X5.6045Y-3.1305
X5.6045Y-3.2305
X5.6045Y-3.3305
X5.6045Y-3.4305
X5.7045Y-3.4305
X5.8045Y-3.4305
X5.9045Y-3.4305
X6.0045Y-3.4305
X6.1045Y-3.4305
X6.2045Y-2.6305
X6.2045Y-2.7305
X6.2045Y-2.8305
X6.2045Y-2.9305
X6.2045Y-3.0305
X6.2045Y-3.1305
X6.2045Y-3.2305
X6.2045Y-3.3305
X6.2045Y-3.4305
X6.4163Y-3.1486
X6.4163Y-3.3455
X6.9872Y-3.1486
X6.9872Y-3.247
X6.9872Y-3.3455
T3
X4.9878Y-3.837
X4.9878Y-4.6047
X5.2378Y-3.737
X5.2378Y-4.5047
X5.7555Y-3.837
X5.7555Y-4.6047
X6.0055Y-3.737
X6.0055Y-4.5047
X6.5232Y-3.837
X6.5232Y-4.6047
X6.7732Y-3.737
X6.7732Y-4.5047
T4
X5.1171Y-3.0266
X5.1171Y-3.4675
X6.6919Y-3.0266
X6.6919Y-3.4675
M30
