%TF.GenerationSoftware,KiCad,Pcbnew,8.0.5*%
%TF.CreationDate,2025-01-14T19:01:26+01:00*%
%TF.ProjectId,rp_2040_pad_pre,72705f32-3034-4305-9f70-61645f707265,rev?*%
%TF.SameCoordinates,Original*%
%TF.FileFunction,Legend,Bot*%
%TF.FilePolarity,Positive*%
%FSLAX46Y46*%
G04 Gerber Fmt 4.6, Leading zero omitted, Abs format (unit mm)*
G04 Created by KiCad (PCBNEW 8.0.5) date 2025-01-14 19:01:26*
%MOMM*%
%LPD*%
G01*
G04 APERTURE LIST*
%ADD10C,0.150000*%
%ADD11C,0.000000*%
%ADD12C,0.120000*%
G04 APERTURE END LIST*
D10*
X160739285Y-113929819D02*
X160739285Y-112929819D01*
X160739285Y-112929819D02*
X160501190Y-112929819D01*
X160501190Y-112929819D02*
X160358333Y-112977438D01*
X160358333Y-112977438D02*
X160263095Y-113072676D01*
X160263095Y-113072676D02*
X160215476Y-113167914D01*
X160215476Y-113167914D02*
X160167857Y-113358390D01*
X160167857Y-113358390D02*
X160167857Y-113501247D01*
X160167857Y-113501247D02*
X160215476Y-113691723D01*
X160215476Y-113691723D02*
X160263095Y-113786961D01*
X160263095Y-113786961D02*
X160358333Y-113882200D01*
X160358333Y-113882200D02*
X160501190Y-113929819D01*
X160501190Y-113929819D02*
X160739285Y-113929819D01*
X159215476Y-113929819D02*
X159786904Y-113929819D01*
X159501190Y-113929819D02*
X159501190Y-112929819D01*
X159501190Y-112929819D02*
X159596428Y-113072676D01*
X159596428Y-113072676D02*
X159691666Y-113167914D01*
X159691666Y-113167914D02*
X159786904Y-113215533D01*
X158263095Y-113929819D02*
X158834523Y-113929819D01*
X158548809Y-113929819D02*
X158548809Y-112929819D01*
X158548809Y-112929819D02*
X158644047Y-113072676D01*
X158644047Y-113072676D02*
X158739285Y-113167914D01*
X158739285Y-113167914D02*
X158834523Y-113215533D01*
X163389285Y-115829819D02*
X163960713Y-115829819D01*
X163674999Y-115829819D02*
X163674999Y-114829819D01*
X163674999Y-114829819D02*
X163770237Y-114972676D01*
X163770237Y-114972676D02*
X163865475Y-115067914D01*
X163865475Y-115067914D02*
X163960713Y-115115533D01*
X141263094Y-113929819D02*
X141263094Y-112929819D01*
X141263094Y-112929819D02*
X141024999Y-112929819D01*
X141024999Y-112929819D02*
X140882142Y-112977438D01*
X140882142Y-112977438D02*
X140786904Y-113072676D01*
X140786904Y-113072676D02*
X140739285Y-113167914D01*
X140739285Y-113167914D02*
X140691666Y-113358390D01*
X140691666Y-113358390D02*
X140691666Y-113501247D01*
X140691666Y-113501247D02*
X140739285Y-113691723D01*
X140739285Y-113691723D02*
X140786904Y-113786961D01*
X140786904Y-113786961D02*
X140882142Y-113882200D01*
X140882142Y-113882200D02*
X141024999Y-113929819D01*
X141024999Y-113929819D02*
X141263094Y-113929819D01*
X140120237Y-113358390D02*
X140215475Y-113310771D01*
X140215475Y-113310771D02*
X140263094Y-113263152D01*
X140263094Y-113263152D02*
X140310713Y-113167914D01*
X140310713Y-113167914D02*
X140310713Y-113120295D01*
X140310713Y-113120295D02*
X140263094Y-113025057D01*
X140263094Y-113025057D02*
X140215475Y-112977438D01*
X140215475Y-112977438D02*
X140120237Y-112929819D01*
X140120237Y-112929819D02*
X139929761Y-112929819D01*
X139929761Y-112929819D02*
X139834523Y-112977438D01*
X139834523Y-112977438D02*
X139786904Y-113025057D01*
X139786904Y-113025057D02*
X139739285Y-113120295D01*
X139739285Y-113120295D02*
X139739285Y-113167914D01*
X139739285Y-113167914D02*
X139786904Y-113263152D01*
X139786904Y-113263152D02*
X139834523Y-113310771D01*
X139834523Y-113310771D02*
X139929761Y-113358390D01*
X139929761Y-113358390D02*
X140120237Y-113358390D01*
X140120237Y-113358390D02*
X140215475Y-113406009D01*
X140215475Y-113406009D02*
X140263094Y-113453628D01*
X140263094Y-113453628D02*
X140310713Y-113548866D01*
X140310713Y-113548866D02*
X140310713Y-113739342D01*
X140310713Y-113739342D02*
X140263094Y-113834580D01*
X140263094Y-113834580D02*
X140215475Y-113882200D01*
X140215475Y-113882200D02*
X140120237Y-113929819D01*
X140120237Y-113929819D02*
X139929761Y-113929819D01*
X139929761Y-113929819D02*
X139834523Y-113882200D01*
X139834523Y-113882200D02*
X139786904Y-113834580D01*
X139786904Y-113834580D02*
X139739285Y-113739342D01*
X139739285Y-113739342D02*
X139739285Y-113548866D01*
X139739285Y-113548866D02*
X139786904Y-113453628D01*
X139786904Y-113453628D02*
X139834523Y-113406009D01*
X139834523Y-113406009D02*
X139929761Y-113358390D01*
X144389285Y-115829819D02*
X144960713Y-115829819D01*
X144674999Y-115829819D02*
X144674999Y-114829819D01*
X144674999Y-114829819D02*
X144770237Y-114972676D01*
X144770237Y-114972676D02*
X144865475Y-115067914D01*
X144865475Y-115067914D02*
X144960713Y-115115533D01*
X160713094Y-92929819D02*
X160713094Y-91929819D01*
X160713094Y-91929819D02*
X160474999Y-91929819D01*
X160474999Y-91929819D02*
X160332142Y-91977438D01*
X160332142Y-91977438D02*
X160236904Y-92072676D01*
X160236904Y-92072676D02*
X160189285Y-92167914D01*
X160189285Y-92167914D02*
X160141666Y-92358390D01*
X160141666Y-92358390D02*
X160141666Y-92501247D01*
X160141666Y-92501247D02*
X160189285Y-92691723D01*
X160189285Y-92691723D02*
X160236904Y-92786961D01*
X160236904Y-92786961D02*
X160332142Y-92882200D01*
X160332142Y-92882200D02*
X160474999Y-92929819D01*
X160474999Y-92929819D02*
X160713094Y-92929819D01*
X159760713Y-92025057D02*
X159713094Y-91977438D01*
X159713094Y-91977438D02*
X159617856Y-91929819D01*
X159617856Y-91929819D02*
X159379761Y-91929819D01*
X159379761Y-91929819D02*
X159284523Y-91977438D01*
X159284523Y-91977438D02*
X159236904Y-92025057D01*
X159236904Y-92025057D02*
X159189285Y-92120295D01*
X159189285Y-92120295D02*
X159189285Y-92215533D01*
X159189285Y-92215533D02*
X159236904Y-92358390D01*
X159236904Y-92358390D02*
X159808332Y-92929819D01*
X159808332Y-92929819D02*
X159189285Y-92929819D01*
X163839285Y-94829819D02*
X164410713Y-94829819D01*
X164124999Y-94829819D02*
X164124999Y-93829819D01*
X164124999Y-93829819D02*
X164220237Y-93972676D01*
X164220237Y-93972676D02*
X164315475Y-94067914D01*
X164315475Y-94067914D02*
X164410713Y-94115533D01*
X140713094Y-94929819D02*
X140713094Y-93929819D01*
X140713094Y-93929819D02*
X140474999Y-93929819D01*
X140474999Y-93929819D02*
X140332142Y-93977438D01*
X140332142Y-93977438D02*
X140236904Y-94072676D01*
X140236904Y-94072676D02*
X140189285Y-94167914D01*
X140189285Y-94167914D02*
X140141666Y-94358390D01*
X140141666Y-94358390D02*
X140141666Y-94501247D01*
X140141666Y-94501247D02*
X140189285Y-94691723D01*
X140189285Y-94691723D02*
X140236904Y-94786961D01*
X140236904Y-94786961D02*
X140332142Y-94882200D01*
X140332142Y-94882200D02*
X140474999Y-94929819D01*
X140474999Y-94929819D02*
X140713094Y-94929819D01*
X139189285Y-94929819D02*
X139760713Y-94929819D01*
X139474999Y-94929819D02*
X139474999Y-93929819D01*
X139474999Y-93929819D02*
X139570237Y-94072676D01*
X139570237Y-94072676D02*
X139665475Y-94167914D01*
X139665475Y-94167914D02*
X139760713Y-94215533D01*
X143839285Y-96829819D02*
X144410713Y-96829819D01*
X144124999Y-96829819D02*
X144124999Y-95829819D01*
X144124999Y-95829819D02*
X144220237Y-95972676D01*
X144220237Y-95972676D02*
X144315475Y-96067914D01*
X144315475Y-96067914D02*
X144410713Y-96115533D01*
D11*
%TO.C,G\u002A\u002A\u002A*%
G36*
X132901836Y-66962048D02*
G01*
X132934453Y-67076550D01*
X132991637Y-67248613D01*
X133044418Y-67413055D01*
X133096367Y-67621213D01*
X133111256Y-67779852D01*
X133089785Y-67901829D01*
X133032658Y-68000000D01*
X132949881Y-68100316D01*
X132977254Y-68000000D01*
X132991387Y-67942590D01*
X133001901Y-67856398D01*
X132996189Y-67753987D01*
X132973996Y-67604223D01*
X132969628Y-67579047D01*
X132946372Y-67485544D01*
X132925274Y-67469323D01*
X132906823Y-67527875D01*
X132891504Y-67658695D01*
X132879808Y-67859277D01*
X132872221Y-68127113D01*
X132870647Y-68224804D01*
X132869443Y-68436737D01*
X132873542Y-68587843D01*
X132884106Y-68692202D01*
X132902300Y-68763890D01*
X132929290Y-68816988D01*
X132975007Y-68910476D01*
X132996840Y-69009417D01*
X132995589Y-69059748D01*
X132980814Y-69073610D01*
X132934640Y-69020860D01*
X132922868Y-69006871D01*
X132900432Y-68991364D01*
X132886990Y-69012478D01*
X132881193Y-69081101D01*
X132881693Y-69208120D01*
X132887141Y-69404423D01*
X132899604Y-69649339D01*
X132921820Y-69830595D01*
X132957661Y-69960105D01*
X133011071Y-70052076D01*
X133085994Y-70120716D01*
X133131136Y-70161589D01*
X133192128Y-70256016D01*
X133218419Y-70352692D01*
X133198963Y-70422142D01*
X133170850Y-70439096D01*
X133157346Y-70398249D01*
X133154573Y-70377557D01*
X133105457Y-70321254D01*
X133017009Y-70301355D01*
X132918103Y-70326519D01*
X132899370Y-70337114D01*
X132827903Y-70395194D01*
X132776125Y-70479311D01*
X132739714Y-70603011D01*
X132714345Y-70779838D01*
X132695697Y-71023338D01*
X132695319Y-71029643D01*
X132681950Y-71209199D01*
X132666491Y-71350989D01*
X132650825Y-71440877D01*
X132636838Y-71464728D01*
X132605579Y-71411013D01*
X132561343Y-71295766D01*
X132519176Y-71154252D01*
X132487615Y-71015786D01*
X132475197Y-70909684D01*
X132459105Y-70802948D01*
X132415667Y-70706168D01*
X132381265Y-70663436D01*
X132353188Y-70655552D01*
X132330852Y-70718111D01*
X132315398Y-70758415D01*
X132279206Y-70786521D01*
X132247827Y-70748794D01*
X132234439Y-70653998D01*
X132222891Y-70573304D01*
X132173626Y-70483398D01*
X132100816Y-70447709D01*
X132090388Y-70456386D01*
X132079103Y-70521097D01*
X132083849Y-70628278D01*
X132088606Y-70683324D01*
X132087898Y-70773315D01*
X132073917Y-70808847D01*
X132068128Y-70808576D01*
X132006953Y-70764432D01*
X131964202Y-70650806D01*
X131943288Y-70476389D01*
X131944166Y-70331968D01*
X131968194Y-70228588D01*
X132023407Y-70139709D01*
X132092937Y-70040366D01*
X132167544Y-69901502D01*
X132213644Y-69775469D01*
X132220398Y-69687165D01*
X132207554Y-69666534D01*
X132198967Y-69715403D01*
X132186275Y-69771583D01*
X132149506Y-69805687D01*
X132125620Y-69787461D01*
X132129136Y-69715403D01*
X132147679Y-69646082D01*
X132195236Y-69448980D01*
X132218064Y-69297139D01*
X132216519Y-69166598D01*
X132190962Y-69033399D01*
X132141751Y-68873580D01*
X132115433Y-68794311D01*
X132075989Y-68661675D01*
X132060780Y-68569680D01*
X132067286Y-68494455D01*
X132092982Y-68412127D01*
X132148531Y-68260821D01*
X132152635Y-68401264D01*
X132152774Y-68405213D01*
X132175059Y-68526057D01*
X132221050Y-68621959D01*
X132250580Y-68657841D01*
X132272236Y-68674275D01*
X132259900Y-68628708D01*
X132255654Y-68611906D01*
X132243947Y-68517576D01*
X132234758Y-68374815D01*
X132229784Y-68207381D01*
X132228244Y-68130152D01*
X132222845Y-68005833D01*
X132215313Y-67934497D01*
X132206779Y-67929779D01*
X132174832Y-67986243D01*
X132134045Y-67996414D01*
X132114228Y-67949842D01*
X132120073Y-67921074D01*
X132153802Y-67831197D01*
X132207519Y-67716159D01*
X132213580Y-67704051D01*
X132270269Y-67555244D01*
X132270361Y-67455337D01*
X132263151Y-67432096D01*
X132245462Y-67326659D01*
X132236825Y-67197472D01*
X132234082Y-67145729D01*
X132211290Y-66979683D01*
X132191783Y-66896524D01*
X132274565Y-66896524D01*
X132294628Y-66916587D01*
X132314692Y-66896524D01*
X132294628Y-66876461D01*
X132274565Y-66896524D01*
X132191783Y-66896524D01*
X132173815Y-66819926D01*
X132145400Y-66721611D01*
X132118876Y-66599662D01*
X132122041Y-66534572D01*
X132154186Y-66515324D01*
X132181886Y-66545577D01*
X132194927Y-66625671D01*
X132202872Y-66709800D01*
X132226227Y-66784295D01*
X132228997Y-66787525D01*
X132240561Y-66762431D01*
X132244957Y-66675862D01*
X132241208Y-66543537D01*
X132236759Y-66472670D01*
X132217662Y-66313248D01*
X132184404Y-66215954D01*
X132130372Y-66167396D01*
X132048957Y-66154186D01*
X131963609Y-66132622D01*
X131869957Y-66070590D01*
X131836481Y-66032341D01*
X131809353Y-65975586D01*
X131830065Y-65957420D01*
X131893649Y-65993917D01*
X131907794Y-66005040D01*
X131959869Y-66020375D01*
X132012289Y-65969540D01*
X132033272Y-65939557D01*
X132043325Y-65898164D01*
X131990884Y-65880531D01*
X131939189Y-65859307D01*
X131871802Y-65790246D01*
X131847158Y-65728574D01*
X131872094Y-65718733D01*
X131953450Y-65762170D01*
X131998800Y-65783612D01*
X132073671Y-65775326D01*
X132131727Y-65697672D01*
X132174894Y-65547277D01*
X132205094Y-65320766D01*
X132207949Y-65289907D01*
X132227583Y-65088412D01*
X132248438Y-64888637D01*
X132266454Y-64729700D01*
X132295699Y-64488942D01*
X132385448Y-64776055D01*
X132435569Y-64970966D01*
X132475197Y-65363006D01*
X132475681Y-65427803D01*
X132483900Y-65575239D01*
X132504811Y-65666126D01*
X132541683Y-65717914D01*
X132564339Y-65735384D01*
X132591065Y-65740465D01*
X132596979Y-65694134D01*
X132586738Y-65582385D01*
X132581121Y-65518286D01*
X132580711Y-65427456D01*
X132592480Y-65391785D01*
X132643677Y-65414360D01*
X132695122Y-65493121D01*
X132715955Y-65601731D01*
X132718259Y-65641152D01*
X132741724Y-65756125D01*
X132782145Y-65870652D01*
X132829093Y-65958561D01*
X132872138Y-65993681D01*
X132914851Y-65970739D01*
X132974501Y-65904500D01*
X133036966Y-65815318D01*
X133036966Y-65922195D01*
X133025874Y-65999523D01*
X132992556Y-66056518D01*
X132971975Y-66078748D01*
X133002588Y-66118461D01*
X133054226Y-66145995D01*
X133103120Y-66137734D01*
X133148498Y-66063902D01*
X133176597Y-66009040D01*
X133190716Y-66008863D01*
X133194756Y-66083965D01*
X133179999Y-66166900D01*
X133117219Y-66264534D01*
X133054130Y-66319737D01*
X132956714Y-66404976D01*
X132905772Y-66470739D01*
X132877737Y-66565482D01*
X132879558Y-66614940D01*
X132893893Y-66630592D01*
X132937927Y-66577875D01*
X132971204Y-66535546D01*
X132993332Y-66527291D01*
X132996840Y-66589319D01*
X132980118Y-66674322D01*
X132931392Y-66778540D01*
X132928247Y-66783367D01*
X132901047Y-66833512D01*
X132891472Y-66887054D01*
X132892781Y-66896524D01*
X132901836Y-66962048D01*
G37*
G36*
X139098917Y-65848390D02*
G01*
X139153080Y-65872409D01*
X139191234Y-65886794D01*
X139260899Y-65937422D01*
X139327302Y-65975677D01*
X139391300Y-65960445D01*
X139417061Y-65882971D01*
X139424889Y-65843776D01*
X139460905Y-65860968D01*
X139483723Y-65908140D01*
X139457188Y-65993681D01*
X139433819Y-66053346D01*
X139449974Y-66122897D01*
X139492512Y-66143936D01*
X139550944Y-66120908D01*
X139577567Y-66051502D01*
X139582180Y-66025934D01*
X139622043Y-65993681D01*
X139627091Y-65994208D01*
X139647718Y-66031815D01*
X139637001Y-66110219D01*
X139601596Y-66203214D01*
X139595585Y-66212369D01*
X139548158Y-66284597D01*
X139499093Y-66327488D01*
X139435198Y-66354818D01*
X139398624Y-66368260D01*
X139353722Y-66442865D01*
X139336808Y-66566401D01*
X139337892Y-66613299D01*
X139351700Y-66626477D01*
X139395722Y-66573151D01*
X139421100Y-66540806D01*
X139449154Y-66520852D01*
X139455911Y-66564120D01*
X139455575Y-66573579D01*
X139434810Y-66661735D01*
X139391521Y-66770685D01*
X139381481Y-66792040D01*
X139364443Y-66836335D01*
X139357440Y-66854543D01*
X139350250Y-66916896D01*
X139353132Y-66936651D01*
X139362103Y-66998149D01*
X139395192Y-67117353D01*
X139451710Y-67293559D01*
X139486877Y-67402575D01*
X139539691Y-67580568D01*
X139566831Y-67708608D01*
X139569749Y-67803766D01*
X139549896Y-67883112D01*
X139508726Y-67963714D01*
X139463513Y-68032791D01*
X139418232Y-68075345D01*
X139403610Y-68047047D01*
X139424787Y-67948811D01*
X139428374Y-67936589D01*
X139443363Y-67800089D01*
X139411000Y-67637831D01*
X139404163Y-67615292D01*
X139384416Y-67556285D01*
X139370307Y-67535894D01*
X139360165Y-67562436D01*
X139352315Y-67644231D01*
X139345087Y-67789597D01*
X139336808Y-68006850D01*
X139334572Y-68064125D01*
X139324659Y-68259821D01*
X139313004Y-68421765D01*
X139300880Y-68534466D01*
X139289557Y-68582433D01*
X139286246Y-68603110D01*
X139308802Y-68678805D01*
X139320151Y-68702211D01*
X139359778Y-68783936D01*
X139361143Y-68786389D01*
X139417183Y-68901007D01*
X139450684Y-68995832D01*
X139459622Y-69057267D01*
X139441975Y-69071717D01*
X139395722Y-69025585D01*
X139370084Y-68998050D01*
X139352456Y-69003963D01*
X139342398Y-69056627D01*
X139337865Y-69167206D01*
X139336808Y-69346861D01*
X139341603Y-69585493D01*
X139360033Y-69781286D01*
X139390821Y-69906003D01*
X139396078Y-69927299D01*
X139453690Y-70039046D01*
X139536819Y-70132036D01*
X139623407Y-70237382D01*
X139657819Y-70345131D01*
X139655517Y-70410468D01*
X139635796Y-70421195D01*
X139579114Y-70369004D01*
X139542270Y-70336003D01*
X139474088Y-70310917D01*
X139377636Y-70333098D01*
X139309576Y-70363875D01*
X139222992Y-70446010D01*
X139173189Y-70576063D01*
X139152580Y-70768720D01*
X139147158Y-70872144D01*
X139132547Y-71063200D01*
X139114188Y-71245009D01*
X139084033Y-71500602D01*
X139009821Y-71305198D01*
X138987420Y-71239986D01*
X138950268Y-71094560D01*
X138935577Y-70976746D01*
X138934353Y-70940735D01*
X138911640Y-70816714D01*
X138868032Y-70724561D01*
X138813754Y-70688467D01*
X138795958Y-70695247D01*
X138775039Y-70748657D01*
X138770512Y-70776346D01*
X138734913Y-70808847D01*
X138715108Y-70800840D01*
X138690404Y-70732009D01*
X138692259Y-70600715D01*
X138692317Y-70600078D01*
X138665362Y-70536359D01*
X138598326Y-70475104D01*
X138525439Y-70447709D01*
X138518547Y-70456441D01*
X138513483Y-70517486D01*
X138518626Y-70609966D01*
X138531503Y-70701850D01*
X138549640Y-70761108D01*
X138557206Y-70788377D01*
X138515593Y-70808847D01*
X138462551Y-70781863D01*
X138412908Y-70705918D01*
X138383911Y-70607358D01*
X138377100Y-70439277D01*
X138426182Y-70254868D01*
X138534281Y-70036904D01*
X138550877Y-70007637D01*
X138603261Y-69906003D01*
X138654660Y-69906003D01*
X138674723Y-69926066D01*
X138694786Y-69906003D01*
X138674723Y-69885940D01*
X138654660Y-69906003D01*
X138603261Y-69906003D01*
X138623684Y-69866378D01*
X138674430Y-69746640D01*
X138692976Y-69671751D01*
X138689246Y-69628478D01*
X138673046Y-69632112D01*
X138636046Y-69705371D01*
X138602117Y-69767413D01*
X138581067Y-69773416D01*
X138579745Y-69715549D01*
X138598146Y-69601291D01*
X138636262Y-69438121D01*
X138659647Y-69344249D01*
X138675901Y-69246272D01*
X138671825Y-69158030D01*
X138645185Y-69051091D01*
X138593746Y-68897021D01*
X138536137Y-68709797D01*
X138534814Y-68702211D01*
X138694786Y-68702211D01*
X138714849Y-68722275D01*
X138734913Y-68702211D01*
X138714849Y-68682148D01*
X138694786Y-68702211D01*
X138534814Y-68702211D01*
X138512059Y-68571784D01*
X138519471Y-68467851D01*
X138520540Y-68463310D01*
X138538744Y-68367632D01*
X138541925Y-68310979D01*
X138541861Y-68301288D01*
X138579085Y-68280884D01*
X138604162Y-68302990D01*
X138605517Y-68376994D01*
X138605715Y-68458723D01*
X138639543Y-68567594D01*
X138660136Y-68598873D01*
X138676674Y-68599042D01*
X138686349Y-68549552D01*
X138690905Y-68440209D01*
X138692088Y-68260821D01*
X138691191Y-68086063D01*
X138686893Y-67972511D01*
X138677167Y-67917324D01*
X138659984Y-67909352D01*
X138633321Y-67937448D01*
X138599999Y-67979850D01*
X138577901Y-67988218D01*
X138574407Y-67926619D01*
X138577253Y-67900770D01*
X138611168Y-67798889D01*
X138671100Y-67684728D01*
X138677249Y-67674873D01*
X138735942Y-67552084D01*
X138731904Y-67474862D01*
X138722118Y-67452417D01*
X138703199Y-67357028D01*
X138695401Y-67232612D01*
X138694437Y-67198919D01*
X138673707Y-67031303D01*
X138649800Y-66936651D01*
X138734913Y-66936651D01*
X138754976Y-66956714D01*
X138775039Y-66936651D01*
X138754976Y-66916587D01*
X138734913Y-66936651D01*
X138649800Y-66936651D01*
X138634597Y-66876461D01*
X138621547Y-66836727D01*
X138616298Y-66815465D01*
X138703359Y-66815465D01*
X138708162Y-66863086D01*
X138720231Y-66869363D01*
X138734913Y-66836335D01*
X138732017Y-66815092D01*
X138708162Y-66809584D01*
X138703359Y-66815465D01*
X138616298Y-66815465D01*
X138589006Y-66704916D01*
X138577460Y-66600563D01*
X138577995Y-66583958D01*
X138583475Y-66534271D01*
X138599565Y-66549812D01*
X138634597Y-66635703D01*
X138636827Y-66641484D01*
X138670418Y-66721563D01*
X138685528Y-66731254D01*
X138689348Y-66675829D01*
X138680434Y-66606067D01*
X138648791Y-66478488D01*
X138602044Y-66334755D01*
X138514072Y-66093997D01*
X138253323Y-66007215D01*
X138116819Y-65963546D01*
X138004013Y-65930748D01*
X137942417Y-65916931D01*
X137927199Y-65918741D01*
X137898149Y-65965677D01*
X137899575Y-66077622D01*
X137931741Y-66257543D01*
X137994909Y-66508407D01*
X138010934Y-66568224D01*
X138050310Y-66731629D01*
X138073191Y-66852986D01*
X138079492Y-66925016D01*
X138069124Y-66940439D01*
X138042003Y-66891975D01*
X137998041Y-66772343D01*
X137973272Y-66705313D01*
X137903608Y-66554376D01*
X137830913Y-66433504D01*
X137764390Y-66315203D01*
X137731753Y-66128695D01*
X137730559Y-66086745D01*
X137716477Y-65985702D01*
X137691627Y-65933491D01*
X137673793Y-65927972D01*
X137650224Y-65961218D01*
X137643140Y-65982784D01*
X137614777Y-65968044D01*
X137577301Y-65914509D01*
X137544379Y-65843252D01*
X137533166Y-65791459D01*
X138000402Y-65791459D01*
X138002841Y-65835177D01*
X138084571Y-65874342D01*
X138245129Y-65908547D01*
X138317984Y-65922599D01*
X138439389Y-65957459D01*
X138515468Y-65994719D01*
X138576786Y-66068450D01*
X138634181Y-66171502D01*
X138660503Y-66227553D01*
X138683447Y-66253803D01*
X138691513Y-66212369D01*
X138687207Y-66160746D01*
X138658058Y-66091990D01*
X138631989Y-66045644D01*
X138607900Y-65953554D01*
X138605506Y-65938525D01*
X138568324Y-65868229D01*
X138477697Y-65839921D01*
X138380541Y-65816756D01*
X138265390Y-65764008D01*
X138246233Y-65751960D01*
X138160423Y-65722512D01*
X138065079Y-65749151D01*
X138000402Y-65791459D01*
X137533166Y-65791459D01*
X137529678Y-65775348D01*
X137528289Y-65761530D01*
X137511599Y-65718809D01*
X138595848Y-65718809D01*
X138598078Y-65735632D01*
X138638644Y-65784599D01*
X138671735Y-65807485D01*
X138694786Y-65796999D01*
X138680856Y-65761475D01*
X138635895Y-65721448D01*
X138595848Y-65718809D01*
X137511599Y-65718809D01*
X137493043Y-65671310D01*
X137425529Y-65572354D01*
X137393248Y-65534690D01*
X137345511Y-65484390D01*
X137332363Y-65491232D01*
X137341559Y-65552290D01*
X137358875Y-65627068D01*
X137389986Y-65723283D01*
X137391154Y-65726088D01*
X137399236Y-65774322D01*
X137351946Y-65767968D01*
X137278187Y-65702012D01*
X137227983Y-65570745D01*
X137210110Y-65389173D01*
X137210110Y-65231279D01*
X137590735Y-65231279D01*
X137663640Y-65230459D01*
X137855984Y-65221521D01*
X138028851Y-65204830D01*
X138151873Y-65182999D01*
X138276984Y-65157485D01*
X138387718Y-65162495D01*
X138523618Y-65202151D01*
X138586977Y-65222498D01*
X138672395Y-65241190D01*
X138773771Y-65250846D01*
X138907110Y-65252042D01*
X139088413Y-65245355D01*
X139333684Y-65231364D01*
X139412576Y-65226536D01*
X139629136Y-65214425D01*
X139784272Y-65209071D01*
X139892316Y-65211223D01*
X139967599Y-65221631D01*
X140024452Y-65241043D01*
X140077206Y-65270207D01*
X140175989Y-65316664D01*
X140257279Y-65308462D01*
X140310720Y-65231279D01*
X140311350Y-65229659D01*
X140328355Y-65218257D01*
X140336800Y-65279069D01*
X140327637Y-65357710D01*
X140295558Y-65414496D01*
X140274977Y-65436726D01*
X140305589Y-65476439D01*
X140353685Y-65502066D01*
X140413584Y-65497775D01*
X140459097Y-65421880D01*
X140481704Y-65369196D01*
X140494120Y-65367853D01*
X140497930Y-65441943D01*
X140495919Y-65494500D01*
X140459930Y-65596852D01*
X140372683Y-65664809D01*
X140225305Y-65703373D01*
X140008925Y-65717544D01*
X139863022Y-65721142D01*
X139775605Y-65728113D01*
X139756148Y-65739412D01*
X139798262Y-65756213D01*
X139819411Y-65763388D01*
X139813980Y-65773552D01*
X139737135Y-65774869D01*
X139594682Y-65767586D01*
X139392427Y-65751947D01*
X139136177Y-65728199D01*
X138915481Y-65706451D01*
X139015797Y-65788984D01*
X139018946Y-65791560D01*
X139026600Y-65796999D01*
X139098917Y-65848390D01*
G37*
G36*
X134438152Y-66201752D02*
G01*
X134440886Y-66204231D01*
X134444346Y-66258295D01*
X134441007Y-66283789D01*
X134430197Y-66366332D01*
X134400867Y-66508379D01*
X134331200Y-66802383D01*
X134430023Y-67086547D01*
X134457831Y-67177409D01*
X134482393Y-67257662D01*
X134485791Y-67268764D01*
X134509210Y-67414081D01*
X134502722Y-67544913D01*
X134493897Y-67593538D01*
X134466743Y-67683456D01*
X134438167Y-67719115D01*
X134418839Y-67694917D01*
X134423918Y-67622759D01*
X134424987Y-67530041D01*
X134386163Y-67412095D01*
X134374144Y-67390353D01*
X134350689Y-67356677D01*
X134336001Y-67362536D01*
X134328015Y-67418110D01*
X134324668Y-67533576D01*
X134323893Y-67719115D01*
X134323884Y-67735888D01*
X134324927Y-67915982D01*
X134329429Y-68027685D01*
X134339269Y-68082006D01*
X134356325Y-68089958D01*
X134382476Y-68062552D01*
X134415660Y-68020688D01*
X134437754Y-68015100D01*
X134441390Y-68083718D01*
X134425224Y-68171338D01*
X134374843Y-68277783D01*
X134352454Y-68324420D01*
X134324365Y-68461428D01*
X134312476Y-68648943D01*
X134315338Y-68869038D01*
X134331504Y-69103784D01*
X134359526Y-69335253D01*
X134397955Y-69545517D01*
X134445346Y-69716648D01*
X134500249Y-69830716D01*
X134524580Y-69852260D01*
X134537700Y-69826142D01*
X134540857Y-69741327D01*
X134535594Y-69587185D01*
X134534044Y-69556290D01*
X134523325Y-69406986D01*
X134509951Y-69292533D01*
X134496447Y-69235614D01*
X134481264Y-69190583D01*
X134458203Y-69085413D01*
X134435018Y-68948990D01*
X134417915Y-68836368D01*
X134393932Y-68684032D01*
X134375286Y-68571801D01*
X134373282Y-68559432D01*
X134370815Y-68475647D01*
X134390522Y-68441390D01*
X134411154Y-68453515D01*
X134449679Y-68524631D01*
X134485319Y-68639422D01*
X134511554Y-68774756D01*
X134521866Y-68907499D01*
X134521905Y-68913846D01*
X134533528Y-69062745D01*
X134559537Y-69203791D01*
X134577527Y-69289569D01*
X134599948Y-69441675D01*
X134616329Y-69604122D01*
X134618824Y-69635582D01*
X134638215Y-69781701D01*
X134670687Y-69874044D01*
X134723546Y-69935164D01*
X134744130Y-69950923D01*
X134865884Y-70004996D01*
X134970645Y-69986498D01*
X135052003Y-69901560D01*
X135090395Y-69793385D01*
X135816570Y-69793385D01*
X135827720Y-69845813D01*
X135844953Y-69923738D01*
X135863295Y-70046445D01*
X135865997Y-70067837D01*
X135900670Y-70133531D01*
X135952813Y-70148992D01*
X135989534Y-70159880D01*
X136079548Y-70178792D01*
X136144755Y-70210038D01*
X136156217Y-70220100D01*
X136180594Y-70227014D01*
X136240647Y-70244047D01*
X136322068Y-70193227D01*
X136346983Y-70147076D01*
X136320272Y-70102272D01*
X136222214Y-70086572D01*
X136102915Y-70068384D01*
X135956709Y-69990695D01*
X135857929Y-69866849D01*
X135830998Y-69811349D01*
X135816570Y-69793385D01*
X135090395Y-69793385D01*
X135103552Y-69756314D01*
X135118884Y-69556890D01*
X135115109Y-69472599D01*
X135106527Y-69410428D01*
X135095878Y-69414455D01*
X135063879Y-69470960D01*
X135023130Y-69481085D01*
X135003406Y-69434518D01*
X135003409Y-69434193D01*
X135021317Y-69364981D01*
X135063596Y-69269426D01*
X135091983Y-69207644D01*
X135119323Y-69083246D01*
X135103329Y-68942956D01*
X135042979Y-68761624D01*
X135029457Y-68726969D01*
X134953710Y-68508493D01*
X134916835Y-68338596D01*
X134916450Y-68199629D01*
X134950175Y-68073946D01*
X134965645Y-68037781D01*
X135011904Y-67953446D01*
X135047642Y-67919747D01*
X135076068Y-67926180D01*
X135076872Y-67962055D01*
X135041482Y-68048270D01*
X135026456Y-68095381D01*
X135025475Y-68203522D01*
X135058904Y-68361137D01*
X135118257Y-68581832D01*
X135120898Y-68092652D01*
X135120943Y-68085002D01*
X135124662Y-67896056D01*
X135132509Y-67738638D01*
X135143362Y-67628989D01*
X135156098Y-67583349D01*
X135162896Y-67572518D01*
X135168429Y-67497660D01*
X135158646Y-67368923D01*
X135135787Y-67203732D01*
X135102089Y-67019516D01*
X135092360Y-66976777D01*
X135203791Y-66976777D01*
X135223854Y-66996840D01*
X135243917Y-66976777D01*
X135223854Y-66956714D01*
X135203791Y-66976777D01*
X135092360Y-66976777D01*
X135074092Y-66896524D01*
X135163665Y-66896524D01*
X135183728Y-66916587D01*
X135203791Y-66896524D01*
X135183728Y-66876461D01*
X135163665Y-66896524D01*
X135074092Y-66896524D01*
X135059792Y-66833702D01*
X135056483Y-66820617D01*
X135020034Y-66665870D01*
X135006173Y-66572819D01*
X135014167Y-66527344D01*
X135043286Y-66515324D01*
X135068879Y-66535076D01*
X135086232Y-66605608D01*
X135092834Y-66666992D01*
X135121082Y-66776145D01*
X135125216Y-66784330D01*
X135136020Y-66768336D01*
X135138913Y-66687951D01*
X135133222Y-66555450D01*
X135125859Y-66459453D01*
X135104610Y-66305772D01*
X135070578Y-66212613D01*
X135017235Y-66166556D01*
X134938056Y-66154186D01*
X134852709Y-66132622D01*
X134759057Y-66070590D01*
X134725580Y-66032341D01*
X134698453Y-65975586D01*
X134719165Y-65957420D01*
X134782749Y-65993917D01*
X134796867Y-66005021D01*
X134848934Y-66020380D01*
X134901283Y-65969540D01*
X134922677Y-65938609D01*
X134930039Y-65895688D01*
X134870144Y-65871542D01*
X134815238Y-65842888D01*
X134768748Y-65771226D01*
X134766809Y-65759884D01*
X134768790Y-65717410D01*
X134806658Y-65742891D01*
X134892850Y-65791143D01*
X134970497Y-65766149D01*
X135034544Y-65672646D01*
X135081038Y-65516438D01*
X135106026Y-65303329D01*
X135116446Y-65146561D01*
X135134761Y-64934218D01*
X135154799Y-64749763D01*
X135187792Y-64488942D01*
X135276045Y-64764021D01*
X135331699Y-64983672D01*
X135364297Y-65350972D01*
X135365113Y-65437733D01*
X135373852Y-65580198D01*
X135394698Y-65667832D01*
X135430782Y-65717914D01*
X135453438Y-65735384D01*
X135480165Y-65740465D01*
X135486079Y-65694134D01*
X135475838Y-65582385D01*
X135470221Y-65518286D01*
X135469811Y-65427456D01*
X135481579Y-65391785D01*
X135532063Y-65413841D01*
X135583908Y-65491527D01*
X135605055Y-65597830D01*
X135619078Y-65723933D01*
X135665112Y-65857594D01*
X135732371Y-65954563D01*
X135809586Y-65993066D01*
X135835655Y-65971687D01*
X135877092Y-65903396D01*
X135904949Y-65848690D01*
X135919307Y-65847049D01*
X135923350Y-65921091D01*
X135913893Y-65999710D01*
X135881656Y-66056518D01*
X135862767Y-66079111D01*
X135883366Y-66113565D01*
X135942834Y-66135240D01*
X136016350Y-66130503D01*
X136055112Y-66121701D01*
X136086571Y-66128137D01*
X136084191Y-66152825D01*
X136030855Y-66253235D01*
X135921203Y-66337269D01*
X135889091Y-66355276D01*
X135823466Y-66422217D01*
X135808507Y-66526386D01*
X135811915Y-66597106D01*
X135823386Y-66619309D01*
X135848937Y-66575513D01*
X135864847Y-66545713D01*
X135873634Y-66554061D01*
X135862807Y-66635703D01*
X135839497Y-66842338D01*
X135843201Y-66896524D01*
X135848688Y-66976777D01*
X135851651Y-67020119D01*
X135903345Y-67197054D01*
X135905778Y-67203547D01*
X135937205Y-67329111D01*
X135949723Y-67465965D01*
X135944221Y-67591594D01*
X135921589Y-67683482D01*
X135882716Y-67719115D01*
X135863400Y-67694369D01*
X135868732Y-67621706D01*
X135874737Y-67546612D01*
X135850654Y-67451169D01*
X135831135Y-67435545D01*
X135818321Y-67475902D01*
X135812115Y-67581286D01*
X135811562Y-67759241D01*
X135813292Y-67864465D01*
X135818284Y-67990989D01*
X135825281Y-68064037D01*
X135833347Y-68070221D01*
X135848328Y-68033015D01*
X135886081Y-68000000D01*
X135901059Y-68025359D01*
X135889143Y-68104536D01*
X135851431Y-68218176D01*
X135793259Y-68346372D01*
X135781991Y-68369374D01*
X135751078Y-68486246D01*
X135767233Y-68624913D01*
X135769487Y-68635237D01*
X135786995Y-68760407D01*
X135799609Y-68928525D01*
X135804729Y-69106224D01*
X135806986Y-69202903D01*
X135828798Y-69435612D01*
X135870394Y-69639172D01*
X135927644Y-69796663D01*
X135996414Y-69891163D01*
X136025144Y-69913314D01*
X136046187Y-69923524D01*
X136011861Y-69876419D01*
X135984416Y-69823507D01*
X135981308Y-69743922D01*
X135982502Y-69740525D01*
X135988811Y-69684890D01*
X135983130Y-69586195D01*
X135964373Y-69435562D01*
X135931453Y-69224113D01*
X135883284Y-68942970D01*
X135852295Y-68765510D01*
X135827391Y-68614894D01*
X135814772Y-68519898D01*
X135813331Y-68467799D01*
X135821955Y-68445872D01*
X135839537Y-68441390D01*
X135854583Y-68447231D01*
X135894058Y-68508829D01*
X135929845Y-68619971D01*
X135955904Y-68758647D01*
X135966192Y-68902843D01*
X135966311Y-68914197D01*
X135978386Y-69064313D01*
X136004087Y-69203791D01*
X136022077Y-69289569D01*
X136044498Y-69441675D01*
X136060879Y-69604122D01*
X136077371Y-69734537D01*
X136130288Y-69889158D01*
X136218946Y-69977936D01*
X136347223Y-70006319D01*
X136386919Y-69999555D01*
X136475848Y-69938289D01*
X136541079Y-69835085D01*
X136562624Y-69716814D01*
X136557159Y-69625118D01*
X136539770Y-69715403D01*
X136521894Y-69771730D01*
X136490432Y-69805687D01*
X136482835Y-69798844D01*
X136478293Y-69738172D01*
X136492020Y-69635150D01*
X136518274Y-69499582D01*
X136545740Y-69338004D01*
X136556531Y-69217986D01*
X136550511Y-69116972D01*
X136527544Y-69012404D01*
X136487496Y-68881724D01*
X136454877Y-68775394D01*
X136447250Y-68742338D01*
X136608214Y-68742338D01*
X136628278Y-68762401D01*
X136648341Y-68742338D01*
X136628278Y-68722275D01*
X136608214Y-68742338D01*
X136447250Y-68742338D01*
X136424218Y-68642523D01*
X136419481Y-68537082D01*
X136437454Y-68430101D01*
X136478198Y-68260821D01*
X136484293Y-68401264D01*
X136484479Y-68405066D01*
X136507961Y-68525982D01*
X136554184Y-68621959D01*
X136560376Y-68629726D01*
X136598299Y-68671565D01*
X136606954Y-68653754D01*
X136593035Y-68566785D01*
X136580390Y-68465445D01*
X136569392Y-68311696D01*
X136563433Y-68145458D01*
X136562910Y-68118691D01*
X136557755Y-67998833D01*
X136549762Y-67931189D01*
X136540428Y-67929779D01*
X136524650Y-67966912D01*
X136482189Y-68000000D01*
X136474509Y-67998685D01*
X136462259Y-67952723D01*
X136493610Y-67842999D01*
X136567889Y-67672089D01*
X136594965Y-67604022D01*
X136610536Y-67527793D01*
X136613015Y-67432588D01*
X136601295Y-67306591D01*
X136574271Y-67137984D01*
X136542875Y-66976777D01*
X136648341Y-66976777D01*
X136668404Y-66996840D01*
X136688467Y-66976777D01*
X136668404Y-66956714D01*
X136648341Y-66976777D01*
X136542875Y-66976777D01*
X136530834Y-66914950D01*
X136526951Y-66896524D01*
X136608214Y-66896524D01*
X136628278Y-66916587D01*
X136648341Y-66896524D01*
X136628278Y-66876461D01*
X136608214Y-66896524D01*
X136526951Y-66896524D01*
X136469878Y-66625671D01*
X136464147Y-66549028D01*
X136487071Y-66515324D01*
X136513142Y-66535079D01*
X136530782Y-66605608D01*
X136537384Y-66666992D01*
X136565632Y-66776145D01*
X136569766Y-66784330D01*
X136580569Y-66768336D01*
X136583463Y-66687951D01*
X136577772Y-66555450D01*
X136570408Y-66459453D01*
X136549160Y-66305772D01*
X136515128Y-66212613D01*
X136461785Y-66166556D01*
X136382606Y-66154186D01*
X136297259Y-66132622D01*
X136203607Y-66070590D01*
X136170130Y-66032341D01*
X136143003Y-65975586D01*
X136163714Y-65957420D01*
X136227298Y-65993917D01*
X136241417Y-66005021D01*
X136293484Y-66020380D01*
X136345832Y-65969540D01*
X136367226Y-65938609D01*
X136374589Y-65895688D01*
X136314694Y-65871542D01*
X136259788Y-65842888D01*
X136213298Y-65771226D01*
X136211359Y-65759884D01*
X136213339Y-65717410D01*
X136251207Y-65742891D01*
X136332919Y-65788486D01*
X136412211Y-65766072D01*
X136478421Y-65678697D01*
X136525752Y-65534212D01*
X136548405Y-65340469D01*
X136548929Y-65327368D01*
X136559334Y-65138982D01*
X136574234Y-64951696D01*
X136591800Y-64781314D01*
X136610204Y-64643640D01*
X136627617Y-64554475D01*
X136642211Y-64529626D01*
X136654108Y-64544467D01*
X136697479Y-64641424D01*
X136739037Y-64790792D01*
X136774323Y-64970906D01*
X136798882Y-65160101D01*
X136808255Y-65336714D01*
X136809417Y-65435084D01*
X136818525Y-65578802D01*
X136839037Y-65667222D01*
X136873780Y-65716733D01*
X136893780Y-65732203D01*
X136921710Y-65738165D01*
X136929944Y-65692514D01*
X136923649Y-65581204D01*
X136921184Y-65489647D01*
X136936641Y-65411036D01*
X136967882Y-65397519D01*
X137006824Y-65443317D01*
X137045384Y-65542653D01*
X137075481Y-65689748D01*
X137102955Y-65816296D01*
X137153681Y-65928036D01*
X137214505Y-65985021D01*
X137276125Y-65979418D01*
X137329239Y-65903396D01*
X137351728Y-65850651D01*
X137364283Y-65847965D01*
X137368072Y-65921091D01*
X137358503Y-65999702D01*
X137326205Y-66056518D01*
X137305624Y-66078748D01*
X137336237Y-66118461D01*
X137384332Y-66144088D01*
X137444231Y-66139797D01*
X137489744Y-66063902D01*
X137526034Y-65973617D01*
X137528578Y-66060620D01*
X137525686Y-66132081D01*
X137478903Y-66250750D01*
X137365753Y-66337269D01*
X137330425Y-66357225D01*
X137267685Y-66423187D01*
X137254891Y-66526386D01*
X137255818Y-66545338D01*
X137264775Y-66599802D01*
X137277897Y-66585545D01*
X137292878Y-66548339D01*
X137330630Y-66515324D01*
X137334606Y-66516349D01*
X137342120Y-66559255D01*
X137322886Y-66645734D01*
X137281384Y-66794332D01*
X137269993Y-66896524D01*
X137264158Y-66948877D01*
X137268040Y-66976777D01*
X137285694Y-67103664D01*
X137347283Y-67292964D01*
X137390333Y-67418181D01*
X137443089Y-67662187D01*
X137435069Y-67855699D01*
X137366307Y-68000000D01*
X137283530Y-68100316D01*
X137311644Y-68000000D01*
X137333893Y-67885751D01*
X137330989Y-67752021D01*
X137297746Y-67578673D01*
X137281623Y-67521029D01*
X137269896Y-67511108D01*
X137262130Y-67559303D01*
X137257172Y-67672994D01*
X137253870Y-67859557D01*
X137250477Y-67996758D01*
X137240360Y-68192619D01*
X137225817Y-68359716D01*
X137208742Y-68472306D01*
X137192951Y-68553956D01*
X137193553Y-68654507D01*
X137231176Y-68738236D01*
X137233680Y-68742338D01*
X137248218Y-68766149D01*
X137297042Y-68868423D01*
X137331730Y-68971626D01*
X137345265Y-69051407D01*
X137330630Y-69083412D01*
X137309606Y-69072673D01*
X137277897Y-69013191D01*
X137270637Y-69020084D01*
X137263703Y-69093603D01*
X137258194Y-69222190D01*
X137254891Y-69392980D01*
X137254521Y-69431337D01*
X137254375Y-69617193D01*
X137259370Y-69740384D01*
X137271721Y-69815941D01*
X137293645Y-69858892D01*
X137327360Y-69884265D01*
X137380429Y-69915946D01*
X137493142Y-70027550D01*
X137528578Y-70159659D01*
X137526010Y-70223498D01*
X137516136Y-70236417D01*
X137489744Y-70176856D01*
X137461641Y-70120354D01*
X137410115Y-70090969D01*
X137330489Y-70130367D01*
X137313663Y-70147076D01*
X137294908Y-70165700D01*
X137320458Y-70193286D01*
X137353644Y-70233412D01*
X137370616Y-70319539D01*
X137370616Y-70425439D01*
X137308151Y-70336258D01*
X137279672Y-70298538D01*
X137223285Y-70255725D01*
X137149971Y-70259742D01*
X137033843Y-70307915D01*
X136949239Y-70356090D01*
X136946282Y-70357774D01*
X136877261Y-70422971D01*
X136852528Y-70467772D01*
X136827658Y-70512821D01*
X136794594Y-70638412D01*
X136775192Y-70810834D01*
X136766574Y-71041174D01*
X136765863Y-71340521D01*
X136763490Y-71414622D01*
X136746843Y-71479548D01*
X136716383Y-71469144D01*
X136674510Y-71385279D01*
X136623622Y-71229821D01*
X136583169Y-71108036D01*
X136531203Y-70997666D01*
X136485277Y-70948477D01*
X136419086Y-70913192D01*
X136333884Y-70846467D01*
X136301887Y-70820681D01*
X136227968Y-70790889D01*
X136181374Y-70809583D01*
X136182892Y-70873095D01*
X136188957Y-70899958D01*
X136169858Y-70929226D01*
X136134634Y-70907458D01*
X136100071Y-70826082D01*
X136086571Y-70706661D01*
X136070700Y-70639461D01*
X136011717Y-70570977D01*
X136005909Y-70567909D01*
X135960979Y-70553876D01*
X135944008Y-70587180D01*
X135945501Y-70684026D01*
X135947021Y-70706297D01*
X135961764Y-70815022D01*
X135982598Y-70883181D01*
X135991782Y-70903359D01*
X135978592Y-70928611D01*
X135909940Y-70905867D01*
X135844762Y-70813789D01*
X135802001Y-70647641D01*
X135789654Y-70583455D01*
X135750290Y-70467772D01*
X136166824Y-70467772D01*
X136186887Y-70487835D01*
X136206951Y-70467772D01*
X136186887Y-70447709D01*
X136166824Y-70467772D01*
X135750290Y-70467772D01*
X135736917Y-70428471D01*
X135664887Y-70324920D01*
X135663515Y-70324293D01*
X135992613Y-70324293D01*
X136027971Y-70383647D01*
X136053578Y-70416772D01*
X136085838Y-70436243D01*
X136110488Y-70391948D01*
X136121091Y-70356090D01*
X136106406Y-70298166D01*
X136032215Y-70293688D01*
X136012542Y-70299017D01*
X135992613Y-70324293D01*
X135663515Y-70324293D01*
X135582340Y-70287204D01*
X135570569Y-70289551D01*
X135506076Y-70331783D01*
X135482013Y-70356090D01*
X135428419Y-70410227D01*
X135422838Y-70416989D01*
X135389929Y-70467772D01*
X135379488Y-70483884D01*
X135348499Y-70569125D01*
X135328422Y-70685060D01*
X135317806Y-70844039D01*
X135315201Y-71058409D01*
X135319157Y-71340521D01*
X135318574Y-71402909D01*
X135304799Y-71476054D01*
X135276023Y-71473525D01*
X135234638Y-71396949D01*
X135183036Y-71247953D01*
X135143330Y-71132690D01*
X135074815Y-71004550D01*
X134986083Y-70918844D01*
X134969443Y-70907063D01*
X134884932Y-70841718D01*
X134837108Y-70795607D01*
X134831938Y-70789147D01*
X134784568Y-70777990D01*
X134743068Y-70814054D01*
X134738343Y-70873095D01*
X134744407Y-70899958D01*
X134725308Y-70929226D01*
X134690084Y-70907458D01*
X134655521Y-70826082D01*
X134642022Y-70706661D01*
X134626632Y-70639648D01*
X134569642Y-70572302D01*
X134523676Y-70556554D01*
X134500678Y-70586854D01*
X134492974Y-70681238D01*
X134492754Y-70698158D01*
X134503563Y-70807597D01*
X134530141Y-70879068D01*
X134548548Y-70914798D01*
X134507904Y-70929226D01*
X134505525Y-70929191D01*
X134432524Y-70890675D01*
X134380787Y-70793223D01*
X134361137Y-70656913D01*
X134354355Y-70590106D01*
X134299895Y-70467772D01*
X134682148Y-70467772D01*
X134702211Y-70487835D01*
X134722274Y-70467772D01*
X134702211Y-70447709D01*
X134682148Y-70467772D01*
X134299895Y-70467772D01*
X134283108Y-70430064D01*
X134182791Y-70324293D01*
X134548064Y-70324293D01*
X134583421Y-70383647D01*
X134609028Y-70416772D01*
X134641288Y-70436243D01*
X134665938Y-70391948D01*
X134676541Y-70356090D01*
X134661856Y-70298166D01*
X134587666Y-70293688D01*
X134567993Y-70299017D01*
X134548064Y-70324293D01*
X134182791Y-70324293D01*
X134137757Y-70276810D01*
X134061947Y-70227014D01*
X134361137Y-70227014D01*
X134381200Y-70247077D01*
X134401263Y-70227014D01*
X134381200Y-70206951D01*
X134361137Y-70227014D01*
X134061947Y-70227014D01*
X133922655Y-70135520D01*
X133867062Y-70105828D01*
X134329584Y-70105828D01*
X134334386Y-70153449D01*
X134346455Y-70159727D01*
X134361137Y-70126698D01*
X134358241Y-70105455D01*
X134334386Y-70099947D01*
X134329584Y-70105828D01*
X133867062Y-70105828D01*
X133859473Y-70101775D01*
X133749372Y-70046848D01*
X133683496Y-70025729D01*
X133643660Y-70034555D01*
X133611676Y-70069464D01*
X133586836Y-70102280D01*
X133562847Y-70115659D01*
X133558609Y-70056483D01*
X133566981Y-70001898D01*
X133603889Y-69942945D01*
X133623007Y-69918394D01*
X133583508Y-69878215D01*
X133539079Y-69861156D01*
X133467159Y-69876100D01*
X133438230Y-69948497D01*
X133434011Y-69974003D01*
X133397339Y-70006319D01*
X133376725Y-69975393D01*
X133382583Y-69899857D01*
X133409656Y-69808791D01*
X133452146Y-69731286D01*
X133462546Y-69721990D01*
X134330112Y-69721990D01*
X134341822Y-69796949D01*
X134380346Y-69898535D01*
X134388948Y-69917395D01*
X134424894Y-70019943D01*
X134433245Y-70090944D01*
X134449326Y-70126698D01*
X134452436Y-70133613D01*
X134541706Y-70159880D01*
X134635299Y-70179206D01*
X134700205Y-70210038D01*
X134731818Y-70227014D01*
X134758794Y-70241500D01*
X134841597Y-70238498D01*
X134854647Y-70227014D01*
X135805687Y-70227014D01*
X135825750Y-70247077D01*
X135845813Y-70227014D01*
X135825750Y-70206951D01*
X135805687Y-70227014D01*
X134854647Y-70227014D01*
X134895785Y-70190811D01*
X134905294Y-70148992D01*
X134873959Y-70101242D01*
X134773784Y-70086572D01*
X134624287Y-70057341D01*
X134485615Y-69962664D01*
X134398051Y-69816416D01*
X134384775Y-69779519D01*
X134352378Y-69715987D01*
X134331778Y-69713594D01*
X134330112Y-69721990D01*
X133462546Y-69721990D01*
X133496715Y-69691449D01*
X133587055Y-69641994D01*
X133611121Y-69631432D01*
X133663402Y-69577210D01*
X133674334Y-69475637D01*
X133673332Y-69455187D01*
X133664369Y-69400535D01*
X133651328Y-69414455D01*
X133619330Y-69470960D01*
X133578580Y-69481085D01*
X133558857Y-69434518D01*
X133558859Y-69434193D01*
X133576767Y-69364981D01*
X133619046Y-69269426D01*
X133623691Y-69260423D01*
X133664271Y-69160528D01*
X133674139Y-69062252D01*
X133652220Y-68940813D01*
X133597439Y-68771430D01*
X133535267Y-68588681D01*
X133486985Y-68416351D01*
X133467509Y-68284954D01*
X133474501Y-68176737D01*
X133505625Y-68073946D01*
X133521096Y-68037781D01*
X133567354Y-67953446D01*
X133603093Y-67919747D01*
X133631518Y-67926180D01*
X133632323Y-67962055D01*
X133596932Y-68048270D01*
X133581906Y-68095381D01*
X133580925Y-68203522D01*
X133614355Y-68361137D01*
X133673707Y-68581832D01*
X133676348Y-68072833D01*
X133676394Y-68064903D01*
X133680871Y-67860913D01*
X133690685Y-67677980D01*
X133704423Y-67535833D01*
X133720670Y-67454203D01*
X133739938Y-67370965D01*
X133727939Y-67321180D01*
X133703344Y-67286324D01*
X133688785Y-67257662D01*
X134280884Y-67257662D01*
X134300947Y-67277725D01*
X134321011Y-67257662D01*
X134300947Y-67237598D01*
X134280884Y-67257662D01*
X133688785Y-67257662D01*
X133659546Y-67200098D01*
X133649486Y-67177409D01*
X134240758Y-67177409D01*
X134260821Y-67197472D01*
X134280884Y-67177409D01*
X134260821Y-67157346D01*
X134240758Y-67177409D01*
X133649486Y-67177409D01*
X133612147Y-67093196D01*
X133574163Y-66995236D01*
X133558609Y-66935839D01*
X133558611Y-66935483D01*
X133579369Y-66912379D01*
X133620903Y-66934889D01*
X133653154Y-66986809D01*
X133654305Y-66990036D01*
X133661054Y-66969309D01*
X133665529Y-66882699D01*
X133667348Y-66742726D01*
X133666128Y-66561915D01*
X133662843Y-66373072D01*
X133659249Y-66279432D01*
X134326403Y-66279432D01*
X134328623Y-66361404D01*
X134342720Y-66455134D01*
X134370400Y-66356570D01*
X134383702Y-66283789D01*
X134373551Y-66233477D01*
X134337831Y-66244369D01*
X134326403Y-66279432D01*
X133659249Y-66279432D01*
X133657127Y-66224140D01*
X133651654Y-66174249D01*
X134321011Y-66174249D01*
X134341074Y-66194313D01*
X134361137Y-66174249D01*
X134341074Y-66154186D01*
X134321011Y-66174249D01*
X133651654Y-66174249D01*
X133646326Y-66125674D01*
X133627410Y-66061954D01*
X133597346Y-66017259D01*
X133553103Y-65975868D01*
X133471861Y-65892308D01*
X133400397Y-65787658D01*
X133359512Y-65690991D01*
X133356363Y-65620011D01*
X133398104Y-65592417D01*
X133415129Y-65597730D01*
X133438230Y-65648313D01*
X133450917Y-65692504D01*
X133512799Y-65729171D01*
X133606200Y-65726988D01*
X133708649Y-65688067D01*
X133797673Y-65614522D01*
X133805609Y-65601953D01*
X133834378Y-65510675D01*
X133862180Y-65358602D01*
X133887009Y-65160929D01*
X133906861Y-64932854D01*
X133919729Y-64689573D01*
X133925416Y-64529068D01*
X133996459Y-64689573D01*
X134018492Y-64746396D01*
X134063361Y-64904334D01*
X134092554Y-65064991D01*
X134105631Y-65152865D01*
X134143366Y-65289704D01*
X134192363Y-65364124D01*
X134248040Y-65367221D01*
X134262846Y-65350744D01*
X134264816Y-65287410D01*
X134258752Y-65260547D01*
X134277851Y-65231279D01*
X134313225Y-65253191D01*
X134347706Y-65334941D01*
X134361137Y-65455256D01*
X134365135Y-65517945D01*
X134377918Y-65552290D01*
X134389009Y-65553980D01*
X134448140Y-65572703D01*
X134468260Y-65572523D01*
X134499147Y-65527451D01*
X134512464Y-65445381D01*
X134505502Y-65354821D01*
X134475551Y-65284282D01*
X134454341Y-65244500D01*
X134495254Y-65231279D01*
X134495801Y-65231281D01*
X134568562Y-65267067D01*
X134617890Y-65360386D01*
X134642231Y-65491680D01*
X134640030Y-65641395D01*
X134609735Y-65789973D01*
X134549793Y-65917860D01*
X134463721Y-66056963D01*
X134423171Y-66156796D01*
X134428987Y-66174249D01*
X134438152Y-66201752D01*
G37*
G36*
X130581184Y-65527800D02*
G01*
X130705618Y-65576233D01*
X130796138Y-65552377D01*
X130851420Y-65456746D01*
X130870142Y-65289854D01*
X130870162Y-65283088D01*
X130874148Y-65154921D01*
X130883705Y-64984398D01*
X130896897Y-64806493D01*
X130923653Y-64489978D01*
X130994237Y-64649965D01*
X131005329Y-64676804D01*
X131048701Y-64821385D01*
X131067798Y-64954439D01*
X131068801Y-64981040D01*
X131086738Y-65117147D01*
X131120552Y-65236175D01*
X131162728Y-65317158D01*
X131205745Y-65339132D01*
X131227183Y-65322929D01*
X131245769Y-65257055D01*
X131247279Y-65223769D01*
X131271571Y-65191153D01*
X131306259Y-65215251D01*
X131338816Y-65297766D01*
X131351658Y-65415130D01*
X131355656Y-65477819D01*
X131368440Y-65512164D01*
X131380298Y-65514056D01*
X131440143Y-65533239D01*
X131453869Y-65536825D01*
X131484396Y-65512054D01*
X131490623Y-65420472D01*
X131490480Y-65416524D01*
X131478489Y-65310166D01*
X131456679Y-65238891D01*
X131448842Y-65212403D01*
X131488321Y-65191153D01*
X131490782Y-65191186D01*
X131562622Y-65228442D01*
X131610544Y-65322783D01*
X131633207Y-65454840D01*
X131629272Y-65605246D01*
X131610620Y-65692662D01*
X131597398Y-65754631D01*
X131588696Y-65772986D01*
X131536244Y-65883627D01*
X131517509Y-65912050D01*
X131452694Y-66022941D01*
X131413161Y-66109922D01*
X131401832Y-66134123D01*
X131389216Y-66161075D01*
X131348954Y-66194313D01*
X131332831Y-66217345D01*
X131326757Y-66251691D01*
X131318020Y-66301096D01*
X131312808Y-66425039D01*
X131314650Y-66537889D01*
X131322201Y-66605152D01*
X131340074Y-66614478D01*
X131372998Y-66577875D01*
X131406275Y-66535546D01*
X131428403Y-66527291D01*
X131431911Y-66589319D01*
X131415189Y-66674322D01*
X131366463Y-66778540D01*
X131363318Y-66783367D01*
X131336118Y-66833512D01*
X131326543Y-66887054D01*
X131336907Y-66962048D01*
X131348577Y-67003016D01*
X131369524Y-67076550D01*
X131426708Y-67248613D01*
X131479489Y-67413055D01*
X131531438Y-67621213D01*
X131546327Y-67779852D01*
X131524856Y-67901829D01*
X131467729Y-68000000D01*
X131384952Y-68100316D01*
X131412325Y-68000000D01*
X131426458Y-67942590D01*
X131436972Y-67856398D01*
X131431260Y-67753987D01*
X131409067Y-67604223D01*
X131404699Y-67579047D01*
X131381443Y-67485544D01*
X131360345Y-67469323D01*
X131341894Y-67527875D01*
X131326576Y-67658695D01*
X131314879Y-67859277D01*
X131307292Y-68127113D01*
X131305718Y-68224804D01*
X131304515Y-68436737D01*
X131308613Y-68587843D01*
X131319177Y-68692202D01*
X131337371Y-68763890D01*
X131364361Y-68816988D01*
X131410078Y-68910476D01*
X131431911Y-69009417D01*
X131430660Y-69059748D01*
X131415885Y-69073610D01*
X131369711Y-69020860D01*
X131357939Y-69006871D01*
X131335504Y-68991364D01*
X131322061Y-69012478D01*
X131316264Y-69081101D01*
X131316764Y-69208120D01*
X131322212Y-69404423D01*
X131323801Y-69450903D01*
X131336977Y-69680243D01*
X131360044Y-69847727D01*
X131397517Y-69968958D01*
X131453913Y-70059537D01*
X131533749Y-70135064D01*
X131586055Y-70191944D01*
X131634063Y-70285871D01*
X131650844Y-70375299D01*
X131627162Y-70430972D01*
X131610085Y-70433746D01*
X131592417Y-70392592D01*
X131589142Y-70371631D01*
X131538658Y-70319511D01*
X131450091Y-70301736D01*
X131353174Y-70326519D01*
X131336869Y-70335673D01*
X131264492Y-70393522D01*
X131212073Y-70477246D01*
X131175255Y-70600429D01*
X131149685Y-70776655D01*
X131131007Y-71019510D01*
X131118135Y-71200659D01*
X131103317Y-71351526D01*
X131088563Y-71453520D01*
X131075709Y-71490995D01*
X131054332Y-71466558D01*
X131019614Y-71383301D01*
X130981420Y-71262718D01*
X130946177Y-71127588D01*
X130920317Y-71000694D01*
X130910268Y-70904815D01*
X130894916Y-70804003D01*
X130850738Y-70706168D01*
X130816336Y-70663436D01*
X130788259Y-70655552D01*
X130765923Y-70718111D01*
X130750469Y-70758415D01*
X130714277Y-70786521D01*
X130682898Y-70748794D01*
X130669510Y-70653998D01*
X130657962Y-70573304D01*
X130608697Y-70483398D01*
X130535887Y-70447709D01*
X130525459Y-70456386D01*
X130514174Y-70521097D01*
X130518920Y-70628278D01*
X130523677Y-70683324D01*
X130522969Y-70773315D01*
X130508989Y-70808847D01*
X130471424Y-70795678D01*
X130419666Y-70723203D01*
X130385355Y-70606860D01*
X130371822Y-70468910D01*
X130382402Y-70331618D01*
X130420426Y-70217244D01*
X130437685Y-70186072D01*
X130508081Y-70059032D01*
X130581585Y-69926485D01*
X130608264Y-69873917D01*
X130648609Y-69765726D01*
X130656461Y-69692313D01*
X130655573Y-69689012D01*
X130641554Y-69662921D01*
X130634038Y-69715403D01*
X130622377Y-69771564D01*
X130589257Y-69805687D01*
X130588872Y-69805687D01*
X130564397Y-69802987D01*
X130553612Y-69784518D01*
X130557803Y-69734717D01*
X130578255Y-69638026D01*
X130616253Y-69478883D01*
X130616287Y-69478740D01*
X130648103Y-69340707D01*
X130662021Y-69240408D01*
X130656234Y-69149353D01*
X130628934Y-69039057D01*
X130578312Y-68881032D01*
X130549634Y-68792458D01*
X130511330Y-68659579D01*
X130496676Y-68567247D01*
X130503199Y-68492169D01*
X130528426Y-68411049D01*
X130583602Y-68260821D01*
X130587706Y-68401264D01*
X130587845Y-68405213D01*
X130610130Y-68526057D01*
X130656121Y-68621959D01*
X130685651Y-68657841D01*
X130707307Y-68674275D01*
X130694971Y-68628708D01*
X130690725Y-68611906D01*
X130679018Y-68517576D01*
X130669829Y-68374815D01*
X130664855Y-68207381D01*
X130663315Y-68130152D01*
X130657916Y-68005833D01*
X130650384Y-67934497D01*
X130641850Y-67929779D01*
X130609903Y-67986243D01*
X130569116Y-67996414D01*
X130549299Y-67949842D01*
X130555144Y-67921074D01*
X130588874Y-67831197D01*
X130642590Y-67716159D01*
X130648651Y-67704051D01*
X130705341Y-67555244D01*
X130705432Y-67455337D01*
X130692019Y-67422780D01*
X130677275Y-67409335D01*
X130672330Y-67471669D01*
X130663149Y-67535540D01*
X130636332Y-67557878D01*
X130600706Y-67521745D01*
X130564980Y-67437304D01*
X130537861Y-67314720D01*
X130535015Y-67295206D01*
X130510891Y-67139028D01*
X130479653Y-66946962D01*
X130447310Y-66756082D01*
X130439399Y-66709332D01*
X130413316Y-66536139D01*
X130395121Y-66385115D01*
X130388359Y-66284597D01*
X130382277Y-66219137D01*
X130465933Y-66219137D01*
X130468701Y-66337744D01*
X130479481Y-66478346D01*
X130496929Y-66622664D01*
X130519698Y-66752420D01*
X130546445Y-66849333D01*
X130575618Y-66956695D01*
X130592077Y-67089737D01*
X130603412Y-67199108D01*
X130629383Y-67297788D01*
X130636852Y-67309961D01*
X130652237Y-67285761D01*
X130662231Y-67183066D01*
X130666690Y-67003016D01*
X130662502Y-66830739D01*
X130640248Y-66598228D01*
X130602169Y-66390652D01*
X130551897Y-66226398D01*
X130493064Y-66123856D01*
X130489813Y-66121020D01*
X130472522Y-66140802D01*
X130465933Y-66219137D01*
X130382277Y-66219137D01*
X130382213Y-66218444D01*
X130330309Y-66098656D01*
X130241027Y-66021703D01*
X130133196Y-65994556D01*
X130025645Y-66024187D01*
X129937203Y-66117565D01*
X129933943Y-66123393D01*
X129887548Y-66233500D01*
X129884216Y-66251691D01*
X129870241Y-66327975D01*
X129874884Y-66372676D01*
X129891479Y-66368355D01*
X129928621Y-66294629D01*
X129935617Y-66279361D01*
X129969495Y-66210569D01*
X129982497Y-66210994D01*
X129985551Y-66277314D01*
X129982882Y-66321729D01*
X129962196Y-66444297D01*
X129927454Y-66582107D01*
X129909792Y-66643605D01*
X129891017Y-66735524D01*
X129893122Y-66819666D01*
X129918459Y-66923703D01*
X129945099Y-67003016D01*
X129969380Y-67075303D01*
X129977479Y-67098711D01*
X130030910Y-67277316D01*
X130051844Y-67416062D01*
X130044794Y-67542943D01*
X130035609Y-67593348D01*
X130008285Y-67683433D01*
X129979617Y-67719115D01*
X129959449Y-67687612D01*
X129965266Y-67607987D01*
X129971061Y-67534547D01*
X129929604Y-67417386D01*
X129923941Y-67410060D01*
X129899327Y-67387299D01*
X129883366Y-67400858D01*
X129874143Y-67461719D01*
X129869746Y-67580863D01*
X129868258Y-67769273D01*
X129869063Y-67913251D01*
X129873097Y-68061985D01*
X129879776Y-68163240D01*
X129888338Y-68200632D01*
X129910522Y-68179503D01*
X129945985Y-68110347D01*
X129982274Y-68020063D01*
X129984818Y-68114188D01*
X129974224Y-68182851D01*
X129932768Y-68299197D01*
X129875436Y-68411479D01*
X129818942Y-68482575D01*
X129809874Y-68502360D01*
X129828359Y-68562828D01*
X129830807Y-68567825D01*
X129844527Y-68640217D01*
X129855763Y-68772933D01*
X129863411Y-68948893D01*
X129866368Y-69151021D01*
X129869142Y-69393843D01*
X129879374Y-69596647D01*
X129899333Y-69737641D01*
X129931295Y-69826441D01*
X129977538Y-69872668D01*
X130040339Y-69885940D01*
X130049167Y-69886281D01*
X130130316Y-69912560D01*
X130206341Y-69966377D01*
X130254598Y-70027482D01*
X130252443Y-70075624D01*
X130233467Y-70082622D01*
X130190125Y-70049894D01*
X130184073Y-70040774D01*
X130151091Y-70025799D01*
X130110642Y-70081151D01*
X130094428Y-70113583D01*
X130090744Y-70157253D01*
X130146455Y-70166824D01*
X130194301Y-70170028D01*
X130228120Y-70183606D01*
X130231856Y-70202001D01*
X130254001Y-70267832D01*
X130263949Y-70297142D01*
X130254432Y-70314449D01*
X130194264Y-70281807D01*
X130151699Y-70258572D01*
X130093060Y-70257052D01*
X130024254Y-70312729D01*
X130005213Y-70334022D01*
X129969921Y-70395821D01*
X129943278Y-70488813D01*
X129921400Y-70629331D01*
X129900404Y-70833710D01*
X129888647Y-70972180D01*
X129875328Y-71156093D01*
X129867037Y-71306695D01*
X129865220Y-71400711D01*
X129862079Y-71495839D01*
X129843197Y-71527027D01*
X129810159Y-71485191D01*
X129764989Y-71373033D01*
X129709711Y-71193251D01*
X129663486Y-71009303D01*
X129636408Y-70830100D01*
X129641233Y-70690965D01*
X129646939Y-70649587D01*
X129650414Y-70492913D01*
X129623963Y-70374936D01*
X129571149Y-70314782D01*
X129560453Y-70314042D01*
X129535806Y-70353091D01*
X129527073Y-70433160D01*
X129535250Y-70525309D01*
X129561330Y-70600603D01*
X129569166Y-70627091D01*
X129529688Y-70648341D01*
X129523590Y-70648108D01*
X129452737Y-70606050D01*
X129403754Y-70503765D01*
X129385466Y-70358959D01*
X129377402Y-70284151D01*
X129339340Y-70169998D01*
X129282637Y-70081810D01*
X129221392Y-70046445D01*
X129186998Y-70067542D01*
X129142378Y-70136730D01*
X129119200Y-70182136D01*
X129112079Y-70167064D01*
X129120577Y-70079670D01*
X129123555Y-70051693D01*
X129118578Y-69953381D01*
X129077774Y-69908967D01*
X129036225Y-69907541D01*
X128995872Y-69966027D01*
X128976059Y-70012990D01*
X128935102Y-70046445D01*
X128917687Y-70036598D01*
X128919719Y-69982974D01*
X128929939Y-69950930D01*
X128944075Y-69861241D01*
X128947146Y-69847322D01*
X128995689Y-69785748D01*
X129084518Y-69720117D01*
X129156947Y-69671792D01*
X129209881Y-69603996D01*
X129220305Y-69510807D01*
X129219487Y-69494017D01*
X129210543Y-69439824D01*
X129197300Y-69454581D01*
X129165301Y-69511086D01*
X129124552Y-69521212D01*
X129104828Y-69474644D01*
X129104831Y-69474319D01*
X129122739Y-69405108D01*
X129165018Y-69309552D01*
X129187024Y-69265520D01*
X129212398Y-69195681D01*
X129218224Y-69121940D01*
X129202573Y-69026403D01*
X129163517Y-68891174D01*
X129099125Y-68698360D01*
X129040675Y-68512746D01*
X129000496Y-68334707D01*
X128999574Y-68225099D01*
X129016152Y-68175152D01*
X129051428Y-68125589D01*
X129077377Y-68136330D01*
X129076482Y-68210663D01*
X129077853Y-68271363D01*
X129099486Y-68373721D01*
X129134150Y-68481707D01*
X129172561Y-68567154D01*
X129205435Y-68601895D01*
X129210010Y-68590893D01*
X129216707Y-68518093D01*
X129220374Y-68392152D01*
X129220305Y-68230726D01*
X129218388Y-68133969D01*
X129212955Y-68008093D01*
X129205582Y-67935541D01*
X129197300Y-67929779D01*
X129165353Y-67986243D01*
X129124566Y-67996414D01*
X129104749Y-67949842D01*
X129110594Y-67921074D01*
X129144324Y-67831197D01*
X129198040Y-67716159D01*
X129204101Y-67704051D01*
X129260791Y-67555244D01*
X129260882Y-67455337D01*
X129247469Y-67422780D01*
X129232725Y-67409335D01*
X129227780Y-67471669D01*
X129221710Y-67522983D01*
X129196114Y-67556451D01*
X129159685Y-67529688D01*
X129122135Y-67452559D01*
X129093172Y-67334926D01*
X129089597Y-67312611D01*
X129065464Y-67165186D01*
X129034638Y-66980355D01*
X129002887Y-66792747D01*
X128994559Y-66742652D01*
X128968831Y-66569133D01*
X128950844Y-66418447D01*
X128944075Y-66318624D01*
X128934128Y-66219137D01*
X129021383Y-66219137D01*
X129024151Y-66337744D01*
X129034932Y-66478346D01*
X129052379Y-66622664D01*
X129075148Y-66752420D01*
X129101895Y-66849333D01*
X129103126Y-66852631D01*
X129132722Y-66974772D01*
X129145322Y-67109800D01*
X129145572Y-67124703D01*
X129158512Y-67238695D01*
X129184834Y-67317851D01*
X129194370Y-67326751D01*
X129210994Y-67294568D01*
X129220878Y-67187515D01*
X129224346Y-67003016D01*
X129218813Y-66824582D01*
X129195239Y-66593772D01*
X129156537Y-66387744D01*
X129106398Y-66224953D01*
X129048514Y-66123856D01*
X129045263Y-66121020D01*
X129027972Y-66140802D01*
X129021383Y-66219137D01*
X128934128Y-66219137D01*
X128933023Y-66208085D01*
X128904796Y-66115642D01*
X128856940Y-66063367D01*
X128765001Y-66009660D01*
X128667468Y-65979805D01*
X128597811Y-65987747D01*
X128575788Y-66006471D01*
X128504331Y-66102189D01*
X128447386Y-66221280D01*
X128425691Y-66323312D01*
X128430644Y-66375914D01*
X128446857Y-66369856D01*
X128484071Y-66294629D01*
X128516714Y-66234175D01*
X128537600Y-66226652D01*
X128538398Y-66283961D01*
X128519209Y-66399094D01*
X128480135Y-66565046D01*
X128475064Y-66584677D01*
X128444898Y-66715653D01*
X128438965Y-66809729D01*
X128459464Y-66902976D01*
X128508597Y-67031469D01*
X128544924Y-67139165D01*
X128574835Y-67277725D01*
X128579207Y-67297979D01*
X128595578Y-67454119D01*
X128593423Y-67588847D01*
X128572129Y-67683425D01*
X128531084Y-67719115D01*
X128513774Y-67687300D01*
X128520717Y-67607987D01*
X128526511Y-67534547D01*
X128485055Y-67417386D01*
X128479391Y-67410060D01*
X128454777Y-67387299D01*
X128438816Y-67400858D01*
X128429594Y-67461719D01*
X128425196Y-67580863D01*
X128423709Y-67769273D01*
X128424513Y-67913251D01*
X128428547Y-68061985D01*
X128435226Y-68163240D01*
X128443789Y-68200632D01*
X128465972Y-68179503D01*
X128501435Y-68110347D01*
X128537725Y-68020063D01*
X128540268Y-68114188D01*
X128529674Y-68182851D01*
X128488218Y-68299197D01*
X128430886Y-68411479D01*
X128374393Y-68482575D01*
X128365324Y-68502360D01*
X128383810Y-68562828D01*
X128386257Y-68567825D01*
X128399977Y-68640217D01*
X128411213Y-68772933D01*
X128418861Y-68948893D01*
X128421818Y-69151021D01*
X128424915Y-69408051D01*
X128435495Y-69606076D01*
X128455908Y-69743133D01*
X128488512Y-69828966D01*
X128535668Y-69873320D01*
X128599733Y-69885940D01*
X128607012Y-69886227D01*
X128683446Y-69913670D01*
X128756176Y-69970331D01*
X128802704Y-70034131D01*
X128800528Y-70082989D01*
X128785715Y-70086472D01*
X128745950Y-70050501D01*
X128743671Y-70046888D01*
X128710147Y-70022703D01*
X128671705Y-70069933D01*
X128667821Y-70077086D01*
X128656693Y-70139017D01*
X128714006Y-70185095D01*
X128767518Y-70221980D01*
X128817021Y-70287204D01*
X128821434Y-70301471D01*
X128818997Y-70326553D01*
X128771958Y-70293920D01*
X128687640Y-70261397D01*
X128589526Y-70283977D01*
X128521100Y-70358952D01*
X128505282Y-70424830D01*
X128485954Y-70553228D01*
X128465999Y-70721567D01*
X128447454Y-70909164D01*
X128432351Y-71095333D01*
X128422727Y-71259389D01*
X128420614Y-71380647D01*
X128417101Y-71486205D01*
X128398655Y-71524627D01*
X128366309Y-71487555D01*
X128321374Y-71376569D01*
X128265161Y-71193251D01*
X128218936Y-71009303D01*
X128191859Y-70830100D01*
X128196684Y-70690965D01*
X128202389Y-70649587D01*
X128205864Y-70492913D01*
X128179413Y-70374936D01*
X128126600Y-70314782D01*
X128115904Y-70314042D01*
X128091256Y-70353091D01*
X128082523Y-70433160D01*
X128090700Y-70525309D01*
X128116780Y-70600603D01*
X128124617Y-70627091D01*
X128085138Y-70648341D01*
X128078379Y-70648059D01*
X128007543Y-70605371D01*
X127958956Y-70501874D01*
X127940916Y-70354476D01*
X127940318Y-70335404D01*
X127915989Y-70223463D01*
X127866251Y-70126567D01*
X127805162Y-70065862D01*
X127746782Y-70062492D01*
X127725522Y-70082923D01*
X127700158Y-70157155D01*
X127692330Y-70196350D01*
X127656314Y-70179158D01*
X127633113Y-70135760D01*
X127656314Y-70053391D01*
X127692133Y-69978993D01*
X127689133Y-69937746D01*
X127638428Y-69910964D01*
X127592001Y-69911485D01*
X127540655Y-69976892D01*
X127517634Y-70026941D01*
X127506055Y-70017430D01*
X127502069Y-69934744D01*
X127506924Y-69861802D01*
X127545651Y-69788299D01*
X127639968Y-69720117D01*
X127712397Y-69671792D01*
X127765331Y-69603996D01*
X127775756Y-69510807D01*
X127774937Y-69494017D01*
X127765993Y-69439824D01*
X127752750Y-69454581D01*
X127720752Y-69511086D01*
X127680002Y-69521212D01*
X127660278Y-69474644D01*
X127660281Y-69474319D01*
X127678189Y-69405108D01*
X127720468Y-69309552D01*
X127742474Y-69265520D01*
X127767848Y-69195681D01*
X127773674Y-69121940D01*
X127758024Y-69026403D01*
X127718967Y-68891174D01*
X127654576Y-68698360D01*
X127595925Y-68514461D01*
X127559898Y-68354064D01*
X127558129Y-68232728D01*
X127590703Y-68132435D01*
X127657704Y-68035168D01*
X127736647Y-67939810D01*
X127693898Y-68082818D01*
X127677835Y-68150331D01*
X127675978Y-68271893D01*
X127711602Y-68423892D01*
X127772055Y-68621959D01*
X127776233Y-68067583D01*
X127776401Y-68048235D01*
X127781731Y-67827266D01*
X127792334Y-67640401D01*
X127807040Y-67503017D01*
X127824680Y-67430489D01*
X127844898Y-67372581D01*
X127834711Y-67322780D01*
X127818501Y-67304846D01*
X127789519Y-67256855D01*
X128390879Y-67256855D01*
X128395682Y-67304476D01*
X128407751Y-67310753D01*
X128422432Y-67277725D01*
X128419537Y-67256482D01*
X128395682Y-67250974D01*
X128390879Y-67256855D01*
X127789519Y-67256855D01*
X127771856Y-67227607D01*
X127719814Y-67122403D01*
X127677497Y-67021048D01*
X127660031Y-66955352D01*
X127679023Y-66917625D01*
X127719707Y-66930668D01*
X127752750Y-66986809D01*
X127760021Y-66979814D01*
X127766951Y-66906148D01*
X127772455Y-66777434D01*
X127775756Y-66606533D01*
X127777124Y-66445581D01*
X127775566Y-66302472D01*
X127767326Y-66210930D01*
X127749159Y-66154965D01*
X127717819Y-66118590D01*
X127670063Y-66085817D01*
X127642762Y-66068126D01*
X127551227Y-65995142D01*
X127511399Y-65919906D01*
X127505605Y-65813112D01*
X127508305Y-65764156D01*
X127515448Y-65736331D01*
X127527844Y-65783017D01*
X127559257Y-65845468D01*
X127636748Y-65871395D01*
X127730887Y-65836644D01*
X128675574Y-65836644D01*
X128708296Y-65892097D01*
X128804113Y-65913428D01*
X128886149Y-65923477D01*
X129000272Y-65959036D01*
X129014156Y-65966392D01*
X129096915Y-66042468D01*
X129164039Y-66149636D01*
X129179391Y-66184708D01*
X129204205Y-66239373D01*
X129214727Y-66251691D01*
X129210682Y-66212558D01*
X129191793Y-66112869D01*
X129157785Y-65943523D01*
X129146941Y-65901217D01*
X129104208Y-65846457D01*
X129036749Y-65836644D01*
X130120123Y-65836644D01*
X130152846Y-65892097D01*
X130248663Y-65913428D01*
X130330699Y-65923477D01*
X130444821Y-65959036D01*
X130458706Y-65966392D01*
X130541465Y-66042468D01*
X130608589Y-66149636D01*
X130623941Y-66184708D01*
X130648755Y-66239373D01*
X130659277Y-66251691D01*
X130655232Y-66212558D01*
X130640370Y-66134123D01*
X131311532Y-66134123D01*
X131331595Y-66154186D01*
X131351658Y-66134123D01*
X131331595Y-66114060D01*
X131311532Y-66134123D01*
X130640370Y-66134123D01*
X130636343Y-66112869D01*
X130602334Y-65943523D01*
X130591490Y-65901217D01*
X130548757Y-65846457D01*
X130457452Y-65833175D01*
X130355786Y-65816723D01*
X130269134Y-65772986D01*
X130629383Y-65772986D01*
X130649447Y-65793049D01*
X130669510Y-65772986D01*
X130649447Y-65752922D01*
X130629383Y-65772986D01*
X130269134Y-65772986D01*
X130267127Y-65771973D01*
X130246013Y-65753635D01*
X130196300Y-65731761D01*
X130150166Y-65770215D01*
X130148913Y-65772986D01*
X130120123Y-65836644D01*
X129036749Y-65836644D01*
X129012902Y-65833175D01*
X128911237Y-65816723D01*
X128824585Y-65772986D01*
X129184834Y-65772986D01*
X129204897Y-65793049D01*
X129224960Y-65772986D01*
X129204897Y-65752922D01*
X129184834Y-65772986D01*
X128824585Y-65772986D01*
X128822578Y-65771973D01*
X128801463Y-65753635D01*
X128751751Y-65731761D01*
X128705616Y-65770215D01*
X128675574Y-65836644D01*
X127730887Y-65836644D01*
X127740284Y-65833175D01*
X127748825Y-65827594D01*
X127778327Y-65800012D01*
X127734932Y-65793663D01*
X127693062Y-65778379D01*
X127648415Y-65712836D01*
X127644096Y-65691668D01*
X127650363Y-65627795D01*
X127680136Y-65609226D01*
X127714757Y-65652837D01*
X127716026Y-65655959D01*
X127775528Y-65706072D01*
X127875807Y-65710622D01*
X127994894Y-65672776D01*
X128055410Y-65632543D01*
X128903949Y-65632543D01*
X128919335Y-65687593D01*
X128990421Y-65712796D01*
X129041710Y-65710606D01*
X129052206Y-65690647D01*
X129004265Y-65632543D01*
X128951676Y-65578455D01*
X128917793Y-65552290D01*
X128909775Y-65567221D01*
X128903949Y-65632543D01*
X128055410Y-65632543D01*
X128110820Y-65595704D01*
X128126876Y-65581238D01*
X128190428Y-65515534D01*
X128202948Y-65491294D01*
X128832269Y-65491294D01*
X128837072Y-65538915D01*
X128849141Y-65545193D01*
X128863823Y-65512164D01*
X128860927Y-65490921D01*
X128837072Y-65485413D01*
X128832269Y-65491294D01*
X128202948Y-65491294D01*
X128225137Y-65448334D01*
X128239916Y-65353394D01*
X128243676Y-65204472D01*
X128243962Y-65165252D01*
X128248171Y-64894111D01*
X128256509Y-64699913D01*
X128270026Y-64579763D01*
X128289771Y-64530766D01*
X128316794Y-64550025D01*
X128352144Y-64634647D01*
X128396869Y-64781734D01*
X128412694Y-64835813D01*
X128461595Y-64961291D01*
X128526227Y-65047278D01*
X128626892Y-65123984D01*
X128702026Y-65172242D01*
X128765256Y-65204291D01*
X128795401Y-65196292D01*
X128812047Y-65151114D01*
X128827075Y-65107492D01*
X128861800Y-65072459D01*
X128891416Y-65106620D01*
X128903949Y-65203191D01*
X128915514Y-65299401D01*
X128964886Y-65395789D01*
X129043081Y-65431911D01*
X129052391Y-65428135D01*
X129072634Y-65375344D01*
X129078574Y-65284578D01*
X129069897Y-65187049D01*
X129046289Y-65113971D01*
X129033943Y-65090248D01*
X129046942Y-65072605D01*
X129120506Y-65094802D01*
X129134032Y-65102847D01*
X129178875Y-65179636D01*
X129209802Y-65319957D01*
X129222539Y-65388367D01*
X129264859Y-65512164D01*
X129268390Y-65522492D01*
X129330772Y-65630069D01*
X129394865Y-65690647D01*
X129398261Y-65693857D01*
X129459431Y-65696618D01*
X129466056Y-65692278D01*
X129516609Y-65632543D01*
X130348499Y-65632543D01*
X130361794Y-65684592D01*
X130429092Y-65712796D01*
X130458719Y-65711746D01*
X130488199Y-65692662D01*
X130459566Y-65632543D01*
X130421499Y-65582371D01*
X130378973Y-65552290D01*
X130361291Y-65567283D01*
X130348499Y-65632543D01*
X129516609Y-65632543D01*
X129534206Y-65611750D01*
X129581847Y-65491294D01*
X130276819Y-65491294D01*
X130281621Y-65538915D01*
X130293691Y-65545193D01*
X130308372Y-65512164D01*
X130305477Y-65490921D01*
X130281621Y-65485413D01*
X130276819Y-65491294D01*
X129581847Y-65491294D01*
X129590405Y-65469657D01*
X129636484Y-65259855D01*
X129674276Y-64976203D01*
X129694787Y-64802677D01*
X129716197Y-64657165D01*
X129735251Y-64561537D01*
X129749415Y-64530805D01*
X129769793Y-64567247D01*
X129804573Y-64661725D01*
X129844048Y-64791105D01*
X129875360Y-64888750D01*
X129929123Y-65005506D01*
X129980052Y-65058994D01*
X130050901Y-65097538D01*
X130139383Y-65165454D01*
X130231214Y-65248176D01*
X130254410Y-65159475D01*
X130271840Y-65109102D01*
X130307025Y-65073100D01*
X130336280Y-65107845D01*
X130348499Y-65207649D01*
X130349016Y-65230056D01*
X130379159Y-65345017D01*
X130468661Y-65445635D01*
X130559771Y-65512164D01*
X130581184Y-65527800D01*
G37*
G36*
X155305253Y-119737301D02*
G01*
X155579162Y-119824741D01*
X155932284Y-119882505D01*
X156385153Y-119914654D01*
X156958306Y-119925249D01*
X157212224Y-119926339D01*
X157557896Y-119932101D01*
X157798649Y-119944944D01*
X157957988Y-119967403D01*
X158059417Y-120002016D01*
X158126442Y-120051320D01*
X158182961Y-120109885D01*
X158209383Y-120164646D01*
X158133285Y-120175482D01*
X158114122Y-120177440D01*
X157976167Y-120239286D01*
X157816545Y-120360946D01*
X157617477Y-120546410D01*
X157816513Y-120427688D01*
X157918415Y-120381723D01*
X158182076Y-120368152D01*
X158469688Y-120480815D01*
X158666137Y-120636655D01*
X158764415Y-120714617D01*
X158850980Y-120812994D01*
X158955429Y-120979337D01*
X159003855Y-121122683D01*
X158987886Y-121211893D01*
X158899152Y-121215828D01*
X158875514Y-121211288D01*
X158736155Y-121242918D01*
X158562140Y-121334993D01*
X158511952Y-121371502D01*
X158300215Y-121624608D01*
X158195971Y-121961873D01*
X158199336Y-122375993D01*
X158310424Y-122859669D01*
X158529353Y-123405598D01*
X158539697Y-123427420D01*
X158654917Y-123682845D01*
X158710994Y-123848092D01*
X158715465Y-123955710D01*
X158675870Y-124038247D01*
X158569864Y-124123635D01*
X158394633Y-124118705D01*
X158334089Y-124101195D01*
X158242547Y-124033454D01*
X158249171Y-123902386D01*
X158257984Y-123786798D01*
X158195789Y-123637394D01*
X158195028Y-123636631D01*
X158135540Y-123542365D01*
X158196391Y-123451468D01*
X158253985Y-123359743D01*
X158216729Y-123219182D01*
X158177802Y-123114598D01*
X158168059Y-122956540D01*
X158164730Y-122833908D01*
X158108975Y-122658722D01*
X158089177Y-122613912D01*
X158029966Y-122419196D01*
X157998553Y-122222608D01*
X158006973Y-122091124D01*
X158008800Y-122085608D01*
X158021668Y-121983725D01*
X158032866Y-121804433D01*
X158041063Y-121591545D01*
X158044929Y-121388872D01*
X158043135Y-121240229D01*
X158034349Y-121189429D01*
X158025453Y-121203315D01*
X157975827Y-121314714D01*
X157906856Y-121493383D01*
X157861912Y-121607099D01*
X157816735Y-121677018D01*
X157799850Y-121616401D01*
X157784246Y-121516590D01*
X157730075Y-121420917D01*
X157712220Y-121401465D01*
X157657985Y-121273982D01*
X157610051Y-121079719D01*
X157554805Y-120778554D01*
X157493922Y-121097828D01*
X157482510Y-121158616D01*
X157433420Y-121436273D01*
X157393644Y-121683163D01*
X157385398Y-121731662D01*
X157340783Y-121886714D01*
X157290751Y-121949225D01*
X157281766Y-121949047D01*
X157224696Y-121931487D01*
X157223493Y-121923121D01*
X157176527Y-121530553D01*
X157167522Y-121255311D01*
X157197329Y-121078106D01*
X157266803Y-120979650D01*
X157327902Y-120933523D01*
X157352059Y-120892052D01*
X157252639Y-120884979D01*
X157145449Y-120874464D01*
X157051341Y-120813650D01*
X157082362Y-120711209D01*
X157101004Y-120641496D01*
X157096369Y-120636655D01*
X157652951Y-120636655D01*
X157688426Y-120672130D01*
X157723901Y-120636655D01*
X157688426Y-120601180D01*
X157652951Y-120636655D01*
X157096369Y-120636655D01*
X157004025Y-120540214D01*
X156996808Y-120535717D01*
X156930754Y-120501137D01*
X156892822Y-120514381D01*
X156884202Y-120565705D01*
X156878632Y-120598871D01*
X156883275Y-120759702D01*
X156883804Y-120778024D01*
X156903958Y-121075261D01*
X156911182Y-121172605D01*
X156937061Y-121484489D01*
X156961487Y-121736376D01*
X156963195Y-121753987D01*
X156984894Y-121931487D01*
X156993935Y-122015307D01*
X156971313Y-122140675D01*
X156892796Y-122138361D01*
X156770103Y-122004388D01*
X156705656Y-121919689D01*
X156665735Y-121900001D01*
X156688433Y-122003238D01*
X156773784Y-122231588D01*
X156806639Y-122305576D01*
X156900561Y-122456692D01*
X156982610Y-122516823D01*
X157032418Y-122531171D01*
X157151101Y-122632337D01*
X157254183Y-122783117D01*
X157298203Y-122927020D01*
X157288944Y-122965958D01*
X157216906Y-122971601D01*
X157179666Y-122968268D01*
X157169412Y-123043883D01*
X157200980Y-123177366D01*
X157236098Y-123261795D01*
X157263232Y-123327031D01*
X157345032Y-123451193D01*
X157404201Y-123552629D01*
X157433193Y-123734992D01*
X157431255Y-123860575D01*
X157462312Y-124098270D01*
X157522103Y-124327790D01*
X157538248Y-124361515D01*
X157596056Y-124482273D01*
X157626187Y-124548484D01*
X157622679Y-124699872D01*
X157628872Y-124823121D01*
X157662786Y-124869174D01*
X157758717Y-124999443D01*
X157813980Y-125053797D01*
X157916592Y-125182498D01*
X157923706Y-125249649D01*
X157830326Y-125238569D01*
X157774063Y-125232577D01*
X157732777Y-125300037D01*
X157748768Y-125435649D01*
X157811846Y-125606126D01*
X157911819Y-125778181D01*
X158038497Y-125918527D01*
X158056757Y-125933399D01*
X158132034Y-125971978D01*
X158149599Y-125900240D01*
X158133085Y-125785363D01*
X158080406Y-125607754D01*
X158071792Y-125584327D01*
X158042587Y-125448239D01*
X158076697Y-125412119D01*
X158154581Y-125463887D01*
X158256697Y-125591462D01*
X158363504Y-125782764D01*
X158434671Y-125925004D01*
X158544672Y-126113478D01*
X158590175Y-126171758D01*
X158628669Y-126221060D01*
X158642352Y-126233968D01*
X158739595Y-126352815D01*
X158880572Y-126548664D01*
X159039752Y-126786404D01*
X159084844Y-126854981D01*
X159234552Y-127066722D01*
X159355622Y-127214752D01*
X159425263Y-127270454D01*
X159433901Y-127268711D01*
X159479189Y-127188670D01*
X159497644Y-127026141D01*
X159500609Y-126947573D01*
X159555028Y-126782140D01*
X159708638Y-126657191D01*
X159813916Y-126588556D01*
X159871810Y-126509367D01*
X159832015Y-126422593D01*
X159801574Y-126382935D01*
X159686766Y-126208210D01*
X159596084Y-126035702D01*
X159547853Y-125903942D01*
X159560395Y-125851459D01*
X159583911Y-125854944D01*
X159677148Y-125925854D01*
X159716866Y-125960429D01*
X159820311Y-125919593D01*
X159847792Y-125899238D01*
X159915242Y-125899767D01*
X159963586Y-126022572D01*
X160011616Y-126145910D01*
X160075160Y-126206208D01*
X160101875Y-126202759D01*
X160173252Y-126119141D01*
X160176040Y-125944838D01*
X160108363Y-125707980D01*
X160087047Y-125653986D01*
X160011879Y-125441000D01*
X159996285Y-125349764D01*
X160034301Y-125377318D01*
X160119964Y-125520702D01*
X160247313Y-125776956D01*
X160282520Y-125853694D01*
X160384726Y-126100202D01*
X160448414Y-126292685D01*
X160460996Y-126394754D01*
X160455418Y-126430466D01*
X160457125Y-126591173D01*
X160475002Y-126837912D01*
X160506767Y-127133822D01*
X160516437Y-127215068D01*
X160529728Y-127377906D01*
X160548958Y-127613504D01*
X160543169Y-127955266D01*
X160498597Y-128308457D01*
X160440540Y-128653973D01*
X160410416Y-128833253D01*
X160840901Y-129310226D01*
X160935303Y-129415956D01*
X161107662Y-129615865D01*
X161226867Y-129763842D01*
X161271387Y-129833705D01*
X161226651Y-129875727D01*
X161094013Y-129924729D01*
X161033622Y-129943562D01*
X160930169Y-130029515D01*
X160962213Y-130152652D01*
X161129488Y-130310073D01*
X161157380Y-130331804D01*
X161288863Y-130471556D01*
X161342337Y-130596218D01*
X161376545Y-130710803D01*
X161377083Y-130711515D01*
X161484236Y-130853415D01*
X161576507Y-130967171D01*
X161626136Y-131106932D01*
X161636298Y-131226648D01*
X161700431Y-131392746D01*
X161806914Y-131456487D01*
X161901715Y-131432379D01*
X161948362Y-131320841D01*
X161911109Y-131105833D01*
X161884031Y-130964493D01*
X161914333Y-130934193D01*
X161996831Y-131015002D01*
X162124228Y-131199677D01*
X162289226Y-131480979D01*
X162331427Y-131557442D01*
X162483363Y-131845266D01*
X162566269Y-132039402D01*
X162584463Y-132162240D01*
X162580994Y-132168318D01*
X162542262Y-132236173D01*
X162443984Y-132283592D01*
X162338028Y-132322533D01*
X162325773Y-132342280D01*
X162311950Y-132364554D01*
X162403257Y-132431241D01*
X162445500Y-132456803D01*
X162514561Y-132480652D01*
X162502791Y-132413270D01*
X162496045Y-132382252D01*
X162539864Y-132317007D01*
X162636873Y-132312718D01*
X162725856Y-132378834D01*
X162795423Y-132424726D01*
X162929932Y-132447872D01*
X163058635Y-132435529D01*
X163116080Y-132386425D01*
X163122057Y-132353127D01*
X163205929Y-132286109D01*
X163344582Y-132284192D01*
X163481089Y-132352645D01*
X163556716Y-132414926D01*
X163642045Y-132428655D01*
X163755062Y-132342965D01*
X163817215Y-132291904D01*
X163915413Y-132259605D01*
X163992396Y-132337797D01*
X164071429Y-132541046D01*
X164158004Y-132705453D01*
X164286750Y-132794138D01*
X164372636Y-132821556D01*
X164477049Y-132897826D01*
X164486202Y-132907834D01*
X164556738Y-132882440D01*
X164588173Y-132839231D01*
X165682871Y-132839231D01*
X165692145Y-132871294D01*
X165696199Y-132885312D01*
X165743416Y-132946431D01*
X165788255Y-133004473D01*
X165941035Y-133163124D01*
X166072658Y-133286728D01*
X166191899Y-133391321D01*
X166237868Y-133420826D01*
X166237528Y-133417307D01*
X166211963Y-133326250D01*
X166158211Y-133164802D01*
X166070008Y-133015713D01*
X165931744Y-132888940D01*
X165788429Y-132820339D01*
X165682871Y-132839231D01*
X164588173Y-132839231D01*
X164654423Y-132748167D01*
X164783787Y-132586171D01*
X164928845Y-132521182D01*
X165020430Y-132507513D01*
X165159432Y-132435593D01*
X165215219Y-132391998D01*
X165244572Y-132429681D01*
X165238334Y-132461079D01*
X165155884Y-132541427D01*
X165113528Y-132568686D01*
X165138147Y-132646903D01*
X165154160Y-132659187D01*
X165304397Y-132686132D01*
X165563845Y-132661547D01*
X165757737Y-132633768D01*
X165897079Y-132644011D01*
X166009902Y-132719216D01*
X166155065Y-132881258D01*
X166245272Y-132977400D01*
X166405547Y-133108054D01*
X166527551Y-133159281D01*
X166627205Y-133194059D01*
X166663566Y-133331905D01*
X166670378Y-133386420D01*
X166689665Y-133420826D01*
X166755364Y-133538025D01*
X166767478Y-133559634D01*
X166987348Y-133769844D01*
X167137782Y-133912244D01*
X167245922Y-134014609D01*
X167446577Y-134305431D01*
X167514963Y-134578179D01*
X167520280Y-134628536D01*
X167572397Y-134812293D01*
X167662130Y-135025138D01*
X167727251Y-135184080D01*
X167814517Y-135475405D01*
X167875571Y-135772897D01*
X167910316Y-135974621D01*
X167981936Y-136302656D01*
X168058551Y-136579359D01*
X168091272Y-136690885D01*
X168124426Y-136858144D01*
X168143783Y-137061783D01*
X168150556Y-137328112D01*
X168145960Y-137683439D01*
X168131209Y-138154075D01*
X168114070Y-138546773D01*
X168078687Y-139062100D01*
X168033565Y-139440153D01*
X167978917Y-139678771D01*
X167949337Y-139770416D01*
X167908793Y-139950128D01*
X167911464Y-140051562D01*
X167918524Y-140069910D01*
X167925603Y-140204364D01*
X167904746Y-140398756D01*
X167892708Y-140461148D01*
X167845459Y-140617385D01*
X167797306Y-140679951D01*
X167771120Y-140672328D01*
X167698705Y-140564765D01*
X167640605Y-140350807D01*
X167602493Y-140057001D01*
X167590041Y-139709892D01*
X167583863Y-139573421D01*
X167523063Y-139378163D01*
X167371194Y-139188095D01*
X167333454Y-139149213D01*
X167231443Y-139029261D01*
X167183246Y-138914099D01*
X167176689Y-138755183D01*
X167199594Y-138503968D01*
X167207497Y-138429048D01*
X167224149Y-138206053D01*
X167208702Y-138064530D01*
X167149453Y-137957102D01*
X167034701Y-137836396D01*
X167007484Y-137808832D01*
X166837737Y-137601718D01*
X166709833Y-137393511D01*
X166703809Y-137381194D01*
X166574380Y-137194916D01*
X166421453Y-137064839D01*
X166376825Y-137039460D01*
X166288940Y-136951459D01*
X166311865Y-136842972D01*
X166368018Y-136698528D01*
X166357274Y-136533673D01*
X166240217Y-136444140D01*
X166156090Y-136400914D01*
X166056433Y-136268277D01*
X166012129Y-136192064D01*
X165915822Y-136165890D01*
X165899480Y-136170559D01*
X165758718Y-136155386D01*
X165589105Y-136085256D01*
X165446427Y-135988766D01*
X165386471Y-135894517D01*
X165373539Y-135764978D01*
X165341873Y-135579166D01*
X165321881Y-135453176D01*
X165342642Y-135388099D01*
X165430560Y-135403365D01*
X165443589Y-135407902D01*
X165520159Y-135421495D01*
X165482170Y-135361986D01*
X165438212Y-135262467D01*
X165464432Y-135050476D01*
X165493183Y-134947172D01*
X165522706Y-134798168D01*
X165500836Y-134733949D01*
X165423298Y-134720174D01*
X165345189Y-134760855D01*
X165275389Y-134890845D01*
X165178687Y-135025588D01*
X164991235Y-135116792D01*
X164761190Y-135153598D01*
X164535886Y-135128569D01*
X164362655Y-135034268D01*
X164273782Y-134973733D01*
X164127001Y-134947619D01*
X163974967Y-134934483D01*
X163892903Y-134809560D01*
X163885466Y-134566744D01*
X163893976Y-134341503D01*
X163865401Y-134061806D01*
X163825775Y-133939728D01*
X164322225Y-133939728D01*
X164323039Y-133955784D01*
X164353513Y-134010677D01*
X164364894Y-134007412D01*
X164428650Y-133939728D01*
X164439736Y-133912244D01*
X164397362Y-133868778D01*
X164376768Y-133871504D01*
X164322225Y-133939728D01*
X163825775Y-133939728D01*
X163797225Y-133851775D01*
X163697501Y-133746548D01*
X163571309Y-133682409D01*
X163406468Y-133571659D01*
X163254610Y-133491389D01*
X163116757Y-133478340D01*
X163045617Y-133484736D01*
X162997830Y-133408633D01*
X162999559Y-133360877D01*
X163026738Y-133311952D01*
X163116142Y-133315103D01*
X163304482Y-133365118D01*
X163462594Y-133393710D01*
X163605284Y-133351194D01*
X163686057Y-133321508D01*
X163788488Y-133411418D01*
X163827100Y-133459542D01*
X163899497Y-133506749D01*
X163965042Y-133443079D01*
X163982439Y-133414441D01*
X164030857Y-133241551D01*
X164507833Y-133241551D01*
X164528543Y-133392125D01*
X164591842Y-133488187D01*
X164738271Y-133557554D01*
X164761701Y-133558465D01*
X164869762Y-133538025D01*
X164866150Y-133458857D01*
X164751689Y-133305522D01*
X164689368Y-133243655D01*
X164571046Y-133188334D01*
X164507833Y-133241551D01*
X164030857Y-133241551D01*
X164039566Y-133210454D01*
X164021213Y-132987631D01*
X163992737Y-132915144D01*
X164889823Y-132915144D01*
X164891668Y-132922224D01*
X164960773Y-132946431D01*
X165209097Y-132946431D01*
X165223659Y-132967664D01*
X165284234Y-133017381D01*
X165291314Y-133015537D01*
X165315521Y-132946431D01*
X165312634Y-132926985D01*
X165240384Y-132875482D01*
X165214722Y-132881052D01*
X165209097Y-132946431D01*
X164960773Y-132946431D01*
X164980219Y-132943544D01*
X165031722Y-132871294D01*
X165026152Y-132845632D01*
X164960773Y-132840007D01*
X164939540Y-132854569D01*
X164889823Y-132915144D01*
X163992737Y-132915144D01*
X163941962Y-132785896D01*
X163816394Y-132645172D01*
X163659090Y-132605383D01*
X163652291Y-132606404D01*
X163541791Y-132662660D01*
X163524050Y-132805197D01*
X163513932Y-132924857D01*
X163399888Y-133071860D01*
X163397104Y-133073595D01*
X163303713Y-133118437D01*
X163265388Y-133074676D01*
X163257979Y-132915745D01*
X163256447Y-132845901D01*
X163219568Y-132675017D01*
X163117651Y-132620396D01*
X162929691Y-132666060D01*
X162822393Y-132696957D01*
X162620128Y-132705797D01*
X162467154Y-132653242D01*
X162406583Y-132548944D01*
X162394119Y-132496953D01*
X162317896Y-132470477D01*
X162284721Y-132489913D01*
X162248243Y-132586706D01*
X162234358Y-132678953D01*
X162159556Y-132824211D01*
X162154986Y-132830751D01*
X162067133Y-132979875D01*
X162078611Y-133060608D01*
X162193734Y-133108888D01*
X162231566Y-133120866D01*
X162326336Y-133193008D01*
X162306247Y-133262263D01*
X162175996Y-133282606D01*
X162111826Y-133279586D01*
X162039964Y-133321255D01*
X162036782Y-133460817D01*
X162030720Y-133597554D01*
X161955978Y-133655929D01*
X161911533Y-133665455D01*
X161864606Y-133744616D01*
X161863480Y-133777817D01*
X161806280Y-133845790D01*
X161760396Y-133874060D01*
X161687105Y-133987690D01*
X161668608Y-134033005D01*
X161640414Y-134067740D01*
X161631122Y-133967033D01*
X161668368Y-133810276D01*
X161768035Y-133636569D01*
X161768112Y-133636471D01*
X161868277Y-133475927D01*
X161909935Y-133343201D01*
X161885793Y-133277410D01*
X161768035Y-133230230D01*
X161685514Y-133216012D01*
X161626136Y-133154499D01*
X161651775Y-133117978D01*
X161759633Y-133121139D01*
X161821779Y-133129979D01*
X161922070Y-133074546D01*
X161949718Y-132952754D01*
X161885428Y-132812009D01*
X161834177Y-132729630D01*
X161818681Y-132609420D01*
X161824976Y-132571194D01*
X161773948Y-132520733D01*
X161765600Y-132522154D01*
X161744425Y-132556208D01*
X161716948Y-132600396D01*
X161697085Y-132761466D01*
X161695813Y-132769057D01*
X161669790Y-132924368D01*
X161598055Y-133037153D01*
X161510753Y-133062578D01*
X161436920Y-132976633D01*
X161401461Y-132926480D01*
X161293912Y-132906108D01*
X161182322Y-132893745D01*
X161041366Y-132803761D01*
X160998993Y-132769057D01*
X161200437Y-132769057D01*
X161235912Y-132804532D01*
X161271387Y-132769057D01*
X161235912Y-132733582D01*
X161200437Y-132769057D01*
X160998993Y-132769057D01*
X160927889Y-132710822D01*
X160814920Y-132666569D01*
X160774739Y-132733582D01*
X160765345Y-132763685D01*
X160675905Y-132804532D01*
X160622913Y-132818383D01*
X160534507Y-132915454D01*
X160502150Y-132967125D01*
X160423615Y-132984146D01*
X160373299Y-132974934D01*
X160227834Y-133003699D01*
X160055892Y-133069681D01*
X159912427Y-133150013D01*
X159852393Y-133221829D01*
X159816664Y-133277078D01*
X159693028Y-133342198D01*
X159584387Y-133392798D01*
X159446961Y-133506616D01*
X159393395Y-133561633D01*
X159358001Y-133550772D01*
X159333152Y-133549213D01*
X159256296Y-133640406D01*
X159145126Y-133805534D01*
X159017755Y-134017444D01*
X158892294Y-134248983D01*
X158834311Y-134351609D01*
X158672428Y-134592736D01*
X158492330Y-134820971D01*
X158401008Y-134937236D01*
X158262881Y-135166202D01*
X158257338Y-135181348D01*
X158190816Y-135363112D01*
X158170197Y-135499025D01*
X158135789Y-135815712D01*
X158122918Y-136023271D01*
X158116012Y-136134639D01*
X158111817Y-136420072D01*
X158124156Y-136636276D01*
X158153978Y-136747517D01*
X158201917Y-136858587D01*
X158183485Y-137018206D01*
X158100932Y-137160530D01*
X157980501Y-137244275D01*
X157848436Y-137228157D01*
X157819103Y-137214746D01*
X157816551Y-137252077D01*
X157813552Y-137269137D01*
X157712372Y-137312963D01*
X157492847Y-137359858D01*
X157171229Y-137405947D01*
X157041245Y-137421912D01*
X156673629Y-137469232D01*
X156325094Y-137516780D01*
X156056583Y-137556335D01*
X156047132Y-137557798D01*
X155803840Y-137586396D01*
X155464647Y-137615029D01*
X155073179Y-137640449D01*
X154673063Y-137659404D01*
X154261448Y-137676901D01*
X153837558Y-137698464D01*
X153455749Y-137721180D01*
X153165898Y-137742307D01*
X152888871Y-137759167D01*
X152644760Y-137750234D01*
X152516400Y-137706124D01*
X152486159Y-137687807D01*
X152358778Y-137662806D01*
X152213798Y-137673475D01*
X152104211Y-137711956D01*
X152083014Y-137770391D01*
X152065467Y-137783440D01*
X151937872Y-137804298D01*
X151710062Y-137823642D01*
X151407889Y-137840380D01*
X151057207Y-137853421D01*
X150683870Y-137861674D01*
X150313731Y-137864048D01*
X149972644Y-137859453D01*
X149827698Y-137858777D01*
X149628990Y-137880487D01*
X149562526Y-137933977D01*
X149544270Y-137958906D01*
X149485849Y-137891240D01*
X149413674Y-137810944D01*
X149320198Y-137838776D01*
X149260252Y-137860087D01*
X149073731Y-137889876D01*
X148792423Y-137918401D01*
X148443816Y-137944360D01*
X148055403Y-137966453D01*
X147654671Y-137983377D01*
X147269112Y-137993831D01*
X146926216Y-137996512D01*
X146653472Y-137990118D01*
X146478370Y-137973350D01*
X146403007Y-137960687D01*
X146124781Y-137929831D01*
X145844094Y-137916002D01*
X145549200Y-137897481D01*
X145165036Y-137847933D01*
X144777827Y-137778170D01*
X144456303Y-137698943D01*
X144278929Y-137645300D01*
X144456303Y-137569879D01*
X144633678Y-137494459D01*
X144474041Y-137447087D01*
X144373649Y-137402918D01*
X144314404Y-137335518D01*
X144266786Y-137270273D01*
X144136010Y-137190041D01*
X144135732Y-137189914D01*
X144007441Y-137096353D01*
X144000808Y-136972677D01*
X144000252Y-136852712D01*
X143889023Y-136671629D01*
X143770225Y-136472773D01*
X143698396Y-136163280D01*
X143648814Y-135865397D01*
X143563719Y-135536721D01*
X143455899Y-135213965D01*
X143337798Y-134930474D01*
X143221857Y-134719592D01*
X143120519Y-134614663D01*
X143024038Y-134549303D01*
X142966359Y-134447435D01*
X142951753Y-134400969D01*
X142860529Y-134390855D01*
X142809821Y-134391360D01*
X142683702Y-134327525D01*
X142551808Y-134213781D01*
X142457020Y-134090427D01*
X142442220Y-133997759D01*
X142449820Y-133978651D01*
X142402949Y-133939728D01*
X142365003Y-133923545D01*
X142327812Y-133822307D01*
X142324102Y-133765921D01*
X142287711Y-133751052D01*
X142184784Y-133834324D01*
X142094778Y-133909658D01*
X142021298Y-133919268D01*
X141938716Y-133827583D01*
X141875206Y-133725618D01*
X141833420Y-133602716D01*
X141832020Y-133553901D01*
X141811347Y-133522176D01*
X141732948Y-133532590D01*
X141557088Y-133582190D01*
X141402294Y-133619508D01*
X141345155Y-133600157D01*
X141355784Y-133511311D01*
X141356619Y-133373590D01*
X141292866Y-133336655D01*
X143179208Y-133336655D01*
X143214683Y-133372130D01*
X143250158Y-133336655D01*
X143214683Y-133301180D01*
X143179208Y-133336655D01*
X141292866Y-133336655D01*
X141278526Y-133328347D01*
X141151529Y-133403081D01*
X141141155Y-133413274D01*
X141008228Y-133504609D01*
X140931924Y-133483482D01*
X140932488Y-133354392D01*
X140949182Y-133284040D01*
X140945364Y-133240802D01*
X140879729Y-133318917D01*
X140804641Y-133390541D01*
X140670409Y-133443079D01*
X140629409Y-133436535D01*
X140565281Y-133364357D01*
X140539610Y-133195423D01*
X140543810Y-133043616D01*
X140653322Y-133043616D01*
X140687706Y-133118700D01*
X140752357Y-133098728D01*
X140758179Y-133086557D01*
X141061950Y-133086557D01*
X141110708Y-133131176D01*
X141166260Y-133076591D01*
X141192616Y-132955891D01*
X141179036Y-132891708D01*
X141113685Y-132926033D01*
X141081366Y-132969834D01*
X141061950Y-133086557D01*
X140758179Y-133086557D01*
X140805285Y-132988080D01*
X140830326Y-132837482D01*
X140812271Y-132698266D01*
X140784743Y-132648347D01*
X140699951Y-132591683D01*
X140664679Y-132624923D01*
X140692543Y-132760048D01*
X140719765Y-132870924D01*
X140684605Y-133000364D01*
X140653322Y-133043616D01*
X140543810Y-133043616D01*
X140547545Y-132908634D01*
X140544525Y-132799495D01*
X140492556Y-132586451D01*
X140399354Y-132411488D01*
X140288038Y-132326473D01*
X140249357Y-132332870D01*
X140244939Y-132415160D01*
X140252795Y-132474061D01*
X140179711Y-132520733D01*
X140104045Y-132485557D01*
X140030223Y-132361096D01*
X140020401Y-132327310D01*
X139977404Y-132251994D01*
X139921578Y-132302274D01*
X139884308Y-132347197D01*
X139806184Y-132355969D01*
X139666570Y-132278522D01*
X139520390Y-132209028D01*
X139305516Y-132196860D01*
X139256712Y-132205895D01*
X139065970Y-132217720D01*
X138813150Y-132214215D01*
X138532246Y-132198292D01*
X138257252Y-132172860D01*
X138022161Y-132140829D01*
X137860966Y-132105111D01*
X137807661Y-132068616D01*
X137853988Y-132015414D01*
X137987463Y-131955092D01*
X138018677Y-131941707D01*
X138090639Y-131882186D01*
X139206024Y-131882186D01*
X139208086Y-131899144D01*
X139276974Y-131953135D01*
X139293933Y-131951074D01*
X139347923Y-131882186D01*
X139345862Y-131865227D01*
X139276974Y-131811236D01*
X139260015Y-131813298D01*
X139206024Y-131882186D01*
X138090639Y-131882186D01*
X138151158Y-131832129D01*
X138325525Y-131638557D01*
X138481414Y-131434135D01*
X141517592Y-131434135D01*
X141618315Y-131445285D01*
X141715915Y-131435395D01*
X141707002Y-131409499D01*
X141674886Y-131400128D01*
X141529627Y-131409499D01*
X141517592Y-131434135D01*
X138481414Y-131434135D01*
X138516678Y-131387893D01*
X138559436Y-131328808D01*
X138745144Y-131097074D01*
X139135074Y-131097074D01*
X139135877Y-131109388D01*
X139195881Y-131167909D01*
X139316613Y-131149988D01*
X139449280Y-131061196D01*
X139518890Y-130944488D01*
X139557358Y-130792218D01*
X139555931Y-130661103D01*
X139507560Y-130606177D01*
X139425225Y-130634189D01*
X139290468Y-130756293D01*
X139180532Y-130928009D01*
X139135074Y-131097074D01*
X138745144Y-131097074D01*
X138794406Y-131035603D01*
X139050461Y-130755464D01*
X139279325Y-130541942D01*
X139295301Y-130528873D01*
X139480741Y-130369526D01*
X139607988Y-130246269D01*
X139650308Y-130184837D01*
X139652132Y-130069760D01*
X139717756Y-129966316D01*
X139807287Y-129940192D01*
X139887113Y-129930216D01*
X139983577Y-129830051D01*
X140011648Y-129789484D01*
X140173265Y-129651019D01*
X140421456Y-129503504D01*
X140718307Y-129367540D01*
X141025903Y-129263728D01*
X141089034Y-129244901D01*
X141284219Y-129163893D01*
X141405888Y-129079162D01*
X141530257Y-129003765D01*
X141715689Y-128967646D01*
X141739449Y-128966818D01*
X141850932Y-128951637D01*
X141848901Y-128926258D01*
X141768341Y-128864255D01*
X141808233Y-128780642D01*
X141976182Y-128663417D01*
X142009338Y-128644448D01*
X142200229Y-128575616D01*
X142385118Y-128603111D01*
X142550344Y-128634037D01*
X142668595Y-128573490D01*
X142673046Y-128568813D01*
X142802620Y-128488091D01*
X142917080Y-128493363D01*
X142966359Y-128583024D01*
X142973671Y-128631894D01*
X143031419Y-128689448D01*
X143043205Y-128684527D01*
X143068406Y-128593335D01*
X143060565Y-128423387D01*
X143059400Y-128414633D01*
X143035119Y-128163720D01*
X143025638Y-127931015D01*
X143024786Y-127878016D01*
X142997996Y-127754675D01*
X142925543Y-127743494D01*
X142875624Y-127752336D01*
X142824460Y-127703743D01*
X142833920Y-127670309D01*
X142923294Y-127625202D01*
X143014898Y-127586772D01*
X143085425Y-127428026D01*
X143109817Y-127140489D01*
X143134795Y-126943889D01*
X143199186Y-126714866D01*
X143286057Y-126499549D01*
X143378483Y-126339719D01*
X143459538Y-126277158D01*
X143493811Y-126265122D01*
X143533957Y-126170733D01*
X143534435Y-126146983D01*
X143558626Y-126057481D01*
X143605342Y-126076547D01*
X143655037Y-126181502D01*
X143688165Y-126349668D01*
X143695104Y-126446689D01*
X143682847Y-126580473D01*
X143627793Y-126601418D01*
X143566426Y-126625563D01*
X143554819Y-126776449D01*
X143568770Y-126912822D01*
X143601632Y-126932751D01*
X143680832Y-126837782D01*
X143690157Y-126825534D01*
X143745395Y-126765009D01*
X143772015Y-126783370D01*
X143775589Y-126901454D01*
X143761692Y-127140101D01*
X143696346Y-127551165D01*
X143522443Y-127986060D01*
X143478143Y-128072133D01*
X143376309Y-128312887D01*
X143334335Y-128536089D01*
X143335158Y-128817495D01*
X143344971Y-128980096D01*
X143366665Y-129141767D01*
X143403145Y-129201480D01*
X143463007Y-129183872D01*
X143477268Y-129174518D01*
X143533757Y-129111890D01*
X143463007Y-129045283D01*
X143402130Y-128993478D01*
X143450051Y-128974334D01*
X143502030Y-128950261D01*
X143498482Y-128831348D01*
X143485070Y-128744902D01*
X143489637Y-128737804D01*
X143974527Y-128737804D01*
X143975506Y-128855411D01*
X144006493Y-128877450D01*
X144057728Y-128780949D01*
X144090442Y-128688451D01*
X144167272Y-128460945D01*
X144198201Y-128339688D01*
X144186813Y-128304445D01*
X144136690Y-128334982D01*
X144057106Y-128449054D01*
X143992939Y-128628474D01*
X143974527Y-128737804D01*
X143489637Y-128737804D01*
X143520753Y-128689448D01*
X143548736Y-128669064D01*
X143610312Y-128547370D01*
X143670457Y-128352437D01*
X143675865Y-128330524D01*
X143733635Y-128130843D01*
X144287034Y-128130843D01*
X144294932Y-128192800D01*
X144334142Y-128139991D01*
X144388488Y-128004805D01*
X144435969Y-127846058D01*
X144456303Y-127722821D01*
X144455873Y-127703217D01*
X144432175Y-127634328D01*
X144385823Y-127669458D01*
X144335781Y-127781619D01*
X144301015Y-127943819D01*
X144297210Y-127978306D01*
X144287034Y-128130843D01*
X143733635Y-128130843D01*
X143778634Y-127975306D01*
X143891682Y-127679650D01*
X144003243Y-127470260D01*
X144012801Y-127460886D01*
X144629437Y-127460886D01*
X144647827Y-127722821D01*
X144648270Y-127729133D01*
X144708507Y-127939487D01*
X144795255Y-127649951D01*
X144813341Y-127587033D01*
X144862336Y-127383417D01*
X144882002Y-127244485D01*
X144876773Y-127189908D01*
X144825628Y-127131000D01*
X144744124Y-127179196D01*
X144662312Y-127323666D01*
X144629437Y-127460886D01*
X144012801Y-127460886D01*
X144101555Y-127373842D01*
X144211790Y-127286002D01*
X144354620Y-127101104D01*
X144500895Y-126859821D01*
X144925819Y-126859821D01*
X144927294Y-126951180D01*
X144950268Y-127002125D01*
X144996017Y-127057605D01*
X145008721Y-127045842D01*
X145023901Y-126951180D01*
X145016159Y-126902256D01*
X144955178Y-126844755D01*
X144925819Y-126859821D01*
X144500895Y-126859821D01*
X144503162Y-126856082D01*
X144633034Y-126587029D01*
X144648154Y-126552630D01*
X144732871Y-126407145D01*
X144804668Y-126348107D01*
X144900239Y-126301217D01*
X145029194Y-126188471D01*
X145181913Y-126028834D01*
X145138382Y-126188471D01*
X145107580Y-126300466D01*
X145054595Y-126490007D01*
X145043757Y-126534208D01*
X145053559Y-126615791D01*
X145143911Y-126612082D01*
X145332899Y-126525381D01*
X145437582Y-126473973D01*
X145504765Y-126461250D01*
X145496696Y-126520780D01*
X145478282Y-126572085D01*
X145426074Y-126767585D01*
X145399603Y-126947544D01*
X145399698Y-126951180D01*
X145402845Y-127071539D01*
X145439779Y-127099149D01*
X145455062Y-127092194D01*
X145504763Y-127139081D01*
X145521518Y-127319479D01*
X145522149Y-127370073D01*
X145547434Y-127655733D01*
X145605192Y-127842248D01*
X145689545Y-127909001D01*
X145702699Y-127911826D01*
X145778371Y-127998255D01*
X145861700Y-128175235D01*
X145938417Y-128401905D01*
X145994253Y-128637404D01*
X146014941Y-128840870D01*
X145990853Y-129016588D01*
X145929714Y-129179173D01*
X145852355Y-129279779D01*
X145779595Y-129279593D01*
X145754613Y-129273520D01*
X145733398Y-129351646D01*
X145718410Y-129441614D01*
X145647866Y-129455299D01*
X145508398Y-129352474D01*
X145429777Y-129247071D01*
X145378650Y-129068675D01*
X145362080Y-128962656D01*
X145306862Y-128902297D01*
X145296593Y-128900058D01*
X145265536Y-128815049D01*
X145279030Y-128627409D01*
X145280967Y-128614920D01*
X145289738Y-128408988D01*
X145244393Y-128303948D01*
X145178947Y-128240332D01*
X145190846Y-128138621D01*
X145307700Y-127979951D01*
X145379365Y-127873885D01*
X145438760Y-127613039D01*
X145387358Y-127275714D01*
X145348036Y-127169167D01*
X145264834Y-127084485D01*
X145177604Y-127135922D01*
X145132308Y-127244485D01*
X145100272Y-127321269D01*
X145090213Y-127356633D01*
X145009797Y-127572168D01*
X144921184Y-127733819D01*
X144834387Y-127865129D01*
X144830836Y-127941371D01*
X144931844Y-127954330D01*
X144958136Y-127954242D01*
X145006883Y-127982688D01*
X145033598Y-128073403D01*
X145043120Y-128252864D01*
X145042286Y-128339688D01*
X145040290Y-128547549D01*
X145038589Y-128670306D01*
X145041043Y-128898570D01*
X145051079Y-129037932D01*
X145067310Y-129061934D01*
X145095005Y-129023636D01*
X145215084Y-128973247D01*
X145266348Y-128984757D01*
X145295554Y-129061194D01*
X145273680Y-129238768D01*
X145251108Y-129352259D01*
X145203075Y-129522180D01*
X145148355Y-129585227D01*
X145072211Y-129565281D01*
X145071921Y-129565113D01*
X145049950Y-129573034D01*
X145113921Y-129659870D01*
X145175684Y-129739104D01*
X145200122Y-129846483D01*
X145139117Y-129996612D01*
X145079726Y-130189163D01*
X145073753Y-130450727D01*
X145083492Y-130583157D01*
X145043278Y-130750996D01*
X145011908Y-130792218D01*
X144911344Y-130924364D01*
X144864982Y-130972847D01*
X144742345Y-131085256D01*
X144673839Y-131123631D01*
X144659371Y-131124843D01*
X144640892Y-131196480D01*
X144633343Y-131248100D01*
X144558406Y-131366704D01*
X144478853Y-131412130D01*
X144386368Y-131351284D01*
X144328385Y-131305240D01*
X144202792Y-131290921D01*
X144143289Y-131295695D01*
X144101555Y-131209842D01*
X144087490Y-131150113D01*
X144012868Y-131120683D01*
X143971898Y-131195885D01*
X143944877Y-131377321D01*
X143942289Y-131435395D01*
X143933746Y-131627121D01*
X143937523Y-131882186D01*
X143937907Y-131908114D01*
X143956760Y-132183133D01*
X143989707Y-132415007D01*
X144036150Y-132566569D01*
X144042915Y-132578982D01*
X144141125Y-132707921D01*
X144214571Y-132717657D01*
X144243454Y-132604560D01*
X144247612Y-132548459D01*
X145035048Y-132548459D01*
X145051985Y-132643417D01*
X145076205Y-132642318D01*
X145088412Y-132556208D01*
X145733398Y-132556208D01*
X145768873Y-132591683D01*
X145804348Y-132556208D01*
X145768873Y-132520733D01*
X145739310Y-132550296D01*
X145733398Y-132556208D01*
X145088412Y-132556208D01*
X145089250Y-132550296D01*
X145077888Y-132480556D01*
X145046384Y-132507430D01*
X145035048Y-132548459D01*
X144247612Y-132548459D01*
X144249054Y-132528999D01*
X144257421Y-132489445D01*
X144740102Y-132489445D01*
X144740793Y-132499364D01*
X144781863Y-132514989D01*
X144853302Y-132438821D01*
X144870565Y-132399171D01*
X144822014Y-132407533D01*
X144790496Y-132429435D01*
X144740102Y-132489445D01*
X144257421Y-132489445D01*
X144299129Y-132292270D01*
X144327641Y-132201459D01*
X144882002Y-132201459D01*
X144917477Y-132236934D01*
X144952951Y-132201459D01*
X144917477Y-132165985D01*
X144882002Y-132201459D01*
X144327641Y-132201459D01*
X144372193Y-132059560D01*
X144740102Y-132059560D01*
X144775577Y-132095035D01*
X144811052Y-132059560D01*
X144775577Y-132024085D01*
X144740102Y-132059560D01*
X144372193Y-132059560D01*
X144384911Y-132019054D01*
X144486505Y-131768131D01*
X144584018Y-131598286D01*
X144610408Y-131566229D01*
X144696462Y-131489196D01*
X144796435Y-131486118D01*
X144967800Y-131549721D01*
X145020147Y-131570408D01*
X145181197Y-131617556D01*
X145266438Y-131615998D01*
X145283183Y-131606781D01*
X145307700Y-131661699D01*
X145313510Y-131693670D01*
X145373747Y-131707841D01*
X145399330Y-131698200D01*
X145484359Y-131739129D01*
X145495508Y-131767857D01*
X145449599Y-131811236D01*
X145420977Y-131817912D01*
X145416254Y-131885631D01*
X145457616Y-131919444D01*
X145565263Y-131874518D01*
X145649419Y-131825390D01*
X145825008Y-131780285D01*
X145928381Y-131767406D01*
X146052672Y-131728896D01*
X146056672Y-131726729D01*
X146177220Y-131709172D01*
X146358966Y-131722010D01*
X146397248Y-131727989D01*
X146529836Y-131764335D01*
X146571274Y-131844073D01*
X146553325Y-132015099D01*
X146550009Y-132038133D01*
X146549804Y-132059560D01*
X146548089Y-132238861D01*
X146590197Y-132378834D01*
X146609378Y-132404324D01*
X146648953Y-132433859D01*
X146636240Y-132337757D01*
X146634047Y-132234343D01*
X146695404Y-132065837D01*
X146743365Y-132005290D01*
X146800804Y-131990540D01*
X146869052Y-132095890D01*
X146905061Y-132167706D01*
X146905309Y-132224221D01*
X146804180Y-132203534D01*
X146788175Y-132198610D01*
X146694088Y-132191158D01*
X146699257Y-132267770D01*
X146732217Y-132321415D01*
X146840710Y-132378834D01*
X146909783Y-132392020D01*
X146925159Y-132468450D01*
X146830863Y-132622981D01*
X146770157Y-132700598D01*
X146730585Y-132718601D01*
X146719622Y-132622981D01*
X146716568Y-132581362D01*
X146700013Y-132553215D01*
X146664264Y-132658171D01*
X146615979Y-132831083D01*
X146454155Y-132625357D01*
X146434884Y-132599627D01*
X146344644Y-132429493D01*
X146325496Y-132292808D01*
X146332957Y-132221702D01*
X146294354Y-132165985D01*
X146262791Y-132180760D01*
X146255961Y-132201459D01*
X146230046Y-132280000D01*
X146214444Y-132341292D01*
X146123622Y-132353176D01*
X146064206Y-132344957D01*
X146028601Y-132399171D01*
X146017197Y-132416535D01*
X146009559Y-132463426D01*
X145946247Y-132520733D01*
X145902016Y-132556208D01*
X145891914Y-132564310D01*
X145877292Y-132687479D01*
X145908821Y-132833963D01*
X145911102Y-132837482D01*
X145981722Y-132946431D01*
X145990700Y-132955891D01*
X146038745Y-133006518D01*
X146087060Y-133114756D01*
X146079932Y-133154280D01*
X146033848Y-133118237D01*
X146012425Y-133099999D01*
X145878177Y-133060416D01*
X145679641Y-133047287D01*
X145561185Y-133049992D01*
X145446387Y-133062104D01*
X145444745Y-133097345D01*
X145537742Y-133171987D01*
X145686245Y-133284804D01*
X145750632Y-133336655D01*
X145837377Y-133406511D01*
X145916066Y-133479155D01*
X145901605Y-133484925D01*
X145785382Y-133452439D01*
X145560777Y-133425481D01*
X145299956Y-133414591D01*
X145060804Y-133421831D01*
X144901207Y-133449265D01*
X144822138Y-133496707D01*
X144769540Y-133609090D01*
X144788575Y-133789489D01*
X144881809Y-134054448D01*
X145051808Y-134420514D01*
X145083915Y-134486114D01*
X145197814Y-134733896D01*
X145277622Y-134931613D01*
X145307700Y-135041324D01*
X145348947Y-135113050D01*
X145502812Y-135150860D01*
X145595917Y-135155020D01*
X145638257Y-135171701D01*
X145556024Y-135211267D01*
X145514841Y-135229637D01*
X145485265Y-135271554D01*
X145552736Y-135331906D01*
X145733398Y-135430664D01*
X145833935Y-135475611D01*
X146082866Y-135565897D01*
X146397133Y-135664842D01*
X146736879Y-135761351D01*
X147062244Y-135844329D01*
X147333372Y-135902681D01*
X147510404Y-135925312D01*
X147539156Y-135930940D01*
X147682762Y-135991718D01*
X147897588Y-136104999D01*
X148148951Y-136252982D01*
X148691672Y-136570063D01*
X149277089Y-136856216D01*
X149841828Y-137058489D01*
X150425081Y-137187799D01*
X151066036Y-137255065D01*
X151803885Y-137271204D01*
X151923697Y-137270123D01*
X152486109Y-137256400D01*
X152946260Y-137224965D01*
X153337174Y-137169937D01*
X153691875Y-137085436D01*
X154043389Y-136965580D01*
X154424739Y-136804488D01*
X154664472Y-136694716D01*
X154920668Y-136573134D01*
X155105158Y-136480502D01*
X155188895Y-136431015D01*
X155189136Y-136414628D01*
X155100127Y-136395530D01*
X154922834Y-136396398D01*
X154729153Y-136401590D01*
X154619468Y-136383781D01*
X154648926Y-136339666D01*
X154817718Y-136269476D01*
X154951269Y-136216431D01*
X154980842Y-136168109D01*
X154965822Y-136153972D01*
X155132019Y-136153972D01*
X155155072Y-136232905D01*
X155157252Y-136234004D01*
X155270046Y-136235043D01*
X155442263Y-136194324D01*
X155608293Y-136131717D01*
X155702528Y-136067096D01*
X155721478Y-136023271D01*
X155674792Y-136003450D01*
X155524101Y-136068411D01*
X155441434Y-136100957D01*
X155347204Y-136068411D01*
X155323902Y-136037251D01*
X155226807Y-136004510D01*
X155144926Y-136101422D01*
X155132019Y-136153972D01*
X154965822Y-136153972D01*
X154906405Y-136098049D01*
X154809961Y-136044371D01*
X154624038Y-135999526D01*
X154523732Y-135984412D01*
X154424739Y-135926320D01*
X154421358Y-135886823D01*
X154504280Y-135855370D01*
X154552079Y-135840407D01*
X154522055Y-135771423D01*
X154384305Y-135633582D01*
X154355187Y-135607046D01*
X154956862Y-135607046D01*
X154992337Y-135642521D01*
X155027812Y-135607046D01*
X154992337Y-135571571D01*
X154956862Y-135607046D01*
X154355187Y-135607046D01*
X154140940Y-135411794D01*
X154513426Y-135458651D01*
X154659598Y-135473838D01*
X154822538Y-135479931D01*
X154885912Y-135465834D01*
X154885772Y-135463642D01*
X154820575Y-135405042D01*
X154675274Y-135341498D01*
X154506661Y-135293401D01*
X154371527Y-135281142D01*
X154304635Y-135277559D01*
X154247365Y-135221282D01*
X154250136Y-135200450D01*
X154318315Y-135145873D01*
X154347522Y-135135030D01*
X154385238Y-135044208D01*
X154382524Y-135003973D01*
X154531164Y-135003973D01*
X154534051Y-135023420D01*
X154606301Y-135074923D01*
X154631963Y-135069352D01*
X154636876Y-135012248D01*
X156121807Y-135012248D01*
X156127532Y-135074923D01*
X156163071Y-135108633D01*
X156291357Y-135144786D01*
X156307491Y-135144546D01*
X156371394Y-135130024D01*
X156304907Y-135074923D01*
X156206409Y-135022665D01*
X156121807Y-135012248D01*
X154636876Y-135012248D01*
X154637588Y-135003973D01*
X154623026Y-134982741D01*
X154562451Y-134933024D01*
X154555371Y-134934868D01*
X154531164Y-135003973D01*
X154382524Y-135003973D01*
X154376764Y-134918582D01*
X154321413Y-134828514D01*
X154294286Y-134796594D01*
X154293529Y-134682427D01*
X154297639Y-134665658D01*
X154568166Y-134665658D01*
X154597926Y-134784349D01*
X154646204Y-134837194D01*
X154707677Y-134792517D01*
X154722900Y-134751318D01*
X154689079Y-134636861D01*
X154653140Y-134611462D01*
X154579328Y-134628693D01*
X154568166Y-134665658D01*
X154297639Y-134665658D01*
X154301718Y-134649016D01*
X154256542Y-134593274D01*
X154095319Y-134576118D01*
X154049638Y-134575036D01*
X153935200Y-134557758D01*
X153940610Y-134525023D01*
X154049617Y-134483605D01*
X154245972Y-134440278D01*
X154513426Y-134401816D01*
X154693738Y-134383440D01*
X154860180Y-134378804D01*
X154937757Y-134404511D01*
X154956862Y-134464884D01*
X154975883Y-134525847D01*
X155081024Y-134583736D01*
X155220225Y-134594246D01*
X155418035Y-134615331D01*
X155444444Y-134618436D01*
X155639606Y-134638443D01*
X155914708Y-134663909D01*
X156219039Y-134690099D01*
X156538358Y-134725736D01*
X156650858Y-134751318D01*
X156727975Y-134768854D01*
X156780724Y-134818141D01*
X156761423Y-134850235D01*
X156653743Y-134897836D01*
X156594767Y-134924635D01*
X156564339Y-135003973D01*
X156550590Y-135039821D01*
X156542225Y-135130024D01*
X156541713Y-135135545D01*
X156456793Y-135302830D01*
X156282982Y-135359808D01*
X156247324Y-135360514D01*
X156177223Y-135377566D01*
X156233957Y-135429672D01*
X156272741Y-135461181D01*
X156266012Y-135507931D01*
X156145270Y-135509023D01*
X156096127Y-135528610D01*
X156107022Y-135601119D01*
X156113693Y-135607046D01*
X156180745Y-135666617D01*
X156193369Y-135676451D01*
X156129542Y-135686021D01*
X155967896Y-135679271D01*
X155887254Y-135675395D01*
X155729174Y-135685947D01*
X155666359Y-135720212D01*
X155696458Y-135758737D01*
X155815849Y-135784420D01*
X155907977Y-135802130D01*
X155927379Y-135883344D01*
X155925480Y-135888213D01*
X155910750Y-135927133D01*
X155915601Y-135949498D01*
X155959302Y-135950884D01*
X156061122Y-135926864D01*
X156240329Y-135873013D01*
X156516192Y-135784905D01*
X156907979Y-135658114D01*
X157215345Y-135557180D01*
X157499742Y-135457019D01*
X157677809Y-135380852D01*
X157766247Y-135319606D01*
X157781758Y-135264208D01*
X157741045Y-135205587D01*
X157733027Y-135197481D01*
X157721917Y-135181348D01*
X158007700Y-135181348D01*
X158043175Y-135216823D01*
X158078650Y-135181348D01*
X158043175Y-135145873D01*
X158007700Y-135181348D01*
X157721917Y-135181348D01*
X157662269Y-135094735D01*
X157702438Y-135016120D01*
X157866949Y-134932548D01*
X157950512Y-134894486D01*
X158029785Y-134825571D01*
X158000161Y-134746566D01*
X157989731Y-134732279D01*
X157975089Y-134604910D01*
X158053671Y-134487765D01*
X158191265Y-134436376D01*
X158269128Y-134402632D01*
X158367425Y-134285178D01*
X158380762Y-134259948D01*
X158410501Y-134177026D01*
X158357023Y-134156498D01*
X158192547Y-134181969D01*
X158175892Y-134184993D01*
X157999671Y-134197247D01*
X157936750Y-134155792D01*
X157925505Y-134122379D01*
X157832552Y-134081627D01*
X157785713Y-134069474D01*
X157765166Y-133985697D01*
X157767981Y-133975320D01*
X157727681Y-133874113D01*
X157612676Y-133767667D01*
X157475116Y-133694378D01*
X157367148Y-133692642D01*
X157336373Y-133704680D01*
X157216505Y-133684761D01*
X157185149Y-133627263D01*
X157269717Y-133529129D01*
X157342378Y-133471451D01*
X157360545Y-133443785D01*
X157262728Y-133476958D01*
X157229231Y-133487779D01*
X157043583Y-133527000D01*
X156817432Y-133555592D01*
X156727306Y-133559402D01*
X156465771Y-133505254D01*
X156297517Y-133344331D01*
X156221077Y-133075451D01*
X156198482Y-132840007D01*
X155772784Y-132837240D01*
X155702886Y-132836439D01*
X155385949Y-132816954D01*
X155176024Y-132763688D01*
X155044738Y-132665160D01*
X154963713Y-132509890D01*
X154962447Y-132506279D01*
X154879474Y-132353689D01*
X154780409Y-132333188D01*
X154719909Y-132341696D01*
X154673063Y-132270182D01*
X154665425Y-132223292D01*
X154602113Y-132165985D01*
X154553136Y-132112492D01*
X154530077Y-131970873D01*
X154528501Y-131908788D01*
X154509388Y-131834192D01*
X154460214Y-131882186D01*
X154406376Y-131946264D01*
X154390351Y-131891648D01*
X154369921Y-131841079D01*
X154263007Y-131827703D01*
X154154730Y-131821347D01*
X154022857Y-131742525D01*
X153966385Y-131632436D01*
X154191574Y-131632436D01*
X154200065Y-131716636D01*
X154221405Y-131727736D01*
X154247365Y-131669336D01*
X154242245Y-131631776D01*
X154200065Y-131622037D01*
X154191574Y-131632436D01*
X153966385Y-131632436D01*
X153963566Y-131626940D01*
X153944345Y-131585973D01*
X153940355Y-131582142D01*
X158941260Y-131582142D01*
X158954182Y-131669336D01*
X158962338Y-131724368D01*
X159045436Y-131928332D01*
X159098026Y-132044079D01*
X159181090Y-132292973D01*
X159213845Y-132497283D01*
X159216746Y-132582427D01*
X159253887Y-132701793D01*
X159350395Y-132733582D01*
X159421470Y-132723010D01*
X159464524Y-132653540D01*
X159459677Y-132556208D01*
X160490940Y-132556208D01*
X160526415Y-132591683D01*
X160561890Y-132556208D01*
X160526415Y-132520733D01*
X160490940Y-132556208D01*
X159459677Y-132556208D01*
X159456144Y-132485258D01*
X159453251Y-132459117D01*
X159453518Y-132445269D01*
X161233122Y-132445269D01*
X161263022Y-132471958D01*
X161377102Y-132499425D01*
X161498607Y-132486208D01*
X161555186Y-132434685D01*
X161509022Y-132397574D01*
X161373624Y-132378834D01*
X161909935Y-132378834D01*
X161911846Y-132395667D01*
X161958604Y-132434685D01*
X161976697Y-132449783D01*
X161996603Y-132447077D01*
X162087309Y-132378834D01*
X162093983Y-132342280D01*
X162020546Y-132307884D01*
X161967685Y-132316567D01*
X161909935Y-132378834D01*
X161373624Y-132378834D01*
X161261263Y-132396633D01*
X161233122Y-132445269D01*
X159453518Y-132445269D01*
X159456332Y-132299244D01*
X159475589Y-132270983D01*
X160718948Y-132270983D01*
X160727439Y-132355184D01*
X160748780Y-132366284D01*
X160774739Y-132307884D01*
X160769619Y-132270323D01*
X160727439Y-132260584D01*
X160718948Y-132270983D01*
X159475589Y-132270983D01*
X159498791Y-132236934D01*
X159506269Y-132235810D01*
X159518373Y-132168318D01*
X159461092Y-132022001D01*
X159452046Y-132003993D01*
X159393292Y-131842245D01*
X159392507Y-131738203D01*
X159392595Y-131698285D01*
X159303172Y-131669336D01*
X159227660Y-131658966D01*
X159092318Y-131590379D01*
X159072825Y-131571843D01*
X158979117Y-131523889D01*
X158941260Y-131582142D01*
X153940355Y-131582142D01*
X153850576Y-131495935D01*
X153813734Y-131455531D01*
X153734564Y-131293652D01*
X153674713Y-131076770D01*
X153660811Y-130992831D01*
X153654963Y-130727225D01*
X153733266Y-130556506D01*
X153905076Y-130475247D01*
X154179748Y-130478023D01*
X154566639Y-130559406D01*
X154675146Y-130590687D01*
X154942276Y-130682959D01*
X155157694Y-130776193D01*
X155276048Y-130831815D01*
X155528076Y-130934566D01*
X155796242Y-131030341D01*
X155982772Y-131093874D01*
X156317703Y-131214973D01*
X156628640Y-131334359D01*
X156809353Y-131396695D01*
X157057301Y-131462322D01*
X157318423Y-131516197D01*
X157567437Y-131555151D01*
X157779060Y-131576012D01*
X157928008Y-131575613D01*
X157988999Y-131550783D01*
X157936750Y-131498353D01*
X157815707Y-131394418D01*
X157757571Y-131266908D01*
X157738709Y-131195601D01*
X157639020Y-131146133D01*
X157576956Y-131136676D01*
X157559728Y-131057445D01*
X157567366Y-131010469D01*
X157513575Y-130959839D01*
X157437108Y-130934647D01*
X157310872Y-130840744D01*
X157253348Y-130785465D01*
X157195616Y-130760805D01*
X157168860Y-130840631D01*
X157163408Y-130866517D01*
X157127142Y-130921121D01*
X157044698Y-130858370D01*
X156991901Y-130784887D01*
X156970716Y-130711515D01*
X157014404Y-130711515D01*
X157049879Y-130746990D01*
X157085354Y-130711515D01*
X157049879Y-130676040D01*
X157014404Y-130711515D01*
X156970716Y-130711515D01*
X156943454Y-130617099D01*
X156901423Y-130506931D01*
X156730605Y-130402873D01*
X156722352Y-130399940D01*
X156577573Y-130326633D01*
X156517756Y-130254033D01*
X156482364Y-130207387D01*
X156357448Y-130179392D01*
X156247545Y-130154102D01*
X156114766Y-130047490D01*
X156114613Y-130047245D01*
X155977466Y-129935734D01*
X155742486Y-129847029D01*
X155453510Y-129797692D01*
X155384505Y-129755819D01*
X155359674Y-129599672D01*
X155343753Y-129464664D01*
X155273259Y-129372184D01*
X155193916Y-129364762D01*
X155117297Y-129438972D01*
X155125723Y-129579717D01*
X155128767Y-129645749D01*
X155031388Y-129682744D01*
X154900569Y-129672532D01*
X154729595Y-129591767D01*
X154673063Y-129429326D01*
X154646715Y-129316190D01*
X154530012Y-129185480D01*
X154451321Y-129151480D01*
X154385945Y-129178993D01*
X154344541Y-129321024D01*
X154338562Y-129348474D01*
X154259247Y-129504850D01*
X154090356Y-129579638D01*
X154059576Y-129586004D01*
X153882394Y-129590084D01*
X153784670Y-129499862D01*
X153738439Y-129292521D01*
X153697503Y-129146087D01*
X153626555Y-129097409D01*
X153591903Y-129100043D01*
X153546270Y-129061934D01*
X153549269Y-128964956D01*
X153544623Y-128795873D01*
X153537924Y-128653973D01*
X156446806Y-128653973D01*
X156482281Y-128689448D01*
X156517756Y-128653973D01*
X156482281Y-128618498D01*
X156446806Y-128653973D01*
X153537924Y-128653973D01*
X153534575Y-128583024D01*
X153287897Y-128856919D01*
X153198744Y-128961232D01*
X153085501Y-129115331D01*
X153041220Y-129209134D01*
X153022556Y-129258692D01*
X152966620Y-129221577D01*
X152893897Y-129113777D01*
X152825397Y-128967315D01*
X152782128Y-128814212D01*
X152777023Y-128774414D01*
X152784689Y-128556784D01*
X152837152Y-128345317D01*
X152919163Y-128185258D01*
X153015473Y-128121850D01*
X153023144Y-128121546D01*
X153115312Y-128057276D01*
X153151297Y-127927819D01*
X153110904Y-127801052D01*
X153077480Y-127752281D01*
X153047132Y-127650408D01*
X153055690Y-127578498D01*
X153007090Y-127326847D01*
X152899854Y-127178968D01*
X158340571Y-127178968D01*
X158360481Y-127254548D01*
X158417898Y-127238654D01*
X158451754Y-127230556D01*
X158551032Y-127279757D01*
X158621818Y-127320798D01*
X158648504Y-127261404D01*
X158673624Y-127221738D01*
X158754929Y-127301752D01*
X158830243Y-127388534D01*
X158853885Y-127377906D01*
X158812733Y-127258907D01*
X158708338Y-127040240D01*
X158557580Y-126744729D01*
X158428097Y-126904634D01*
X158407777Y-126933366D01*
X158356794Y-127056909D01*
X158340571Y-127178968D01*
X152899854Y-127178968D01*
X152826381Y-127077649D01*
X152769916Y-127017387D01*
X152678657Y-126885376D01*
X152702219Y-126821458D01*
X152712462Y-126816416D01*
X152691638Y-126792187D01*
X152562309Y-126779407D01*
X152510958Y-126779258D01*
X152370115Y-126808586D01*
X152326736Y-126897968D01*
X152319246Y-126967395D01*
X152295761Y-126980264D01*
X152264355Y-126899128D01*
X152232249Y-126752502D01*
X152206661Y-126568901D01*
X152194810Y-126376841D01*
X152161382Y-126092279D01*
X152067305Y-125890567D01*
X151922002Y-125805666D01*
X151734726Y-125848208D01*
X151583405Y-125900175D01*
X151455553Y-125860021D01*
X151409376Y-125710154D01*
X151409267Y-125703802D01*
X151344281Y-125577846D01*
X151181878Y-125518020D01*
X150954898Y-125536845D01*
X150902656Y-125547726D01*
X150782555Y-125533295D01*
X150713157Y-125426245D01*
X150704326Y-125375801D01*
X151444954Y-125375801D01*
X151459768Y-125496711D01*
X151499726Y-125579167D01*
X151595025Y-125638610D01*
X151653933Y-125632217D01*
X151684343Y-125576036D01*
X151650496Y-125532186D01*
X151835074Y-125532186D01*
X151870549Y-125567660D01*
X151906024Y-125532186D01*
X151870549Y-125496711D01*
X151835074Y-125532186D01*
X151650496Y-125532186D01*
X151591818Y-125456168D01*
X151499439Y-125375589D01*
X151444954Y-125375801D01*
X150704326Y-125375801D01*
X150673917Y-125202099D01*
X150657538Y-125100595D01*
X150612319Y-124988506D01*
X150997828Y-124988506D01*
X151000761Y-125015969D01*
X151046593Y-125184010D01*
X151118609Y-125270142D01*
X151150039Y-125276780D01*
X151190906Y-125234826D01*
X151174593Y-125085503D01*
X151163143Y-124927081D01*
X151212063Y-124841160D01*
X151249954Y-124805169D01*
X151243927Y-124686281D01*
X151217404Y-124635298D01*
X151141189Y-124599662D01*
X151064654Y-124664499D01*
X151009600Y-124803038D01*
X150997828Y-124988506D01*
X150612319Y-124988506D01*
X150586180Y-124923712D01*
X150482167Y-124858163D01*
X150473614Y-124860257D01*
X150441954Y-124940998D01*
X150445052Y-125102636D01*
X150451062Y-125193419D01*
X150413037Y-125381039D01*
X150308492Y-125468218D01*
X150153733Y-125436282D01*
X150135096Y-125426373D01*
X150028209Y-125413267D01*
X149939683Y-125519365D01*
X149928167Y-125539642D01*
X149869953Y-125614037D01*
X149850996Y-125560909D01*
X149829193Y-125526149D01*
X149733388Y-125571853D01*
X149555955Y-125726007D01*
X149410751Y-125854778D01*
X149270426Y-125941126D01*
X149187016Y-125927870D01*
X149100045Y-125880097D01*
X148933231Y-125851459D01*
X148892501Y-125850758D01*
X148806862Y-125829200D01*
X148840996Y-125766320D01*
X148855717Y-125750355D01*
X148923733Y-125574811D01*
X148885293Y-125374326D01*
X148748761Y-125200236D01*
X148747192Y-125198998D01*
X148622974Y-125071246D01*
X148571387Y-124959438D01*
X148556017Y-124908951D01*
X148456691Y-124858163D01*
X148428922Y-124856373D01*
X148372822Y-124806630D01*
X148389552Y-124663052D01*
X148419063Y-124502050D01*
X156117143Y-124502050D01*
X156132955Y-124704817D01*
X156149059Y-124805169D01*
X156154823Y-124841086D01*
X156211554Y-125077093D01*
X156272556Y-125181838D01*
X156335412Y-125150003D01*
X156340041Y-125124055D01*
X156433004Y-125124055D01*
X156434667Y-125278318D01*
X156469049Y-125532186D01*
X156473500Y-125565054D01*
X156478181Y-125576036D01*
X156570021Y-125791510D01*
X156620389Y-125883456D01*
X156733833Y-126132405D01*
X156832119Y-126395665D01*
X156885783Y-126537726D01*
X157008409Y-126758055D01*
X157141112Y-126897207D01*
X157264310Y-126937810D01*
X157358417Y-126862493D01*
X157360408Y-126858662D01*
X157433034Y-126652142D01*
X157475932Y-126403687D01*
X157482933Y-126171758D01*
X157447867Y-126014817D01*
X157393293Y-125942974D01*
X157371310Y-125986618D01*
X157369631Y-126008268D01*
X157331867Y-126035655D01*
X157227253Y-125957884D01*
X157172786Y-125887580D01*
X157109819Y-125727815D01*
X157082249Y-125553178D01*
X157095827Y-125412550D01*
X157156303Y-125354811D01*
X157195470Y-125347035D01*
X157221251Y-125271192D01*
X157161020Y-125106557D01*
X157012011Y-124843317D01*
X156936724Y-124708760D01*
X156930222Y-124694339D01*
X157232240Y-124694339D01*
X157233043Y-124765035D01*
X157255127Y-124943176D01*
X157298203Y-125035538D01*
X157308446Y-125040119D01*
X157350458Y-124997332D01*
X157362756Y-124869174D01*
X157345337Y-124701182D01*
X157298203Y-124538890D01*
X157263180Y-124479768D01*
X157241078Y-124522663D01*
X157232240Y-124694339D01*
X156930222Y-124694339D01*
X156803971Y-124414334D01*
X156774805Y-124324614D01*
X157029563Y-124324614D01*
X157038054Y-124408815D01*
X157059394Y-124419915D01*
X157085354Y-124361515D01*
X157080233Y-124323955D01*
X157038054Y-124314215D01*
X157029563Y-124324614D01*
X156774805Y-124324614D01*
X156716094Y-124144004D01*
X156713076Y-124130741D01*
X156677855Y-123906529D01*
X156684626Y-123762967D01*
X156728435Y-123719600D01*
X156804326Y-123795972D01*
X156818043Y-123816714D01*
X156859797Y-123843491D01*
X156871418Y-123740705D01*
X156859036Y-123641243D01*
X156812943Y-123581068D01*
X156749721Y-123531715D01*
X156670742Y-123399693D01*
X156623333Y-123310949D01*
X156548283Y-123247041D01*
X156496320Y-123306241D01*
X156473716Y-123476721D01*
X156486743Y-123746654D01*
X156507530Y-123946940D01*
X156534443Y-124209048D01*
X156553404Y-124396990D01*
X156548591Y-124558479D01*
X156506765Y-124651882D01*
X156475713Y-124716913D01*
X156446599Y-124889582D01*
X156436422Y-125065113D01*
X156433004Y-125124055D01*
X156340041Y-125124055D01*
X156350557Y-125065113D01*
X156337527Y-124897456D01*
X156300913Y-124697200D01*
X156250643Y-124507739D01*
X156196650Y-124372469D01*
X156148862Y-124334783D01*
X156131306Y-124363944D01*
X156117143Y-124502050D01*
X148419063Y-124502050D01*
X148428144Y-124452509D01*
X148424884Y-124253397D01*
X148361690Y-124161542D01*
X148330804Y-124141840D01*
X148287588Y-124034102D01*
X148272495Y-123977414D01*
X148173424Y-123887555D01*
X148106615Y-123833717D01*
X148085671Y-123716787D01*
X148104918Y-123499558D01*
X148119251Y-123367572D01*
X148114894Y-123205746D01*
X148066518Y-123155370D01*
X148034321Y-123130116D01*
X148012490Y-123016874D01*
X148010844Y-122796982D01*
X148016114Y-122694197D01*
X148074739Y-122694197D01*
X148110214Y-122729672D01*
X148145689Y-122694197D01*
X148110214Y-122658722D01*
X148074739Y-122694197D01*
X148016114Y-122694197D01*
X148022651Y-122566714D01*
X156347660Y-122566714D01*
X156356050Y-122672405D01*
X156363258Y-122694197D01*
X156367851Y-122708083D01*
X156464727Y-122875264D01*
X156611353Y-123048945D01*
X156826676Y-123261795D01*
X156656881Y-122956219D01*
X156621098Y-122893046D01*
X156491168Y-122687397D01*
X156396361Y-122575166D01*
X156347660Y-122566714D01*
X148022651Y-122566714D01*
X148028461Y-122453411D01*
X148043857Y-122197107D01*
X148050883Y-121960586D01*
X148040129Y-121817867D01*
X148008921Y-121741853D01*
X147954580Y-121705448D01*
X147825286Y-121720569D01*
X147672596Y-121866571D01*
X147655574Y-121887402D01*
X147523478Y-122011807D01*
X147381885Y-122102567D01*
X147269292Y-122139448D01*
X147224197Y-122102219D01*
X147235488Y-122066847D01*
X147299680Y-121933399D01*
X147401571Y-121746871D01*
X147427555Y-121699475D01*
X156674814Y-121699475D01*
X156683305Y-121783675D01*
X156704646Y-121794775D01*
X156730605Y-121736376D01*
X156725485Y-121698815D01*
X156683305Y-121689076D01*
X156674814Y-121699475D01*
X147427555Y-121699475D01*
X147460878Y-121638692D01*
X147546195Y-121461895D01*
X147580975Y-121356647D01*
X147589172Y-121326316D01*
X147663642Y-121198209D01*
X147789885Y-121034276D01*
X147909715Y-120902887D01*
X147962308Y-120873886D01*
X147956101Y-120945589D01*
X147944306Y-121054385D01*
X147984785Y-121094899D01*
X148057276Y-121039503D01*
X148074932Y-121005298D01*
X150373439Y-121005298D01*
X150391039Y-121133303D01*
X150434151Y-121254762D01*
X150488884Y-121311686D01*
X150552513Y-121248573D01*
X150566851Y-121229487D01*
X150622306Y-121236278D01*
X150686864Y-121374789D01*
X150711514Y-121445282D01*
X150762243Y-121561714D01*
X150816475Y-121579340D01*
X150912728Y-121523526D01*
X151023696Y-121479586D01*
X151208352Y-121453663D01*
X151341557Y-121432425D01*
X151424118Y-121372875D01*
X151442417Y-121344748D01*
X151555995Y-121247757D01*
X151731567Y-121136459D01*
X151859931Y-121056821D01*
X151986860Y-120925999D01*
X152034330Y-120759702D01*
X152032793Y-120659168D01*
X151985253Y-120565705D01*
X156588706Y-120565705D01*
X156624180Y-120601180D01*
X156659655Y-120565705D01*
X156624180Y-120530230D01*
X156588706Y-120565705D01*
X151985253Y-120565705D01*
X151949632Y-120495673D01*
X151770511Y-120410297D01*
X151511919Y-120404679D01*
X151190346Y-120480457D01*
X150822280Y-120639269D01*
X150806792Y-120647351D01*
X150560153Y-120786566D01*
X150422756Y-120897801D01*
X150373439Y-121005298D01*
X148074932Y-121005298D01*
X148130935Y-120896804D01*
X148194064Y-120789074D01*
X148296379Y-120706143D01*
X148389091Y-120687986D01*
X148429488Y-120754904D01*
X148430418Y-120765621D01*
X148489507Y-120812113D01*
X148589916Y-120795643D01*
X148660352Y-120725342D01*
X148661408Y-120722143D01*
X148672193Y-120570886D01*
X148620302Y-120458610D01*
X148528921Y-120436306D01*
X148456810Y-120427537D01*
X148429488Y-120301322D01*
X148419670Y-120182369D01*
X148385881Y-120084575D01*
X148364802Y-120071431D01*
X148255730Y-120096184D01*
X148112051Y-120209384D01*
X147962324Y-120384552D01*
X147835106Y-120595213D01*
X147796306Y-120672130D01*
X147727879Y-120807777D01*
X147575488Y-121096805D01*
X147419871Y-121381627D01*
X147282005Y-121642097D01*
X147127543Y-121961081D01*
X147009840Y-122233024D01*
X146938853Y-122402172D01*
X146838123Y-122608164D01*
X146758857Y-122732723D01*
X146698220Y-122839899D01*
X146619176Y-123047042D01*
X146545161Y-123300321D01*
X146483269Y-123524775D01*
X146389633Y-123816318D01*
X146302617Y-124042242D01*
X146280060Y-124092817D01*
X146176699Y-124330645D01*
X146092824Y-124531945D01*
X146014345Y-124667003D01*
X145940859Y-124668305D01*
X145931019Y-124655217D01*
X145928756Y-124520028D01*
X146013647Y-124285026D01*
X146047149Y-124203432D01*
X146125487Y-123934244D01*
X146157538Y-123692066D01*
X146192149Y-123456388D01*
X146287037Y-123266367D01*
X146320152Y-123221764D01*
X146417702Y-123030269D01*
X146495081Y-122800621D01*
X146517062Y-122715387D01*
X146578297Y-122496979D01*
X146627521Y-122345547D01*
X146648497Y-122257195D01*
X146596852Y-122261047D01*
X146558375Y-122275341D01*
X146513845Y-122229620D01*
X146527279Y-122193722D01*
X146615082Y-122185741D01*
X146617690Y-122186705D01*
X146741724Y-122166502D01*
X146850951Y-122050065D01*
X146905272Y-121879685D01*
X146934185Y-121780088D01*
X147033465Y-121632319D01*
X147118914Y-121514033D01*
X147197718Y-121323453D01*
X147255973Y-121136155D01*
X147343770Y-120920454D01*
X147388776Y-120823599D01*
X147406634Y-120766842D01*
X147358194Y-120809590D01*
X147230396Y-120955929D01*
X147115451Y-121106429D01*
X146948414Y-121362237D01*
X146796675Y-121629951D01*
X146780822Y-121660443D01*
X146685140Y-121833257D01*
X146629299Y-121913451D01*
X146624951Y-121883799D01*
X146633919Y-121845017D01*
X146658846Y-121645510D01*
X146675223Y-121372620D01*
X146682493Y-121069314D01*
X146680099Y-120778556D01*
X146672413Y-120635229D01*
X146883752Y-120635229D01*
X146892244Y-120719430D01*
X146913584Y-120730529D01*
X146939544Y-120672130D01*
X146934423Y-120634569D01*
X146892244Y-120624830D01*
X146883752Y-120635229D01*
X146672413Y-120635229D01*
X146667484Y-120543314D01*
X146644092Y-120406551D01*
X146627506Y-120365295D01*
X146598553Y-120319324D01*
X146595162Y-120352856D01*
X146589782Y-120406068D01*
X146577819Y-120477551D01*
X146508039Y-120525022D01*
X146386136Y-120445091D01*
X146327105Y-120414576D01*
X146299242Y-120473630D01*
X146317225Y-120602326D01*
X146381556Y-120765481D01*
X146421194Y-120856625D01*
X146405822Y-120867857D01*
X146358981Y-120852772D01*
X146248904Y-120898770D01*
X146162110Y-120944021D01*
X146083485Y-120880417D01*
X146056994Y-120822461D01*
X146051191Y-120689867D01*
X146056648Y-120651098D01*
X145997233Y-120600976D01*
X145985597Y-120599355D01*
X145885085Y-120529278D01*
X145768873Y-120387714D01*
X145756321Y-120369400D01*
X145741888Y-120352856D01*
X145875298Y-120352856D01*
X145910773Y-120388331D01*
X145946247Y-120352856D01*
X145910773Y-120317381D01*
X145875298Y-120352856D01*
X145741888Y-120352856D01*
X145624642Y-120218457D01*
X145502812Y-120134813D01*
X145436608Y-120103036D01*
X145378650Y-120027045D01*
X145391039Y-119984972D01*
X145481161Y-119923361D01*
X145667994Y-119879514D01*
X145962699Y-119852083D01*
X146376439Y-119839722D01*
X146920375Y-119841086D01*
X148111872Y-119856208D01*
X148295494Y-119675637D01*
X149145857Y-119675637D01*
X149175359Y-119778969D01*
X149263147Y-119863867D01*
X149328155Y-119909478D01*
X149451450Y-119956561D01*
X149493734Y-119891683D01*
X149487505Y-119865554D01*
X149405046Y-119819647D01*
X149358641Y-119808518D01*
X149413264Y-119757168D01*
X149514369Y-119737089D01*
X149697063Y-119794221D01*
X149870151Y-119845566D01*
X150148465Y-119853585D01*
X150439147Y-119805410D01*
X150679645Y-119706618D01*
X150809697Y-119645655D01*
X150990544Y-119607884D01*
X151013278Y-119606567D01*
X151186282Y-119558156D01*
X151380938Y-119461636D01*
X151617573Y-119315387D01*
X151948192Y-119461636D01*
X152029649Y-119497671D01*
X152208209Y-119573688D01*
X152297451Y-119597670D01*
X152328311Y-119572937D01*
X152331722Y-119502811D01*
X152287531Y-119422511D01*
X152154348Y-119353220D01*
X152037103Y-119307903D01*
X151976974Y-119245444D01*
X151951427Y-119209086D01*
X151837301Y-119182186D01*
X151793106Y-119173190D01*
X152341092Y-119173190D01*
X152371290Y-119362794D01*
X152486734Y-119502811D01*
X152501824Y-119521113D01*
X152752674Y-119674427D01*
X152868243Y-119727584D01*
X153170864Y-119824674D01*
X153439192Y-119855003D01*
X153631694Y-119812069D01*
X153747224Y-119775194D01*
X153933230Y-119780208D01*
X153957096Y-119785425D01*
X154076813Y-119778347D01*
X154104724Y-119722803D01*
X154016778Y-119654873D01*
X153964494Y-119627747D01*
X154016778Y-119613485D01*
X154038069Y-119610534D01*
X154103212Y-119542937D01*
X154086496Y-119408003D01*
X154005257Y-119232122D01*
X153876834Y-119041686D01*
X153718563Y-118863086D01*
X153547781Y-118722713D01*
X153381826Y-118646957D01*
X153187090Y-118590499D01*
X153035209Y-118523419D01*
X152915789Y-118483212D01*
X152792462Y-118495456D01*
X152720714Y-118550332D01*
X152745557Y-118631104D01*
X152746219Y-118631767D01*
X152820681Y-118741139D01*
X152774778Y-118818701D01*
X152597784Y-118882721D01*
X152532109Y-118901965D01*
X152395710Y-118986327D01*
X152344333Y-119137364D01*
X152341092Y-119173190D01*
X151793106Y-119173190D01*
X151755219Y-119165478D01*
X151735080Y-119084588D01*
X151741190Y-119047205D01*
X151680516Y-119003282D01*
X151503062Y-118995901D01*
X151329162Y-118990689D01*
X151238788Y-118939861D01*
X151197322Y-118815219D01*
X151195668Y-118807309D01*
X151110274Y-118631108D01*
X150962837Y-118470617D01*
X150840789Y-118389251D01*
X150678474Y-118345539D01*
X150452342Y-118362437D01*
X150436700Y-118365060D01*
X150248064Y-118424271D01*
X150027129Y-118528540D01*
X149806294Y-118657345D01*
X149617959Y-118790160D01*
X149494524Y-118906463D01*
X149468389Y-118985729D01*
X149473744Y-119009280D01*
X149408771Y-119040286D01*
X149383922Y-119048485D01*
X149302226Y-119147566D01*
X149227209Y-119322968D01*
X149171895Y-119512543D01*
X149145857Y-119675637D01*
X148295494Y-119675637D01*
X148670333Y-119307027D01*
X148879360Y-119111129D01*
X149416525Y-118699609D01*
X149970393Y-118411467D01*
X150563535Y-118233909D01*
X150624720Y-118222696D01*
X150993496Y-118187089D01*
X151446983Y-118181048D01*
X151940930Y-118201843D01*
X152431087Y-118246746D01*
X152873203Y-118313027D01*
X153223028Y-118397956D01*
X153400195Y-118465903D01*
X153776541Y-118656894D01*
X154192036Y-118914875D01*
X154609647Y-119216015D01*
X154992337Y-119536482D01*
X155090024Y-119616125D01*
X155279502Y-119722803D01*
X155305253Y-119737301D01*
G37*
G36*
X154443809Y-136578860D02*
G01*
X154389264Y-136635817D01*
X154324993Y-136675596D01*
X154257867Y-136699630D01*
X154282840Y-136635817D01*
X154298027Y-136616494D01*
X154411189Y-136565954D01*
X154443809Y-136578860D01*
G37*
G36*
X154814963Y-136529392D02*
G01*
X154779488Y-136564867D01*
X154744013Y-136529392D01*
X154779488Y-136493917D01*
X154814963Y-136529392D01*
G37*
G36*
X154956862Y-136458443D02*
G01*
X154921387Y-136493917D01*
X154885912Y-136458443D01*
X154921387Y-136422968D01*
X154956862Y-136458443D01*
G37*
G36*
X154400770Y-136351753D02*
G01*
X154460214Y-136436024D01*
X154425065Y-136474398D01*
X154300577Y-136467686D01*
X154188101Y-136442285D01*
X154034516Y-136421779D01*
X154025373Y-136421436D01*
X153976562Y-136402801D01*
X154053685Y-136345534D01*
X154105979Y-136322867D01*
X154262607Y-136309563D01*
X154400770Y-136351753D01*
G37*
G36*
X134667495Y-132867050D02*
G01*
X134932430Y-132892952D01*
X135197365Y-132918855D01*
X134952668Y-133015452D01*
X134803361Y-133081324D01*
X134772297Y-133124718D01*
X134846244Y-133166153D01*
X134972243Y-133208066D01*
X135129382Y-133210634D01*
X135261572Y-133120413D01*
X135285768Y-133097429D01*
X135392403Y-133047791D01*
X135532701Y-133098219D01*
X135593363Y-133132786D01*
X135632150Y-133176355D01*
X135567571Y-133213335D01*
X135382145Y-133262839D01*
X135284725Y-133288054D01*
X135137886Y-133347160D01*
X135137670Y-133347247D01*
X135070709Y-133441280D01*
X135042254Y-133613003D01*
X135032447Y-133776798D01*
X135057827Y-133849633D01*
X135132528Y-133840775D01*
X135203521Y-133828760D01*
X135328148Y-133868778D01*
X135346279Y-133874600D01*
X135440175Y-133912518D01*
X135555855Y-133839697D01*
X135643028Y-133779446D01*
X135747265Y-133773340D01*
X135788318Y-133783509D01*
X135780118Y-133705315D01*
X135766532Y-133639585D01*
X135800437Y-133549504D01*
X135826116Y-133518471D01*
X135825223Y-133405332D01*
X135824668Y-133334126D01*
X135931599Y-133301180D01*
X135983249Y-133302583D01*
X136038932Y-133327558D01*
X136034281Y-133412499D01*
X135974664Y-133593899D01*
X135900483Y-133818662D01*
X135880634Y-133945249D01*
X135902450Y-133975202D01*
X135920001Y-133999298D01*
X136021974Y-134010677D01*
X136122406Y-134030044D01*
X136102707Y-134099364D01*
X136013682Y-134276937D01*
X136000154Y-134410361D01*
X135981515Y-134594193D01*
X136046660Y-134995862D01*
X136050915Y-135012519D01*
X136107186Y-135357312D01*
X136094167Y-135536096D01*
X136087812Y-135623365D01*
X135996675Y-135794707D01*
X135837659Y-135855370D01*
X135726312Y-135875590D01*
X135587588Y-135961795D01*
X135526695Y-136018533D01*
X135410214Y-136068219D01*
X135358262Y-136079713D01*
X135242654Y-136162819D01*
X135191555Y-136207562D01*
X135038854Y-136263206D01*
X134987832Y-136262470D01*
X134769439Y-136235041D01*
X134468421Y-136177523D01*
X134123530Y-136099105D01*
X133773518Y-136008975D01*
X133457138Y-135916321D01*
X133213141Y-135830331D01*
X133121117Y-135793503D01*
X132910871Y-135721587D01*
X132786197Y-135707882D01*
X132716493Y-135747272D01*
X132624004Y-135804785D01*
X132422546Y-135870179D01*
X132164743Y-135924261D01*
X131896757Y-135957649D01*
X131664749Y-135960966D01*
X131664569Y-135960953D01*
X131484921Y-135922686D01*
X131233030Y-135838862D01*
X130963369Y-135727607D01*
X130925818Y-135710396D01*
X130695968Y-135598459D01*
X130655352Y-135571571D01*
X132536750Y-135571571D01*
X132539638Y-135591018D01*
X132611887Y-135642521D01*
X132637550Y-135636950D01*
X132643175Y-135571571D01*
X132628613Y-135550338D01*
X132611261Y-135536096D01*
X134452393Y-135536096D01*
X134487868Y-135571571D01*
X134523342Y-135536096D01*
X134487868Y-135500621D01*
X134452393Y-135536096D01*
X132611261Y-135536096D01*
X132568038Y-135500621D01*
X132560957Y-135502466D01*
X132536750Y-135571571D01*
X130655352Y-135571571D01*
X130569877Y-135514986D01*
X130522787Y-135438195D01*
X130529939Y-135346308D01*
X130577427Y-135212741D01*
X130668865Y-135066996D01*
X130765342Y-134988709D01*
X130837602Y-135009871D01*
X130874196Y-135050600D01*
X130935700Y-135011548D01*
X130949274Y-134977448D01*
X130909094Y-134933024D01*
X130882284Y-134927447D01*
X130839256Y-134845459D01*
X130860882Y-134702556D01*
X130942971Y-134546522D01*
X130945397Y-134541618D01*
X131483147Y-134541618D01*
X131509326Y-134554915D01*
X131579423Y-134514393D01*
X131614404Y-134410361D01*
X131601878Y-134381006D01*
X131530447Y-134421003D01*
X131492939Y-134468726D01*
X131483147Y-134541618D01*
X130945397Y-134541618D01*
X130998808Y-134433630D01*
X131006883Y-134280460D01*
X130997643Y-134206620D01*
X131048667Y-134152577D01*
X131103609Y-134179285D01*
X131168148Y-134294476D01*
X131180488Y-134334225D01*
X131244881Y-134428158D01*
X131297273Y-134407003D01*
X131294932Y-134276739D01*
X131305784Y-134101029D01*
X131360439Y-133975202D01*
X131969153Y-133975202D01*
X132004627Y-134010677D01*
X132040102Y-133975202D01*
X132004627Y-133939728D01*
X131969153Y-133975202D01*
X131360439Y-133975202D01*
X131398962Y-133886515D01*
X131435534Y-133831877D01*
X134893250Y-133831877D01*
X134901741Y-133916078D01*
X134923081Y-133927177D01*
X134949041Y-133868778D01*
X134943920Y-133831217D01*
X134901741Y-133821478D01*
X134893250Y-133831877D01*
X131435534Y-133831877D01*
X131450068Y-133810164D01*
X131584555Y-133688578D01*
X131762045Y-133655929D01*
X131870416Y-133644107D01*
X132108261Y-133553872D01*
X132313215Y-133403693D01*
X132326684Y-133383626D01*
X134452393Y-133383626D01*
X134454374Y-133397562D01*
X134523342Y-133443079D01*
X134555981Y-133455086D01*
X134594292Y-133549504D01*
X134594432Y-133559107D01*
X134630596Y-133647907D01*
X134717194Y-133619909D01*
X134834682Y-133480706D01*
X134858432Y-133444302D01*
X134908530Y-133347160D01*
X134863874Y-133313727D01*
X134700942Y-133314828D01*
X134668503Y-133316555D01*
X134514877Y-133341964D01*
X134452393Y-133383626D01*
X132326684Y-133383626D01*
X132430935Y-133228312D01*
X132480482Y-133136173D01*
X132614790Y-133013587D01*
X132690143Y-132978370D01*
X132729738Y-133000177D01*
X132705955Y-133131095D01*
X132685763Y-133226837D01*
X132704550Y-133295261D01*
X132806693Y-133284246D01*
X132903773Y-133277346D01*
X132988920Y-133326449D01*
X133008654Y-133351460D01*
X133027797Y-133289245D01*
X133033661Y-133232427D01*
X133076464Y-133058659D01*
X133085647Y-132988745D01*
X133005514Y-132946431D01*
X132949521Y-132937747D01*
X132891499Y-132879505D01*
X132922610Y-132815858D01*
X133029720Y-132717707D01*
X133158055Y-132641646D01*
X133248941Y-132628823D01*
X133278047Y-132672456D01*
X133298144Y-132810677D01*
X133283907Y-132964612D01*
X133237379Y-133058337D01*
X133223735Y-133068675D01*
X133175298Y-133174464D01*
X133175298Y-133174536D01*
X133218571Y-133190244D01*
X133285656Y-133144267D01*
X133964422Y-133144267D01*
X134031158Y-133157123D01*
X134054096Y-133154235D01*
X134185381Y-133086210D01*
X134337082Y-132955706D01*
X134453497Y-132823087D01*
X134476946Y-132750154D01*
X134414904Y-132707152D01*
X134341416Y-132687366D01*
X134213856Y-132724656D01*
X134200590Y-132769057D01*
X134168594Y-132876143D01*
X134148147Y-132961595D01*
X134044432Y-133082648D01*
X134021489Y-133096244D01*
X133964422Y-133144267D01*
X133285656Y-133144267D01*
X133322456Y-133119046D01*
X133407024Y-133013776D01*
X133437651Y-132818659D01*
X133433696Y-132790945D01*
X133438807Y-132769057D01*
X133955745Y-132769057D01*
X133991220Y-132804532D01*
X134026694Y-132769057D01*
X133991220Y-132733582D01*
X133955745Y-132769057D01*
X133438807Y-132769057D01*
X133466044Y-132652405D01*
X133565620Y-132596072D01*
X133688771Y-132651078D01*
X133746152Y-132677656D01*
X133884255Y-132650890D01*
X134110056Y-132542605D01*
X134253518Y-132470814D01*
X134417297Y-132408006D01*
X134500048Y-132402839D01*
X134511768Y-132421163D01*
X134464218Y-132449783D01*
X134436869Y-132453787D01*
X134381443Y-132520733D01*
X134384518Y-132540674D01*
X134457461Y-132591683D01*
X134494168Y-132584575D01*
X134599446Y-132520712D01*
X134683516Y-132430171D01*
X134695624Y-132361916D01*
X134687161Y-132348327D01*
X134727691Y-132277946D01*
X134862089Y-132199458D01*
X135055465Y-132134875D01*
X135268315Y-132084200D01*
X135086126Y-132284729D01*
X135077932Y-132293807D01*
X134918325Y-132488175D01*
X134785716Y-132676154D01*
X134739888Y-132750154D01*
X134667495Y-132867050D01*
G37*
G36*
X154183779Y-135888275D02*
G01*
X154266848Y-135993161D01*
X154280892Y-136077412D01*
X154266991Y-136166843D01*
X154261985Y-136170755D01*
X154175488Y-136158546D01*
X154055828Y-136085708D01*
X153956972Y-135992344D01*
X153932887Y-135918559D01*
X153940044Y-135908183D01*
X154051694Y-135854778D01*
X154183779Y-135888275D01*
G37*
G36*
X153764020Y-136019752D02*
G01*
X153796860Y-136045290D01*
X153721154Y-136062618D01*
X153649193Y-136057601D01*
X153628033Y-136025354D01*
X153653134Y-136011294D01*
X153764020Y-136019752D01*
G37*
G36*
X148784236Y-135961795D02*
G01*
X148748761Y-135997269D01*
X148713287Y-135961795D01*
X148748761Y-135926320D01*
X148784236Y-135961795D01*
G37*
G36*
X153980525Y-135644583D02*
G01*
X154034516Y-135713471D01*
X154032454Y-135730429D01*
X153963566Y-135784420D01*
X153946607Y-135782359D01*
X153892616Y-135713471D01*
X153894678Y-135696512D01*
X153963566Y-135642521D01*
X153980525Y-135644583D01*
G37*
G36*
X153832670Y-135307740D02*
G01*
X153892616Y-135394197D01*
X153885630Y-135443029D01*
X153830354Y-135500621D01*
X153782187Y-135483387D01*
X153679767Y-135394197D01*
X153660119Y-135369528D01*
X153639534Y-135303306D01*
X153742029Y-135287772D01*
X153832670Y-135307740D01*
G37*
G36*
X157512618Y-135025377D02*
G01*
X157465477Y-135140471D01*
X157364923Y-135275967D01*
X157364295Y-135276640D01*
X157238239Y-135372581D01*
X157139944Y-135384086D01*
X157121685Y-135337550D01*
X157219681Y-135276688D01*
X157313124Y-135223352D01*
X157339017Y-135154512D01*
X157335354Y-135103518D01*
X157405409Y-135003325D01*
X157427373Y-134986308D01*
X157501525Y-134963164D01*
X157512618Y-135025377D01*
G37*
G36*
X156730605Y-135216823D02*
G01*
X156725485Y-135254383D01*
X156683305Y-135264122D01*
X156674814Y-135253723D01*
X156683305Y-135169523D01*
X156704646Y-135158423D01*
X156730605Y-135216823D01*
G37*
G36*
X157156303Y-135110398D02*
G01*
X157120828Y-135145873D01*
X157085354Y-135110398D01*
X157120828Y-135074923D01*
X157156303Y-135110398D01*
G37*
G36*
X148120581Y-134893306D02*
G01*
X148287588Y-134968498D01*
X148392327Y-135034081D01*
X148416311Y-135068346D01*
X148327521Y-135047473D01*
X148136097Y-134971276D01*
X148086380Y-134948559D01*
X147990263Y-134890682D01*
X148003789Y-134867365D01*
X148120581Y-134893306D01*
G37*
G36*
X157098657Y-134884557D02*
G01*
X157131497Y-134910095D01*
X157055791Y-134927422D01*
X156983830Y-134922406D01*
X156962670Y-134890158D01*
X156987771Y-134876099D01*
X157098657Y-134884557D01*
G37*
G36*
X147736397Y-134793851D02*
G01*
X147790940Y-134862074D01*
X147790127Y-134878130D01*
X147759653Y-134933024D01*
X147748272Y-134929759D01*
X147684516Y-134862074D01*
X147673430Y-134834591D01*
X147715803Y-134791124D01*
X147736397Y-134793851D01*
G37*
G36*
X153325018Y-134613750D02*
G01*
X153289544Y-134649225D01*
X153254069Y-134613750D01*
X153289544Y-134578275D01*
X153325018Y-134613750D01*
G37*
G36*
X158291499Y-134296703D02*
G01*
X158279510Y-134328295D01*
X158185074Y-134365426D01*
X158136586Y-134362344D01*
X158078650Y-134337542D01*
X158091721Y-134319178D01*
X158185074Y-134268819D01*
X158239492Y-134257665D01*
X158291499Y-134296703D01*
G37*
G36*
X162299652Y-133696126D02*
G01*
X162229208Y-133797828D01*
X162126105Y-133891919D01*
X162029841Y-133939728D01*
X162016865Y-133899530D01*
X162087309Y-133797828D01*
X162190413Y-133703738D01*
X162286676Y-133655929D01*
X162299652Y-133696126D01*
G37*
G36*
X161372186Y-133732449D02*
G01*
X161377812Y-133797828D01*
X161363249Y-133819061D01*
X161302675Y-133868778D01*
X161295594Y-133866933D01*
X161271387Y-133797828D01*
X161274275Y-133778382D01*
X161346524Y-133726878D01*
X161372186Y-133732449D01*
G37*
G36*
X141689264Y-133691404D02*
G01*
X141653789Y-133726878D01*
X141618315Y-133691404D01*
X141653789Y-133655929D01*
X141689264Y-133691404D01*
G37*
G36*
X135516639Y-133655929D02*
G01*
X135511518Y-133693489D01*
X135469339Y-133703228D01*
X135460847Y-133692830D01*
X135469339Y-133608629D01*
X135490679Y-133597529D01*
X135516639Y-133655929D01*
G37*
G36*
X131046806Y-133655929D02*
G01*
X131041686Y-133693489D01*
X130999506Y-133703228D01*
X130991015Y-133692830D01*
X130999506Y-133608629D01*
X131020847Y-133597529D01*
X131046806Y-133655929D01*
G37*
G36*
X162674724Y-133147783D02*
G01*
X162707237Y-133211207D01*
X162807665Y-133337378D01*
X162859083Y-133414612D01*
X162860595Y-133525615D01*
X162813494Y-133554787D01*
X162754619Y-133462470D01*
X162689492Y-133340834D01*
X162586700Y-133249044D01*
X162498177Y-133256886D01*
X162493903Y-133306852D01*
X162556109Y-133417428D01*
X162585531Y-133453884D01*
X162617085Y-133513783D01*
X162548482Y-133502272D01*
X162493929Y-133471285D01*
X162425405Y-133348707D01*
X162433071Y-133206328D01*
X162521514Y-133110724D01*
X162595560Y-133097079D01*
X162674724Y-133147783D01*
G37*
G36*
X161490760Y-133311736D02*
G01*
X161538130Y-133348186D01*
X161664485Y-133345369D01*
X161684329Y-133337942D01*
X161749063Y-133328653D01*
X161701625Y-133402135D01*
X161607089Y-133466202D01*
X161445777Y-133441945D01*
X161331073Y-133413691D01*
X161234237Y-133445791D01*
X161193257Y-133488144D01*
X161104389Y-133511542D01*
X161059092Y-133460817D01*
X161114194Y-133398178D01*
X161250150Y-133319135D01*
X161265880Y-133311946D01*
X161413818Y-133268122D01*
X161490760Y-133311736D01*
G37*
G36*
X132266738Y-133237544D02*
G01*
X132323901Y-133301180D01*
X132295360Y-133343183D01*
X132177814Y-133372130D01*
X132097301Y-133357024D01*
X132075577Y-133301180D01*
X132100868Y-133273471D01*
X132221664Y-133230230D01*
X132266738Y-133237544D01*
G37*
G36*
X140371069Y-133164851D02*
G01*
X140376694Y-133230230D01*
X140362132Y-133251463D01*
X140301557Y-133301180D01*
X140294477Y-133299335D01*
X140270270Y-133230230D01*
X140273157Y-133210784D01*
X140345407Y-133159281D01*
X140371069Y-133164851D01*
G37*
G36*
X139489823Y-133265705D02*
G01*
X139454348Y-133301180D01*
X139418873Y-133265705D01*
X139454348Y-133230230D01*
X139489823Y-133265705D01*
G37*
G36*
X140128370Y-133194755D02*
G01*
X140092896Y-133230230D01*
X140057421Y-133194755D01*
X140092896Y-133159281D01*
X140128370Y-133194755D01*
G37*
G36*
X139844572Y-133052856D02*
G01*
X139809097Y-133088331D01*
X139773622Y-133052856D01*
X139809097Y-133017381D01*
X139844572Y-133052856D01*
G37*
G36*
X136060586Y-133041031D02*
G01*
X136071686Y-133062371D01*
X136013287Y-133088331D01*
X135975726Y-133083211D01*
X135965987Y-133041031D01*
X135976386Y-133032540D01*
X136060586Y-133041031D01*
G37*
G36*
X135445689Y-132800345D02*
G01*
X135442962Y-132820939D01*
X135374739Y-132875482D01*
X135358683Y-132874668D01*
X135303789Y-132844194D01*
X135307054Y-132832813D01*
X135374739Y-132769057D01*
X135402222Y-132757971D01*
X135445689Y-132800345D01*
G37*
G36*
X139671721Y-132479646D02*
G01*
X139729581Y-132544724D01*
X139773622Y-132622090D01*
X139773315Y-132626646D01*
X139715174Y-132662075D01*
X139607756Y-132647391D01*
X139525298Y-132591683D01*
X139502380Y-132485840D01*
X139565677Y-132432256D01*
X139671721Y-132479646D01*
G37*
G36*
X132394851Y-132627158D02*
G01*
X132359376Y-132662633D01*
X132323901Y-132627158D01*
X132359376Y-132591683D01*
X132394851Y-132627158D01*
G37*
G36*
X133260815Y-132108029D02*
G01*
X133317197Y-132242298D01*
X133335019Y-132321615D01*
X133423622Y-132333541D01*
X133478437Y-132323802D01*
X133530046Y-132371243D01*
X133527994Y-132393013D01*
X133465758Y-132447256D01*
X133346543Y-132416205D01*
X133210773Y-132307884D01*
X133099423Y-132214786D01*
X132969190Y-132163827D01*
X132941963Y-132163016D01*
X132895699Y-132147287D01*
X132974088Y-132092764D01*
X133125227Y-132053611D01*
X133260815Y-132108029D01*
G37*
G36*
X132730352Y-131861333D02*
G01*
X132785713Y-132026991D01*
X132799407Y-132185807D01*
X132746462Y-132347140D01*
X132657148Y-132413542D01*
X132551763Y-132361971D01*
X132524905Y-132339135D01*
X132484304Y-132278602D01*
X132568265Y-132248104D01*
X132585688Y-132244019D01*
X132661761Y-132176872D01*
X132662552Y-132017518D01*
X132653663Y-131897373D01*
X132678740Y-131817543D01*
X132730352Y-131861333D01*
G37*
G36*
X134054841Y-131918640D02*
G01*
X134092607Y-132046311D01*
X134128290Y-132172920D01*
X134124481Y-132257397D01*
X134105738Y-132268790D01*
X133994839Y-132266948D01*
X133871910Y-132219954D01*
X133813845Y-132153522D01*
X133808328Y-132131246D01*
X133742351Y-132130846D01*
X133719968Y-132138441D01*
X133613004Y-132103044D01*
X133507065Y-132006029D01*
X133459097Y-131894844D01*
X133446625Y-131858014D01*
X133424829Y-131841210D01*
X133569912Y-131841210D01*
X133579071Y-131904110D01*
X133616587Y-131915643D01*
X133736120Y-131886373D01*
X133773980Y-131852212D01*
X133764820Y-131789311D01*
X133727305Y-131777778D01*
X133607771Y-131807049D01*
X133569912Y-131841210D01*
X133424829Y-131841210D01*
X133352672Y-131785579D01*
X133298263Y-131741459D01*
X133247633Y-131606400D01*
X133243983Y-131441623D01*
X133285510Y-131302257D01*
X133370409Y-131243434D01*
X133384672Y-131242168D01*
X133509405Y-131173014D01*
X133636471Y-131030789D01*
X133697450Y-130950460D01*
X133820023Y-130842814D01*
X133916583Y-130818333D01*
X133955745Y-130890780D01*
X133943610Y-130927382D01*
X133860705Y-131054055D01*
X133725158Y-131217018D01*
X133602756Y-131360914D01*
X133510628Y-131517205D01*
X133528855Y-131611294D01*
X133655291Y-131656676D01*
X133698968Y-131657510D01*
X133890045Y-131583294D01*
X134147247Y-131387924D01*
X134310109Y-131257111D01*
X134478270Y-131150052D01*
X134583720Y-131116786D01*
X134658901Y-131141447D01*
X134708032Y-131226646D01*
X134629080Y-131355605D01*
X134424423Y-131522273D01*
X134342298Y-131579193D01*
X134159778Y-131716523D01*
X134070595Y-131819191D01*
X134065364Y-131852212D01*
X134054841Y-131918640D01*
G37*
G36*
X134750031Y-131932917D02*
G01*
X134888698Y-131973702D01*
X134949041Y-132032356D01*
X134946907Y-132040562D01*
X134864880Y-132079286D01*
X134700717Y-132095035D01*
X134613583Y-132090154D01*
X134482557Y-132052526D01*
X134450595Y-131994489D01*
X134538402Y-131936291D01*
X134596583Y-131924866D01*
X134750031Y-131932917D01*
G37*
G36*
X135743678Y-131867996D02*
G01*
X135759975Y-131885329D01*
X135771310Y-131938828D01*
X135658538Y-131953135D01*
X135624389Y-131952618D01*
X135538474Y-131931535D01*
X135573398Y-131867996D01*
X135647130Y-131819388D01*
X135743678Y-131867996D01*
G37*
G36*
X135844642Y-131203710D02*
G01*
X135769139Y-131281369D01*
X135639244Y-131369087D01*
X135597926Y-131370097D01*
X135658538Y-131279113D01*
X135718723Y-131222201D01*
X135826862Y-131174945D01*
X135844642Y-131203710D01*
G37*
G36*
X157298203Y-130924364D02*
G01*
X157262728Y-130959839D01*
X157227253Y-130924364D01*
X157262728Y-130888890D01*
X157298203Y-130924364D01*
G37*
G36*
X156770180Y-130608283D02*
G01*
X156837030Y-130676040D01*
X156850245Y-130701160D01*
X156845404Y-130746990D01*
X156832930Y-130743798D01*
X156766080Y-130676040D01*
X156752865Y-130650920D01*
X156757705Y-130605091D01*
X156770180Y-130608283D01*
G37*
G36*
X156659655Y-130569616D02*
G01*
X156624180Y-130605091D01*
X156588706Y-130569616D01*
X156624180Y-130534141D01*
X156659655Y-130569616D01*
G37*
G36*
X161416749Y-129989384D02*
G01*
X161494580Y-130098383D01*
X161587004Y-130252239D01*
X161664319Y-130400302D01*
X161696820Y-130491925D01*
X161680821Y-130522480D01*
X161615341Y-130486678D01*
X161526245Y-130387999D01*
X161443009Y-130260859D01*
X161395110Y-130139672D01*
X161379977Y-130025992D01*
X161388693Y-129966543D01*
X161416749Y-129989384D01*
G37*
G36*
X156517756Y-130498666D02*
G01*
X156482281Y-130534141D01*
X156446806Y-130498666D01*
X156482281Y-130463191D01*
X156517756Y-130498666D01*
G37*
G36*
X146230046Y-128724923D02*
G01*
X146194572Y-128760398D01*
X146159097Y-128724923D01*
X146194572Y-128689448D01*
X146230046Y-128724923D01*
G37*
G36*
X148136651Y-128435965D02*
G01*
X148235651Y-128547549D01*
X148300986Y-128645119D01*
X148291081Y-128689448D01*
X148270445Y-128686460D01*
X148180448Y-128617341D01*
X148161029Y-128594936D01*
X148070649Y-128585551D01*
X148041778Y-128589448D01*
X148047668Y-128515759D01*
X148053899Y-128499421D01*
X148090282Y-128422326D01*
X148136651Y-128435965D01*
G37*
G36*
X151517965Y-127343200D02*
G01*
X151561565Y-127396653D01*
X151577696Y-127516789D01*
X151569613Y-127560515D01*
X151617649Y-127657849D01*
X151653247Y-127717188D01*
X151650044Y-127899159D01*
X151581325Y-128179560D01*
X151561456Y-128216308D01*
X151483925Y-128230500D01*
X151457609Y-128201561D01*
X151453413Y-128089647D01*
X151459355Y-127996248D01*
X151410116Y-127839434D01*
X151367653Y-127684463D01*
X151375560Y-127475751D01*
X151395059Y-127398493D01*
X151444242Y-127314833D01*
X151517965Y-127343200D01*
G37*
G36*
X152293412Y-127850058D02*
G01*
X152331722Y-127944476D01*
X152323718Y-127993434D01*
X152260773Y-128050901D01*
X152228134Y-128038894D01*
X152189823Y-127944476D01*
X152197827Y-127895518D01*
X152260773Y-127838052D01*
X152293412Y-127850058D01*
G37*
G36*
X151906024Y-127802577D02*
G01*
X151870549Y-127838052D01*
X151835074Y-127802577D01*
X151870549Y-127767102D01*
X151906024Y-127802577D01*
G37*
G36*
X142540661Y-127802577D02*
G01*
X142505186Y-127838052D01*
X142469711Y-127802577D01*
X142505186Y-127767102D01*
X142540661Y-127802577D01*
G37*
G36*
X142682560Y-127731627D02*
G01*
X142647085Y-127767102D01*
X142611611Y-127731627D01*
X142647085Y-127696152D01*
X142682560Y-127731627D01*
G37*
G36*
X151781083Y-127556314D02*
G01*
X151835074Y-127625202D01*
X151833013Y-127642161D01*
X151764125Y-127696152D01*
X151747166Y-127694090D01*
X151693175Y-127625202D01*
X151695237Y-127608244D01*
X151764125Y-127554253D01*
X151781083Y-127556314D01*
G37*
G36*
X151976974Y-127412353D02*
G01*
X151971853Y-127449914D01*
X151929674Y-127459653D01*
X151921183Y-127449254D01*
X151929674Y-127365053D01*
X151951014Y-127353954D01*
X151976974Y-127412353D01*
G37*
G36*
X151564465Y-126822459D02*
G01*
X151640044Y-126908090D01*
X151729366Y-127050290D01*
X151803890Y-127201091D01*
X151835074Y-127312523D01*
X151830277Y-127322945D01*
X151763620Y-127305617D01*
X151748355Y-127294694D01*
X151658820Y-127186331D01*
X151578065Y-127035156D01*
X151530327Y-126894164D01*
X151539844Y-126816346D01*
X151564465Y-126822459D01*
G37*
G36*
X151384522Y-126986655D02*
G01*
X151354585Y-127119919D01*
X151328765Y-127270454D01*
X151327894Y-127277303D01*
X151310677Y-127283423D01*
X151286774Y-127173123D01*
X151289297Y-127012726D01*
X151342532Y-126889324D01*
X151364437Y-126870448D01*
X151403070Y-126870051D01*
X151384522Y-126986655D01*
G37*
G36*
X152331722Y-127164029D02*
G01*
X152296247Y-127199504D01*
X152260773Y-127164029D01*
X152296247Y-127128554D01*
X152331722Y-127164029D01*
G37*
G36*
X145585898Y-126803368D02*
G01*
X145580881Y-126875330D01*
X145548633Y-126896490D01*
X145534574Y-126871389D01*
X145543032Y-126760503D01*
X145568570Y-126727662D01*
X145585898Y-126803368D01*
G37*
G36*
X146159097Y-126738331D02*
G01*
X146123622Y-126773806D01*
X146088147Y-126738331D01*
X146123622Y-126702856D01*
X146159097Y-126738331D01*
G37*
G36*
X149116236Y-126178569D02*
G01*
X149183039Y-126299276D01*
X149170503Y-126425460D01*
X149127491Y-126473234D01*
X149042301Y-126483421D01*
X148872923Y-126445288D01*
X148847954Y-126437847D01*
X148735997Y-126373121D01*
X148722698Y-126307285D01*
X148819711Y-126277158D01*
X148868670Y-126269153D01*
X148926136Y-126206208D01*
X148935530Y-126176106D01*
X149024970Y-126135258D01*
X149116236Y-126178569D01*
G37*
G36*
X146230046Y-126454532D02*
G01*
X146194572Y-126490007D01*
X146159097Y-126454532D01*
X146194572Y-126419057D01*
X146230046Y-126454532D01*
G37*
G36*
X146110848Y-126015203D02*
G01*
X145891221Y-126365845D01*
X145811900Y-126442315D01*
X145724898Y-126490007D01*
X145683261Y-126475300D01*
X145602789Y-126368901D01*
X145552669Y-126210638D01*
X145556875Y-126061629D01*
X145569377Y-125977669D01*
X145531608Y-125922409D01*
X145480050Y-125880110D01*
X145482396Y-125870062D01*
X145607422Y-125870062D01*
X145647267Y-125922409D01*
X145730329Y-125870130D01*
X145767412Y-125760434D01*
X145730300Y-125672170D01*
X145708023Y-125660288D01*
X145662449Y-125664095D01*
X145657032Y-125694598D01*
X145619383Y-125810182D01*
X145607422Y-125870062D01*
X145482396Y-125870062D01*
X145512094Y-125742860D01*
X145632572Y-125503337D01*
X145800421Y-125243533D01*
X145986707Y-125059508D01*
X146168865Y-125000063D01*
X146244460Y-125007168D01*
X146289524Y-125052954D01*
X146296359Y-125171399D01*
X146273952Y-125396397D01*
X146247797Y-125567662D01*
X146188808Y-125760434D01*
X146110848Y-126015203D01*
G37*
G36*
X148692890Y-126045028D02*
G01*
X148670717Y-126163638D01*
X148639322Y-126223908D01*
X148589332Y-126247803D01*
X148577593Y-126211299D01*
X148599767Y-126092688D01*
X148631162Y-126032419D01*
X148681152Y-126008524D01*
X148692890Y-126045028D01*
G37*
G36*
X143746806Y-125851459D02*
G01*
X143741686Y-125889020D01*
X143699506Y-125898759D01*
X143691015Y-125888360D01*
X143699506Y-125804160D01*
X143720847Y-125793060D01*
X143746806Y-125851459D01*
G37*
G36*
X150841778Y-125780510D02*
G01*
X150836658Y-125818070D01*
X150794478Y-125827809D01*
X150785987Y-125817411D01*
X150794478Y-125733210D01*
X150815819Y-125722110D01*
X150841778Y-125780510D01*
G37*
G36*
X159778093Y-124797970D02*
G01*
X159838660Y-124904439D01*
X159892948Y-125087390D01*
X159929123Y-125300316D01*
X159935354Y-125496711D01*
X159911890Y-125815985D01*
X159818316Y-125546327D01*
X159782498Y-125411724D01*
X159748729Y-125207428D01*
X159730299Y-125004610D01*
X159731053Y-124849221D01*
X159754833Y-124787214D01*
X159778093Y-124797970D01*
G37*
G36*
X145307700Y-125745035D02*
G01*
X145272225Y-125780510D01*
X145236750Y-125745035D01*
X145272225Y-125709560D01*
X145307700Y-125745035D01*
G37*
G36*
X148696828Y-125358332D02*
G01*
X148776406Y-125438237D01*
X148821865Y-125566639D01*
X148802666Y-125667480D01*
X148756179Y-125675940D01*
X148635650Y-125635032D01*
X148614146Y-125621596D01*
X148547479Y-125515320D01*
X148571577Y-125405423D01*
X148677128Y-125354811D01*
X148696828Y-125358332D01*
G37*
G36*
X159355745Y-125532186D02*
G01*
X159320270Y-125567660D01*
X159284795Y-125532186D01*
X159320270Y-125496711D01*
X159355745Y-125532186D01*
G37*
G36*
X148429488Y-125208725D02*
G01*
X148426761Y-125229319D01*
X148358538Y-125283862D01*
X148342481Y-125283048D01*
X148287588Y-125252574D01*
X148290853Y-125241193D01*
X148358538Y-125177437D01*
X148386021Y-125166351D01*
X148429488Y-125208725D01*
G37*
G36*
X145875298Y-124893638D02*
G01*
X145839823Y-124929113D01*
X145804348Y-124893638D01*
X145839823Y-124858163D01*
X145875298Y-124893638D01*
G37*
G36*
X157794851Y-124822688D02*
G01*
X157759376Y-124858163D01*
X157723901Y-124822688D01*
X157759376Y-124787214D01*
X157794851Y-124822688D01*
G37*
G36*
X147152393Y-124467940D02*
G01*
X147116918Y-124503415D01*
X147081443Y-124467940D01*
X147116918Y-124432465D01*
X147152393Y-124467940D01*
G37*
G36*
X158930046Y-124077716D02*
G01*
X158924926Y-124115277D01*
X158882747Y-124125016D01*
X158874255Y-124114617D01*
X158882747Y-124030417D01*
X158904087Y-124019317D01*
X158930046Y-124077716D01*
G37*
G36*
X159639544Y-124042242D02*
G01*
X159604069Y-124077716D01*
X159568594Y-124042242D01*
X159604069Y-124006767D01*
X159639544Y-124042242D01*
G37*
G36*
X159491646Y-123909683D02*
G01*
X159465087Y-124002046D01*
X159446859Y-124025501D01*
X159342870Y-124077716D01*
X159311413Y-124058788D01*
X159357168Y-123969577D01*
X159436586Y-123902105D01*
X159491646Y-123909683D01*
G37*
G36*
X159710493Y-123687493D02*
G01*
X159675018Y-123722968D01*
X159639544Y-123687493D01*
X159675018Y-123652018D01*
X159710493Y-123687493D01*
G37*
G36*
X145094851Y-123581068D02*
G01*
X145089731Y-123618629D01*
X145047551Y-123628368D01*
X145039060Y-123617969D01*
X145047551Y-123533769D01*
X145068891Y-123522669D01*
X145094851Y-123581068D01*
G37*
G36*
X147930682Y-123054858D02*
G01*
X147922782Y-123147532D01*
X147881105Y-123254404D01*
X147857279Y-123272770D01*
X147811994Y-123252854D01*
X147809279Y-123157699D01*
X147854711Y-123033881D01*
X147883274Y-122986226D01*
X147921872Y-122953176D01*
X147930682Y-123054858D01*
G37*
G36*
X158078650Y-122765147D02*
G01*
X158043175Y-122800621D01*
X158007700Y-122765147D01*
X158043175Y-122729672D01*
X158078650Y-122765147D01*
G37*
G36*
X159682841Y-122317608D02*
G01*
X159710493Y-122450060D01*
X159710473Y-122456847D01*
X159695977Y-122573528D01*
X159662698Y-122557060D01*
X159622589Y-122412545D01*
X159616030Y-122303926D01*
X159649793Y-122274833D01*
X159682841Y-122317608D01*
G37*
G36*
X157440102Y-122374923D02*
G01*
X157434982Y-122412484D01*
X157392802Y-122422223D01*
X157384311Y-122411824D01*
X157392802Y-122327623D01*
X157414143Y-122316523D01*
X157440102Y-122374923D01*
G37*
G36*
X145378650Y-122410398D02*
G01*
X145343175Y-122445873D01*
X145307700Y-122410398D01*
X145343175Y-122374923D01*
X145378650Y-122410398D01*
G37*
G36*
X157363551Y-122120687D02*
G01*
X157358535Y-122192648D01*
X157326287Y-122213808D01*
X157312228Y-122188707D01*
X157320686Y-122077821D01*
X157346224Y-122044981D01*
X157363551Y-122120687D01*
G37*
G36*
X159568594Y-122055649D02*
G01*
X159533119Y-122091124D01*
X159497644Y-122055649D01*
X159533119Y-122020174D01*
X159568594Y-122055649D01*
G37*
G36*
X159373482Y-121727326D02*
G01*
X159447379Y-121799928D01*
X159497644Y-121898787D01*
X159496681Y-121919993D01*
X159477568Y-121943312D01*
X159440560Y-121891459D01*
X159353406Y-121771850D01*
X159302155Y-121700390D01*
X159290501Y-121666869D01*
X159373482Y-121727326D01*
G37*
G36*
X145326874Y-121786349D02*
G01*
X145378650Y-121886649D01*
X145373183Y-121910507D01*
X145307700Y-121913750D01*
X145288526Y-121899251D01*
X145236750Y-121798951D01*
X145242217Y-121775094D01*
X145307700Y-121771850D01*
X145326874Y-121786349D01*
G37*
G36*
X146289793Y-121594476D02*
G01*
X146279904Y-121692076D01*
X146254007Y-121683163D01*
X146244637Y-121651048D01*
X146254007Y-121505789D01*
X146278644Y-121493754D01*
X146289793Y-121594476D01*
G37*
G36*
X145431862Y-120833957D02*
G01*
X145411073Y-120847740D01*
X145495415Y-120839664D01*
X145615447Y-120852438D01*
X145694919Y-120949667D01*
X145663220Y-121096580D01*
X145625823Y-121132876D01*
X145532472Y-121122138D01*
X145368248Y-121021968D01*
X145301217Y-120977034D01*
X145210764Y-120930051D01*
X145212396Y-120958701D01*
X145241176Y-121012472D01*
X145289784Y-121192895D01*
X145317841Y-121415042D01*
X145314888Y-121612214D01*
X145313564Y-121620489D01*
X145266379Y-121663683D01*
X145169968Y-121583869D01*
X145032140Y-121387258D01*
X144867078Y-121183122D01*
X144641916Y-121049273D01*
X144420828Y-120985640D01*
X144576831Y-120851704D01*
X144634973Y-120788070D01*
X144965501Y-120788070D01*
X145023901Y-120814029D01*
X145061462Y-120808909D01*
X145071201Y-120766729D01*
X145060802Y-120758238D01*
X144976601Y-120766729D01*
X144965501Y-120788070D01*
X144634973Y-120788070D01*
X144676228Y-120742918D01*
X144699664Y-120664098D01*
X144722472Y-120598307D01*
X144829540Y-120490829D01*
X144981875Y-120375705D01*
X145138140Y-120283913D01*
X145256997Y-120246431D01*
X145381987Y-120284551D01*
X145425868Y-120384663D01*
X145352361Y-120496812D01*
X145310195Y-120528856D01*
X145278061Y-120583427D01*
X145376997Y-120621305D01*
X145481867Y-120673687D01*
X145515790Y-120761577D01*
X145509816Y-120766729D01*
X145431862Y-120833957D01*
G37*
G36*
X146230046Y-121239728D02*
G01*
X146224926Y-121277288D01*
X146182747Y-121287027D01*
X146174255Y-121276628D01*
X146182747Y-121192428D01*
X146204087Y-121181328D01*
X146230046Y-121239728D01*
G37*
G36*
X145875298Y-120884979D02*
G01*
X145870177Y-120922539D01*
X145827998Y-120932279D01*
X145819507Y-120921880D01*
X145827998Y-120837679D01*
X145849338Y-120826579D01*
X145875298Y-120884979D01*
G37*
G36*
X145804348Y-120707605D02*
G01*
X145768873Y-120743079D01*
X145733398Y-120707605D01*
X145768873Y-120672130D01*
X145804348Y-120707605D01*
G37*
G36*
X156801555Y-125390286D02*
G01*
X156766080Y-125425761D01*
X156730605Y-125390286D01*
X156766080Y-125354811D01*
X156801555Y-125390286D01*
G37*
G36*
X151297326Y-121245298D02*
G01*
X151302951Y-121310677D01*
X151288389Y-121331910D01*
X151227814Y-121381627D01*
X151220734Y-121379782D01*
X151196527Y-121310677D01*
X151199414Y-121291231D01*
X151271664Y-121239728D01*
X151297326Y-121245298D01*
G37*
G36*
X149439743Y-119468046D02*
G01*
X149493734Y-119536934D01*
X149491672Y-119553893D01*
X149422784Y-119607884D01*
X149405825Y-119605822D01*
X149351834Y-119536934D01*
X149353896Y-119519975D01*
X149422784Y-119465985D01*
X149439743Y-119468046D01*
G37*
G36*
X151000636Y-119397097D02*
G01*
X151054627Y-119465985D01*
X151052566Y-119482943D01*
X150983678Y-119536934D01*
X150966719Y-119534873D01*
X150912728Y-119465985D01*
X150914790Y-119449026D01*
X150983678Y-119395035D01*
X151000636Y-119397097D01*
G37*
D12*
%TO.C,D11*%
X155875000Y-114225000D02*
X163175000Y-114225000D01*
X155875000Y-119725000D02*
X163175000Y-119725000D01*
X155875000Y-118575000D02*
X155875000Y-119725000D01*
%TO.C,D8*%
X136875000Y-114225000D02*
X144175000Y-114225000D01*
X136875000Y-119725000D02*
X144175000Y-119725000D01*
X136875000Y-118575000D02*
X136875000Y-119725000D01*
%TO.C,D2*%
X156325000Y-93225000D02*
X163625000Y-93225000D01*
X156325000Y-98725000D02*
X163625000Y-98725000D01*
X156325000Y-97575000D02*
X156325000Y-98725000D01*
%TO.C,D1*%
X136325000Y-99575000D02*
X136325000Y-100725000D01*
X136325000Y-100725000D02*
X143625000Y-100725000D01*
X136325000Y-95225000D02*
X143625000Y-95225000D01*
%TD*%
M02*
