%TF.GenerationSoftware,KiCad,Pcbnew,8.0.5*%
%TF.CreationDate,2025-01-09T16:38:30+01:00*%
%TF.ProjectId,rp2040_pad,72703230-3430-45f7-9061-642e6b696361,rev?*%
%TF.SameCoordinates,Original*%
%TF.FileFunction,Copper,L2,Bot*%
%TF.FilePolarity,Positive*%
%FSLAX46Y46*%
G04 Gerber Fmt 4.6, Leading zero omitted, Abs format (unit mm)*
G04 Created by KiCad (PCBNEW 8.0.5) date 2025-01-09 16:38:30*
%MOMM*%
%LPD*%
G01*
G04 APERTURE LIST*
%TA.AperFunction,ComponentPad*%
%ADD10C,2.200000*%
%TD*%
%TA.AperFunction,ComponentPad*%
%ADD11R,2.000000X2.000000*%
%TD*%
%TA.AperFunction,ComponentPad*%
%ADD12C,2.000000*%
%TD*%
%TA.AperFunction,ComponentPad*%
%ADD13C,3.200000*%
%TD*%
%TA.AperFunction,ComponentPad*%
%ADD14O,1.350000X1.700000*%
%TD*%
%TA.AperFunction,ComponentPad*%
%ADD15O,1.100000X1.500000*%
%TD*%
%TA.AperFunction,SMDPad,CuDef*%
%ADD16R,1.500000X0.900000*%
%TD*%
%TA.AperFunction,ViaPad*%
%ADD17C,0.600000*%
%TD*%
%TA.AperFunction,Conductor*%
%ADD18C,0.200000*%
%TD*%
%TA.AperFunction,Conductor*%
%ADD19C,0.500000*%
%TD*%
G04 APERTURE END LIST*
D10*
%TO.P,SW8,1,1*%
%TO.N,COL_B*%
X128836000Y-96012000D03*
%TO.P,SW8,2,2*%
%TO.N,Net-(D7-A)*%
X122486000Y-98552000D03*
%TD*%
D11*
%TO.P,SW2,A,A*%
%TO.N,ENC_SA2*%
X137856000Y-61524000D03*
D12*
%TO.P,SW2,B,B*%
%TO.N,ENC_SB2*%
X137856000Y-66524000D03*
%TO.P,SW2,C,C*%
%TO.N,GND*%
X137856000Y-64024000D03*
D13*
%TO.P,SW2,MP*%
%TO.N,N/C*%
X145356000Y-58424000D03*
X145356000Y-69624000D03*
D12*
%TO.P,SW2,S1,S1*%
%TO.N,Net-(D5-A)*%
X152356000Y-66524000D03*
%TO.P,SW2,S2,S2*%
%TO.N,COL_C*%
X152356000Y-61524000D03*
%TD*%
D14*
%TO.P,J1,6,Shield*%
%TO.N,GND*%
X129770000Y-31670000D03*
D15*
X129460000Y-34670000D03*
X124620000Y-34670000D03*
D14*
X124310000Y-31670000D03*
%TD*%
D10*
%TO.P,SW4,1,1*%
%TO.N,COL_A*%
X109336000Y-76512000D03*
%TO.P,SW4,2,2*%
%TO.N,Net-(D1-A)*%
X102986000Y-79052000D03*
%TD*%
%TO.P,SW9,1,1*%
%TO.N,COL_C*%
X148336000Y-96012000D03*
%TO.P,SW9,2,2*%
%TO.N,Net-(D8-A)*%
X141986000Y-98552000D03*
%TD*%
D12*
%TO.P,USB_BOOT1,1,1*%
%TO.N,GND*%
X110750000Y-35000000D03*
X117250000Y-35000000D03*
%TO.P,USB_BOOT1,2,2*%
%TO.N,Net-(R3-Pad1)*%
X110750000Y-39500000D03*
X117250000Y-39500000D03*
%TD*%
D10*
%TO.P,SW6,1,1*%
%TO.N,COL_C*%
X148336000Y-76472000D03*
%TO.P,SW6,2,2*%
%TO.N,Net-(D3-A)*%
X141986000Y-79012000D03*
%TD*%
%TO.P,SW7,1,1*%
%TO.N,COL_A*%
X109336000Y-96012000D03*
%TO.P,SW7,2,2*%
%TO.N,Net-(D6-A)*%
X102986000Y-98552000D03*
%TD*%
%TO.P,SW5,1,1*%
%TO.N,COL_B*%
X128836000Y-76512000D03*
%TO.P,SW5,2,2*%
%TO.N,Net-(D2-A)*%
X122486000Y-79052000D03*
%TD*%
D12*
%TO.P,RES1,1,1*%
%TO.N,GND*%
X100250000Y-34750000D03*
X106750000Y-34750000D03*
%TO.P,RES1,2,2*%
%TO.N,Net-(U1-RUN)*%
X100250000Y-39250000D03*
X106750000Y-39250000D03*
%TD*%
D11*
%TO.P,SW3,A,A*%
%TO.N,ENC_SA*%
X114764000Y-66524000D03*
D12*
%TO.P,SW3,B,B*%
%TO.N,ENC_SB*%
X114764000Y-61524000D03*
%TO.P,SW3,C,C*%
%TO.N,GND*%
X114764000Y-64024000D03*
D13*
%TO.P,SW3,MP*%
%TO.N,N/C*%
X107264000Y-69624000D03*
X107264000Y-58424000D03*
D12*
%TO.P,SW3,S1,S1*%
%TO.N,Net-(D4-A)*%
X100264000Y-61524000D03*
%TO.P,SW3,S2,S2*%
%TO.N,COL_A*%
X100264000Y-66524000D03*
%TD*%
D16*
%TO.P,D9,1,VDD*%
%TO.N,VBUS*%
X119888000Y-68962000D03*
%TO.P,D9,2,DOUT*%
%TO.N,Net-(D10-DIN)*%
X119888000Y-72262000D03*
%TO.P,D9,3,VSS*%
%TO.N,GND*%
X114988000Y-72262000D03*
%TO.P,D9,4,DIN*%
%TO.N,LED*%
X114988000Y-68962000D03*
%TD*%
%TO.P,D10,1,VDD*%
%TO.N,VBUS*%
X137668000Y-68328000D03*
%TO.P,D10,2,DOUT*%
%TO.N,Net-(D10-DOUT)*%
X137668000Y-71628000D03*
%TO.P,D10,3,VSS*%
%TO.N,GND*%
X132768000Y-71628000D03*
%TO.P,D10,4,DIN*%
%TO.N,Net-(D10-DIN)*%
X132768000Y-68328000D03*
%TD*%
%TO.P,D11,1,VDD*%
%TO.N,VBUS*%
X119798000Y-89282000D03*
%TO.P,D11,2,DOUT*%
%TO.N,LEDS*%
X119798000Y-92582000D03*
%TO.P,D11,3,VSS*%
%TO.N,GND*%
X114898000Y-92582000D03*
%TO.P,D11,4,DIN*%
%TO.N,Net-(D10-DOUT)*%
X114898000Y-89282000D03*
%TD*%
%TO.P,D12,1,VDD*%
%TO.N,VBUS*%
X138684000Y-89408000D03*
%TO.P,D12,2,DOUT*%
%TO.N,unconnected-(D12-DOUT-Pad2)*%
X138684000Y-92708000D03*
%TO.P,D12,3,VSS*%
%TO.N,GND*%
X133784000Y-92708000D03*
%TO.P,D12,4,DIN*%
%TO.N,LEDS*%
X133784000Y-89408000D03*
%TD*%
D17*
%TO.N,Net-(U1-RUN)*%
X129400000Y-55000000D03*
%TO.N,GND*%
X135600000Y-47600000D03*
X122000000Y-34400000D03*
X129600000Y-69400000D03*
X135600000Y-50800000D03*
X136000000Y-40600000D03*
X135800000Y-44400000D03*
X130556000Y-66040000D03*
X140716000Y-41656000D03*
X124460000Y-47752000D03*
X121412000Y-37084000D03*
X149352000Y-53848000D03*
X140716000Y-44704000D03*
X122936000Y-67564000D03*
X102108000Y-52832000D03*
X127800000Y-66600000D03*
X128016000Y-92456000D03*
X123952000Y-65532000D03*
X140716000Y-47752000D03*
X140208000Y-50800000D03*
X147320000Y-89916000D03*
X149352000Y-44704000D03*
X112360000Y-63500000D03*
X128524000Y-66040000D03*
X145250000Y-72750000D03*
X125476000Y-47752000D03*
X147320000Y-40640000D03*
X122428000Y-59944000D03*
X103632000Y-42164000D03*
%TO.N,VBUS*%
X121920000Y-69088000D03*
X140716000Y-75184000D03*
X141224000Y-89408000D03*
X122428000Y-89916000D03*
X140208000Y-71120000D03*
X141732000Y-50800000D03*
%TO.N,+3V3*%
X130048000Y-36068000D03*
X125984000Y-36068000D03*
X105744000Y-46881000D03*
X107315015Y-47436015D03*
%TO.N,XIN*%
X122936000Y-62992000D03*
X122428000Y-66040000D03*
%TO.N,Net-(U1-VREG_VOUT)*%
X130556000Y-53340000D03*
X125984000Y-45212000D03*
X128016000Y-45212000D03*
%TO.N,ROW_B*%
X115656717Y-51140717D03*
X115824000Y-59944000D03*
X115642000Y-76724000D03*
X100910000Y-77232000D03*
X135128000Y-77216000D03*
X116332000Y-64008000D03*
X119888000Y-76708000D03*
%TO.N,ROW_A*%
X99060000Y-70104000D03*
X154432000Y-74676000D03*
X119380000Y-70104000D03*
X103632000Y-68580000D03*
X116332000Y-49616904D03*
%TO.N,ROW_C*%
X117856000Y-95504000D03*
X116840000Y-50910950D03*
%TO.N,LED*%
X122290256Y-58420000D03*
X113792000Y-68580000D03*
X129540000Y-59436000D03*
%TO.N,Net-(D10-DIN)*%
X130048000Y-73152000D03*
X131064000Y-69596000D03*
%TO.N,Net-(D10-DOUT)*%
X130048000Y-87376000D03*
X137160000Y-73152000D03*
X117856000Y-89408000D03*
X115316000Y-87884000D03*
%TO.N,Net-(R3-Pad1)*%
X113400000Y-38400000D03*
%TO.N,Net-(U1-RUN)*%
X114500000Y-46250000D03*
X112500000Y-41500000D03*
%TO.N,ENC_SB2*%
X134112000Y-60452000D03*
X118592433Y-49009564D03*
%TO.N,ENC_SA2*%
X118872000Y-48260000D03*
X135221090Y-61917937D03*
%TO.N,COL_C*%
X120396000Y-56388000D03*
X134112000Y-62484000D03*
%TO.N,ENC_SB*%
X117856000Y-48260000D03*
X119888000Y-48000000D03*
%TO.N,COL_A*%
X117905408Y-51560822D03*
X117440000Y-73152000D03*
%TO.N,COL_B*%
X118364000Y-52359153D03*
X128850000Y-71705500D03*
%TO.N,QSPI_SD3*%
X124968000Y-43180000D03*
X112348000Y-50437000D03*
%TO.N,QSPI_SD1*%
X116274313Y-47660000D03*
X113792000Y-47244000D03*
%TO.N,QSPI_SD2*%
X117856000Y-42764000D03*
X113904500Y-44816500D03*
X105236000Y-51453000D03*
X123395548Y-43835081D03*
%TD*%
D18*
%TO.N,ROW_B*%
X115824000Y-51308000D02*
X115656717Y-51140717D01*
X115824000Y-59944000D02*
X115824000Y-51308000D01*
%TO.N,Net-(U1-RUN)*%
X120650000Y-46250000D02*
X114500000Y-46250000D01*
X129400000Y-55000000D02*
X120650000Y-46250000D01*
X114750000Y-46250000D02*
X114500000Y-46250000D01*
%TO.N,GND*%
X128016000Y-92456000D02*
X128268000Y-92708000D01*
X128268000Y-92708000D02*
X133784000Y-92708000D01*
D19*
%TO.N,VBUS*%
X141732000Y-64000000D02*
X141732000Y-64698610D01*
D18*
X121794000Y-68962000D02*
X121920000Y-69088000D01*
D19*
X140208000Y-70868000D02*
X140208000Y-71120000D01*
D18*
X128510000Y-67578000D02*
X127000000Y-69088000D01*
D19*
X127044661Y-69088000D02*
X122750000Y-69088000D01*
X141732000Y-64698610D02*
X138590305Y-67840305D01*
X121794000Y-89282000D02*
X119798000Y-89282000D01*
X138684000Y-77216000D02*
X138684000Y-88750000D01*
X139795000Y-70455000D02*
X140208000Y-70868000D01*
D18*
X137920000Y-68328000D02*
X141732000Y-64516000D01*
D19*
X137402000Y-88126000D02*
X124218000Y-88126000D01*
X128704661Y-67428000D02*
X127044661Y-69088000D01*
X138456610Y-67974000D02*
X134514000Y-67974000D01*
X134514000Y-67974000D02*
X133968000Y-67428000D01*
D18*
X119888000Y-68962000D02*
X121794000Y-68962000D01*
D19*
X122624000Y-68962000D02*
X119888000Y-68962000D01*
X141732000Y-64516000D02*
X141732000Y-64000000D01*
D18*
X127000000Y-69088000D02*
X121920000Y-69088000D01*
D19*
X138102610Y-68328000D02*
X137668000Y-68328000D01*
X138684000Y-89408000D02*
X137402000Y-88126000D01*
X138684000Y-88750000D02*
X138684000Y-89408000D01*
X138684000Y-77216000D02*
X140716000Y-75184000D01*
D18*
X137668000Y-68328000D02*
X137920000Y-68328000D01*
D19*
X138684000Y-89408000D02*
X141224000Y-89408000D01*
X133968000Y-67428000D02*
X128704661Y-67428000D01*
X141732000Y-64000000D02*
X141732000Y-50800000D01*
X138590305Y-67840305D02*
X138102610Y-68328000D01*
X122428000Y-89916000D02*
X121794000Y-89282000D01*
X122750000Y-69088000D02*
X122624000Y-68962000D01*
X137668000Y-68328000D02*
X139795000Y-70455000D01*
X122750000Y-69088000D02*
X121920000Y-69088000D01*
D18*
X137668000Y-68328000D02*
X137668000Y-68580000D01*
D19*
X138590305Y-67840305D02*
X138456610Y-67974000D01*
X124218000Y-88126000D02*
X122428000Y-89916000D01*
D18*
%TO.N,+3V3*%
X125984000Y-36068000D02*
X130048000Y-36068000D01*
X107315015Y-47436015D02*
X106299015Y-47436015D01*
X106299015Y-47436015D02*
X105744000Y-46881000D01*
%TO.N,XIN*%
X122936000Y-62992000D02*
X122428000Y-63500000D01*
X122428000Y-63500000D02*
X122428000Y-66040000D01*
%TO.N,Net-(U1-VREG_VOUT)*%
X128016000Y-45212000D02*
X127000000Y-45212000D01*
X128524000Y-48260000D02*
X128524000Y-51308000D01*
X127000000Y-45212000D02*
X125984000Y-45212000D01*
X128524000Y-51308000D02*
X130556000Y-53340000D01*
X127000000Y-45212000D02*
X127000000Y-46736000D01*
X127000000Y-46736000D02*
X128524000Y-48260000D01*
%TO.N,ROW_B*%
X108076101Y-77232000D02*
X108756101Y-77912000D01*
X116332000Y-68312000D02*
X116332000Y-64008000D01*
X127052101Y-76708000D02*
X128256101Y-77912000D01*
X115642000Y-76724000D02*
X116064000Y-76302000D01*
X100910000Y-77232000D02*
X108076101Y-77232000D01*
X116064000Y-76302000D02*
X116064000Y-68580000D01*
X116064000Y-67824000D02*
X116332000Y-67556000D01*
X116064000Y-68580000D02*
X116064000Y-67824000D01*
X116064000Y-68580000D02*
X116332000Y-68312000D01*
X108756101Y-77912000D02*
X114454000Y-77912000D01*
X114454000Y-77912000D02*
X115642000Y-76724000D01*
X128256101Y-77912000D02*
X134432000Y-77912000D01*
X119888000Y-76708000D02*
X127052101Y-76708000D01*
X134432000Y-77912000D02*
X135128000Y-77216000D01*
%TO.N,ROW_A*%
X153924000Y-74168000D02*
X154432000Y-74676000D01*
X148336000Y-74168000D02*
X132161029Y-74168000D01*
X114808000Y-51140904D02*
X114808000Y-54356000D01*
X114808000Y-54356000D02*
X99060000Y-70104000D01*
X102108000Y-70104000D02*
X99060000Y-70104000D01*
X128097029Y-70104000D02*
X119380000Y-70104000D01*
X103632000Y-68580000D02*
X102108000Y-70104000D01*
X116332000Y-49616904D02*
X114808000Y-51140904D01*
X132161029Y-74168000D02*
X128097029Y-70104000D01*
X148336000Y-74168000D02*
X153924000Y-74168000D01*
%TO.N,ROW_C*%
X117040000Y-72703471D02*
X116840000Y-72903471D01*
X117040000Y-51860544D02*
X117040000Y-72703471D01*
X116840000Y-50910950D02*
X117305408Y-51376358D01*
X116840000Y-72903471D02*
X116840000Y-94488000D01*
X117305408Y-51595136D02*
X117040000Y-51860544D01*
X117305408Y-51376358D02*
X117305408Y-51595136D01*
X116840000Y-94488000D02*
X117856000Y-95504000D01*
%TO.N,LED*%
X114988000Y-68962000D02*
X114174000Y-68962000D01*
X114174000Y-68962000D02*
X113792000Y-68580000D01*
X122290256Y-58420000D02*
X128524000Y-58420000D01*
X128524000Y-58420000D02*
X129540000Y-59436000D01*
%TO.N,Net-(D10-DIN)*%
X132332000Y-68328000D02*
X132768000Y-68328000D01*
X119888000Y-72262000D02*
X120778000Y-73152000D01*
X131064000Y-69596000D02*
X132332000Y-68328000D01*
X120778000Y-73152000D02*
X130048000Y-73152000D01*
%TO.N,Net-(D10-DOUT)*%
X137668000Y-71628000D02*
X137668000Y-72644000D01*
X130048000Y-87376000D02*
X119888000Y-87376000D01*
X115316000Y-88864000D02*
X114898000Y-89282000D01*
X115316000Y-87884000D02*
X115316000Y-88864000D01*
X137668000Y-72644000D02*
X137160000Y-73152000D01*
X119888000Y-87376000D02*
X117856000Y-89408000D01*
%TO.N,LEDS*%
X120524000Y-91856000D02*
X131336000Y-91856000D01*
X131336000Y-91856000D02*
X133784000Y-89408000D01*
X119798000Y-92582000D02*
X120524000Y-91856000D01*
%TO.N,Net-(R3-Pad1)*%
X113400000Y-38400000D02*
X116150000Y-38400000D01*
X116150000Y-38400000D02*
X117250000Y-39500000D01*
%TO.N,Net-(U1-RUN)*%
X106750000Y-41250000D02*
X106750000Y-39250000D01*
X107000000Y-41500000D02*
X106750000Y-41250000D01*
X100250000Y-39250000D02*
X106750000Y-39250000D01*
X112500000Y-41500000D02*
X107000000Y-41500000D01*
%TO.N,ENC_SB2*%
X127108000Y-55988000D02*
X128181686Y-55988000D01*
X118592433Y-49009564D02*
X119340762Y-49757893D01*
X131121686Y-58928000D02*
X132645686Y-60452000D01*
X119340762Y-49757893D02*
X120877893Y-49757893D01*
X128181686Y-55988000D02*
X131121686Y-58928000D01*
X120877893Y-49757893D02*
X127108000Y-55988000D01*
X132645686Y-60452000D02*
X134112000Y-60452000D01*
%TO.N,ENC_SA2*%
X132156000Y-58762315D02*
X128765685Y-55372000D01*
X135221090Y-61917937D02*
X135221090Y-60545090D01*
X134112000Y-59436000D02*
X132588000Y-59436000D01*
X119359001Y-48747001D02*
X118872000Y-48260000D01*
X120851001Y-48747001D02*
X119359001Y-48747001D01*
X127476000Y-55372000D02*
X120851001Y-48747001D01*
X132156000Y-59004000D02*
X132156000Y-58762315D01*
X128765685Y-55372000D02*
X127476000Y-55372000D01*
X132588000Y-59436000D02*
X132156000Y-59004000D01*
X135221090Y-60545090D02*
X134112000Y-59436000D01*
%TO.N,COL_C*%
X120396000Y-56388000D02*
X128016000Y-56388000D01*
X128016000Y-56388000D02*
X134112000Y-62484000D01*
%TO.N,ENC_SB*%
X118456000Y-47660000D02*
X117856000Y-48260000D01*
X119888000Y-48000000D02*
X119548000Y-47660000D01*
X119548000Y-47660000D02*
X118456000Y-47660000D01*
%TO.N,COL_A*%
X117905408Y-51560822D02*
X117440000Y-52026230D01*
X117440000Y-52026230D02*
X117440000Y-73152000D01*
%TO.N,COL_B*%
X118364000Y-70612000D02*
X118872000Y-71120000D01*
X118872000Y-71120000D02*
X128264500Y-71120000D01*
X128264500Y-71120000D02*
X128850000Y-71705500D01*
X118364000Y-52359153D02*
X118328847Y-52324000D01*
X118364000Y-52359153D02*
X118364000Y-70612000D01*
%TO.N,QSPI_SD3*%
X123276529Y-42164000D02*
X123184529Y-42256000D01*
X124968000Y-43180000D02*
X123952000Y-42164000D01*
X117474703Y-42164000D02*
X112768799Y-46869904D01*
X122595471Y-42164000D02*
X117474703Y-42164000D01*
X123184529Y-42256000D02*
X122687471Y-42256000D01*
X112348000Y-50437000D02*
X112768799Y-50016201D01*
X122687471Y-42256000D02*
X122595471Y-42164000D01*
X123952000Y-42164000D02*
X123276529Y-42164000D01*
X112768799Y-50016201D02*
X112768799Y-46869904D01*
%TO.N,QSPI_SD1*%
X116274313Y-47660000D02*
X114208000Y-47660000D01*
X114208000Y-47660000D02*
X113792000Y-47244000D01*
%TO.N,QSPI_SD2*%
X111840000Y-46881000D02*
X109808000Y-46881000D01*
X123395548Y-43835081D02*
X122324467Y-42764000D01*
X113904500Y-44816500D02*
X111840000Y-46881000D01*
X109808000Y-46881000D02*
X105236000Y-51453000D01*
X122324467Y-42764000D02*
X117856000Y-42764000D01*
%TD*%
%TA.AperFunction,Conductor*%
%TO.N,GND*%
G36*
X131399940Y-68198185D02*
G01*
X131445695Y-68250989D01*
X131455639Y-68320147D01*
X131426614Y-68383703D01*
X131420582Y-68390181D01*
X131045465Y-68765298D01*
X130984142Y-68798783D01*
X130971668Y-68800837D01*
X130884750Y-68810630D01*
X130714478Y-68870210D01*
X130561737Y-68966184D01*
X130434184Y-69093737D01*
X130338211Y-69246476D01*
X130278631Y-69416745D01*
X130278630Y-69416750D01*
X130258435Y-69595996D01*
X130258435Y-69596003D01*
X130278630Y-69775249D01*
X130278631Y-69775254D01*
X130338211Y-69945523D01*
X130434184Y-70098262D01*
X130561738Y-70225816D01*
X130714478Y-70321789D01*
X130884745Y-70381368D01*
X130884750Y-70381369D01*
X131063996Y-70401565D01*
X131064000Y-70401565D01*
X131064004Y-70401565D01*
X131243249Y-70381369D01*
X131243252Y-70381368D01*
X131243255Y-70381368D01*
X131413522Y-70321789D01*
X131566262Y-70225816D01*
X131693816Y-70098262D01*
X131789789Y-69945522D01*
X131849368Y-69775255D01*
X131859161Y-69688329D01*
X131886226Y-69623918D01*
X131894690Y-69614543D01*
X132194416Y-69314818D01*
X132255739Y-69281333D01*
X132282097Y-69278499D01*
X133565871Y-69278499D01*
X133565872Y-69278499D01*
X133625483Y-69272091D01*
X133760331Y-69221796D01*
X133875546Y-69135546D01*
X133961796Y-69020331D01*
X134012091Y-68885483D01*
X134018500Y-68825873D01*
X134018499Y-68766670D01*
X134038182Y-68699633D01*
X134090986Y-68653877D01*
X134160144Y-68643933D01*
X134189943Y-68652107D01*
X134193227Y-68653467D01*
X134193236Y-68653470D01*
X134295088Y-68695659D01*
X134411241Y-68718763D01*
X134430468Y-68722587D01*
X134440081Y-68724500D01*
X134440082Y-68724500D01*
X134440083Y-68724500D01*
X134587918Y-68724500D01*
X136295219Y-68724500D01*
X136362258Y-68744185D01*
X136408013Y-68796989D01*
X136418509Y-68835247D01*
X136423908Y-68885483D01*
X136474202Y-69020328D01*
X136474206Y-69020335D01*
X136560452Y-69135544D01*
X136560455Y-69135547D01*
X136675664Y-69221793D01*
X136675671Y-69221797D01*
X136720618Y-69238561D01*
X136810517Y-69272091D01*
X136870127Y-69278500D01*
X137505769Y-69278499D01*
X137572808Y-69298183D01*
X137593450Y-69314818D01*
X138382635Y-70104003D01*
X138836507Y-70557874D01*
X138869992Y-70619197D01*
X138865008Y-70688889D01*
X138823136Y-70744822D01*
X138757672Y-70769239D01*
X138689399Y-70754387D01*
X138674516Y-70744822D01*
X138660334Y-70734206D01*
X138660328Y-70734202D01*
X138525482Y-70683908D01*
X138525483Y-70683908D01*
X138465883Y-70677501D01*
X138465881Y-70677500D01*
X138465873Y-70677500D01*
X138465864Y-70677500D01*
X136870129Y-70677500D01*
X136870123Y-70677501D01*
X136810516Y-70683908D01*
X136675671Y-70734202D01*
X136675664Y-70734206D01*
X136560455Y-70820452D01*
X136560452Y-70820455D01*
X136474206Y-70935664D01*
X136474202Y-70935671D01*
X136423908Y-71070517D01*
X136418588Y-71120003D01*
X136417501Y-71130123D01*
X136417500Y-71130135D01*
X136417500Y-72125870D01*
X136417501Y-72125876D01*
X136423908Y-72185483D01*
X136474202Y-72320328D01*
X136474206Y-72320335D01*
X136560452Y-72435544D01*
X136564734Y-72439826D01*
X136598219Y-72501149D01*
X136593235Y-72570841D01*
X136564734Y-72615188D01*
X136530184Y-72649737D01*
X136434211Y-72802476D01*
X136374631Y-72972745D01*
X136374630Y-72972750D01*
X136354435Y-73151996D01*
X136354435Y-73152003D01*
X136374630Y-73331249D01*
X136374632Y-73331257D01*
X136399577Y-73402546D01*
X136403138Y-73472325D01*
X136368409Y-73532952D01*
X136306415Y-73565179D01*
X136282535Y-73567500D01*
X132461126Y-73567500D01*
X132394087Y-73547815D01*
X132373445Y-73531181D01*
X130968108Y-72125844D01*
X131518000Y-72125844D01*
X131524401Y-72185372D01*
X131524403Y-72185379D01*
X131574645Y-72320086D01*
X131574649Y-72320093D01*
X131660809Y-72435187D01*
X131660812Y-72435190D01*
X131775906Y-72521350D01*
X131775913Y-72521354D01*
X131910620Y-72571596D01*
X131910627Y-72571598D01*
X131970155Y-72577999D01*
X131970172Y-72578000D01*
X132518000Y-72578000D01*
X133018000Y-72578000D01*
X133565828Y-72578000D01*
X133565844Y-72577999D01*
X133625372Y-72571598D01*
X133625379Y-72571596D01*
X133760086Y-72521354D01*
X133760093Y-72521350D01*
X133875187Y-72435190D01*
X133875190Y-72435187D01*
X133961350Y-72320093D01*
X133961354Y-72320086D01*
X134011596Y-72185379D01*
X134011598Y-72185372D01*
X134017999Y-72125844D01*
X134018000Y-72125827D01*
X134018000Y-71878000D01*
X133018000Y-71878000D01*
X133018000Y-72578000D01*
X132518000Y-72578000D01*
X132518000Y-71878000D01*
X131518000Y-71878000D01*
X131518000Y-72125844D01*
X130968108Y-72125844D01*
X129972419Y-71130155D01*
X131518000Y-71130155D01*
X131518000Y-71378000D01*
X132518000Y-71378000D01*
X133018000Y-71378000D01*
X134018000Y-71378000D01*
X134018000Y-71130172D01*
X134017999Y-71130155D01*
X134011598Y-71070627D01*
X134011596Y-71070620D01*
X133961354Y-70935913D01*
X133961350Y-70935906D01*
X133875190Y-70820812D01*
X133875187Y-70820809D01*
X133760093Y-70734649D01*
X133760086Y-70734645D01*
X133625379Y-70684403D01*
X133625372Y-70684401D01*
X133565844Y-70678000D01*
X133018000Y-70678000D01*
X133018000Y-71378000D01*
X132518000Y-71378000D01*
X132518000Y-70678000D01*
X131970155Y-70678000D01*
X131910627Y-70684401D01*
X131910620Y-70684403D01*
X131775913Y-70734645D01*
X131775906Y-70734649D01*
X131660812Y-70820809D01*
X131660809Y-70820812D01*
X131574649Y-70935906D01*
X131574645Y-70935913D01*
X131524403Y-71070620D01*
X131524401Y-71070627D01*
X131518000Y-71130155D01*
X129972419Y-71130155D01*
X128584619Y-69742355D01*
X128584617Y-69742352D01*
X128465746Y-69623481D01*
X128465745Y-69623480D01*
X128370549Y-69568519D01*
X128328814Y-69544423D01*
X128176086Y-69503499D01*
X128017972Y-69503499D01*
X128010376Y-69503499D01*
X128010360Y-69503500D01*
X127989891Y-69503500D01*
X127922852Y-69483815D01*
X127877097Y-69431011D01*
X127867153Y-69361853D01*
X127896178Y-69298297D01*
X127902210Y-69291819D01*
X128979209Y-68214819D01*
X129040532Y-68181334D01*
X129066890Y-68178500D01*
X131332901Y-68178500D01*
X131399940Y-68198185D01*
G37*
%TD.AperFunction*%
%TA.AperFunction,Conductor*%
G36*
X116362737Y-61900116D02*
G01*
X116417223Y-61943854D01*
X116439412Y-62010107D01*
X116439500Y-62014766D01*
X116439500Y-63079509D01*
X116419815Y-63146548D01*
X116367011Y-63192303D01*
X116329384Y-63202729D01*
X116152745Y-63222631D01*
X116152742Y-63222631D01*
X116146271Y-63224896D01*
X116076492Y-63228452D01*
X116015867Y-63193718D01*
X116001517Y-63175673D01*
X115987433Y-63154117D01*
X115246962Y-63894588D01*
X115229925Y-63831007D01*
X115164099Y-63716993D01*
X115071007Y-63623901D01*
X114956993Y-63558075D01*
X114893410Y-63541037D01*
X115639898Y-62794548D01*
X115650515Y-62747852D01*
X115682621Y-62710444D01*
X115783744Y-62631738D01*
X115952164Y-62448785D01*
X116088173Y-62240607D01*
X116188063Y-62012881D01*
X116195294Y-61984325D01*
X116230833Y-61924170D01*
X116293254Y-61892778D01*
X116362737Y-61900116D01*
G37*
%TD.AperFunction*%
%TA.AperFunction,Conductor*%
G36*
X159604042Y-29968532D02*
G01*
X159624504Y-29969873D01*
X159852897Y-29984842D01*
X159868953Y-29986957D01*
X160109549Y-30034813D01*
X160125202Y-30039008D01*
X160357487Y-30117857D01*
X160372458Y-30124058D01*
X160592476Y-30232557D01*
X160606517Y-30240665D01*
X160810473Y-30376943D01*
X160823342Y-30386817D01*
X161007760Y-30548546D01*
X161019228Y-30560014D01*
X161180967Y-30744439D01*
X161190841Y-30757307D01*
X161327122Y-30961261D01*
X161335233Y-30975309D01*
X161443725Y-31195306D01*
X161449932Y-31210290D01*
X161528782Y-31442567D01*
X161532980Y-31458234D01*
X161580838Y-31698816D01*
X161582955Y-31714898D01*
X161599234Y-31963227D01*
X161599500Y-31971336D01*
X161599500Y-32041472D01*
X161599529Y-32041903D01*
X161631731Y-113028148D01*
X161631465Y-113036309D01*
X161615155Y-113285101D01*
X161613038Y-113301181D01*
X161565181Y-113541762D01*
X161560983Y-113557429D01*
X161482136Y-113789700D01*
X161475929Y-113804685D01*
X161367435Y-114024686D01*
X161359325Y-114038733D01*
X161223049Y-114242684D01*
X161213175Y-114255552D01*
X161051441Y-114439972D01*
X161039972Y-114451441D01*
X160855552Y-114613175D01*
X160842684Y-114623049D01*
X160638733Y-114759325D01*
X160624686Y-114767435D01*
X160404685Y-114875929D01*
X160389700Y-114882136D01*
X160157429Y-114960983D01*
X160141762Y-114965181D01*
X159901181Y-115013038D01*
X159885101Y-115015155D01*
X159661373Y-115029822D01*
X159636282Y-115031467D01*
X159628173Y-115031733D01*
X93371827Y-115031733D01*
X93363717Y-115031467D01*
X93336581Y-115029688D01*
X93114898Y-115015155D01*
X93098818Y-115013038D01*
X92858237Y-114965181D01*
X92842570Y-114960983D01*
X92610299Y-114882136D01*
X92595314Y-114875929D01*
X92375313Y-114767435D01*
X92361266Y-114759325D01*
X92157315Y-114623049D01*
X92144447Y-114613175D01*
X91960027Y-114451441D01*
X91948558Y-114439972D01*
X91869197Y-114349479D01*
X91786821Y-114255548D01*
X91776950Y-114242684D01*
X91687618Y-114108990D01*
X91640672Y-114038730D01*
X91632564Y-114024686D01*
X91524070Y-113804685D01*
X91517863Y-113789700D01*
X91501010Y-113740053D01*
X91439015Y-113557426D01*
X91434818Y-113541762D01*
X91386961Y-113301181D01*
X91384844Y-113285101D01*
X91378576Y-113189488D01*
X91368531Y-113036253D01*
X91368266Y-113028199D01*
X91368266Y-112966334D01*
X91368266Y-112957591D01*
X91368257Y-112957489D01*
X91368253Y-112925946D01*
X92017267Y-112925946D01*
X92017267Y-113138520D01*
X92050521Y-113348476D01*
X92100489Y-113502262D01*
X92116211Y-113550647D01*
X92212718Y-113740053D01*
X92337657Y-113912019D01*
X92487980Y-114062342D01*
X92659946Y-114187281D01*
X92659948Y-114187282D01*
X92659951Y-114187284D01*
X92849355Y-114283790D01*
X93051524Y-114349479D01*
X93261480Y-114382733D01*
X93261481Y-114382733D01*
X93474053Y-114382733D01*
X93474054Y-114382733D01*
X93684010Y-114349479D01*
X93886179Y-114283790D01*
X94075583Y-114187284D01*
X94097556Y-114171319D01*
X94247553Y-114062342D01*
X94247555Y-114062339D01*
X94247559Y-114062337D01*
X94397871Y-113912025D01*
X94397873Y-113912021D01*
X94397876Y-113912019D01*
X94522815Y-113740053D01*
X94522814Y-113740053D01*
X94522818Y-113740049D01*
X94619324Y-113550645D01*
X94685013Y-113348476D01*
X94718267Y-113138520D01*
X94718267Y-112925946D01*
X158281733Y-112925946D01*
X158281733Y-113138520D01*
X158314987Y-113348476D01*
X158364955Y-113502262D01*
X158380677Y-113550647D01*
X158477184Y-113740053D01*
X158602123Y-113912019D01*
X158752446Y-114062342D01*
X158924412Y-114187281D01*
X158924414Y-114187282D01*
X158924417Y-114187284D01*
X159113821Y-114283790D01*
X159315990Y-114349479D01*
X159525946Y-114382733D01*
X159525947Y-114382733D01*
X159738519Y-114382733D01*
X159738520Y-114382733D01*
X159948476Y-114349479D01*
X160150645Y-114283790D01*
X160340049Y-114187284D01*
X160362022Y-114171319D01*
X160512019Y-114062342D01*
X160512021Y-114062339D01*
X160512025Y-114062337D01*
X160662337Y-113912025D01*
X160662339Y-113912021D01*
X160662342Y-113912019D01*
X160787281Y-113740053D01*
X160787280Y-113740053D01*
X160787284Y-113740049D01*
X160883790Y-113550645D01*
X160949479Y-113348476D01*
X160982733Y-113138520D01*
X160982733Y-112925946D01*
X160949479Y-112715990D01*
X160883790Y-112513821D01*
X160787284Y-112324417D01*
X160787282Y-112324414D01*
X160787281Y-112324412D01*
X160662342Y-112152446D01*
X160512019Y-112002123D01*
X160340053Y-111877184D01*
X160150647Y-111780677D01*
X160150646Y-111780676D01*
X160150645Y-111780676D01*
X159948476Y-111714987D01*
X159948474Y-111714986D01*
X159948473Y-111714986D01*
X159787190Y-111689441D01*
X159738520Y-111681733D01*
X159525946Y-111681733D01*
X159477275Y-111689441D01*
X159315993Y-111714986D01*
X159113818Y-111780677D01*
X158924412Y-111877184D01*
X158752446Y-112002123D01*
X158602123Y-112152446D01*
X158477184Y-112324412D01*
X158380677Y-112513818D01*
X158314986Y-112715993D01*
X158281733Y-112925946D01*
X94718267Y-112925946D01*
X94685013Y-112715990D01*
X94619324Y-112513821D01*
X94522818Y-112324417D01*
X94522816Y-112324414D01*
X94522815Y-112324412D01*
X94397876Y-112152446D01*
X94247553Y-112002123D01*
X94075587Y-111877184D01*
X93886181Y-111780677D01*
X93886180Y-111780676D01*
X93886179Y-111780676D01*
X93684010Y-111714987D01*
X93684008Y-111714986D01*
X93684007Y-111714986D01*
X93522724Y-111689441D01*
X93474054Y-111681733D01*
X93261480Y-111681733D01*
X93212809Y-111689441D01*
X93051527Y-111714986D01*
X92849352Y-111780677D01*
X92659946Y-111877184D01*
X92487980Y-112002123D01*
X92337657Y-112152446D01*
X92212718Y-112324412D01*
X92116211Y-112513818D01*
X92050520Y-112715993D01*
X92017267Y-112925946D01*
X91368253Y-112925946D01*
X91366864Y-101005389D01*
X100615500Y-101005389D01*
X100615500Y-101178611D01*
X100642598Y-101349701D01*
X100696127Y-101514445D01*
X100774768Y-101668788D01*
X100876586Y-101808928D01*
X100999072Y-101931414D01*
X101139212Y-102033232D01*
X101293555Y-102111873D01*
X101458299Y-102165402D01*
X101629389Y-102192500D01*
X101629390Y-102192500D01*
X101802610Y-102192500D01*
X101802611Y-102192500D01*
X101973701Y-102165402D01*
X102138445Y-102111873D01*
X102292788Y-102033232D01*
X102432928Y-101931414D01*
X102555414Y-101808928D01*
X102657232Y-101668788D01*
X102735873Y-101514445D01*
X102789402Y-101349701D01*
X102816500Y-101178611D01*
X102816500Y-101005389D01*
X102806854Y-100944486D01*
X104545500Y-100944486D01*
X104545500Y-101239513D01*
X104577571Y-101483113D01*
X104584007Y-101531993D01*
X104658212Y-101808930D01*
X104660361Y-101816951D01*
X104660364Y-101816961D01*
X104773254Y-102089500D01*
X104773258Y-102089510D01*
X104920761Y-102344993D01*
X105100352Y-102579040D01*
X105100358Y-102579047D01*
X105308952Y-102787641D01*
X105308959Y-102787647D01*
X105543006Y-102967238D01*
X105798489Y-103114741D01*
X105798490Y-103114741D01*
X105798493Y-103114743D01*
X106071048Y-103227639D01*
X106356007Y-103303993D01*
X106648494Y-103342500D01*
X106648501Y-103342500D01*
X106943499Y-103342500D01*
X106943506Y-103342500D01*
X107235993Y-103303993D01*
X107520952Y-103227639D01*
X107793507Y-103114743D01*
X108048994Y-102967238D01*
X108283042Y-102787646D01*
X108491646Y-102579042D01*
X108671238Y-102344994D01*
X108818743Y-102089507D01*
X108931639Y-101816952D01*
X109007993Y-101531993D01*
X109046500Y-101239506D01*
X109046500Y-101005389D01*
X110775500Y-101005389D01*
X110775500Y-101178611D01*
X110802598Y-101349701D01*
X110856127Y-101514445D01*
X110934768Y-101668788D01*
X111036586Y-101808928D01*
X111159072Y-101931414D01*
X111299212Y-102033232D01*
X111453555Y-102111873D01*
X111618299Y-102165402D01*
X111789389Y-102192500D01*
X111789390Y-102192500D01*
X111962610Y-102192500D01*
X111962611Y-102192500D01*
X112133701Y-102165402D01*
X112298445Y-102111873D01*
X112452788Y-102033232D01*
X112592928Y-101931414D01*
X112715414Y-101808928D01*
X112817232Y-101668788D01*
X112895873Y-101514445D01*
X112949402Y-101349701D01*
X112976500Y-101178611D01*
X112976500Y-101005389D01*
X120115500Y-101005389D01*
X120115500Y-101178611D01*
X120142598Y-101349701D01*
X120196127Y-101514445D01*
X120274768Y-101668788D01*
X120376586Y-101808928D01*
X120499072Y-101931414D01*
X120639212Y-102033232D01*
X120793555Y-102111873D01*
X120958299Y-102165402D01*
X121129389Y-102192500D01*
X121129390Y-102192500D01*
X121302610Y-102192500D01*
X121302611Y-102192500D01*
X121473701Y-102165402D01*
X121638445Y-102111873D01*
X121792788Y-102033232D01*
X121932928Y-101931414D01*
X122055414Y-101808928D01*
X122157232Y-101668788D01*
X122235873Y-101514445D01*
X122289402Y-101349701D01*
X122316500Y-101178611D01*
X122316500Y-101005389D01*
X122306854Y-100944486D01*
X124045500Y-100944486D01*
X124045500Y-101239513D01*
X124077571Y-101483113D01*
X124084007Y-101531993D01*
X124158212Y-101808930D01*
X124160361Y-101816951D01*
X124160364Y-101816961D01*
X124273254Y-102089500D01*
X124273258Y-102089510D01*
X124420761Y-102344993D01*
X124600352Y-102579040D01*
X124600358Y-102579047D01*
X124808952Y-102787641D01*
X124808959Y-102787647D01*
X125043006Y-102967238D01*
X125298489Y-103114741D01*
X125298490Y-103114741D01*
X125298493Y-103114743D01*
X125571048Y-103227639D01*
X125856007Y-103303993D01*
X126148494Y-103342500D01*
X126148501Y-103342500D01*
X126443499Y-103342500D01*
X126443506Y-103342500D01*
X126735993Y-103303993D01*
X127020952Y-103227639D01*
X127293507Y-103114743D01*
X127548994Y-102967238D01*
X127783042Y-102787646D01*
X127991646Y-102579042D01*
X128171238Y-102344994D01*
X128318743Y-102089507D01*
X128431639Y-101816952D01*
X128507993Y-101531993D01*
X128546500Y-101239506D01*
X128546500Y-101005389D01*
X130275500Y-101005389D01*
X130275500Y-101178611D01*
X130302598Y-101349701D01*
X130356127Y-101514445D01*
X130434768Y-101668788D01*
X130536586Y-101808928D01*
X130659072Y-101931414D01*
X130799212Y-102033232D01*
X130953555Y-102111873D01*
X131118299Y-102165402D01*
X131289389Y-102192500D01*
X131289390Y-102192500D01*
X131462610Y-102192500D01*
X131462611Y-102192500D01*
X131633701Y-102165402D01*
X131798445Y-102111873D01*
X131952788Y-102033232D01*
X132092928Y-101931414D01*
X132215414Y-101808928D01*
X132317232Y-101668788D01*
X132395873Y-101514445D01*
X132449402Y-101349701D01*
X132476500Y-101178611D01*
X132476500Y-101005389D01*
X139615500Y-101005389D01*
X139615500Y-101178611D01*
X139642598Y-101349701D01*
X139696127Y-101514445D01*
X139774768Y-101668788D01*
X139876586Y-101808928D01*
X139999072Y-101931414D01*
X140139212Y-102033232D01*
X140293555Y-102111873D01*
X140458299Y-102165402D01*
X140629389Y-102192500D01*
X140629390Y-102192500D01*
X140802610Y-102192500D01*
X140802611Y-102192500D01*
X140973701Y-102165402D01*
X141138445Y-102111873D01*
X141292788Y-102033232D01*
X141432928Y-101931414D01*
X141555414Y-101808928D01*
X141657232Y-101668788D01*
X141735873Y-101514445D01*
X141789402Y-101349701D01*
X141816500Y-101178611D01*
X141816500Y-101005389D01*
X141806854Y-100944486D01*
X143545500Y-100944486D01*
X143545500Y-101239513D01*
X143577571Y-101483113D01*
X143584007Y-101531993D01*
X143658212Y-101808930D01*
X143660361Y-101816951D01*
X143660364Y-101816961D01*
X143773254Y-102089500D01*
X143773258Y-102089510D01*
X143920761Y-102344993D01*
X144100352Y-102579040D01*
X144100358Y-102579047D01*
X144308952Y-102787641D01*
X144308959Y-102787647D01*
X144543006Y-102967238D01*
X144798489Y-103114741D01*
X144798490Y-103114741D01*
X144798493Y-103114743D01*
X145071048Y-103227639D01*
X145356007Y-103303993D01*
X145648494Y-103342500D01*
X145648501Y-103342500D01*
X145943499Y-103342500D01*
X145943506Y-103342500D01*
X146235993Y-103303993D01*
X146520952Y-103227639D01*
X146793507Y-103114743D01*
X147048994Y-102967238D01*
X147283042Y-102787646D01*
X147491646Y-102579042D01*
X147671238Y-102344994D01*
X147818743Y-102089507D01*
X147931639Y-101816952D01*
X148007993Y-101531993D01*
X148046500Y-101239506D01*
X148046500Y-101005389D01*
X149775500Y-101005389D01*
X149775500Y-101178611D01*
X149802598Y-101349701D01*
X149856127Y-101514445D01*
X149934768Y-101668788D01*
X150036586Y-101808928D01*
X150159072Y-101931414D01*
X150299212Y-102033232D01*
X150453555Y-102111873D01*
X150618299Y-102165402D01*
X150789389Y-102192500D01*
X150789390Y-102192500D01*
X150962610Y-102192500D01*
X150962611Y-102192500D01*
X151133701Y-102165402D01*
X151298445Y-102111873D01*
X151452788Y-102033232D01*
X151592928Y-101931414D01*
X151715414Y-101808928D01*
X151817232Y-101668788D01*
X151895873Y-101514445D01*
X151949402Y-101349701D01*
X151976500Y-101178611D01*
X151976500Y-101005389D01*
X151949402Y-100834299D01*
X151895873Y-100669555D01*
X151817232Y-100515212D01*
X151715414Y-100375072D01*
X151592928Y-100252586D01*
X151452788Y-100150768D01*
X151298445Y-100072127D01*
X151133701Y-100018598D01*
X151133699Y-100018597D01*
X151133698Y-100018597D01*
X151002271Y-99997781D01*
X150962611Y-99991500D01*
X150789389Y-99991500D01*
X150749728Y-99997781D01*
X150618302Y-100018597D01*
X150453552Y-100072128D01*
X150299211Y-100150768D01*
X150219256Y-100208859D01*
X150159072Y-100252586D01*
X150159070Y-100252588D01*
X150159069Y-100252588D01*
X150036588Y-100375069D01*
X150036588Y-100375070D01*
X150036586Y-100375072D01*
X149992859Y-100435256D01*
X149934768Y-100515211D01*
X149856128Y-100669552D01*
X149802597Y-100834302D01*
X149785146Y-100944486D01*
X149775500Y-101005389D01*
X148046500Y-101005389D01*
X148046500Y-100944494D01*
X148007993Y-100652007D01*
X147931639Y-100367048D01*
X147818743Y-100094493D01*
X147754064Y-99982466D01*
X147671238Y-99839006D01*
X147491647Y-99604959D01*
X147491641Y-99604952D01*
X147283047Y-99396358D01*
X147283040Y-99396352D01*
X147048993Y-99216761D01*
X146793510Y-99069258D01*
X146793500Y-99069254D01*
X146520961Y-98956364D01*
X146520954Y-98956362D01*
X146520952Y-98956361D01*
X146235993Y-98880007D01*
X146187113Y-98873571D01*
X145943513Y-98841500D01*
X145943506Y-98841500D01*
X145648494Y-98841500D01*
X145648486Y-98841500D01*
X145370085Y-98878153D01*
X145356007Y-98880007D01*
X145071048Y-98956361D01*
X145071038Y-98956364D01*
X144798499Y-99069254D01*
X144798489Y-99069258D01*
X144543006Y-99216761D01*
X144308959Y-99396352D01*
X144308952Y-99396358D01*
X144100358Y-99604952D01*
X144100352Y-99604959D01*
X143920761Y-99839006D01*
X143773258Y-100094489D01*
X143773254Y-100094499D01*
X143660364Y-100367038D01*
X143660361Y-100367048D01*
X143584008Y-100652004D01*
X143584006Y-100652015D01*
X143545500Y-100944486D01*
X141806854Y-100944486D01*
X141789402Y-100834299D01*
X141735873Y-100669555D01*
X141657232Y-100515212D01*
X141555414Y-100375072D01*
X141497232Y-100316890D01*
X141463747Y-100255567D01*
X141468731Y-100185875D01*
X141510603Y-100129942D01*
X141576067Y-100105525D01*
X141613856Y-100108634D01*
X141734852Y-100137683D01*
X141986000Y-100157449D01*
X142237148Y-100137683D01*
X142482111Y-100078873D01*
X142714859Y-99982466D01*
X142929659Y-99850836D01*
X143121224Y-99687224D01*
X143284836Y-99495659D01*
X143416466Y-99280859D01*
X143512873Y-99048111D01*
X143571683Y-98803148D01*
X143591449Y-98552000D01*
X143571683Y-98300852D01*
X143512873Y-98055889D01*
X143416466Y-97823141D01*
X143416466Y-97823140D01*
X143284839Y-97608346D01*
X143284838Y-97608343D01*
X143143165Y-97442466D01*
X143121224Y-97416776D01*
X142994571Y-97308604D01*
X142929656Y-97253161D01*
X142929653Y-97253160D01*
X142714859Y-97121533D01*
X142482110Y-97025126D01*
X142237151Y-96966317D01*
X141986000Y-96946551D01*
X141734848Y-96966317D01*
X141489889Y-97025126D01*
X141257140Y-97121533D01*
X141042346Y-97253160D01*
X141042343Y-97253161D01*
X140850776Y-97416776D01*
X140687161Y-97608343D01*
X140687160Y-97608346D01*
X140555533Y-97823140D01*
X140459126Y-98055889D01*
X140400317Y-98300848D01*
X140380551Y-98552000D01*
X140400317Y-98803151D01*
X140459126Y-99048110D01*
X140555533Y-99280859D01*
X140687160Y-99495653D01*
X140687161Y-99495656D01*
X140687164Y-99495659D01*
X140850776Y-99687224D01*
X140964783Y-99784595D01*
X141002976Y-99843102D01*
X141003474Y-99912970D01*
X140966121Y-99972016D01*
X140902774Y-100001494D01*
X140864854Y-100001358D01*
X140802611Y-99991500D01*
X140629389Y-99991500D01*
X140589728Y-99997781D01*
X140458302Y-100018597D01*
X140293552Y-100072128D01*
X140139211Y-100150768D01*
X140059256Y-100208859D01*
X139999072Y-100252586D01*
X139999070Y-100252588D01*
X139999069Y-100252588D01*
X139876588Y-100375069D01*
X139876588Y-100375070D01*
X139876586Y-100375072D01*
X139832859Y-100435256D01*
X139774768Y-100515211D01*
X139696128Y-100669552D01*
X139642597Y-100834302D01*
X139625146Y-100944486D01*
X139615500Y-101005389D01*
X132476500Y-101005389D01*
X132449402Y-100834299D01*
X132395873Y-100669555D01*
X132317232Y-100515212D01*
X132215414Y-100375072D01*
X132092928Y-100252586D01*
X131952788Y-100150768D01*
X131798445Y-100072127D01*
X131633701Y-100018598D01*
X131633699Y-100018597D01*
X131633698Y-100018597D01*
X131502271Y-99997781D01*
X131462611Y-99991500D01*
X131289389Y-99991500D01*
X131249728Y-99997781D01*
X131118302Y-100018597D01*
X130953552Y-100072128D01*
X130799211Y-100150768D01*
X130719256Y-100208859D01*
X130659072Y-100252586D01*
X130659070Y-100252588D01*
X130659069Y-100252588D01*
X130536588Y-100375069D01*
X130536588Y-100375070D01*
X130536586Y-100375072D01*
X130492859Y-100435256D01*
X130434768Y-100515211D01*
X130356128Y-100669552D01*
X130302597Y-100834302D01*
X130285146Y-100944486D01*
X130275500Y-101005389D01*
X128546500Y-101005389D01*
X128546500Y-100944494D01*
X128507993Y-100652007D01*
X128431639Y-100367048D01*
X128318743Y-100094493D01*
X128254064Y-99982466D01*
X128171238Y-99839006D01*
X127991647Y-99604959D01*
X127991641Y-99604952D01*
X127783047Y-99396358D01*
X127783040Y-99396352D01*
X127548993Y-99216761D01*
X127293510Y-99069258D01*
X127293500Y-99069254D01*
X127020961Y-98956364D01*
X127020954Y-98956362D01*
X127020952Y-98956361D01*
X126735993Y-98880007D01*
X126687113Y-98873571D01*
X126443513Y-98841500D01*
X126443506Y-98841500D01*
X126148494Y-98841500D01*
X126148486Y-98841500D01*
X125870085Y-98878153D01*
X125856007Y-98880007D01*
X125571048Y-98956361D01*
X125571038Y-98956364D01*
X125298499Y-99069254D01*
X125298489Y-99069258D01*
X125043006Y-99216761D01*
X124808959Y-99396352D01*
X124808952Y-99396358D01*
X124600358Y-99604952D01*
X124600352Y-99604959D01*
X124420761Y-99839006D01*
X124273258Y-100094489D01*
X124273254Y-100094499D01*
X124160364Y-100367038D01*
X124160361Y-100367048D01*
X124084008Y-100652004D01*
X124084006Y-100652015D01*
X124045500Y-100944486D01*
X122306854Y-100944486D01*
X122289402Y-100834299D01*
X122235873Y-100669555D01*
X122157232Y-100515212D01*
X122055414Y-100375072D01*
X121997232Y-100316890D01*
X121963747Y-100255567D01*
X121968731Y-100185875D01*
X122010603Y-100129942D01*
X122076067Y-100105525D01*
X122113856Y-100108634D01*
X122234852Y-100137683D01*
X122486000Y-100157449D01*
X122737148Y-100137683D01*
X122982111Y-100078873D01*
X123214859Y-99982466D01*
X123429659Y-99850836D01*
X123621224Y-99687224D01*
X123784836Y-99495659D01*
X123916466Y-99280859D01*
X124012873Y-99048111D01*
X124071683Y-98803148D01*
X124091449Y-98552000D01*
X124071683Y-98300852D01*
X124012873Y-98055889D01*
X123916466Y-97823141D01*
X123916466Y-97823140D01*
X123784839Y-97608346D01*
X123784838Y-97608343D01*
X123643165Y-97442466D01*
X123621224Y-97416776D01*
X123494571Y-97308604D01*
X123429656Y-97253161D01*
X123429653Y-97253160D01*
X123214859Y-97121533D01*
X122982110Y-97025126D01*
X122737151Y-96966317D01*
X122486000Y-96946551D01*
X122234848Y-96966317D01*
X121989889Y-97025126D01*
X121757140Y-97121533D01*
X121542346Y-97253160D01*
X121542343Y-97253161D01*
X121350776Y-97416776D01*
X121187161Y-97608343D01*
X121187160Y-97608346D01*
X121055533Y-97823140D01*
X120959126Y-98055889D01*
X120900317Y-98300848D01*
X120880551Y-98552000D01*
X120900317Y-98803151D01*
X120959126Y-99048110D01*
X121055533Y-99280859D01*
X121187160Y-99495653D01*
X121187161Y-99495656D01*
X121187164Y-99495659D01*
X121350776Y-99687224D01*
X121464783Y-99784595D01*
X121502976Y-99843102D01*
X121503474Y-99912970D01*
X121466121Y-99972016D01*
X121402774Y-100001494D01*
X121364854Y-100001358D01*
X121302611Y-99991500D01*
X121129389Y-99991500D01*
X121089728Y-99997781D01*
X120958302Y-100018597D01*
X120793552Y-100072128D01*
X120639211Y-100150768D01*
X120559256Y-100208859D01*
X120499072Y-100252586D01*
X120499070Y-100252588D01*
X120499069Y-100252588D01*
X120376588Y-100375069D01*
X120376588Y-100375070D01*
X120376586Y-100375072D01*
X120332859Y-100435256D01*
X120274768Y-100515211D01*
X120196128Y-100669552D01*
X120142597Y-100834302D01*
X120125146Y-100944486D01*
X120115500Y-101005389D01*
X112976500Y-101005389D01*
X112949402Y-100834299D01*
X112895873Y-100669555D01*
X112817232Y-100515212D01*
X112715414Y-100375072D01*
X112592928Y-100252586D01*
X112452788Y-100150768D01*
X112298445Y-100072127D01*
X112133701Y-100018598D01*
X112133699Y-100018597D01*
X112133698Y-100018597D01*
X112002271Y-99997781D01*
X111962611Y-99991500D01*
X111789389Y-99991500D01*
X111749728Y-99997781D01*
X111618302Y-100018597D01*
X111453552Y-100072128D01*
X111299211Y-100150768D01*
X111219256Y-100208859D01*
X111159072Y-100252586D01*
X111159070Y-100252588D01*
X111159069Y-100252588D01*
X111036588Y-100375069D01*
X111036588Y-100375070D01*
X111036586Y-100375072D01*
X110992859Y-100435256D01*
X110934768Y-100515211D01*
X110856128Y-100669552D01*
X110802597Y-100834302D01*
X110785146Y-100944486D01*
X110775500Y-101005389D01*
X109046500Y-101005389D01*
X109046500Y-100944494D01*
X109007993Y-100652007D01*
X108931639Y-100367048D01*
X108818743Y-100094493D01*
X108754064Y-99982466D01*
X108671238Y-99839006D01*
X108491647Y-99604959D01*
X108491641Y-99604952D01*
X108283047Y-99396358D01*
X108283040Y-99396352D01*
X108048993Y-99216761D01*
X107793510Y-99069258D01*
X107793500Y-99069254D01*
X107520961Y-98956364D01*
X107520954Y-98956362D01*
X107520952Y-98956361D01*
X107235993Y-98880007D01*
X107187113Y-98873571D01*
X106943513Y-98841500D01*
X106943506Y-98841500D01*
X106648494Y-98841500D01*
X106648486Y-98841500D01*
X106370085Y-98878153D01*
X106356007Y-98880007D01*
X106071048Y-98956361D01*
X106071038Y-98956364D01*
X105798499Y-99069254D01*
X105798489Y-99069258D01*
X105543006Y-99216761D01*
X105308959Y-99396352D01*
X105308952Y-99396358D01*
X105100358Y-99604952D01*
X105100352Y-99604959D01*
X104920761Y-99839006D01*
X104773258Y-100094489D01*
X104773254Y-100094499D01*
X104660364Y-100367038D01*
X104660361Y-100367048D01*
X104584008Y-100652004D01*
X104584006Y-100652015D01*
X104545500Y-100944486D01*
X102806854Y-100944486D01*
X102789402Y-100834299D01*
X102735873Y-100669555D01*
X102657232Y-100515212D01*
X102555414Y-100375072D01*
X102497232Y-100316890D01*
X102463747Y-100255567D01*
X102468731Y-100185875D01*
X102510603Y-100129942D01*
X102576067Y-100105525D01*
X102613856Y-100108634D01*
X102734852Y-100137683D01*
X102986000Y-100157449D01*
X103237148Y-100137683D01*
X103482111Y-100078873D01*
X103714859Y-99982466D01*
X103929659Y-99850836D01*
X104121224Y-99687224D01*
X104284836Y-99495659D01*
X104416466Y-99280859D01*
X104512873Y-99048111D01*
X104571683Y-98803148D01*
X104591449Y-98552000D01*
X104571683Y-98300852D01*
X104512873Y-98055889D01*
X104416466Y-97823141D01*
X104416466Y-97823140D01*
X104284839Y-97608346D01*
X104284838Y-97608343D01*
X104143165Y-97442466D01*
X104121224Y-97416776D01*
X103994571Y-97308604D01*
X103929656Y-97253161D01*
X103929653Y-97253160D01*
X103714859Y-97121533D01*
X103482110Y-97025126D01*
X103237151Y-96966317D01*
X102986000Y-96946551D01*
X102734848Y-96966317D01*
X102489889Y-97025126D01*
X102257140Y-97121533D01*
X102042346Y-97253160D01*
X102042343Y-97253161D01*
X101850776Y-97416776D01*
X101687161Y-97608343D01*
X101687160Y-97608346D01*
X101555533Y-97823140D01*
X101459126Y-98055889D01*
X101400317Y-98300848D01*
X101380551Y-98552000D01*
X101400317Y-98803151D01*
X101459126Y-99048110D01*
X101555533Y-99280859D01*
X101687160Y-99495653D01*
X101687161Y-99495656D01*
X101687164Y-99495659D01*
X101850776Y-99687224D01*
X101964783Y-99784595D01*
X102002976Y-99843102D01*
X102003474Y-99912970D01*
X101966121Y-99972016D01*
X101902774Y-100001494D01*
X101864854Y-100001358D01*
X101802611Y-99991500D01*
X101629389Y-99991500D01*
X101589728Y-99997781D01*
X101458302Y-100018597D01*
X101293552Y-100072128D01*
X101139211Y-100150768D01*
X101059256Y-100208859D01*
X100999072Y-100252586D01*
X100999070Y-100252588D01*
X100999069Y-100252588D01*
X100876588Y-100375069D01*
X100876588Y-100375070D01*
X100876586Y-100375072D01*
X100832859Y-100435256D01*
X100774768Y-100515211D01*
X100696128Y-100669552D01*
X100642597Y-100834302D01*
X100625146Y-100944486D01*
X100615500Y-101005389D01*
X91366864Y-101005389D01*
X91366282Y-96012000D01*
X107730551Y-96012000D01*
X107750317Y-96263151D01*
X107809126Y-96508110D01*
X107905533Y-96740859D01*
X108037160Y-96955653D01*
X108037161Y-96955656D01*
X108092604Y-97020571D01*
X108200776Y-97147224D01*
X108324811Y-97253160D01*
X108392343Y-97310838D01*
X108392346Y-97310839D01*
X108607140Y-97442466D01*
X108839889Y-97538873D01*
X109084852Y-97597683D01*
X109336000Y-97617449D01*
X109587148Y-97597683D01*
X109832111Y-97538873D01*
X110064859Y-97442466D01*
X110279659Y-97310836D01*
X110471224Y-97147224D01*
X110634836Y-96955659D01*
X110766466Y-96740859D01*
X110862873Y-96508111D01*
X110921683Y-96263148D01*
X110941449Y-96012000D01*
X110921683Y-95760852D01*
X110862873Y-95515889D01*
X110766466Y-95283141D01*
X110766466Y-95283140D01*
X110634839Y-95068346D01*
X110634838Y-95068343D01*
X110597875Y-95025066D01*
X110471224Y-94876776D01*
X110344571Y-94768604D01*
X110279656Y-94713161D01*
X110279653Y-94713160D01*
X110064859Y-94581533D01*
X109832110Y-94485126D01*
X109587151Y-94426317D01*
X109336000Y-94406551D01*
X109084848Y-94426317D01*
X108839889Y-94485126D01*
X108607140Y-94581533D01*
X108392346Y-94713160D01*
X108392343Y-94713161D01*
X108200776Y-94876776D01*
X108037161Y-95068343D01*
X108037160Y-95068346D01*
X107905533Y-95283140D01*
X107809126Y-95515889D01*
X107750317Y-95760848D01*
X107730551Y-96012000D01*
X91366282Y-96012000D01*
X91365940Y-93079844D01*
X113648000Y-93079844D01*
X113654401Y-93139372D01*
X113654403Y-93139379D01*
X113704645Y-93274086D01*
X113704649Y-93274093D01*
X113790809Y-93389187D01*
X113790812Y-93389190D01*
X113905906Y-93475350D01*
X113905913Y-93475354D01*
X114040620Y-93525596D01*
X114040627Y-93525598D01*
X114100155Y-93531999D01*
X114100172Y-93532000D01*
X114648000Y-93532000D01*
X114648000Y-92832000D01*
X113648000Y-92832000D01*
X113648000Y-93079844D01*
X91365940Y-93079844D01*
X91365824Y-92084155D01*
X113648000Y-92084155D01*
X113648000Y-92332000D01*
X114648000Y-92332000D01*
X114648000Y-91632000D01*
X114100155Y-91632000D01*
X114040627Y-91638401D01*
X114040620Y-91638403D01*
X113905913Y-91688645D01*
X113905906Y-91688649D01*
X113790812Y-91774809D01*
X113790809Y-91774812D01*
X113704649Y-91889906D01*
X113704645Y-91889913D01*
X113654403Y-92024620D01*
X113654401Y-92024627D01*
X113648000Y-92084155D01*
X91365824Y-92084155D01*
X91363573Y-72759844D01*
X113738000Y-72759844D01*
X113744401Y-72819372D01*
X113744403Y-72819379D01*
X113794645Y-72954086D01*
X113794649Y-72954093D01*
X113880809Y-73069187D01*
X113880812Y-73069190D01*
X113995906Y-73155350D01*
X113995913Y-73155354D01*
X114130620Y-73205596D01*
X114130627Y-73205598D01*
X114190155Y-73211999D01*
X114190172Y-73212000D01*
X114738000Y-73212000D01*
X114738000Y-72512000D01*
X113738000Y-72512000D01*
X113738000Y-72759844D01*
X91363573Y-72759844D01*
X91363457Y-71764155D01*
X113738000Y-71764155D01*
X113738000Y-72012000D01*
X114738000Y-72012000D01*
X114738000Y-71312000D01*
X114190155Y-71312000D01*
X114130627Y-71318401D01*
X114130620Y-71318403D01*
X113995913Y-71368645D01*
X113995906Y-71368649D01*
X113880812Y-71454809D01*
X113880809Y-71454812D01*
X113794649Y-71569906D01*
X113794645Y-71569913D01*
X113744403Y-71704620D01*
X113744401Y-71704627D01*
X113738000Y-71764155D01*
X91363457Y-71764155D01*
X91363264Y-70103996D01*
X98254435Y-70103996D01*
X98254435Y-70104003D01*
X98274630Y-70283249D01*
X98274631Y-70283254D01*
X98334211Y-70453523D01*
X98430184Y-70606262D01*
X98557738Y-70733816D01*
X98710478Y-70829789D01*
X98880745Y-70889368D01*
X98880750Y-70889369D01*
X99059996Y-70909565D01*
X99060000Y-70909565D01*
X99060004Y-70909565D01*
X99239249Y-70889369D01*
X99239252Y-70889368D01*
X99239255Y-70889368D01*
X99409522Y-70829789D01*
X99562262Y-70733816D01*
X99562267Y-70733810D01*
X99565097Y-70731555D01*
X99567275Y-70730665D01*
X99568158Y-70730111D01*
X99568255Y-70730265D01*
X99629783Y-70705145D01*
X99642412Y-70704500D01*
X102021331Y-70704500D01*
X102021347Y-70704501D01*
X102028943Y-70704501D01*
X102187054Y-70704501D01*
X102187057Y-70704501D01*
X102339785Y-70663577D01*
X102419180Y-70617738D01*
X102476716Y-70584520D01*
X102588520Y-70472716D01*
X102588520Y-70472714D01*
X102598724Y-70462511D01*
X102598728Y-70462506D01*
X103437233Y-69624000D01*
X105158592Y-69624000D01*
X105178201Y-69910680D01*
X105178201Y-69910684D01*
X105178202Y-69910686D01*
X105185441Y-69945521D01*
X105236666Y-70192034D01*
X105236667Y-70192037D01*
X105332894Y-70462793D01*
X105332893Y-70462793D01*
X105465098Y-70717935D01*
X105630812Y-70952700D01*
X105715923Y-71043831D01*
X105826947Y-71162708D01*
X106049853Y-71344055D01*
X106256175Y-71469523D01*
X106295382Y-71493365D01*
X106471600Y-71569906D01*
X106558942Y-71607844D01*
X106835642Y-71685371D01*
X107085920Y-71719771D01*
X107120321Y-71724500D01*
X107120322Y-71724500D01*
X107407679Y-71724500D01*
X107438370Y-71720281D01*
X107692358Y-71685371D01*
X107969058Y-71607844D01*
X108082015Y-71558779D01*
X108232617Y-71493365D01*
X108232620Y-71493363D01*
X108232625Y-71493361D01*
X108478147Y-71344055D01*
X108701053Y-71162708D01*
X108897189Y-70952698D01*
X109062901Y-70717936D01*
X109195104Y-70462797D01*
X109291334Y-70192032D01*
X109349798Y-69910686D01*
X109369408Y-69624000D01*
X109349798Y-69337314D01*
X109291334Y-69055968D01*
X109195105Y-68785206D01*
X109195106Y-68785206D01*
X109062901Y-68530064D01*
X108897187Y-68295299D01*
X108772515Y-68161809D01*
X108701053Y-68085292D01*
X108478147Y-67903945D01*
X108478146Y-67903944D01*
X108232617Y-67754634D01*
X107969063Y-67640158D01*
X107969061Y-67640157D01*
X107969058Y-67640156D01*
X107839578Y-67603877D01*
X107692364Y-67562630D01*
X107692359Y-67562629D01*
X107692358Y-67562629D01*
X107550018Y-67543064D01*
X107407679Y-67523500D01*
X107407678Y-67523500D01*
X107120322Y-67523500D01*
X107120321Y-67523500D01*
X106835642Y-67562629D01*
X106835635Y-67562630D01*
X106627861Y-67620845D01*
X106558942Y-67640156D01*
X106558939Y-67640156D01*
X106558936Y-67640158D01*
X106558935Y-67640158D01*
X106295382Y-67754634D01*
X106049853Y-67903944D01*
X105826950Y-68085289D01*
X105630812Y-68295299D01*
X105465098Y-68530064D01*
X105332894Y-68785206D01*
X105236667Y-69055962D01*
X105236666Y-69055965D01*
X105178201Y-69337319D01*
X105158592Y-69624000D01*
X103437233Y-69624000D01*
X103650535Y-69410698D01*
X103711856Y-69377215D01*
X103724311Y-69375163D01*
X103811255Y-69365368D01*
X103981522Y-69305789D01*
X104134262Y-69209816D01*
X104261816Y-69082262D01*
X104357789Y-68929522D01*
X104417368Y-68759255D01*
X104421284Y-68724500D01*
X104437565Y-68580003D01*
X104437565Y-68579996D01*
X104417369Y-68400750D01*
X104417368Y-68400745D01*
X104392436Y-68329494D01*
X104357789Y-68230478D01*
X104333495Y-68191815D01*
X104318582Y-68168080D01*
X104261816Y-68077738D01*
X104134262Y-67950184D01*
X104116480Y-67939011D01*
X103981523Y-67854211D01*
X103811254Y-67794631D01*
X103811249Y-67794630D01*
X103632004Y-67774435D01*
X103631996Y-67774435D01*
X103452750Y-67794630D01*
X103452745Y-67794631D01*
X103282476Y-67854211D01*
X103129737Y-67950184D01*
X103002184Y-68077737D01*
X102906210Y-68230478D01*
X102846630Y-68400750D01*
X102836837Y-68487668D01*
X102809770Y-68552082D01*
X102801298Y-68561465D01*
X101895584Y-69467181D01*
X101834261Y-69500666D01*
X101807903Y-69503500D01*
X100809097Y-69503500D01*
X100742058Y-69483815D01*
X100696303Y-69431011D01*
X100686359Y-69361853D01*
X100715384Y-69298297D01*
X100721416Y-69291819D01*
X115011819Y-55001415D01*
X115073142Y-54967930D01*
X115142834Y-54972914D01*
X115198767Y-55014786D01*
X115223184Y-55080250D01*
X115223500Y-55089096D01*
X115223500Y-59361587D01*
X115203815Y-59428626D01*
X115196450Y-59438896D01*
X115194186Y-59441734D01*
X115098211Y-59594476D01*
X115038631Y-59764745D01*
X115038630Y-59764750D01*
X115021836Y-59913809D01*
X114994770Y-59978223D01*
X114937175Y-60017779D01*
X114893463Y-60022909D01*
X114893463Y-60023500D01*
X114888434Y-60023500D01*
X114888400Y-60023504D01*
X114888352Y-60023500D01*
X114888335Y-60023500D01*
X114639665Y-60023500D01*
X114394383Y-60064429D01*
X114159197Y-60145169D01*
X114159188Y-60145172D01*
X113940493Y-60263524D01*
X113744257Y-60416261D01*
X113575833Y-60599217D01*
X113439826Y-60807393D01*
X113339936Y-61035118D01*
X113278892Y-61276175D01*
X113278890Y-61276187D01*
X113258357Y-61523994D01*
X113258357Y-61524005D01*
X113278890Y-61771812D01*
X113278892Y-61771824D01*
X113339936Y-62012881D01*
X113439826Y-62240606D01*
X113575833Y-62448782D01*
X113575836Y-62448785D01*
X113744256Y-62631738D01*
X113744259Y-62631740D01*
X113744262Y-62631743D01*
X113845374Y-62710442D01*
X113886187Y-62767152D01*
X113890300Y-62796748D01*
X114634590Y-63541037D01*
X114571007Y-63558075D01*
X114456993Y-63623901D01*
X114363901Y-63716993D01*
X114298075Y-63831007D01*
X114281037Y-63894590D01*
X113540564Y-63154116D01*
X113440267Y-63307632D01*
X113340412Y-63535282D01*
X113279387Y-63776261D01*
X113279385Y-63776270D01*
X113258859Y-64023994D01*
X113258859Y-64024005D01*
X113279385Y-64271729D01*
X113279387Y-64271738D01*
X113340412Y-64512717D01*
X113440267Y-64740367D01*
X113552484Y-64912129D01*
X113572672Y-64979018D01*
X113553491Y-65046204D01*
X113522987Y-65079216D01*
X113406452Y-65166455D01*
X113320206Y-65281664D01*
X113320202Y-65281671D01*
X113269908Y-65416517D01*
X113263501Y-65476116D01*
X113263500Y-65476135D01*
X113263500Y-67571870D01*
X113263501Y-67571876D01*
X113269908Y-67631483D01*
X113320202Y-67766328D01*
X113320204Y-67766331D01*
X113323423Y-67770631D01*
X113347841Y-67836095D01*
X113332990Y-67904368D01*
X113294637Y-67945147D01*
X113295188Y-67945837D01*
X113290391Y-67949662D01*
X113290141Y-67949929D01*
X113289746Y-67950176D01*
X113289739Y-67950182D01*
X113162184Y-68077737D01*
X113066211Y-68230476D01*
X113006631Y-68400745D01*
X113006630Y-68400750D01*
X112986435Y-68579996D01*
X112986435Y-68580003D01*
X113006630Y-68759249D01*
X113006631Y-68759254D01*
X113066211Y-68929523D01*
X113145660Y-69055965D01*
X113162184Y-69082262D01*
X113289738Y-69209816D01*
X113308806Y-69221797D01*
X113430554Y-69298297D01*
X113442478Y-69305789D01*
X113612745Y-69365368D01*
X113629963Y-69367307D01*
X113694375Y-69394372D01*
X113733932Y-69451965D01*
X113739371Y-69477273D01*
X113743909Y-69519483D01*
X113794202Y-69654328D01*
X113794206Y-69654335D01*
X113880452Y-69769544D01*
X113880455Y-69769547D01*
X113995664Y-69855793D01*
X113995671Y-69855797D01*
X114130517Y-69906091D01*
X114130516Y-69906091D01*
X114137444Y-69906835D01*
X114190127Y-69912500D01*
X115339500Y-69912499D01*
X115406539Y-69932184D01*
X115452294Y-69984987D01*
X115463500Y-70036499D01*
X115463500Y-71188000D01*
X115443815Y-71255039D01*
X115391011Y-71300794D01*
X115339500Y-71312000D01*
X115238000Y-71312000D01*
X115238000Y-73212000D01*
X115339500Y-73212000D01*
X115406539Y-73231685D01*
X115452294Y-73284489D01*
X115463500Y-73336000D01*
X115463500Y-75850384D01*
X115443815Y-75917423D01*
X115391011Y-75963178D01*
X115380455Y-75967425D01*
X115292480Y-75998209D01*
X115139737Y-76094184D01*
X115012184Y-76221737D01*
X114916210Y-76374478D01*
X114856630Y-76544750D01*
X114846837Y-76631668D01*
X114819770Y-76696082D01*
X114811298Y-76705465D01*
X114241584Y-77275181D01*
X114180261Y-77308666D01*
X114153903Y-77311500D01*
X110922785Y-77311500D01*
X110855746Y-77291815D01*
X110809991Y-77239011D01*
X110800047Y-77169853D01*
X110808224Y-77140048D01*
X110862872Y-77008114D01*
X110862872Y-77008113D01*
X110862873Y-77008111D01*
X110921683Y-76763148D01*
X110941449Y-76512000D01*
X110921683Y-76260852D01*
X110862873Y-76015889D01*
X110842799Y-75967425D01*
X110766466Y-75783140D01*
X110634839Y-75568346D01*
X110634838Y-75568343D01*
X110543472Y-75461368D01*
X110471224Y-75376776D01*
X110344571Y-75268604D01*
X110279656Y-75213161D01*
X110279653Y-75213160D01*
X110064859Y-75081533D01*
X109832110Y-74985126D01*
X109587151Y-74926317D01*
X109336000Y-74906551D01*
X109084848Y-74926317D01*
X108839889Y-74985126D01*
X108607140Y-75081533D01*
X108392346Y-75213160D01*
X108392343Y-75213161D01*
X108200776Y-75376776D01*
X108037161Y-75568343D01*
X108037160Y-75568346D01*
X107905533Y-75783140D01*
X107809126Y-76015889D01*
X107750317Y-76260848D01*
X107730169Y-76516857D01*
X107727856Y-76516675D01*
X107710866Y-76574539D01*
X107658062Y-76620294D01*
X107606551Y-76631500D01*
X101492412Y-76631500D01*
X101425373Y-76611815D01*
X101415097Y-76604445D01*
X101412263Y-76602185D01*
X101412262Y-76602184D01*
X101355496Y-76566515D01*
X101259523Y-76506211D01*
X101089254Y-76446631D01*
X101089249Y-76446630D01*
X100910004Y-76426435D01*
X100909996Y-76426435D01*
X100730750Y-76446630D01*
X100730745Y-76446631D01*
X100560476Y-76506211D01*
X100407737Y-76602184D01*
X100280184Y-76729737D01*
X100184211Y-76882476D01*
X100124631Y-77052745D01*
X100124630Y-77052750D01*
X100104435Y-77231996D01*
X100104435Y-77232003D01*
X100124630Y-77411249D01*
X100124631Y-77411254D01*
X100184211Y-77581523D01*
X100280184Y-77734262D01*
X100407738Y-77861816D01*
X100560478Y-77957789D01*
X100685017Y-78001367D01*
X100730745Y-78017368D01*
X100730750Y-78017369D01*
X100909996Y-78037565D01*
X100910000Y-78037565D01*
X100910004Y-78037565D01*
X101089249Y-78017369D01*
X101089252Y-78017368D01*
X101089255Y-78017368D01*
X101259522Y-77957789D01*
X101412262Y-77861816D01*
X101412267Y-77861810D01*
X101415097Y-77859555D01*
X101417275Y-77858665D01*
X101418158Y-77858111D01*
X101418255Y-77858265D01*
X101479783Y-77833145D01*
X101492412Y-77832500D01*
X101653778Y-77832500D01*
X101720817Y-77852185D01*
X101766572Y-77904989D01*
X101776516Y-77974147D01*
X101748068Y-78037031D01*
X101735144Y-78052163D01*
X101687161Y-78108343D01*
X101687160Y-78108346D01*
X101555533Y-78323140D01*
X101459126Y-78555889D01*
X101400317Y-78800848D01*
X101380551Y-79052000D01*
X101400317Y-79303151D01*
X101459126Y-79548110D01*
X101555533Y-79780859D01*
X101687160Y-79995653D01*
X101687161Y-79995656D01*
X101687164Y-79995659D01*
X101850776Y-80187224D01*
X101917949Y-80244595D01*
X101964783Y-80284595D01*
X102002976Y-80343102D01*
X102003474Y-80412970D01*
X101966121Y-80472016D01*
X101902774Y-80501494D01*
X101864854Y-80501358D01*
X101802611Y-80491500D01*
X101629389Y-80491500D01*
X101589728Y-80497781D01*
X101458302Y-80518597D01*
X101293552Y-80572128D01*
X101139211Y-80650768D01*
X101059256Y-80708859D01*
X100999072Y-80752586D01*
X100999070Y-80752588D01*
X100999069Y-80752588D01*
X100876588Y-80875069D01*
X100876588Y-80875070D01*
X100876586Y-80875072D01*
X100832859Y-80935256D01*
X100774768Y-81015211D01*
X100696128Y-81169552D01*
X100642597Y-81334302D01*
X100631481Y-81404486D01*
X100615500Y-81505389D01*
X100615500Y-81678611D01*
X100618811Y-81699513D01*
X100640958Y-81839350D01*
X100642598Y-81849701D01*
X100696127Y-82014445D01*
X100774768Y-82168788D01*
X100876586Y-82308928D01*
X100999072Y-82431414D01*
X101139212Y-82533232D01*
X101293555Y-82611873D01*
X101458299Y-82665402D01*
X101629389Y-82692500D01*
X101629390Y-82692500D01*
X101802610Y-82692500D01*
X101802611Y-82692500D01*
X101973701Y-82665402D01*
X102138445Y-82611873D01*
X102292788Y-82533232D01*
X102432928Y-82431414D01*
X102555414Y-82308928D01*
X102657232Y-82168788D01*
X102735873Y-82014445D01*
X102789402Y-81849701D01*
X102816500Y-81678611D01*
X102816500Y-81505389D01*
X102806854Y-81444486D01*
X104545500Y-81444486D01*
X104545500Y-81739513D01*
X104576431Y-81974445D01*
X104584007Y-82031993D01*
X104658212Y-82308930D01*
X104660361Y-82316951D01*
X104660364Y-82316961D01*
X104773254Y-82589500D01*
X104773258Y-82589510D01*
X104920761Y-82844993D01*
X105100352Y-83079040D01*
X105100358Y-83079047D01*
X105308952Y-83287641D01*
X105308959Y-83287647D01*
X105543006Y-83467238D01*
X105798489Y-83614741D01*
X105798490Y-83614741D01*
X105798493Y-83614743D01*
X106071048Y-83727639D01*
X106356007Y-83803993D01*
X106648494Y-83842500D01*
X106648501Y-83842500D01*
X106943499Y-83842500D01*
X106943506Y-83842500D01*
X107235993Y-83803993D01*
X107520952Y-83727639D01*
X107793507Y-83614743D01*
X108048994Y-83467238D01*
X108283042Y-83287646D01*
X108491646Y-83079042D01*
X108671238Y-82844994D01*
X108818743Y-82589507D01*
X108931639Y-82316952D01*
X109007993Y-82031993D01*
X109046500Y-81739506D01*
X109046500Y-81505389D01*
X110775500Y-81505389D01*
X110775500Y-81678611D01*
X110778811Y-81699513D01*
X110800958Y-81839350D01*
X110802598Y-81849701D01*
X110856127Y-82014445D01*
X110934768Y-82168788D01*
X111036586Y-82308928D01*
X111159072Y-82431414D01*
X111299212Y-82533232D01*
X111453555Y-82611873D01*
X111618299Y-82665402D01*
X111789389Y-82692500D01*
X111789390Y-82692500D01*
X111962610Y-82692500D01*
X111962611Y-82692500D01*
X112133701Y-82665402D01*
X112298445Y-82611873D01*
X112452788Y-82533232D01*
X112592928Y-82431414D01*
X112715414Y-82308928D01*
X112817232Y-82168788D01*
X112895873Y-82014445D01*
X112949402Y-81849701D01*
X112976500Y-81678611D01*
X112976500Y-81505389D01*
X112949402Y-81334299D01*
X112895873Y-81169555D01*
X112817232Y-81015212D01*
X112715414Y-80875072D01*
X112592928Y-80752586D01*
X112452788Y-80650768D01*
X112298445Y-80572127D01*
X112133701Y-80518598D01*
X112133699Y-80518597D01*
X112133698Y-80518597D01*
X112002271Y-80497781D01*
X111962611Y-80491500D01*
X111789389Y-80491500D01*
X111749728Y-80497781D01*
X111618302Y-80518597D01*
X111453552Y-80572128D01*
X111299211Y-80650768D01*
X111219256Y-80708859D01*
X111159072Y-80752586D01*
X111159070Y-80752588D01*
X111159069Y-80752588D01*
X111036588Y-80875069D01*
X111036588Y-80875070D01*
X111036586Y-80875072D01*
X110992859Y-80935256D01*
X110934768Y-81015211D01*
X110856128Y-81169552D01*
X110802597Y-81334302D01*
X110791481Y-81404486D01*
X110775500Y-81505389D01*
X109046500Y-81505389D01*
X109046500Y-81444494D01*
X109007993Y-81152007D01*
X108931639Y-80867048D01*
X108915070Y-80827048D01*
X108884227Y-80752586D01*
X108818743Y-80594493D01*
X108816115Y-80589942D01*
X108671238Y-80339006D01*
X108491647Y-80104959D01*
X108491641Y-80104952D01*
X108283047Y-79896358D01*
X108283040Y-79896352D01*
X108048993Y-79716761D01*
X107793510Y-79569258D01*
X107793500Y-79569254D01*
X107520961Y-79456364D01*
X107520954Y-79456362D01*
X107520952Y-79456361D01*
X107235993Y-79380007D01*
X107187113Y-79373571D01*
X106943513Y-79341500D01*
X106943506Y-79341500D01*
X106648494Y-79341500D01*
X106648486Y-79341500D01*
X106370085Y-79378153D01*
X106356007Y-79380007D01*
X106220331Y-79416361D01*
X106071048Y-79456361D01*
X106071038Y-79456364D01*
X105798499Y-79569254D01*
X105798489Y-79569258D01*
X105543006Y-79716761D01*
X105308959Y-79896352D01*
X105308952Y-79896358D01*
X105100358Y-80104952D01*
X105100352Y-80104959D01*
X104920761Y-80339006D01*
X104773258Y-80594489D01*
X104773254Y-80594499D01*
X104660364Y-80867038D01*
X104660361Y-80867048D01*
X104584008Y-81152004D01*
X104584006Y-81152015D01*
X104545500Y-81444486D01*
X102806854Y-81444486D01*
X102789402Y-81334299D01*
X102735873Y-81169555D01*
X102657232Y-81015212D01*
X102555414Y-80875072D01*
X102497232Y-80816890D01*
X102463747Y-80755567D01*
X102468731Y-80685875D01*
X102510603Y-80629942D01*
X102576067Y-80605525D01*
X102613856Y-80608634D01*
X102734852Y-80637683D01*
X102986000Y-80657449D01*
X103237148Y-80637683D01*
X103482111Y-80578873D01*
X103714859Y-80482466D01*
X103929659Y-80350836D01*
X104121224Y-80187224D01*
X104284836Y-79995659D01*
X104416466Y-79780859D01*
X104512873Y-79548111D01*
X104571683Y-79303148D01*
X104591449Y-79052000D01*
X104571683Y-78800852D01*
X104512873Y-78555889D01*
X104465965Y-78442642D01*
X104416466Y-78323140D01*
X104284839Y-78108346D01*
X104284838Y-78108343D01*
X104241569Y-78057682D01*
X104223931Y-78037031D01*
X104195361Y-77973270D01*
X104205798Y-77904185D01*
X104251929Y-77851709D01*
X104318222Y-77832500D01*
X107776004Y-77832500D01*
X107843043Y-77852185D01*
X107863685Y-77868819D01*
X108271240Y-78276374D01*
X108271250Y-78276385D01*
X108275580Y-78280715D01*
X108275581Y-78280716D01*
X108387385Y-78392520D01*
X108474196Y-78442639D01*
X108474198Y-78442641D01*
X108524314Y-78471576D01*
X108524316Y-78471577D01*
X108677043Y-78512500D01*
X108677044Y-78512500D01*
X114367331Y-78512500D01*
X114367347Y-78512501D01*
X114374943Y-78512501D01*
X114533054Y-78512501D01*
X114533057Y-78512501D01*
X114685785Y-78471577D01*
X114735904Y-78442639D01*
X114822716Y-78392520D01*
X114934520Y-78280716D01*
X114934520Y-78280714D01*
X114944728Y-78270507D01*
X114944730Y-78270504D01*
X115660535Y-77554698D01*
X115721856Y-77521215D01*
X115734311Y-77519163D01*
X115821255Y-77509368D01*
X115991522Y-77449789D01*
X116049527Y-77413341D01*
X116116764Y-77394341D01*
X116183599Y-77414708D01*
X116228814Y-77467976D01*
X116239500Y-77518335D01*
X116239500Y-87418719D01*
X116219815Y-87485758D01*
X116167011Y-87531513D01*
X116097853Y-87541457D01*
X116034297Y-87512432D01*
X116010506Y-87484691D01*
X115966891Y-87415279D01*
X115945816Y-87381738D01*
X115818262Y-87254184D01*
X115665523Y-87158211D01*
X115495254Y-87098631D01*
X115495249Y-87098630D01*
X115316004Y-87078435D01*
X115315996Y-87078435D01*
X115136750Y-87098630D01*
X115136745Y-87098631D01*
X114966476Y-87158211D01*
X114813737Y-87254184D01*
X114686184Y-87381737D01*
X114590211Y-87534476D01*
X114530631Y-87704745D01*
X114530630Y-87704750D01*
X114510435Y-87883996D01*
X114510435Y-87884003D01*
X114530630Y-88063249D01*
X114530632Y-88063257D01*
X114566774Y-88166546D01*
X114570335Y-88236325D01*
X114535606Y-88296952D01*
X114473612Y-88329179D01*
X114449732Y-88331500D01*
X114100130Y-88331500D01*
X114100123Y-88331501D01*
X114040516Y-88337908D01*
X113905671Y-88388202D01*
X113905664Y-88388206D01*
X113790455Y-88474452D01*
X113790452Y-88474455D01*
X113704206Y-88589664D01*
X113704202Y-88589671D01*
X113653908Y-88724517D01*
X113647501Y-88784116D01*
X113647500Y-88784135D01*
X113647500Y-89779870D01*
X113647501Y-89779876D01*
X113653908Y-89839483D01*
X113704202Y-89974328D01*
X113704206Y-89974335D01*
X113790452Y-90089544D01*
X113790455Y-90089547D01*
X113905664Y-90175793D01*
X113905671Y-90175797D01*
X114040517Y-90226091D01*
X114040516Y-90226091D01*
X114047444Y-90226835D01*
X114100127Y-90232500D01*
X115695872Y-90232499D01*
X115755483Y-90226091D01*
X115890331Y-90175796D01*
X116005546Y-90089546D01*
X116016234Y-90075267D01*
X116072167Y-90033398D01*
X116141859Y-90028414D01*
X116203182Y-90061899D01*
X116236666Y-90123222D01*
X116239500Y-90149580D01*
X116239500Y-91715253D01*
X116219815Y-91782292D01*
X116167011Y-91828047D01*
X116097853Y-91837991D01*
X116034297Y-91808966D01*
X116016235Y-91789566D01*
X116005189Y-91774811D01*
X116005187Y-91774809D01*
X115890093Y-91688649D01*
X115890086Y-91688645D01*
X115755379Y-91638403D01*
X115755372Y-91638401D01*
X115695844Y-91632000D01*
X115148000Y-91632000D01*
X115148000Y-93532000D01*
X115695828Y-93532000D01*
X115695844Y-93531999D01*
X115755372Y-93525598D01*
X115755379Y-93525596D01*
X115890086Y-93475354D01*
X115890093Y-93475350D01*
X116005186Y-93389191D01*
X116016233Y-93374435D01*
X116072167Y-93332564D01*
X116141858Y-93327580D01*
X116203181Y-93361065D01*
X116236666Y-93422388D01*
X116239500Y-93448746D01*
X116239500Y-94401330D01*
X116239499Y-94401348D01*
X116239499Y-94567054D01*
X116239498Y-94567054D01*
X116280423Y-94719785D01*
X116309358Y-94769900D01*
X116309359Y-94769904D01*
X116309360Y-94769904D01*
X116359479Y-94856714D01*
X116359481Y-94856717D01*
X116478349Y-94975585D01*
X116478355Y-94975590D01*
X117025298Y-95522533D01*
X117058783Y-95583856D01*
X117060837Y-95596330D01*
X117070630Y-95683249D01*
X117130210Y-95853521D01*
X117226184Y-96006262D01*
X117353738Y-96133816D01*
X117506478Y-96229789D01*
X117601813Y-96263148D01*
X117676745Y-96289368D01*
X117676750Y-96289369D01*
X117855996Y-96309565D01*
X117856000Y-96309565D01*
X117856004Y-96309565D01*
X118035249Y-96289369D01*
X118035252Y-96289368D01*
X118035255Y-96289368D01*
X118205522Y-96229789D01*
X118358262Y-96133816D01*
X118480078Y-96012000D01*
X127230551Y-96012000D01*
X127250317Y-96263151D01*
X127309126Y-96508110D01*
X127405533Y-96740859D01*
X127537160Y-96955653D01*
X127537161Y-96955656D01*
X127592604Y-97020571D01*
X127700776Y-97147224D01*
X127824811Y-97253160D01*
X127892343Y-97310838D01*
X127892346Y-97310839D01*
X128107140Y-97442466D01*
X128339889Y-97538873D01*
X128584852Y-97597683D01*
X128836000Y-97617449D01*
X129087148Y-97597683D01*
X129332111Y-97538873D01*
X129564859Y-97442466D01*
X129779659Y-97310836D01*
X129971224Y-97147224D01*
X130134836Y-96955659D01*
X130266466Y-96740859D01*
X130362873Y-96508111D01*
X130421683Y-96263148D01*
X130441449Y-96012000D01*
X146730551Y-96012000D01*
X146750317Y-96263151D01*
X146809126Y-96508110D01*
X146905533Y-96740859D01*
X147037160Y-96955653D01*
X147037161Y-96955656D01*
X147092604Y-97020571D01*
X147200776Y-97147224D01*
X147324811Y-97253160D01*
X147392343Y-97310838D01*
X147392346Y-97310839D01*
X147607140Y-97442466D01*
X147839889Y-97538873D01*
X148084852Y-97597683D01*
X148336000Y-97617449D01*
X148587148Y-97597683D01*
X148832111Y-97538873D01*
X149064859Y-97442466D01*
X149279659Y-97310836D01*
X149471224Y-97147224D01*
X149634836Y-96955659D01*
X149766466Y-96740859D01*
X149862873Y-96508111D01*
X149921683Y-96263148D01*
X149941449Y-96012000D01*
X149921683Y-95760852D01*
X149862873Y-95515889D01*
X149766466Y-95283141D01*
X149766466Y-95283140D01*
X149634839Y-95068346D01*
X149634838Y-95068343D01*
X149597875Y-95025066D01*
X149471224Y-94876776D01*
X149344571Y-94768604D01*
X149279656Y-94713161D01*
X149279653Y-94713160D01*
X149064859Y-94581533D01*
X148832110Y-94485126D01*
X148587151Y-94426317D01*
X148336000Y-94406551D01*
X148084848Y-94426317D01*
X147839889Y-94485126D01*
X147607140Y-94581533D01*
X147392346Y-94713160D01*
X147392343Y-94713161D01*
X147200776Y-94876776D01*
X147037161Y-95068343D01*
X147037160Y-95068346D01*
X146905533Y-95283140D01*
X146809126Y-95515889D01*
X146750317Y-95760848D01*
X146730551Y-96012000D01*
X130441449Y-96012000D01*
X130421683Y-95760852D01*
X130362873Y-95515889D01*
X130266466Y-95283141D01*
X130266466Y-95283140D01*
X130134839Y-95068346D01*
X130134838Y-95068343D01*
X130097875Y-95025066D01*
X129971224Y-94876776D01*
X129844571Y-94768604D01*
X129779656Y-94713161D01*
X129779653Y-94713160D01*
X129564859Y-94581533D01*
X129332110Y-94485126D01*
X129087151Y-94426317D01*
X128836000Y-94406551D01*
X128584848Y-94426317D01*
X128339889Y-94485126D01*
X128107140Y-94581533D01*
X127892346Y-94713160D01*
X127892343Y-94713161D01*
X127700776Y-94876776D01*
X127537161Y-95068343D01*
X127537160Y-95068346D01*
X127405533Y-95283140D01*
X127309126Y-95515889D01*
X127250317Y-95760848D01*
X127230551Y-96012000D01*
X118480078Y-96012000D01*
X118485816Y-96006262D01*
X118581789Y-95853522D01*
X118641368Y-95683255D01*
X118651162Y-95596330D01*
X118661565Y-95504003D01*
X118661565Y-95503996D01*
X118641369Y-95324750D01*
X118641368Y-95324745D01*
X118581788Y-95154476D01*
X118485815Y-95001737D01*
X118358262Y-94874184D01*
X118205521Y-94778210D01*
X118035249Y-94718630D01*
X117948330Y-94708837D01*
X117883916Y-94681770D01*
X117874533Y-94673298D01*
X117476819Y-94275584D01*
X117443334Y-94214261D01*
X117440500Y-94187903D01*
X117440500Y-90285464D01*
X117460185Y-90218425D01*
X117512989Y-90172670D01*
X117582147Y-90162726D01*
X117605455Y-90168423D01*
X117676737Y-90193366D01*
X117676743Y-90193367D01*
X117676745Y-90193368D01*
X117676746Y-90193368D01*
X117676750Y-90193369D01*
X117855996Y-90213565D01*
X117856000Y-90213565D01*
X117856004Y-90213565D01*
X118035249Y-90193369D01*
X118035252Y-90193368D01*
X118035255Y-90193368D01*
X118205522Y-90133789D01*
X118358262Y-90037816D01*
X118424905Y-89971172D01*
X118486224Y-89937690D01*
X118555916Y-89942674D01*
X118611849Y-89984544D01*
X118651728Y-90037815D01*
X118669757Y-90061899D01*
X118690455Y-90089547D01*
X118805664Y-90175793D01*
X118805671Y-90175797D01*
X118940517Y-90226091D01*
X118940516Y-90226091D01*
X118947444Y-90226835D01*
X119000127Y-90232500D01*
X120595872Y-90232499D01*
X120655483Y-90226091D01*
X120790331Y-90175796D01*
X120905546Y-90089546D01*
X120911052Y-90082191D01*
X120966985Y-90040319D01*
X121010320Y-90032500D01*
X121431770Y-90032500D01*
X121498809Y-90052185D01*
X121519451Y-90068819D01*
X121674692Y-90224060D01*
X121697356Y-90260123D01*
X121699186Y-90259242D01*
X121702208Y-90265516D01*
X121702210Y-90265519D01*
X121702211Y-90265522D01*
X121798184Y-90418262D01*
X121925738Y-90545816D01*
X122078478Y-90641789D01*
X122248745Y-90701368D01*
X122248750Y-90701369D01*
X122427996Y-90721565D01*
X122428000Y-90721565D01*
X122428004Y-90721565D01*
X122607249Y-90701369D01*
X122607252Y-90701368D01*
X122607255Y-90701368D01*
X122777522Y-90641789D01*
X122930262Y-90545816D01*
X123057816Y-90418262D01*
X123153789Y-90265522D01*
X123153792Y-90265510D01*
X123156810Y-90259248D01*
X123158650Y-90260134D01*
X123181305Y-90224061D01*
X124492548Y-88912819D01*
X124553871Y-88879334D01*
X124580229Y-88876500D01*
X132409500Y-88876500D01*
X132476539Y-88896185D01*
X132522294Y-88948989D01*
X132533500Y-89000500D01*
X132533500Y-89757901D01*
X132513815Y-89824940D01*
X132497181Y-89845582D01*
X131123584Y-91219181D01*
X131062261Y-91252666D01*
X131035903Y-91255500D01*
X120610669Y-91255500D01*
X120610653Y-91255499D01*
X120603057Y-91255499D01*
X120444943Y-91255499D01*
X120337587Y-91284265D01*
X120292210Y-91296424D01*
X120292209Y-91296425D01*
X120242096Y-91325359D01*
X120242095Y-91325360D01*
X120198689Y-91350420D01*
X120155285Y-91375479D01*
X120155282Y-91375481D01*
X120043480Y-91487284D01*
X120043478Y-91487286D01*
X119935582Y-91595182D01*
X119874259Y-91628666D01*
X119847901Y-91631500D01*
X119000129Y-91631500D01*
X119000123Y-91631501D01*
X118940516Y-91637908D01*
X118805671Y-91688202D01*
X118805664Y-91688206D01*
X118690455Y-91774452D01*
X118690452Y-91774455D01*
X118604206Y-91889664D01*
X118604202Y-91889671D01*
X118553908Y-92024517D01*
X118547501Y-92084116D01*
X118547500Y-92084135D01*
X118547500Y-93079870D01*
X118547501Y-93079876D01*
X118553908Y-93139483D01*
X118604202Y-93274328D01*
X118604206Y-93274335D01*
X118690452Y-93389544D01*
X118690455Y-93389547D01*
X118805664Y-93475793D01*
X118805671Y-93475797D01*
X118940517Y-93526091D01*
X118940516Y-93526091D01*
X118947444Y-93526835D01*
X119000127Y-93532500D01*
X120595872Y-93532499D01*
X120655483Y-93526091D01*
X120790331Y-93475796D01*
X120905546Y-93389546D01*
X120991796Y-93274331D01*
X121017340Y-93205844D01*
X132534000Y-93205844D01*
X132540401Y-93265372D01*
X132540403Y-93265379D01*
X132590645Y-93400086D01*
X132590649Y-93400093D01*
X132676809Y-93515187D01*
X132676812Y-93515190D01*
X132791906Y-93601350D01*
X132791913Y-93601354D01*
X132926620Y-93651596D01*
X132926627Y-93651598D01*
X132986155Y-93657999D01*
X132986172Y-93658000D01*
X133534000Y-93658000D01*
X134034000Y-93658000D01*
X134581828Y-93658000D01*
X134581844Y-93657999D01*
X134641372Y-93651598D01*
X134641379Y-93651596D01*
X134776086Y-93601354D01*
X134776093Y-93601350D01*
X134891187Y-93515190D01*
X134891190Y-93515187D01*
X134977350Y-93400093D01*
X134977354Y-93400086D01*
X135027596Y-93265379D01*
X135027598Y-93265372D01*
X135033999Y-93205844D01*
X135034000Y-93205827D01*
X135034000Y-92958000D01*
X134034000Y-92958000D01*
X134034000Y-93658000D01*
X133534000Y-93658000D01*
X133534000Y-92958000D01*
X132534000Y-92958000D01*
X132534000Y-93205844D01*
X121017340Y-93205844D01*
X121042091Y-93139483D01*
X121048500Y-93079873D01*
X121048499Y-92580499D01*
X121068183Y-92513461D01*
X121120987Y-92467706D01*
X121172499Y-92456500D01*
X131249331Y-92456500D01*
X131249347Y-92456501D01*
X131256943Y-92456501D01*
X131415054Y-92456501D01*
X131415057Y-92456501D01*
X131567785Y-92415577D01*
X131617904Y-92386639D01*
X131704716Y-92336520D01*
X131816520Y-92224716D01*
X131816520Y-92224714D01*
X131826728Y-92214507D01*
X131826729Y-92214504D01*
X131831078Y-92210155D01*
X132534000Y-92210155D01*
X132534000Y-92458000D01*
X133534000Y-92458000D01*
X134034000Y-92458000D01*
X135034000Y-92458000D01*
X135034000Y-92210172D01*
X135033999Y-92210155D01*
X135033997Y-92210135D01*
X137433500Y-92210135D01*
X137433500Y-93205870D01*
X137433501Y-93205876D01*
X137439908Y-93265483D01*
X137490202Y-93400328D01*
X137490206Y-93400335D01*
X137576452Y-93515544D01*
X137576455Y-93515547D01*
X137691664Y-93601793D01*
X137691671Y-93601797D01*
X137826517Y-93652091D01*
X137826516Y-93652091D01*
X137833444Y-93652835D01*
X137886127Y-93658500D01*
X139481872Y-93658499D01*
X139541483Y-93652091D01*
X139676331Y-93601796D01*
X139791546Y-93515546D01*
X139877796Y-93400331D01*
X139928091Y-93265483D01*
X139934500Y-93205873D01*
X139934499Y-92210128D01*
X139928091Y-92150517D01*
X139877884Y-92015906D01*
X139877797Y-92015671D01*
X139877793Y-92015664D01*
X139791547Y-91900455D01*
X139791544Y-91900452D01*
X139676335Y-91814206D01*
X139676328Y-91814202D01*
X139541482Y-91763908D01*
X139541483Y-91763908D01*
X139481883Y-91757501D01*
X139481881Y-91757500D01*
X139481873Y-91757500D01*
X139481864Y-91757500D01*
X137886129Y-91757500D01*
X137886123Y-91757501D01*
X137826516Y-91763908D01*
X137691671Y-91814202D01*
X137691664Y-91814206D01*
X137576455Y-91900452D01*
X137576452Y-91900455D01*
X137490206Y-92015664D01*
X137490202Y-92015671D01*
X137439908Y-92150517D01*
X137433501Y-92210116D01*
X137433501Y-92210123D01*
X137433500Y-92210135D01*
X135033997Y-92210135D01*
X135027598Y-92150627D01*
X135027596Y-92150620D01*
X134977354Y-92015913D01*
X134977350Y-92015906D01*
X134891190Y-91900812D01*
X134891187Y-91900809D01*
X134776093Y-91814649D01*
X134776086Y-91814645D01*
X134641379Y-91764403D01*
X134641372Y-91764401D01*
X134581844Y-91758000D01*
X134034000Y-91758000D01*
X134034000Y-92458000D01*
X133534000Y-92458000D01*
X133534000Y-91758000D01*
X132986155Y-91758000D01*
X132926627Y-91764401D01*
X132926620Y-91764403D01*
X132791913Y-91814645D01*
X132791906Y-91814649D01*
X132676812Y-91900809D01*
X132676809Y-91900812D01*
X132590649Y-92015906D01*
X132590645Y-92015913D01*
X132540403Y-92150620D01*
X132540401Y-92150627D01*
X132534000Y-92210155D01*
X131831078Y-92210155D01*
X133646417Y-90394818D01*
X133707740Y-90361333D01*
X133734098Y-90358499D01*
X134581871Y-90358499D01*
X134581872Y-90358499D01*
X134641483Y-90352091D01*
X134776331Y-90301796D01*
X134891546Y-90215546D01*
X134977796Y-90100331D01*
X135028091Y-89965483D01*
X135034500Y-89905873D01*
X135034499Y-89000499D01*
X135054183Y-88933461D01*
X135106987Y-88887706D01*
X135158499Y-88876500D01*
X137039770Y-88876500D01*
X137106809Y-88896185D01*
X137127451Y-88912819D01*
X137397181Y-89182549D01*
X137430666Y-89243872D01*
X137433500Y-89270230D01*
X137433500Y-89905870D01*
X137433501Y-89905876D01*
X137439908Y-89965483D01*
X137490202Y-90100328D01*
X137490206Y-90100335D01*
X137576452Y-90215544D01*
X137576455Y-90215547D01*
X137691664Y-90301793D01*
X137691671Y-90301797D01*
X137826517Y-90352091D01*
X137826516Y-90352091D01*
X137833444Y-90352835D01*
X137886127Y-90358500D01*
X139481872Y-90358499D01*
X139541483Y-90352091D01*
X139676331Y-90301796D01*
X139791546Y-90215546D01*
X139797052Y-90208191D01*
X139852985Y-90166319D01*
X139896320Y-90158500D01*
X140924028Y-90158500D01*
X140964982Y-90165457D01*
X140973456Y-90168423D01*
X141044745Y-90193368D01*
X141044750Y-90193369D01*
X141223996Y-90213565D01*
X141224000Y-90213565D01*
X141224004Y-90213565D01*
X141403249Y-90193369D01*
X141403252Y-90193368D01*
X141403255Y-90193368D01*
X141573522Y-90133789D01*
X141726262Y-90037816D01*
X141853816Y-89910262D01*
X141949789Y-89757522D01*
X142009368Y-89587255D01*
X142029565Y-89408000D01*
X142014042Y-89270230D01*
X142009369Y-89228750D01*
X142009368Y-89228745D01*
X141949788Y-89058476D01*
X141880992Y-88948989D01*
X141853816Y-88905738D01*
X141726262Y-88778184D01*
X141639499Y-88723667D01*
X141573523Y-88682211D01*
X141403254Y-88622631D01*
X141403249Y-88622630D01*
X141224004Y-88602435D01*
X141223996Y-88602435D01*
X141044750Y-88622630D01*
X141044745Y-88622631D01*
X140964983Y-88650542D01*
X140924028Y-88657500D01*
X139896320Y-88657500D01*
X139829281Y-88637815D01*
X139797052Y-88607809D01*
X139791548Y-88600457D01*
X139791546Y-88600454D01*
X139777139Y-88589669D01*
X139676335Y-88514206D01*
X139676328Y-88514202D01*
X139541482Y-88463908D01*
X139533938Y-88462126D01*
X139534474Y-88459853D01*
X139480688Y-88437571D01*
X139440843Y-88380177D01*
X139434500Y-88341024D01*
X139434500Y-81952144D01*
X139454185Y-81885105D01*
X139506989Y-81839350D01*
X139576147Y-81829406D01*
X139639703Y-81858431D01*
X139676430Y-81913824D01*
X139696127Y-81974445D01*
X139774768Y-82128788D01*
X139876586Y-82268928D01*
X139999072Y-82391414D01*
X140139212Y-82493232D01*
X140293555Y-82571873D01*
X140458299Y-82625402D01*
X140629389Y-82652500D01*
X140629390Y-82652500D01*
X140802610Y-82652500D01*
X140802611Y-82652500D01*
X140973701Y-82625402D01*
X141138445Y-82571873D01*
X141292788Y-82493232D01*
X141432928Y-82391414D01*
X141555414Y-82268928D01*
X141657232Y-82128788D01*
X141735873Y-81974445D01*
X141789402Y-81809701D01*
X141816500Y-81638611D01*
X141816500Y-81465389D01*
X141806854Y-81404486D01*
X143545500Y-81404486D01*
X143545500Y-81699513D01*
X143566423Y-81858431D01*
X143584007Y-81991993D01*
X143658212Y-82268930D01*
X143660361Y-82276951D01*
X143660364Y-82276961D01*
X143773254Y-82549500D01*
X143773258Y-82549510D01*
X143920761Y-82804993D01*
X144100352Y-83039040D01*
X144100358Y-83039047D01*
X144308952Y-83247641D01*
X144308959Y-83247647D01*
X144543006Y-83427238D01*
X144798489Y-83574741D01*
X144798490Y-83574741D01*
X144798493Y-83574743D01*
X145071048Y-83687639D01*
X145356007Y-83763993D01*
X145648494Y-83802500D01*
X145648501Y-83802500D01*
X145943499Y-83802500D01*
X145943506Y-83802500D01*
X146235993Y-83763993D01*
X146520952Y-83687639D01*
X146793507Y-83574743D01*
X147048994Y-83427238D01*
X147283042Y-83247646D01*
X147491646Y-83039042D01*
X147671238Y-82804994D01*
X147818743Y-82549507D01*
X147931639Y-82276952D01*
X148007993Y-81991993D01*
X148046500Y-81699506D01*
X148046500Y-81465389D01*
X149775500Y-81465389D01*
X149775500Y-81638611D01*
X149802598Y-81809701D01*
X149856127Y-81974445D01*
X149934768Y-82128788D01*
X150036586Y-82268928D01*
X150159072Y-82391414D01*
X150299212Y-82493232D01*
X150453555Y-82571873D01*
X150618299Y-82625402D01*
X150789389Y-82652500D01*
X150789390Y-82652500D01*
X150962610Y-82652500D01*
X150962611Y-82652500D01*
X151133701Y-82625402D01*
X151298445Y-82571873D01*
X151452788Y-82493232D01*
X151592928Y-82391414D01*
X151715414Y-82268928D01*
X151817232Y-82128788D01*
X151895873Y-81974445D01*
X151949402Y-81809701D01*
X151976500Y-81638611D01*
X151976500Y-81465389D01*
X151949402Y-81294299D01*
X151895873Y-81129555D01*
X151817232Y-80975212D01*
X151715414Y-80835072D01*
X151592928Y-80712586D01*
X151452788Y-80610768D01*
X151298445Y-80532127D01*
X151133701Y-80478598D01*
X151133699Y-80478597D01*
X151133698Y-80478597D01*
X151002271Y-80457781D01*
X150962611Y-80451500D01*
X150789389Y-80451500D01*
X150749728Y-80457781D01*
X150618302Y-80478597D01*
X150453552Y-80532128D01*
X150299211Y-80610768D01*
X150244157Y-80650768D01*
X150159072Y-80712586D01*
X150159070Y-80712588D01*
X150159069Y-80712588D01*
X150036588Y-80835069D01*
X150036588Y-80835070D01*
X150036586Y-80835072D01*
X150007526Y-80875070D01*
X149934768Y-80975211D01*
X149856128Y-81129552D01*
X149802597Y-81294302D01*
X149796262Y-81334302D01*
X149775500Y-81465389D01*
X148046500Y-81465389D01*
X148046500Y-81404494D01*
X148007993Y-81112007D01*
X147931639Y-80827048D01*
X147927431Y-80816890D01*
X147858621Y-80650768D01*
X147818743Y-80554493D01*
X147777158Y-80482466D01*
X147671238Y-80299006D01*
X147491647Y-80064959D01*
X147491641Y-80064952D01*
X147283047Y-79856358D01*
X147283040Y-79856352D01*
X147048993Y-79676761D01*
X146793510Y-79529258D01*
X146793500Y-79529254D01*
X146520961Y-79416364D01*
X146520954Y-79416362D01*
X146520952Y-79416361D01*
X146235993Y-79340007D01*
X146187113Y-79333571D01*
X145943513Y-79301500D01*
X145943506Y-79301500D01*
X145648494Y-79301500D01*
X145648486Y-79301500D01*
X145370085Y-79338153D01*
X145356007Y-79340007D01*
X145071048Y-79416361D01*
X145071038Y-79416364D01*
X144798499Y-79529254D01*
X144798489Y-79529258D01*
X144543006Y-79676761D01*
X144308959Y-79856352D01*
X144308952Y-79856358D01*
X144100358Y-80064952D01*
X144100352Y-80064959D01*
X143920761Y-80299006D01*
X143773258Y-80554489D01*
X143773254Y-80554499D01*
X143660364Y-80827038D01*
X143660361Y-80827048D01*
X143584008Y-81112004D01*
X143584006Y-81112015D01*
X143545500Y-81404486D01*
X141806854Y-81404486D01*
X141789402Y-81294299D01*
X141735873Y-81129555D01*
X141657232Y-80975212D01*
X141555414Y-80835072D01*
X141497232Y-80776890D01*
X141463747Y-80715567D01*
X141468731Y-80645875D01*
X141510603Y-80589942D01*
X141576067Y-80565525D01*
X141613856Y-80568634D01*
X141734852Y-80597683D01*
X141986000Y-80617449D01*
X142237148Y-80597683D01*
X142482111Y-80538873D01*
X142714859Y-80442466D01*
X142929659Y-80310836D01*
X143121224Y-80147224D01*
X143284836Y-79955659D01*
X143416466Y-79740859D01*
X143512873Y-79508111D01*
X143571683Y-79263148D01*
X143591449Y-79012000D01*
X143571683Y-78760852D01*
X143512873Y-78515889D01*
X143511469Y-78512499D01*
X143416466Y-78283140D01*
X143284839Y-78068346D01*
X143284838Y-78068343D01*
X143235999Y-78011160D01*
X143121224Y-77876776D01*
X142976493Y-77753164D01*
X142929656Y-77713161D01*
X142929653Y-77713160D01*
X142714859Y-77581533D01*
X142482110Y-77485126D01*
X142237151Y-77426317D01*
X141986000Y-77406551D01*
X141734848Y-77426317D01*
X141489889Y-77485126D01*
X141257140Y-77581533D01*
X141042346Y-77713160D01*
X141042343Y-77713161D01*
X140850776Y-77876776D01*
X140687161Y-78068343D01*
X140687160Y-78068346D01*
X140555533Y-78283140D01*
X140459126Y-78515889D01*
X140400317Y-78760848D01*
X140380551Y-79012000D01*
X140400317Y-79263151D01*
X140459126Y-79508110D01*
X140555533Y-79740859D01*
X140687160Y-79955653D01*
X140687161Y-79955656D01*
X140687164Y-79955659D01*
X140850776Y-80147224D01*
X140964783Y-80244595D01*
X141002976Y-80303102D01*
X141003474Y-80372970D01*
X140966121Y-80432016D01*
X140902774Y-80461494D01*
X140864854Y-80461358D01*
X140802611Y-80451500D01*
X140629389Y-80451500D01*
X140589728Y-80457781D01*
X140458302Y-80478597D01*
X140293552Y-80532128D01*
X140139211Y-80610768D01*
X140084157Y-80650768D01*
X139999072Y-80712586D01*
X139999070Y-80712588D01*
X139999069Y-80712588D01*
X139876588Y-80835069D01*
X139876588Y-80835070D01*
X139876586Y-80835072D01*
X139847526Y-80875070D01*
X139774768Y-80975211D01*
X139696129Y-81129550D01*
X139696128Y-81129552D01*
X139696127Y-81129555D01*
X139683131Y-81169555D01*
X139676431Y-81190174D01*
X139636993Y-81247849D01*
X139572634Y-81275047D01*
X139503788Y-81263132D01*
X139452312Y-81215888D01*
X139434500Y-81151855D01*
X139434500Y-77578229D01*
X139454185Y-77511190D01*
X139470814Y-77490553D01*
X141024061Y-75937305D01*
X141060134Y-75914655D01*
X141059246Y-75912811D01*
X141065518Y-75909790D01*
X141065522Y-75909789D01*
X141218262Y-75813816D01*
X141345816Y-75686262D01*
X141441789Y-75533522D01*
X141501368Y-75363255D01*
X141501369Y-75363249D01*
X141521565Y-75184003D01*
X141521565Y-75183996D01*
X141501369Y-75004750D01*
X141501367Y-75004742D01*
X141476423Y-74933454D01*
X141472862Y-74863675D01*
X141507591Y-74803048D01*
X141569585Y-74770821D01*
X141593465Y-74768500D01*
X147642913Y-74768500D01*
X147709952Y-74788185D01*
X147755707Y-74840989D01*
X147765651Y-74910147D01*
X147736626Y-74973703D01*
X147690365Y-75007061D01*
X147607144Y-75041531D01*
X147607141Y-75041533D01*
X147392346Y-75173160D01*
X147392343Y-75173161D01*
X147200776Y-75336776D01*
X147037161Y-75528343D01*
X147037160Y-75528346D01*
X146905533Y-75743140D01*
X146809126Y-75975889D01*
X146750317Y-76220848D01*
X146730551Y-76472000D01*
X146750317Y-76723151D01*
X146809126Y-76968110D01*
X146905533Y-77200859D01*
X147037160Y-77415653D01*
X147037161Y-77415656D01*
X147080430Y-77466317D01*
X147200776Y-77607224D01*
X147324811Y-77713160D01*
X147392343Y-77770838D01*
X147392346Y-77770839D01*
X147607140Y-77902466D01*
X147780195Y-77974147D01*
X147839889Y-77998873D01*
X148084852Y-78057683D01*
X148336000Y-78077449D01*
X148587148Y-78057683D01*
X148832111Y-77998873D01*
X149064859Y-77902466D01*
X149279659Y-77770836D01*
X149471224Y-77607224D01*
X149634836Y-77415659D01*
X149766466Y-77200859D01*
X149862873Y-76968111D01*
X149921683Y-76723148D01*
X149941449Y-76472000D01*
X149921683Y-76220852D01*
X149862873Y-75975889D01*
X149840813Y-75922631D01*
X149766466Y-75743140D01*
X149647288Y-75548661D01*
X149634838Y-75528345D01*
X149634838Y-75528343D01*
X149597875Y-75485066D01*
X149471224Y-75336776D01*
X149326493Y-75213164D01*
X149279656Y-75173161D01*
X149279653Y-75173160D01*
X149064858Y-75041533D01*
X149064855Y-75041531D01*
X148981635Y-75007061D01*
X148927231Y-74963220D01*
X148905166Y-74896926D01*
X148922445Y-74829227D01*
X148973582Y-74781616D01*
X149029087Y-74768500D01*
X153528293Y-74768500D01*
X153595332Y-74788185D01*
X153641087Y-74840989D01*
X153645335Y-74851546D01*
X153646631Y-74855249D01*
X153646632Y-74855255D01*
X153665840Y-74910147D01*
X153706210Y-75025521D01*
X153798978Y-75173160D01*
X153802184Y-75178262D01*
X153929738Y-75305816D01*
X154082478Y-75401789D01*
X154252745Y-75461368D01*
X154252750Y-75461369D01*
X154431996Y-75481565D01*
X154432000Y-75481565D01*
X154432004Y-75481565D01*
X154611249Y-75461369D01*
X154611252Y-75461368D01*
X154611255Y-75461368D01*
X154781522Y-75401789D01*
X154934262Y-75305816D01*
X155061816Y-75178262D01*
X155157789Y-75025522D01*
X155217368Y-74855255D01*
X155217786Y-74851546D01*
X155237565Y-74676003D01*
X155237565Y-74675996D01*
X155217369Y-74496750D01*
X155217368Y-74496745D01*
X155157788Y-74326476D01*
X155061815Y-74173737D01*
X154934262Y-74046184D01*
X154781521Y-73950210D01*
X154611249Y-73890630D01*
X154524330Y-73880837D01*
X154459916Y-73853770D01*
X154450533Y-73845298D01*
X154411590Y-73806355D01*
X154411588Y-73806352D01*
X154292717Y-73687481D01*
X154292716Y-73687480D01*
X154197520Y-73632519D01*
X154155785Y-73608423D01*
X154003057Y-73567499D01*
X153844943Y-73567499D01*
X153837347Y-73567499D01*
X153837331Y-73567500D01*
X138037464Y-73567500D01*
X137970425Y-73547815D01*
X137924670Y-73495011D01*
X137914726Y-73425853D01*
X137920423Y-73402545D01*
X137945367Y-73331258D01*
X137945367Y-73331257D01*
X137945368Y-73331255D01*
X137955161Y-73244329D01*
X137982226Y-73179918D01*
X137990690Y-73170543D01*
X138026506Y-73134728D01*
X138026511Y-73134724D01*
X138036714Y-73124520D01*
X138036716Y-73124520D01*
X138148520Y-73012716D01*
X138227577Y-72875784D01*
X138268500Y-72723057D01*
X138268500Y-72702499D01*
X138288185Y-72635460D01*
X138340989Y-72589705D01*
X138392500Y-72578499D01*
X138465871Y-72578499D01*
X138465872Y-72578499D01*
X138525483Y-72572091D01*
X138660331Y-72521796D01*
X138775546Y-72435546D01*
X138861796Y-72320331D01*
X138912091Y-72185483D01*
X138918500Y-72125873D01*
X138918499Y-71130128D01*
X138912091Y-71070517D01*
X138868147Y-70952698D01*
X138861797Y-70935671D01*
X138861796Y-70935669D01*
X138851177Y-70921484D01*
X138826760Y-70856020D01*
X138841611Y-70787747D01*
X138891016Y-70738341D01*
X138959289Y-70723489D01*
X139024754Y-70747905D01*
X139038125Y-70759492D01*
X139207707Y-70929074D01*
X139207717Y-70929085D01*
X139212047Y-70933415D01*
X139212048Y-70933416D01*
X139372237Y-71093605D01*
X139405721Y-71154927D01*
X139407775Y-71167401D01*
X139422630Y-71299249D01*
X139482210Y-71469521D01*
X139545291Y-71569913D01*
X139578184Y-71622262D01*
X139705738Y-71749816D01*
X139796080Y-71806582D01*
X139856426Y-71844500D01*
X139858478Y-71845789D01*
X140028745Y-71905368D01*
X140028750Y-71905369D01*
X140207996Y-71925565D01*
X140208000Y-71925565D01*
X140208004Y-71925565D01*
X140387249Y-71905369D01*
X140387252Y-71905368D01*
X140387255Y-71905368D01*
X140557522Y-71845789D01*
X140710262Y-71749816D01*
X140837816Y-71622262D01*
X140933789Y-71469522D01*
X140993368Y-71299255D01*
X140998350Y-71255039D01*
X141013565Y-71120003D01*
X141013565Y-71119996D01*
X140993368Y-70940747D01*
X140993368Y-70940745D01*
X140965458Y-70860982D01*
X140958500Y-70820028D01*
X140958500Y-70794079D01*
X140929659Y-70649092D01*
X140929658Y-70649091D01*
X140929658Y-70649087D01*
X140916672Y-70617735D01*
X140873087Y-70512511D01*
X140873080Y-70512498D01*
X140790952Y-70389585D01*
X140782735Y-70381368D01*
X140686416Y-70285049D01*
X140593399Y-70192032D01*
X140269097Y-69867728D01*
X140269074Y-69867707D01*
X140025367Y-69624000D01*
X143250592Y-69624000D01*
X143270201Y-69910680D01*
X143270201Y-69910684D01*
X143270202Y-69910686D01*
X143277441Y-69945521D01*
X143328666Y-70192034D01*
X143328667Y-70192037D01*
X143424894Y-70462793D01*
X143424893Y-70462793D01*
X143557098Y-70717935D01*
X143722812Y-70952700D01*
X143807923Y-71043831D01*
X143918947Y-71162708D01*
X144141853Y-71344055D01*
X144348175Y-71469523D01*
X144387382Y-71493365D01*
X144563600Y-71569906D01*
X144650942Y-71607844D01*
X144927642Y-71685371D01*
X145177920Y-71719771D01*
X145212321Y-71724500D01*
X145212322Y-71724500D01*
X145499679Y-71724500D01*
X145530370Y-71720281D01*
X145784358Y-71685371D01*
X146061058Y-71607844D01*
X146174015Y-71558779D01*
X146324617Y-71493365D01*
X146324620Y-71493363D01*
X146324625Y-71493361D01*
X146570147Y-71344055D01*
X146793053Y-71162708D01*
X146989189Y-70952698D01*
X147154901Y-70717936D01*
X147287104Y-70462797D01*
X147383334Y-70192032D01*
X147441798Y-69910686D01*
X147461408Y-69624000D01*
X147441798Y-69337314D01*
X147383334Y-69055968D01*
X147287105Y-68785206D01*
X147287106Y-68785206D01*
X147154901Y-68530064D01*
X146989187Y-68295299D01*
X146864515Y-68161809D01*
X146793053Y-68085292D01*
X146570147Y-67903945D01*
X146570146Y-67903944D01*
X146324617Y-67754634D01*
X146061063Y-67640158D01*
X146061061Y-67640157D01*
X146061058Y-67640156D01*
X145931578Y-67603877D01*
X145784364Y-67562630D01*
X145784359Y-67562629D01*
X145784358Y-67562629D01*
X145642018Y-67543064D01*
X145499679Y-67523500D01*
X145499678Y-67523500D01*
X145212322Y-67523500D01*
X145212321Y-67523500D01*
X144927642Y-67562629D01*
X144927635Y-67562630D01*
X144719861Y-67620845D01*
X144650942Y-67640156D01*
X144650939Y-67640156D01*
X144650936Y-67640158D01*
X144650935Y-67640158D01*
X144387382Y-67754634D01*
X144141853Y-67903944D01*
X143918950Y-68085289D01*
X143722812Y-68295299D01*
X143557098Y-68530064D01*
X143424894Y-68785206D01*
X143328667Y-69055962D01*
X143328666Y-69055965D01*
X143270201Y-69337319D01*
X143250592Y-69624000D01*
X140025367Y-69624000D01*
X139034353Y-68632986D01*
X139000868Y-68571663D01*
X139005852Y-68501971D01*
X139034350Y-68457626D01*
X139173257Y-68318721D01*
X139173257Y-68318720D01*
X140967983Y-66523994D01*
X150850357Y-66523994D01*
X150850357Y-66524005D01*
X150870890Y-66771812D01*
X150870892Y-66771822D01*
X150931936Y-67012881D01*
X151031826Y-67240606D01*
X151167833Y-67448782D01*
X151167836Y-67448785D01*
X151336256Y-67631738D01*
X151532491Y-67784474D01*
X151751190Y-67902828D01*
X151986386Y-67983571D01*
X152231665Y-68024500D01*
X152480335Y-68024500D01*
X152725614Y-67983571D01*
X152960810Y-67902828D01*
X153179509Y-67784474D01*
X153375744Y-67631738D01*
X153544164Y-67448785D01*
X153680173Y-67240607D01*
X153780063Y-67012881D01*
X153780064Y-67012878D01*
X153841108Y-66771822D01*
X153841109Y-66771812D01*
X153861643Y-66524005D01*
X153861643Y-66523994D01*
X153841109Y-66276187D01*
X153841107Y-66276175D01*
X153780063Y-66035118D01*
X153680173Y-65807393D01*
X153544166Y-65599217D01*
X153482143Y-65531842D01*
X153375744Y-65416262D01*
X153179509Y-65263526D01*
X153179507Y-65263525D01*
X153179506Y-65263524D01*
X152960811Y-65145172D01*
X152960802Y-65145169D01*
X152725616Y-65064429D01*
X152480335Y-65023500D01*
X152231665Y-65023500D01*
X151986383Y-65064429D01*
X151751197Y-65145169D01*
X151751188Y-65145172D01*
X151532493Y-65263524D01*
X151336257Y-65416261D01*
X151167833Y-65599217D01*
X151031826Y-65807393D01*
X150931936Y-66035118D01*
X150870892Y-66276175D01*
X150870890Y-66276187D01*
X150850357Y-66523994D01*
X140967983Y-66523994D01*
X142314952Y-65177025D01*
X142379645Y-65080204D01*
X142397084Y-65054105D01*
X142421808Y-64994416D01*
X142453659Y-64917522D01*
X142482500Y-64772527D01*
X142482500Y-64624692D01*
X142482500Y-63926082D01*
X142482500Y-61523994D01*
X150850357Y-61523994D01*
X150850357Y-61524005D01*
X150870890Y-61771812D01*
X150870892Y-61771824D01*
X150931936Y-62012881D01*
X151031826Y-62240606D01*
X151167833Y-62448782D01*
X151167836Y-62448785D01*
X151336256Y-62631738D01*
X151532491Y-62784474D01*
X151751190Y-62902828D01*
X151986386Y-62983571D01*
X152231665Y-63024500D01*
X152480335Y-63024500D01*
X152725614Y-62983571D01*
X152960810Y-62902828D01*
X153179509Y-62784474D01*
X153375744Y-62631738D01*
X153544164Y-62448785D01*
X153680173Y-62240607D01*
X153780063Y-62012881D01*
X153841108Y-61771821D01*
X153845939Y-61713519D01*
X153861643Y-61524005D01*
X153861643Y-61523994D01*
X153841109Y-61276187D01*
X153841107Y-61276175D01*
X153780063Y-61035118D01*
X153680173Y-60807393D01*
X153544166Y-60599217D01*
X153475384Y-60524500D01*
X153375744Y-60416262D01*
X153179509Y-60263526D01*
X153179507Y-60263525D01*
X153179506Y-60263524D01*
X152960811Y-60145172D01*
X152960802Y-60145169D01*
X152725616Y-60064429D01*
X152480335Y-60023500D01*
X152231665Y-60023500D01*
X151986383Y-60064429D01*
X151751197Y-60145169D01*
X151751188Y-60145172D01*
X151532493Y-60263524D01*
X151336257Y-60416261D01*
X151167833Y-60599217D01*
X151031826Y-60807393D01*
X150931936Y-61035118D01*
X150870892Y-61276175D01*
X150870890Y-61276187D01*
X150850357Y-61523994D01*
X142482500Y-61523994D01*
X142482500Y-58424000D01*
X143250592Y-58424000D01*
X143270201Y-58710680D01*
X143270201Y-58710684D01*
X143270202Y-58710686D01*
X143279466Y-58755265D01*
X143328666Y-58992034D01*
X143328667Y-58992037D01*
X143424894Y-59262793D01*
X143424893Y-59262793D01*
X143557098Y-59517935D01*
X143722812Y-59752700D01*
X143807923Y-59843831D01*
X143918947Y-59962708D01*
X144141853Y-60144055D01*
X144368148Y-60281669D01*
X144387382Y-60293365D01*
X144570592Y-60372943D01*
X144650942Y-60407844D01*
X144927642Y-60485371D01*
X145177920Y-60519771D01*
X145212321Y-60524500D01*
X145212322Y-60524500D01*
X145499679Y-60524500D01*
X145530370Y-60520281D01*
X145784358Y-60485371D01*
X146061058Y-60407844D01*
X146174015Y-60358779D01*
X146324617Y-60293365D01*
X146324620Y-60293363D01*
X146324625Y-60293361D01*
X146570147Y-60144055D01*
X146793053Y-59962708D01*
X146989189Y-59752698D01*
X147154901Y-59517936D01*
X147287104Y-59262797D01*
X147383334Y-58992032D01*
X147441798Y-58710686D01*
X147461408Y-58424000D01*
X147441798Y-58137314D01*
X147383334Y-57855968D01*
X147325845Y-57694211D01*
X147287105Y-57585206D01*
X147287106Y-57585206D01*
X147154901Y-57330064D01*
X146989187Y-57095299D01*
X146889443Y-56988500D01*
X146793053Y-56885292D01*
X146570147Y-56703945D01*
X146570146Y-56703944D01*
X146324617Y-56554634D01*
X146061063Y-56440158D01*
X146061061Y-56440157D01*
X146061058Y-56440156D01*
X145931578Y-56403877D01*
X145784364Y-56362630D01*
X145784359Y-56362629D01*
X145784358Y-56362629D01*
X145642018Y-56343064D01*
X145499679Y-56323500D01*
X145499678Y-56323500D01*
X145212322Y-56323500D01*
X145212321Y-56323500D01*
X144927642Y-56362629D01*
X144927635Y-56362630D01*
X144719861Y-56420845D01*
X144650942Y-56440156D01*
X144650939Y-56440156D01*
X144650936Y-56440158D01*
X144650935Y-56440158D01*
X144387382Y-56554634D01*
X144141853Y-56703944D01*
X143918950Y-56885289D01*
X143722812Y-57095299D01*
X143557098Y-57330064D01*
X143424894Y-57585206D01*
X143328667Y-57855962D01*
X143328666Y-57855965D01*
X143270201Y-58137319D01*
X143250592Y-58424000D01*
X142482500Y-58424000D01*
X142482500Y-51099972D01*
X142489458Y-51059017D01*
X142489618Y-51058559D01*
X142517368Y-50979255D01*
X142520581Y-50950738D01*
X142537565Y-50800003D01*
X142537565Y-50799996D01*
X142517369Y-50620750D01*
X142517368Y-50620745D01*
X142462843Y-50464921D01*
X142457789Y-50450478D01*
X142361816Y-50297738D01*
X142234262Y-50170184D01*
X142164913Y-50126609D01*
X142081523Y-50074211D01*
X141911254Y-50014631D01*
X141911249Y-50014630D01*
X141732004Y-49994435D01*
X141731996Y-49994435D01*
X141552750Y-50014630D01*
X141552745Y-50014631D01*
X141382476Y-50074211D01*
X141229737Y-50170184D01*
X141102184Y-50297737D01*
X141006211Y-50450476D01*
X140946631Y-50620745D01*
X140946630Y-50620750D01*
X140926435Y-50799996D01*
X140926435Y-50800003D01*
X140946630Y-50979249D01*
X140946631Y-50979254D01*
X140974542Y-51059017D01*
X140981500Y-51099972D01*
X140981500Y-64336379D01*
X140961815Y-64403418D01*
X140945181Y-64424060D01*
X139424878Y-65944362D01*
X139363555Y-65977847D01*
X139293863Y-65972863D01*
X139237930Y-65930991D01*
X139223641Y-65906491D01*
X139203577Y-65860750D01*
X139180173Y-65807393D01*
X139103788Y-65690476D01*
X139044166Y-65599217D01*
X138982946Y-65532715D01*
X138875744Y-65416262D01*
X138774623Y-65337556D01*
X138733810Y-65280846D01*
X138729697Y-65251249D01*
X137985409Y-64506962D01*
X138048993Y-64489925D01*
X138163007Y-64424099D01*
X138256099Y-64331007D01*
X138321925Y-64216993D01*
X138338962Y-64153410D01*
X139079434Y-64893882D01*
X139179731Y-64740369D01*
X139279587Y-64512717D01*
X139340612Y-64271738D01*
X139340614Y-64271729D01*
X139361141Y-64024005D01*
X139361141Y-64023994D01*
X139340614Y-63776270D01*
X139340612Y-63776261D01*
X139279587Y-63535282D01*
X139179732Y-63307632D01*
X139067515Y-63135870D01*
X139047328Y-63068981D01*
X139066508Y-63001795D01*
X139097013Y-62968782D01*
X139098329Y-62967796D01*
X139098331Y-62967796D01*
X139213546Y-62881546D01*
X139299796Y-62766331D01*
X139350091Y-62631483D01*
X139356500Y-62571873D01*
X139356499Y-60476128D01*
X139350091Y-60416517D01*
X139346856Y-60407844D01*
X139299797Y-60281671D01*
X139299793Y-60281664D01*
X139213547Y-60166455D01*
X139213544Y-60166452D01*
X139098335Y-60080206D01*
X139098328Y-60080202D01*
X138963482Y-60029908D01*
X138963483Y-60029908D01*
X138903883Y-60023501D01*
X138903881Y-60023500D01*
X138903873Y-60023500D01*
X138903864Y-60023500D01*
X136808129Y-60023500D01*
X136808123Y-60023501D01*
X136748516Y-60029908D01*
X136613671Y-60080202D01*
X136613664Y-60080206D01*
X136498455Y-60166452D01*
X136498452Y-60166455D01*
X136412206Y-60281664D01*
X136412202Y-60281671D01*
X136361908Y-60416517D01*
X136356585Y-60466033D01*
X136355501Y-60476123D01*
X136355500Y-60476135D01*
X136355500Y-62571870D01*
X136355501Y-62571876D01*
X136361908Y-62631483D01*
X136412202Y-62766328D01*
X136412206Y-62766335D01*
X136498452Y-62881544D01*
X136498455Y-62881547D01*
X136614986Y-62968783D01*
X136656857Y-63024717D01*
X136661841Y-63094408D01*
X136644484Y-63135870D01*
X136532267Y-63307631D01*
X136432412Y-63535282D01*
X136371387Y-63776261D01*
X136371385Y-63776270D01*
X136350859Y-64023994D01*
X136350859Y-64024005D01*
X136371385Y-64271729D01*
X136371387Y-64271738D01*
X136432412Y-64512717D01*
X136532266Y-64740364D01*
X136632564Y-64893882D01*
X137373037Y-64153408D01*
X137390075Y-64216993D01*
X137455901Y-64331007D01*
X137548993Y-64424099D01*
X137663007Y-64489925D01*
X137726590Y-64506962D01*
X136980100Y-65253450D01*
X136969482Y-65300148D01*
X136937376Y-65337556D01*
X136836255Y-65416262D01*
X136667833Y-65599217D01*
X136531826Y-65807393D01*
X136431936Y-66035118D01*
X136370892Y-66276175D01*
X136370890Y-66276187D01*
X136350357Y-66523994D01*
X136350357Y-66524005D01*
X136370890Y-66771812D01*
X136370892Y-66771822D01*
X136431936Y-67012878D01*
X136431937Y-67012881D01*
X136448083Y-67049690D01*
X136456986Y-67118989D01*
X136427009Y-67182102D01*
X136367670Y-67218989D01*
X136334527Y-67223500D01*
X134876229Y-67223500D01*
X134809190Y-67203815D01*
X134788548Y-67187181D01*
X134446421Y-66845052D01*
X134446420Y-66845051D01*
X134446416Y-66845048D01*
X134336822Y-66771821D01*
X134336821Y-66771819D01*
X134326180Y-66764710D01*
X134323495Y-66762916D01*
X134323493Y-66762915D01*
X134323490Y-66762913D01*
X134186917Y-66706343D01*
X134186907Y-66706340D01*
X134041920Y-66677500D01*
X134041918Y-66677500D01*
X128630743Y-66677500D01*
X128630737Y-66677500D01*
X128601903Y-66683234D01*
X128601904Y-66683235D01*
X128485754Y-66706339D01*
X128485744Y-66706342D01*
X128405742Y-66739479D01*
X128405743Y-66739480D01*
X128349167Y-66762915D01*
X128269967Y-66815835D01*
X128226243Y-66845049D01*
X128226240Y-66845052D01*
X126770112Y-68301181D01*
X126708789Y-68334666D01*
X126682431Y-68337500D01*
X123077849Y-68337500D01*
X123010810Y-68317815D01*
X123008959Y-68316603D01*
X122979495Y-68296916D01*
X122979492Y-68296914D01*
X122979491Y-68296914D01*
X122842917Y-68240343D01*
X122842907Y-68240340D01*
X122697920Y-68211500D01*
X122697918Y-68211500D01*
X121100320Y-68211500D01*
X121033281Y-68191815D01*
X121001052Y-68161809D01*
X120995548Y-68154457D01*
X120995546Y-68154454D01*
X120995542Y-68154451D01*
X120880335Y-68068206D01*
X120880328Y-68068202D01*
X120745482Y-68017908D01*
X120745483Y-68017908D01*
X120685883Y-68011501D01*
X120685881Y-68011500D01*
X120685873Y-68011500D01*
X120685865Y-68011500D01*
X119088500Y-68011500D01*
X119021461Y-67991815D01*
X118975706Y-67939011D01*
X118964500Y-67887500D01*
X118964500Y-66039996D01*
X121622435Y-66039996D01*
X121622435Y-66040003D01*
X121642630Y-66219249D01*
X121642631Y-66219254D01*
X121702211Y-66389523D01*
X121786705Y-66523994D01*
X121798184Y-66542262D01*
X121925738Y-66669816D01*
X122016080Y-66726582D01*
X122073905Y-66762916D01*
X122078478Y-66765789D01*
X122221501Y-66815835D01*
X122248745Y-66825368D01*
X122248750Y-66825369D01*
X122427996Y-66845565D01*
X122428000Y-66845565D01*
X122428004Y-66845565D01*
X122607249Y-66825369D01*
X122607252Y-66825368D01*
X122607255Y-66825368D01*
X122777522Y-66765789D01*
X122930262Y-66669816D01*
X123057816Y-66542262D01*
X123153789Y-66389522D01*
X123213368Y-66219255D01*
X123233565Y-66040000D01*
X123226562Y-65977847D01*
X123213369Y-65860750D01*
X123213368Y-65860745D01*
X123153788Y-65690476D01*
X123096446Y-65599217D01*
X123057816Y-65537738D01*
X123057814Y-65537736D01*
X123057813Y-65537734D01*
X123055550Y-65534896D01*
X123054659Y-65532715D01*
X123054111Y-65531842D01*
X123054264Y-65531745D01*
X123029144Y-65470209D01*
X123028500Y-65457587D01*
X123028500Y-63895707D01*
X123048185Y-63828668D01*
X123100989Y-63782913D01*
X123111546Y-63778665D01*
X123115251Y-63777368D01*
X123115255Y-63777368D01*
X123285522Y-63717789D01*
X123438262Y-63621816D01*
X123565816Y-63494262D01*
X123661789Y-63341522D01*
X123721368Y-63171255D01*
X123725355Y-63135870D01*
X123741565Y-62992003D01*
X123741565Y-62991996D01*
X123721369Y-62812750D01*
X123721368Y-62812745D01*
X123711476Y-62784475D01*
X123661789Y-62642478D01*
X123654880Y-62631483D01*
X123593134Y-62533215D01*
X123565816Y-62489738D01*
X123438262Y-62362184D01*
X123285523Y-62266211D01*
X123115254Y-62206631D01*
X123115249Y-62206630D01*
X122936004Y-62186435D01*
X122935996Y-62186435D01*
X122756750Y-62206630D01*
X122756745Y-62206631D01*
X122586476Y-62266211D01*
X122433737Y-62362184D01*
X122306184Y-62489737D01*
X122210210Y-62642478D01*
X122150630Y-62812750D01*
X122140837Y-62899668D01*
X122113770Y-62964082D01*
X122105299Y-62973464D01*
X122059287Y-63019477D01*
X122059286Y-63019478D01*
X121947481Y-63131282D01*
X121947479Y-63131285D01*
X121902157Y-63209787D01*
X121902156Y-63209788D01*
X121868423Y-63268215D01*
X121827499Y-63420943D01*
X121827499Y-63420945D01*
X121827499Y-63589046D01*
X121827500Y-63589059D01*
X121827500Y-65457587D01*
X121807815Y-65524626D01*
X121800450Y-65534896D01*
X121798186Y-65537734D01*
X121702211Y-65690476D01*
X121642631Y-65860745D01*
X121642630Y-65860750D01*
X121622435Y-66039996D01*
X118964500Y-66039996D01*
X118964500Y-52941565D01*
X118984185Y-52874526D01*
X118991555Y-52864250D01*
X118993810Y-52861420D01*
X118993816Y-52861415D01*
X119089789Y-52708675D01*
X119149368Y-52538408D01*
X119149369Y-52538402D01*
X119169565Y-52359156D01*
X119169565Y-52359149D01*
X119149369Y-52179903D01*
X119149368Y-52179898D01*
X119148980Y-52178788D01*
X119089789Y-52009631D01*
X118993816Y-51856891D01*
X118866262Y-51729337D01*
X118769000Y-51668223D01*
X118722710Y-51615889D01*
X118711973Y-51567717D01*
X118711753Y-51567742D01*
X118711522Y-51565694D01*
X118710973Y-51563230D01*
X118710973Y-51560819D01*
X118690777Y-51381572D01*
X118690776Y-51381567D01*
X118653047Y-51273745D01*
X118631197Y-51211300D01*
X118600715Y-51162789D01*
X118563448Y-51103478D01*
X118535224Y-51058560D01*
X118407670Y-50931006D01*
X118372837Y-50909119D01*
X118254931Y-50835033D01*
X118084662Y-50775453D01*
X118084657Y-50775452D01*
X117905412Y-50755257D01*
X117905404Y-50755257D01*
X117742186Y-50773646D01*
X117673364Y-50761591D01*
X117621985Y-50714242D01*
X117611261Y-50691380D01*
X117600414Y-50660382D01*
X117565789Y-50561428D01*
X117469816Y-50408688D01*
X117342262Y-50281134D01*
X117289515Y-50247991D01*
X117189521Y-50185160D01*
X117137815Y-50167068D01*
X117115628Y-50159304D01*
X117058853Y-50118584D01*
X117033105Y-50053631D01*
X117046561Y-49985069D01*
X117051578Y-49976309D01*
X117057789Y-49966426D01*
X117117368Y-49796159D01*
X117117369Y-49796153D01*
X117137565Y-49616907D01*
X117137565Y-49616900D01*
X117117369Y-49437654D01*
X117117368Y-49437649D01*
X117057789Y-49267382D01*
X116961816Y-49114642D01*
X116834262Y-48987088D01*
X116806892Y-48969890D01*
X116681523Y-48891115D01*
X116511254Y-48831535D01*
X116511249Y-48831534D01*
X116332004Y-48811339D01*
X116331996Y-48811339D01*
X116152750Y-48831534D01*
X116152745Y-48831535D01*
X115982476Y-48891115D01*
X115829737Y-48987088D01*
X115702184Y-49114641D01*
X115606210Y-49267382D01*
X115546630Y-49437654D01*
X115536837Y-49524572D01*
X115509770Y-49588986D01*
X115501298Y-49598369D01*
X114439286Y-50660382D01*
X114327481Y-50772186D01*
X114327479Y-50772189D01*
X114288155Y-50840302D01*
X114288154Y-50840304D01*
X114248423Y-50909118D01*
X114248423Y-50909119D01*
X114207499Y-51061847D01*
X114207499Y-51061849D01*
X114207499Y-51229950D01*
X114207500Y-51229963D01*
X114207500Y-54055902D01*
X114187815Y-54122941D01*
X114171181Y-54143583D01*
X109565100Y-58749663D01*
X109503777Y-58783148D01*
X109434085Y-58778164D01*
X109378152Y-58736292D01*
X109353735Y-58670828D01*
X109353708Y-58653520D01*
X109357420Y-58599254D01*
X109369408Y-58424000D01*
X109349798Y-58137314D01*
X109291334Y-57855968D01*
X109233845Y-57694211D01*
X109195105Y-57585206D01*
X109195106Y-57585206D01*
X109062901Y-57330064D01*
X108897187Y-57095299D01*
X108797443Y-56988500D01*
X108701053Y-56885292D01*
X108478147Y-56703945D01*
X108478146Y-56703944D01*
X108232617Y-56554634D01*
X107969063Y-56440158D01*
X107969061Y-56440157D01*
X107969058Y-56440156D01*
X107839578Y-56403877D01*
X107692364Y-56362630D01*
X107692359Y-56362629D01*
X107692358Y-56362629D01*
X107550018Y-56343064D01*
X107407679Y-56323500D01*
X107407678Y-56323500D01*
X107120322Y-56323500D01*
X107120321Y-56323500D01*
X106835642Y-56362629D01*
X106835635Y-56362630D01*
X106627861Y-56420845D01*
X106558942Y-56440156D01*
X106558939Y-56440156D01*
X106558936Y-56440158D01*
X106558935Y-56440158D01*
X106295382Y-56554634D01*
X106049853Y-56703944D01*
X105826950Y-56885289D01*
X105630812Y-57095299D01*
X105465098Y-57330064D01*
X105332894Y-57585206D01*
X105236667Y-57855962D01*
X105236666Y-57855965D01*
X105178201Y-58137319D01*
X105158592Y-58424000D01*
X105178201Y-58710680D01*
X105178201Y-58710684D01*
X105178202Y-58710686D01*
X105187466Y-58755265D01*
X105236666Y-58992034D01*
X105236667Y-58992037D01*
X105332894Y-59262793D01*
X105332893Y-59262793D01*
X105465098Y-59517935D01*
X105630812Y-59752700D01*
X105715923Y-59843831D01*
X105826947Y-59962708D01*
X106049853Y-60144055D01*
X106276148Y-60281669D01*
X106295382Y-60293365D01*
X106478592Y-60372943D01*
X106558942Y-60407844D01*
X106835642Y-60485371D01*
X107085920Y-60519771D01*
X107120321Y-60524500D01*
X107120322Y-60524500D01*
X107407678Y-60524500D01*
X107485929Y-60513744D01*
X107555021Y-60524116D01*
X107607541Y-60570197D01*
X107626810Y-60637357D01*
X107606710Y-60704274D01*
X107590493Y-60724270D01*
X101960425Y-66354338D01*
X101899102Y-66387823D01*
X101829410Y-66382839D01*
X101773477Y-66340967D01*
X101750761Y-66281097D01*
X101749951Y-66281233D01*
X101749274Y-66277177D01*
X101749168Y-66276897D01*
X101749109Y-66276186D01*
X101749107Y-66276175D01*
X101688063Y-66035118D01*
X101588173Y-65807393D01*
X101452166Y-65599217D01*
X101390143Y-65531842D01*
X101283744Y-65416262D01*
X101087509Y-65263526D01*
X101087507Y-65263525D01*
X101087506Y-65263524D01*
X100868811Y-65145172D01*
X100868802Y-65145169D01*
X100633616Y-65064429D01*
X100388335Y-65023500D01*
X100139665Y-65023500D01*
X99894383Y-65064429D01*
X99659197Y-65145169D01*
X99659188Y-65145172D01*
X99440493Y-65263524D01*
X99244257Y-65416261D01*
X99075833Y-65599217D01*
X98939826Y-65807393D01*
X98839936Y-66035118D01*
X98778892Y-66276175D01*
X98778890Y-66276187D01*
X98758357Y-66523994D01*
X98758357Y-66524005D01*
X98778890Y-66771812D01*
X98778892Y-66771822D01*
X98839936Y-67012881D01*
X98939826Y-67240606D01*
X99075833Y-67448782D01*
X99075836Y-67448785D01*
X99244256Y-67631738D01*
X99440491Y-67784474D01*
X99659190Y-67902828D01*
X99894386Y-67983571D01*
X100031118Y-68006387D01*
X100094001Y-68036836D01*
X100130441Y-68096450D01*
X100128867Y-68166302D01*
X100098388Y-68216376D01*
X99041465Y-69273298D01*
X98980142Y-69306783D01*
X98967668Y-69308837D01*
X98880750Y-69318630D01*
X98710478Y-69378210D01*
X98557737Y-69474184D01*
X98430184Y-69601737D01*
X98334211Y-69754476D01*
X98274631Y-69924745D01*
X98274630Y-69924750D01*
X98254435Y-70103996D01*
X91363264Y-70103996D01*
X91362265Y-61523994D01*
X98758357Y-61523994D01*
X98758357Y-61524005D01*
X98778890Y-61771812D01*
X98778892Y-61771824D01*
X98839936Y-62012881D01*
X98939826Y-62240606D01*
X99075833Y-62448782D01*
X99075836Y-62448785D01*
X99244256Y-62631738D01*
X99440491Y-62784474D01*
X99659190Y-62902828D01*
X99894386Y-62983571D01*
X100139665Y-63024500D01*
X100388335Y-63024500D01*
X100633614Y-62983571D01*
X100868810Y-62902828D01*
X101087509Y-62784474D01*
X101283744Y-62631738D01*
X101452164Y-62448785D01*
X101588173Y-62240607D01*
X101688063Y-62012881D01*
X101749108Y-61771821D01*
X101753939Y-61713519D01*
X101769643Y-61524005D01*
X101769643Y-61523994D01*
X101749109Y-61276187D01*
X101749107Y-61276175D01*
X101688063Y-61035118D01*
X101588173Y-60807393D01*
X101452166Y-60599217D01*
X101383384Y-60524500D01*
X101283744Y-60416262D01*
X101087509Y-60263526D01*
X101087507Y-60263525D01*
X101087506Y-60263524D01*
X100868811Y-60145172D01*
X100868802Y-60145169D01*
X100633616Y-60064429D01*
X100388335Y-60023500D01*
X100139665Y-60023500D01*
X99894383Y-60064429D01*
X99659197Y-60145169D01*
X99659188Y-60145172D01*
X99440493Y-60263524D01*
X99244257Y-60416261D01*
X99075833Y-60599217D01*
X98939826Y-60807393D01*
X98839936Y-61035118D01*
X98778892Y-61276175D01*
X98778890Y-61276187D01*
X98758357Y-61523994D01*
X91362265Y-61523994D01*
X91361092Y-51452996D01*
X104430435Y-51452996D01*
X104430435Y-51453003D01*
X104450630Y-51632249D01*
X104450631Y-51632254D01*
X104510211Y-51802523D01*
X104596345Y-51939604D01*
X104606184Y-51955262D01*
X104733738Y-52082816D01*
X104886478Y-52178789D01*
X104889662Y-52179903D01*
X105056745Y-52238368D01*
X105056750Y-52238369D01*
X105235996Y-52258565D01*
X105236000Y-52258565D01*
X105236004Y-52258565D01*
X105415249Y-52238369D01*
X105415252Y-52238368D01*
X105415255Y-52238368D01*
X105585522Y-52178789D01*
X105738262Y-52082816D01*
X105865816Y-51955262D01*
X105961789Y-51802522D01*
X106021368Y-51632255D01*
X106031161Y-51545329D01*
X106058226Y-51480918D01*
X106066690Y-51471543D01*
X110020416Y-47517819D01*
X110081739Y-47484334D01*
X110108097Y-47481500D01*
X111753331Y-47481500D01*
X111753347Y-47481501D01*
X111760943Y-47481501D01*
X111919054Y-47481501D01*
X111919057Y-47481501D01*
X112012207Y-47456541D01*
X112082055Y-47458204D01*
X112139918Y-47497366D01*
X112167422Y-47561594D01*
X112168299Y-47576316D01*
X112168299Y-49563804D01*
X112148614Y-49630843D01*
X112095810Y-49676598D01*
X112085254Y-49680845D01*
X111998480Y-49711208D01*
X111845737Y-49807184D01*
X111718184Y-49934737D01*
X111622211Y-50087476D01*
X111562631Y-50257745D01*
X111562630Y-50257750D01*
X111542435Y-50436996D01*
X111542435Y-50437003D01*
X111562630Y-50616249D01*
X111562631Y-50616254D01*
X111622211Y-50786523D01*
X111680816Y-50879792D01*
X111718184Y-50939262D01*
X111845738Y-51066816D01*
X111998478Y-51162789D01*
X112161866Y-51219961D01*
X112168745Y-51222368D01*
X112168750Y-51222369D01*
X112347996Y-51242565D01*
X112348000Y-51242565D01*
X112348004Y-51242565D01*
X112527249Y-51222369D01*
X112527252Y-51222368D01*
X112527255Y-51222368D01*
X112697522Y-51162789D01*
X112850262Y-51066816D01*
X112977816Y-50939262D01*
X113073789Y-50786522D01*
X113133368Y-50616255D01*
X113143161Y-50529331D01*
X113170226Y-50464921D01*
X113178700Y-50455535D01*
X113197239Y-50436996D01*
X113249319Y-50384917D01*
X113253268Y-50378078D01*
X113288260Y-50317468D01*
X113328376Y-50247985D01*
X113369300Y-50095258D01*
X113369300Y-49937143D01*
X113369300Y-49929548D01*
X113369299Y-49929530D01*
X113369299Y-48118944D01*
X113388984Y-48051905D01*
X113441788Y-48006150D01*
X113510946Y-47996206D01*
X113534255Y-48001903D01*
X113612741Y-48029367D01*
X113612742Y-48029367D01*
X113612745Y-48029368D01*
X113699668Y-48039161D01*
X113764079Y-48066226D01*
X113773464Y-48074700D01*
X113839284Y-48140520D01*
X113920525Y-48187424D01*
X113976215Y-48219577D01*
X114128943Y-48260501D01*
X114128946Y-48260501D01*
X114294653Y-48260501D01*
X114294669Y-48260500D01*
X115691901Y-48260500D01*
X115758940Y-48280185D01*
X115769216Y-48287555D01*
X115772049Y-48289814D01*
X115772051Y-48289816D01*
X115885583Y-48361152D01*
X115924101Y-48385356D01*
X115924791Y-48385789D01*
X116077574Y-48439250D01*
X116095058Y-48445368D01*
X116095063Y-48445369D01*
X116274309Y-48465565D01*
X116274313Y-48465565D01*
X116274317Y-48465565D01*
X116453562Y-48445369D01*
X116453565Y-48445368D01*
X116453568Y-48445368D01*
X116623835Y-48385789D01*
X116776575Y-48289816D01*
X116843653Y-48222737D01*
X116904972Y-48189255D01*
X116974664Y-48194239D01*
X117030598Y-48236110D01*
X117054551Y-48296537D01*
X117070630Y-48439250D01*
X117070631Y-48439254D01*
X117130211Y-48609523D01*
X117217501Y-48748443D01*
X117226184Y-48762262D01*
X117353738Y-48889816D01*
X117506478Y-48985789D01*
X117676745Y-49045368D01*
X117694102Y-49047323D01*
X117758516Y-49074389D01*
X117798072Y-49131983D01*
X117803440Y-49156658D01*
X117807063Y-49188813D01*
X117866643Y-49359085D01*
X117943615Y-49481585D01*
X117962617Y-49511826D01*
X118090171Y-49639380D01*
X118242911Y-49735353D01*
X118413178Y-49794932D01*
X118500102Y-49804725D01*
X118564513Y-49831790D01*
X118573898Y-49840264D01*
X118855901Y-50122267D01*
X118855911Y-50122278D01*
X118860241Y-50126608D01*
X118860242Y-50126609D01*
X118972046Y-50238413D01*
X119044393Y-50280182D01*
X119044394Y-50280183D01*
X119108973Y-50317468D01*
X119108974Y-50317469D01*
X119108976Y-50317469D01*
X119108977Y-50317470D01*
X119261705Y-50358394D01*
X119261708Y-50358394D01*
X119427415Y-50358394D01*
X119427431Y-50358393D01*
X120577796Y-50358393D01*
X120644835Y-50378078D01*
X120665477Y-50394712D01*
X125846584Y-55575819D01*
X125880069Y-55637142D01*
X125875085Y-55706834D01*
X125833213Y-55762767D01*
X125767749Y-55787184D01*
X125758903Y-55787500D01*
X120978412Y-55787500D01*
X120911373Y-55767815D01*
X120901097Y-55760445D01*
X120898263Y-55758185D01*
X120898262Y-55758184D01*
X120816539Y-55706834D01*
X120745523Y-55662211D01*
X120575254Y-55602631D01*
X120575249Y-55602630D01*
X120396004Y-55582435D01*
X120395996Y-55582435D01*
X120216750Y-55602630D01*
X120216745Y-55602631D01*
X120046476Y-55662211D01*
X119893737Y-55758184D01*
X119766184Y-55885737D01*
X119670211Y-56038476D01*
X119610631Y-56208745D01*
X119610630Y-56208750D01*
X119590435Y-56387996D01*
X119590435Y-56388003D01*
X119610630Y-56567249D01*
X119610631Y-56567254D01*
X119670211Y-56737523D01*
X119763059Y-56885289D01*
X119766184Y-56890262D01*
X119893738Y-57017816D01*
X120046478Y-57113789D01*
X120216745Y-57173368D01*
X120216750Y-57173369D01*
X120395996Y-57193565D01*
X120396000Y-57193565D01*
X120396004Y-57193565D01*
X120575249Y-57173369D01*
X120575252Y-57173368D01*
X120575255Y-57173368D01*
X120745522Y-57113789D01*
X120898262Y-57017816D01*
X120898267Y-57017810D01*
X120901097Y-57015555D01*
X120903275Y-57014665D01*
X120904158Y-57014111D01*
X120904255Y-57014265D01*
X120965783Y-56989145D01*
X120978412Y-56988500D01*
X127715903Y-56988500D01*
X127782942Y-57008185D01*
X127803584Y-57024819D01*
X128386584Y-57607819D01*
X128420069Y-57669142D01*
X128415085Y-57738834D01*
X128373213Y-57794767D01*
X128307749Y-57819184D01*
X128298903Y-57819500D01*
X122872668Y-57819500D01*
X122805629Y-57799815D01*
X122795353Y-57792445D01*
X122792519Y-57790185D01*
X122792518Y-57790184D01*
X122710795Y-57738834D01*
X122639779Y-57694211D01*
X122469510Y-57634631D01*
X122469505Y-57634630D01*
X122290260Y-57614435D01*
X122290252Y-57614435D01*
X122111006Y-57634630D01*
X122111001Y-57634631D01*
X121940732Y-57694211D01*
X121787993Y-57790184D01*
X121660440Y-57917737D01*
X121564467Y-58070476D01*
X121504887Y-58240745D01*
X121504886Y-58240750D01*
X121484691Y-58419996D01*
X121484691Y-58420003D01*
X121504886Y-58599249D01*
X121504887Y-58599254D01*
X121564467Y-58769523D01*
X121644388Y-58896716D01*
X121660440Y-58922262D01*
X121787994Y-59049816D01*
X121940734Y-59145789D01*
X122111001Y-59205368D01*
X122111006Y-59205369D01*
X122290252Y-59225565D01*
X122290256Y-59225565D01*
X122290260Y-59225565D01*
X122469505Y-59205369D01*
X122469508Y-59205368D01*
X122469511Y-59205368D01*
X122639778Y-59145789D01*
X122792518Y-59049816D01*
X122792523Y-59049810D01*
X122795353Y-59047555D01*
X122797531Y-59046665D01*
X122798414Y-59046111D01*
X122798511Y-59046265D01*
X122860039Y-59021145D01*
X122872668Y-59020500D01*
X128223903Y-59020500D01*
X128290942Y-59040185D01*
X128311584Y-59056819D01*
X128709298Y-59454533D01*
X128742783Y-59515856D01*
X128744837Y-59528330D01*
X128754630Y-59615249D01*
X128814210Y-59785521D01*
X128814211Y-59785522D01*
X128910184Y-59938262D01*
X129037738Y-60065816D01*
X129060640Y-60080206D01*
X129162254Y-60144055D01*
X129190478Y-60161789D01*
X129360745Y-60221368D01*
X129360750Y-60221369D01*
X129539996Y-60241565D01*
X129540000Y-60241565D01*
X129540004Y-60241565D01*
X129719249Y-60221369D01*
X129719252Y-60221368D01*
X129719255Y-60221368D01*
X129889522Y-60161789D01*
X130042262Y-60065816D01*
X130169816Y-59938262D01*
X130265789Y-59785522D01*
X130277984Y-59750671D01*
X130318704Y-59693894D01*
X130383656Y-59668145D01*
X130452218Y-59681600D01*
X130482707Y-59703942D01*
X133281298Y-62502533D01*
X133314783Y-62563856D01*
X133316837Y-62576330D01*
X133326630Y-62663249D01*
X133386210Y-62833521D01*
X133480493Y-62983571D01*
X133482184Y-62986262D01*
X133609738Y-63113816D01*
X133637540Y-63131285D01*
X133762474Y-63209787D01*
X133762478Y-63209789D01*
X133815814Y-63228452D01*
X133932745Y-63269368D01*
X133932750Y-63269369D01*
X134111996Y-63289565D01*
X134112000Y-63289565D01*
X134112004Y-63289565D01*
X134291249Y-63269369D01*
X134291252Y-63269368D01*
X134291255Y-63269368D01*
X134461522Y-63209789D01*
X134614262Y-63113816D01*
X134741816Y-62986262D01*
X134837789Y-62833522D01*
X134859686Y-62770942D01*
X134900407Y-62714166D01*
X134965359Y-62688418D01*
X135017682Y-62694854D01*
X135041832Y-62703304D01*
X135041835Y-62703305D01*
X135041836Y-62703305D01*
X135041840Y-62703306D01*
X135221086Y-62723502D01*
X135221090Y-62723502D01*
X135221094Y-62723502D01*
X135400339Y-62703306D01*
X135400342Y-62703305D01*
X135400345Y-62703305D01*
X135570612Y-62643726D01*
X135723352Y-62547753D01*
X135850906Y-62420199D01*
X135946879Y-62267459D01*
X136006458Y-62097192D01*
X136015745Y-62014766D01*
X136026655Y-61917940D01*
X136026655Y-61917933D01*
X136006459Y-61738687D01*
X136006458Y-61738682D01*
X135992444Y-61698632D01*
X135946879Y-61568415D01*
X135850906Y-61415675D01*
X135850904Y-61415673D01*
X135850903Y-61415671D01*
X135848640Y-61412833D01*
X135847749Y-61410652D01*
X135847201Y-61409779D01*
X135847354Y-61409682D01*
X135822234Y-61348146D01*
X135821590Y-61335524D01*
X135821590Y-60466035D01*
X135821590Y-60466033D01*
X135796647Y-60372943D01*
X135780667Y-60313305D01*
X135743265Y-60248523D01*
X135701610Y-60176374D01*
X135589806Y-60064570D01*
X135589805Y-60064569D01*
X135585475Y-60060239D01*
X135585464Y-60060229D01*
X134599590Y-59074355D01*
X134599588Y-59074352D01*
X134480717Y-58955481D01*
X134480709Y-58955475D01*
X134378936Y-58896717D01*
X134378934Y-58896716D01*
X134343790Y-58876425D01*
X134343789Y-58876424D01*
X134331263Y-58873067D01*
X134191057Y-58835499D01*
X134032943Y-58835499D01*
X134025347Y-58835499D01*
X134025331Y-58835500D01*
X132888097Y-58835500D01*
X132821058Y-58815815D01*
X132800416Y-58799181D01*
X132792819Y-58791584D01*
X132759334Y-58730261D01*
X132756500Y-58703903D01*
X132756500Y-58683260D01*
X132756500Y-58683258D01*
X132715577Y-58530531D01*
X132654072Y-58424000D01*
X132636524Y-58393605D01*
X132636521Y-58393601D01*
X132636520Y-58393599D01*
X132524716Y-58281795D01*
X132524715Y-58281794D01*
X132520385Y-58277464D01*
X132520374Y-58277454D01*
X129975180Y-55732260D01*
X129941695Y-55670937D01*
X129946679Y-55601245D01*
X129975180Y-55556898D01*
X130029816Y-55502262D01*
X130125789Y-55349522D01*
X130185368Y-55179255D01*
X130185369Y-55179249D01*
X130205565Y-55000003D01*
X130205565Y-54999996D01*
X130185369Y-54820750D01*
X130185368Y-54820745D01*
X130125788Y-54650476D01*
X130029815Y-54497737D01*
X129902262Y-54370184D01*
X129749521Y-54274210D01*
X129579249Y-54214630D01*
X129492331Y-54204837D01*
X129427917Y-54177770D01*
X129418534Y-54169298D01*
X121137590Y-45888355D01*
X121137588Y-45888352D01*
X121018717Y-45769481D01*
X121018709Y-45769475D01*
X120916936Y-45710717D01*
X120916934Y-45710716D01*
X120881790Y-45690425D01*
X120881789Y-45690424D01*
X120869263Y-45687067D01*
X120729057Y-45649499D01*
X120570943Y-45649499D01*
X120563347Y-45649499D01*
X120563331Y-45649500D01*
X115137799Y-45649500D01*
X115070760Y-45629815D01*
X115025005Y-45577011D01*
X115015061Y-45507853D01*
X115044086Y-45444297D01*
X115050118Y-45437819D01*
X115275941Y-45211996D01*
X125178435Y-45211996D01*
X125178435Y-45212003D01*
X125198630Y-45391249D01*
X125198631Y-45391254D01*
X125258211Y-45561523D01*
X125339206Y-45690425D01*
X125354184Y-45714262D01*
X125481738Y-45841816D01*
X125634478Y-45937789D01*
X125745594Y-45976670D01*
X125804745Y-45997368D01*
X125804750Y-45997369D01*
X125983996Y-46017565D01*
X125984000Y-46017565D01*
X125984004Y-46017565D01*
X126163249Y-45997369D01*
X126163251Y-45997368D01*
X126163255Y-45997368D01*
X126163258Y-45997366D01*
X126163262Y-45997366D01*
X126234545Y-45972423D01*
X126304323Y-45968860D01*
X126364951Y-46003589D01*
X126397179Y-46065582D01*
X126399500Y-46089464D01*
X126399500Y-46649330D01*
X126399499Y-46649348D01*
X126399499Y-46815054D01*
X126399498Y-46815054D01*
X126440423Y-46967785D01*
X126454488Y-46992147D01*
X126466075Y-47012215D01*
X126519479Y-47104714D01*
X126519481Y-47104717D01*
X126638349Y-47223585D01*
X126638355Y-47223590D01*
X127887181Y-48472416D01*
X127920666Y-48533739D01*
X127923500Y-48560097D01*
X127923500Y-51221330D01*
X127923499Y-51221348D01*
X127923499Y-51387054D01*
X127923498Y-51387054D01*
X127964424Y-51539789D01*
X127964425Y-51539790D01*
X127984052Y-51573784D01*
X127984053Y-51573785D01*
X128043477Y-51676712D01*
X128043481Y-51676717D01*
X128162349Y-51795585D01*
X128162355Y-51795590D01*
X129725298Y-53358533D01*
X129758783Y-53419856D01*
X129760837Y-53432330D01*
X129770630Y-53519249D01*
X129830210Y-53689521D01*
X129926184Y-53842262D01*
X130053738Y-53969816D01*
X130206478Y-54065789D01*
X130325010Y-54107265D01*
X130376745Y-54125368D01*
X130376750Y-54125369D01*
X130555996Y-54145565D01*
X130556000Y-54145565D01*
X130556004Y-54145565D01*
X130735249Y-54125369D01*
X130735252Y-54125368D01*
X130735255Y-54125368D01*
X130905522Y-54065789D01*
X131058262Y-53969816D01*
X131185816Y-53842262D01*
X131281789Y-53689522D01*
X131341368Y-53519255D01*
X131351162Y-53432330D01*
X131361565Y-53340003D01*
X131361565Y-53339996D01*
X131341369Y-53160750D01*
X131341368Y-53160745D01*
X131281788Y-52990476D01*
X131208931Y-52874526D01*
X131185816Y-52837738D01*
X131058262Y-52710184D01*
X131055860Y-52708675D01*
X130905521Y-52614210D01*
X130735249Y-52554630D01*
X130648330Y-52544837D01*
X130583916Y-52517770D01*
X130574533Y-52509298D01*
X129160819Y-51095584D01*
X129127334Y-51034261D01*
X129124500Y-51007903D01*
X129124500Y-49893713D01*
X158149500Y-49893713D01*
X158149500Y-50106287D01*
X158152031Y-50122267D01*
X158177042Y-50280183D01*
X158182754Y-50316243D01*
X158221991Y-50437003D01*
X158248444Y-50518414D01*
X158344951Y-50707820D01*
X158469890Y-50879786D01*
X158620213Y-51030109D01*
X158792179Y-51155048D01*
X158792181Y-51155049D01*
X158792184Y-51155051D01*
X158981588Y-51251557D01*
X159183757Y-51317246D01*
X159393713Y-51350500D01*
X159393714Y-51350500D01*
X159606286Y-51350500D01*
X159606287Y-51350500D01*
X159816243Y-51317246D01*
X160018412Y-51251557D01*
X160207816Y-51155051D01*
X160278801Y-51103478D01*
X160379786Y-51030109D01*
X160379788Y-51030106D01*
X160379792Y-51030104D01*
X160530104Y-50879792D01*
X160530106Y-50879788D01*
X160530109Y-50879786D01*
X160655048Y-50707820D01*
X160655047Y-50707820D01*
X160655051Y-50707816D01*
X160751557Y-50518412D01*
X160817246Y-50316243D01*
X160850500Y-50106287D01*
X160850500Y-49893713D01*
X160817246Y-49683757D01*
X160751557Y-49481588D01*
X160655051Y-49292184D01*
X160655049Y-49292181D01*
X160655048Y-49292179D01*
X160530109Y-49120213D01*
X160379786Y-48969890D01*
X160207820Y-48844951D01*
X160018414Y-48748444D01*
X160018413Y-48748443D01*
X160018412Y-48748443D01*
X159816243Y-48682754D01*
X159816241Y-48682753D01*
X159816240Y-48682753D01*
X159654957Y-48657208D01*
X159606287Y-48649500D01*
X159393713Y-48649500D01*
X159345042Y-48657208D01*
X159183760Y-48682753D01*
X158981585Y-48748444D01*
X158792179Y-48844951D01*
X158620213Y-48969890D01*
X158469890Y-49120213D01*
X158344951Y-49292179D01*
X158248444Y-49481585D01*
X158182753Y-49683760D01*
X158149500Y-49893713D01*
X129124500Y-49893713D01*
X129124500Y-48180943D01*
X129119494Y-48162263D01*
X129119493Y-48162258D01*
X129103664Y-48103182D01*
X129083577Y-48028216D01*
X129064741Y-47995591D01*
X129004524Y-47891290D01*
X129004521Y-47891286D01*
X129004520Y-47891284D01*
X128892716Y-47779480D01*
X128892715Y-47779479D01*
X128888385Y-47775149D01*
X128888374Y-47775139D01*
X127636819Y-46523584D01*
X127603334Y-46462261D01*
X127600500Y-46435903D01*
X127600500Y-46089464D01*
X127620185Y-46022425D01*
X127672989Y-45976670D01*
X127742147Y-45966726D01*
X127765455Y-45972423D01*
X127836737Y-45997366D01*
X127836743Y-45997367D01*
X127836745Y-45997368D01*
X127836746Y-45997368D01*
X127836750Y-45997369D01*
X128015996Y-46017565D01*
X128016000Y-46017565D01*
X128016004Y-46017565D01*
X128195249Y-45997369D01*
X128195252Y-45997368D01*
X128195255Y-45997368D01*
X128365522Y-45937789D01*
X128518262Y-45841816D01*
X128645816Y-45714262D01*
X128741789Y-45561522D01*
X128801368Y-45391255D01*
X128821565Y-45212000D01*
X128801368Y-45032745D01*
X128741789Y-44862478D01*
X128645816Y-44709738D01*
X128518262Y-44582184D01*
X128484341Y-44560870D01*
X128365523Y-44486211D01*
X128195254Y-44426631D01*
X128195249Y-44426630D01*
X128016004Y-44406435D01*
X128015996Y-44406435D01*
X127836750Y-44426630D01*
X127836745Y-44426631D01*
X127666476Y-44486211D01*
X127513736Y-44582185D01*
X127510903Y-44584445D01*
X127508724Y-44585334D01*
X127507842Y-44585889D01*
X127507744Y-44585734D01*
X127446217Y-44610855D01*
X127433588Y-44611500D01*
X126566412Y-44611500D01*
X126499373Y-44591815D01*
X126489097Y-44584445D01*
X126486263Y-44582185D01*
X126486262Y-44582184D01*
X126429496Y-44546515D01*
X126333523Y-44486211D01*
X126163254Y-44426631D01*
X126163249Y-44426630D01*
X125984004Y-44406435D01*
X125983996Y-44406435D01*
X125804750Y-44426630D01*
X125804745Y-44426631D01*
X125634476Y-44486211D01*
X125481737Y-44582184D01*
X125354184Y-44709737D01*
X125258211Y-44862476D01*
X125198631Y-45032745D01*
X125198630Y-45032750D01*
X125178435Y-45211996D01*
X115275941Y-45211996D01*
X116081502Y-44406435D01*
X117136250Y-43351686D01*
X117197571Y-43318203D01*
X117267263Y-43323187D01*
X117311610Y-43351688D01*
X117353738Y-43393816D01*
X117506478Y-43489789D01*
X117676745Y-43549368D01*
X117676750Y-43549369D01*
X117855996Y-43569565D01*
X117856000Y-43569565D01*
X117856004Y-43569565D01*
X118035249Y-43549369D01*
X118035252Y-43549368D01*
X118035255Y-43549368D01*
X118205522Y-43489789D01*
X118358262Y-43393816D01*
X118358267Y-43393810D01*
X118361097Y-43391555D01*
X118363275Y-43390665D01*
X118364158Y-43390111D01*
X118364255Y-43390265D01*
X118425783Y-43365145D01*
X118438412Y-43364500D01*
X122024370Y-43364500D01*
X122091409Y-43384185D01*
X122112051Y-43400819D01*
X122564846Y-43853614D01*
X122598331Y-43914937D01*
X122600385Y-43927411D01*
X122610178Y-44014330D01*
X122610179Y-44014335D01*
X122610180Y-44014336D01*
X122616057Y-44031131D01*
X122669758Y-44184602D01*
X122751214Y-44314238D01*
X122765732Y-44337343D01*
X122893286Y-44464897D01*
X123046026Y-44560870D01*
X123134462Y-44591815D01*
X123216293Y-44620449D01*
X123216298Y-44620450D01*
X123395544Y-44640646D01*
X123395548Y-44640646D01*
X123395552Y-44640646D01*
X123574797Y-44620450D01*
X123574800Y-44620449D01*
X123574803Y-44620449D01*
X123745070Y-44560870D01*
X123897810Y-44464897D01*
X124025364Y-44337343D01*
X124121337Y-44184603D01*
X124180916Y-44014336D01*
X124180917Y-44014330D01*
X124201639Y-43830416D01*
X124228705Y-43766002D01*
X124286300Y-43726447D01*
X124356137Y-43724309D01*
X124412540Y-43756618D01*
X124465738Y-43809816D01*
X124618478Y-43905789D01*
X124788745Y-43965368D01*
X124788750Y-43965369D01*
X124967996Y-43985565D01*
X124968000Y-43985565D01*
X124968004Y-43985565D01*
X125147249Y-43965369D01*
X125147252Y-43965368D01*
X125147255Y-43965368D01*
X125317522Y-43905789D01*
X125470262Y-43809816D01*
X125597816Y-43682262D01*
X125693789Y-43529522D01*
X125753368Y-43359255D01*
X125757432Y-43323187D01*
X125773565Y-43180003D01*
X125773565Y-43179996D01*
X125753369Y-43000750D01*
X125753368Y-43000745D01*
X125693788Y-42830476D01*
X125597815Y-42677737D01*
X125470262Y-42550184D01*
X125317521Y-42454210D01*
X125147249Y-42394630D01*
X125060330Y-42384837D01*
X124995916Y-42357770D01*
X124986533Y-42349298D01*
X124439590Y-41802355D01*
X124439588Y-41802352D01*
X124320717Y-41683481D01*
X124320716Y-41683480D01*
X124233904Y-41633360D01*
X124233904Y-41633359D01*
X124233900Y-41633358D01*
X124183785Y-41604423D01*
X124031057Y-41563499D01*
X123872943Y-41563499D01*
X123865347Y-41563499D01*
X123865331Y-41563500D01*
X123363199Y-41563500D01*
X123363183Y-41563499D01*
X123355587Y-41563499D01*
X123197472Y-41563499D01*
X123095654Y-41590781D01*
X123044744Y-41604423D01*
X122997998Y-41631412D01*
X122930097Y-41647883D01*
X122873998Y-41631410D01*
X122827256Y-41604423D01*
X122674528Y-41563499D01*
X122516414Y-41563499D01*
X122508818Y-41563499D01*
X122508802Y-41563500D01*
X117553760Y-41563500D01*
X117395645Y-41563500D01*
X117242918Y-41604423D01*
X117242917Y-41604423D01*
X117242915Y-41604424D01*
X117242912Y-41604425D01*
X117192799Y-41633359D01*
X117192798Y-41633360D01*
X117154450Y-41655500D01*
X117105988Y-41683479D01*
X117105985Y-41683481D01*
X116994181Y-41795286D01*
X114592453Y-44197013D01*
X114531130Y-44230498D01*
X114461438Y-44225514D01*
X114417091Y-44197013D01*
X114406762Y-44186684D01*
X114254023Y-44090711D01*
X114083754Y-44031131D01*
X114083749Y-44031130D01*
X113904504Y-44010935D01*
X113904496Y-44010935D01*
X113725250Y-44031130D01*
X113725245Y-44031131D01*
X113554976Y-44090711D01*
X113402237Y-44186684D01*
X113274684Y-44314237D01*
X113178710Y-44466978D01*
X113119130Y-44637250D01*
X113109337Y-44724168D01*
X113082270Y-44788582D01*
X113073798Y-44797965D01*
X111627584Y-46244181D01*
X111566261Y-46277666D01*
X111539903Y-46280500D01*
X109728940Y-46280500D01*
X109688019Y-46291464D01*
X109688019Y-46291465D01*
X109650751Y-46301451D01*
X109576214Y-46321423D01*
X109576209Y-46321426D01*
X109439290Y-46400475D01*
X109439282Y-46400481D01*
X109327478Y-46512286D01*
X108331326Y-47508437D01*
X108270003Y-47541922D01*
X108200311Y-47536938D01*
X108144378Y-47495066D01*
X108120425Y-47434639D01*
X108100384Y-47256765D01*
X108100383Y-47256760D01*
X108073342Y-47179481D01*
X108040804Y-47086493D01*
X107944831Y-46933753D01*
X107817277Y-46806199D01*
X107748568Y-46763026D01*
X107664538Y-46710226D01*
X107494269Y-46650646D01*
X107494264Y-46650645D01*
X107315019Y-46630450D01*
X107315011Y-46630450D01*
X107135765Y-46650645D01*
X107135760Y-46650646D01*
X106965491Y-46710226D01*
X106812751Y-46806200D01*
X106809918Y-46808460D01*
X106807739Y-46809349D01*
X106806857Y-46809904D01*
X106806759Y-46809749D01*
X106745232Y-46834870D01*
X106732603Y-46835515D01*
X106655253Y-46835515D01*
X106588214Y-46815830D01*
X106542459Y-46763026D01*
X106532033Y-46725400D01*
X106529368Y-46701745D01*
X106469789Y-46531478D01*
X106373816Y-46378738D01*
X106246262Y-46251184D01*
X106235117Y-46244181D01*
X106093523Y-46155211D01*
X105923254Y-46095631D01*
X105923249Y-46095630D01*
X105744004Y-46075435D01*
X105743996Y-46075435D01*
X105564750Y-46095630D01*
X105564745Y-46095631D01*
X105394476Y-46155211D01*
X105241737Y-46251184D01*
X105114184Y-46378737D01*
X105018211Y-46531476D01*
X104958631Y-46701745D01*
X104958630Y-46701750D01*
X104938435Y-46880996D01*
X104938435Y-46881003D01*
X104958630Y-47060249D01*
X104958631Y-47060254D01*
X105018211Y-47230523D01*
X105114184Y-47383262D01*
X105241738Y-47510816D01*
X105394478Y-47606789D01*
X105564745Y-47666368D01*
X105651669Y-47676161D01*
X105716080Y-47703226D01*
X105725463Y-47711698D01*
X105930299Y-47916535D01*
X105930301Y-47916536D01*
X105930305Y-47916539D01*
X106022538Y-47969789D01*
X106067231Y-47995592D01*
X106219958Y-48036516D01*
X106219960Y-48036516D01*
X106385669Y-48036516D01*
X106385685Y-48036515D01*
X106732603Y-48036515D01*
X106799642Y-48056200D01*
X106809918Y-48063570D01*
X106812751Y-48065829D01*
X106812753Y-48065831D01*
X106965493Y-48161804D01*
X107058187Y-48194239D01*
X107135760Y-48221383D01*
X107135765Y-48221384D01*
X107313639Y-48241425D01*
X107378053Y-48268491D01*
X107417608Y-48326086D01*
X107419746Y-48395923D01*
X107387437Y-48452326D01*
X105217465Y-50622298D01*
X105156142Y-50655783D01*
X105143668Y-50657837D01*
X105056750Y-50667630D01*
X104886478Y-50727210D01*
X104733737Y-50823184D01*
X104606184Y-50950737D01*
X104510211Y-51103476D01*
X104450631Y-51273745D01*
X104450630Y-51273750D01*
X104430435Y-51452996D01*
X91361092Y-51452996D01*
X91360910Y-49893713D01*
X92049500Y-49893713D01*
X92049500Y-50106287D01*
X92052031Y-50122267D01*
X92077042Y-50280183D01*
X92082754Y-50316243D01*
X92121991Y-50437003D01*
X92148444Y-50518414D01*
X92244951Y-50707820D01*
X92369890Y-50879786D01*
X92520213Y-51030109D01*
X92692179Y-51155048D01*
X92692181Y-51155049D01*
X92692184Y-51155051D01*
X92881588Y-51251557D01*
X93083757Y-51317246D01*
X93293713Y-51350500D01*
X93293714Y-51350500D01*
X93506286Y-51350500D01*
X93506287Y-51350500D01*
X93716243Y-51317246D01*
X93918412Y-51251557D01*
X94107816Y-51155051D01*
X94178801Y-51103478D01*
X94279786Y-51030109D01*
X94279788Y-51030106D01*
X94279792Y-51030104D01*
X94430104Y-50879792D01*
X94430106Y-50879788D01*
X94430109Y-50879786D01*
X94555048Y-50707820D01*
X94555047Y-50707820D01*
X94555051Y-50707816D01*
X94651557Y-50518412D01*
X94717246Y-50316243D01*
X94750500Y-50106287D01*
X94750500Y-49893713D01*
X94717246Y-49683757D01*
X94651557Y-49481588D01*
X94555051Y-49292184D01*
X94555049Y-49292181D01*
X94555048Y-49292179D01*
X94430109Y-49120213D01*
X94279786Y-48969890D01*
X94107820Y-48844951D01*
X93918414Y-48748444D01*
X93918413Y-48748443D01*
X93918412Y-48748443D01*
X93716243Y-48682754D01*
X93716241Y-48682753D01*
X93716240Y-48682753D01*
X93554957Y-48657208D01*
X93506287Y-48649500D01*
X93293713Y-48649500D01*
X93245042Y-48657208D01*
X93083760Y-48682753D01*
X92881585Y-48748444D01*
X92692179Y-48844951D01*
X92520213Y-48969890D01*
X92369890Y-49120213D01*
X92244951Y-49292179D01*
X92148444Y-49481585D01*
X92082753Y-49683760D01*
X92049500Y-49893713D01*
X91360910Y-49893713D01*
X91359670Y-39249994D01*
X98744357Y-39249994D01*
X98744357Y-39250005D01*
X98764890Y-39497812D01*
X98764892Y-39497824D01*
X98825936Y-39738881D01*
X98925826Y-39966606D01*
X99061833Y-40174782D01*
X99061836Y-40174785D01*
X99230256Y-40357738D01*
X99426491Y-40510474D01*
X99645190Y-40628828D01*
X99880386Y-40709571D01*
X100125665Y-40750500D01*
X100374335Y-40750500D01*
X100619614Y-40709571D01*
X100854810Y-40628828D01*
X101073509Y-40510474D01*
X101269744Y-40357738D01*
X101438164Y-40174785D01*
X101574173Y-39966607D01*
X101592560Y-39924689D01*
X101637517Y-39871204D01*
X101704253Y-39850514D01*
X101706116Y-39850500D01*
X105293884Y-39850500D01*
X105360923Y-39870185D01*
X105406678Y-39922989D01*
X105407440Y-39924689D01*
X105425827Y-39966608D01*
X105561833Y-40174782D01*
X105561836Y-40174785D01*
X105730256Y-40357738D01*
X105926491Y-40510474D01*
X105926494Y-40510476D01*
X105926496Y-40510477D01*
X105992609Y-40546255D01*
X106084517Y-40595993D01*
X106134108Y-40645212D01*
X106149500Y-40705048D01*
X106149500Y-41163330D01*
X106149499Y-41163348D01*
X106149499Y-41329054D01*
X106149498Y-41329054D01*
X106190423Y-41481786D01*
X106198716Y-41496148D01*
X106200940Y-41500000D01*
X106261228Y-41604423D01*
X106269479Y-41618714D01*
X106269481Y-41618717D01*
X106388349Y-41737585D01*
X106388355Y-41737590D01*
X106515139Y-41864374D01*
X106515149Y-41864385D01*
X106519479Y-41868715D01*
X106519480Y-41868716D01*
X106631284Y-41980520D01*
X106631286Y-41980521D01*
X106631290Y-41980524D01*
X106768209Y-42059573D01*
X106768216Y-42059577D01*
X106880019Y-42089534D01*
X106920942Y-42100500D01*
X106920943Y-42100500D01*
X111917588Y-42100500D01*
X111984627Y-42120185D01*
X111994903Y-42127555D01*
X111997736Y-42129814D01*
X111997738Y-42129816D01*
X112150478Y-42225789D01*
X112320745Y-42285368D01*
X112320750Y-42285369D01*
X112499996Y-42305565D01*
X112500000Y-42305565D01*
X112500004Y-42305565D01*
X112679249Y-42285369D01*
X112679252Y-42285368D01*
X112679255Y-42285368D01*
X112849522Y-42225789D01*
X113002262Y-42129816D01*
X113129816Y-42002262D01*
X113225789Y-41849522D01*
X113285368Y-41679255D01*
X113290539Y-41633360D01*
X113305565Y-41500003D01*
X113305565Y-41499996D01*
X113285369Y-41320750D01*
X113285368Y-41320745D01*
X113232950Y-41170943D01*
X113225789Y-41150478D01*
X113129816Y-40997738D01*
X113002262Y-40870184D01*
X112897138Y-40804130D01*
X112849523Y-40774211D01*
X112679254Y-40714631D01*
X112679249Y-40714630D01*
X112500004Y-40694435D01*
X112499996Y-40694435D01*
X112320750Y-40714630D01*
X112320745Y-40714631D01*
X112150476Y-40774211D01*
X111997736Y-40870185D01*
X111994903Y-40872445D01*
X111992724Y-40873334D01*
X111991842Y-40873889D01*
X111991744Y-40873734D01*
X111930217Y-40898855D01*
X111917588Y-40899500D01*
X111756088Y-40899500D01*
X111689049Y-40879815D01*
X111643294Y-40827011D01*
X111633350Y-40757853D01*
X111662375Y-40694297D01*
X111679926Y-40677647D01*
X111742645Y-40628830D01*
X111769744Y-40607738D01*
X111938164Y-40424785D01*
X112074173Y-40216607D01*
X112174063Y-39988881D01*
X112235108Y-39747821D01*
X112255643Y-39500000D01*
X112255462Y-39497821D01*
X112235109Y-39252187D01*
X112235107Y-39252175D01*
X112174063Y-39011118D01*
X112074173Y-38783393D01*
X111938166Y-38575217D01*
X111899662Y-38533391D01*
X111776864Y-38399996D01*
X112594435Y-38399996D01*
X112594435Y-38400003D01*
X112614630Y-38579249D01*
X112614631Y-38579254D01*
X112674211Y-38749523D01*
X112770184Y-38902262D01*
X112897738Y-39029816D01*
X113050478Y-39125789D01*
X113133787Y-39154940D01*
X113220745Y-39185368D01*
X113220750Y-39185369D01*
X113399996Y-39205565D01*
X113400000Y-39205565D01*
X113400004Y-39205565D01*
X113579249Y-39185369D01*
X113579252Y-39185368D01*
X113579255Y-39185368D01*
X113749522Y-39125789D01*
X113902262Y-39029816D01*
X113902267Y-39029810D01*
X113905097Y-39027555D01*
X113907275Y-39026665D01*
X113908158Y-39026111D01*
X113908255Y-39026265D01*
X113969783Y-39001145D01*
X113982412Y-39000500D01*
X115669310Y-39000500D01*
X115736349Y-39020185D01*
X115782104Y-39072989D01*
X115792048Y-39142147D01*
X115789516Y-39154940D01*
X115764892Y-39252175D01*
X115764890Y-39252187D01*
X115744357Y-39499994D01*
X115744357Y-39500005D01*
X115764890Y-39747812D01*
X115764892Y-39747824D01*
X115825936Y-39988881D01*
X115925826Y-40216606D01*
X116061833Y-40424782D01*
X116061836Y-40424785D01*
X116230256Y-40607738D01*
X116426491Y-40760474D01*
X116426493Y-40760475D01*
X116636063Y-40873889D01*
X116645190Y-40878828D01*
X116880386Y-40959571D01*
X117125665Y-41000500D01*
X117374335Y-41000500D01*
X117619614Y-40959571D01*
X117854810Y-40878828D01*
X118073509Y-40760474D01*
X118269744Y-40607738D01*
X118438164Y-40424785D01*
X118574173Y-40216607D01*
X118674063Y-39988881D01*
X118735108Y-39747821D01*
X118755643Y-39500000D01*
X118755462Y-39497821D01*
X118735109Y-39252187D01*
X118735107Y-39252175D01*
X118674063Y-39011118D01*
X118574173Y-38783393D01*
X118438166Y-38575217D01*
X118399662Y-38533391D01*
X118269744Y-38392262D01*
X118073509Y-38239526D01*
X118073507Y-38239525D01*
X118073506Y-38239524D01*
X117854811Y-38121172D01*
X117854802Y-38121169D01*
X117619616Y-38040429D01*
X117374335Y-37999500D01*
X117125665Y-37999500D01*
X116880382Y-38040429D01*
X116880380Y-38040429D01*
X116774393Y-38076815D01*
X116704595Y-38079965D01*
X116646450Y-38047215D01*
X116637590Y-38038355D01*
X116637588Y-38038352D01*
X116518717Y-37919481D01*
X116518709Y-37919475D01*
X116416936Y-37860717D01*
X116416934Y-37860716D01*
X116381790Y-37840425D01*
X116381789Y-37840424D01*
X116369263Y-37837067D01*
X116229057Y-37799499D01*
X116070943Y-37799499D01*
X116063347Y-37799499D01*
X116063331Y-37799500D01*
X113982412Y-37799500D01*
X113915373Y-37779815D01*
X113905097Y-37772445D01*
X113902263Y-37770185D01*
X113902262Y-37770184D01*
X113845496Y-37734515D01*
X113749523Y-37674211D01*
X113579254Y-37614631D01*
X113579249Y-37614630D01*
X113400004Y-37594435D01*
X113399996Y-37594435D01*
X113220750Y-37614630D01*
X113220745Y-37614631D01*
X113050476Y-37674211D01*
X112897737Y-37770184D01*
X112770184Y-37897737D01*
X112674211Y-38050476D01*
X112614631Y-38220745D01*
X112614630Y-38220750D01*
X112594435Y-38399996D01*
X111776864Y-38399996D01*
X111769744Y-38392262D01*
X111573509Y-38239526D01*
X111573507Y-38239525D01*
X111573506Y-38239524D01*
X111354811Y-38121172D01*
X111354802Y-38121169D01*
X111119616Y-38040429D01*
X110874335Y-37999500D01*
X110625665Y-37999500D01*
X110380383Y-38040429D01*
X110145197Y-38121169D01*
X110145188Y-38121172D01*
X109926493Y-38239524D01*
X109730257Y-38392261D01*
X109561833Y-38575217D01*
X109425826Y-38783393D01*
X109325936Y-39011118D01*
X109264892Y-39252175D01*
X109264890Y-39252187D01*
X109244357Y-39499994D01*
X109244357Y-39500005D01*
X109264890Y-39747812D01*
X109264892Y-39747824D01*
X109325936Y-39988881D01*
X109425826Y-40216606D01*
X109561833Y-40424782D01*
X109561836Y-40424785D01*
X109730256Y-40607738D01*
X109730259Y-40607740D01*
X109730262Y-40607743D01*
X109820074Y-40677647D01*
X109860887Y-40734357D01*
X109864562Y-40804130D01*
X109829930Y-40864813D01*
X109767989Y-40897140D01*
X109743912Y-40899500D01*
X107474500Y-40899500D01*
X107407461Y-40879815D01*
X107361706Y-40827011D01*
X107350500Y-40775500D01*
X107350500Y-40705048D01*
X107370185Y-40638009D01*
X107415481Y-40595993D01*
X107573509Y-40510474D01*
X107769744Y-40357738D01*
X107938164Y-40174785D01*
X108074173Y-39966607D01*
X108174063Y-39738881D01*
X108235108Y-39497821D01*
X108255462Y-39252187D01*
X108255643Y-39250005D01*
X108255643Y-39249994D01*
X108235109Y-39002187D01*
X108235107Y-39002175D01*
X108174063Y-38761118D01*
X108074173Y-38533393D01*
X107938166Y-38325217D01*
X107916557Y-38301744D01*
X107769744Y-38142262D01*
X107573509Y-37989526D01*
X107573507Y-37989525D01*
X107573506Y-37989524D01*
X107354811Y-37871172D01*
X107354802Y-37871169D01*
X107119616Y-37790429D01*
X106874335Y-37749500D01*
X106625665Y-37749500D01*
X106380383Y-37790429D01*
X106145197Y-37871169D01*
X106145188Y-37871172D01*
X105926493Y-37989524D01*
X105730257Y-38142261D01*
X105561833Y-38325217D01*
X105425827Y-38533391D01*
X105407440Y-38575311D01*
X105362483Y-38628796D01*
X105295747Y-38649486D01*
X105293884Y-38649500D01*
X101706116Y-38649500D01*
X101639077Y-38629815D01*
X101593322Y-38577011D01*
X101592560Y-38575311D01*
X101574172Y-38533391D01*
X101438166Y-38325217D01*
X101416557Y-38301744D01*
X101269744Y-38142262D01*
X101073509Y-37989526D01*
X101073507Y-37989525D01*
X101073506Y-37989524D01*
X100854811Y-37871172D01*
X100854802Y-37871169D01*
X100619616Y-37790429D01*
X100374335Y-37749500D01*
X100125665Y-37749500D01*
X99880383Y-37790429D01*
X99645197Y-37871169D01*
X99645188Y-37871172D01*
X99426493Y-37989524D01*
X99230257Y-38142261D01*
X99061833Y-38325217D01*
X98925826Y-38533393D01*
X98825936Y-38761118D01*
X98764892Y-39002175D01*
X98764890Y-39002187D01*
X98744357Y-39249994D01*
X91359670Y-39249994D01*
X91359146Y-34749994D01*
X98744859Y-34749994D01*
X98744859Y-34750005D01*
X98765385Y-34997729D01*
X98765387Y-34997738D01*
X98826412Y-35238717D01*
X98926266Y-35466364D01*
X99026564Y-35619882D01*
X99726212Y-34920234D01*
X99737482Y-34962292D01*
X99809890Y-35087708D01*
X99912292Y-35190110D01*
X100037708Y-35262518D01*
X100079765Y-35273787D01*
X99379942Y-35973609D01*
X99426768Y-36010055D01*
X99426770Y-36010056D01*
X99645385Y-36128364D01*
X99645396Y-36128369D01*
X99880506Y-36209083D01*
X100125707Y-36250000D01*
X100374293Y-36250000D01*
X100619493Y-36209083D01*
X100854603Y-36128369D01*
X100854614Y-36128364D01*
X101073228Y-36010057D01*
X101073231Y-36010055D01*
X101120056Y-35973609D01*
X100420234Y-35273787D01*
X100462292Y-35262518D01*
X100587708Y-35190110D01*
X100690110Y-35087708D01*
X100762518Y-34962292D01*
X100773787Y-34920235D01*
X101473434Y-35619882D01*
X101573731Y-35466369D01*
X101673587Y-35238717D01*
X101734612Y-34997738D01*
X101734614Y-34997729D01*
X101755141Y-34750005D01*
X101755141Y-34749994D01*
X105244859Y-34749994D01*
X105244859Y-34750005D01*
X105265385Y-34997729D01*
X105265387Y-34997738D01*
X105326412Y-35238717D01*
X105426266Y-35466364D01*
X105526564Y-35619882D01*
X106226212Y-34920234D01*
X106237482Y-34962292D01*
X106309890Y-35087708D01*
X106412292Y-35190110D01*
X106537708Y-35262518D01*
X106579765Y-35273787D01*
X105879942Y-35973609D01*
X105926768Y-36010055D01*
X105926770Y-36010056D01*
X106145385Y-36128364D01*
X106145396Y-36128369D01*
X106380506Y-36209083D01*
X106625707Y-36250000D01*
X106874293Y-36250000D01*
X107119493Y-36209083D01*
X107354603Y-36128369D01*
X107354614Y-36128364D01*
X107573228Y-36010057D01*
X107573231Y-36010055D01*
X107620056Y-35973609D01*
X106920234Y-35273787D01*
X106962292Y-35262518D01*
X107087708Y-35190110D01*
X107190110Y-35087708D01*
X107262518Y-34962292D01*
X107273787Y-34920235D01*
X107973434Y-35619882D01*
X108073731Y-35466369D01*
X108173587Y-35238717D01*
X108234041Y-34999994D01*
X109244859Y-34999994D01*
X109244859Y-35000005D01*
X109265385Y-35247729D01*
X109265387Y-35247738D01*
X109326412Y-35488717D01*
X109426266Y-35716364D01*
X109526564Y-35869882D01*
X110226212Y-35170234D01*
X110237482Y-35212292D01*
X110309890Y-35337708D01*
X110412292Y-35440110D01*
X110537708Y-35512518D01*
X110579765Y-35523787D01*
X109879942Y-36223609D01*
X109926768Y-36260055D01*
X109926770Y-36260056D01*
X110145385Y-36378364D01*
X110145396Y-36378369D01*
X110380506Y-36459083D01*
X110625707Y-36500000D01*
X110874293Y-36500000D01*
X111119493Y-36459083D01*
X111354603Y-36378369D01*
X111354614Y-36378364D01*
X111573228Y-36260057D01*
X111573231Y-36260055D01*
X111620056Y-36223609D01*
X110920234Y-35523787D01*
X110962292Y-35512518D01*
X111087708Y-35440110D01*
X111190110Y-35337708D01*
X111262518Y-35212292D01*
X111273787Y-35170235D01*
X111973434Y-35869882D01*
X112073731Y-35716369D01*
X112173587Y-35488717D01*
X112234612Y-35247738D01*
X112234614Y-35247729D01*
X112255141Y-35000005D01*
X112255141Y-34999994D01*
X115744859Y-34999994D01*
X115744859Y-35000005D01*
X115765385Y-35247729D01*
X115765387Y-35247738D01*
X115826412Y-35488717D01*
X115926266Y-35716364D01*
X116026564Y-35869882D01*
X116726212Y-35170234D01*
X116737482Y-35212292D01*
X116809890Y-35337708D01*
X116912292Y-35440110D01*
X117037708Y-35512518D01*
X117079765Y-35523787D01*
X116379942Y-36223609D01*
X116426768Y-36260055D01*
X116426770Y-36260056D01*
X116645385Y-36378364D01*
X116645396Y-36378369D01*
X116880506Y-36459083D01*
X117125707Y-36500000D01*
X117374293Y-36500000D01*
X117619493Y-36459083D01*
X117854603Y-36378369D01*
X117854614Y-36378364D01*
X118073228Y-36260057D01*
X118073231Y-36260055D01*
X118120056Y-36223609D01*
X117420234Y-35523787D01*
X117462292Y-35512518D01*
X117587708Y-35440110D01*
X117690110Y-35337708D01*
X117762518Y-35212292D01*
X117773787Y-35170235D01*
X118473434Y-35869882D01*
X118573731Y-35716369D01*
X118673587Y-35488717D01*
X118734612Y-35247738D01*
X118734614Y-35247729D01*
X118755141Y-35000005D01*
X118755141Y-34999994D01*
X118734614Y-34752270D01*
X118734612Y-34752261D01*
X118673587Y-34511282D01*
X118610115Y-34366579D01*
X123570000Y-34366579D01*
X123570000Y-34420000D01*
X124296933Y-34420000D01*
X124295000Y-34427213D01*
X124295000Y-34912787D01*
X124296933Y-34920000D01*
X123570000Y-34920000D01*
X123570000Y-34973420D01*
X123610348Y-35176266D01*
X123610350Y-35176274D01*
X123689500Y-35367358D01*
X123689505Y-35367368D01*
X123804410Y-35539335D01*
X123804413Y-35539339D01*
X123950660Y-35685586D01*
X123950664Y-35685589D01*
X124122631Y-35800494D01*
X124122641Y-35800499D01*
X124313723Y-35879648D01*
X124313725Y-35879649D01*
X124370000Y-35890842D01*
X124370000Y-35079618D01*
X124420446Y-35130064D01*
X124494555Y-35172851D01*
X124577213Y-35195000D01*
X124662787Y-35195000D01*
X124745445Y-35172851D01*
X124819554Y-35130064D01*
X124870000Y-35079618D01*
X124870000Y-35890842D01*
X124926273Y-35879649D01*
X125018829Y-35841311D01*
X125088299Y-35833842D01*
X125150778Y-35865116D01*
X125186431Y-35925205D01*
X125189503Y-35969754D01*
X125178435Y-36067994D01*
X125178435Y-36068003D01*
X125198630Y-36247249D01*
X125198631Y-36247254D01*
X125258211Y-36417523D01*
X125310035Y-36500000D01*
X125354184Y-36570262D01*
X125481738Y-36697816D01*
X125634478Y-36793789D01*
X125804745Y-36853368D01*
X125804750Y-36853369D01*
X125983996Y-36873565D01*
X125984000Y-36873565D01*
X125984004Y-36873565D01*
X126163249Y-36853369D01*
X126163252Y-36853368D01*
X126163255Y-36853368D01*
X126333522Y-36793789D01*
X126486262Y-36697816D01*
X126486267Y-36697810D01*
X126489097Y-36695555D01*
X126491275Y-36694665D01*
X126492158Y-36694111D01*
X126492255Y-36694265D01*
X126553783Y-36669145D01*
X126566412Y-36668500D01*
X129465588Y-36668500D01*
X129532627Y-36688185D01*
X129542903Y-36695555D01*
X129545736Y-36697814D01*
X129545738Y-36697816D01*
X129698478Y-36793789D01*
X129868745Y-36853368D01*
X129868750Y-36853369D01*
X130047996Y-36873565D01*
X130048000Y-36873565D01*
X130048004Y-36873565D01*
X130227249Y-36853369D01*
X130227252Y-36853368D01*
X130227255Y-36853368D01*
X130397522Y-36793789D01*
X130550262Y-36697816D01*
X130677816Y-36570262D01*
X130773789Y-36417522D01*
X130833368Y-36247255D01*
X130833369Y-36247249D01*
X130853565Y-36068003D01*
X130853565Y-36067996D01*
X130833369Y-35888750D01*
X130833368Y-35888745D01*
X130802489Y-35800499D01*
X130773789Y-35718478D01*
X130753123Y-35685589D01*
X130677815Y-35565737D01*
X130550260Y-35438182D01*
X130488873Y-35399610D01*
X130442583Y-35347275D01*
X130431935Y-35278222D01*
X130440286Y-35247163D01*
X130469648Y-35176279D01*
X130469651Y-35176266D01*
X130509999Y-34973420D01*
X130510000Y-34973417D01*
X130510000Y-34920000D01*
X129783067Y-34920000D01*
X129785000Y-34912787D01*
X129785000Y-34427213D01*
X129783067Y-34420000D01*
X130510000Y-34420000D01*
X130510000Y-34366583D01*
X130509999Y-34366579D01*
X130469651Y-34163733D01*
X130469649Y-34163725D01*
X130390499Y-33972641D01*
X130390494Y-33972631D01*
X130275589Y-33800664D01*
X130275586Y-33800660D01*
X130129339Y-33654413D01*
X130129335Y-33654410D01*
X129957368Y-33539505D01*
X129957358Y-33539500D01*
X129766272Y-33460349D01*
X129766267Y-33460347D01*
X129710000Y-33449155D01*
X129710000Y-34260382D01*
X129659554Y-34209936D01*
X129585445Y-34167149D01*
X129502787Y-34145000D01*
X129417213Y-34145000D01*
X129334555Y-34167149D01*
X129260446Y-34209936D01*
X129210000Y-34260382D01*
X129210000Y-33449156D01*
X129209999Y-33449155D01*
X129153732Y-33460347D01*
X129153727Y-33460349D01*
X128962641Y-33539500D01*
X128962631Y-33539505D01*
X128790664Y-33654410D01*
X128790660Y-33654413D01*
X128644413Y-33800660D01*
X128644410Y-33800664D01*
X128529505Y-33972631D01*
X128529500Y-33972641D01*
X128450350Y-34163725D01*
X128450348Y-34163733D01*
X128410000Y-34366579D01*
X128410000Y-34420000D01*
X129136933Y-34420000D01*
X129135000Y-34427213D01*
X129135000Y-34912787D01*
X129136933Y-34920000D01*
X128410000Y-34920000D01*
X128410000Y-34973420D01*
X128450348Y-35176266D01*
X128450350Y-35176274D01*
X128499962Y-35296047D01*
X128507431Y-35365516D01*
X128476156Y-35427996D01*
X128416067Y-35463648D01*
X128385401Y-35467500D01*
X126566412Y-35467500D01*
X126499373Y-35447815D01*
X126489097Y-35440445D01*
X126486263Y-35438185D01*
X126486262Y-35438184D01*
X126424872Y-35399610D01*
X126333523Y-35342211D01*
X126163254Y-35282631D01*
X126163249Y-35282630D01*
X125984004Y-35262435D01*
X125983996Y-35262435D01*
X125804750Y-35282630D01*
X125804735Y-35282634D01*
X125798733Y-35284734D01*
X125728954Y-35288292D01*
X125668329Y-35253559D01*
X125636106Y-35191563D01*
X125636169Y-35143499D01*
X125669999Y-34973420D01*
X125670000Y-34973417D01*
X125670000Y-34920000D01*
X124943067Y-34920000D01*
X124945000Y-34912787D01*
X124945000Y-34427213D01*
X124943067Y-34420000D01*
X125670000Y-34420000D01*
X125670000Y-34366583D01*
X125669999Y-34366579D01*
X125629651Y-34163733D01*
X125629649Y-34163725D01*
X125550499Y-33972641D01*
X125550494Y-33972631D01*
X125435589Y-33800664D01*
X125435586Y-33800660D01*
X125289339Y-33654413D01*
X125289335Y-33654410D01*
X125117368Y-33539505D01*
X125117358Y-33539500D01*
X124926272Y-33460349D01*
X124926267Y-33460347D01*
X124870000Y-33449155D01*
X124870000Y-34260382D01*
X124819554Y-34209936D01*
X124745445Y-34167149D01*
X124662787Y-34145000D01*
X124577213Y-34145000D01*
X124494555Y-34167149D01*
X124420446Y-34209936D01*
X124370000Y-34260382D01*
X124370000Y-33449156D01*
X124369999Y-33449155D01*
X124313732Y-33460347D01*
X124313727Y-33460349D01*
X124122641Y-33539500D01*
X124122631Y-33539505D01*
X123950664Y-33654410D01*
X123950660Y-33654413D01*
X123804413Y-33800660D01*
X123804410Y-33800664D01*
X123689505Y-33972631D01*
X123689500Y-33972641D01*
X123610350Y-34163725D01*
X123610348Y-34163733D01*
X123570000Y-34366579D01*
X118610115Y-34366579D01*
X118573731Y-34283630D01*
X118473434Y-34130116D01*
X117773787Y-34829764D01*
X117762518Y-34787708D01*
X117690110Y-34662292D01*
X117587708Y-34559890D01*
X117462292Y-34487482D01*
X117420235Y-34476212D01*
X118120057Y-33776390D01*
X118120056Y-33776389D01*
X118073229Y-33739943D01*
X117854614Y-33621635D01*
X117854603Y-33621630D01*
X117619493Y-33540916D01*
X117374293Y-33500000D01*
X117125707Y-33500000D01*
X116880506Y-33540916D01*
X116645396Y-33621630D01*
X116645390Y-33621632D01*
X116426761Y-33739949D01*
X116379942Y-33776388D01*
X116379942Y-33776390D01*
X117079765Y-34476212D01*
X117037708Y-34487482D01*
X116912292Y-34559890D01*
X116809890Y-34662292D01*
X116737482Y-34787708D01*
X116726212Y-34829764D01*
X116026564Y-34130116D01*
X115926267Y-34283632D01*
X115826412Y-34511282D01*
X115765387Y-34752261D01*
X115765385Y-34752270D01*
X115744859Y-34999994D01*
X112255141Y-34999994D01*
X112234614Y-34752270D01*
X112234612Y-34752261D01*
X112173587Y-34511282D01*
X112073731Y-34283630D01*
X111973434Y-34130116D01*
X111273787Y-34829764D01*
X111262518Y-34787708D01*
X111190110Y-34662292D01*
X111087708Y-34559890D01*
X110962292Y-34487482D01*
X110920235Y-34476212D01*
X111620057Y-33776390D01*
X111620056Y-33776389D01*
X111573229Y-33739943D01*
X111354614Y-33621635D01*
X111354603Y-33621630D01*
X111119493Y-33540916D01*
X110874293Y-33500000D01*
X110625707Y-33500000D01*
X110380506Y-33540916D01*
X110145396Y-33621630D01*
X110145390Y-33621632D01*
X109926761Y-33739949D01*
X109879942Y-33776388D01*
X109879942Y-33776390D01*
X110579765Y-34476212D01*
X110537708Y-34487482D01*
X110412292Y-34559890D01*
X110309890Y-34662292D01*
X110237482Y-34787708D01*
X110226212Y-34829764D01*
X109526564Y-34130116D01*
X109426267Y-34283632D01*
X109326412Y-34511282D01*
X109265387Y-34752261D01*
X109265385Y-34752270D01*
X109244859Y-34999994D01*
X108234041Y-34999994D01*
X108234612Y-34997738D01*
X108234614Y-34997729D01*
X108255141Y-34750005D01*
X108255141Y-34749994D01*
X108234614Y-34502270D01*
X108234612Y-34502261D01*
X108173587Y-34261282D01*
X108073731Y-34033630D01*
X107973434Y-33880116D01*
X107273787Y-34579764D01*
X107262518Y-34537708D01*
X107190110Y-34412292D01*
X107087708Y-34309890D01*
X106962292Y-34237482D01*
X106920235Y-34226212D01*
X107620057Y-33526390D01*
X107620056Y-33526389D01*
X107573229Y-33489943D01*
X107354614Y-33371635D01*
X107354603Y-33371630D01*
X107119493Y-33290916D01*
X106874293Y-33250000D01*
X106625707Y-33250000D01*
X106380506Y-33290916D01*
X106145396Y-33371630D01*
X106145390Y-33371632D01*
X105926761Y-33489949D01*
X105879942Y-33526388D01*
X105879942Y-33526390D01*
X106579765Y-34226212D01*
X106537708Y-34237482D01*
X106412292Y-34309890D01*
X106309890Y-34412292D01*
X106237482Y-34537708D01*
X106226212Y-34579764D01*
X105526564Y-33880116D01*
X105426267Y-34033632D01*
X105326412Y-34261282D01*
X105265387Y-34502261D01*
X105265385Y-34502270D01*
X105244859Y-34749994D01*
X101755141Y-34749994D01*
X101734614Y-34502270D01*
X101734612Y-34502261D01*
X101673587Y-34261282D01*
X101573731Y-34033630D01*
X101473434Y-33880116D01*
X100773787Y-34579764D01*
X100762518Y-34537708D01*
X100690110Y-34412292D01*
X100587708Y-34309890D01*
X100462292Y-34237482D01*
X100420235Y-34226212D01*
X101120057Y-33526390D01*
X101120056Y-33526389D01*
X101073229Y-33489943D01*
X100854614Y-33371635D01*
X100854603Y-33371630D01*
X100619493Y-33290916D01*
X100374293Y-33250000D01*
X100125707Y-33250000D01*
X99880506Y-33290916D01*
X99645396Y-33371630D01*
X99645390Y-33371632D01*
X99426761Y-33489949D01*
X99379942Y-33526388D01*
X99379942Y-33526390D01*
X100079765Y-34226212D01*
X100037708Y-34237482D01*
X99912292Y-34309890D01*
X99809890Y-34412292D01*
X99737482Y-34537708D01*
X99726212Y-34579764D01*
X99026564Y-33880116D01*
X98926267Y-34033632D01*
X98826412Y-34261282D01*
X98765387Y-34502261D01*
X98765385Y-34502270D01*
X98744859Y-34749994D01*
X91359146Y-34749994D01*
X91358826Y-32004058D01*
X91359090Y-31995964D01*
X91375677Y-31742892D01*
X91377792Y-31726838D01*
X91426470Y-31482115D01*
X91430666Y-31466454D01*
X91452366Y-31402526D01*
X123135000Y-31402526D01*
X123135000Y-31420000D01*
X123960000Y-31420000D01*
X123960000Y-31920000D01*
X123135000Y-31920000D01*
X123135000Y-31937473D01*
X123163933Y-32120147D01*
X123221083Y-32296040D01*
X123221084Y-32296043D01*
X123305052Y-32460837D01*
X123413754Y-32610454D01*
X123413758Y-32610459D01*
X123544540Y-32741241D01*
X123544545Y-32741245D01*
X123694162Y-32849947D01*
X123858956Y-32933915D01*
X123858959Y-32933916D01*
X124034845Y-32991064D01*
X124034858Y-32991067D01*
X124060000Y-32995049D01*
X124060000Y-32164975D01*
X124095095Y-32200070D01*
X124174905Y-32246148D01*
X124263922Y-32270000D01*
X124356078Y-32270000D01*
X124445095Y-32246148D01*
X124524905Y-32200070D01*
X124560000Y-32164975D01*
X124560000Y-32995048D01*
X124585141Y-32991067D01*
X124585154Y-32991064D01*
X124761040Y-32933916D01*
X124761043Y-32933915D01*
X124925837Y-32849947D01*
X125075454Y-32741245D01*
X125075459Y-32741241D01*
X125206241Y-32610459D01*
X125206245Y-32610454D01*
X125314947Y-32460837D01*
X125398915Y-32296043D01*
X125398916Y-32296040D01*
X125456066Y-32120147D01*
X125485000Y-31937473D01*
X125485000Y-31920000D01*
X124660000Y-31920000D01*
X124660000Y-31420000D01*
X125485000Y-31420000D01*
X125485000Y-31402526D01*
X128595000Y-31402526D01*
X128595000Y-31420000D01*
X129420000Y-31420000D01*
X129420000Y-31920000D01*
X128595000Y-31920000D01*
X128595000Y-31937473D01*
X128623933Y-32120147D01*
X128681083Y-32296040D01*
X128681084Y-32296043D01*
X128765052Y-32460837D01*
X128873754Y-32610454D01*
X128873758Y-32610459D01*
X129004540Y-32741241D01*
X129004545Y-32741245D01*
X129154162Y-32849947D01*
X129318956Y-32933915D01*
X129318959Y-32933916D01*
X129494845Y-32991064D01*
X129494858Y-32991067D01*
X129520000Y-32995049D01*
X129520000Y-32164975D01*
X129555095Y-32200070D01*
X129634905Y-32246148D01*
X129723922Y-32270000D01*
X129816078Y-32270000D01*
X129905095Y-32246148D01*
X129984905Y-32200070D01*
X130020000Y-32164975D01*
X130020000Y-32995048D01*
X130045141Y-32991067D01*
X130045154Y-32991064D01*
X130221040Y-32933916D01*
X130221043Y-32933915D01*
X130385837Y-32849947D01*
X130535454Y-32741245D01*
X130535459Y-32741241D01*
X130666241Y-32610459D01*
X130666245Y-32610454D01*
X130774947Y-32460837D01*
X130858915Y-32296043D01*
X130858916Y-32296040D01*
X130916066Y-32120147D01*
X130945000Y-31937473D01*
X130945000Y-31920000D01*
X130120000Y-31920000D01*
X130120000Y-31420000D01*
X130945000Y-31420000D01*
X130945000Y-31402526D01*
X130916066Y-31219852D01*
X130858916Y-31043959D01*
X130858915Y-31043956D01*
X130774947Y-30879162D01*
X130666245Y-30729545D01*
X130666241Y-30729540D01*
X130535459Y-30598758D01*
X130535454Y-30598754D01*
X130385837Y-30490052D01*
X130221043Y-30406084D01*
X130221037Y-30406082D01*
X130045144Y-30348932D01*
X130020000Y-30344950D01*
X130020000Y-31175025D01*
X129984905Y-31139930D01*
X129905095Y-31093852D01*
X129816078Y-31070000D01*
X129723922Y-31070000D01*
X129634905Y-31093852D01*
X129555095Y-31139930D01*
X129520000Y-31175025D01*
X129520000Y-30344950D01*
X129519999Y-30344950D01*
X129494855Y-30348932D01*
X129318962Y-30406082D01*
X129318956Y-30406084D01*
X129154162Y-30490052D01*
X129004545Y-30598754D01*
X129004540Y-30598758D01*
X128873758Y-30729540D01*
X128873754Y-30729545D01*
X128765052Y-30879162D01*
X128681084Y-31043956D01*
X128681083Y-31043959D01*
X128623933Y-31219852D01*
X128595000Y-31402526D01*
X125485000Y-31402526D01*
X125456066Y-31219852D01*
X125398916Y-31043959D01*
X125398915Y-31043956D01*
X125314947Y-30879162D01*
X125206245Y-30729545D01*
X125206241Y-30729540D01*
X125075459Y-30598758D01*
X125075454Y-30598754D01*
X124925837Y-30490052D01*
X124761043Y-30406084D01*
X124761037Y-30406082D01*
X124585144Y-30348932D01*
X124560000Y-30344950D01*
X124560000Y-31175025D01*
X124524905Y-31139930D01*
X124445095Y-31093852D01*
X124356078Y-31070000D01*
X124263922Y-31070000D01*
X124174905Y-31093852D01*
X124095095Y-31139930D01*
X124060000Y-31175025D01*
X124060000Y-30344950D01*
X124059999Y-30344950D01*
X124034855Y-30348932D01*
X123858962Y-30406082D01*
X123858956Y-30406084D01*
X123694162Y-30490052D01*
X123544545Y-30598754D01*
X123544540Y-30598758D01*
X123413758Y-30729540D01*
X123413754Y-30729545D01*
X123305052Y-30879162D01*
X123221084Y-31043956D01*
X123221083Y-31043959D01*
X123163933Y-31219852D01*
X123135000Y-31402526D01*
X91452366Y-31402526D01*
X91510873Y-31230165D01*
X91517072Y-31215199D01*
X91627437Y-30991400D01*
X91635532Y-30977378D01*
X91774168Y-30769892D01*
X91784029Y-30757042D01*
X91948554Y-30569433D01*
X91960015Y-30557973D01*
X91964652Y-30553907D01*
X92039756Y-30488040D01*
X92147610Y-30393455D01*
X92160477Y-30383582D01*
X92367937Y-30244958D01*
X92381973Y-30236852D01*
X92605764Y-30126488D01*
X92620748Y-30120282D01*
X92857019Y-30040075D01*
X92872681Y-30035878D01*
X93117404Y-29987196D01*
X93133479Y-29985080D01*
X93385885Y-29968533D01*
X93393997Y-29968267D01*
X159534108Y-29968267D01*
X159595933Y-29968267D01*
X159604042Y-29968532D01*
G37*
%TD.AperFunction*%
%TD*%
M02*
