%TF.GenerationSoftware,KiCad,Pcbnew,8.0.5*%
%TF.CreationDate,2025-01-09T16:38:30+01:00*%
%TF.ProjectId,rp2040_pad,72703230-3430-45f7-9061-642e6b696361,rev?*%
%TF.SameCoordinates,Original*%
%TF.FileFunction,Legend,Top*%
%TF.FilePolarity,Positive*%
%FSLAX46Y46*%
G04 Gerber Fmt 4.6, Leading zero omitted, Abs format (unit mm)*
G04 Created by KiCad (PCBNEW 8.0.5) date 2025-01-09 16:38:30*
%MOMM*%
%LPD*%
G01*
G04 APERTURE LIST*
%ADD10C,0.200000*%
%ADD11C,0.150000*%
%ADD12C,0.000000*%
%ADD13C,0.120000*%
%ADD14C,0.250000*%
G04 APERTURE END LIST*
D10*
G36*
X147105687Y-36719476D02*
G01*
X147106215Y-36733627D01*
X147096667Y-36807633D01*
X147082606Y-36880676D01*
X146907484Y-37723314D01*
X146905887Y-37730919D01*
X146887675Y-37808336D01*
X146862421Y-37878653D01*
X146804535Y-37910526D01*
X146762404Y-37885980D01*
X146761946Y-37862432D01*
X146772525Y-37787900D01*
X146786584Y-37715621D01*
X146959141Y-36885806D01*
X146962501Y-36870017D01*
X146979960Y-36796690D01*
X147006036Y-36723872D01*
X147064654Y-36691266D01*
X147105687Y-36719476D01*
G37*
G36*
X149278960Y-36719476D02*
G01*
X149279488Y-36733627D01*
X149269939Y-36807633D01*
X149255879Y-36880676D01*
X149080757Y-37723314D01*
X149079160Y-37730919D01*
X149060948Y-37808336D01*
X149035694Y-37878653D01*
X148977808Y-37910526D01*
X148935676Y-37885980D01*
X148935219Y-37862432D01*
X148945798Y-37787900D01*
X148959856Y-37715621D01*
X149132414Y-36885806D01*
X149135774Y-36870017D01*
X149153232Y-36796690D01*
X149179309Y-36723872D01*
X149237927Y-36691266D01*
X149278960Y-36719476D01*
G37*
G36*
X155630983Y-36764173D02*
G01*
X155626952Y-36825108D01*
X155613032Y-36901926D01*
X155456960Y-37651873D01*
X155451496Y-37677710D01*
X155433168Y-37756138D01*
X155408967Y-37829193D01*
X155354745Y-37863632D01*
X155318475Y-37836521D01*
X155318450Y-37819117D01*
X155329022Y-37745578D01*
X155344120Y-37669092D01*
X155502756Y-36906322D01*
X155519695Y-36833597D01*
X155548185Y-36760875D01*
X155596179Y-36738161D01*
X155630983Y-36764173D01*
G37*
G36*
X142621349Y-36761628D02*
G01*
X142695027Y-36782491D01*
X142704056Y-36803168D01*
X142698691Y-36877745D01*
X142679274Y-36970436D01*
X142664626Y-37028446D01*
X142627616Y-37095366D01*
X142617955Y-37100538D01*
X142544452Y-37113318D01*
X142617725Y-36761608D01*
X142621349Y-36761628D01*
G37*
G36*
X143759856Y-36761795D02*
G01*
X143832588Y-36782857D01*
X143841253Y-36809559D01*
X143833688Y-36883607D01*
X143805478Y-37019528D01*
X143794565Y-37064296D01*
X143761147Y-37134200D01*
X143754215Y-37140297D01*
X143681646Y-37160212D01*
X143664794Y-37159846D01*
X143747592Y-36761608D01*
X143759856Y-36761795D01*
G37*
G36*
X147942096Y-37535369D02*
G01*
X147790422Y-37535369D01*
X148099267Y-36837079D01*
X147942096Y-37535369D01*
G37*
G36*
X152174504Y-36871062D02*
G01*
X152162194Y-36949491D01*
X152150637Y-37025253D01*
X152136401Y-37122122D01*
X152123504Y-37214251D01*
X152111946Y-37301640D01*
X152101728Y-37384290D01*
X152092849Y-37462200D01*
X152085310Y-37535369D01*
X151966242Y-37535369D01*
X151982694Y-37477186D01*
X152007541Y-37391770D01*
X152030846Y-37313288D01*
X152057195Y-37225784D01*
X152078956Y-37154236D01*
X152102430Y-37077613D01*
X152127617Y-36995915D01*
X152154516Y-36909143D01*
X152183129Y-36817295D01*
X152174504Y-36871062D01*
G37*
G36*
X154418279Y-36761628D02*
G01*
X154491957Y-36782491D01*
X154500985Y-36803168D01*
X154495621Y-36877745D01*
X154476203Y-36970436D01*
X154461556Y-37028446D01*
X154424546Y-37095366D01*
X154414884Y-37100538D01*
X154341381Y-37113318D01*
X154414654Y-36761608D01*
X154418279Y-36761628D01*
G37*
G36*
X157073533Y-36761795D02*
G01*
X157146266Y-36782857D01*
X157154931Y-36809559D01*
X157147365Y-36883607D01*
X157119155Y-37019528D01*
X157108243Y-37064296D01*
X157074825Y-37134200D01*
X157067893Y-37140297D01*
X156995324Y-37160212D01*
X156978471Y-37159846D01*
X157061270Y-36761608D01*
X157073533Y-36761795D01*
G37*
G36*
X158049521Y-36871062D02*
G01*
X158037211Y-36949491D01*
X158025655Y-37025253D01*
X158011418Y-37122122D01*
X157998521Y-37214251D01*
X157986963Y-37301640D01*
X157976745Y-37384290D01*
X157967867Y-37462200D01*
X157960327Y-37535369D01*
X157841259Y-37535369D01*
X157857711Y-37477186D01*
X157882559Y-37391770D01*
X157905863Y-37313288D01*
X157932213Y-37225784D01*
X157953973Y-37154236D01*
X157977447Y-37077613D01*
X158002634Y-36995915D01*
X158029534Y-36909143D01*
X158058147Y-36817295D01*
X158049521Y-36871062D01*
G37*
G36*
X159201936Y-36774064D02*
G01*
X159220621Y-36814731D01*
X159211776Y-36882909D01*
X159197540Y-36955415D01*
X159062351Y-37606078D01*
X159051680Y-37654519D01*
X159031573Y-37732243D01*
X159001168Y-37805746D01*
X158977709Y-37825353D01*
X158903349Y-37840184D01*
X159127564Y-36761608D01*
X159201936Y-36774064D01*
G37*
G36*
X159843179Y-38569587D02*
G01*
X141715398Y-38569587D01*
X141715398Y-38402920D01*
X143915387Y-38402920D01*
X145103506Y-38402920D01*
X145127686Y-38285683D01*
X143939567Y-38285683D01*
X143915387Y-38402920D01*
X141715398Y-38402920D01*
X141715398Y-38145000D01*
X141882065Y-38145000D01*
X142330129Y-38145000D01*
X142486200Y-37394685D01*
X142498939Y-37394921D01*
X142568632Y-37421430D01*
X142570489Y-37427287D01*
X142567294Y-37500703D01*
X142553244Y-37577868D01*
X142435275Y-38145000D01*
X142853297Y-38145000D01*
X143011933Y-38145000D01*
X143459996Y-38145000D01*
X145194731Y-38145000D01*
X146114305Y-38145000D01*
X146167794Y-37887079D01*
X145732187Y-37887079D01*
X145750547Y-37865464D01*
X146349511Y-37865464D01*
X146351272Y-37880793D01*
X146369642Y-37955701D01*
X146401168Y-38023000D01*
X146416202Y-38045495D01*
X146470859Y-38098109D01*
X146538189Y-38133276D01*
X146549991Y-38137535D01*
X146622629Y-38156048D01*
X146700010Y-38165665D01*
X146778890Y-38168447D01*
X146841232Y-38165810D01*
X146914359Y-38155424D01*
X146990282Y-38135108D01*
X147044298Y-38112993D01*
X147111900Y-38073048D01*
X147169434Y-38025931D01*
X147202823Y-37992066D01*
X147250600Y-37931564D01*
X147288869Y-37862533D01*
X147297562Y-37840184D01*
X147394748Y-37840184D01*
X147878715Y-37840184D01*
X147815334Y-38145000D01*
X148246179Y-38145000D01*
X148304303Y-37865464D01*
X148522784Y-37865464D01*
X148524545Y-37880793D01*
X148542915Y-37955701D01*
X148574441Y-38023000D01*
X148589475Y-38045495D01*
X148644132Y-38098109D01*
X148711461Y-38133276D01*
X148723264Y-38137535D01*
X148795902Y-38156048D01*
X148873282Y-38165665D01*
X148952163Y-38168447D01*
X149014505Y-38165810D01*
X149087632Y-38155424D01*
X149126588Y-38145000D01*
X149946475Y-38145000D01*
X150341050Y-38145000D01*
X150560502Y-37032718D01*
X150475505Y-38145000D01*
X150759438Y-38145000D01*
X151133129Y-37009270D01*
X150885101Y-38145000D01*
X151279675Y-38145000D01*
X151352581Y-38145000D01*
X151817498Y-38145000D01*
X151905792Y-37840184D01*
X152035851Y-37840184D01*
X151993719Y-38145000D01*
X152452407Y-38145000D01*
X152472282Y-37824771D01*
X152592571Y-37824771D01*
X152595655Y-37903932D01*
X152596665Y-37911619D01*
X152617073Y-37982745D01*
X152661175Y-38048918D01*
X152720952Y-38098105D01*
X152789448Y-38132108D01*
X152860843Y-38152991D01*
X152942130Y-38165081D01*
X153021371Y-38168447D01*
X153044062Y-38168122D01*
X153120959Y-38161868D01*
X153193928Y-38147656D01*
X153201959Y-38145000D01*
X153678995Y-38145000D01*
X154127058Y-38145000D01*
X154283129Y-37394685D01*
X154295869Y-37394921D01*
X154365561Y-37421430D01*
X154367418Y-37427287D01*
X154364224Y-37500703D01*
X154350174Y-37577868D01*
X154232205Y-38145000D01*
X154650226Y-38145000D01*
X154711975Y-37847924D01*
X154880211Y-37847924D01*
X154891821Y-37921117D01*
X154919504Y-37990394D01*
X154946478Y-38032274D01*
X154998788Y-38084532D01*
X155065317Y-38124117D01*
X155071511Y-38126844D01*
X155144177Y-38151130D01*
X155217450Y-38164118D01*
X155297592Y-38168447D01*
X155323617Y-38168038D01*
X155399103Y-38161904D01*
X155478423Y-38146455D01*
X155482842Y-38145000D01*
X156325610Y-38145000D01*
X156773674Y-38145000D01*
X157227599Y-38145000D01*
X157692515Y-38145000D01*
X157780809Y-37840184D01*
X157910868Y-37840184D01*
X157868736Y-38145000D01*
X158327424Y-38145000D01*
X158391905Y-38145000D01*
X158941085Y-38145000D01*
X159021694Y-38143637D01*
X159097801Y-38138929D01*
X159175558Y-38127780D01*
X159180600Y-38126655D01*
X159251853Y-38103509D01*
X159318806Y-38065865D01*
X159322697Y-38063062D01*
X159378236Y-38009458D01*
X159418824Y-37944232D01*
X159445641Y-37873388D01*
X159466558Y-37799949D01*
X159485837Y-37720551D01*
X159503087Y-37641249D01*
X159623988Y-37058363D01*
X159641011Y-36974635D01*
X159656671Y-36890691D01*
X159669030Y-36812873D01*
X159676378Y-36737428D01*
X159676512Y-36727087D01*
X159665661Y-36652995D01*
X159633879Y-36585020D01*
X159614869Y-36560458D01*
X159554081Y-36514066D01*
X159483670Y-36486468D01*
X159454281Y-36479513D01*
X159376337Y-36468385D01*
X159301109Y-36462473D01*
X159227439Y-36459140D01*
X159143787Y-36457257D01*
X159069678Y-36456793D01*
X158742882Y-36456793D01*
X158455276Y-37840184D01*
X158391905Y-38145000D01*
X158327424Y-38145000D01*
X158432205Y-36456793D01*
X157797662Y-36456793D01*
X157433455Y-37535369D01*
X157227599Y-38145000D01*
X156773674Y-38145000D01*
X156915090Y-37465027D01*
X157019504Y-37465027D01*
X157037007Y-37464873D01*
X157111446Y-37460352D01*
X157185864Y-37447987D01*
X157257641Y-37425460D01*
X157286800Y-37412131D01*
X157351562Y-37369522D01*
X157403454Y-37310788D01*
X157415475Y-37290690D01*
X157445936Y-37221782D01*
X157468025Y-37150527D01*
X157485519Y-37075949D01*
X157515561Y-36932334D01*
X157531207Y-36850861D01*
X157542270Y-36775156D01*
X157546702Y-36700059D01*
X157538408Y-36637448D01*
X157507135Y-36568900D01*
X157504725Y-36565469D01*
X157447990Y-36515242D01*
X157378907Y-36485369D01*
X157348571Y-36477137D01*
X157275556Y-36464858D01*
X157195771Y-36458579D01*
X157113660Y-36456793D01*
X156676587Y-36456793D01*
X156530423Y-37159846D01*
X156325610Y-38145000D01*
X155482842Y-38145000D01*
X155552948Y-38121919D01*
X155567280Y-38115944D01*
X155634779Y-38081304D01*
X155695336Y-38038721D01*
X155748953Y-37988196D01*
X155794555Y-37932017D01*
X155834222Y-37866337D01*
X155862892Y-37796587D01*
X155876163Y-37752271D01*
X155895820Y-37677556D01*
X155914862Y-37597529D01*
X155932550Y-37518051D01*
X155948255Y-37444145D01*
X156006507Y-37162777D01*
X156016081Y-37116427D01*
X156032911Y-37031668D01*
X156046649Y-36957497D01*
X156058771Y-36884344D01*
X156068789Y-36804839D01*
X156069819Y-36753891D01*
X156058055Y-36680819D01*
X156030321Y-36611765D01*
X156003507Y-36569725D01*
X155951352Y-36517312D01*
X155884874Y-36477676D01*
X155878703Y-36474948D01*
X155806289Y-36450662D01*
X155733245Y-36437675D01*
X155653332Y-36433346D01*
X155627172Y-36433755D01*
X155551322Y-36439889D01*
X155471667Y-36455338D01*
X155396877Y-36479874D01*
X155382587Y-36485850D01*
X155315218Y-36520540D01*
X155254646Y-36563245D01*
X155200872Y-36613963D01*
X155155305Y-36670141D01*
X155115761Y-36735822D01*
X155087299Y-36805572D01*
X155074153Y-36849763D01*
X155054621Y-36924352D01*
X155035652Y-37004307D01*
X155017998Y-37083751D01*
X155002302Y-37157648D01*
X154944050Y-37439016D01*
X154934473Y-37485365D01*
X154917617Y-37570124D01*
X154903827Y-37644296D01*
X154891613Y-37717448D01*
X154881402Y-37796953D01*
X154880884Y-37819117D01*
X154880211Y-37847924D01*
X154711975Y-37847924D01*
X154743283Y-37697302D01*
X154745873Y-37684769D01*
X154761624Y-37605574D01*
X154775744Y-37525699D01*
X154783949Y-37447442D01*
X154778437Y-37410880D01*
X154748412Y-37343761D01*
X154719097Y-37306890D01*
X154653524Y-37270854D01*
X154668619Y-37268868D01*
X154739459Y-37242609D01*
X154798604Y-37193551D01*
X154829195Y-37150595D01*
X154860107Y-37083220D01*
X154884470Y-37006398D01*
X154903384Y-36926106D01*
X154906131Y-36912640D01*
X154918736Y-36836597D01*
X154925042Y-36758168D01*
X154921173Y-36682101D01*
X154899720Y-36607369D01*
X154871854Y-36561298D01*
X154816916Y-36510397D01*
X154746214Y-36481339D01*
X154671713Y-36469474D01*
X154592249Y-36462930D01*
X154509152Y-36459190D01*
X154429337Y-36457392D01*
X154339916Y-36456793D01*
X154029972Y-36456793D01*
X153893481Y-37113318D01*
X153678995Y-38145000D01*
X153201959Y-38145000D01*
X153272513Y-38121667D01*
X153345969Y-38085282D01*
X153388370Y-38058631D01*
X153447801Y-38013236D01*
X153502290Y-37958117D01*
X153547470Y-37891842D01*
X153576825Y-37827156D01*
X153601984Y-37755190D01*
X153623159Y-37682092D01*
X153643973Y-37598458D01*
X153661043Y-37520715D01*
X153677529Y-37441580D01*
X153229466Y-37441580D01*
X153184036Y-37660666D01*
X153178815Y-37685253D01*
X153160825Y-37760032D01*
X153135310Y-37830293D01*
X153074494Y-37863632D01*
X153029797Y-37833224D01*
X153034692Y-37761439D01*
X153048482Y-37685945D01*
X153206385Y-36927571D01*
X153207959Y-36920032D01*
X153225957Y-36843019D01*
X153251081Y-36771866D01*
X153316660Y-36738161D01*
X153359159Y-36763073D01*
X153354465Y-36831710D01*
X153340108Y-36908886D01*
X153278192Y-37207107D01*
X153726256Y-37207107D01*
X153760694Y-37041877D01*
X153763631Y-37027476D01*
X153778623Y-36945989D01*
X153790417Y-36861567D01*
X153796381Y-36779123D01*
X153792568Y-36697128D01*
X153770568Y-36624175D01*
X153726230Y-36559966D01*
X153666538Y-36509183D01*
X153598104Y-36472523D01*
X153526519Y-36450009D01*
X153444815Y-36436975D01*
X153365020Y-36433346D01*
X153330279Y-36434101D01*
X153254580Y-36441327D01*
X153182301Y-36456203D01*
X153106001Y-36481706D01*
X153098644Y-36484740D01*
X153029321Y-36518944D01*
X152967726Y-36560160D01*
X152908897Y-36613597D01*
X152872489Y-36655958D01*
X152829041Y-36721045D01*
X152798988Y-36787986D01*
X152785243Y-36831749D01*
X152764635Y-36908743D01*
X152747325Y-36982599D01*
X152731577Y-37056165D01*
X152631559Y-37536102D01*
X152619939Y-37595224D01*
X152606329Y-37676866D01*
X152597304Y-37750059D01*
X152592571Y-37824771D01*
X152472282Y-37824771D01*
X152557187Y-36456793D01*
X151922644Y-36456793D01*
X151558437Y-37535369D01*
X151352581Y-38145000D01*
X151279675Y-38145000D01*
X151630652Y-36456793D01*
X151054727Y-36456793D01*
X150804867Y-37245942D01*
X150846266Y-36820593D01*
X150849074Y-36782720D01*
X150855024Y-36697381D01*
X150860134Y-36616285D01*
X150864401Y-36539431D01*
X150868248Y-36456793D01*
X150297452Y-36456793D01*
X149946475Y-38145000D01*
X149126588Y-38145000D01*
X149163555Y-38135108D01*
X149217570Y-38112993D01*
X149285173Y-38073048D01*
X149342707Y-38025931D01*
X149376096Y-37992066D01*
X149423873Y-37931564D01*
X149462142Y-37862533D01*
X149481559Y-37812616D01*
X149503404Y-37741351D01*
X149522821Y-37664574D01*
X149539811Y-37587027D01*
X149654117Y-37037114D01*
X149663373Y-36991524D01*
X149676514Y-36919346D01*
X149687691Y-36840766D01*
X149692585Y-36760875D01*
X149692340Y-36749950D01*
X149680743Y-36672209D01*
X149651919Y-36601873D01*
X149634870Y-36576006D01*
X149578961Y-36521760D01*
X149513066Y-36482072D01*
X149500599Y-36476172D01*
X149426705Y-36450524D01*
X149351715Y-36437200D01*
X149277861Y-36433346D01*
X149196505Y-36437696D01*
X149119500Y-36450748D01*
X149046845Y-36472501D01*
X148978541Y-36502955D01*
X148938883Y-36525826D01*
X148875929Y-36572628D01*
X148823813Y-36626676D01*
X148782536Y-36687969D01*
X148763009Y-36726797D01*
X148733402Y-36800419D01*
X148709149Y-36876446D01*
X148689588Y-36950236D01*
X148671161Y-37031985D01*
X148551727Y-37607543D01*
X148545247Y-37639692D01*
X148531777Y-37717361D01*
X148523248Y-37790725D01*
X148522803Y-37862432D01*
X148522784Y-37865464D01*
X148304303Y-37865464D01*
X148309560Y-37840184D01*
X148425331Y-37840184D01*
X148488712Y-37535369D01*
X148372941Y-37535369D01*
X148597156Y-36456793D01*
X148036618Y-36456793D01*
X147460772Y-37535369D01*
X147456664Y-37543063D01*
X147394748Y-37840184D01*
X147297562Y-37840184D01*
X147308286Y-37812616D01*
X147330131Y-37741351D01*
X147349548Y-37664574D01*
X147366538Y-37587027D01*
X147480844Y-37037114D01*
X147490100Y-36991524D01*
X147503241Y-36919346D01*
X147514418Y-36840766D01*
X147519312Y-36760875D01*
X147519067Y-36749950D01*
X147507470Y-36672209D01*
X147478646Y-36601873D01*
X147461597Y-36576006D01*
X147405688Y-36521760D01*
X147339794Y-36482072D01*
X147327326Y-36476172D01*
X147253432Y-36450524D01*
X147178442Y-36437200D01*
X147104588Y-36433346D01*
X147023232Y-36437696D01*
X146946227Y-36450748D01*
X146873572Y-36472501D01*
X146805268Y-36502955D01*
X146765610Y-36525826D01*
X146702656Y-36572628D01*
X146650540Y-36626676D01*
X146609263Y-36687969D01*
X146589736Y-36726797D01*
X146560129Y-36800419D01*
X146535876Y-36876446D01*
X146516316Y-36950236D01*
X146497889Y-37031985D01*
X146378454Y-37607543D01*
X146371974Y-37639692D01*
X146358504Y-37717361D01*
X146349975Y-37790725D01*
X146349530Y-37862432D01*
X146349511Y-37865464D01*
X145750547Y-37865464D01*
X145785568Y-37824235D01*
X145836349Y-37764112D01*
X145884532Y-37706712D01*
X145951933Y-37625715D01*
X146013486Y-37550843D01*
X146069192Y-37482094D01*
X146119051Y-37419471D01*
X146176433Y-37345500D01*
X146223419Y-37282416D01*
X146274406Y-37208206D01*
X146287261Y-37187617D01*
X146327697Y-37116568D01*
X146361051Y-37047097D01*
X146390498Y-36969634D01*
X146410694Y-36894232D01*
X146415309Y-36869587D01*
X146422650Y-36787544D01*
X146416281Y-36712057D01*
X146392215Y-36633816D01*
X146350244Y-36564138D01*
X146298815Y-36513175D01*
X146233326Y-36474729D01*
X146153778Y-36448801D01*
X146074403Y-36436539D01*
X146000366Y-36433346D01*
X145924016Y-36437281D01*
X145846147Y-36450701D01*
X145774685Y-36473646D01*
X145726852Y-36496017D01*
X145661198Y-36538589D01*
X145602861Y-36591981D01*
X145576989Y-36621459D01*
X145534056Y-36680879D01*
X145498813Y-36750983D01*
X145475818Y-36819471D01*
X145455373Y-36896371D01*
X145439096Y-36969337D01*
X145423709Y-37042976D01*
X145812055Y-37042976D01*
X145847958Y-36871151D01*
X145867498Y-36794008D01*
X145898883Y-36726071D01*
X145900658Y-36723929D01*
X145967759Y-36691266D01*
X146019417Y-36721308D01*
X146024977Y-36743576D01*
X146018318Y-36818761D01*
X146003320Y-36868976D01*
X145972926Y-36936470D01*
X145933891Y-37006245D01*
X145890457Y-37074849D01*
X145845810Y-37139455D01*
X145794765Y-37209983D01*
X145747540Y-37273871D01*
X145692652Y-37347181D01*
X145630100Y-37429912D01*
X145584142Y-37490301D01*
X145534777Y-37554877D01*
X145482006Y-37623640D01*
X145425829Y-37696591D01*
X145366247Y-37773729D01*
X145303258Y-37855055D01*
X145236863Y-37940568D01*
X145194731Y-38145000D01*
X143459996Y-38145000D01*
X143601413Y-37465027D01*
X143705826Y-37465027D01*
X143723329Y-37464873D01*
X143797769Y-37460352D01*
X143872187Y-37447987D01*
X143943963Y-37425460D01*
X143973122Y-37412131D01*
X144037884Y-37369522D01*
X144089776Y-37310788D01*
X144101798Y-37290690D01*
X144132259Y-37221782D01*
X144154348Y-37150527D01*
X144171842Y-37075949D01*
X144201884Y-36932334D01*
X144217530Y-36850861D01*
X144228592Y-36775156D01*
X144233025Y-36700059D01*
X144224730Y-36637448D01*
X144193457Y-36568900D01*
X144191047Y-36565469D01*
X144134312Y-36515242D01*
X144065230Y-36485369D01*
X144034894Y-36477137D01*
X143961879Y-36464858D01*
X143882093Y-36458579D01*
X143799982Y-36456793D01*
X143362909Y-36456793D01*
X143216745Y-37159846D01*
X143011933Y-38145000D01*
X142853297Y-38145000D01*
X142946353Y-37697302D01*
X142948944Y-37684769D01*
X142964694Y-37605574D01*
X142978814Y-37525699D01*
X142987020Y-37447442D01*
X142981507Y-37410880D01*
X142951482Y-37343761D01*
X142922168Y-37306890D01*
X142856594Y-37270854D01*
X142871689Y-37268868D01*
X142942529Y-37242609D01*
X143001674Y-37193551D01*
X143032266Y-37150595D01*
X143063178Y-37083220D01*
X143087541Y-37006398D01*
X143106454Y-36926106D01*
X143109202Y-36912640D01*
X143121807Y-36836597D01*
X143128113Y-36758168D01*
X143124243Y-36682101D01*
X143102791Y-36607369D01*
X143074924Y-36561298D01*
X143019987Y-36510397D01*
X142949284Y-36481339D01*
X142874783Y-36469474D01*
X142795320Y-36462930D01*
X142712222Y-36459190D01*
X142632407Y-36457392D01*
X142542986Y-36456793D01*
X142233042Y-36456793D01*
X142096551Y-37113318D01*
X141882065Y-38145000D01*
X141715398Y-38145000D01*
X141715398Y-36266679D01*
X159843179Y-36266679D01*
X159843179Y-38569587D01*
G37*
G36*
X148413904Y-32815505D02*
G01*
X148512142Y-32843321D01*
X148524179Y-32870891D01*
X148517027Y-32970327D01*
X148491137Y-33093914D01*
X148471607Y-33171261D01*
X148422260Y-33260488D01*
X148409378Y-33267384D01*
X148311374Y-33284424D01*
X148409071Y-32815478D01*
X148413904Y-32815505D01*
G37*
G36*
X154439864Y-32815505D02*
G01*
X154538101Y-32843321D01*
X154550139Y-32870891D01*
X154542986Y-32970327D01*
X154517096Y-33093914D01*
X154497567Y-33171261D01*
X154448220Y-33260488D01*
X154435338Y-33267384D01*
X154337334Y-33284424D01*
X154435031Y-32815478D01*
X154439864Y-32815505D01*
G37*
G36*
X158169465Y-34913485D02*
G01*
X145287198Y-34913485D01*
X145287198Y-34660000D01*
X145509420Y-34660000D01*
X146106838Y-34660000D01*
X146623168Y-34660000D01*
X147220586Y-34660000D01*
X147428192Y-34660000D01*
X148025610Y-34660000D01*
X148233705Y-33659581D01*
X148250691Y-33659894D01*
X148343614Y-33695240D01*
X148346090Y-33703050D01*
X148341831Y-33800938D01*
X148323098Y-33903824D01*
X148165806Y-34660000D01*
X148723168Y-34660000D01*
X148804404Y-34269169D01*
X149010098Y-34269169D01*
X149016748Y-34368374D01*
X149047193Y-34459484D01*
X149106961Y-34538704D01*
X149186741Y-34600404D01*
X149255135Y-34635807D01*
X149355024Y-34668548D01*
X149455102Y-34685584D01*
X149565806Y-34691263D01*
X149643337Y-34688584D01*
X149742866Y-34676677D01*
X149814683Y-34660000D01*
X150620446Y-34660000D01*
X151217864Y-34660000D01*
X152402442Y-34660000D01*
X152999860Y-34660000D01*
X153454152Y-34660000D01*
X154051570Y-34660000D01*
X154259665Y-33659581D01*
X154276650Y-33659894D01*
X154369574Y-33695240D01*
X154372050Y-33703050D01*
X154367791Y-33800938D01*
X154349057Y-33903824D01*
X154191765Y-34660000D01*
X154749127Y-34660000D01*
X155229797Y-34660000D01*
X155785694Y-34660000D01*
X156321563Y-34660000D01*
X156860362Y-34660000D01*
X156957571Y-34191053D01*
X156418771Y-34191053D01*
X156321563Y-34660000D01*
X155785694Y-34660000D01*
X155896072Y-34128527D01*
X156431960Y-34128527D01*
X156970760Y-34128527D01*
X157015212Y-33915059D01*
X157074014Y-33987988D01*
X157167502Y-34025271D01*
X157272156Y-34034738D01*
X157367659Y-34026199D01*
X157467643Y-33997081D01*
X157562316Y-33947299D01*
X157624507Y-33901870D01*
X157700046Y-33827315D01*
X157754291Y-33745066D01*
X157761542Y-33730434D01*
X157798694Y-33639864D01*
X157828461Y-33542701D01*
X157851988Y-33443182D01*
X157908164Y-33171584D01*
X157917140Y-33126909D01*
X157935703Y-33018732D01*
X157947243Y-32916083D01*
X157947243Y-32810593D01*
X157943717Y-32781642D01*
X157920075Y-32684042D01*
X157878855Y-32592240D01*
X157859597Y-32561597D01*
X157789179Y-32487599D01*
X157702023Y-32434459D01*
X157613059Y-32402198D01*
X157511396Y-32383328D01*
X157407955Y-32377794D01*
X157392965Y-32377897D01*
X157291482Y-32384389D01*
X157182885Y-32404173D01*
X157082165Y-32437145D01*
X156989323Y-32483307D01*
X156946580Y-32510235D01*
X156862019Y-32574841D01*
X156793531Y-32645011D01*
X156736287Y-32729504D01*
X156708083Y-32788580D01*
X156671065Y-32887010D01*
X156639225Y-32991569D01*
X156612343Y-33094884D01*
X156590230Y-33190635D01*
X157165666Y-33190635D01*
X157193998Y-33054347D01*
X157200852Y-33022167D01*
X157224145Y-32924009D01*
X157256036Y-32830621D01*
X157334193Y-32784214D01*
X157377669Y-32816943D01*
X157377318Y-32865765D01*
X157360572Y-32964954D01*
X157286322Y-33323014D01*
X157273282Y-33384015D01*
X157249564Y-33482762D01*
X157216468Y-33579469D01*
X157131960Y-33628318D01*
X157086588Y-33573210D01*
X157094836Y-33472002D01*
X156568248Y-33472002D01*
X156431960Y-34128527D01*
X155896072Y-34128527D01*
X155954710Y-33846182D01*
X156672295Y-32409057D01*
X156116399Y-32409057D01*
X156102591Y-32442105D01*
X156062543Y-32539208D01*
X156024556Y-32633255D01*
X155977112Y-32753896D01*
X155933331Y-32869102D01*
X155893214Y-32978874D01*
X155856761Y-33083212D01*
X155823971Y-33182115D01*
X155788136Y-33298101D01*
X155791005Y-33283924D01*
X155806896Y-33180426D01*
X155818407Y-33070040D01*
X155826482Y-32965931D01*
X155833550Y-32847779D01*
X155838190Y-32749948D01*
X155842263Y-32644217D01*
X155845769Y-32530587D01*
X155848709Y-32409057D01*
X155295743Y-32409057D01*
X155400279Y-33839832D01*
X155229797Y-34660000D01*
X154749127Y-34660000D01*
X154873203Y-34063070D01*
X154876657Y-34046359D01*
X154897657Y-33940765D01*
X154916484Y-33834265D01*
X154927424Y-33729923D01*
X154920074Y-33681173D01*
X154880041Y-33591681D01*
X154840955Y-33542520D01*
X154753524Y-33494473D01*
X154773651Y-33491824D01*
X154868104Y-33456812D01*
X154946964Y-33391402D01*
X154987752Y-33334127D01*
X155028968Y-33244294D01*
X155061453Y-33141864D01*
X155086671Y-33034808D01*
X155090334Y-33016854D01*
X155107140Y-32915463D01*
X155115549Y-32810890D01*
X155110389Y-32709468D01*
X155081786Y-32609825D01*
X155044631Y-32548398D01*
X154971381Y-32480529D01*
X154877110Y-32441786D01*
X154777776Y-32425965D01*
X154671824Y-32417240D01*
X154561028Y-32412254D01*
X154454608Y-32409856D01*
X154335380Y-32409057D01*
X153922121Y-32409057D01*
X153740133Y-33284424D01*
X153454152Y-34660000D01*
X152999860Y-34660000D01*
X153370132Y-32878004D01*
X153706210Y-32878004D01*
X153803907Y-32409057D01*
X152535799Y-32409057D01*
X152438101Y-32878004D01*
X152772714Y-32878004D01*
X152402442Y-34660000D01*
X151217864Y-34660000D01*
X151588136Y-32878004D01*
X151924214Y-32878004D01*
X152021912Y-32409057D01*
X150753803Y-32409057D01*
X150656106Y-32878004D01*
X150990718Y-32878004D01*
X150620446Y-34660000D01*
X149814683Y-34660000D01*
X149849581Y-34651896D01*
X149950732Y-34615059D01*
X149972220Y-34605327D01*
X150059705Y-34557946D01*
X150139237Y-34498412D01*
X150205233Y-34424549D01*
X150243121Y-34359978D01*
X150281147Y-34269015D01*
X150310861Y-34171875D01*
X150333705Y-34074305D01*
X150345304Y-34014594D01*
X150361161Y-33904547D01*
X150367229Y-33807002D01*
X150360092Y-33696391D01*
X150331263Y-33598520D01*
X150309945Y-33560052D01*
X150242717Y-33474323D01*
X150170778Y-33402332D01*
X150096739Y-33337302D01*
X150009892Y-33267693D01*
X149931193Y-33208709D01*
X149866156Y-33157441D01*
X149804187Y-33080725D01*
X149796819Y-33032651D01*
X149808094Y-32932226D01*
X149813490Y-32909261D01*
X149854989Y-32819874D01*
X149929239Y-32784214D01*
X149976622Y-32809127D01*
X149979574Y-32847048D01*
X149964410Y-32944438D01*
X149926308Y-33128108D01*
X150483670Y-33128108D01*
X150504187Y-33027480D01*
X150519666Y-32947407D01*
X150534366Y-32847847D01*
X150541312Y-32741343D01*
X150531542Y-32644019D01*
X150510079Y-32588668D01*
X150444077Y-32509530D01*
X150358129Y-32453021D01*
X150290870Y-32423709D01*
X150193265Y-32396601D01*
X150095996Y-32382496D01*
X149988834Y-32377794D01*
X149925970Y-32379428D01*
X149818345Y-32390604D01*
X149717830Y-32412367D01*
X149624424Y-32444717D01*
X149531621Y-32491648D01*
X149445076Y-32555063D01*
X149374808Y-32630830D01*
X149332187Y-32698668D01*
X149289786Y-32795277D01*
X149257027Y-32899187D01*
X149232170Y-33004033D01*
X149217118Y-33089060D01*
X149208686Y-33193310D01*
X149217027Y-33297613D01*
X149245713Y-33394850D01*
X149296650Y-33478841D01*
X149304349Y-33487308D01*
X149378488Y-33556200D01*
X149454278Y-33617968D01*
X149538450Y-33682540D01*
X149610555Y-33737664D01*
X149690125Y-33803762D01*
X149757780Y-33875003D01*
X149771336Y-33910754D01*
X149772137Y-34013723D01*
X149754849Y-34118757D01*
X149746408Y-34153649D01*
X149704047Y-34244298D01*
X149621981Y-34284842D01*
X149563852Y-34256022D01*
X149561287Y-34204120D01*
X149577041Y-34106057D01*
X149637613Y-33815896D01*
X149080251Y-33815896D01*
X149047522Y-33973677D01*
X149032732Y-34050160D01*
X149016757Y-34161123D01*
X149010098Y-34269169D01*
X148804404Y-34269169D01*
X148847243Y-34063070D01*
X148850697Y-34046359D01*
X148871698Y-33940765D01*
X148890524Y-33834265D01*
X148901465Y-33729923D01*
X148894115Y-33681173D01*
X148854082Y-33591681D01*
X148814995Y-33542520D01*
X148727564Y-33494473D01*
X148747691Y-33491824D01*
X148842144Y-33456812D01*
X148921004Y-33391402D01*
X148961793Y-33334127D01*
X149003009Y-33244294D01*
X149035493Y-33141864D01*
X149060711Y-33034808D01*
X149064374Y-33016854D01*
X149081181Y-32915463D01*
X149089589Y-32810890D01*
X149084430Y-32709468D01*
X149055826Y-32609825D01*
X149018671Y-32548398D01*
X148945421Y-32480529D01*
X148851151Y-32441786D01*
X148751816Y-32425965D01*
X148645865Y-32417240D01*
X148535068Y-32412254D01*
X148428648Y-32409856D01*
X148309420Y-32409057D01*
X147896161Y-32409057D01*
X147714173Y-33284424D01*
X147428192Y-34660000D01*
X147220586Y-34660000D01*
X147688555Y-32409057D01*
X147091137Y-32409057D01*
X146623168Y-34660000D01*
X146106838Y-34660000D01*
X146301744Y-33722107D01*
X146651500Y-33722107D01*
X146748709Y-33253161D01*
X146398953Y-33253161D01*
X146477110Y-32878004D01*
X146869853Y-32878004D01*
X146967550Y-32409057D01*
X145977390Y-32409057D01*
X145509420Y-34660000D01*
X145287198Y-34660000D01*
X145287198Y-32155572D01*
X158169465Y-32155572D01*
X158169465Y-34913485D01*
G37*
D11*
X106482095Y-47090819D02*
X106482095Y-47900342D01*
X106482095Y-47900342D02*
X106529714Y-47995580D01*
X106529714Y-47995580D02*
X106577333Y-48043200D01*
X106577333Y-48043200D02*
X106672571Y-48090819D01*
X106672571Y-48090819D02*
X106863047Y-48090819D01*
X106863047Y-48090819D02*
X106958285Y-48043200D01*
X106958285Y-48043200D02*
X107005904Y-47995580D01*
X107005904Y-47995580D02*
X107053523Y-47900342D01*
X107053523Y-47900342D02*
X107053523Y-47090819D01*
X107958285Y-47424152D02*
X107958285Y-48090819D01*
X107720190Y-47043200D02*
X107482095Y-47757485D01*
X107482095Y-47757485D02*
X108101142Y-47757485D01*
X123803580Y-63205666D02*
X123851200Y-63253285D01*
X123851200Y-63253285D02*
X123898819Y-63396142D01*
X123898819Y-63396142D02*
X123898819Y-63491380D01*
X123898819Y-63491380D02*
X123851200Y-63634237D01*
X123851200Y-63634237D02*
X123755961Y-63729475D01*
X123755961Y-63729475D02*
X123660723Y-63777094D01*
X123660723Y-63777094D02*
X123470247Y-63824713D01*
X123470247Y-63824713D02*
X123327390Y-63824713D01*
X123327390Y-63824713D02*
X123136914Y-63777094D01*
X123136914Y-63777094D02*
X123041676Y-63729475D01*
X123041676Y-63729475D02*
X122946438Y-63634237D01*
X122946438Y-63634237D02*
X122898819Y-63491380D01*
X122898819Y-63491380D02*
X122898819Y-63396142D01*
X122898819Y-63396142D02*
X122946438Y-63253285D01*
X122946438Y-63253285D02*
X122994057Y-63205666D01*
X123232152Y-62348523D02*
X123898819Y-62348523D01*
X122851200Y-62586618D02*
X123565485Y-62824713D01*
X123565485Y-62824713D02*
X123565485Y-62205666D01*
X124962667Y-93625200D02*
X125105524Y-93672819D01*
X125105524Y-93672819D02*
X125343619Y-93672819D01*
X125343619Y-93672819D02*
X125438857Y-93625200D01*
X125438857Y-93625200D02*
X125486476Y-93577580D01*
X125486476Y-93577580D02*
X125534095Y-93482342D01*
X125534095Y-93482342D02*
X125534095Y-93387104D01*
X125534095Y-93387104D02*
X125486476Y-93291866D01*
X125486476Y-93291866D02*
X125438857Y-93244247D01*
X125438857Y-93244247D02*
X125343619Y-93196628D01*
X125343619Y-93196628D02*
X125153143Y-93149009D01*
X125153143Y-93149009D02*
X125057905Y-93101390D01*
X125057905Y-93101390D02*
X125010286Y-93053771D01*
X125010286Y-93053771D02*
X124962667Y-92958533D01*
X124962667Y-92958533D02*
X124962667Y-92863295D01*
X124962667Y-92863295D02*
X125010286Y-92768057D01*
X125010286Y-92768057D02*
X125057905Y-92720438D01*
X125057905Y-92720438D02*
X125153143Y-92672819D01*
X125153143Y-92672819D02*
X125391238Y-92672819D01*
X125391238Y-92672819D02*
X125534095Y-92720438D01*
X125867429Y-92672819D02*
X126105524Y-93672819D01*
X126105524Y-93672819D02*
X126296000Y-92958533D01*
X126296000Y-92958533D02*
X126486476Y-93672819D01*
X126486476Y-93672819D02*
X126724572Y-92672819D01*
X127248381Y-93101390D02*
X127153143Y-93053771D01*
X127153143Y-93053771D02*
X127105524Y-93006152D01*
X127105524Y-93006152D02*
X127057905Y-92910914D01*
X127057905Y-92910914D02*
X127057905Y-92863295D01*
X127057905Y-92863295D02*
X127105524Y-92768057D01*
X127105524Y-92768057D02*
X127153143Y-92720438D01*
X127153143Y-92720438D02*
X127248381Y-92672819D01*
X127248381Y-92672819D02*
X127438857Y-92672819D01*
X127438857Y-92672819D02*
X127534095Y-92720438D01*
X127534095Y-92720438D02*
X127581714Y-92768057D01*
X127581714Y-92768057D02*
X127629333Y-92863295D01*
X127629333Y-92863295D02*
X127629333Y-92910914D01*
X127629333Y-92910914D02*
X127581714Y-93006152D01*
X127581714Y-93006152D02*
X127534095Y-93053771D01*
X127534095Y-93053771D02*
X127438857Y-93101390D01*
X127438857Y-93101390D02*
X127248381Y-93101390D01*
X127248381Y-93101390D02*
X127153143Y-93149009D01*
X127153143Y-93149009D02*
X127105524Y-93196628D01*
X127105524Y-93196628D02*
X127057905Y-93291866D01*
X127057905Y-93291866D02*
X127057905Y-93482342D01*
X127057905Y-93482342D02*
X127105524Y-93577580D01*
X127105524Y-93577580D02*
X127153143Y-93625200D01*
X127153143Y-93625200D02*
X127248381Y-93672819D01*
X127248381Y-93672819D02*
X127438857Y-93672819D01*
X127438857Y-93672819D02*
X127534095Y-93625200D01*
X127534095Y-93625200D02*
X127581714Y-93577580D01*
X127581714Y-93577580D02*
X127629333Y-93482342D01*
X127629333Y-93482342D02*
X127629333Y-93291866D01*
X127629333Y-93291866D02*
X127581714Y-93196628D01*
X127581714Y-93196628D02*
X127534095Y-93149009D01*
X127534095Y-93149009D02*
X127438857Y-93101390D01*
X137441142Y-47959580D02*
X137393523Y-48007200D01*
X137393523Y-48007200D02*
X137250666Y-48054819D01*
X137250666Y-48054819D02*
X137155428Y-48054819D01*
X137155428Y-48054819D02*
X137012571Y-48007200D01*
X137012571Y-48007200D02*
X136917333Y-47911961D01*
X136917333Y-47911961D02*
X136869714Y-47816723D01*
X136869714Y-47816723D02*
X136822095Y-47626247D01*
X136822095Y-47626247D02*
X136822095Y-47483390D01*
X136822095Y-47483390D02*
X136869714Y-47292914D01*
X136869714Y-47292914D02*
X136917333Y-47197676D01*
X136917333Y-47197676D02*
X137012571Y-47102438D01*
X137012571Y-47102438D02*
X137155428Y-47054819D01*
X137155428Y-47054819D02*
X137250666Y-47054819D01*
X137250666Y-47054819D02*
X137393523Y-47102438D01*
X137393523Y-47102438D02*
X137441142Y-47150057D01*
X138393523Y-48054819D02*
X137822095Y-48054819D01*
X138107809Y-48054819D02*
X138107809Y-47054819D01*
X138107809Y-47054819D02*
X138012571Y-47197676D01*
X138012571Y-47197676D02*
X137917333Y-47292914D01*
X137917333Y-47292914D02*
X137822095Y-47340533D01*
X139298285Y-47054819D02*
X138822095Y-47054819D01*
X138822095Y-47054819D02*
X138774476Y-47531009D01*
X138774476Y-47531009D02*
X138822095Y-47483390D01*
X138822095Y-47483390D02*
X138917333Y-47435771D01*
X138917333Y-47435771D02*
X139155428Y-47435771D01*
X139155428Y-47435771D02*
X139250666Y-47483390D01*
X139250666Y-47483390D02*
X139298285Y-47531009D01*
X139298285Y-47531009D02*
X139345904Y-47626247D01*
X139345904Y-47626247D02*
X139345904Y-47864342D01*
X139345904Y-47864342D02*
X139298285Y-47959580D01*
X139298285Y-47959580D02*
X139250666Y-48007200D01*
X139250666Y-48007200D02*
X139155428Y-48054819D01*
X139155428Y-48054819D02*
X138917333Y-48054819D01*
X138917333Y-48054819D02*
X138822095Y-48007200D01*
X138822095Y-48007200D02*
X138774476Y-47959580D01*
X134261905Y-81454819D02*
X134261905Y-80454819D01*
X134261905Y-80454819D02*
X134500000Y-80454819D01*
X134500000Y-80454819D02*
X134642857Y-80502438D01*
X134642857Y-80502438D02*
X134738095Y-80597676D01*
X134738095Y-80597676D02*
X134785714Y-80692914D01*
X134785714Y-80692914D02*
X134833333Y-80883390D01*
X134833333Y-80883390D02*
X134833333Y-81026247D01*
X134833333Y-81026247D02*
X134785714Y-81216723D01*
X134785714Y-81216723D02*
X134738095Y-81311961D01*
X134738095Y-81311961D02*
X134642857Y-81407200D01*
X134642857Y-81407200D02*
X134500000Y-81454819D01*
X134500000Y-81454819D02*
X134261905Y-81454819D01*
X135166667Y-80454819D02*
X135785714Y-80454819D01*
X135785714Y-80454819D02*
X135452381Y-80835771D01*
X135452381Y-80835771D02*
X135595238Y-80835771D01*
X135595238Y-80835771D02*
X135690476Y-80883390D01*
X135690476Y-80883390D02*
X135738095Y-80931009D01*
X135738095Y-80931009D02*
X135785714Y-81026247D01*
X135785714Y-81026247D02*
X135785714Y-81264342D01*
X135785714Y-81264342D02*
X135738095Y-81359580D01*
X135738095Y-81359580D02*
X135690476Y-81407200D01*
X135690476Y-81407200D02*
X135595238Y-81454819D01*
X135595238Y-81454819D02*
X135309524Y-81454819D01*
X135309524Y-81454819D02*
X135214286Y-81407200D01*
X135214286Y-81407200D02*
X135166667Y-81359580D01*
X132361142Y-43159580D02*
X132313523Y-43207200D01*
X132313523Y-43207200D02*
X132170666Y-43254819D01*
X132170666Y-43254819D02*
X132075428Y-43254819D01*
X132075428Y-43254819D02*
X131932571Y-43207200D01*
X131932571Y-43207200D02*
X131837333Y-43111961D01*
X131837333Y-43111961D02*
X131789714Y-43016723D01*
X131789714Y-43016723D02*
X131742095Y-42826247D01*
X131742095Y-42826247D02*
X131742095Y-42683390D01*
X131742095Y-42683390D02*
X131789714Y-42492914D01*
X131789714Y-42492914D02*
X131837333Y-42397676D01*
X131837333Y-42397676D02*
X131932571Y-42302438D01*
X131932571Y-42302438D02*
X132075428Y-42254819D01*
X132075428Y-42254819D02*
X132170666Y-42254819D01*
X132170666Y-42254819D02*
X132313523Y-42302438D01*
X132313523Y-42302438D02*
X132361142Y-42350057D01*
X133313523Y-43254819D02*
X132742095Y-43254819D01*
X133027809Y-43254819D02*
X133027809Y-42254819D01*
X133027809Y-42254819D02*
X132932571Y-42397676D01*
X132932571Y-42397676D02*
X132837333Y-42492914D01*
X132837333Y-42492914D02*
X132742095Y-42540533D01*
X133932571Y-42254819D02*
X134027809Y-42254819D01*
X134027809Y-42254819D02*
X134123047Y-42302438D01*
X134123047Y-42302438D02*
X134170666Y-42350057D01*
X134170666Y-42350057D02*
X134218285Y-42445295D01*
X134218285Y-42445295D02*
X134265904Y-42635771D01*
X134265904Y-42635771D02*
X134265904Y-42873866D01*
X134265904Y-42873866D02*
X134218285Y-43064342D01*
X134218285Y-43064342D02*
X134170666Y-43159580D01*
X134170666Y-43159580D02*
X134123047Y-43207200D01*
X134123047Y-43207200D02*
X134027809Y-43254819D01*
X134027809Y-43254819D02*
X133932571Y-43254819D01*
X133932571Y-43254819D02*
X133837333Y-43207200D01*
X133837333Y-43207200D02*
X133789714Y-43159580D01*
X133789714Y-43159580D02*
X133742095Y-43064342D01*
X133742095Y-43064342D02*
X133694476Y-42873866D01*
X133694476Y-42873866D02*
X133694476Y-42635771D01*
X133694476Y-42635771D02*
X133742095Y-42445295D01*
X133742095Y-42445295D02*
X133789714Y-42350057D01*
X133789714Y-42350057D02*
X133837333Y-42302438D01*
X133837333Y-42302438D02*
X133932571Y-42254819D01*
X96140819Y-74398094D02*
X95140819Y-74398094D01*
X95140819Y-74398094D02*
X95140819Y-74159999D01*
X95140819Y-74159999D02*
X95188438Y-74017142D01*
X95188438Y-74017142D02*
X95283676Y-73921904D01*
X95283676Y-73921904D02*
X95378914Y-73874285D01*
X95378914Y-73874285D02*
X95569390Y-73826666D01*
X95569390Y-73826666D02*
X95712247Y-73826666D01*
X95712247Y-73826666D02*
X95902723Y-73874285D01*
X95902723Y-73874285D02*
X95997961Y-73921904D01*
X95997961Y-73921904D02*
X96093200Y-74017142D01*
X96093200Y-74017142D02*
X96140819Y-74159999D01*
X96140819Y-74159999D02*
X96140819Y-74398094D01*
X95474152Y-72969523D02*
X96140819Y-72969523D01*
X95093200Y-73207618D02*
X95807485Y-73445713D01*
X95807485Y-73445713D02*
X95807485Y-72826666D01*
X139322667Y-57231200D02*
X139465524Y-57278819D01*
X139465524Y-57278819D02*
X139703619Y-57278819D01*
X139703619Y-57278819D02*
X139798857Y-57231200D01*
X139798857Y-57231200D02*
X139846476Y-57183580D01*
X139846476Y-57183580D02*
X139894095Y-57088342D01*
X139894095Y-57088342D02*
X139894095Y-56993104D01*
X139894095Y-56993104D02*
X139846476Y-56897866D01*
X139846476Y-56897866D02*
X139798857Y-56850247D01*
X139798857Y-56850247D02*
X139703619Y-56802628D01*
X139703619Y-56802628D02*
X139513143Y-56755009D01*
X139513143Y-56755009D02*
X139417905Y-56707390D01*
X139417905Y-56707390D02*
X139370286Y-56659771D01*
X139370286Y-56659771D02*
X139322667Y-56564533D01*
X139322667Y-56564533D02*
X139322667Y-56469295D01*
X139322667Y-56469295D02*
X139370286Y-56374057D01*
X139370286Y-56374057D02*
X139417905Y-56326438D01*
X139417905Y-56326438D02*
X139513143Y-56278819D01*
X139513143Y-56278819D02*
X139751238Y-56278819D01*
X139751238Y-56278819D02*
X139894095Y-56326438D01*
X140227429Y-56278819D02*
X140465524Y-57278819D01*
X140465524Y-57278819D02*
X140656000Y-56564533D01*
X140656000Y-56564533D02*
X140846476Y-57278819D01*
X140846476Y-57278819D02*
X141084572Y-56278819D01*
X141417905Y-56374057D02*
X141465524Y-56326438D01*
X141465524Y-56326438D02*
X141560762Y-56278819D01*
X141560762Y-56278819D02*
X141798857Y-56278819D01*
X141798857Y-56278819D02*
X141894095Y-56326438D01*
X141894095Y-56326438D02*
X141941714Y-56374057D01*
X141941714Y-56374057D02*
X141989333Y-56469295D01*
X141989333Y-56469295D02*
X141989333Y-56564533D01*
X141989333Y-56564533D02*
X141941714Y-56707390D01*
X141941714Y-56707390D02*
X141370286Y-57278819D01*
X141370286Y-57278819D02*
X141989333Y-57278819D01*
X137441142Y-41157580D02*
X137393523Y-41205200D01*
X137393523Y-41205200D02*
X137250666Y-41252819D01*
X137250666Y-41252819D02*
X137155428Y-41252819D01*
X137155428Y-41252819D02*
X137012571Y-41205200D01*
X137012571Y-41205200D02*
X136917333Y-41109961D01*
X136917333Y-41109961D02*
X136869714Y-41014723D01*
X136869714Y-41014723D02*
X136822095Y-40824247D01*
X136822095Y-40824247D02*
X136822095Y-40681390D01*
X136822095Y-40681390D02*
X136869714Y-40490914D01*
X136869714Y-40490914D02*
X136917333Y-40395676D01*
X136917333Y-40395676D02*
X137012571Y-40300438D01*
X137012571Y-40300438D02*
X137155428Y-40252819D01*
X137155428Y-40252819D02*
X137250666Y-40252819D01*
X137250666Y-40252819D02*
X137393523Y-40300438D01*
X137393523Y-40300438D02*
X137441142Y-40348057D01*
X138393523Y-41252819D02*
X137822095Y-41252819D01*
X138107809Y-41252819D02*
X138107809Y-40252819D01*
X138107809Y-40252819D02*
X138012571Y-40395676D01*
X138012571Y-40395676D02*
X137917333Y-40490914D01*
X137917333Y-40490914D02*
X137822095Y-40538533D01*
X138726857Y-40252819D02*
X139345904Y-40252819D01*
X139345904Y-40252819D02*
X139012571Y-40633771D01*
X139012571Y-40633771D02*
X139155428Y-40633771D01*
X139155428Y-40633771D02*
X139250666Y-40681390D01*
X139250666Y-40681390D02*
X139298285Y-40729009D01*
X139298285Y-40729009D02*
X139345904Y-40824247D01*
X139345904Y-40824247D02*
X139345904Y-41062342D01*
X139345904Y-41062342D02*
X139298285Y-41157580D01*
X139298285Y-41157580D02*
X139250666Y-41205200D01*
X139250666Y-41205200D02*
X139155428Y-41252819D01*
X139155428Y-41252819D02*
X138869714Y-41252819D01*
X138869714Y-41252819D02*
X138774476Y-41205200D01*
X138774476Y-41205200D02*
X138726857Y-41157580D01*
X128470819Y-39282666D02*
X127994628Y-39615999D01*
X128470819Y-39854094D02*
X127470819Y-39854094D01*
X127470819Y-39854094D02*
X127470819Y-39473142D01*
X127470819Y-39473142D02*
X127518438Y-39377904D01*
X127518438Y-39377904D02*
X127566057Y-39330285D01*
X127566057Y-39330285D02*
X127661295Y-39282666D01*
X127661295Y-39282666D02*
X127804152Y-39282666D01*
X127804152Y-39282666D02*
X127899390Y-39330285D01*
X127899390Y-39330285D02*
X127947009Y-39377904D01*
X127947009Y-39377904D02*
X127994628Y-39473142D01*
X127994628Y-39473142D02*
X127994628Y-39854094D01*
X127470819Y-38377904D02*
X127470819Y-38854094D01*
X127470819Y-38854094D02*
X127947009Y-38901713D01*
X127947009Y-38901713D02*
X127899390Y-38854094D01*
X127899390Y-38854094D02*
X127851771Y-38758856D01*
X127851771Y-38758856D02*
X127851771Y-38520761D01*
X127851771Y-38520761D02*
X127899390Y-38425523D01*
X127899390Y-38425523D02*
X127947009Y-38377904D01*
X127947009Y-38377904D02*
X128042247Y-38330285D01*
X128042247Y-38330285D02*
X128280342Y-38330285D01*
X128280342Y-38330285D02*
X128375580Y-38377904D01*
X128375580Y-38377904D02*
X128423200Y-38425523D01*
X128423200Y-38425523D02*
X128470819Y-38520761D01*
X128470819Y-38520761D02*
X128470819Y-38758856D01*
X128470819Y-38758856D02*
X128423200Y-38854094D01*
X128423200Y-38854094D02*
X128375580Y-38901713D01*
X121263580Y-63254666D02*
X121311200Y-63302285D01*
X121311200Y-63302285D02*
X121358819Y-63445142D01*
X121358819Y-63445142D02*
X121358819Y-63540380D01*
X121358819Y-63540380D02*
X121311200Y-63683237D01*
X121311200Y-63683237D02*
X121215961Y-63778475D01*
X121215961Y-63778475D02*
X121120723Y-63826094D01*
X121120723Y-63826094D02*
X120930247Y-63873713D01*
X120930247Y-63873713D02*
X120787390Y-63873713D01*
X120787390Y-63873713D02*
X120596914Y-63826094D01*
X120596914Y-63826094D02*
X120501676Y-63778475D01*
X120501676Y-63778475D02*
X120406438Y-63683237D01*
X120406438Y-63683237D02*
X120358819Y-63540380D01*
X120358819Y-63540380D02*
X120358819Y-63445142D01*
X120358819Y-63445142D02*
X120406438Y-63302285D01*
X120406438Y-63302285D02*
X120454057Y-63254666D01*
X120358819Y-62921332D02*
X120358819Y-62302285D01*
X120358819Y-62302285D02*
X120739771Y-62635618D01*
X120739771Y-62635618D02*
X120739771Y-62492761D01*
X120739771Y-62492761D02*
X120787390Y-62397523D01*
X120787390Y-62397523D02*
X120835009Y-62349904D01*
X120835009Y-62349904D02*
X120930247Y-62302285D01*
X120930247Y-62302285D02*
X121168342Y-62302285D01*
X121168342Y-62302285D02*
X121263580Y-62349904D01*
X121263580Y-62349904D02*
X121311200Y-62397523D01*
X121311200Y-62397523D02*
X121358819Y-62492761D01*
X121358819Y-62492761D02*
X121358819Y-62778475D01*
X121358819Y-62778475D02*
X121311200Y-62873713D01*
X121311200Y-62873713D02*
X121263580Y-62921332D01*
X120290819Y-78790094D02*
X119290819Y-78790094D01*
X119290819Y-78790094D02*
X119290819Y-78551999D01*
X119290819Y-78551999D02*
X119338438Y-78409142D01*
X119338438Y-78409142D02*
X119433676Y-78313904D01*
X119433676Y-78313904D02*
X119528914Y-78266285D01*
X119528914Y-78266285D02*
X119719390Y-78218666D01*
X119719390Y-78218666D02*
X119862247Y-78218666D01*
X119862247Y-78218666D02*
X120052723Y-78266285D01*
X120052723Y-78266285D02*
X120147961Y-78313904D01*
X120147961Y-78313904D02*
X120243200Y-78409142D01*
X120243200Y-78409142D02*
X120290819Y-78551999D01*
X120290819Y-78551999D02*
X120290819Y-78790094D01*
X119386057Y-77837713D02*
X119338438Y-77790094D01*
X119338438Y-77790094D02*
X119290819Y-77694856D01*
X119290819Y-77694856D02*
X119290819Y-77456761D01*
X119290819Y-77456761D02*
X119338438Y-77361523D01*
X119338438Y-77361523D02*
X119386057Y-77313904D01*
X119386057Y-77313904D02*
X119481295Y-77266285D01*
X119481295Y-77266285D02*
X119576533Y-77266285D01*
X119576533Y-77266285D02*
X119719390Y-77313904D01*
X119719390Y-77313904D02*
X120290819Y-77885332D01*
X120290819Y-77885332D02*
X120290819Y-77266285D01*
X141597142Y-71469580D02*
X141549523Y-71517200D01*
X141549523Y-71517200D02*
X141406666Y-71564819D01*
X141406666Y-71564819D02*
X141311428Y-71564819D01*
X141311428Y-71564819D02*
X141168571Y-71517200D01*
X141168571Y-71517200D02*
X141073333Y-71421961D01*
X141073333Y-71421961D02*
X141025714Y-71326723D01*
X141025714Y-71326723D02*
X140978095Y-71136247D01*
X140978095Y-71136247D02*
X140978095Y-70993390D01*
X140978095Y-70993390D02*
X141025714Y-70802914D01*
X141025714Y-70802914D02*
X141073333Y-70707676D01*
X141073333Y-70707676D02*
X141168571Y-70612438D01*
X141168571Y-70612438D02*
X141311428Y-70564819D01*
X141311428Y-70564819D02*
X141406666Y-70564819D01*
X141406666Y-70564819D02*
X141549523Y-70612438D01*
X141549523Y-70612438D02*
X141597142Y-70660057D01*
X142549523Y-71564819D02*
X141978095Y-71564819D01*
X142263809Y-71564819D02*
X142263809Y-70564819D01*
X142263809Y-70564819D02*
X142168571Y-70707676D01*
X142168571Y-70707676D02*
X142073333Y-70802914D01*
X142073333Y-70802914D02*
X141978095Y-70850533D01*
X142882857Y-70564819D02*
X143549523Y-70564819D01*
X143549523Y-70564819D02*
X143120952Y-71564819D01*
X121506666Y-34504819D02*
X121506666Y-35219104D01*
X121506666Y-35219104D02*
X121459047Y-35361961D01*
X121459047Y-35361961D02*
X121363809Y-35457200D01*
X121363809Y-35457200D02*
X121220952Y-35504819D01*
X121220952Y-35504819D02*
X121125714Y-35504819D01*
X122506666Y-35504819D02*
X121935238Y-35504819D01*
X122220952Y-35504819D02*
X122220952Y-34504819D01*
X122220952Y-34504819D02*
X122125714Y-34647676D01*
X122125714Y-34647676D02*
X122030476Y-34742914D01*
X122030476Y-34742914D02*
X121935238Y-34790533D01*
X131423580Y-63109666D02*
X131471200Y-63157285D01*
X131471200Y-63157285D02*
X131518819Y-63300142D01*
X131518819Y-63300142D02*
X131518819Y-63395380D01*
X131518819Y-63395380D02*
X131471200Y-63538237D01*
X131471200Y-63538237D02*
X131375961Y-63633475D01*
X131375961Y-63633475D02*
X131280723Y-63681094D01*
X131280723Y-63681094D02*
X131090247Y-63728713D01*
X131090247Y-63728713D02*
X130947390Y-63728713D01*
X130947390Y-63728713D02*
X130756914Y-63681094D01*
X130756914Y-63681094D02*
X130661676Y-63633475D01*
X130661676Y-63633475D02*
X130566438Y-63538237D01*
X130566438Y-63538237D02*
X130518819Y-63395380D01*
X130518819Y-63395380D02*
X130518819Y-63300142D01*
X130518819Y-63300142D02*
X130566438Y-63157285D01*
X130566438Y-63157285D02*
X130614057Y-63109666D01*
X130518819Y-62776332D02*
X130518819Y-62109666D01*
X130518819Y-62109666D02*
X131518819Y-62538237D01*
X105462667Y-74125200D02*
X105605524Y-74172819D01*
X105605524Y-74172819D02*
X105843619Y-74172819D01*
X105843619Y-74172819D02*
X105938857Y-74125200D01*
X105938857Y-74125200D02*
X105986476Y-74077580D01*
X105986476Y-74077580D02*
X106034095Y-73982342D01*
X106034095Y-73982342D02*
X106034095Y-73887104D01*
X106034095Y-73887104D02*
X105986476Y-73791866D01*
X105986476Y-73791866D02*
X105938857Y-73744247D01*
X105938857Y-73744247D02*
X105843619Y-73696628D01*
X105843619Y-73696628D02*
X105653143Y-73649009D01*
X105653143Y-73649009D02*
X105557905Y-73601390D01*
X105557905Y-73601390D02*
X105510286Y-73553771D01*
X105510286Y-73553771D02*
X105462667Y-73458533D01*
X105462667Y-73458533D02*
X105462667Y-73363295D01*
X105462667Y-73363295D02*
X105510286Y-73268057D01*
X105510286Y-73268057D02*
X105557905Y-73220438D01*
X105557905Y-73220438D02*
X105653143Y-73172819D01*
X105653143Y-73172819D02*
X105891238Y-73172819D01*
X105891238Y-73172819D02*
X106034095Y-73220438D01*
X106367429Y-73172819D02*
X106605524Y-74172819D01*
X106605524Y-74172819D02*
X106796000Y-73458533D01*
X106796000Y-73458533D02*
X106986476Y-74172819D01*
X106986476Y-74172819D02*
X107224572Y-73172819D01*
X108034095Y-73506152D02*
X108034095Y-74172819D01*
X107796000Y-73125200D02*
X107557905Y-73839485D01*
X107557905Y-73839485D02*
X108176952Y-73839485D01*
X137392142Y-51159580D02*
X137344523Y-51207200D01*
X137344523Y-51207200D02*
X137201666Y-51254819D01*
X137201666Y-51254819D02*
X137106428Y-51254819D01*
X137106428Y-51254819D02*
X136963571Y-51207200D01*
X136963571Y-51207200D02*
X136868333Y-51111961D01*
X136868333Y-51111961D02*
X136820714Y-51016723D01*
X136820714Y-51016723D02*
X136773095Y-50826247D01*
X136773095Y-50826247D02*
X136773095Y-50683390D01*
X136773095Y-50683390D02*
X136820714Y-50492914D01*
X136820714Y-50492914D02*
X136868333Y-50397676D01*
X136868333Y-50397676D02*
X136963571Y-50302438D01*
X136963571Y-50302438D02*
X137106428Y-50254819D01*
X137106428Y-50254819D02*
X137201666Y-50254819D01*
X137201666Y-50254819D02*
X137344523Y-50302438D01*
X137344523Y-50302438D02*
X137392142Y-50350057D01*
X138344523Y-51254819D02*
X137773095Y-51254819D01*
X138058809Y-51254819D02*
X138058809Y-50254819D01*
X138058809Y-50254819D02*
X137963571Y-50397676D01*
X137963571Y-50397676D02*
X137868333Y-50492914D01*
X137868333Y-50492914D02*
X137773095Y-50540533D01*
X139201666Y-50254819D02*
X139011190Y-50254819D01*
X139011190Y-50254819D02*
X138915952Y-50302438D01*
X138915952Y-50302438D02*
X138868333Y-50350057D01*
X138868333Y-50350057D02*
X138773095Y-50492914D01*
X138773095Y-50492914D02*
X138725476Y-50683390D01*
X138725476Y-50683390D02*
X138725476Y-51064342D01*
X138725476Y-51064342D02*
X138773095Y-51159580D01*
X138773095Y-51159580D02*
X138820714Y-51207200D01*
X138820714Y-51207200D02*
X138915952Y-51254819D01*
X138915952Y-51254819D02*
X139106428Y-51254819D01*
X139106428Y-51254819D02*
X139201666Y-51207200D01*
X139201666Y-51207200D02*
X139249285Y-51159580D01*
X139249285Y-51159580D02*
X139296904Y-51064342D01*
X139296904Y-51064342D02*
X139296904Y-50826247D01*
X139296904Y-50826247D02*
X139249285Y-50731009D01*
X139249285Y-50731009D02*
X139201666Y-50683390D01*
X139201666Y-50683390D02*
X139106428Y-50635771D01*
X139106428Y-50635771D02*
X138915952Y-50635771D01*
X138915952Y-50635771D02*
X138820714Y-50683390D01*
X138820714Y-50683390D02*
X138773095Y-50731009D01*
X138773095Y-50731009D02*
X138725476Y-50826247D01*
X126144819Y-39251666D02*
X125668628Y-39584999D01*
X126144819Y-39823094D02*
X125144819Y-39823094D01*
X125144819Y-39823094D02*
X125144819Y-39442142D01*
X125144819Y-39442142D02*
X125192438Y-39346904D01*
X125192438Y-39346904D02*
X125240057Y-39299285D01*
X125240057Y-39299285D02*
X125335295Y-39251666D01*
X125335295Y-39251666D02*
X125478152Y-39251666D01*
X125478152Y-39251666D02*
X125573390Y-39299285D01*
X125573390Y-39299285D02*
X125621009Y-39346904D01*
X125621009Y-39346904D02*
X125668628Y-39442142D01*
X125668628Y-39442142D02*
X125668628Y-39823094D01*
X125478152Y-38394523D02*
X126144819Y-38394523D01*
X125097200Y-38632618D02*
X125811485Y-38870713D01*
X125811485Y-38870713D02*
X125811485Y-38251666D01*
X132361142Y-46559580D02*
X132313523Y-46607200D01*
X132313523Y-46607200D02*
X132170666Y-46654819D01*
X132170666Y-46654819D02*
X132075428Y-46654819D01*
X132075428Y-46654819D02*
X131932571Y-46607200D01*
X131932571Y-46607200D02*
X131837333Y-46511961D01*
X131837333Y-46511961D02*
X131789714Y-46416723D01*
X131789714Y-46416723D02*
X131742095Y-46226247D01*
X131742095Y-46226247D02*
X131742095Y-46083390D01*
X131742095Y-46083390D02*
X131789714Y-45892914D01*
X131789714Y-45892914D02*
X131837333Y-45797676D01*
X131837333Y-45797676D02*
X131932571Y-45702438D01*
X131932571Y-45702438D02*
X132075428Y-45654819D01*
X132075428Y-45654819D02*
X132170666Y-45654819D01*
X132170666Y-45654819D02*
X132313523Y-45702438D01*
X132313523Y-45702438D02*
X132361142Y-45750057D01*
X133313523Y-46654819D02*
X132742095Y-46654819D01*
X133027809Y-46654819D02*
X133027809Y-45654819D01*
X133027809Y-45654819D02*
X132932571Y-45797676D01*
X132932571Y-45797676D02*
X132837333Y-45892914D01*
X132837333Y-45892914D02*
X132742095Y-45940533D01*
X134265904Y-46654819D02*
X133694476Y-46654819D01*
X133980190Y-46654819D02*
X133980190Y-45654819D01*
X133980190Y-45654819D02*
X133884952Y-45797676D01*
X133884952Y-45797676D02*
X133789714Y-45892914D01*
X133789714Y-45892914D02*
X133694476Y-45940533D01*
X144462667Y-93625200D02*
X144605524Y-93672819D01*
X144605524Y-93672819D02*
X144843619Y-93672819D01*
X144843619Y-93672819D02*
X144938857Y-93625200D01*
X144938857Y-93625200D02*
X144986476Y-93577580D01*
X144986476Y-93577580D02*
X145034095Y-93482342D01*
X145034095Y-93482342D02*
X145034095Y-93387104D01*
X145034095Y-93387104D02*
X144986476Y-93291866D01*
X144986476Y-93291866D02*
X144938857Y-93244247D01*
X144938857Y-93244247D02*
X144843619Y-93196628D01*
X144843619Y-93196628D02*
X144653143Y-93149009D01*
X144653143Y-93149009D02*
X144557905Y-93101390D01*
X144557905Y-93101390D02*
X144510286Y-93053771D01*
X144510286Y-93053771D02*
X144462667Y-92958533D01*
X144462667Y-92958533D02*
X144462667Y-92863295D01*
X144462667Y-92863295D02*
X144510286Y-92768057D01*
X144510286Y-92768057D02*
X144557905Y-92720438D01*
X144557905Y-92720438D02*
X144653143Y-92672819D01*
X144653143Y-92672819D02*
X144891238Y-92672819D01*
X144891238Y-92672819D02*
X145034095Y-92720438D01*
X145367429Y-92672819D02*
X145605524Y-93672819D01*
X145605524Y-93672819D02*
X145796000Y-92958533D01*
X145796000Y-92958533D02*
X145986476Y-93672819D01*
X145986476Y-93672819D02*
X146224572Y-92672819D01*
X146653143Y-93672819D02*
X146843619Y-93672819D01*
X146843619Y-93672819D02*
X146938857Y-93625200D01*
X146938857Y-93625200D02*
X146986476Y-93577580D01*
X146986476Y-93577580D02*
X147081714Y-93434723D01*
X147081714Y-93434723D02*
X147129333Y-93244247D01*
X147129333Y-93244247D02*
X147129333Y-92863295D01*
X147129333Y-92863295D02*
X147081714Y-92768057D01*
X147081714Y-92768057D02*
X147034095Y-92720438D01*
X147034095Y-92720438D02*
X146938857Y-92672819D01*
X146938857Y-92672819D02*
X146748381Y-92672819D01*
X146748381Y-92672819D02*
X146653143Y-92720438D01*
X146653143Y-92720438D02*
X146605524Y-92768057D01*
X146605524Y-92768057D02*
X146557905Y-92863295D01*
X146557905Y-92863295D02*
X146557905Y-93101390D01*
X146557905Y-93101390D02*
X146605524Y-93196628D01*
X146605524Y-93196628D02*
X146653143Y-93244247D01*
X146653143Y-93244247D02*
X146748381Y-93291866D01*
X146748381Y-93291866D02*
X146938857Y-93291866D01*
X146938857Y-93291866D02*
X147034095Y-93244247D01*
X147034095Y-93244247D02*
X147081714Y-93196628D01*
X147081714Y-93196628D02*
X147129333Y-93101390D01*
X132837333Y-39647580D02*
X132789714Y-39695200D01*
X132789714Y-39695200D02*
X132646857Y-39742819D01*
X132646857Y-39742819D02*
X132551619Y-39742819D01*
X132551619Y-39742819D02*
X132408762Y-39695200D01*
X132408762Y-39695200D02*
X132313524Y-39599961D01*
X132313524Y-39599961D02*
X132265905Y-39504723D01*
X132265905Y-39504723D02*
X132218286Y-39314247D01*
X132218286Y-39314247D02*
X132218286Y-39171390D01*
X132218286Y-39171390D02*
X132265905Y-38980914D01*
X132265905Y-38980914D02*
X132313524Y-38885676D01*
X132313524Y-38885676D02*
X132408762Y-38790438D01*
X132408762Y-38790438D02*
X132551619Y-38742819D01*
X132551619Y-38742819D02*
X132646857Y-38742819D01*
X132646857Y-38742819D02*
X132789714Y-38790438D01*
X132789714Y-38790438D02*
X132837333Y-38838057D01*
X133313524Y-39742819D02*
X133504000Y-39742819D01*
X133504000Y-39742819D02*
X133599238Y-39695200D01*
X133599238Y-39695200D02*
X133646857Y-39647580D01*
X133646857Y-39647580D02*
X133742095Y-39504723D01*
X133742095Y-39504723D02*
X133789714Y-39314247D01*
X133789714Y-39314247D02*
X133789714Y-38933295D01*
X133789714Y-38933295D02*
X133742095Y-38838057D01*
X133742095Y-38838057D02*
X133694476Y-38790438D01*
X133694476Y-38790438D02*
X133599238Y-38742819D01*
X133599238Y-38742819D02*
X133408762Y-38742819D01*
X133408762Y-38742819D02*
X133313524Y-38790438D01*
X133313524Y-38790438D02*
X133265905Y-38838057D01*
X133265905Y-38838057D02*
X133218286Y-38933295D01*
X133218286Y-38933295D02*
X133218286Y-39171390D01*
X133218286Y-39171390D02*
X133265905Y-39266628D01*
X133265905Y-39266628D02*
X133313524Y-39314247D01*
X133313524Y-39314247D02*
X133408762Y-39361866D01*
X133408762Y-39361866D02*
X133599238Y-39361866D01*
X133599238Y-39361866D02*
X133694476Y-39314247D01*
X133694476Y-39314247D02*
X133742095Y-39266628D01*
X133742095Y-39266628D02*
X133789714Y-39171390D01*
X109952381Y-32454819D02*
X109952381Y-33264342D01*
X109952381Y-33264342D02*
X110000000Y-33359580D01*
X110000000Y-33359580D02*
X110047619Y-33407200D01*
X110047619Y-33407200D02*
X110142857Y-33454819D01*
X110142857Y-33454819D02*
X110333333Y-33454819D01*
X110333333Y-33454819D02*
X110428571Y-33407200D01*
X110428571Y-33407200D02*
X110476190Y-33359580D01*
X110476190Y-33359580D02*
X110523809Y-33264342D01*
X110523809Y-33264342D02*
X110523809Y-32454819D01*
X110952381Y-33407200D02*
X111095238Y-33454819D01*
X111095238Y-33454819D02*
X111333333Y-33454819D01*
X111333333Y-33454819D02*
X111428571Y-33407200D01*
X111428571Y-33407200D02*
X111476190Y-33359580D01*
X111476190Y-33359580D02*
X111523809Y-33264342D01*
X111523809Y-33264342D02*
X111523809Y-33169104D01*
X111523809Y-33169104D02*
X111476190Y-33073866D01*
X111476190Y-33073866D02*
X111428571Y-33026247D01*
X111428571Y-33026247D02*
X111333333Y-32978628D01*
X111333333Y-32978628D02*
X111142857Y-32931009D01*
X111142857Y-32931009D02*
X111047619Y-32883390D01*
X111047619Y-32883390D02*
X111000000Y-32835771D01*
X111000000Y-32835771D02*
X110952381Y-32740533D01*
X110952381Y-32740533D02*
X110952381Y-32645295D01*
X110952381Y-32645295D02*
X111000000Y-32550057D01*
X111000000Y-32550057D02*
X111047619Y-32502438D01*
X111047619Y-32502438D02*
X111142857Y-32454819D01*
X111142857Y-32454819D02*
X111380952Y-32454819D01*
X111380952Y-32454819D02*
X111523809Y-32502438D01*
X112285714Y-32931009D02*
X112428571Y-32978628D01*
X112428571Y-32978628D02*
X112476190Y-33026247D01*
X112476190Y-33026247D02*
X112523809Y-33121485D01*
X112523809Y-33121485D02*
X112523809Y-33264342D01*
X112523809Y-33264342D02*
X112476190Y-33359580D01*
X112476190Y-33359580D02*
X112428571Y-33407200D01*
X112428571Y-33407200D02*
X112333333Y-33454819D01*
X112333333Y-33454819D02*
X111952381Y-33454819D01*
X111952381Y-33454819D02*
X111952381Y-32454819D01*
X111952381Y-32454819D02*
X112285714Y-32454819D01*
X112285714Y-32454819D02*
X112380952Y-32502438D01*
X112380952Y-32502438D02*
X112428571Y-32550057D01*
X112428571Y-32550057D02*
X112476190Y-32645295D01*
X112476190Y-32645295D02*
X112476190Y-32740533D01*
X112476190Y-32740533D02*
X112428571Y-32835771D01*
X112428571Y-32835771D02*
X112380952Y-32883390D01*
X112380952Y-32883390D02*
X112285714Y-32931009D01*
X112285714Y-32931009D02*
X111952381Y-32931009D01*
X112714286Y-33550057D02*
X113476190Y-33550057D01*
X114047619Y-32931009D02*
X114190476Y-32978628D01*
X114190476Y-32978628D02*
X114238095Y-33026247D01*
X114238095Y-33026247D02*
X114285714Y-33121485D01*
X114285714Y-33121485D02*
X114285714Y-33264342D01*
X114285714Y-33264342D02*
X114238095Y-33359580D01*
X114238095Y-33359580D02*
X114190476Y-33407200D01*
X114190476Y-33407200D02*
X114095238Y-33454819D01*
X114095238Y-33454819D02*
X113714286Y-33454819D01*
X113714286Y-33454819D02*
X113714286Y-32454819D01*
X113714286Y-32454819D02*
X114047619Y-32454819D01*
X114047619Y-32454819D02*
X114142857Y-32502438D01*
X114142857Y-32502438D02*
X114190476Y-32550057D01*
X114190476Y-32550057D02*
X114238095Y-32645295D01*
X114238095Y-32645295D02*
X114238095Y-32740533D01*
X114238095Y-32740533D02*
X114190476Y-32835771D01*
X114190476Y-32835771D02*
X114142857Y-32883390D01*
X114142857Y-32883390D02*
X114047619Y-32931009D01*
X114047619Y-32931009D02*
X113714286Y-32931009D01*
X114904762Y-32454819D02*
X115095238Y-32454819D01*
X115095238Y-32454819D02*
X115190476Y-32502438D01*
X115190476Y-32502438D02*
X115285714Y-32597676D01*
X115285714Y-32597676D02*
X115333333Y-32788152D01*
X115333333Y-32788152D02*
X115333333Y-33121485D01*
X115333333Y-33121485D02*
X115285714Y-33311961D01*
X115285714Y-33311961D02*
X115190476Y-33407200D01*
X115190476Y-33407200D02*
X115095238Y-33454819D01*
X115095238Y-33454819D02*
X114904762Y-33454819D01*
X114904762Y-33454819D02*
X114809524Y-33407200D01*
X114809524Y-33407200D02*
X114714286Y-33311961D01*
X114714286Y-33311961D02*
X114666667Y-33121485D01*
X114666667Y-33121485D02*
X114666667Y-32788152D01*
X114666667Y-32788152D02*
X114714286Y-32597676D01*
X114714286Y-32597676D02*
X114809524Y-32502438D01*
X114809524Y-32502438D02*
X114904762Y-32454819D01*
X115952381Y-32454819D02*
X116142857Y-32454819D01*
X116142857Y-32454819D02*
X116238095Y-32502438D01*
X116238095Y-32502438D02*
X116333333Y-32597676D01*
X116333333Y-32597676D02*
X116380952Y-32788152D01*
X116380952Y-32788152D02*
X116380952Y-33121485D01*
X116380952Y-33121485D02*
X116333333Y-33311961D01*
X116333333Y-33311961D02*
X116238095Y-33407200D01*
X116238095Y-33407200D02*
X116142857Y-33454819D01*
X116142857Y-33454819D02*
X115952381Y-33454819D01*
X115952381Y-33454819D02*
X115857143Y-33407200D01*
X115857143Y-33407200D02*
X115761905Y-33311961D01*
X115761905Y-33311961D02*
X115714286Y-33121485D01*
X115714286Y-33121485D02*
X115714286Y-32788152D01*
X115714286Y-32788152D02*
X115761905Y-32597676D01*
X115761905Y-32597676D02*
X115857143Y-32502438D01*
X115857143Y-32502438D02*
X115952381Y-32454819D01*
X116666667Y-32454819D02*
X117238095Y-32454819D01*
X116952381Y-33454819D02*
X116952381Y-32454819D01*
X118095238Y-33454819D02*
X117523810Y-33454819D01*
X117809524Y-33454819D02*
X117809524Y-32454819D01*
X117809524Y-32454819D02*
X117714286Y-32597676D01*
X117714286Y-32597676D02*
X117619048Y-32692914D01*
X117619048Y-32692914D02*
X117523810Y-32740533D01*
X100583333Y-46024819D02*
X100250000Y-45548628D01*
X100011905Y-46024819D02*
X100011905Y-45024819D01*
X100011905Y-45024819D02*
X100392857Y-45024819D01*
X100392857Y-45024819D02*
X100488095Y-45072438D01*
X100488095Y-45072438D02*
X100535714Y-45120057D01*
X100535714Y-45120057D02*
X100583333Y-45215295D01*
X100583333Y-45215295D02*
X100583333Y-45358152D01*
X100583333Y-45358152D02*
X100535714Y-45453390D01*
X100535714Y-45453390D02*
X100488095Y-45501009D01*
X100488095Y-45501009D02*
X100392857Y-45548628D01*
X100392857Y-45548628D02*
X100011905Y-45548628D01*
X101440476Y-45024819D02*
X101250000Y-45024819D01*
X101250000Y-45024819D02*
X101154762Y-45072438D01*
X101154762Y-45072438D02*
X101107143Y-45120057D01*
X101107143Y-45120057D02*
X101011905Y-45262914D01*
X101011905Y-45262914D02*
X100964286Y-45453390D01*
X100964286Y-45453390D02*
X100964286Y-45834342D01*
X100964286Y-45834342D02*
X101011905Y-45929580D01*
X101011905Y-45929580D02*
X101059524Y-45977200D01*
X101059524Y-45977200D02*
X101154762Y-46024819D01*
X101154762Y-46024819D02*
X101345238Y-46024819D01*
X101345238Y-46024819D02*
X101440476Y-45977200D01*
X101440476Y-45977200D02*
X101488095Y-45929580D01*
X101488095Y-45929580D02*
X101535714Y-45834342D01*
X101535714Y-45834342D02*
X101535714Y-45596247D01*
X101535714Y-45596247D02*
X101488095Y-45501009D01*
X101488095Y-45501009D02*
X101440476Y-45453390D01*
X101440476Y-45453390D02*
X101345238Y-45405771D01*
X101345238Y-45405771D02*
X101154762Y-45405771D01*
X101154762Y-45405771D02*
X101059524Y-45453390D01*
X101059524Y-45453390D02*
X101011905Y-45501009D01*
X101011905Y-45501009D02*
X100964286Y-45596247D01*
X143170142Y-89441580D02*
X143122523Y-89489200D01*
X143122523Y-89489200D02*
X142979666Y-89536819D01*
X142979666Y-89536819D02*
X142884428Y-89536819D01*
X142884428Y-89536819D02*
X142741571Y-89489200D01*
X142741571Y-89489200D02*
X142646333Y-89393961D01*
X142646333Y-89393961D02*
X142598714Y-89298723D01*
X142598714Y-89298723D02*
X142551095Y-89108247D01*
X142551095Y-89108247D02*
X142551095Y-88965390D01*
X142551095Y-88965390D02*
X142598714Y-88774914D01*
X142598714Y-88774914D02*
X142646333Y-88679676D01*
X142646333Y-88679676D02*
X142741571Y-88584438D01*
X142741571Y-88584438D02*
X142884428Y-88536819D01*
X142884428Y-88536819D02*
X142979666Y-88536819D01*
X142979666Y-88536819D02*
X143122523Y-88584438D01*
X143122523Y-88584438D02*
X143170142Y-88632057D01*
X144122523Y-89536819D02*
X143551095Y-89536819D01*
X143836809Y-89536819D02*
X143836809Y-88536819D01*
X143836809Y-88536819D02*
X143741571Y-88679676D01*
X143741571Y-88679676D02*
X143646333Y-88774914D01*
X143646333Y-88774914D02*
X143551095Y-88822533D01*
X144598714Y-89536819D02*
X144789190Y-89536819D01*
X144789190Y-89536819D02*
X144884428Y-89489200D01*
X144884428Y-89489200D02*
X144932047Y-89441580D01*
X144932047Y-89441580D02*
X145027285Y-89298723D01*
X145027285Y-89298723D02*
X145074904Y-89108247D01*
X145074904Y-89108247D02*
X145074904Y-88727295D01*
X145074904Y-88727295D02*
X145027285Y-88632057D01*
X145027285Y-88632057D02*
X144979666Y-88584438D01*
X144979666Y-88584438D02*
X144884428Y-88536819D01*
X144884428Y-88536819D02*
X144693952Y-88536819D01*
X144693952Y-88536819D02*
X144598714Y-88584438D01*
X144598714Y-88584438D02*
X144551095Y-88632057D01*
X144551095Y-88632057D02*
X144503476Y-88727295D01*
X144503476Y-88727295D02*
X144503476Y-88965390D01*
X144503476Y-88965390D02*
X144551095Y-89060628D01*
X144551095Y-89060628D02*
X144598714Y-89108247D01*
X144598714Y-89108247D02*
X144693952Y-89155866D01*
X144693952Y-89155866D02*
X144884428Y-89155866D01*
X144884428Y-89155866D02*
X144979666Y-89108247D01*
X144979666Y-89108247D02*
X145027285Y-89060628D01*
X145027285Y-89060628D02*
X145074904Y-88965390D01*
X120290819Y-99290094D02*
X119290819Y-99290094D01*
X119290819Y-99290094D02*
X119290819Y-99051999D01*
X119290819Y-99051999D02*
X119338438Y-98909142D01*
X119338438Y-98909142D02*
X119433676Y-98813904D01*
X119433676Y-98813904D02*
X119528914Y-98766285D01*
X119528914Y-98766285D02*
X119719390Y-98718666D01*
X119719390Y-98718666D02*
X119862247Y-98718666D01*
X119862247Y-98718666D02*
X120052723Y-98766285D01*
X120052723Y-98766285D02*
X120147961Y-98813904D01*
X120147961Y-98813904D02*
X120243200Y-98909142D01*
X120243200Y-98909142D02*
X120290819Y-99051999D01*
X120290819Y-99051999D02*
X120290819Y-99290094D01*
X119290819Y-98385332D02*
X119290819Y-97718666D01*
X119290819Y-97718666D02*
X120290819Y-98147237D01*
X144142819Y-47981904D02*
X144952342Y-47981904D01*
X144952342Y-47981904D02*
X145047580Y-47934285D01*
X145047580Y-47934285D02*
X145095200Y-47886666D01*
X145095200Y-47886666D02*
X145142819Y-47791428D01*
X145142819Y-47791428D02*
X145142819Y-47600952D01*
X145142819Y-47600952D02*
X145095200Y-47505714D01*
X145095200Y-47505714D02*
X145047580Y-47458095D01*
X145047580Y-47458095D02*
X144952342Y-47410476D01*
X144952342Y-47410476D02*
X144142819Y-47410476D01*
X144238057Y-46981904D02*
X144190438Y-46934285D01*
X144190438Y-46934285D02*
X144142819Y-46839047D01*
X144142819Y-46839047D02*
X144142819Y-46600952D01*
X144142819Y-46600952D02*
X144190438Y-46505714D01*
X144190438Y-46505714D02*
X144238057Y-46458095D01*
X144238057Y-46458095D02*
X144333295Y-46410476D01*
X144333295Y-46410476D02*
X144428533Y-46410476D01*
X144428533Y-46410476D02*
X144571390Y-46458095D01*
X144571390Y-46458095D02*
X145142819Y-47029523D01*
X145142819Y-47029523D02*
X145142819Y-46410476D01*
X100790819Y-79040094D02*
X99790819Y-79040094D01*
X99790819Y-79040094D02*
X99790819Y-78801999D01*
X99790819Y-78801999D02*
X99838438Y-78659142D01*
X99838438Y-78659142D02*
X99933676Y-78563904D01*
X99933676Y-78563904D02*
X100028914Y-78516285D01*
X100028914Y-78516285D02*
X100219390Y-78468666D01*
X100219390Y-78468666D02*
X100362247Y-78468666D01*
X100362247Y-78468666D02*
X100552723Y-78516285D01*
X100552723Y-78516285D02*
X100647961Y-78563904D01*
X100647961Y-78563904D02*
X100743200Y-78659142D01*
X100743200Y-78659142D02*
X100790819Y-78801999D01*
X100790819Y-78801999D02*
X100790819Y-79040094D01*
X100790819Y-77516285D02*
X100790819Y-78087713D01*
X100790819Y-77801999D02*
X99790819Y-77801999D01*
X99790819Y-77801999D02*
X99933676Y-77897237D01*
X99933676Y-77897237D02*
X100028914Y-77992475D01*
X100028914Y-77992475D02*
X100076533Y-78087713D01*
X100790819Y-98790094D02*
X99790819Y-98790094D01*
X99790819Y-98790094D02*
X99790819Y-98551999D01*
X99790819Y-98551999D02*
X99838438Y-98409142D01*
X99838438Y-98409142D02*
X99933676Y-98313904D01*
X99933676Y-98313904D02*
X100028914Y-98266285D01*
X100028914Y-98266285D02*
X100219390Y-98218666D01*
X100219390Y-98218666D02*
X100362247Y-98218666D01*
X100362247Y-98218666D02*
X100552723Y-98266285D01*
X100552723Y-98266285D02*
X100647961Y-98313904D01*
X100647961Y-98313904D02*
X100743200Y-98409142D01*
X100743200Y-98409142D02*
X100790819Y-98551999D01*
X100790819Y-98551999D02*
X100790819Y-98790094D01*
X99790819Y-97361523D02*
X99790819Y-97551999D01*
X99790819Y-97551999D02*
X99838438Y-97647237D01*
X99838438Y-97647237D02*
X99886057Y-97694856D01*
X99886057Y-97694856D02*
X100028914Y-97790094D01*
X100028914Y-97790094D02*
X100219390Y-97837713D01*
X100219390Y-97837713D02*
X100600342Y-97837713D01*
X100600342Y-97837713D02*
X100695580Y-97790094D01*
X100695580Y-97790094D02*
X100743200Y-97742475D01*
X100743200Y-97742475D02*
X100790819Y-97647237D01*
X100790819Y-97647237D02*
X100790819Y-97456761D01*
X100790819Y-97456761D02*
X100743200Y-97361523D01*
X100743200Y-97361523D02*
X100695580Y-97313904D01*
X100695580Y-97313904D02*
X100600342Y-97266285D01*
X100600342Y-97266285D02*
X100362247Y-97266285D01*
X100362247Y-97266285D02*
X100267009Y-97313904D01*
X100267009Y-97313904D02*
X100219390Y-97361523D01*
X100219390Y-97361523D02*
X100171771Y-97456761D01*
X100171771Y-97456761D02*
X100171771Y-97647237D01*
X100171771Y-97647237D02*
X100219390Y-97742475D01*
X100219390Y-97742475D02*
X100267009Y-97790094D01*
X100267009Y-97790094D02*
X100362247Y-97837713D01*
X139790819Y-99540094D02*
X138790819Y-99540094D01*
X138790819Y-99540094D02*
X138790819Y-99301999D01*
X138790819Y-99301999D02*
X138838438Y-99159142D01*
X138838438Y-99159142D02*
X138933676Y-99063904D01*
X138933676Y-99063904D02*
X139028914Y-99016285D01*
X139028914Y-99016285D02*
X139219390Y-98968666D01*
X139219390Y-98968666D02*
X139362247Y-98968666D01*
X139362247Y-98968666D02*
X139552723Y-99016285D01*
X139552723Y-99016285D02*
X139647961Y-99063904D01*
X139647961Y-99063904D02*
X139743200Y-99159142D01*
X139743200Y-99159142D02*
X139790819Y-99301999D01*
X139790819Y-99301999D02*
X139790819Y-99540094D01*
X139219390Y-98397237D02*
X139171771Y-98492475D01*
X139171771Y-98492475D02*
X139124152Y-98540094D01*
X139124152Y-98540094D02*
X139028914Y-98587713D01*
X139028914Y-98587713D02*
X138981295Y-98587713D01*
X138981295Y-98587713D02*
X138886057Y-98540094D01*
X138886057Y-98540094D02*
X138838438Y-98492475D01*
X138838438Y-98492475D02*
X138790819Y-98397237D01*
X138790819Y-98397237D02*
X138790819Y-98206761D01*
X138790819Y-98206761D02*
X138838438Y-98111523D01*
X138838438Y-98111523D02*
X138886057Y-98063904D01*
X138886057Y-98063904D02*
X138981295Y-98016285D01*
X138981295Y-98016285D02*
X139028914Y-98016285D01*
X139028914Y-98016285D02*
X139124152Y-98063904D01*
X139124152Y-98063904D02*
X139171771Y-98111523D01*
X139171771Y-98111523D02*
X139219390Y-98206761D01*
X139219390Y-98206761D02*
X139219390Y-98397237D01*
X139219390Y-98397237D02*
X139267009Y-98492475D01*
X139267009Y-98492475D02*
X139314628Y-98540094D01*
X139314628Y-98540094D02*
X139409866Y-98587713D01*
X139409866Y-98587713D02*
X139600342Y-98587713D01*
X139600342Y-98587713D02*
X139695580Y-98540094D01*
X139695580Y-98540094D02*
X139743200Y-98492475D01*
X139743200Y-98492475D02*
X139790819Y-98397237D01*
X139790819Y-98397237D02*
X139790819Y-98206761D01*
X139790819Y-98206761D02*
X139743200Y-98111523D01*
X139743200Y-98111523D02*
X139695580Y-98063904D01*
X139695580Y-98063904D02*
X139600342Y-98016285D01*
X139600342Y-98016285D02*
X139409866Y-98016285D01*
X139409866Y-98016285D02*
X139314628Y-98063904D01*
X139314628Y-98063904D02*
X139267009Y-98111523D01*
X139267009Y-98111523D02*
X139219390Y-98206761D01*
X111198819Y-44362666D02*
X110722628Y-44695999D01*
X111198819Y-44934094D02*
X110198819Y-44934094D01*
X110198819Y-44934094D02*
X110198819Y-44553142D01*
X110198819Y-44553142D02*
X110246438Y-44457904D01*
X110246438Y-44457904D02*
X110294057Y-44410285D01*
X110294057Y-44410285D02*
X110389295Y-44362666D01*
X110389295Y-44362666D02*
X110532152Y-44362666D01*
X110532152Y-44362666D02*
X110627390Y-44410285D01*
X110627390Y-44410285D02*
X110675009Y-44457904D01*
X110675009Y-44457904D02*
X110722628Y-44553142D01*
X110722628Y-44553142D02*
X110722628Y-44934094D01*
X110294057Y-43981713D02*
X110246438Y-43934094D01*
X110246438Y-43934094D02*
X110198819Y-43838856D01*
X110198819Y-43838856D02*
X110198819Y-43600761D01*
X110198819Y-43600761D02*
X110246438Y-43505523D01*
X110246438Y-43505523D02*
X110294057Y-43457904D01*
X110294057Y-43457904D02*
X110389295Y-43410285D01*
X110389295Y-43410285D02*
X110484533Y-43410285D01*
X110484533Y-43410285D02*
X110627390Y-43457904D01*
X110627390Y-43457904D02*
X111198819Y-44029332D01*
X111198819Y-44029332D02*
X111198819Y-43410285D01*
X144462667Y-74085200D02*
X144605524Y-74132819D01*
X144605524Y-74132819D02*
X144843619Y-74132819D01*
X144843619Y-74132819D02*
X144938857Y-74085200D01*
X144938857Y-74085200D02*
X144986476Y-74037580D01*
X144986476Y-74037580D02*
X145034095Y-73942342D01*
X145034095Y-73942342D02*
X145034095Y-73847104D01*
X145034095Y-73847104D02*
X144986476Y-73751866D01*
X144986476Y-73751866D02*
X144938857Y-73704247D01*
X144938857Y-73704247D02*
X144843619Y-73656628D01*
X144843619Y-73656628D02*
X144653143Y-73609009D01*
X144653143Y-73609009D02*
X144557905Y-73561390D01*
X144557905Y-73561390D02*
X144510286Y-73513771D01*
X144510286Y-73513771D02*
X144462667Y-73418533D01*
X144462667Y-73418533D02*
X144462667Y-73323295D01*
X144462667Y-73323295D02*
X144510286Y-73228057D01*
X144510286Y-73228057D02*
X144557905Y-73180438D01*
X144557905Y-73180438D02*
X144653143Y-73132819D01*
X144653143Y-73132819D02*
X144891238Y-73132819D01*
X144891238Y-73132819D02*
X145034095Y-73180438D01*
X145367429Y-73132819D02*
X145605524Y-74132819D01*
X145605524Y-74132819D02*
X145796000Y-73418533D01*
X145796000Y-73418533D02*
X145986476Y-74132819D01*
X145986476Y-74132819D02*
X146224572Y-73132819D01*
X147034095Y-73132819D02*
X146843619Y-73132819D01*
X146843619Y-73132819D02*
X146748381Y-73180438D01*
X146748381Y-73180438D02*
X146700762Y-73228057D01*
X146700762Y-73228057D02*
X146605524Y-73370914D01*
X146605524Y-73370914D02*
X146557905Y-73561390D01*
X146557905Y-73561390D02*
X146557905Y-73942342D01*
X146557905Y-73942342D02*
X146605524Y-74037580D01*
X146605524Y-74037580D02*
X146653143Y-74085200D01*
X146653143Y-74085200D02*
X146748381Y-74132819D01*
X146748381Y-74132819D02*
X146938857Y-74132819D01*
X146938857Y-74132819D02*
X147034095Y-74085200D01*
X147034095Y-74085200D02*
X147081714Y-74037580D01*
X147081714Y-74037580D02*
X147129333Y-73942342D01*
X147129333Y-73942342D02*
X147129333Y-73704247D01*
X147129333Y-73704247D02*
X147081714Y-73609009D01*
X147081714Y-73609009D02*
X147034095Y-73561390D01*
X147034095Y-73561390D02*
X146938857Y-73513771D01*
X146938857Y-73513771D02*
X146748381Y-73513771D01*
X146748381Y-73513771D02*
X146653143Y-73561390D01*
X146653143Y-73561390D02*
X146605524Y-73609009D01*
X146605524Y-73609009D02*
X146557905Y-73704247D01*
X105462667Y-93625200D02*
X105605524Y-93672819D01*
X105605524Y-93672819D02*
X105843619Y-93672819D01*
X105843619Y-93672819D02*
X105938857Y-93625200D01*
X105938857Y-93625200D02*
X105986476Y-93577580D01*
X105986476Y-93577580D02*
X106034095Y-93482342D01*
X106034095Y-93482342D02*
X106034095Y-93387104D01*
X106034095Y-93387104D02*
X105986476Y-93291866D01*
X105986476Y-93291866D02*
X105938857Y-93244247D01*
X105938857Y-93244247D02*
X105843619Y-93196628D01*
X105843619Y-93196628D02*
X105653143Y-93149009D01*
X105653143Y-93149009D02*
X105557905Y-93101390D01*
X105557905Y-93101390D02*
X105510286Y-93053771D01*
X105510286Y-93053771D02*
X105462667Y-92958533D01*
X105462667Y-92958533D02*
X105462667Y-92863295D01*
X105462667Y-92863295D02*
X105510286Y-92768057D01*
X105510286Y-92768057D02*
X105557905Y-92720438D01*
X105557905Y-92720438D02*
X105653143Y-92672819D01*
X105653143Y-92672819D02*
X105891238Y-92672819D01*
X105891238Y-92672819D02*
X106034095Y-92720438D01*
X106367429Y-92672819D02*
X106605524Y-93672819D01*
X106605524Y-93672819D02*
X106796000Y-92958533D01*
X106796000Y-92958533D02*
X106986476Y-93672819D01*
X106986476Y-93672819D02*
X107224572Y-92672819D01*
X107510286Y-92672819D02*
X108176952Y-92672819D01*
X108176952Y-92672819D02*
X107748381Y-93672819D01*
X144346333Y-40429580D02*
X144298714Y-40477200D01*
X144298714Y-40477200D02*
X144155857Y-40524819D01*
X144155857Y-40524819D02*
X144060619Y-40524819D01*
X144060619Y-40524819D02*
X143917762Y-40477200D01*
X143917762Y-40477200D02*
X143822524Y-40381961D01*
X143822524Y-40381961D02*
X143774905Y-40286723D01*
X143774905Y-40286723D02*
X143727286Y-40096247D01*
X143727286Y-40096247D02*
X143727286Y-39953390D01*
X143727286Y-39953390D02*
X143774905Y-39762914D01*
X143774905Y-39762914D02*
X143822524Y-39667676D01*
X143822524Y-39667676D02*
X143917762Y-39572438D01*
X143917762Y-39572438D02*
X144060619Y-39524819D01*
X144060619Y-39524819D02*
X144155857Y-39524819D01*
X144155857Y-39524819D02*
X144298714Y-39572438D01*
X144298714Y-39572438D02*
X144346333Y-39620057D01*
X145298714Y-40524819D02*
X144727286Y-40524819D01*
X145013000Y-40524819D02*
X145013000Y-39524819D01*
X145013000Y-39524819D02*
X144917762Y-39667676D01*
X144917762Y-39667676D02*
X144822524Y-39762914D01*
X144822524Y-39762914D02*
X144727286Y-39810533D01*
X123309142Y-71153580D02*
X123261523Y-71201200D01*
X123261523Y-71201200D02*
X123118666Y-71248819D01*
X123118666Y-71248819D02*
X123023428Y-71248819D01*
X123023428Y-71248819D02*
X122880571Y-71201200D01*
X122880571Y-71201200D02*
X122785333Y-71105961D01*
X122785333Y-71105961D02*
X122737714Y-71010723D01*
X122737714Y-71010723D02*
X122690095Y-70820247D01*
X122690095Y-70820247D02*
X122690095Y-70677390D01*
X122690095Y-70677390D02*
X122737714Y-70486914D01*
X122737714Y-70486914D02*
X122785333Y-70391676D01*
X122785333Y-70391676D02*
X122880571Y-70296438D01*
X122880571Y-70296438D02*
X123023428Y-70248819D01*
X123023428Y-70248819D02*
X123118666Y-70248819D01*
X123118666Y-70248819D02*
X123261523Y-70296438D01*
X123261523Y-70296438D02*
X123309142Y-70344057D01*
X123690095Y-70344057D02*
X123737714Y-70296438D01*
X123737714Y-70296438D02*
X123832952Y-70248819D01*
X123832952Y-70248819D02*
X124071047Y-70248819D01*
X124071047Y-70248819D02*
X124166285Y-70296438D01*
X124166285Y-70296438D02*
X124213904Y-70344057D01*
X124213904Y-70344057D02*
X124261523Y-70439295D01*
X124261523Y-70439295D02*
X124261523Y-70534533D01*
X124261523Y-70534533D02*
X124213904Y-70677390D01*
X124213904Y-70677390D02*
X123642476Y-71248819D01*
X123642476Y-71248819D02*
X124261523Y-71248819D01*
X124642476Y-70344057D02*
X124690095Y-70296438D01*
X124690095Y-70296438D02*
X124785333Y-70248819D01*
X124785333Y-70248819D02*
X125023428Y-70248819D01*
X125023428Y-70248819D02*
X125118666Y-70296438D01*
X125118666Y-70296438D02*
X125166285Y-70344057D01*
X125166285Y-70344057D02*
X125213904Y-70439295D01*
X125213904Y-70439295D02*
X125213904Y-70534533D01*
X125213904Y-70534533D02*
X125166285Y-70677390D01*
X125166285Y-70677390D02*
X124594857Y-71248819D01*
X124594857Y-71248819D02*
X125213904Y-71248819D01*
X123358142Y-89949580D02*
X123310523Y-89997200D01*
X123310523Y-89997200D02*
X123167666Y-90044819D01*
X123167666Y-90044819D02*
X123072428Y-90044819D01*
X123072428Y-90044819D02*
X122929571Y-89997200D01*
X122929571Y-89997200D02*
X122834333Y-89901961D01*
X122834333Y-89901961D02*
X122786714Y-89806723D01*
X122786714Y-89806723D02*
X122739095Y-89616247D01*
X122739095Y-89616247D02*
X122739095Y-89473390D01*
X122739095Y-89473390D02*
X122786714Y-89282914D01*
X122786714Y-89282914D02*
X122834333Y-89187676D01*
X122834333Y-89187676D02*
X122929571Y-89092438D01*
X122929571Y-89092438D02*
X123072428Y-89044819D01*
X123072428Y-89044819D02*
X123167666Y-89044819D01*
X123167666Y-89044819D02*
X123310523Y-89092438D01*
X123310523Y-89092438D02*
X123358142Y-89140057D01*
X124310523Y-90044819D02*
X123739095Y-90044819D01*
X124024809Y-90044819D02*
X124024809Y-89044819D01*
X124024809Y-89044819D02*
X123929571Y-89187676D01*
X123929571Y-89187676D02*
X123834333Y-89282914D01*
X123834333Y-89282914D02*
X123739095Y-89330533D01*
X124881952Y-89473390D02*
X124786714Y-89425771D01*
X124786714Y-89425771D02*
X124739095Y-89378152D01*
X124739095Y-89378152D02*
X124691476Y-89282914D01*
X124691476Y-89282914D02*
X124691476Y-89235295D01*
X124691476Y-89235295D02*
X124739095Y-89140057D01*
X124739095Y-89140057D02*
X124786714Y-89092438D01*
X124786714Y-89092438D02*
X124881952Y-89044819D01*
X124881952Y-89044819D02*
X125072428Y-89044819D01*
X125072428Y-89044819D02*
X125167666Y-89092438D01*
X125167666Y-89092438D02*
X125215285Y-89140057D01*
X125215285Y-89140057D02*
X125262904Y-89235295D01*
X125262904Y-89235295D02*
X125262904Y-89282914D01*
X125262904Y-89282914D02*
X125215285Y-89378152D01*
X125215285Y-89378152D02*
X125167666Y-89425771D01*
X125167666Y-89425771D02*
X125072428Y-89473390D01*
X125072428Y-89473390D02*
X124881952Y-89473390D01*
X124881952Y-89473390D02*
X124786714Y-89521009D01*
X124786714Y-89521009D02*
X124739095Y-89568628D01*
X124739095Y-89568628D02*
X124691476Y-89663866D01*
X124691476Y-89663866D02*
X124691476Y-89854342D01*
X124691476Y-89854342D02*
X124739095Y-89949580D01*
X124739095Y-89949580D02*
X124786714Y-89997200D01*
X124786714Y-89997200D02*
X124881952Y-90044819D01*
X124881952Y-90044819D02*
X125072428Y-90044819D01*
X125072428Y-90044819D02*
X125167666Y-89997200D01*
X125167666Y-89997200D02*
X125215285Y-89949580D01*
X125215285Y-89949580D02*
X125262904Y-89854342D01*
X125262904Y-89854342D02*
X125262904Y-89663866D01*
X125262904Y-89663866D02*
X125215285Y-89568628D01*
X125215285Y-89568628D02*
X125167666Y-89521009D01*
X125167666Y-89521009D02*
X125072428Y-89473390D01*
X123803580Y-39233666D02*
X123851200Y-39281285D01*
X123851200Y-39281285D02*
X123898819Y-39424142D01*
X123898819Y-39424142D02*
X123898819Y-39519380D01*
X123898819Y-39519380D02*
X123851200Y-39662237D01*
X123851200Y-39662237D02*
X123755961Y-39757475D01*
X123755961Y-39757475D02*
X123660723Y-39805094D01*
X123660723Y-39805094D02*
X123470247Y-39852713D01*
X123470247Y-39852713D02*
X123327390Y-39852713D01*
X123327390Y-39852713D02*
X123136914Y-39805094D01*
X123136914Y-39805094D02*
X123041676Y-39757475D01*
X123041676Y-39757475D02*
X122946438Y-39662237D01*
X122946438Y-39662237D02*
X122898819Y-39519380D01*
X122898819Y-39519380D02*
X122898819Y-39424142D01*
X122898819Y-39424142D02*
X122946438Y-39281285D01*
X122946438Y-39281285D02*
X122994057Y-39233666D01*
X122898819Y-38376523D02*
X122898819Y-38566999D01*
X122898819Y-38566999D02*
X122946438Y-38662237D01*
X122946438Y-38662237D02*
X122994057Y-38709856D01*
X122994057Y-38709856D02*
X123136914Y-38805094D01*
X123136914Y-38805094D02*
X123327390Y-38852713D01*
X123327390Y-38852713D02*
X123708342Y-38852713D01*
X123708342Y-38852713D02*
X123803580Y-38805094D01*
X123803580Y-38805094D02*
X123851200Y-38757475D01*
X123851200Y-38757475D02*
X123898819Y-38662237D01*
X123898819Y-38662237D02*
X123898819Y-38471761D01*
X123898819Y-38471761D02*
X123851200Y-38376523D01*
X123851200Y-38376523D02*
X123803580Y-38328904D01*
X123803580Y-38328904D02*
X123708342Y-38281285D01*
X123708342Y-38281285D02*
X123470247Y-38281285D01*
X123470247Y-38281285D02*
X123375009Y-38328904D01*
X123375009Y-38328904D02*
X123327390Y-38376523D01*
X123327390Y-38376523D02*
X123279771Y-38471761D01*
X123279771Y-38471761D02*
X123279771Y-38662237D01*
X123279771Y-38662237D02*
X123327390Y-38757475D01*
X123327390Y-38757475D02*
X123375009Y-38805094D01*
X123375009Y-38805094D02*
X123470247Y-38852713D01*
X124962667Y-74125200D02*
X125105524Y-74172819D01*
X125105524Y-74172819D02*
X125343619Y-74172819D01*
X125343619Y-74172819D02*
X125438857Y-74125200D01*
X125438857Y-74125200D02*
X125486476Y-74077580D01*
X125486476Y-74077580D02*
X125534095Y-73982342D01*
X125534095Y-73982342D02*
X125534095Y-73887104D01*
X125534095Y-73887104D02*
X125486476Y-73791866D01*
X125486476Y-73791866D02*
X125438857Y-73744247D01*
X125438857Y-73744247D02*
X125343619Y-73696628D01*
X125343619Y-73696628D02*
X125153143Y-73649009D01*
X125153143Y-73649009D02*
X125057905Y-73601390D01*
X125057905Y-73601390D02*
X125010286Y-73553771D01*
X125010286Y-73553771D02*
X124962667Y-73458533D01*
X124962667Y-73458533D02*
X124962667Y-73363295D01*
X124962667Y-73363295D02*
X125010286Y-73268057D01*
X125010286Y-73268057D02*
X125057905Y-73220438D01*
X125057905Y-73220438D02*
X125153143Y-73172819D01*
X125153143Y-73172819D02*
X125391238Y-73172819D01*
X125391238Y-73172819D02*
X125534095Y-73220438D01*
X125867429Y-73172819D02*
X126105524Y-74172819D01*
X126105524Y-74172819D02*
X126296000Y-73458533D01*
X126296000Y-73458533D02*
X126486476Y-74172819D01*
X126486476Y-74172819D02*
X126724572Y-73172819D01*
X127581714Y-73172819D02*
X127105524Y-73172819D01*
X127105524Y-73172819D02*
X127057905Y-73649009D01*
X127057905Y-73649009D02*
X127105524Y-73601390D01*
X127105524Y-73601390D02*
X127200762Y-73553771D01*
X127200762Y-73553771D02*
X127438857Y-73553771D01*
X127438857Y-73553771D02*
X127534095Y-73601390D01*
X127534095Y-73601390D02*
X127581714Y-73649009D01*
X127581714Y-73649009D02*
X127629333Y-73744247D01*
X127629333Y-73744247D02*
X127629333Y-73982342D01*
X127629333Y-73982342D02*
X127581714Y-74077580D01*
X127581714Y-74077580D02*
X127534095Y-74125200D01*
X127534095Y-74125200D02*
X127438857Y-74172819D01*
X127438857Y-74172819D02*
X127200762Y-74172819D01*
X127200762Y-74172819D02*
X127105524Y-74125200D01*
X127105524Y-74125200D02*
X127057905Y-74077580D01*
X146021333Y-54579580D02*
X145973714Y-54627200D01*
X145973714Y-54627200D02*
X145830857Y-54674819D01*
X145830857Y-54674819D02*
X145735619Y-54674819D01*
X145735619Y-54674819D02*
X145592762Y-54627200D01*
X145592762Y-54627200D02*
X145497524Y-54531961D01*
X145497524Y-54531961D02*
X145449905Y-54436723D01*
X145449905Y-54436723D02*
X145402286Y-54246247D01*
X145402286Y-54246247D02*
X145402286Y-54103390D01*
X145402286Y-54103390D02*
X145449905Y-53912914D01*
X145449905Y-53912914D02*
X145497524Y-53817676D01*
X145497524Y-53817676D02*
X145592762Y-53722438D01*
X145592762Y-53722438D02*
X145735619Y-53674819D01*
X145735619Y-53674819D02*
X145830857Y-53674819D01*
X145830857Y-53674819D02*
X145973714Y-53722438D01*
X145973714Y-53722438D02*
X146021333Y-53770057D01*
X146402286Y-53770057D02*
X146449905Y-53722438D01*
X146449905Y-53722438D02*
X146545143Y-53674819D01*
X146545143Y-53674819D02*
X146783238Y-53674819D01*
X146783238Y-53674819D02*
X146878476Y-53722438D01*
X146878476Y-53722438D02*
X146926095Y-53770057D01*
X146926095Y-53770057D02*
X146973714Y-53865295D01*
X146973714Y-53865295D02*
X146973714Y-53960533D01*
X146973714Y-53960533D02*
X146926095Y-54103390D01*
X146926095Y-54103390D02*
X146354667Y-54674819D01*
X146354667Y-54674819D02*
X146973714Y-54674819D01*
X102404761Y-33204819D02*
X102071428Y-32728628D01*
X101833333Y-33204819D02*
X101833333Y-32204819D01*
X101833333Y-32204819D02*
X102214285Y-32204819D01*
X102214285Y-32204819D02*
X102309523Y-32252438D01*
X102309523Y-32252438D02*
X102357142Y-32300057D01*
X102357142Y-32300057D02*
X102404761Y-32395295D01*
X102404761Y-32395295D02*
X102404761Y-32538152D01*
X102404761Y-32538152D02*
X102357142Y-32633390D01*
X102357142Y-32633390D02*
X102309523Y-32681009D01*
X102309523Y-32681009D02*
X102214285Y-32728628D01*
X102214285Y-32728628D02*
X101833333Y-32728628D01*
X102833333Y-32681009D02*
X103166666Y-32681009D01*
X103309523Y-33204819D02*
X102833333Y-33204819D01*
X102833333Y-33204819D02*
X102833333Y-32204819D01*
X102833333Y-32204819D02*
X103309523Y-32204819D01*
X103690476Y-33157200D02*
X103833333Y-33204819D01*
X103833333Y-33204819D02*
X104071428Y-33204819D01*
X104071428Y-33204819D02*
X104166666Y-33157200D01*
X104166666Y-33157200D02*
X104214285Y-33109580D01*
X104214285Y-33109580D02*
X104261904Y-33014342D01*
X104261904Y-33014342D02*
X104261904Y-32919104D01*
X104261904Y-32919104D02*
X104214285Y-32823866D01*
X104214285Y-32823866D02*
X104166666Y-32776247D01*
X104166666Y-32776247D02*
X104071428Y-32728628D01*
X104071428Y-32728628D02*
X103880952Y-32681009D01*
X103880952Y-32681009D02*
X103785714Y-32633390D01*
X103785714Y-32633390D02*
X103738095Y-32585771D01*
X103738095Y-32585771D02*
X103690476Y-32490533D01*
X103690476Y-32490533D02*
X103690476Y-32395295D01*
X103690476Y-32395295D02*
X103738095Y-32300057D01*
X103738095Y-32300057D02*
X103785714Y-32252438D01*
X103785714Y-32252438D02*
X103880952Y-32204819D01*
X103880952Y-32204819D02*
X104119047Y-32204819D01*
X104119047Y-32204819D02*
X104261904Y-32252438D01*
X105214285Y-33204819D02*
X104642857Y-33204819D01*
X104928571Y-33204819D02*
X104928571Y-32204819D01*
X104928571Y-32204819D02*
X104833333Y-32347676D01*
X104833333Y-32347676D02*
X104738095Y-32442914D01*
X104738095Y-32442914D02*
X104642857Y-32490533D01*
X137441142Y-44759580D02*
X137393523Y-44807200D01*
X137393523Y-44807200D02*
X137250666Y-44854819D01*
X137250666Y-44854819D02*
X137155428Y-44854819D01*
X137155428Y-44854819D02*
X137012571Y-44807200D01*
X137012571Y-44807200D02*
X136917333Y-44711961D01*
X136917333Y-44711961D02*
X136869714Y-44616723D01*
X136869714Y-44616723D02*
X136822095Y-44426247D01*
X136822095Y-44426247D02*
X136822095Y-44283390D01*
X136822095Y-44283390D02*
X136869714Y-44092914D01*
X136869714Y-44092914D02*
X136917333Y-43997676D01*
X136917333Y-43997676D02*
X137012571Y-43902438D01*
X137012571Y-43902438D02*
X137155428Y-43854819D01*
X137155428Y-43854819D02*
X137250666Y-43854819D01*
X137250666Y-43854819D02*
X137393523Y-43902438D01*
X137393523Y-43902438D02*
X137441142Y-43950057D01*
X138393523Y-44854819D02*
X137822095Y-44854819D01*
X138107809Y-44854819D02*
X138107809Y-43854819D01*
X138107809Y-43854819D02*
X138012571Y-43997676D01*
X138012571Y-43997676D02*
X137917333Y-44092914D01*
X137917333Y-44092914D02*
X137822095Y-44140533D01*
X139250666Y-44188152D02*
X139250666Y-44854819D01*
X139012571Y-43807200D02*
X138774476Y-44521485D01*
X138774476Y-44521485D02*
X139393523Y-44521485D01*
X108698819Y-44362666D02*
X108222628Y-44695999D01*
X108698819Y-44934094D02*
X107698819Y-44934094D01*
X107698819Y-44934094D02*
X107698819Y-44553142D01*
X107698819Y-44553142D02*
X107746438Y-44457904D01*
X107746438Y-44457904D02*
X107794057Y-44410285D01*
X107794057Y-44410285D02*
X107889295Y-44362666D01*
X107889295Y-44362666D02*
X108032152Y-44362666D01*
X108032152Y-44362666D02*
X108127390Y-44410285D01*
X108127390Y-44410285D02*
X108175009Y-44457904D01*
X108175009Y-44457904D02*
X108222628Y-44553142D01*
X108222628Y-44553142D02*
X108222628Y-44934094D01*
X107698819Y-44029332D02*
X107698819Y-43410285D01*
X107698819Y-43410285D02*
X108079771Y-43743618D01*
X108079771Y-43743618D02*
X108079771Y-43600761D01*
X108079771Y-43600761D02*
X108127390Y-43505523D01*
X108127390Y-43505523D02*
X108175009Y-43457904D01*
X108175009Y-43457904D02*
X108270247Y-43410285D01*
X108270247Y-43410285D02*
X108508342Y-43410285D01*
X108508342Y-43410285D02*
X108603580Y-43457904D01*
X108603580Y-43457904D02*
X108651200Y-43505523D01*
X108651200Y-43505523D02*
X108698819Y-43600761D01*
X108698819Y-43600761D02*
X108698819Y-43886475D01*
X108698819Y-43886475D02*
X108651200Y-43981713D01*
X108651200Y-43981713D02*
X108603580Y-44029332D01*
X110630667Y-71631200D02*
X110773524Y-71678819D01*
X110773524Y-71678819D02*
X111011619Y-71678819D01*
X111011619Y-71678819D02*
X111106857Y-71631200D01*
X111106857Y-71631200D02*
X111154476Y-71583580D01*
X111154476Y-71583580D02*
X111202095Y-71488342D01*
X111202095Y-71488342D02*
X111202095Y-71393104D01*
X111202095Y-71393104D02*
X111154476Y-71297866D01*
X111154476Y-71297866D02*
X111106857Y-71250247D01*
X111106857Y-71250247D02*
X111011619Y-71202628D01*
X111011619Y-71202628D02*
X110821143Y-71155009D01*
X110821143Y-71155009D02*
X110725905Y-71107390D01*
X110725905Y-71107390D02*
X110678286Y-71059771D01*
X110678286Y-71059771D02*
X110630667Y-70964533D01*
X110630667Y-70964533D02*
X110630667Y-70869295D01*
X110630667Y-70869295D02*
X110678286Y-70774057D01*
X110678286Y-70774057D02*
X110725905Y-70726438D01*
X110725905Y-70726438D02*
X110821143Y-70678819D01*
X110821143Y-70678819D02*
X111059238Y-70678819D01*
X111059238Y-70678819D02*
X111202095Y-70726438D01*
X111535429Y-70678819D02*
X111773524Y-71678819D01*
X111773524Y-71678819D02*
X111964000Y-70964533D01*
X111964000Y-70964533D02*
X112154476Y-71678819D01*
X112154476Y-71678819D02*
X112392572Y-70678819D01*
X112678286Y-70678819D02*
X113297333Y-70678819D01*
X113297333Y-70678819D02*
X112964000Y-71059771D01*
X112964000Y-71059771D02*
X113106857Y-71059771D01*
X113106857Y-71059771D02*
X113202095Y-71107390D01*
X113202095Y-71107390D02*
X113249714Y-71155009D01*
X113249714Y-71155009D02*
X113297333Y-71250247D01*
X113297333Y-71250247D02*
X113297333Y-71488342D01*
X113297333Y-71488342D02*
X113249714Y-71583580D01*
X113249714Y-71583580D02*
X113202095Y-71631200D01*
X113202095Y-71631200D02*
X113106857Y-71678819D01*
X113106857Y-71678819D02*
X112821143Y-71678819D01*
X112821143Y-71678819D02*
X112725905Y-71631200D01*
X112725905Y-71631200D02*
X112678286Y-71583580D01*
X132361142Y-49959580D02*
X132313523Y-50007200D01*
X132313523Y-50007200D02*
X132170666Y-50054819D01*
X132170666Y-50054819D02*
X132075428Y-50054819D01*
X132075428Y-50054819D02*
X131932571Y-50007200D01*
X131932571Y-50007200D02*
X131837333Y-49911961D01*
X131837333Y-49911961D02*
X131789714Y-49816723D01*
X131789714Y-49816723D02*
X131742095Y-49626247D01*
X131742095Y-49626247D02*
X131742095Y-49483390D01*
X131742095Y-49483390D02*
X131789714Y-49292914D01*
X131789714Y-49292914D02*
X131837333Y-49197676D01*
X131837333Y-49197676D02*
X131932571Y-49102438D01*
X131932571Y-49102438D02*
X132075428Y-49054819D01*
X132075428Y-49054819D02*
X132170666Y-49054819D01*
X132170666Y-49054819D02*
X132313523Y-49102438D01*
X132313523Y-49102438D02*
X132361142Y-49150057D01*
X133313523Y-50054819D02*
X132742095Y-50054819D01*
X133027809Y-50054819D02*
X133027809Y-49054819D01*
X133027809Y-49054819D02*
X132932571Y-49197676D01*
X132932571Y-49197676D02*
X132837333Y-49292914D01*
X132837333Y-49292914D02*
X132742095Y-49340533D01*
X133694476Y-49150057D02*
X133742095Y-49102438D01*
X133742095Y-49102438D02*
X133837333Y-49054819D01*
X133837333Y-49054819D02*
X134075428Y-49054819D01*
X134075428Y-49054819D02*
X134170666Y-49102438D01*
X134170666Y-49102438D02*
X134218285Y-49150057D01*
X134218285Y-49150057D02*
X134265904Y-49245295D01*
X134265904Y-49245295D02*
X134265904Y-49340533D01*
X134265904Y-49340533D02*
X134218285Y-49483390D01*
X134218285Y-49483390D02*
X133646857Y-50054819D01*
X133646857Y-50054819D02*
X134265904Y-50054819D01*
X126438819Y-63158666D02*
X125962628Y-63491999D01*
X126438819Y-63730094D02*
X125438819Y-63730094D01*
X125438819Y-63730094D02*
X125438819Y-63349142D01*
X125438819Y-63349142D02*
X125486438Y-63253904D01*
X125486438Y-63253904D02*
X125534057Y-63206285D01*
X125534057Y-63206285D02*
X125629295Y-63158666D01*
X125629295Y-63158666D02*
X125772152Y-63158666D01*
X125772152Y-63158666D02*
X125867390Y-63206285D01*
X125867390Y-63206285D02*
X125915009Y-63253904D01*
X125915009Y-63253904D02*
X125962628Y-63349142D01*
X125962628Y-63349142D02*
X125962628Y-63730094D01*
X126438819Y-62206285D02*
X126438819Y-62777713D01*
X126438819Y-62491999D02*
X125438819Y-62491999D01*
X125438819Y-62491999D02*
X125581676Y-62587237D01*
X125581676Y-62587237D02*
X125676914Y-62682475D01*
X125676914Y-62682475D02*
X125724533Y-62777713D01*
X157244819Y-68988094D02*
X156244819Y-68988094D01*
X156244819Y-68988094D02*
X156244819Y-68749999D01*
X156244819Y-68749999D02*
X156292438Y-68607142D01*
X156292438Y-68607142D02*
X156387676Y-68511904D01*
X156387676Y-68511904D02*
X156482914Y-68464285D01*
X156482914Y-68464285D02*
X156673390Y-68416666D01*
X156673390Y-68416666D02*
X156816247Y-68416666D01*
X156816247Y-68416666D02*
X157006723Y-68464285D01*
X157006723Y-68464285D02*
X157101961Y-68511904D01*
X157101961Y-68511904D02*
X157197200Y-68607142D01*
X157197200Y-68607142D02*
X157244819Y-68749999D01*
X157244819Y-68749999D02*
X157244819Y-68988094D01*
X156244819Y-67511904D02*
X156244819Y-67988094D01*
X156244819Y-67988094D02*
X156721009Y-68035713D01*
X156721009Y-68035713D02*
X156673390Y-67988094D01*
X156673390Y-67988094D02*
X156625771Y-67892856D01*
X156625771Y-67892856D02*
X156625771Y-67654761D01*
X156625771Y-67654761D02*
X156673390Y-67559523D01*
X156673390Y-67559523D02*
X156721009Y-67511904D01*
X156721009Y-67511904D02*
X156816247Y-67464285D01*
X156816247Y-67464285D02*
X157054342Y-67464285D01*
X157054342Y-67464285D02*
X157149580Y-67511904D01*
X157149580Y-67511904D02*
X157197200Y-67559523D01*
X157197200Y-67559523D02*
X157244819Y-67654761D01*
X157244819Y-67654761D02*
X157244819Y-67892856D01*
X157244819Y-67892856D02*
X157197200Y-67988094D01*
X157197200Y-67988094D02*
X157149580Y-68035713D01*
X106103580Y-44362666D02*
X106151200Y-44410285D01*
X106151200Y-44410285D02*
X106198819Y-44553142D01*
X106198819Y-44553142D02*
X106198819Y-44648380D01*
X106198819Y-44648380D02*
X106151200Y-44791237D01*
X106151200Y-44791237D02*
X106055961Y-44886475D01*
X106055961Y-44886475D02*
X105960723Y-44934094D01*
X105960723Y-44934094D02*
X105770247Y-44981713D01*
X105770247Y-44981713D02*
X105627390Y-44981713D01*
X105627390Y-44981713D02*
X105436914Y-44934094D01*
X105436914Y-44934094D02*
X105341676Y-44886475D01*
X105341676Y-44886475D02*
X105246438Y-44791237D01*
X105246438Y-44791237D02*
X105198819Y-44648380D01*
X105198819Y-44648380D02*
X105198819Y-44553142D01*
X105198819Y-44553142D02*
X105246438Y-44410285D01*
X105246438Y-44410285D02*
X105294057Y-44362666D01*
X105198819Y-43457904D02*
X105198819Y-43934094D01*
X105198819Y-43934094D02*
X105675009Y-43981713D01*
X105675009Y-43981713D02*
X105627390Y-43934094D01*
X105627390Y-43934094D02*
X105579771Y-43838856D01*
X105579771Y-43838856D02*
X105579771Y-43600761D01*
X105579771Y-43600761D02*
X105627390Y-43505523D01*
X105627390Y-43505523D02*
X105675009Y-43457904D01*
X105675009Y-43457904D02*
X105770247Y-43410285D01*
X105770247Y-43410285D02*
X106008342Y-43410285D01*
X106008342Y-43410285D02*
X106103580Y-43457904D01*
X106103580Y-43457904D02*
X106151200Y-43505523D01*
X106151200Y-43505523D02*
X106198819Y-43600761D01*
X106198819Y-43600761D02*
X106198819Y-43838856D01*
X106198819Y-43838856D02*
X106151200Y-43934094D01*
X106151200Y-43934094D02*
X106103580Y-43981713D01*
X128883580Y-63109666D02*
X128931200Y-63157285D01*
X128931200Y-63157285D02*
X128978819Y-63300142D01*
X128978819Y-63300142D02*
X128978819Y-63395380D01*
X128978819Y-63395380D02*
X128931200Y-63538237D01*
X128931200Y-63538237D02*
X128835961Y-63633475D01*
X128835961Y-63633475D02*
X128740723Y-63681094D01*
X128740723Y-63681094D02*
X128550247Y-63728713D01*
X128550247Y-63728713D02*
X128407390Y-63728713D01*
X128407390Y-63728713D02*
X128216914Y-63681094D01*
X128216914Y-63681094D02*
X128121676Y-63633475D01*
X128121676Y-63633475D02*
X128026438Y-63538237D01*
X128026438Y-63538237D02*
X127978819Y-63395380D01*
X127978819Y-63395380D02*
X127978819Y-63300142D01*
X127978819Y-63300142D02*
X128026438Y-63157285D01*
X128026438Y-63157285D02*
X128074057Y-63109666D01*
X128407390Y-62538237D02*
X128359771Y-62633475D01*
X128359771Y-62633475D02*
X128312152Y-62681094D01*
X128312152Y-62681094D02*
X128216914Y-62728713D01*
X128216914Y-62728713D02*
X128169295Y-62728713D01*
X128169295Y-62728713D02*
X128074057Y-62681094D01*
X128074057Y-62681094D02*
X128026438Y-62633475D01*
X128026438Y-62633475D02*
X127978819Y-62538237D01*
X127978819Y-62538237D02*
X127978819Y-62347761D01*
X127978819Y-62347761D02*
X128026438Y-62252523D01*
X128026438Y-62252523D02*
X128074057Y-62204904D01*
X128074057Y-62204904D02*
X128169295Y-62157285D01*
X128169295Y-62157285D02*
X128216914Y-62157285D01*
X128216914Y-62157285D02*
X128312152Y-62204904D01*
X128312152Y-62204904D02*
X128359771Y-62252523D01*
X128359771Y-62252523D02*
X128407390Y-62347761D01*
X128407390Y-62347761D02*
X128407390Y-62538237D01*
X128407390Y-62538237D02*
X128455009Y-62633475D01*
X128455009Y-62633475D02*
X128502628Y-62681094D01*
X128502628Y-62681094D02*
X128597866Y-62728713D01*
X128597866Y-62728713D02*
X128788342Y-62728713D01*
X128788342Y-62728713D02*
X128883580Y-62681094D01*
X128883580Y-62681094D02*
X128931200Y-62633475D01*
X128931200Y-62633475D02*
X128978819Y-62538237D01*
X128978819Y-62538237D02*
X128978819Y-62347761D01*
X128978819Y-62347761D02*
X128931200Y-62252523D01*
X128931200Y-62252523D02*
X128883580Y-62204904D01*
X128883580Y-62204904D02*
X128788342Y-62157285D01*
X128788342Y-62157285D02*
X128597866Y-62157285D01*
X128597866Y-62157285D02*
X128502628Y-62204904D01*
X128502628Y-62204904D02*
X128455009Y-62252523D01*
X128455009Y-62252523D02*
X128407390Y-62347761D01*
D12*
%TO.C,G\u002A\u002A\u002A*%
G36*
X134332042Y-31222019D02*
G01*
X134390188Y-31232982D01*
X134494498Y-31244911D01*
X134629386Y-31256253D01*
X134757178Y-31264315D01*
X135112530Y-31283333D01*
X135104326Y-31437210D01*
X135091147Y-31535986D01*
X135066974Y-31612540D01*
X135052620Y-31634588D01*
X135027007Y-31653284D01*
X135018513Y-31632696D01*
X135024427Y-31563044D01*
X135027081Y-31542511D01*
X135045042Y-31406934D01*
X134966910Y-31499635D01*
X134908120Y-31589160D01*
X134869041Y-31683747D01*
X134866951Y-31692407D01*
X134844907Y-31760730D01*
X134817972Y-31807390D01*
X134795853Y-31819987D01*
X134788078Y-31793187D01*
X134769255Y-31773037D01*
X134757178Y-31777737D01*
X134738523Y-31817701D01*
X134727526Y-31896221D01*
X134726277Y-31936123D01*
X134708554Y-32067019D01*
X134648598Y-32177256D01*
X134589649Y-32271975D01*
X134535541Y-32386570D01*
X134521522Y-32424070D01*
X134486941Y-32518116D01*
X134467205Y-32556515D01*
X134462272Y-32543599D01*
X134472100Y-32483703D01*
X134496648Y-32381159D01*
X134522860Y-32285294D01*
X134571983Y-32109623D01*
X134604223Y-31984114D01*
X134620889Y-31899866D01*
X134623291Y-31847979D01*
X134612740Y-31819553D01*
X134593309Y-31806696D01*
X134536259Y-31805444D01*
X134443089Y-31822358D01*
X134334602Y-31851537D01*
X134231601Y-31887083D01*
X134154890Y-31923094D01*
X134136189Y-31936339D01*
X134112299Y-31965023D01*
X134087766Y-32013911D01*
X134059538Y-32091911D01*
X134024563Y-32207933D01*
X133979790Y-32370886D01*
X133953898Y-32468484D01*
X133928025Y-32562801D01*
X133905744Y-32637576D01*
X133900294Y-32653885D01*
X133895519Y-32686504D01*
X133905672Y-32683544D01*
X133927761Y-32645519D01*
X133962732Y-32566558D01*
X134001686Y-32467243D01*
X134037457Y-32377999D01*
X134063855Y-32325533D01*
X134075604Y-32320162D01*
X134075762Y-32322331D01*
X134066861Y-32381270D01*
X134042604Y-32469309D01*
X134031022Y-32503893D01*
X134000483Y-32623210D01*
X133983519Y-32752345D01*
X133982500Y-32778155D01*
X133976054Y-32879134D01*
X133962461Y-32962341D01*
X133956331Y-32982501D01*
X133955306Y-33058103D01*
X134000845Y-33166593D01*
X134004854Y-33173849D01*
X134048653Y-33260792D01*
X134072465Y-33324737D01*
X134074561Y-33356317D01*
X134053212Y-33346164D01*
X134032005Y-33320930D01*
X134011007Y-33298688D01*
X133997496Y-33304747D01*
X133989694Y-33347806D01*
X133985824Y-33436565D01*
X133984298Y-33554501D01*
X133978842Y-33698345D01*
X133966257Y-33832397D01*
X133948836Y-33935186D01*
X133940606Y-33963929D01*
X133914017Y-34046677D01*
X133911740Y-34075369D01*
X133931815Y-34051886D01*
X133972280Y-33978110D01*
X134013243Y-33894262D01*
X134065090Y-33797285D01*
X134100662Y-33755808D01*
X134119029Y-33765465D01*
X134119264Y-33821894D01*
X134100438Y-33920729D01*
X134061620Y-34057605D01*
X134053409Y-34082999D01*
X134014404Y-34204674D01*
X133993416Y-34288775D01*
X133989086Y-34356413D01*
X134000056Y-34428700D01*
X134024893Y-34526454D01*
X134055139Y-34648968D01*
X134070927Y-34732217D01*
X134072069Y-34770991D01*
X134058379Y-34760084D01*
X134031022Y-34697810D01*
X133989373Y-34589659D01*
X133987022Y-34741585D01*
X133989251Y-34824244D01*
X133997518Y-34870176D01*
X134004704Y-34873479D01*
X134029689Y-34887094D01*
X134075805Y-34942099D01*
X134132178Y-35025215D01*
X134191210Y-35125756D01*
X134220561Y-35199951D01*
X134226825Y-35271493D01*
X134219930Y-35340638D01*
X134199418Y-35436104D01*
X134170715Y-35508892D01*
X134158227Y-35526305D01*
X134133388Y-35542932D01*
X134123466Y-35519664D01*
X134125384Y-35446740D01*
X134126823Y-35426616D01*
X134127622Y-35331161D01*
X134110539Y-35288610D01*
X134098132Y-35284915D01*
X134032682Y-35312474D01*
X133992666Y-35386105D01*
X133984671Y-35451502D01*
X133982283Y-35512940D01*
X133968569Y-35519471D01*
X133938321Y-35483947D01*
X133901155Y-35442338D01*
X133873545Y-35450005D01*
X133845620Y-35483947D01*
X133813785Y-35555695D01*
X133799347Y-35648564D01*
X133799270Y-35655084D01*
X133788464Y-35748253D01*
X133760808Y-35865440D01*
X133738584Y-35935006D01*
X133677899Y-36103771D01*
X133674588Y-35980170D01*
X133670303Y-35891506D01*
X133661827Y-35764634D01*
X133650761Y-35622873D01*
X133647166Y-35580822D01*
X133633520Y-35445239D01*
X133618046Y-35355923D01*
X133595954Y-35297411D01*
X133562456Y-35254241D01*
X133539488Y-35233195D01*
X133438960Y-35171886D01*
X133350183Y-35171164D01*
X133291623Y-35209871D01*
X133254595Y-35242021D01*
X133243597Y-35228223D01*
X133243066Y-35209960D01*
X133262677Y-35161374D01*
X133313124Y-35087979D01*
X133358942Y-35033331D01*
X133474817Y-34905171D01*
X133483185Y-34515663D01*
X133486024Y-34355879D01*
X133485774Y-34249733D01*
X133481481Y-34189098D01*
X133472194Y-34165848D01*
X133456960Y-34171856D01*
X133444559Y-34186137D01*
X133410113Y-34217873D01*
X133397567Y-34208081D01*
X133411261Y-34153850D01*
X133444897Y-34077930D01*
X133487306Y-34000924D01*
X133527317Y-33943436D01*
X133550864Y-33925304D01*
X133558234Y-33902071D01*
X133537678Y-33845612D01*
X133534976Y-33840328D01*
X133513850Y-33775595D01*
X133499885Y-33671748D01*
X133492351Y-33520831D01*
X133490458Y-33355194D01*
X133489021Y-33185876D01*
X133484492Y-33072088D01*
X133476258Y-33007609D01*
X133463705Y-32986219D01*
X133454547Y-32990757D01*
X133435472Y-33038686D01*
X133421427Y-33127880D01*
X133415922Y-33224311D01*
X133413218Y-33328817D01*
X133406894Y-33380534D01*
X133393730Y-33388473D01*
X133370507Y-33361645D01*
X133368085Y-33358219D01*
X133332070Y-33256976D01*
X133338257Y-33114575D01*
X133386785Y-32929425D01*
X133411154Y-32861221D01*
X133463599Y-32704063D01*
X133485226Y-32585315D01*
X133477093Y-32490442D01*
X133443917Y-32411192D01*
X133410040Y-32341559D01*
X133401213Y-32301698D01*
X133417313Y-32301439D01*
X133444900Y-32332122D01*
X133474518Y-32366252D01*
X133487296Y-32356395D01*
X133490241Y-32294320D01*
X133490268Y-32278840D01*
X133480658Y-32194858D01*
X133441725Y-32143891D01*
X133401311Y-32119576D01*
X133346571Y-32075834D01*
X133991914Y-32075834D01*
X133999394Y-32078495D01*
X134024967Y-32029472D01*
X134042009Y-31993179D01*
X134099390Y-31902826D01*
X134167954Y-31839029D01*
X134182794Y-31830953D01*
X134276504Y-31802109D01*
X134351022Y-31793187D01*
X134438466Y-31776571D01*
X134496345Y-31747424D01*
X134535903Y-31709527D01*
X134525763Y-31682267D01*
X134509976Y-31670646D01*
X134413798Y-31640781D01*
X134308712Y-31663694D01*
X134272061Y-31685099D01*
X134194082Y-31718380D01*
X134135947Y-31723724D01*
X134090284Y-31732447D01*
X134055227Y-31776004D01*
X134026830Y-31862994D01*
X134001147Y-32002015D01*
X133997717Y-32024939D01*
X133991914Y-32075834D01*
X133346571Y-32075834D01*
X133309214Y-32045983D01*
X133274692Y-31950471D01*
X133274439Y-31937436D01*
X133285292Y-31923336D01*
X133301481Y-31943270D01*
X133352192Y-31970391D01*
X133396820Y-31963376D01*
X133442369Y-31938578D01*
X133431578Y-31907538D01*
X133401905Y-31847739D01*
X133400006Y-31825632D01*
X133407576Y-31799333D01*
X133418031Y-31816362D01*
X133459268Y-31850284D01*
X133522675Y-31847933D01*
X133581328Y-31810569D01*
X133582968Y-31808637D01*
X133629020Y-31769713D01*
X133651404Y-31762287D01*
X133693998Y-31744454D01*
X133718733Y-31727524D01*
X133986630Y-31727524D01*
X133989738Y-31782104D01*
X133999826Y-31778494D01*
X134015529Y-31741829D01*
X134063299Y-31679702D01*
X134105995Y-31654859D01*
X134174876Y-31647771D01*
X134208422Y-31656675D01*
X134230990Y-31664536D01*
X134214492Y-31642833D01*
X134158225Y-31621573D01*
X134083166Y-31626712D01*
X134013662Y-31649831D01*
X133988282Y-31692507D01*
X133986630Y-31727524D01*
X133718733Y-31727524D01*
X133757429Y-31701039D01*
X133763496Y-31696222D01*
X133845620Y-31630157D01*
X133598418Y-31648852D01*
X133458561Y-31659741D01*
X133322545Y-31670845D01*
X133218180Y-31679892D01*
X133212165Y-31680446D01*
X133138134Y-31686029D01*
X133122617Y-31683031D01*
X133162843Y-31670832D01*
X133165815Y-31670083D01*
X133194210Y-31658292D01*
X133168317Y-31650001D01*
X133085298Y-31644735D01*
X133002184Y-31642754D01*
X132871620Y-31638729D01*
X132786196Y-31629024D01*
X132729278Y-31609636D01*
X132684228Y-31576562D01*
X132670007Y-31562840D01*
X132618193Y-31490751D01*
X132596111Y-31419522D01*
X132596119Y-31416064D01*
X132598078Y-31345133D01*
X132626024Y-31414659D01*
X132669489Y-31470445D01*
X132724474Y-31481986D01*
X132765776Y-31450592D01*
X132765754Y-31402503D01*
X132752149Y-31382611D01*
X132721279Y-31322665D01*
X132718701Y-31300328D01*
X132724498Y-31271908D01*
X132745815Y-31297517D01*
X132751137Y-31306508D01*
X132799823Y-31354714D01*
X132860561Y-31345293D01*
X132907908Y-31309939D01*
X132941017Y-31288764D01*
X132992105Y-31274721D01*
X133071982Y-31266759D01*
X133191459Y-31263829D01*
X133361346Y-31264883D01*
X133370815Y-31265014D01*
X133528059Y-31269528D01*
X133666781Y-31277773D01*
X133773228Y-31288635D01*
X133833646Y-31300999D01*
X133837813Y-31302874D01*
X133891106Y-31315835D01*
X133968863Y-31303805D01*
X134080063Y-31266877D01*
X134219532Y-31224751D01*
X134315802Y-31218160D01*
X134332042Y-31222019D01*
G37*
G36*
X142021441Y-30912530D02*
G01*
X142030502Y-31044506D01*
X142032232Y-31172197D01*
X142027299Y-31256787D01*
X142036749Y-31403211D01*
X142099748Y-31526836D01*
X142210319Y-31616480D01*
X142222899Y-31622736D01*
X142311864Y-31659751D01*
X142369387Y-31664552D01*
X142416869Y-31636967D01*
X142433681Y-31621029D01*
X142470686Y-31589435D01*
X142481774Y-31604025D01*
X142482238Y-31619493D01*
X142458021Y-31672936D01*
X142430947Y-31695219D01*
X142400387Y-31719637D01*
X142418964Y-31743705D01*
X142451676Y-31762468D01*
X142510445Y-31784470D01*
X142549723Y-31763742D01*
X142564768Y-31744843D01*
X142596195Y-31714862D01*
X142605839Y-31727512D01*
X142579078Y-31815762D01*
X142512113Y-31891124D01*
X142464909Y-31917502D01*
X142432663Y-31932138D01*
X142411239Y-31954412D01*
X142398426Y-31995667D01*
X142392013Y-32067246D01*
X142389788Y-32180493D01*
X142389538Y-32304100D01*
X142392044Y-32470625D01*
X142399389Y-32582983D01*
X142411308Y-32638284D01*
X142420438Y-32642944D01*
X142448051Y-32640617D01*
X142442117Y-32686320D01*
X142403105Y-32776484D01*
X142402725Y-32777247D01*
X142361972Y-32842258D01*
X142325705Y-32874061D01*
X142321690Y-32874696D01*
X142311520Y-32893301D01*
X142331367Y-32925420D01*
X142350787Y-32972018D01*
X142365693Y-33062851D01*
X142376693Y-33203568D01*
X142384399Y-33399821D01*
X142385007Y-33422499D01*
X142391663Y-33612486D01*
X142400425Y-33743409D01*
X142411578Y-33817974D01*
X142425408Y-33838891D01*
X142428764Y-33836637D01*
X142445978Y-33790678D01*
X142458747Y-33703019D01*
X142463884Y-33606589D01*
X142466587Y-33502083D01*
X142472911Y-33450365D01*
X142486076Y-33442426D01*
X142509298Y-33469255D01*
X142511720Y-33472680D01*
X142547432Y-33571298D01*
X142542099Y-33709181D01*
X142495480Y-33889053D01*
X142468536Y-33964635D01*
X142420041Y-34115785D01*
X142394341Y-34246522D01*
X142392679Y-34345475D01*
X142416300Y-34401277D01*
X142420438Y-34404258D01*
X142448560Y-34448834D01*
X142451338Y-34469705D01*
X142435884Y-34500257D01*
X142420438Y-34496958D01*
X142398327Y-34508779D01*
X142389538Y-34568131D01*
X142389538Y-34568718D01*
X142407081Y-34646541D01*
X142467713Y-34717851D01*
X142497688Y-34742065D01*
X142564092Y-34803964D01*
X142601959Y-34861088D01*
X142605366Y-34877059D01*
X142599245Y-34910264D01*
X142578324Y-34887630D01*
X142527969Y-34860467D01*
X142486096Y-34866537D01*
X142436305Y-34894869D01*
X142419868Y-34927094D01*
X142444964Y-34944749D01*
X142451338Y-34945012D01*
X142475091Y-34971165D01*
X142481299Y-35014537D01*
X142477369Y-35061265D01*
X142461467Y-35050673D01*
X142448863Y-35029988D01*
X142398832Y-34976242D01*
X142349426Y-34979680D01*
X142305189Y-35035807D01*
X142270667Y-35140129D01*
X142257052Y-35219640D01*
X142236535Y-35313738D01*
X142206030Y-35385643D01*
X142195027Y-35399967D01*
X142168496Y-35419657D01*
X142157565Y-35401039D01*
X142158709Y-35334098D01*
X142160886Y-35303015D01*
X142161531Y-35219386D01*
X142151096Y-35168503D01*
X142142552Y-35161314D01*
X142098635Y-35190901D01*
X142067929Y-35276782D01*
X142051603Y-35414635D01*
X142049180Y-35506910D01*
X142038463Y-35676636D01*
X142010613Y-35844100D01*
X141991771Y-35915432D01*
X141934817Y-36097896D01*
X141913874Y-35930882D01*
X141900901Y-35818244D01*
X141885654Y-35672362D01*
X141871075Y-35521573D01*
X141868708Y-35495651D01*
X141848091Y-35330148D01*
X141819231Y-35219535D01*
X141778728Y-35157091D01*
X141723185Y-35136096D01*
X141688436Y-35139094D01*
X141630346Y-35136875D01*
X141620694Y-35111745D01*
X141662434Y-35082632D01*
X141678832Y-35077566D01*
X141733418Y-35049530D01*
X141727655Y-35008533D01*
X141699727Y-34980431D01*
X141650625Y-34964026D01*
X141618842Y-34984372D01*
X141597247Y-34999680D01*
X141610470Y-34969235D01*
X141621122Y-34950837D01*
X141682783Y-34890830D01*
X141749455Y-34861780D01*
X141823492Y-34830046D01*
X141865331Y-34788460D01*
X141876290Y-34738165D01*
X141885507Y-34639223D01*
X141892158Y-34504781D01*
X141895417Y-34347988D01*
X141895607Y-34305863D01*
X141897633Y-34146961D01*
X141902859Y-34008508D01*
X141910553Y-33903144D01*
X141919984Y-33843507D01*
X141922747Y-33836863D01*
X141925126Y-33778168D01*
X141885083Y-33682671D01*
X141876296Y-33666912D01*
X141832420Y-33581149D01*
X141807265Y-33514594D01*
X141802644Y-33477231D01*
X141820370Y-33479047D01*
X141847801Y-33509970D01*
X141868128Y-33531321D01*
X141881392Y-33525244D01*
X141889125Y-33483211D01*
X141892861Y-33396689D01*
X141894135Y-33257151D01*
X141894151Y-33252231D01*
X141900798Y-33051773D01*
X141918957Y-32902616D01*
X141940386Y-32826208D01*
X141962734Y-32761991D01*
X141963384Y-32733649D01*
X141958509Y-32734671D01*
X141927472Y-32773564D01*
X141885514Y-32848308D01*
X141843284Y-32936838D01*
X141811430Y-33017089D01*
X141800474Y-33062128D01*
X141790128Y-33071434D01*
X141768913Y-33032443D01*
X141754001Y-32982498D01*
X141753432Y-32928638D01*
X141770027Y-32856261D01*
X141806608Y-32750768D01*
X141840337Y-32662907D01*
X141872415Y-32576466D01*
X141887772Y-32510696D01*
X141886973Y-32443711D01*
X141870583Y-32353622D01*
X141850561Y-32266894D01*
X141826935Y-32154862D01*
X141813707Y-32067482D01*
X141813180Y-32020773D01*
X141814768Y-32017754D01*
X141829944Y-32027122D01*
X141833806Y-32058414D01*
X141849674Y-32134102D01*
X141864233Y-32163990D01*
X141882721Y-32175284D01*
X141892364Y-32133605D01*
X141894661Y-32061741D01*
X141889604Y-31976224D01*
X141875667Y-31932875D01*
X141865784Y-31931280D01*
X141831104Y-31922009D01*
X141801444Y-31884041D01*
X141759891Y-31837651D01*
X141695424Y-31836176D01*
X141684018Y-31838773D01*
X141588261Y-31877472D01*
X141526149Y-31945073D01*
X141490465Y-32052986D01*
X141476758Y-32166509D01*
X141464062Y-32291311D01*
X141446122Y-32408012D01*
X141431536Y-32473321D01*
X141411132Y-32575487D01*
X141399279Y-32693691D01*
X141398379Y-32719990D01*
X141390108Y-32817842D01*
X141371515Y-32913288D01*
X141347159Y-32991818D01*
X141321595Y-33038923D01*
X141299383Y-33040091D01*
X141298332Y-33038505D01*
X141295310Y-32991114D01*
X141311988Y-32910937D01*
X141324136Y-32872834D01*
X141349162Y-32780818D01*
X141356763Y-32706295D01*
X141354040Y-32688223D01*
X141352873Y-32622750D01*
X141372501Y-32546599D01*
X141389194Y-32482562D01*
X141405355Y-32384343D01*
X141419626Y-32267301D01*
X141430648Y-32146795D01*
X141437065Y-32038183D01*
X141437517Y-31956823D01*
X141430647Y-31918074D01*
X141428186Y-31916788D01*
X141404403Y-31942343D01*
X141376475Y-32001764D01*
X141344461Y-32087629D01*
X141321833Y-32148540D01*
X141311194Y-32202447D01*
X141299117Y-32303637D01*
X141287080Y-32437660D01*
X141276565Y-32590068D01*
X141276502Y-32591132D01*
X141265417Y-32740005D01*
X141251632Y-32867030D01*
X141236869Y-32959094D01*
X141222851Y-33003081D01*
X141222298Y-33003687D01*
X141214878Y-33049168D01*
X141253846Y-33128319D01*
X141264732Y-33144786D01*
X141311180Y-33224473D01*
X141336723Y-33290180D01*
X141338456Y-33303886D01*
X141333615Y-33336843D01*
X141312433Y-33314039D01*
X141308029Y-33307299D01*
X141293071Y-33308026D01*
X141283233Y-33365855D01*
X141278297Y-33482602D01*
X141277602Y-33562226D01*
X141279878Y-33690158D01*
X141286386Y-33791114D01*
X141296005Y-33851851D01*
X141303138Y-33863503D01*
X141327012Y-33836644D01*
X141355471Y-33770067D01*
X141381582Y-33684772D01*
X141398416Y-33601759D01*
X141401203Y-33566366D01*
X141406548Y-33528554D01*
X141427041Y-33548317D01*
X141430077Y-33553046D01*
X141445740Y-33612989D01*
X141435218Y-33707921D01*
X141397198Y-33844796D01*
X141349503Y-33980085D01*
X141304414Y-34124378D01*
X141281124Y-34251180D01*
X141280861Y-34347923D01*
X141304854Y-34402040D01*
X141308029Y-34404258D01*
X141336151Y-34448834D01*
X141338929Y-34469705D01*
X141323475Y-34500257D01*
X141308029Y-34496958D01*
X141286849Y-34509465D01*
X141278309Y-34571246D01*
X141278319Y-34580110D01*
X141292588Y-34661344D01*
X141343869Y-34720785D01*
X141378745Y-34744647D01*
X141458869Y-34817870D01*
X141483686Y-34883698D01*
X141483368Y-34923604D01*
X141473717Y-34906461D01*
X141473695Y-34906387D01*
X141437034Y-34858458D01*
X141372404Y-34864580D01*
X141339188Y-34882398D01*
X141309981Y-34915361D01*
X141331463Y-34949905D01*
X141364867Y-35009359D01*
X141368890Y-35036168D01*
X141363093Y-35064588D01*
X141341776Y-35038978D01*
X141336454Y-35029988D01*
X141286423Y-34976242D01*
X141237017Y-34979680D01*
X141192781Y-35035807D01*
X141158259Y-35140129D01*
X141144644Y-35219640D01*
X141124126Y-35313738D01*
X141093621Y-35385643D01*
X141082618Y-35399967D01*
X141056087Y-35419657D01*
X141045156Y-35401039D01*
X141046300Y-35334098D01*
X141048477Y-35303015D01*
X141049122Y-35219386D01*
X141038687Y-35168503D01*
X141030143Y-35161314D01*
X140986226Y-35190901D01*
X140955520Y-35276782D01*
X140939194Y-35414635D01*
X140936771Y-35506910D01*
X140926054Y-35676636D01*
X140898204Y-35844100D01*
X140879362Y-35915432D01*
X140822408Y-36097896D01*
X140801465Y-35930882D01*
X140788492Y-35818244D01*
X140773245Y-35672362D01*
X140758666Y-35521573D01*
X140756299Y-35495651D01*
X140735769Y-35330407D01*
X140707071Y-35219971D01*
X140666733Y-35157529D01*
X140611287Y-35136269D01*
X140574803Y-35139328D01*
X140521632Y-35138911D01*
X140514250Y-35118637D01*
X140550874Y-35091613D01*
X140591189Y-35086351D01*
X140633304Y-35079239D01*
X140631844Y-35047184D01*
X140588413Y-34983256D01*
X140553830Y-34959719D01*
X140510914Y-34983256D01*
X140480318Y-35004795D01*
X140484476Y-34984298D01*
X140501244Y-34951628D01*
X140559293Y-34893119D01*
X140631002Y-34862571D01*
X140707024Y-34831840D01*
X140752922Y-34788460D01*
X140763881Y-34738165D01*
X140773098Y-34639223D01*
X140779749Y-34504781D01*
X140783009Y-34347988D01*
X140783198Y-34305863D01*
X140785225Y-34146961D01*
X140790451Y-34008508D01*
X140798145Y-33903144D01*
X140807576Y-33843507D01*
X140810339Y-33836863D01*
X140812717Y-33778168D01*
X140772675Y-33682671D01*
X140763887Y-33666912D01*
X140720011Y-33581149D01*
X140694856Y-33514594D01*
X140690235Y-33477231D01*
X140707962Y-33479047D01*
X140735392Y-33509970D01*
X140754816Y-33530113D01*
X140767789Y-33524016D01*
X140775581Y-33483405D01*
X140779465Y-33400005D01*
X140780710Y-33265542D01*
X140780760Y-33214598D01*
X140780053Y-33063391D01*
X140777084Y-32965702D01*
X140770584Y-32913257D01*
X140759281Y-32897782D01*
X140741904Y-32911002D01*
X140735392Y-32919227D01*
X140698129Y-32993323D01*
X140688066Y-33042828D01*
X140683969Y-33081439D01*
X140670906Y-33066431D01*
X140655392Y-33029435D01*
X140643949Y-32973579D01*
X140651797Y-32898144D01*
X140681277Y-32788588D01*
X140706655Y-32711182D01*
X140788634Y-32469941D01*
X140735642Y-32253702D01*
X140712161Y-32145348D01*
X140699773Y-32061768D01*
X140700871Y-32019597D01*
X140701787Y-32018326D01*
X140717413Y-32027197D01*
X140721398Y-32058414D01*
X140737265Y-32134102D01*
X140751825Y-32163990D01*
X140770312Y-32175284D01*
X140779955Y-32133605D01*
X140780465Y-32117640D01*
X141277381Y-32117640D01*
X141315880Y-32018209D01*
X141357450Y-31933815D01*
X141403764Y-31869503D01*
X141404204Y-31869063D01*
X141466048Y-31833185D01*
X141557297Y-31806243D01*
X141581880Y-31802198D01*
X141673681Y-31777932D01*
X141708565Y-31739107D01*
X141684607Y-31688553D01*
X141669001Y-31674250D01*
X141620472Y-31659031D01*
X141558925Y-31689017D01*
X141485784Y-31720289D01*
X141429736Y-31721938D01*
X141382694Y-31717557D01*
X141349501Y-31739944D01*
X141325290Y-31798781D01*
X141305194Y-31903749D01*
X141292942Y-31994039D01*
X141277381Y-32117640D01*
X140780465Y-32117640D01*
X140782252Y-32061741D01*
X140777195Y-31976224D01*
X140763258Y-31932875D01*
X140753375Y-31931280D01*
X140718695Y-31922009D01*
X140689036Y-31884041D01*
X140647482Y-31837651D01*
X140583015Y-31836176D01*
X140571609Y-31838773D01*
X140475852Y-31877472D01*
X140413740Y-31945073D01*
X140378056Y-32052986D01*
X140364349Y-32166509D01*
X140351653Y-32291311D01*
X140333713Y-32408012D01*
X140319127Y-32473321D01*
X140297235Y-32580186D01*
X140288321Y-32683132D01*
X140281571Y-32779036D01*
X140264232Y-32878170D01*
X140240674Y-32964827D01*
X140215264Y-33023299D01*
X140192371Y-33037881D01*
X140190154Y-33036091D01*
X140181880Y-32989544D01*
X140198621Y-32903458D01*
X140209973Y-32867168D01*
X140235039Y-32774906D01*
X140243773Y-32702486D01*
X140240904Y-32682208D01*
X140239538Y-32623783D01*
X140259618Y-32547847D01*
X140276447Y-32483489D01*
X140292734Y-32385035D01*
X140307116Y-32267821D01*
X140318226Y-32147184D01*
X140324701Y-32038462D01*
X140325175Y-31956991D01*
X140318283Y-31918107D01*
X140315777Y-31916788D01*
X140291994Y-31942343D01*
X140264066Y-32001764D01*
X140232052Y-32087629D01*
X140209424Y-32148540D01*
X140198785Y-32202447D01*
X140186708Y-32303637D01*
X140174671Y-32437660D01*
X140164156Y-32590068D01*
X140164093Y-32591132D01*
X140153009Y-32740005D01*
X140139223Y-32867030D01*
X140124460Y-32959094D01*
X140110442Y-33003081D01*
X140109889Y-33003687D01*
X140102469Y-33049168D01*
X140141438Y-33128319D01*
X140152323Y-33144786D01*
X140198771Y-33224473D01*
X140224314Y-33290180D01*
X140226047Y-33303886D01*
X140219598Y-33334897D01*
X140199697Y-33312836D01*
X140187000Y-33322849D01*
X140174545Y-33387109D01*
X140163455Y-33498068D01*
X140157129Y-33599036D01*
X140144298Y-33776543D01*
X140125851Y-33901705D01*
X140100198Y-33983848D01*
X140087574Y-34006732D01*
X140061108Y-34055260D01*
X140065899Y-34067869D01*
X140069256Y-34066063D01*
X140111947Y-34017788D01*
X140159701Y-33933896D01*
X140201154Y-33838351D01*
X140224943Y-33755113D01*
X140226994Y-33733408D01*
X140231850Y-33687539D01*
X140249814Y-33697825D01*
X140257421Y-33709002D01*
X140283118Y-33777748D01*
X140281106Y-33870572D01*
X140250291Y-33999271D01*
X140222701Y-34083772D01*
X140192111Y-34181164D01*
X140175654Y-34266737D01*
X140172990Y-34358003D01*
X140183779Y-34472471D01*
X140207682Y-34627653D01*
X140211689Y-34651460D01*
X140219187Y-34707758D01*
X140211400Y-34708063D01*
X140198220Y-34682360D01*
X140180107Y-34654854D01*
X140170633Y-34675871D01*
X140166921Y-34751962D01*
X140166892Y-34753709D01*
X140171650Y-34836190D01*
X140187836Y-34869345D01*
X140195620Y-34867761D01*
X140224078Y-34870585D01*
X140226521Y-34882050D01*
X140242459Y-34925843D01*
X140282887Y-34998920D01*
X140308632Y-35039515D01*
X140363249Y-35140566D01*
X140384482Y-35242393D01*
X140385121Y-35322431D01*
X140369085Y-35454733D01*
X140333355Y-35536475D01*
X140282714Y-35563017D01*
X140268423Y-35543569D01*
X140274332Y-35529752D01*
X140289751Y-35477948D01*
X140299537Y-35396792D01*
X140299924Y-35389486D01*
X140297917Y-35317731D01*
X140276448Y-35291207D01*
X140242979Y-35291425D01*
X140195056Y-35318534D01*
X140166958Y-35390875D01*
X140162220Y-35416582D01*
X140143742Y-35501223D01*
X140124218Y-35549234D01*
X140108872Y-35552707D01*
X140102920Y-35506366D01*
X140083618Y-35452627D01*
X140042502Y-35442142D01*
X140004754Y-35478035D01*
X139999108Y-35493491D01*
X139985343Y-35556732D01*
X139969099Y-35650622D01*
X139963642Y-35686618D01*
X139942531Y-35799390D01*
X139915325Y-35905788D01*
X139908429Y-35927195D01*
X139873407Y-36028721D01*
X139835646Y-35849944D01*
X139813056Y-35710322D01*
X139798511Y-35558526D01*
X139795901Y-35492087D01*
X139789554Y-35379155D01*
X139768991Y-35304900D01*
X139727285Y-35246631D01*
X139718071Y-35237160D01*
X139633552Y-35179834D01*
X139547093Y-35163791D01*
X139476960Y-35190550D01*
X139456490Y-35215389D01*
X139431839Y-35251988D01*
X139424647Y-35232703D01*
X139424054Y-35211409D01*
X139443264Y-35155877D01*
X139493247Y-35079226D01*
X139529011Y-35036139D01*
X139589622Y-34957334D01*
X139631124Y-34869888D01*
X139656034Y-34761473D01*
X139666868Y-34619762D01*
X139666144Y-34432427D01*
X139664326Y-34373357D01*
X139658855Y-34244444D01*
X139652269Y-34169701D01*
X139642812Y-34141501D01*
X139628730Y-34152217D01*
X139618107Y-34172506D01*
X139591425Y-34217982D01*
X139580216Y-34206227D01*
X139579574Y-34196951D01*
X139592180Y-34129045D01*
X139626281Y-34047734D01*
X139670290Y-33974436D01*
X139712618Y-33930569D01*
X139726144Y-33926064D01*
X139747854Y-33913872D01*
X139728321Y-33871178D01*
X139718419Y-33856628D01*
X139697037Y-33811343D01*
X139682680Y-33740595D01*
X139674251Y-33633858D01*
X139670652Y-33480603D01*
X139670316Y-33394948D01*
X139668504Y-33245554D01*
X139663554Y-33119819D01*
X139656194Y-33029941D01*
X139647153Y-32988121D01*
X139645930Y-32986872D01*
X139626435Y-33005622D01*
X139601399Y-33069745D01*
X139582695Y-33138901D01*
X139561590Y-33257040D01*
X139564678Y-33337514D01*
X139578255Y-33376175D01*
X139597814Y-33419048D01*
X139588905Y-33415876D01*
X139549476Y-33369099D01*
X139508719Y-33305694D01*
X139490940Y-33234461D01*
X139496826Y-33143086D01*
X139527064Y-33019257D01*
X139577615Y-32864249D01*
X139627611Y-32714535D01*
X139656288Y-32609531D01*
X139664980Y-32536444D01*
X139655018Y-32482482D01*
X139627733Y-32434855D01*
X139622983Y-32428461D01*
X139587102Y-32362954D01*
X139577615Y-32322129D01*
X139585971Y-32298522D01*
X139615846Y-32326510D01*
X139622983Y-32335760D01*
X139645607Y-32360216D01*
X139659270Y-32353856D01*
X139666280Y-32307650D01*
X139668947Y-32212564D01*
X139669333Y-32154441D01*
X139667683Y-32086739D01*
X140162666Y-32086739D01*
X140217768Y-31979446D01*
X140274424Y-31897773D01*
X140341077Y-31838198D01*
X140350122Y-31833125D01*
X140442212Y-31802538D01*
X140512348Y-31793643D01*
X140579895Y-31775806D01*
X140595563Y-31731601D01*
X140578924Y-31707447D01*
X141277602Y-31707447D01*
X141285011Y-31728975D01*
X141304718Y-31704786D01*
X141351673Y-31674436D01*
X141429476Y-31657864D01*
X141435327Y-31657506D01*
X141519944Y-31638584D01*
X141548973Y-31602012D01*
X141540319Y-31546766D01*
X141503412Y-31525821D01*
X141461572Y-31550009D01*
X141455967Y-31558810D01*
X141405117Y-31610275D01*
X141351885Y-31639634D01*
X141295811Y-31674523D01*
X141277602Y-31707447D01*
X140578924Y-31707447D01*
X140555541Y-31673504D01*
X140550394Y-31669105D01*
X140505762Y-31647813D01*
X140457605Y-31672173D01*
X140443259Y-31684641D01*
X140370583Y-31722251D01*
X140320268Y-31722707D01*
X140260409Y-31724010D01*
X140235739Y-31741469D01*
X140221811Y-31767711D01*
X140210658Y-31803827D01*
X140198317Y-31866663D01*
X140180823Y-31973064D01*
X140179940Y-31978588D01*
X140162666Y-32086739D01*
X139667683Y-32086739D01*
X139666504Y-32038377D01*
X139657850Y-31959886D01*
X139644728Y-31930009D01*
X139641862Y-31930726D01*
X139613136Y-31915493D01*
X139566503Y-31858327D01*
X139518261Y-31782012D01*
X139483681Y-31703528D01*
X140164720Y-31703528D01*
X140182471Y-31711603D01*
X140207954Y-31693980D01*
X140239192Y-31656271D01*
X140240910Y-31643317D01*
X140210071Y-31645349D01*
X140175447Y-31676172D01*
X140164720Y-31703528D01*
X139483681Y-31703528D01*
X139446101Y-31618237D01*
X139443257Y-31599783D01*
X140291508Y-31599783D01*
X140302605Y-31627687D01*
X140319221Y-31639330D01*
X140377928Y-31666567D01*
X140411397Y-31647245D01*
X140425079Y-31618069D01*
X140429100Y-31554712D01*
X140394433Y-31526381D01*
X140339606Y-31544737D01*
X140326726Y-31556152D01*
X140291508Y-31599783D01*
X139443257Y-31599783D01*
X139423243Y-31469923D01*
X139450291Y-31345023D01*
X139481236Y-31295653D01*
X139539358Y-31223875D01*
X139528457Y-31369480D01*
X139527235Y-31466304D01*
X139543283Y-31510487D01*
X139556856Y-31515085D01*
X139622305Y-31487526D01*
X139662321Y-31413895D01*
X139670316Y-31348498D01*
X139672705Y-31287059D01*
X139686419Y-31280528D01*
X139716667Y-31316052D01*
X139753832Y-31357661D01*
X139781443Y-31349995D01*
X139809367Y-31316052D01*
X139838507Y-31248656D01*
X139856031Y-31151554D01*
X139858009Y-31115201D01*
X139872525Y-30994406D01*
X139905539Y-30873704D01*
X139914656Y-30851128D01*
X139969012Y-30727926D01*
X139989615Y-30971666D01*
X139999773Y-31108611D01*
X140007133Y-31239818D01*
X140010203Y-31338385D01*
X140010219Y-31343616D01*
X140024357Y-31463254D01*
X140067298Y-31528576D01*
X140139835Y-31539919D01*
X140242759Y-31497620D01*
X140259703Y-31486760D01*
X140443762Y-31486760D01*
X140454973Y-31540907D01*
X140480869Y-31568718D01*
X140497155Y-31563753D01*
X140494384Y-31530296D01*
X140477495Y-31494227D01*
X140452217Y-31458606D01*
X140444102Y-31477063D01*
X140443762Y-31486760D01*
X140259703Y-31486760D01*
X140294385Y-31464532D01*
X140370957Y-31402281D01*
X140405280Y-31342659D01*
X140411922Y-31280954D01*
X140420334Y-31205556D01*
X140440754Y-31161171D01*
X140442468Y-31159951D01*
X140460380Y-31164798D01*
X140455812Y-31185902D01*
X140452183Y-31235797D01*
X140490343Y-31247109D01*
X140564081Y-31220184D01*
X140637988Y-31175785D01*
X140735666Y-31096396D01*
X140786238Y-31017228D01*
X140796102Y-30982206D01*
X140825127Y-30877117D01*
X140858780Y-30788929D01*
X140901148Y-30696229D01*
X140899291Y-30819829D01*
X140903565Y-30947368D01*
X140917908Y-31094830D01*
X140939560Y-31245181D01*
X140965761Y-31381388D01*
X140993750Y-31486417D01*
X141015388Y-31536262D01*
X141067830Y-31597948D01*
X141112932Y-31629720D01*
X141168958Y-31621746D01*
X141223469Y-31564169D01*
X141260132Y-31486760D01*
X141556171Y-31486760D01*
X141567382Y-31540907D01*
X141593277Y-31568718D01*
X141609564Y-31563753D01*
X141606792Y-31530296D01*
X141589903Y-31494227D01*
X141564626Y-31458606D01*
X141556510Y-31477063D01*
X141556171Y-31486760D01*
X141260132Y-31486760D01*
X141268610Y-31468859D01*
X141295770Y-31353398D01*
X141317292Y-31246206D01*
X141342779Y-31183580D01*
X141366458Y-31169072D01*
X141382552Y-31206235D01*
X141385303Y-31298309D01*
X141382009Y-31394578D01*
X141388898Y-31440110D01*
X141413050Y-31445893D01*
X141461545Y-31422911D01*
X141464562Y-31421297D01*
X141512256Y-31365719D01*
X141524331Y-31284069D01*
X141532502Y-31207560D01*
X141552422Y-31161807D01*
X141554877Y-31159951D01*
X141572789Y-31164798D01*
X141568221Y-31185902D01*
X141564940Y-31236142D01*
X141602914Y-31248965D01*
X141674398Y-31224616D01*
X141748098Y-31180211D01*
X141826171Y-31118494D01*
X141878227Y-31051330D01*
X141919065Y-30956505D01*
X141939614Y-30892721D01*
X141999543Y-30696229D01*
X142021441Y-30912530D01*
G37*
G36*
X135595359Y-30897080D02*
G01*
X135607160Y-31044395D01*
X135615964Y-31204500D01*
X135618773Y-31292051D01*
X135628374Y-31416714D01*
X135649340Y-31534262D01*
X135668630Y-31596850D01*
X135705034Y-31668853D01*
X135745266Y-31696176D01*
X135806932Y-31694020D01*
X135867096Y-31689565D01*
X135876478Y-31705019D01*
X135865054Y-31721398D01*
X135812450Y-31757500D01*
X135788552Y-31762287D01*
X135749825Y-31778782D01*
X135759753Y-31820147D01*
X135794845Y-31857070D01*
X135845526Y-31881889D01*
X135905268Y-31862290D01*
X135910721Y-31859214D01*
X135941298Y-31845741D01*
X135924371Y-31868254D01*
X135891038Y-31899699D01*
X135814205Y-31952368D01*
X135739490Y-31978087D01*
X135730636Y-31978588D01*
X135677965Y-31985306D01*
X135642113Y-32012726D01*
X135618071Y-32071754D01*
X135600827Y-32173293D01*
X135589093Y-32286608D01*
X135576052Y-32411458D01*
X135561769Y-32521186D01*
X135549187Y-32593374D01*
X135548409Y-32596593D01*
X135544841Y-32626794D01*
X135562897Y-32600564D01*
X135580134Y-32565693D01*
X135621540Y-32466198D01*
X135653011Y-32370766D01*
X135654547Y-32364842D01*
X135670821Y-32304139D01*
X135677837Y-32301086D01*
X135681022Y-32353231D01*
X135672646Y-32433564D01*
X135647881Y-32535039D01*
X135637834Y-32565693D01*
X135608441Y-32682967D01*
X135592455Y-32812828D01*
X135591484Y-32845857D01*
X135585674Y-32936733D01*
X135570915Y-32999385D01*
X135561133Y-33013407D01*
X135557339Y-33048880D01*
X135586629Y-33118226D01*
X135607484Y-33153668D01*
X135651097Y-33232645D01*
X135678519Y-33300520D01*
X135687658Y-33346142D01*
X135676428Y-33358363D01*
X135642738Y-33326031D01*
X135638817Y-33320930D01*
X135618655Y-33299802D01*
X135605418Y-33305863D01*
X135597613Y-33347596D01*
X135593748Y-33433487D01*
X135592328Y-33572020D01*
X135592276Y-33585401D01*
X135586770Y-33777564D01*
X135571526Y-33913035D01*
X135546248Y-33995847D01*
X135522943Y-34049556D01*
X135525524Y-34066673D01*
X135527788Y-34065526D01*
X135569114Y-34017251D01*
X135615304Y-33931446D01*
X135656518Y-33830607D01*
X135682920Y-33737232D01*
X135687494Y-33700326D01*
X135690513Y-33643396D01*
X135696759Y-33637952D01*
X135710140Y-33687630D01*
X135719869Y-33730439D01*
X135731938Y-33810816D01*
X135726928Y-33890854D01*
X135701944Y-33991621D01*
X135670987Y-34085862D01*
X135632031Y-34203419D01*
X135612566Y-34285098D01*
X135610763Y-34353024D01*
X135624791Y-34429325D01*
X135638245Y-34481578D01*
X135663210Y-34590733D01*
X135678354Y-34686969D01*
X135680655Y-34728710D01*
X135676823Y-34770990D01*
X135667853Y-34758754D01*
X135653704Y-34703967D01*
X135628308Y-34615617D01*
X135609039Y-34588493D01*
X135596670Y-34622254D01*
X135591971Y-34716558D01*
X135591957Y-34731285D01*
X135596136Y-34819312D01*
X135606803Y-34861965D01*
X135617498Y-34859159D01*
X135643136Y-34845565D01*
X135673460Y-34887805D01*
X135678472Y-34898462D01*
X135715680Y-34954037D01*
X135769818Y-34962937D01*
X135799707Y-34957084D01*
X135920408Y-34905903D01*
X135993851Y-34817889D01*
X136023744Y-34688044D01*
X136024843Y-34653798D01*
X136031523Y-34530323D01*
X136047384Y-34407566D01*
X136054713Y-34370909D01*
X136075075Y-34262714D01*
X136093158Y-34133695D01*
X136099124Y-34077356D01*
X136113365Y-33962301D01*
X136132440Y-33857464D01*
X136142696Y-33817153D01*
X136164158Y-33758792D01*
X136180891Y-33754660D01*
X136194293Y-33780498D01*
X136199747Y-33849815D01*
X136182651Y-33913278D01*
X136157293Y-34000916D01*
X136147688Y-34092098D01*
X136137628Y-34196096D01*
X136116590Y-34283771D01*
X136096020Y-34363908D01*
X136078161Y-34470332D01*
X136064224Y-34588052D01*
X136055424Y-34702076D01*
X136052973Y-34797415D01*
X136058084Y-34859075D01*
X136068838Y-34873970D01*
X136107848Y-34832657D01*
X136146311Y-34740130D01*
X136181662Y-34606943D01*
X136211340Y-34443652D01*
X136232780Y-34260809D01*
X136239201Y-34172506D01*
X136249530Y-34025891D01*
X136261798Y-33898531D01*
X136274376Y-33805203D01*
X136284353Y-33763078D01*
X136292382Y-33718960D01*
X136280319Y-33709002D01*
X136251142Y-33683631D01*
X136212249Y-33622153D01*
X136175095Y-33546522D01*
X136151139Y-33478692D01*
X136147688Y-33454846D01*
X136162495Y-33448052D01*
X136193056Y-33479069D01*
X136212829Y-33499681D01*
X136225892Y-33493581D01*
X136233604Y-33452391D01*
X136237322Y-33367736D01*
X136238404Y-33231239D01*
X136238424Y-33199148D01*
X136237686Y-33051983D01*
X136234566Y-32958232D01*
X136227708Y-32909521D01*
X136215752Y-32897471D01*
X136197343Y-32913706D01*
X136193056Y-32919227D01*
X136156207Y-32998185D01*
X136145730Y-33058278D01*
X136143771Y-33137348D01*
X136113660Y-33061969D01*
X136097345Y-32968131D01*
X136116816Y-32848173D01*
X136173864Y-32692000D01*
X136182897Y-32671302D01*
X136217639Y-32584743D01*
X136225757Y-32526929D01*
X136208677Y-32471537D01*
X136195184Y-32444307D01*
X136160759Y-32366331D01*
X136149110Y-32316002D01*
X136160433Y-32303311D01*
X136193056Y-32335760D01*
X136224711Y-32372714D01*
X136236806Y-32360935D01*
X136238933Y-32303041D01*
X136231746Y-32219928D01*
X136199533Y-32161707D01*
X136128022Y-32105298D01*
X136109063Y-32093038D01*
X136041297Y-32040344D01*
X136032542Y-32002821D01*
X136083245Y-31975900D01*
X136121435Y-31966844D01*
X136185470Y-31950654D01*
X136197375Y-31929599D01*
X136167786Y-31891023D01*
X136124198Y-31833312D01*
X136124221Y-31809166D01*
X136166889Y-31824223D01*
X136178089Y-31830946D01*
X136245777Y-31846524D01*
X136300964Y-31805064D01*
X136340218Y-31710660D01*
X136356018Y-31618695D01*
X136371510Y-31522371D01*
X136392443Y-31449452D01*
X136402716Y-31430109D01*
X136442217Y-31397606D01*
X136472125Y-31394848D01*
X136471838Y-31422419D01*
X136468518Y-31428246D01*
X136448359Y-31488668D01*
X136442583Y-31564694D01*
X136450386Y-31632523D01*
X136470965Y-31668354D01*
X136476669Y-31669586D01*
X136518802Y-31640307D01*
X136545207Y-31555417D01*
X136554837Y-31419336D01*
X136553519Y-31345133D01*
X136571135Y-31118520D01*
X136616155Y-30943430D01*
X136685968Y-30727129D01*
X136707027Y-30912530D01*
X136719707Y-31054089D01*
X136728883Y-31211294D01*
X136731439Y-31292051D01*
X136740898Y-31416710D01*
X136761770Y-31534255D01*
X136781039Y-31596850D01*
X136817524Y-31668897D01*
X136857833Y-31696216D01*
X136918458Y-31694150D01*
X136979709Y-31694740D01*
X136987466Y-31715709D01*
X136942057Y-31747066D01*
X136916378Y-31757651D01*
X136876454Y-31779904D01*
X136883818Y-31814079D01*
X136902208Y-31840462D01*
X136943301Y-31881337D01*
X136989461Y-31876246D01*
X137018738Y-31861073D01*
X137056702Y-31842130D01*
X137050526Y-31855114D01*
X137003447Y-31899699D01*
X136926614Y-31952368D01*
X136851899Y-31978087D01*
X136843044Y-31978588D01*
X136791754Y-31984686D01*
X136756644Y-32010135D01*
X136733035Y-32065670D01*
X136716243Y-32162024D01*
X136702335Y-32301250D01*
X136689760Y-32426789D01*
X136675861Y-32534294D01*
X136663260Y-32604036D01*
X136661022Y-32612043D01*
X136659549Y-32627226D01*
X136679085Y-32593061D01*
X136692414Y-32565693D01*
X136733896Y-32466229D01*
X136765407Y-32370813D01*
X136766955Y-32364842D01*
X136783230Y-32304139D01*
X136790246Y-32301086D01*
X136793431Y-32353231D01*
X136785055Y-32433564D01*
X136760290Y-32535039D01*
X136750243Y-32565693D01*
X136720406Y-32684388D01*
X136704634Y-32813675D01*
X136703893Y-32841500D01*
X136697127Y-32934940D01*
X136680035Y-33003572D01*
X136670300Y-33019529D01*
X136653419Y-33056828D01*
X136670300Y-33073883D01*
X136686327Y-33114644D01*
X136697690Y-33209456D01*
X136703648Y-33350692D01*
X136704366Y-33424998D01*
X136707820Y-33603389D01*
X136717238Y-33726651D01*
X136732090Y-33793418D01*
X136751845Y-33802321D01*
X136775970Y-33751992D01*
X136798329Y-33666967D01*
X136819305Y-33549277D01*
X136818449Y-33466851D01*
X136800678Y-33407662D01*
X136764000Y-33322749D01*
X136825960Y-33400000D01*
X136868932Y-33476192D01*
X136884544Y-33570644D01*
X136872206Y-33693332D01*
X136831327Y-33854232D01*
X136791853Y-33976200D01*
X136747557Y-34108613D01*
X136722205Y-34196715D01*
X136714022Y-34254417D01*
X136721234Y-34295633D01*
X136742067Y-34334274D01*
X136745502Y-34339558D01*
X136782861Y-34413625D01*
X136796594Y-34470877D01*
X136792189Y-34504516D01*
X136771010Y-34489469D01*
X136751226Y-34464239D01*
X136728537Y-34439694D01*
X136714867Y-34446067D01*
X136707881Y-34492400D01*
X136705244Y-34587735D01*
X136704876Y-34643734D01*
X136708379Y-34772672D01*
X136719451Y-34855013D01*
X136736617Y-34883211D01*
X136755071Y-34864281D01*
X136750243Y-34852311D01*
X136743988Y-34823482D01*
X136749184Y-34821411D01*
X136771956Y-34846798D01*
X136797823Y-34901895D01*
X136829914Y-34958425D01*
X136879613Y-34968170D01*
X136912934Y-34961405D01*
X137033441Y-34907983D01*
X137106984Y-34816882D01*
X137136652Y-34683871D01*
X137137582Y-34653798D01*
X137145264Y-34533211D01*
X137163835Y-34391576D01*
X137179874Y-34304924D01*
X137199132Y-34203562D01*
X137208665Y-34128831D01*
X137206936Y-34098744D01*
X137205489Y-34063405D01*
X137216384Y-33986635D01*
X137231593Y-33911219D01*
X137259227Y-33812186D01*
X137285078Y-33766210D01*
X137299679Y-33767124D01*
X137312246Y-33818161D01*
X137302009Y-33916390D01*
X137294531Y-33953558D01*
X137265914Y-34084337D01*
X137235759Y-34222406D01*
X137226907Y-34263002D01*
X137206874Y-34373382D01*
X137186707Y-34514221D01*
X137171320Y-34649758D01*
X137163025Y-34782812D01*
X137168879Y-34855771D01*
X137188257Y-34868549D01*
X137220539Y-34821062D01*
X137265101Y-34713222D01*
X137282178Y-34665006D01*
X137320422Y-34531379D01*
X137342305Y-34390943D01*
X137351125Y-34219883D01*
X137351704Y-34162749D01*
X137355554Y-34025217D01*
X137364991Y-33905635D01*
X137378371Y-33821161D01*
X137386889Y-33795742D01*
X137403555Y-33739368D01*
X137394614Y-33712797D01*
X137356919Y-33667311D01*
X137312464Y-33591913D01*
X137275455Y-33513422D01*
X137260097Y-33458852D01*
X137274260Y-33447793D01*
X137305465Y-33479069D01*
X137325627Y-33500197D01*
X137338864Y-33494137D01*
X137346669Y-33452403D01*
X137350534Y-33366512D01*
X137351954Y-33227979D01*
X137352006Y-33214598D01*
X137357512Y-33022435D01*
X137372756Y-32886964D01*
X137398034Y-32804153D01*
X137421339Y-32750443D01*
X137418758Y-32733326D01*
X137416494Y-32734473D01*
X137379452Y-32778250D01*
X137334381Y-32857980D01*
X137292152Y-32950779D01*
X137263640Y-33033763D01*
X137257658Y-33068774D01*
X137253365Y-33108448D01*
X137241076Y-33095331D01*
X137222926Y-33048603D01*
X137210051Y-32991530D01*
X137214193Y-32922749D01*
X137237795Y-32826335D01*
X137274553Y-32712025D01*
X137314979Y-32589146D01*
X137336727Y-32504431D01*
X137341547Y-32437713D01*
X137331183Y-32368828D01*
X137311032Y-32290916D01*
X137284754Y-32173464D01*
X137276484Y-32114105D01*
X137305317Y-32114105D01*
X137315230Y-32183342D01*
X137333296Y-32223261D01*
X137339803Y-32225790D01*
X137347204Y-32198063D01*
X137351435Y-32127527D01*
X137351858Y-32079014D01*
X137348802Y-31995230D01*
X137339349Y-31965927D01*
X137320894Y-31983905D01*
X137318762Y-31987494D01*
X137305760Y-32040504D01*
X137305317Y-32114105D01*
X137276484Y-32114105D01*
X137269157Y-32061519D01*
X137267101Y-32009489D01*
X137241711Y-31879455D01*
X137188104Y-31781150D01*
X137124298Y-31648510D01*
X137104433Y-31511364D01*
X137129324Y-31387222D01*
X137166818Y-31325382D01*
X137228039Y-31252433D01*
X137210494Y-31360584D01*
X137195377Y-31444579D01*
X137182088Y-31504120D01*
X137181142Y-31507360D01*
X137191999Y-31538244D01*
X137235933Y-31544227D01*
X137289933Y-31526360D01*
X137320774Y-31500988D01*
X137343055Y-31448586D01*
X137338336Y-31423982D01*
X137335826Y-31373860D01*
X137350186Y-31337653D01*
X137374998Y-31299979D01*
X137382140Y-31316350D01*
X137382759Y-31337408D01*
X137401277Y-31383453D01*
X137442141Y-31386794D01*
X137486892Y-31351141D01*
X137508064Y-31312222D01*
X137529572Y-31225437D01*
X137540371Y-31123875D01*
X137540491Y-31119095D01*
X137555256Y-31014678D01*
X137588774Y-30902272D01*
X137597138Y-30882029D01*
X137651493Y-30758826D01*
X137672097Y-31002567D01*
X137682202Y-31137187D01*
X137689550Y-31263834D01*
X137692676Y-31356905D01*
X137692701Y-31362875D01*
X137719174Y-31491476D01*
X137772698Y-31574514D01*
X137862344Y-31650294D01*
X137951756Y-31664274D01*
X138040938Y-31616455D01*
X138042002Y-31615511D01*
X138084870Y-31580465D01*
X138092338Y-31593356D01*
X138080563Y-31638686D01*
X138041090Y-31716808D01*
X137987240Y-31780983D01*
X137923724Y-31849438D01*
X137882344Y-31908861D01*
X137865178Y-31966251D01*
X137849773Y-32062489D01*
X137836933Y-32183336D01*
X137827465Y-32314553D01*
X137822172Y-32441902D01*
X137821860Y-32551144D01*
X137827332Y-32628040D01*
X137839395Y-32658351D01*
X137839981Y-32658394D01*
X137880358Y-32634140D01*
X137888538Y-32619769D01*
X137903243Y-32601651D01*
X137906563Y-32615995D01*
X137896526Y-32673281D01*
X137867796Y-32749271D01*
X137830950Y-32821659D01*
X137796565Y-32868138D01*
X137783900Y-32874696D01*
X137768486Y-32894895D01*
X137784314Y-32934465D01*
X137797494Y-32988544D01*
X137808626Y-33089159D01*
X137816404Y-33221050D01*
X137819382Y-33343893D01*
X137822597Y-33492525D01*
X137828924Y-33624881D01*
X137837386Y-33724768D01*
X137845147Y-33770803D01*
X137859323Y-33806023D01*
X137873157Y-33799379D01*
X137891042Y-33743934D01*
X137908798Y-33670314D01*
X137930852Y-33552647D01*
X137931385Y-33470700D01*
X137913087Y-33407662D01*
X137876408Y-33322749D01*
X137938369Y-33400000D01*
X137987446Y-33498686D01*
X137996594Y-33627044D01*
X137965639Y-33791546D01*
X137924452Y-33919476D01*
X137877718Y-34071926D01*
X137852425Y-34205162D01*
X137849760Y-34307558D01*
X137870912Y-34367491D01*
X137878102Y-34373357D01*
X137905894Y-34417789D01*
X137909002Y-34440765D01*
X137901929Y-34472231D01*
X137870531Y-34456903D01*
X137858633Y-34447273D01*
X137826749Y-34426001D01*
X137818717Y-34444138D01*
X137830152Y-34511893D01*
X137830382Y-34513015D01*
X137858426Y-34594292D01*
X137897214Y-34648618D01*
X137901215Y-34651460D01*
X138004835Y-34736138D01*
X138055745Y-34822656D01*
X138059919Y-34860036D01*
X138054670Y-34901857D01*
X138044596Y-34884251D01*
X138042203Y-34875486D01*
X138004092Y-34830636D01*
X137936845Y-34825893D01*
X137883236Y-34848484D01*
X137860034Y-34873866D01*
X137890961Y-34893391D01*
X137931740Y-34936309D01*
X137937463Y-34967217D01*
X137929529Y-34996979D01*
X137919438Y-34983637D01*
X137898619Y-34955104D01*
X137860671Y-34949512D01*
X137794840Y-34969115D01*
X137690374Y-35016166D01*
X137635354Y-35043181D01*
X137475560Y-35141209D01*
X137373777Y-35249244D01*
X137326479Y-35371621D01*
X137322013Y-35428267D01*
X137301998Y-35523477D01*
X137260676Y-35598219D01*
X137199454Y-35671168D01*
X137216285Y-35563017D01*
X137230842Y-35473367D01*
X137243180Y-35403539D01*
X137243713Y-35400790D01*
X137234031Y-35355702D01*
X137213061Y-35346715D01*
X137145720Y-35374524D01*
X137093944Y-35445666D01*
X137071124Y-35541709D01*
X137071111Y-35542049D01*
X137065265Y-35593157D01*
X137055463Y-35592943D01*
X137053395Y-35586192D01*
X137035608Y-35545737D01*
X137003389Y-35537352D01*
X136944636Y-35562841D01*
X136861239Y-35614809D01*
X136785314Y-35672381D01*
X136735763Y-35736797D01*
X136697739Y-35830349D01*
X136681208Y-35885186D01*
X136627479Y-36072871D01*
X136606593Y-35918369D01*
X136595120Y-35803249D01*
X136586475Y-35660713D01*
X136582999Y-35545708D01*
X136579162Y-35427266D01*
X136567011Y-35350089D01*
X136540157Y-35293671D01*
X136499260Y-35245764D01*
X136996863Y-35245764D01*
X137001721Y-35269464D01*
X137028936Y-35308612D01*
X137071053Y-35304713D01*
X137137654Y-35255237D01*
X137170353Y-35224937D01*
X137265448Y-35134059D01*
X137178393Y-35143340D01*
X137102226Y-35171865D01*
X137070646Y-35226493D01*
X137054633Y-35268027D01*
X137046876Y-35261739D01*
X137024911Y-35225748D01*
X137013865Y-35223114D01*
X136996863Y-35245764D01*
X136499260Y-35245764D01*
X136492212Y-35237508D01*
X136484486Y-35229555D01*
X136415484Y-35168372D01*
X136365301Y-35151165D01*
X136334223Y-35160707D01*
X136273779Y-35225067D01*
X136224760Y-35343901D01*
X136195559Y-35474936D01*
X136171290Y-35560295D01*
X136136361Y-35620850D01*
X136131440Y-35625480D01*
X136107659Y-35639488D01*
X136097380Y-35624836D01*
X136100597Y-35572531D01*
X136117304Y-35473578D01*
X136131304Y-35400790D01*
X136121623Y-35355702D01*
X136100652Y-35346715D01*
X136033312Y-35374524D01*
X135981535Y-35445666D01*
X135958715Y-35541709D01*
X135958703Y-35542049D01*
X135952856Y-35593157D01*
X135943054Y-35592943D01*
X135940987Y-35586192D01*
X135921704Y-35544660D01*
X135886431Y-35537718D01*
X135823311Y-35566911D01*
X135755083Y-35610427D01*
X135680545Y-35671182D01*
X135627089Y-35747610D01*
X135580474Y-35860944D01*
X135573737Y-35880804D01*
X135509639Y-36072871D01*
X135488761Y-35875211D01*
X135477139Y-35738170D01*
X135469560Y-35596961D01*
X135467883Y-35519009D01*
X135450727Y-35370217D01*
X135394903Y-35262174D01*
X135374535Y-35246178D01*
X135886704Y-35246178D01*
X135891450Y-35284598D01*
X135914023Y-35327557D01*
X135931999Y-35330887D01*
X135945170Y-35292750D01*
X135940423Y-35254331D01*
X135918608Y-35212814D01*
X135962287Y-35212814D01*
X135971530Y-35268403D01*
X135987615Y-35284915D01*
X136023816Y-35263819D01*
X136075412Y-35213068D01*
X136075633Y-35212814D01*
X136138324Y-35140713D01*
X136050305Y-35140713D01*
X135985862Y-35150477D01*
X135963498Y-35189579D01*
X135962287Y-35212814D01*
X135918608Y-35212814D01*
X135917850Y-35211372D01*
X135899874Y-35208042D01*
X135886704Y-35246178D01*
X135374535Y-35246178D01*
X135293882Y-35182839D01*
X135282140Y-35176587D01*
X135167574Y-35135431D01*
X135081802Y-35143514D01*
X135037755Y-35184489D01*
X135013032Y-35221842D01*
X135005925Y-35204656D01*
X135005319Y-35183519D01*
X135029377Y-35126661D01*
X135055065Y-35109024D01*
X135087838Y-35090066D01*
X135070707Y-35064605D01*
X135066474Y-35061381D01*
X135778571Y-35061381D01*
X135806408Y-35116345D01*
X135813966Y-35124233D01*
X135863815Y-35158230D01*
X135908518Y-35139539D01*
X135932185Y-35113837D01*
X136194164Y-35113837D01*
X136213238Y-35108102D01*
X136214694Y-35106668D01*
X136229902Y-35069373D01*
X136891358Y-35069373D01*
X136926375Y-35124233D01*
X136976224Y-35158230D01*
X137020926Y-35139539D01*
X137045979Y-35112332D01*
X137060817Y-35104432D01*
X137310900Y-35104432D01*
X137327800Y-35105955D01*
X137328633Y-35105138D01*
X137348327Y-35052422D01*
X137346436Y-35017820D01*
X137335127Y-34991394D01*
X137322101Y-35022352D01*
X137316475Y-35047781D01*
X137310900Y-35104432D01*
X137060817Y-35104432D01*
X137113505Y-35076381D01*
X137174092Y-35076187D01*
X137239638Y-35076314D01*
X137270040Y-35040293D01*
X137278142Y-35009292D01*
X137302301Y-34926088D01*
X137323764Y-34875906D01*
X137345523Y-34804289D01*
X137351524Y-34736854D01*
X137348318Y-34692020D01*
X137336288Y-34690252D01*
X137308918Y-34736567D01*
X137281999Y-34790385D01*
X137195863Y-34916937D01*
X137087152Y-34987654D01*
X136974270Y-35006357D01*
X136906331Y-35024152D01*
X136891358Y-35069373D01*
X136229902Y-35069373D01*
X136236477Y-35053250D01*
X136233831Y-35033488D01*
X136217910Y-35026315D01*
X136201183Y-35066136D01*
X136194164Y-35113837D01*
X135932185Y-35113837D01*
X135933571Y-35112332D01*
X136001096Y-35076381D01*
X136061683Y-35076187D01*
X136127372Y-35076238D01*
X136158126Y-35039963D01*
X136166378Y-35009292D01*
X136191380Y-34916652D01*
X136215099Y-34846156D01*
X136235957Y-34767854D01*
X136232226Y-34725372D01*
X136210279Y-34727005D01*
X136176492Y-34781049D01*
X136172342Y-34790511D01*
X136110385Y-34901185D01*
X136029801Y-34965000D01*
X135911127Y-34996894D01*
X135901698Y-34998209D01*
X135810270Y-35022094D01*
X135778571Y-35061381D01*
X135066474Y-35061381D01*
X135049159Y-35048193D01*
X134982922Y-35011312D01*
X134940638Y-35024965D01*
X134912642Y-35076338D01*
X134884696Y-35145863D01*
X134882737Y-35074933D01*
X134897521Y-35014021D01*
X134949957Y-34943320D01*
X135047279Y-34853711D01*
X135078688Y-34827918D01*
X135101857Y-34796797D01*
X135116751Y-34740850D01*
X135124909Y-34648738D01*
X135127871Y-34509123D01*
X135127980Y-34464840D01*
X135124240Y-34303216D01*
X135113408Y-34194864D01*
X135096070Y-34142086D01*
X135072808Y-34147184D01*
X135055744Y-34180231D01*
X135041773Y-34201722D01*
X135037719Y-34178696D01*
X135051412Y-34118938D01*
X135087903Y-34037131D01*
X135133103Y-33960813D01*
X135170659Y-33918865D01*
X135186570Y-33886771D01*
X135166347Y-33858610D01*
X135147674Y-33811790D01*
X135135241Y-33712751D01*
X135128722Y-33557927D01*
X135127507Y-33432445D01*
X135124593Y-33235817D01*
X135116517Y-33097950D01*
X135103455Y-33019433D01*
X135085583Y-33000852D01*
X135063077Y-33042796D01*
X135038575Y-33134691D01*
X135018069Y-33257878D01*
X135022992Y-33339039D01*
X135033397Y-33365581D01*
X135063638Y-33433051D01*
X135059526Y-33450517D01*
X135025669Y-33414967D01*
X135004379Y-33384550D01*
X134965411Y-33312012D01*
X134948208Y-33235486D01*
X134953605Y-33142050D01*
X134982436Y-33018777D01*
X135035537Y-32852745D01*
X135039465Y-32841279D01*
X135083758Y-32709808D01*
X135109232Y-32621462D01*
X135117695Y-32561107D01*
X135110955Y-32513611D01*
X135090820Y-32463841D01*
X135085816Y-32453270D01*
X135049554Y-32366818D01*
X135036923Y-32313884D01*
X135048271Y-32302370D01*
X135080647Y-32335760D01*
X135111641Y-32371764D01*
X135124170Y-32360725D01*
X135126998Y-32296534D01*
X135113141Y-32214534D01*
X135078688Y-32157483D01*
X134969305Y-32061870D01*
X134906575Y-31987393D01*
X134883264Y-31924932D01*
X134882737Y-31910467D01*
X134884696Y-31839537D01*
X134912642Y-31909063D01*
X134958611Y-31968775D01*
X135024720Y-31970092D01*
X135059918Y-31952213D01*
X135082378Y-31923883D01*
X135052192Y-31887102D01*
X135012389Y-31830499D01*
X135005319Y-31797129D01*
X135010050Y-31764967D01*
X135029154Y-31786447D01*
X135037755Y-31800912D01*
X135088799Y-31854415D01*
X135140993Y-31851974D01*
X135188475Y-31799045D01*
X135225382Y-31701086D01*
X135241476Y-31611292D01*
X135260547Y-31506456D01*
X135285192Y-31437520D01*
X135309556Y-31409820D01*
X135327784Y-31428688D01*
X135334020Y-31499458D01*
X135332896Y-31528016D01*
X135334169Y-31625217D01*
X135353445Y-31667160D01*
X135363237Y-31669586D01*
X135405677Y-31640070D01*
X135431783Y-31552928D01*
X135441062Y-31410270D01*
X135440001Y-31339619D01*
X135460249Y-31098187D01*
X135504709Y-30922466D01*
X135575558Y-30696229D01*
X135595359Y-30897080D01*
G37*
G36*
X138932484Y-30912530D02*
G01*
X138945409Y-31056398D01*
X138955229Y-31212928D01*
X138958001Y-31283333D01*
X138967287Y-31405866D01*
X138985645Y-31521112D01*
X139000321Y-31576885D01*
X139033605Y-31650165D01*
X139078733Y-31680169D01*
X139134756Y-31684909D01*
X139201702Y-31694279D01*
X139210005Y-31718326D01*
X139159094Y-31750578D01*
X139141196Y-31757651D01*
X139101271Y-31779904D01*
X139108636Y-31814079D01*
X139127026Y-31840462D01*
X139168119Y-31881337D01*
X139214278Y-31876246D01*
X139243556Y-31861073D01*
X139281519Y-31842130D01*
X139275344Y-31855114D01*
X139228265Y-31899699D01*
X139151431Y-31952368D01*
X139076717Y-31978087D01*
X139067862Y-31978588D01*
X139021259Y-31981990D01*
X138989638Y-31999585D01*
X138968200Y-32042456D01*
X138952149Y-32121689D01*
X138936686Y-32248366D01*
X138931938Y-32292633D01*
X138916777Y-32419952D01*
X138900801Y-32529258D01*
X138886895Y-32601389D01*
X138883857Y-32612043D01*
X138883889Y-32627414D01*
X138907854Y-32595128D01*
X138925519Y-32565693D01*
X138967021Y-32480369D01*
X138990258Y-32406997D01*
X138991655Y-32395742D01*
X139000163Y-32361233D01*
X139010247Y-32370380D01*
X139010273Y-32418575D01*
X138994421Y-32503339D01*
X138976907Y-32569115D01*
X138948360Y-32690989D01*
X138931074Y-32814440D01*
X138928710Y-32863030D01*
X138922386Y-32948296D01*
X138906530Y-33004341D01*
X138899338Y-33012802D01*
X138896983Y-33046611D01*
X138925759Y-33110775D01*
X138945688Y-33142539D01*
X138992203Y-33222706D01*
X139017391Y-33288923D01*
X139018972Y-33303886D01*
X139011256Y-33331060D01*
X139000946Y-33315024D01*
X138974347Y-33273014D01*
X138953362Y-33290527D01*
X138938500Y-33365497D01*
X138930267Y-33495859D01*
X138928710Y-33609426D01*
X138926471Y-33771363D01*
X138918698Y-33884064D01*
X138903812Y-33959966D01*
X138880233Y-34011506D01*
X138877018Y-34016254D01*
X138851625Y-34060625D01*
X138859813Y-34068659D01*
X138862009Y-34067384D01*
X138906031Y-34018192D01*
X138954740Y-33933437D01*
X138996611Y-33837190D01*
X139020121Y-33753523D01*
X139021884Y-33733408D01*
X139026741Y-33687539D01*
X139044705Y-33697825D01*
X139052311Y-33709002D01*
X139077466Y-33774424D01*
X139076936Y-33862194D01*
X139049491Y-33984049D01*
X139010959Y-34103561D01*
X138973415Y-34218625D01*
X138956403Y-34301066D01*
X138957803Y-34375757D01*
X138975495Y-34467574D01*
X138978750Y-34481508D01*
X139006331Y-34609666D01*
X139016812Y-34685845D01*
X139010227Y-34707790D01*
X138986611Y-34673247D01*
X138976177Y-34651460D01*
X138933730Y-34558759D01*
X138931220Y-34704000D01*
X138938550Y-34808398D01*
X138962792Y-34868251D01*
X138969775Y-34873951D01*
X139010774Y-34913259D01*
X139067087Y-34984161D01*
X139093376Y-35021710D01*
X139143510Y-35124754D01*
X139171925Y-35241913D01*
X139179103Y-35358750D01*
X139165530Y-35460827D01*
X139131691Y-35533709D01*
X139078070Y-35562958D01*
X139075208Y-35563017D01*
X139063130Y-35543434D01*
X139069223Y-35529752D01*
X139084641Y-35477948D01*
X139094428Y-35396792D01*
X139094815Y-35389486D01*
X139092807Y-35317731D01*
X139071339Y-35291207D01*
X139037870Y-35291425D01*
X138989947Y-35318534D01*
X138961849Y-35390875D01*
X138957110Y-35416582D01*
X138938633Y-35501223D01*
X138919109Y-35549234D01*
X138903762Y-35552707D01*
X138897810Y-35506366D01*
X138878127Y-35452797D01*
X138836026Y-35441851D01*
X138796927Y-35478670D01*
X138794079Y-35485390D01*
X138780093Y-35541183D01*
X138763777Y-35633123D01*
X138754991Y-35693966D01*
X138735474Y-35806035D01*
X138710210Y-35906410D01*
X138697582Y-35942437D01*
X138677730Y-35984884D01*
X138663412Y-35991330D01*
X138649717Y-35954193D01*
X138631731Y-35865889D01*
X138625214Y-35830724D01*
X138605069Y-35694475D01*
X138591848Y-35553432D01*
X138588808Y-35473074D01*
X138581996Y-35363973D01*
X138556171Y-35290557D01*
X138512962Y-35237160D01*
X138428443Y-35179834D01*
X138341984Y-35163791D01*
X138271850Y-35190550D01*
X138251380Y-35215389D01*
X138226730Y-35251988D01*
X138219538Y-35232703D01*
X138218944Y-35211409D01*
X138238155Y-35155877D01*
X138288137Y-35079226D01*
X138323901Y-35036139D01*
X138384513Y-34957334D01*
X138426015Y-34869888D01*
X138450925Y-34761473D01*
X138461759Y-34619762D01*
X138461035Y-34432427D01*
X138459216Y-34373357D01*
X138453745Y-34244444D01*
X138447159Y-34169701D01*
X138437703Y-34141501D01*
X138423620Y-34152217D01*
X138412997Y-34172506D01*
X138386316Y-34217982D01*
X138375107Y-34206227D01*
X138374465Y-34196951D01*
X138387070Y-34129045D01*
X138421172Y-34047734D01*
X138465181Y-33974436D01*
X138507508Y-33930569D01*
X138521034Y-33926064D01*
X138542744Y-33913872D01*
X138523211Y-33871178D01*
X138513309Y-33856628D01*
X138491928Y-33811343D01*
X138477571Y-33740595D01*
X138469141Y-33633858D01*
X138465542Y-33480603D01*
X138465207Y-33394948D01*
X138463257Y-33245425D01*
X138457931Y-33119434D01*
X138450012Y-33029220D01*
X138440287Y-32987025D01*
X138438985Y-32985738D01*
X138414744Y-32998926D01*
X138391809Y-33056303D01*
X138373174Y-33140281D01*
X138361831Y-33233270D01*
X138360773Y-33317682D01*
X138372697Y-33375337D01*
X138393036Y-33419431D01*
X138385091Y-33417463D01*
X138344367Y-33369099D01*
X138303609Y-33305694D01*
X138285830Y-33234461D01*
X138291716Y-33143086D01*
X138321954Y-33019257D01*
X138372506Y-32864249D01*
X138422501Y-32714535D01*
X138451179Y-32609531D01*
X138459871Y-32536444D01*
X138449909Y-32482482D01*
X138422624Y-32434855D01*
X138417874Y-32428461D01*
X138381993Y-32362954D01*
X138372506Y-32322129D01*
X138380862Y-32298522D01*
X138410736Y-32326510D01*
X138417874Y-32335760D01*
X138448867Y-32371764D01*
X138461396Y-32360725D01*
X138464224Y-32296534D01*
X138450367Y-32214534D01*
X138415915Y-32157483D01*
X138306531Y-32061870D01*
X138243801Y-31987393D01*
X138220490Y-31924932D01*
X138219963Y-31910467D01*
X138221922Y-31839537D01*
X138249868Y-31909063D01*
X138295837Y-31968775D01*
X138361946Y-31970092D01*
X138397144Y-31952213D01*
X138419604Y-31923883D01*
X138389419Y-31887102D01*
X138349189Y-31831354D01*
X138341606Y-31798948D01*
X138348380Y-31772061D01*
X138374779Y-31795576D01*
X138386146Y-31810456D01*
X138430924Y-31850981D01*
X138480669Y-31839983D01*
X138486572Y-31836510D01*
X138521534Y-31801070D01*
X138551645Y-31734529D01*
X138580687Y-31626169D01*
X138606961Y-31495318D01*
X138637133Y-31433786D01*
X138667396Y-31410696D01*
X138699559Y-31408033D01*
X138693117Y-31428600D01*
X138673071Y-31488883D01*
X138667394Y-31564830D01*
X138675259Y-31632605D01*
X138695836Y-31668371D01*
X138701486Y-31669586D01*
X138743595Y-31640433D01*
X138770031Y-31556576D01*
X138779499Y-31423413D01*
X138777974Y-31351022D01*
X138794513Y-31132836D01*
X138841134Y-30949319D01*
X138912065Y-30727129D01*
X138932484Y-30912530D01*
G37*
G36*
X138990511Y-34836861D02*
G01*
X138975061Y-34852311D01*
X138959611Y-34836861D01*
X138975061Y-34821411D01*
X138990511Y-34836861D01*
G37*
G36*
X134067072Y-33626601D02*
G01*
X134070770Y-33663273D01*
X134067072Y-33667802D01*
X134048702Y-33663560D01*
X134046472Y-33647202D01*
X134057778Y-33621767D01*
X134067072Y-33626601D01*
G37*
G36*
X139052311Y-33631751D02*
G01*
X139036861Y-33647202D01*
X139021411Y-33631751D01*
X139036861Y-33616301D01*
X139052311Y-33631751D01*
G37*
G36*
X140257421Y-33631751D02*
G01*
X140241971Y-33647202D01*
X140226521Y-33631751D01*
X140241971Y-33616301D01*
X140257421Y-33631751D01*
G37*
G36*
X136147688Y-33168248D02*
G01*
X136132238Y-33183698D01*
X136116788Y-33168248D01*
X136132238Y-33152798D01*
X136147688Y-33168248D01*
G37*
G36*
X137260097Y-33168248D02*
G01*
X137244647Y-33183698D01*
X137229197Y-33168248D01*
X137244647Y-33152798D01*
X137260097Y-33168248D01*
G37*
G36*
X140690024Y-33168248D02*
G01*
X140674574Y-33183698D01*
X140659124Y-33168248D01*
X140674574Y-33152798D01*
X140690024Y-33168248D01*
G37*
G36*
X141802433Y-33168248D02*
G01*
X141786983Y-33183698D01*
X141771533Y-33168248D01*
X141786983Y-33152798D01*
X141802433Y-33168248D01*
G37*
G36*
X133273966Y-31870438D02*
G01*
X133258516Y-31885888D01*
X133243066Y-31870438D01*
X133258516Y-31854988D01*
X133273966Y-31870438D01*
G37*
D13*
%TO.C,U4*%
X104519000Y-48471000D02*
X104519000Y-48731000D01*
X104519000Y-53921000D02*
X104519000Y-53661000D01*
X107244000Y-48471000D02*
X104519000Y-48471000D01*
X107244000Y-48471000D02*
X109969000Y-48471000D01*
X107244000Y-53921000D02*
X104519000Y-53921000D01*
X107244000Y-53921000D02*
X109969000Y-53921000D01*
X109969000Y-48471000D02*
X109969000Y-48731000D01*
X109969000Y-53921000D02*
X109969000Y-53661000D01*
X103736500Y-48731000D02*
X103496500Y-48401000D01*
X103976500Y-48401000D01*
X103736500Y-48731000D01*
G36*
X103736500Y-48731000D02*
G01*
X103496500Y-48401000D01*
X103976500Y-48401000D01*
X103736500Y-48731000D01*
G37*
%TO.C,C4*%
X122534000Y-63703252D02*
X122534000Y-62280748D01*
X124354000Y-63703252D02*
X124354000Y-62280748D01*
%TO.C,SW8*%
X119311000Y-94107000D02*
X133281000Y-94107000D01*
X119311000Y-108077000D02*
X119311000Y-94107000D01*
X133281000Y-94107000D02*
X133281000Y-108077000D01*
X133281000Y-108077000D02*
X119311000Y-108077000D01*
%TO.C,C15*%
X137372748Y-48342000D02*
X138795252Y-48342000D01*
X137372748Y-50162000D02*
X138795252Y-50162000D01*
%TO.C,D3*%
X136636000Y-76292000D02*
X136636000Y-79552000D01*
X138336000Y-76292000D02*
X136636000Y-76292000D01*
X138336000Y-76292000D02*
X138336000Y-79552000D01*
%TO.C,C10*%
X132292748Y-43578000D02*
X133715252Y-43578000D01*
X132292748Y-45398000D02*
X133715252Y-45398000D01*
%TO.C,D4*%
X96686000Y-75670000D02*
X96686000Y-72410000D01*
X96686000Y-75670000D02*
X98386000Y-75670000D01*
X98386000Y-75670000D02*
X98386000Y-72410000D01*
%TO.C,SW2*%
X137556000Y-59924000D02*
X138156000Y-59924000D01*
X137856000Y-60224000D02*
X137556000Y-59924000D01*
X138156000Y-59924000D02*
X137856000Y-60224000D01*
X139256000Y-58124000D02*
X139256000Y-69924000D01*
X143356000Y-58124000D02*
X139256000Y-58124000D01*
X143356000Y-69924000D02*
X139256000Y-69924000D01*
X144856000Y-64024000D02*
X145856000Y-64024000D01*
X145356000Y-63524000D02*
X145356000Y-64524000D01*
X147356000Y-58124000D02*
X151456000Y-58124000D01*
X151456000Y-58124000D02*
X151456000Y-60524000D01*
X151456000Y-62724000D02*
X151456000Y-65324000D01*
X151456000Y-67524000D02*
X151456000Y-69924000D01*
X151456000Y-69924000D02*
X147356000Y-69924000D01*
X148356000Y-64024000D02*
G75*
G02*
X142356000Y-64024000I-3000000J0D01*
G01*
X142356000Y-64024000D02*
G75*
G02*
X148356000Y-64024000I3000000J0D01*
G01*
%TO.C,C13*%
X137372748Y-41738000D02*
X138795252Y-41738000D01*
X137372748Y-43558000D02*
X138795252Y-43558000D01*
%TO.C,R5*%
X127106000Y-38388936D02*
X127106000Y-39843064D01*
X128926000Y-38388936D02*
X128926000Y-39843064D01*
%TO.C,C3*%
X119994000Y-62329748D02*
X119994000Y-63752252D01*
X121814000Y-62329748D02*
X121814000Y-63752252D01*
%TO.C,D2*%
X117136000Y-76042000D02*
X117136000Y-79302000D01*
X118836000Y-76042000D02*
X117136000Y-76042000D01*
X118836000Y-76042000D02*
X118836000Y-79302000D01*
%TO.C,C17*%
X141528748Y-72242000D02*
X142951252Y-72242000D01*
X141528748Y-74062000D02*
X142951252Y-74062000D01*
%TO.C,J1*%
X122890000Y-32850000D02*
X122890000Y-34400000D01*
X123190000Y-30050000D02*
X123190000Y-32850000D01*
X123190000Y-32850000D02*
X122890000Y-32850000D01*
X127940000Y-36100000D02*
X128340000Y-35650000D01*
X128340000Y-35650000D02*
X128740000Y-36100000D01*
X128740000Y-36100000D02*
X127940000Y-36100000D01*
X130890000Y-30050000D02*
X130890000Y-32850000D01*
X131190000Y-32850000D02*
X130890000Y-32850000D01*
X131190000Y-32850000D02*
X131190000Y-34400000D01*
%TO.C,C7*%
X130154000Y-62231748D02*
X130154000Y-63654252D01*
X131974000Y-62231748D02*
X131974000Y-63654252D01*
%TO.C,U3*%
X123692000Y-66116000D02*
X127092000Y-66116000D01*
X127092000Y-69444000D02*
X123692000Y-69444000D01*
D14*
X123213000Y-66980000D02*
G75*
G02*
X122963000Y-66980000I-125000J0D01*
G01*
X122963000Y-66980000D02*
G75*
G02*
X123213000Y-66980000I125000J0D01*
G01*
D13*
%TO.C,SW4*%
X99811000Y-74607000D02*
X113781000Y-74607000D01*
X99811000Y-88577000D02*
X99811000Y-74607000D01*
X113781000Y-74607000D02*
X113781000Y-88577000D01*
X113781000Y-88577000D02*
X99811000Y-88577000D01*
%TO.C,C16*%
X137323748Y-51390000D02*
X138746252Y-51390000D01*
X137323748Y-53210000D02*
X138746252Y-53210000D01*
%TO.C,R4*%
X124808000Y-38339936D02*
X124808000Y-39794064D01*
X126628000Y-38339936D02*
X126628000Y-39794064D01*
%TO.C,C11*%
X132292748Y-46928000D02*
X133715252Y-46928000D01*
X132292748Y-48748000D02*
X133715252Y-48748000D01*
%TO.C,SW9*%
X138811000Y-94107000D02*
X152781000Y-94107000D01*
X138811000Y-108077000D02*
X138811000Y-94107000D01*
X152781000Y-94107000D02*
X152781000Y-108077000D01*
X152781000Y-108077000D02*
X138811000Y-108077000D01*
%TO.C,C9*%
X132292748Y-40228000D02*
X133715252Y-40228000D01*
X132292748Y-42048000D02*
X133715252Y-42048000D01*
%TO.C,USB_BOOT1*%
X110500000Y-36500000D02*
X110500000Y-38000000D01*
X111750000Y-40500000D02*
X116250000Y-40500000D01*
X116250000Y-34000000D02*
X111750000Y-34000000D01*
X117500000Y-38000000D02*
X117500000Y-36500000D01*
%TO.C,R6*%
X101477064Y-42840000D02*
X100022936Y-42840000D01*
X101477064Y-44660000D02*
X100022936Y-44660000D01*
%TO.C,C19*%
X143101748Y-90022000D02*
X144524252Y-90022000D01*
X143101748Y-91842000D02*
X144524252Y-91842000D01*
%TO.C,D7*%
X117136000Y-96542000D02*
X117136000Y-99802000D01*
X118836000Y-96542000D02*
X117136000Y-96542000D01*
X118836000Y-96542000D02*
X118836000Y-99802000D01*
%TO.C,U2*%
X141278000Y-45370000D02*
X141278000Y-49130000D01*
X141278000Y-49130000D02*
X142538000Y-49130000D01*
X148098000Y-45370000D02*
X148098000Y-49130000D01*
X148098000Y-49130000D02*
X146838000Y-49130000D01*
X148328000Y-44330000D02*
X147998000Y-44090000D01*
X148328000Y-43850000D01*
X148328000Y-44330000D01*
G36*
X148328000Y-44330000D02*
G01*
X147998000Y-44090000D01*
X148328000Y-43850000D01*
X148328000Y-44330000D01*
G37*
%TO.C,U1*%
X122082000Y-47040000D02*
X122082000Y-46630000D01*
X122082000Y-53610000D02*
X122082000Y-52960000D01*
X122732000Y-46390000D02*
X122382000Y-46390000D01*
X122732000Y-53610000D02*
X122082000Y-53610000D01*
X128652000Y-46390000D02*
X129302000Y-46390000D01*
X128652000Y-53610000D02*
X129302000Y-53610000D01*
X129302000Y-46390000D02*
X129302000Y-47040000D01*
X129302000Y-53610000D02*
X129302000Y-52960000D01*
X122082000Y-46390000D02*
X121842000Y-46060000D01*
X122322000Y-46060000D01*
X122082000Y-46390000D01*
G36*
X122082000Y-46390000D02*
G01*
X121842000Y-46060000D01*
X122322000Y-46060000D01*
X122082000Y-46390000D01*
G37*
%TO.C,D1*%
X97636000Y-76292000D02*
X97636000Y-79552000D01*
X99336000Y-76292000D02*
X97636000Y-76292000D01*
X99336000Y-76292000D02*
X99336000Y-79552000D01*
%TO.C,D6*%
X97636000Y-96042000D02*
X97636000Y-99302000D01*
X99336000Y-96042000D02*
X97636000Y-96042000D01*
X99336000Y-96042000D02*
X99336000Y-99302000D01*
%TO.C,D8*%
X136636000Y-96792000D02*
X136636000Y-100052000D01*
X138336000Y-96792000D02*
X136636000Y-96792000D01*
X138336000Y-96792000D02*
X138336000Y-100052000D01*
%TO.C,R2*%
X109834000Y-44923064D02*
X109834000Y-43468936D01*
X111654000Y-44923064D02*
X111654000Y-43468936D01*
%TO.C,SW6*%
X138811000Y-74567000D02*
X152781000Y-74567000D01*
X138811000Y-88537000D02*
X138811000Y-74567000D01*
X152781000Y-74567000D02*
X152781000Y-88537000D01*
X152781000Y-88537000D02*
X138811000Y-88537000D01*
%TO.C,SW7*%
X99811000Y-94107000D02*
X113781000Y-94107000D01*
X99811000Y-108077000D02*
X99811000Y-94107000D01*
X113781000Y-94107000D02*
X113781000Y-108077000D01*
X113781000Y-108077000D02*
X99811000Y-108077000D01*
%TO.C,C1*%
X143801748Y-39160000D02*
X145224252Y-39160000D01*
X143801748Y-40980000D02*
X145224252Y-40980000D01*
%TO.C,C22*%
X123240748Y-71734000D02*
X124663252Y-71734000D01*
X123240748Y-73554000D02*
X124663252Y-73554000D01*
%TO.C,C18*%
X123289748Y-90530000D02*
X124712252Y-90530000D01*
X123289748Y-92350000D02*
X124712252Y-92350000D01*
%TO.C,C6*%
X122534000Y-39778252D02*
X122534000Y-38355748D01*
X124354000Y-39778252D02*
X124354000Y-38355748D01*
%TO.C,SW5*%
X119311000Y-74607000D02*
X133281000Y-74607000D01*
X119311000Y-88577000D02*
X119311000Y-74607000D01*
X133281000Y-74607000D02*
X133281000Y-88577000D01*
X133281000Y-88577000D02*
X119311000Y-88577000D01*
%TO.C,C2*%
X145476748Y-53310000D02*
X146899252Y-53310000D01*
X145476748Y-55130000D02*
X146899252Y-55130000D01*
%TO.C,RES1*%
X100000000Y-36250000D02*
X100000000Y-37750000D01*
X101250000Y-40250000D02*
X105750000Y-40250000D01*
X105750000Y-33750000D02*
X101250000Y-33750000D01*
X107000000Y-37750000D02*
X107000000Y-36250000D01*
%TO.C,C14*%
X137372748Y-45088000D02*
X138795252Y-45088000D01*
X137372748Y-46908000D02*
X138795252Y-46908000D01*
%TO.C,R3*%
X107334000Y-43468936D02*
X107334000Y-44923064D01*
X109154000Y-43468936D02*
X109154000Y-44923064D01*
%TO.C,SW3*%
X101164000Y-58124000D02*
X105264000Y-58124000D01*
X101164000Y-60524000D02*
X101164000Y-58124000D01*
X101164000Y-65324000D02*
X101164000Y-62724000D01*
X101164000Y-69924000D02*
X101164000Y-67524000D01*
X105264000Y-69924000D02*
X101164000Y-69924000D01*
X107264000Y-64524000D02*
X107264000Y-63524000D01*
X107764000Y-64024000D02*
X106764000Y-64024000D01*
X109264000Y-58124000D02*
X113364000Y-58124000D01*
X109264000Y-69924000D02*
X113364000Y-69924000D01*
X113364000Y-69924000D02*
X113364000Y-58124000D01*
X114464000Y-68124000D02*
X114764000Y-67824000D01*
X114764000Y-67824000D02*
X115064000Y-68124000D01*
X115064000Y-68124000D02*
X114464000Y-68124000D01*
X110264000Y-64024000D02*
G75*
G02*
X104264000Y-64024000I-3000000J0D01*
G01*
X104264000Y-64024000D02*
G75*
G02*
X110264000Y-64024000I3000000J0D01*
G01*
%TO.C,C12*%
X132292748Y-50278000D02*
X133715252Y-50278000D01*
X132292748Y-52098000D02*
X133715252Y-52098000D01*
%TO.C,R1*%
X125074000Y-63719064D02*
X125074000Y-62264936D01*
X126894000Y-63719064D02*
X126894000Y-62264936D01*
%TO.C,D5*%
X154090000Y-66240000D02*
X154090000Y-69500000D01*
X155790000Y-66240000D02*
X154090000Y-66240000D01*
X155790000Y-66240000D02*
X155790000Y-69500000D01*
%TO.C,C5*%
X104834000Y-44907252D02*
X104834000Y-43484748D01*
X106654000Y-44907252D02*
X106654000Y-43484748D01*
%TO.C,C8*%
X127614000Y-62231748D02*
X127614000Y-63654252D01*
X129434000Y-62231748D02*
X129434000Y-63654252D01*
%TD*%
M02*
