%TF.GenerationSoftware,KiCad,Pcbnew,8.0.5*%
%TF.CreationDate,2025-01-09T16:38:30+01:00*%
%TF.ProjectId,rp2040_pad,72703230-3430-45f7-9061-642e6b696361,rev?*%
%TF.SameCoordinates,Original*%
%TF.FileFunction,Copper,L1,Top*%
%TF.FilePolarity,Positive*%
%FSLAX46Y46*%
G04 Gerber Fmt 4.6, Leading zero omitted, Abs format (unit mm)*
G04 Created by KiCad (PCBNEW 8.0.5) date 2025-01-09 16:38:30*
%MOMM*%
%LPD*%
G01*
G04 APERTURE LIST*
G04 Aperture macros list*
%AMRoundRect*
0 Rectangle with rounded corners*
0 $1 Rounding radius*
0 $2 $3 $4 $5 $6 $7 $8 $9 X,Y pos of 4 corners*
0 Add a 4 corners polygon primitive as box body*
4,1,4,$2,$3,$4,$5,$6,$7,$8,$9,$2,$3,0*
0 Add four circle primitives for the rounded corners*
1,1,$1+$1,$2,$3*
1,1,$1+$1,$4,$5*
1,1,$1+$1,$6,$7*
1,1,$1+$1,$8,$9*
0 Add four rect primitives between the rounded corners*
20,1,$1+$1,$2,$3,$4,$5,0*
20,1,$1+$1,$4,$5,$6,$7,0*
20,1,$1+$1,$6,$7,$8,$9,0*
20,1,$1+$1,$8,$9,$2,$3,0*%
G04 Aperture macros list end*
%TA.AperFunction,SMDPad,CuDef*%
%ADD10RoundRect,0.150000X-0.650000X-0.150000X0.650000X-0.150000X0.650000X0.150000X-0.650000X0.150000X0*%
%TD*%
%TA.AperFunction,SMDPad,CuDef*%
%ADD11RoundRect,0.250000X0.650000X-0.325000X0.650000X0.325000X-0.650000X0.325000X-0.650000X-0.325000X0*%
%TD*%
%TA.AperFunction,ComponentPad*%
%ADD12C,2.200000*%
%TD*%
%TA.AperFunction,SMDPad,CuDef*%
%ADD13RoundRect,0.250000X-0.325000X-0.650000X0.325000X-0.650000X0.325000X0.650000X-0.325000X0.650000X0*%
%TD*%
%TA.AperFunction,SMDPad,CuDef*%
%ADD14RoundRect,0.250000X-0.250000X0.250000X-0.250000X-0.250000X0.250000X-0.250000X0.250000X0.250000X0*%
%TD*%
%TA.AperFunction,SMDPad,CuDef*%
%ADD15RoundRect,0.250000X0.250000X-0.250000X0.250000X0.250000X-0.250000X0.250000X-0.250000X-0.250000X0*%
%TD*%
%TA.AperFunction,ComponentPad*%
%ADD16R,2.000000X2.000000*%
%TD*%
%TA.AperFunction,ComponentPad*%
%ADD17C,2.000000*%
%TD*%
%TA.AperFunction,ComponentPad*%
%ADD18C,3.200000*%
%TD*%
%TA.AperFunction,SMDPad,CuDef*%
%ADD19RoundRect,0.250000X-0.625000X0.312500X-0.625000X-0.312500X0.625000X-0.312500X0.625000X0.312500X0*%
%TD*%
%TA.AperFunction,SMDPad,CuDef*%
%ADD20RoundRect,0.250000X-0.650000X0.325000X-0.650000X-0.325000X0.650000X-0.325000X0.650000X0.325000X0*%
%TD*%
%TA.AperFunction,SMDPad,CuDef*%
%ADD21R,0.400000X1.650000*%
%TD*%
%TA.AperFunction,SMDPad,CuDef*%
%ADD22R,1.825000X0.700000*%
%TD*%
%TA.AperFunction,SMDPad,CuDef*%
%ADD23R,2.000000X1.500000*%
%TD*%
%TA.AperFunction,SMDPad,CuDef*%
%ADD24R,1.350000X2.000000*%
%TD*%
%TA.AperFunction,ComponentPad*%
%ADD25O,1.350000X1.700000*%
%TD*%
%TA.AperFunction,ComponentPad*%
%ADD26O,1.100000X1.500000*%
%TD*%
%TA.AperFunction,SMDPad,CuDef*%
%ADD27R,1.430000X2.500000*%
%TD*%
%TA.AperFunction,SMDPad,CuDef*%
%ADD28R,1.400000X1.100000*%
%TD*%
%TA.AperFunction,SMDPad,CuDef*%
%ADD29RoundRect,0.250000X0.312500X0.625000X-0.312500X0.625000X-0.312500X-0.625000X0.312500X-0.625000X0*%
%TD*%
%TA.AperFunction,SMDPad,CuDef*%
%ADD30RoundRect,0.375000X-0.375000X0.625000X-0.375000X-0.625000X0.375000X-0.625000X0.375000X0.625000X0*%
%TD*%
%TA.AperFunction,SMDPad,CuDef*%
%ADD31RoundRect,0.500000X-1.400000X0.500000X-1.400000X-0.500000X1.400000X-0.500000X1.400000X0.500000X0*%
%TD*%
%TA.AperFunction,SMDPad,CuDef*%
%ADD32RoundRect,0.050000X-0.387500X-0.050000X0.387500X-0.050000X0.387500X0.050000X-0.387500X0.050000X0*%
%TD*%
%TA.AperFunction,SMDPad,CuDef*%
%ADD33RoundRect,0.050000X-0.050000X-0.387500X0.050000X-0.387500X0.050000X0.387500X-0.050000X0.387500X0*%
%TD*%
%TA.AperFunction,HeatsinkPad*%
%ADD34R,3.200000X3.200000*%
%TD*%
%TA.AperFunction,SMDPad,CuDef*%
%ADD35RoundRect,0.250000X0.625000X-0.312500X0.625000X0.312500X-0.625000X0.312500X-0.625000X-0.312500X0*%
%TD*%
%TA.AperFunction,ViaPad*%
%ADD36C,0.600000*%
%TD*%
%TA.AperFunction,Conductor*%
%ADD37C,0.200000*%
%TD*%
%TA.AperFunction,Conductor*%
%ADD38C,0.500000*%
%TD*%
G04 APERTURE END LIST*
D10*
%TO.P,U4,1,~{CS}*%
%TO.N,QSPI_SS*%
X103644000Y-49291000D03*
%TO.P,U4,2,DO(IO1)*%
%TO.N,QSPI_SD1*%
X103644000Y-50561000D03*
%TO.P,U4,3,IO2*%
%TO.N,QSPI_SD2*%
X103644000Y-51831000D03*
%TO.P,U4,4,GND*%
%TO.N,GND*%
X103644000Y-53101000D03*
%TO.P,U4,5,DI(IO0)*%
%TO.N,QSPI_SD0*%
X110844000Y-53101000D03*
%TO.P,U4,6,CLK*%
%TO.N,QSPI_SCLK*%
X110844000Y-51831000D03*
%TO.P,U4,7,IO3*%
%TO.N,QSPI_SD3*%
X110844000Y-50561000D03*
%TO.P,U4,8,VCC*%
%TO.N,+3V3*%
X110844000Y-49291000D03*
%TD*%
D11*
%TO.P,C4,1*%
%TO.N,GND*%
X123444000Y-64467000D03*
%TO.P,C4,2*%
%TO.N,XIN*%
X123444000Y-61517000D03*
%TD*%
D12*
%TO.P,SW8,1,1*%
%TO.N,COL_B*%
X128836000Y-96012000D03*
%TO.P,SW8,2,2*%
%TO.N,Net-(D7-A)*%
X122486000Y-98552000D03*
%TD*%
D13*
%TO.P,C15,1*%
%TO.N,3V3+*%
X136609000Y-49252000D03*
%TO.P,C15,2*%
%TO.N,GND*%
X139559000Y-49252000D03*
%TD*%
D14*
%TO.P,D3,1,K*%
%TO.N,ROW_B*%
X137486000Y-77052000D03*
%TO.P,D3,2,A*%
%TO.N,Net-(D3-A)*%
X137486000Y-79552000D03*
%TD*%
D13*
%TO.P,C10,1*%
%TO.N,3V3+*%
X131529000Y-44488000D03*
%TO.P,C10,2*%
%TO.N,GND*%
X134479000Y-44488000D03*
%TD*%
D15*
%TO.P,D4,1,K*%
%TO.N,ROW_A*%
X97536000Y-74910000D03*
%TO.P,D4,2,A*%
%TO.N,Net-(D4-A)*%
X97536000Y-72410000D03*
%TD*%
D16*
%TO.P,SW2,A,A*%
%TO.N,ENC_SA2*%
X137856000Y-61524000D03*
D17*
%TO.P,SW2,B,B*%
%TO.N,ENC_SB2*%
X137856000Y-66524000D03*
%TO.P,SW2,C,C*%
%TO.N,GND*%
X137856000Y-64024000D03*
D18*
%TO.P,SW2,MP*%
%TO.N,N/C*%
X145356000Y-58424000D03*
X145356000Y-69624000D03*
D17*
%TO.P,SW2,S1,S1*%
%TO.N,Net-(D5-A)*%
X152356000Y-66524000D03*
%TO.P,SW2,S2,S2*%
%TO.N,COL_C*%
X152356000Y-61524000D03*
%TD*%
D13*
%TO.P,C13,1*%
%TO.N,3V3+*%
X136609000Y-42648000D03*
%TO.P,C13,2*%
%TO.N,GND*%
X139559000Y-42648000D03*
%TD*%
D19*
%TO.P,R5,1*%
%TO.N,USB_D-*%
X128016000Y-37653500D03*
%TO.P,R5,2*%
%TO.N,Net-(U1-USB_DM)*%
X128016000Y-40578500D03*
%TD*%
D20*
%TO.P,C3,1*%
%TO.N,GND*%
X120904000Y-61566000D03*
%TO.P,C3,2*%
%TO.N,Net-(C3-Pad2)*%
X120904000Y-64516000D03*
%TD*%
D14*
%TO.P,D2,1,K*%
%TO.N,ROW_B*%
X117986000Y-76802000D03*
%TO.P,D2,2,A*%
%TO.N,Net-(D2-A)*%
X117986000Y-79302000D03*
%TD*%
D13*
%TO.P,C17,1*%
%TO.N,VBUS*%
X140765000Y-73152000D03*
%TO.P,C17,2*%
%TO.N,GND*%
X143715000Y-73152000D03*
%TD*%
D21*
%TO.P,J1,1,VBUS*%
%TO.N,VBUS*%
X128340000Y-34550000D03*
%TO.P,J1,2,D-*%
%TO.N,USB_D-*%
X127690000Y-34550000D03*
%TO.P,J1,3,D+*%
%TO.N,USB_D+*%
X127040000Y-34550000D03*
%TO.P,J1,4,ID*%
%TO.N,unconnected-(J1-ID-Pad4)*%
X126390000Y-34550000D03*
%TO.P,J1,5,GND*%
%TO.N,GND*%
X125740000Y-34550000D03*
D22*
%TO.P,J1,6,Shield*%
X129990000Y-33350000D03*
D23*
X129890000Y-34650000D03*
D24*
X129770000Y-32600000D03*
D25*
X129770000Y-31670000D03*
D26*
X129460000Y-34670000D03*
D27*
X128000000Y-31400000D03*
X126080000Y-31400000D03*
D26*
X124620000Y-34670000D03*
D25*
X124310000Y-31670000D03*
D24*
X124290000Y-32600000D03*
D23*
X124140000Y-34670000D03*
D22*
X124040000Y-33350000D03*
%TD*%
D20*
%TO.P,C7,1*%
%TO.N,Net-(U1-VREG_VOUT)*%
X131064000Y-61468000D03*
%TO.P,C7,2*%
%TO.N,GND*%
X131064000Y-64418000D03*
%TD*%
D28*
%TO.P,U3,1,1*%
%TO.N,XIN*%
X124292000Y-66980000D03*
%TO.P,U3,2,2*%
%TO.N,GND*%
X124292000Y-68580000D03*
%TO.P,U3,3,3*%
%TO.N,Net-(C3-Pad2)*%
X126492000Y-68580000D03*
%TO.P,U3,4,4*%
%TO.N,GND*%
X126492000Y-66980000D03*
%TD*%
D12*
%TO.P,SW4,1,1*%
%TO.N,COL_A*%
X109336000Y-76512000D03*
%TO.P,SW4,2,2*%
%TO.N,Net-(D1-A)*%
X102986000Y-79052000D03*
%TD*%
D13*
%TO.P,C16,1*%
%TO.N,3V3+*%
X136560000Y-52300000D03*
%TO.P,C16,2*%
%TO.N,GND*%
X139510000Y-52300000D03*
%TD*%
D19*
%TO.P,R4,1*%
%TO.N,USB_D+*%
X125718000Y-37604500D03*
%TO.P,R4,2*%
%TO.N,Net-(U1-USB_DP)*%
X125718000Y-40529500D03*
%TD*%
D13*
%TO.P,C11,1*%
%TO.N,3V3+*%
X131529000Y-47838000D03*
%TO.P,C11,2*%
%TO.N,GND*%
X134479000Y-47838000D03*
%TD*%
D12*
%TO.P,SW9,1,1*%
%TO.N,COL_C*%
X148336000Y-96012000D03*
%TO.P,SW9,2,2*%
%TO.N,Net-(D8-A)*%
X141986000Y-98552000D03*
%TD*%
D13*
%TO.P,C9,1*%
%TO.N,3V3+*%
X131529000Y-41138000D03*
%TO.P,C9,2*%
%TO.N,GND*%
X134479000Y-41138000D03*
%TD*%
D17*
%TO.P,USB_BOOT1,1,1*%
%TO.N,GND*%
X110750000Y-35000000D03*
X117250000Y-35000000D03*
%TO.P,USB_BOOT1,2,2*%
%TO.N,Net-(R3-Pad1)*%
X110750000Y-39500000D03*
X117250000Y-39500000D03*
%TD*%
D29*
%TO.P,R6,1*%
%TO.N,+3V3*%
X102212500Y-43750000D03*
%TO.P,R6,2*%
%TO.N,Net-(U1-RUN)*%
X99287500Y-43750000D03*
%TD*%
D13*
%TO.P,C19,1*%
%TO.N,VBUS*%
X142338000Y-90932000D03*
%TO.P,C19,2*%
%TO.N,GND*%
X145288000Y-90932000D03*
%TD*%
D14*
%TO.P,D7,1,K*%
%TO.N,ROW_C*%
X117986000Y-97302000D03*
%TO.P,D7,2,A*%
%TO.N,Net-(D7-A)*%
X117986000Y-99802000D03*
%TD*%
D30*
%TO.P,U2,1,GND*%
%TO.N,GND*%
X146988000Y-44070000D03*
%TO.P,U2,2,VO*%
%TO.N,+3V3*%
X144688000Y-44070000D03*
D31*
X144688000Y-50370000D03*
D30*
%TO.P,U2,3,VI*%
%TO.N,VBUS*%
X142388000Y-44070000D03*
%TD*%
D32*
%TO.P,U1,1,IOVDD*%
%TO.N,3V3+*%
X122254500Y-47400000D03*
%TO.P,U1,2,GPIO0*%
%TO.N,ENC_SA*%
X122254500Y-47800000D03*
%TO.P,U1,3,GPIO1*%
%TO.N,ENC_SB*%
X122254500Y-48200000D03*
%TO.P,U1,4,GPIO2*%
%TO.N,ENC_SA2*%
X122254500Y-48600000D03*
%TO.P,U1,5,GPIO3*%
%TO.N,ENC_SB2*%
X122254500Y-49000000D03*
%TO.P,U1,6,GPIO4*%
%TO.N,ROW_A*%
X122254500Y-49400000D03*
%TO.P,U1,7,GPIO5*%
%TO.N,ROW_B*%
X122254500Y-49800000D03*
%TO.P,U1,8,GPIO6*%
%TO.N,ROW_C*%
X122254500Y-50200000D03*
%TO.P,U1,9,GPIO7*%
%TO.N,COL_A*%
X122254500Y-50600000D03*
%TO.P,U1,10,IOVDD*%
%TO.N,3V3+*%
X122254500Y-51000000D03*
%TO.P,U1,11,GPIO8*%
%TO.N,COL_B*%
X122254500Y-51400000D03*
%TO.P,U1,12,GPIO9*%
%TO.N,COL_C*%
X122254500Y-51800000D03*
%TO.P,U1,13,GPIO10*%
%TO.N,unconnected-(U1-GPIO10-Pad13)*%
X122254500Y-52200000D03*
%TO.P,U1,14,GPIO11*%
%TO.N,unconnected-(U1-GPIO11-Pad14)*%
X122254500Y-52600000D03*
D33*
%TO.P,U1,15,GPIO12*%
%TO.N,unconnected-(U1-GPIO12-Pad15)*%
X123092000Y-53437500D03*
%TO.P,U1,16,GPIO13*%
%TO.N,unconnected-(U1-GPIO13-Pad16)*%
X123492000Y-53437500D03*
%TO.P,U1,17,GPIO14*%
%TO.N,unconnected-(U1-GPIO14-Pad17)*%
X123892000Y-53437500D03*
%TO.P,U1,18,GPIO15*%
%TO.N,unconnected-(U1-GPIO15-Pad18)*%
X124292000Y-53437500D03*
%TO.P,U1,19,TESTEN*%
%TO.N,unconnected-(U1-TESTEN-Pad19)*%
X124692000Y-53437500D03*
%TO.P,U1,20,XIN*%
%TO.N,XIN*%
X125092000Y-53437500D03*
%TO.P,U1,21,XOUT*%
%TO.N,XOUT*%
X125492000Y-53437500D03*
%TO.P,U1,22,IOVDD*%
%TO.N,3V3+*%
X125892000Y-53437500D03*
%TO.P,U1,23,DVDD*%
%TO.N,Net-(U1-VREG_VOUT)*%
X126292000Y-53437500D03*
%TO.P,U1,24,SWCLK*%
%TO.N,unconnected-(U1-SWCLK-Pad24)*%
X126692000Y-53437500D03*
%TO.P,U1,25,SWD*%
%TO.N,unconnected-(U1-SWD-Pad25)*%
X127092000Y-53437500D03*
%TO.P,U1,26,RUN*%
%TO.N,Net-(U1-RUN)*%
X127492000Y-53437500D03*
%TO.P,U1,27,GPIO16*%
%TO.N,LED*%
X127892000Y-53437500D03*
%TO.P,U1,28,GPIO17*%
%TO.N,unconnected-(U1-GPIO17-Pad28)*%
X128292000Y-53437500D03*
D32*
%TO.P,U1,29,GPIO18*%
%TO.N,unconnected-(U1-GPIO18-Pad29)*%
X129129500Y-52600000D03*
%TO.P,U1,30,GPIO19*%
%TO.N,unconnected-(U1-GPIO19-Pad30)*%
X129129500Y-52200000D03*
%TO.P,U1,31,GPIO20*%
%TO.N,unconnected-(U1-GPIO20-Pad31)*%
X129129500Y-51800000D03*
%TO.P,U1,32,GPIO21*%
%TO.N,unconnected-(U1-GPIO21-Pad32)*%
X129129500Y-51400000D03*
%TO.P,U1,33,IOVDD*%
%TO.N,3V3+*%
X129129500Y-51000000D03*
%TO.P,U1,34,GPIO22*%
%TO.N,unconnected-(U1-GPIO22-Pad34)*%
X129129500Y-50600000D03*
%TO.P,U1,35,GPIO23*%
%TO.N,unconnected-(U1-GPIO23-Pad35)*%
X129129500Y-50200000D03*
%TO.P,U1,36,GPIO24*%
%TO.N,unconnected-(U1-GPIO24-Pad36)*%
X129129500Y-49800000D03*
%TO.P,U1,37,GPIO25*%
%TO.N,unconnected-(U1-GPIO25-Pad37)*%
X129129500Y-49400000D03*
%TO.P,U1,38,GPIO26_ADC0*%
%TO.N,unconnected-(U1-GPIO26_ADC0-Pad38)*%
X129129500Y-49000000D03*
%TO.P,U1,39,GPIO27_ADC1*%
%TO.N,unconnected-(U1-GPIO27_ADC1-Pad39)*%
X129129500Y-48600000D03*
%TO.P,U1,40,GPIO28_ADC2*%
%TO.N,unconnected-(U1-GPIO28_ADC2-Pad40)*%
X129129500Y-48200000D03*
%TO.P,U1,41,GPIO29_ADC3*%
%TO.N,unconnected-(U1-GPIO29_ADC3-Pad41)*%
X129129500Y-47800000D03*
%TO.P,U1,42,IOVDD*%
%TO.N,3V3+*%
X129129500Y-47400000D03*
D33*
%TO.P,U1,43,ADC_AVDD*%
X128292000Y-46562500D03*
%TO.P,U1,44,VREG_IN*%
X127892000Y-46562500D03*
%TO.P,U1,45,VREG_VOUT*%
%TO.N,Net-(U1-VREG_VOUT)*%
X127492000Y-46562500D03*
%TO.P,U1,46,USB_DM*%
%TO.N,Net-(U1-USB_DM)*%
X127092000Y-46562500D03*
%TO.P,U1,47,USB_DP*%
%TO.N,Net-(U1-USB_DP)*%
X126692000Y-46562500D03*
%TO.P,U1,48,USB_VDD*%
%TO.N,3V3+*%
X126292000Y-46562500D03*
%TO.P,U1,49,IOVDD*%
X125892000Y-46562500D03*
%TO.P,U1,50,DVDD*%
%TO.N,Net-(U1-VREG_VOUT)*%
X125492000Y-46562500D03*
%TO.P,U1,51,QSPI_SD3*%
%TO.N,QSPI_SD3*%
X125092000Y-46562500D03*
%TO.P,U1,52,QSPI_SCLK*%
%TO.N,QSPI_SCLK*%
X124692000Y-46562500D03*
%TO.P,U1,53,QSPI_SD0*%
%TO.N,QSPI_SD0*%
X124292000Y-46562500D03*
%TO.P,U1,54,QSPI_SD2*%
%TO.N,QSPI_SD2*%
X123892000Y-46562500D03*
%TO.P,U1,55,QSPI_SD1*%
%TO.N,QSPI_SD1*%
X123492000Y-46562500D03*
%TO.P,U1,56,QSPI_SS*%
X123092000Y-46562500D03*
D34*
%TO.P,U1,57,GND*%
%TO.N,GND*%
X125692000Y-50000000D03*
%TD*%
D14*
%TO.P,D1,1,K*%
%TO.N,ROW_B*%
X98486000Y-77052000D03*
%TO.P,D1,2,A*%
%TO.N,Net-(D1-A)*%
X98486000Y-79552000D03*
%TD*%
%TO.P,D6,1,K*%
%TO.N,ROW_C*%
X98486000Y-96802000D03*
%TO.P,D6,2,A*%
%TO.N,Net-(D6-A)*%
X98486000Y-99302000D03*
%TD*%
%TO.P,D8,1,K*%
%TO.N,ROW_C*%
X137486000Y-97552000D03*
%TO.P,D8,2,A*%
%TO.N,Net-(D8-A)*%
X137486000Y-100052000D03*
%TD*%
D35*
%TO.P,R2,1*%
%TO.N,+3V3*%
X110744000Y-45658500D03*
%TO.P,R2,2*%
%TO.N,QSPI_SS*%
X110744000Y-42733500D03*
%TD*%
D12*
%TO.P,SW6,1,1*%
%TO.N,COL_C*%
X148336000Y-76472000D03*
%TO.P,SW6,2,2*%
%TO.N,Net-(D3-A)*%
X141986000Y-79012000D03*
%TD*%
%TO.P,SW7,1,1*%
%TO.N,COL_A*%
X109336000Y-96012000D03*
%TO.P,SW7,2,2*%
%TO.N,Net-(D6-A)*%
X102986000Y-98552000D03*
%TD*%
D13*
%TO.P,C1,1*%
%TO.N,VBUS*%
X143038000Y-40070000D03*
%TO.P,C1,2*%
%TO.N,GND*%
X145988000Y-40070000D03*
%TD*%
%TO.P,C22,1*%
%TO.N,VBUS*%
X122477000Y-72644000D03*
%TO.P,C22,2*%
%TO.N,GND*%
X125427000Y-72644000D03*
%TD*%
%TO.P,C18,1*%
%TO.N,VBUS*%
X122526000Y-91440000D03*
%TO.P,C18,2*%
%TO.N,GND*%
X125476000Y-91440000D03*
%TD*%
D11*
%TO.P,C6,1*%
%TO.N,Net-(U1-VREG_VOUT)*%
X123444000Y-40542000D03*
%TO.P,C6,2*%
%TO.N,GND*%
X123444000Y-37592000D03*
%TD*%
D12*
%TO.P,SW5,1,1*%
%TO.N,COL_B*%
X128836000Y-76512000D03*
%TO.P,SW5,2,2*%
%TO.N,Net-(D2-A)*%
X122486000Y-79052000D03*
%TD*%
D13*
%TO.P,C2,1*%
%TO.N,+3V3*%
X144713000Y-54220000D03*
%TO.P,C2,2*%
%TO.N,GND*%
X147663000Y-54220000D03*
%TD*%
D17*
%TO.P,RES1,1,1*%
%TO.N,GND*%
X100250000Y-34750000D03*
X106750000Y-34750000D03*
%TO.P,RES1,2,2*%
%TO.N,Net-(U1-RUN)*%
X100250000Y-39250000D03*
X106750000Y-39250000D03*
%TD*%
D13*
%TO.P,C14,1*%
%TO.N,3V3+*%
X136609000Y-45998000D03*
%TO.P,C14,2*%
%TO.N,GND*%
X139559000Y-45998000D03*
%TD*%
D19*
%TO.P,R3,1*%
%TO.N,Net-(R3-Pad1)*%
X108244000Y-42733500D03*
%TO.P,R3,2*%
%TO.N,QSPI_SS*%
X108244000Y-45658500D03*
%TD*%
D16*
%TO.P,SW3,A,A*%
%TO.N,ENC_SA*%
X114764000Y-66524000D03*
D17*
%TO.P,SW3,B,B*%
%TO.N,ENC_SB*%
X114764000Y-61524000D03*
%TO.P,SW3,C,C*%
%TO.N,GND*%
X114764000Y-64024000D03*
D18*
%TO.P,SW3,MP*%
%TO.N,N/C*%
X107264000Y-69624000D03*
X107264000Y-58424000D03*
D17*
%TO.P,SW3,S1,S1*%
%TO.N,Net-(D4-A)*%
X100264000Y-61524000D03*
%TO.P,SW3,S2,S2*%
%TO.N,COL_A*%
X100264000Y-66524000D03*
%TD*%
D13*
%TO.P,C12,1*%
%TO.N,3V3+*%
X131529000Y-51188000D03*
%TO.P,C12,2*%
%TO.N,GND*%
X134479000Y-51188000D03*
%TD*%
D35*
%TO.P,R1,1*%
%TO.N,Net-(C3-Pad2)*%
X125984000Y-64454500D03*
%TO.P,R1,2*%
%TO.N,XOUT*%
X125984000Y-61529500D03*
%TD*%
D14*
%TO.P,D5,1,K*%
%TO.N,ROW_A*%
X154940000Y-67000000D03*
%TO.P,D5,2,A*%
%TO.N,Net-(D5-A)*%
X154940000Y-69500000D03*
%TD*%
D11*
%TO.P,C5,1*%
%TO.N,+3V3*%
X105744000Y-45671000D03*
%TO.P,C5,2*%
%TO.N,GND*%
X105744000Y-42721000D03*
%TD*%
D20*
%TO.P,C8,1*%
%TO.N,Net-(U1-VREG_VOUT)*%
X128524000Y-61468000D03*
%TO.P,C8,2*%
%TO.N,GND*%
X128524000Y-64418000D03*
%TD*%
D36*
%TO.N,Net-(U1-RUN)*%
X129400000Y-55000000D03*
%TO.N,GND*%
X135600000Y-47600000D03*
X122000000Y-34400000D03*
X129600000Y-69400000D03*
X135600000Y-50800000D03*
X136000000Y-40600000D03*
X135800000Y-44400000D03*
X130556000Y-66040000D03*
X140716000Y-41656000D03*
X124460000Y-47752000D03*
X121412000Y-37084000D03*
X149352000Y-53848000D03*
X140716000Y-44704000D03*
X122936000Y-67564000D03*
X102108000Y-52832000D03*
X127800000Y-66600000D03*
X128016000Y-92456000D03*
X123952000Y-65532000D03*
X140716000Y-47752000D03*
X140208000Y-50800000D03*
X147320000Y-89916000D03*
X149352000Y-44704000D03*
X112360000Y-63500000D03*
X128524000Y-66040000D03*
X145250000Y-72750000D03*
X125476000Y-47752000D03*
X147320000Y-40640000D03*
X122428000Y-59944000D03*
X103632000Y-42164000D03*
%TO.N,VBUS*%
X121920000Y-69088000D03*
X140716000Y-75184000D03*
X141224000Y-89408000D03*
X122428000Y-89916000D03*
X140208000Y-71120000D03*
X141732000Y-50800000D03*
%TO.N,+3V3*%
X130048000Y-36068000D03*
X125984000Y-36068000D03*
X105744000Y-46881000D03*
X107315015Y-47436015D03*
%TO.N,XIN*%
X122936000Y-62992000D03*
X122428000Y-66040000D03*
%TO.N,Net-(U1-VREG_VOUT)*%
X130556000Y-53340000D03*
X125984000Y-45212000D03*
X128016000Y-45212000D03*
%TO.N,ROW_B*%
X115656717Y-51140717D03*
X115824000Y-59944000D03*
X115642000Y-76724000D03*
X100910000Y-77232000D03*
X135128000Y-77216000D03*
X116332000Y-64008000D03*
X119888000Y-76708000D03*
%TO.N,ROW_A*%
X99060000Y-70104000D03*
X154432000Y-74676000D03*
X119380000Y-70104000D03*
X103632000Y-68580000D03*
X116332000Y-49616904D03*
%TO.N,ROW_C*%
X117856000Y-95504000D03*
X116840000Y-50910950D03*
%TO.N,LED*%
X122290256Y-58420000D03*
X113792000Y-68580000D03*
X129540000Y-59436000D03*
%TO.N,Net-(D10-DIN)*%
X130048000Y-73152000D03*
X131064000Y-69596000D03*
%TO.N,Net-(D10-DOUT)*%
X130048000Y-87376000D03*
X137160000Y-73152000D03*
X117856000Y-89408000D03*
X115316000Y-87884000D03*
%TO.N,Net-(R3-Pad1)*%
X113400000Y-38400000D03*
%TO.N,Net-(U1-RUN)*%
X114500000Y-46250000D03*
X112500000Y-41500000D03*
%TO.N,ENC_SB2*%
X134112000Y-60452000D03*
X118592433Y-49009564D03*
%TO.N,ENC_SA2*%
X118872000Y-48260000D03*
X135221090Y-61917937D03*
%TO.N,COL_C*%
X120396000Y-56388000D03*
X134112000Y-62484000D03*
%TO.N,ENC_SB*%
X117856000Y-48260000D03*
X119888000Y-48000000D03*
%TO.N,COL_A*%
X117905408Y-51560822D03*
X117440000Y-73152000D03*
%TO.N,COL_B*%
X118364000Y-52359153D03*
X128850000Y-71705500D03*
%TO.N,QSPI_SD3*%
X124968000Y-43180000D03*
X112348000Y-50437000D03*
%TO.N,QSPI_SD1*%
X116274313Y-47660000D03*
X113792000Y-47244000D03*
%TO.N,QSPI_SD2*%
X117856000Y-42764000D03*
X113904500Y-44816500D03*
X105236000Y-51453000D03*
X123395548Y-43835081D03*
%TD*%
D37*
%TO.N,Net-(U1-RUN)*%
X128354954Y-55000000D02*
X129400000Y-55000000D01*
X127492000Y-54137046D02*
X128354954Y-55000000D01*
X127492000Y-53437500D02*
X127492000Y-54137046D01*
%TO.N,GND*%
X135600000Y-47600000D02*
X135362000Y-47838000D01*
X135362000Y-47838000D02*
X134479000Y-47838000D01*
X128671000Y-68231000D02*
X128671000Y-69400000D01*
X127420000Y-66980000D02*
X128671000Y-68231000D01*
X127420000Y-66980000D02*
X127800000Y-66600000D01*
X128671000Y-69400000D02*
X129600000Y-69400000D01*
D38*
%TO.N,VBUS*%
X142463000Y-39495000D02*
X143038000Y-40070000D01*
X128800000Y-36200000D02*
X129088756Y-36200000D01*
X128340000Y-35740000D02*
X128800000Y-36200000D01*
X129088756Y-36200000D02*
X132383756Y-39495000D01*
X132383756Y-39495000D02*
X142463000Y-39495000D01*
X128340000Y-34150000D02*
X128340000Y-35740000D01*
D37*
%TO.N,GND*%
X123450000Y-32950000D02*
X122000000Y-34400000D01*
X124040000Y-32950000D02*
X123450000Y-32950000D01*
X127420000Y-66980000D02*
X126492000Y-66980000D01*
X125427000Y-72644000D02*
X128671000Y-69400000D01*
X135212000Y-51188000D02*
X135600000Y-50800000D01*
X134479000Y-51188000D02*
X135212000Y-51188000D01*
X135462000Y-41138000D02*
X136000000Y-40600000D01*
X134479000Y-41138000D02*
X135462000Y-41138000D01*
X135712000Y-44488000D02*
X135800000Y-44400000D01*
X134479000Y-44488000D02*
X135712000Y-44488000D01*
X124292000Y-68580000D02*
X123952000Y-68580000D01*
X144848000Y-73152000D02*
X145250000Y-72750000D01*
X148718000Y-44070000D02*
X149352000Y-44704000D01*
X139510000Y-51498000D02*
X140208000Y-50800000D01*
X146988000Y-44070000D02*
X148718000Y-44070000D01*
X125620000Y-34270000D02*
X125740000Y-34150000D01*
X125692000Y-48984000D02*
X124460000Y-47752000D01*
X126080000Y-31000000D02*
X124130000Y-32950000D01*
X104189000Y-42721000D02*
X103632000Y-42164000D01*
X125692000Y-50000000D02*
X125692000Y-48984000D01*
X122428000Y-60042000D02*
X122428000Y-59944000D01*
X145288000Y-90932000D02*
X146304000Y-89916000D01*
X124130000Y-32950000D02*
X124040000Y-32950000D01*
X120904000Y-61566000D02*
X122428000Y-60042000D01*
X139559000Y-49252000D02*
X139559000Y-48909000D01*
X124040000Y-32950000D02*
X124040000Y-34170000D01*
X131064000Y-64418000D02*
X131064000Y-65532000D01*
X123444000Y-65024000D02*
X123952000Y-65532000D01*
X121920000Y-37592000D02*
X121412000Y-37084000D01*
X145988000Y-40070000D02*
X146750000Y-40070000D01*
X125476000Y-91440000D02*
X126492000Y-92456000D01*
X112884000Y-64024000D02*
X112360000Y-63500000D01*
X143715000Y-73152000D02*
X144848000Y-73152000D01*
X114764000Y-64024000D02*
X112884000Y-64024000D01*
X148980000Y-54220000D02*
X149352000Y-53848000D01*
X128524000Y-64418000D02*
X128524000Y-66040000D01*
X139510000Y-52300000D02*
X139510000Y-51498000D01*
X126492000Y-92456000D02*
X128016000Y-92456000D01*
X102377000Y-53101000D02*
X102108000Y-52832000D01*
X139559000Y-45861000D02*
X140716000Y-44704000D01*
X123952000Y-68580000D02*
X122936000Y-67564000D01*
X129990000Y-32950000D02*
X129950000Y-32950000D01*
X139559000Y-45998000D02*
X139559000Y-45861000D01*
X139559000Y-42648000D02*
X139724000Y-42648000D01*
X139724000Y-42648000D02*
X140716000Y-41656000D01*
X105744000Y-42721000D02*
X104189000Y-42721000D01*
X124040000Y-34170000D02*
X124140000Y-34270000D01*
X103644000Y-53101000D02*
X102377000Y-53101000D01*
X125692000Y-47968000D02*
X125476000Y-47752000D01*
X139559000Y-48909000D02*
X140716000Y-47752000D01*
X124140000Y-34270000D02*
X125620000Y-34270000D01*
X125692000Y-50000000D02*
X125692000Y-47968000D01*
X147663000Y-54220000D02*
X148980000Y-54220000D01*
X146304000Y-89916000D02*
X147320000Y-89916000D01*
X129950000Y-32950000D02*
X128000000Y-31000000D01*
X126924000Y-66980000D02*
X127000000Y-67056000D01*
X123444000Y-64467000D02*
X123444000Y-65024000D01*
X131064000Y-65532000D02*
X130556000Y-66040000D01*
X146750000Y-40070000D02*
X147320000Y-40640000D01*
X123444000Y-37592000D02*
X121920000Y-37592000D01*
%TO.N,VBUS*%
X141224000Y-89818000D02*
X142338000Y-90932000D01*
D38*
X143038000Y-42750000D02*
X143038000Y-43420000D01*
X122477000Y-69645000D02*
X122477000Y-72644000D01*
X140208000Y-71120000D02*
X140765000Y-71677000D01*
X141732000Y-44306000D02*
X141732000Y-50800000D01*
X140765000Y-71677000D02*
X140765000Y-73152000D01*
X140765000Y-75135000D02*
X140716000Y-75184000D01*
X121920000Y-69088000D02*
X122477000Y-69645000D01*
X143038000Y-43420000D02*
X142388000Y-44070000D01*
X143038000Y-40070000D02*
X143038000Y-42750000D01*
X143038000Y-43000000D02*
X141732000Y-44306000D01*
D37*
X122428000Y-91342000D02*
X122526000Y-91440000D01*
D38*
X140765000Y-73152000D02*
X140765000Y-75135000D01*
D37*
X141224000Y-89408000D02*
X141224000Y-89818000D01*
X122428000Y-89916000D02*
X122428000Y-91342000D01*
D38*
X143038000Y-42750000D02*
X143038000Y-43000000D01*
D37*
%TO.N,+3V3*%
X144688000Y-50370000D02*
X144688000Y-54195000D01*
X110744000Y-45658500D02*
X110744000Y-49191000D01*
X118000000Y-37000000D02*
X118600000Y-36400000D01*
X130048000Y-36068000D02*
X131064000Y-37084000D01*
X131695000Y-37084000D02*
X133481000Y-38870000D01*
X104133500Y-45671000D02*
X105744000Y-45671000D01*
X110744000Y-45658500D02*
X109013500Y-47389000D01*
X131064000Y-37084000D02*
X131695000Y-37084000D01*
X105744000Y-46881000D02*
X105744000Y-45671000D01*
X144688000Y-54195000D02*
X144713000Y-54220000D01*
X125984000Y-36068000D02*
X120400000Y-36068000D01*
X144688000Y-44070000D02*
X144688000Y-50370000D01*
X110744000Y-49191000D02*
X110844000Y-49291000D01*
X111900000Y-41748529D02*
X111900000Y-41251471D01*
X102212500Y-43750000D02*
X104133500Y-45671000D01*
X107362030Y-47389000D02*
X107315015Y-47436015D01*
X112100000Y-41948529D02*
X111900000Y-41748529D01*
X133481000Y-38870000D02*
X143597744Y-38870000D01*
X110744000Y-45658500D02*
X112100000Y-44302500D01*
X116151471Y-37000000D02*
X118000000Y-37000000D01*
X109013500Y-47389000D02*
X107776000Y-47389000D01*
X111900000Y-41251471D02*
X116151471Y-37000000D01*
X112100000Y-44302500D02*
X112100000Y-41948529D01*
X107776000Y-47389000D02*
X107362030Y-47389000D01*
X118600000Y-36400000D02*
X120068000Y-36400000D01*
X143597744Y-38870000D02*
X144688000Y-39960256D01*
X144688000Y-39960256D02*
X144688000Y-44070000D01*
X120068000Y-36400000D02*
X120400000Y-36068000D01*
%TO.N,Net-(C3-Pad2)*%
X120904000Y-64516000D02*
X121828000Y-63592000D01*
X125121500Y-63592000D02*
X125984000Y-64454500D01*
X121828000Y-63592000D02*
X125121500Y-63592000D01*
X125476000Y-67714000D02*
X125476000Y-64962500D01*
X126342000Y-68580000D02*
X125476000Y-67714000D01*
X126492000Y-68580000D02*
X126342000Y-68580000D01*
X125476000Y-64962500D02*
X125984000Y-64454500D01*
%TO.N,XIN*%
X123444000Y-55929000D02*
X123444000Y-61517000D01*
X122428000Y-66040000D02*
X123352000Y-66040000D01*
X125092000Y-54281000D02*
X123444000Y-55929000D01*
X123444000Y-61517000D02*
X123444000Y-62484000D01*
X125092000Y-53437500D02*
X125092000Y-54281000D01*
X123352000Y-66040000D02*
X124292000Y-66980000D01*
X123444000Y-62484000D02*
X122936000Y-62992000D01*
%TO.N,Net-(U1-VREG_VOUT)*%
X128524000Y-61468000D02*
X128524000Y-56203360D01*
X125492000Y-46562500D02*
X125492000Y-45704000D01*
X126292000Y-53971360D02*
X126292000Y-53437500D01*
X132080000Y-60452000D02*
X132080000Y-54864000D01*
X125984000Y-43082000D02*
X125984000Y-45212000D01*
X125492000Y-45704000D02*
X125984000Y-45212000D01*
X132080000Y-54864000D02*
X130556000Y-53340000D01*
X123444000Y-40542000D02*
X125984000Y-43082000D01*
X127492000Y-45736000D02*
X128016000Y-45212000D01*
X125984000Y-45212000D02*
X125730000Y-45466000D01*
X131064000Y-61468000D02*
X132080000Y-60452000D01*
X127492000Y-46562500D02*
X127492000Y-45736000D01*
X131064000Y-61468000D02*
X128524000Y-61468000D01*
X128524000Y-56203360D02*
X126292000Y-53971360D01*
%TO.N,3V3+*%
X136560000Y-52300000D02*
X136560000Y-42697000D01*
X133039000Y-45998000D02*
X136609000Y-45998000D01*
X136560000Y-42697000D02*
X136609000Y-42648000D01*
X133039000Y-42648000D02*
X136609000Y-42648000D01*
X127236360Y-47752000D02*
X126947640Y-47752000D01*
X133342000Y-52832000D02*
X131510000Y-51000000D01*
X131529000Y-51188000D02*
X133216000Y-52875000D01*
X124488360Y-52700000D02*
X125688360Y-52700000D01*
X131529000Y-41138000D02*
X131529000Y-51188000D01*
X133216000Y-52875000D02*
X135985000Y-52875000D01*
X127892000Y-46562500D02*
X127892000Y-47096360D01*
X131510000Y-51000000D02*
X129129500Y-51000000D01*
X125892000Y-52903640D02*
X126471640Y-52324000D01*
X131091000Y-47400000D02*
X129129500Y-47400000D01*
X122788360Y-47400000D02*
X122992000Y-47603640D01*
X131529000Y-47838000D02*
X131091000Y-47400000D01*
X126947640Y-47752000D02*
X126292000Y-47096360D01*
X122788360Y-51000000D02*
X124488360Y-52700000D01*
X122788360Y-51000000D02*
X122254500Y-51000000D01*
X122992000Y-50796360D02*
X122788360Y-51000000D01*
X125892000Y-53437500D02*
X125892000Y-52903640D01*
X127664000Y-47400000D02*
X127626180Y-47362180D01*
X126471640Y-52324000D02*
X127271640Y-52324000D01*
X128595640Y-51000000D02*
X129129500Y-51000000D01*
X122992000Y-47603640D02*
X122992000Y-50796360D01*
X131529000Y-41138000D02*
X133039000Y-42648000D01*
X131529000Y-44488000D02*
X129454500Y-46562500D01*
X132943000Y-49252000D02*
X136609000Y-49252000D01*
X127626180Y-47362180D02*
X127236360Y-47752000D01*
X131529000Y-47838000D02*
X132943000Y-49252000D01*
X126292000Y-46562500D02*
X125892000Y-46562500D01*
X125688360Y-52700000D02*
X125892000Y-52903640D01*
X126292000Y-47096360D02*
X126292000Y-46562500D01*
X127892000Y-47096360D02*
X127626180Y-47362180D01*
X131529000Y-47838000D02*
X130253500Y-46562500D01*
X136560000Y-52300000D02*
X136028000Y-52832000D01*
X135985000Y-52875000D02*
X136560000Y-52300000D01*
X129129500Y-47400000D02*
X127664000Y-47400000D01*
X122254500Y-47400000D02*
X122788360Y-47400000D01*
X130253500Y-46562500D02*
X127892000Y-46562500D01*
X136028000Y-52832000D02*
X133342000Y-52832000D01*
X127271640Y-52324000D02*
X128595640Y-51000000D01*
X131529000Y-44488000D02*
X133039000Y-45998000D01*
X129454500Y-46562500D02*
X127892000Y-46562500D01*
%TO.N,ROW_B*%
X116486484Y-50310950D02*
X118705262Y-50310950D01*
X116332000Y-60452000D02*
X115824000Y-59944000D01*
X118705262Y-50310950D02*
X119216212Y-49800000D01*
X98486000Y-77052000D02*
X100730000Y-77052000D01*
X119216212Y-49800000D02*
X122254500Y-49800000D01*
X136144000Y-77216000D02*
X136308000Y-77052000D01*
X100730000Y-77052000D02*
X100910000Y-77232000D01*
X119794000Y-76802000D02*
X119888000Y-76708000D01*
X117986000Y-76802000D02*
X119794000Y-76802000D01*
X135128000Y-77216000D02*
X136144000Y-77216000D01*
X115642000Y-76724000D02*
X115720000Y-76802000D01*
X115656717Y-51140717D02*
X116486484Y-50310950D01*
X116332000Y-64008000D02*
X116332000Y-60452000D01*
X136308000Y-77052000D02*
X137486000Y-77052000D01*
X115720000Y-76802000D02*
X117986000Y-76802000D01*
%TO.N,Net-(D1-A)*%
X98986000Y-79052000D02*
X98486000Y-79552000D01*
X102986000Y-79052000D02*
X98986000Y-79052000D01*
%TO.N,Net-(D2-A)*%
X122236000Y-79302000D02*
X122486000Y-79052000D01*
X117986000Y-79302000D02*
X122236000Y-79302000D01*
%TO.N,Net-(D3-A)*%
X141986000Y-79012000D02*
X138026000Y-79012000D01*
X138026000Y-79012000D02*
X137486000Y-79552000D01*
%TO.N,Net-(D4-A)*%
X97536000Y-67528000D02*
X97536000Y-72410000D01*
X97354000Y-67346000D02*
X97354000Y-64434000D01*
X97354000Y-67346000D02*
X97536000Y-67528000D01*
X97354000Y-64434000D02*
X100264000Y-61524000D01*
%TO.N,ROW_A*%
X110431006Y-70104000D02*
X108051006Y-67724000D01*
X154940000Y-67000000D02*
X155740000Y-67800000D01*
X108051006Y-67724000D02*
X104488000Y-67724000D01*
X104488000Y-67724000D02*
X103632000Y-68580000D01*
X119380000Y-70104000D02*
X110431006Y-70104000D01*
X155740000Y-72586000D02*
X154432000Y-73894000D01*
X97536000Y-74910000D02*
X99060000Y-73386000D01*
X155740000Y-67800000D02*
X155740000Y-72586000D01*
X118833622Y-49616904D02*
X119050526Y-49400000D01*
X116332000Y-49616904D02*
X118833622Y-49616904D01*
X154432000Y-73894000D02*
X154432000Y-74676000D01*
X99060000Y-73386000D02*
X99060000Y-70104000D01*
X119050526Y-49400000D02*
X122254500Y-49400000D01*
%TO.N,Net-(D5-A)*%
X154940000Y-69108000D02*
X154940000Y-69500000D01*
X152356000Y-66524000D02*
X154940000Y-69108000D01*
%TO.N,Net-(D6-A)*%
X98486000Y-99302000D02*
X102236000Y-99302000D01*
X102236000Y-99302000D02*
X102986000Y-98552000D01*
%TO.N,ROW_C*%
X123465899Y-97552000D02*
X122957899Y-97044000D01*
X137486000Y-97552000D02*
X123465899Y-97552000D01*
X103215899Y-96802000D02*
X98486000Y-96802000D01*
X117856000Y-95504000D02*
X117856000Y-97172000D01*
X117856000Y-97172000D02*
X117986000Y-97302000D01*
X117986000Y-97302000D02*
X117876000Y-97412000D01*
X116858950Y-50892000D02*
X118920249Y-50892000D01*
X118244000Y-97044000D02*
X117986000Y-97302000D01*
X118920249Y-50892000D02*
X119612249Y-50200000D01*
X103825899Y-97412000D02*
X103215899Y-96802000D01*
X117876000Y-97412000D02*
X103825899Y-97412000D01*
X119612249Y-50200000D02*
X122254500Y-50200000D01*
X122957899Y-97044000D02*
X118244000Y-97044000D01*
X116840000Y-50910950D02*
X116858950Y-50892000D01*
%TO.N,Net-(D7-A)*%
X121236000Y-99802000D02*
X122486000Y-98552000D01*
X117986000Y-99802000D02*
X121236000Y-99802000D01*
%TO.N,Net-(D8-A)*%
X138986000Y-98552000D02*
X141986000Y-98552000D01*
X137486000Y-100052000D02*
X138986000Y-98552000D01*
%TO.N,LED*%
X130296529Y-54172000D02*
X128626500Y-54172000D01*
X119380000Y-61330256D02*
X122290256Y-58420000D01*
X119380000Y-64508000D02*
X119380000Y-61330256D01*
X113792000Y-68580000D02*
X115308000Y-68580000D01*
X130556000Y-55880000D02*
X130648000Y-55788000D01*
X129540000Y-59436000D02*
X130556000Y-58420000D01*
X130556000Y-58420000D02*
X130556000Y-55880000D01*
X130648000Y-54523471D02*
X130296529Y-54172000D01*
X130648000Y-55788000D02*
X130648000Y-54523471D01*
X128626500Y-54172000D02*
X128623500Y-54175000D01*
X128095640Y-54175000D02*
X127892000Y-53971360D01*
X122428000Y-58420000D02*
X122290256Y-58420000D01*
X127892000Y-53971360D02*
X127892000Y-53437500D01*
X128623500Y-54175000D02*
X128095640Y-54175000D01*
X115308000Y-68580000D02*
X119380000Y-64508000D01*
%TO.N,Net-(D10-DIN)*%
X130048000Y-70612000D02*
X131064000Y-69596000D01*
X130048000Y-73152000D02*
X130048000Y-70612000D01*
%TO.N,Net-(D10-DOUT)*%
X117856000Y-89408000D02*
X116332000Y-87884000D01*
X130048000Y-80264000D02*
X130048000Y-87376000D01*
X116332000Y-87884000D02*
X115316000Y-87884000D01*
X137160000Y-73152000D02*
X130048000Y-80264000D01*
%TO.N,USB_D-*%
X127690000Y-34150000D02*
X127690000Y-37327500D01*
X127690000Y-37327500D02*
X128016000Y-37653500D01*
%TO.N,USB_D+*%
X125718000Y-37604500D02*
X127040000Y-36282500D01*
X127040000Y-36282500D02*
X127040000Y-34150000D01*
%TO.N,XOUT*%
X125492000Y-61037500D02*
X125984000Y-61529500D01*
X125984000Y-55864000D02*
X125492000Y-55372000D01*
X125492000Y-53437500D02*
X125492000Y-55372000D01*
X125984000Y-61529500D02*
X125984000Y-55864000D01*
%TO.N,QSPI_SS*%
X110744000Y-42733500D02*
X108244000Y-45233500D01*
X104611500Y-49291000D02*
X108244000Y-45658500D01*
X108244000Y-45233500D02*
X108244000Y-45658500D01*
X103644000Y-49291000D02*
X104611500Y-49291000D01*
%TO.N,Net-(R3-Pad1)*%
X108244000Y-42733500D02*
X110494000Y-40483500D01*
X112300000Y-39500000D02*
X113400000Y-38400000D01*
X110750000Y-39500000D02*
X112300000Y-39500000D01*
X110494000Y-40483500D02*
X110494000Y-39446000D01*
%TO.N,Net-(U1-USB_DP)*%
X126692000Y-41503500D02*
X126692000Y-46562500D01*
X125718000Y-40529500D02*
X126692000Y-41503500D01*
%TO.N,Net-(U1-USB_DM)*%
X127092000Y-46562500D02*
X127092000Y-41502500D01*
X127092000Y-41502500D02*
X127925657Y-40668843D01*
%TO.N,Net-(U1-RUN)*%
X114489471Y-46250000D02*
X112500000Y-44260529D01*
X112500000Y-44260529D02*
X112500000Y-41500000D01*
X100250000Y-39250000D02*
X100250000Y-42787500D01*
X114500000Y-46250000D02*
X114489471Y-46250000D01*
X100250000Y-42787500D02*
X99287500Y-43750000D01*
%TO.N,ENC_SB2*%
X140716000Y-66548000D02*
X140692000Y-66524000D01*
X141224000Y-66548000D02*
X140716000Y-66548000D01*
X118592433Y-49003567D02*
X118596000Y-49000000D01*
X138876000Y-59944000D02*
X141224000Y-62292000D01*
X134620000Y-59944000D02*
X138876000Y-59944000D01*
X118596000Y-49000000D02*
X122254500Y-49000000D01*
X140692000Y-66524000D02*
X137856000Y-66524000D01*
X118592433Y-49009564D02*
X118592433Y-49003567D01*
X141224000Y-62292000D02*
X141224000Y-66548000D01*
X134112000Y-60452000D02*
X134620000Y-59944000D01*
%TO.N,ENC_SA2*%
X119212000Y-48600000D02*
X122254500Y-48600000D01*
X137462063Y-61917937D02*
X137856000Y-61524000D01*
X135221090Y-61917937D02*
X137462063Y-61917937D01*
X118872000Y-48260000D02*
X119212000Y-48600000D01*
%TO.N,COL_C*%
X148336000Y-76472000D02*
X148336000Y-96012000D01*
X119387283Y-52841865D02*
X120429148Y-51800000D01*
X136144000Y-70612000D02*
X138684000Y-70612000D01*
X134112000Y-62484000D02*
X134112000Y-68580000D01*
X138684000Y-70612000D02*
X143752000Y-65544000D01*
X148336000Y-76472000D02*
X148336000Y-65544000D01*
X120429148Y-51800000D02*
X122254500Y-51800000D01*
X134112000Y-68580000D02*
X136144000Y-70612000D01*
X148336000Y-65544000D02*
X152356000Y-61524000D01*
X119387283Y-52841865D02*
X119387283Y-55379283D01*
X119387283Y-55379283D02*
X120396000Y-56388000D01*
X143752000Y-65544000D02*
X148336000Y-65544000D01*
%TO.N,ENC_SA*%
X111760000Y-66524000D02*
X111760000Y-62689522D01*
X111760000Y-62689522D02*
X114300000Y-60149522D01*
X114300000Y-60149522D02*
X114300000Y-49784000D01*
X114300000Y-49784000D02*
X115824000Y-48260000D01*
X116840000Y-48260000D02*
X117700000Y-47400000D01*
X120536529Y-47800000D02*
X122254500Y-47800000D01*
X114764000Y-66524000D02*
X111760000Y-66524000D01*
X117700000Y-47400000D02*
X120136529Y-47400000D01*
X115824000Y-48260000D02*
X116840000Y-48260000D01*
X120136529Y-47400000D02*
X120536529Y-47800000D01*
%TO.N,ENC_SB*%
X117099096Y-49016904D02*
X117856000Y-48260000D01*
X114764000Y-61524000D02*
X114764000Y-50336375D01*
X122254500Y-48200000D02*
X120088000Y-48200000D01*
X116083471Y-49016904D02*
X117099096Y-49016904D01*
X120088000Y-48200000D02*
X119888000Y-48000000D01*
X114764000Y-50336375D02*
X116083471Y-49016904D01*
%TO.N,COL_A*%
X119263572Y-51560822D02*
X120224394Y-50600000D01*
X120224394Y-50600000D02*
X122254500Y-50600000D01*
X100264000Y-67440000D02*
X100264000Y-66524000D01*
X117440000Y-73152000D02*
X116840000Y-73152000D01*
X109336000Y-76512000D02*
X109336000Y-96012000D01*
X116840000Y-73152000D02*
X113480000Y-76512000D01*
X117905408Y-51560822D02*
X119263572Y-51560822D01*
X113480000Y-76512000D02*
X109336000Y-76512000D01*
X109336000Y-76512000D02*
X100264000Y-67440000D01*
%TO.N,COL_B*%
X119030927Y-52359153D02*
X119990080Y-51400000D01*
X128836000Y-96012000D02*
X128836000Y-76512000D01*
X128850000Y-71705500D02*
X128836000Y-71719500D01*
X118364000Y-52359153D02*
X119030927Y-52359153D01*
X128836000Y-71719500D02*
X128836000Y-76512000D01*
X119990080Y-51400000D02*
X122254500Y-51400000D01*
%TO.N,QSPI_SD3*%
X110844000Y-50561000D02*
X112224000Y-50561000D01*
X112224000Y-50561000D02*
X112348000Y-50437000D01*
X124968000Y-43180000D02*
X125092000Y-43304000D01*
X125092000Y-43304000D02*
X125092000Y-46562500D01*
%TO.N,QSPI_SD1*%
X123092000Y-46562500D02*
X117371813Y-46562500D01*
X111944000Y-49312473D02*
X111944000Y-49631552D01*
X117371813Y-46562500D02*
X116274313Y-47660000D01*
X111944000Y-49631552D02*
X111684552Y-49891000D01*
X113792000Y-47244000D02*
X113792000Y-47464473D01*
X111684552Y-49891000D02*
X104314000Y-49891000D01*
X113792000Y-47464473D02*
X111944000Y-49312473D01*
X123492000Y-46562500D02*
X123092000Y-46562500D01*
X104314000Y-49891000D02*
X103644000Y-50561000D01*
%TO.N,QSPI_SCLK*%
X124368000Y-43428529D02*
X124692000Y-43752529D01*
X119433000Y-42672000D02*
X123952000Y-42672000D01*
X111970000Y-51831000D02*
X112348000Y-51453000D01*
X112948000Y-50853000D02*
X112948000Y-49157000D01*
X123952000Y-42672000D02*
X124368000Y-43088000D01*
X112948000Y-49157000D02*
X119433000Y-42672000D01*
X112348000Y-51453000D02*
X112948000Y-50853000D01*
X110844000Y-51831000D02*
X111970000Y-51831000D01*
X124692000Y-43752529D02*
X124692000Y-46562500D01*
X124368000Y-43088000D02*
X124368000Y-43428529D01*
%TO.N,QSPI_SD0*%
X113348000Y-49322686D02*
X113348000Y-51469000D01*
X124292000Y-43918215D02*
X123923157Y-43549372D01*
X111716000Y-53101000D02*
X112348000Y-52469000D01*
X124292000Y-46562500D02*
X124292000Y-43918215D01*
X119461843Y-43208843D02*
X113348000Y-49322686D01*
X110844000Y-53101000D02*
X111716000Y-53101000D01*
X123923157Y-43549372D02*
X123923157Y-43208843D01*
X113348000Y-51469000D02*
X112348000Y-52469000D01*
X123923157Y-43208843D02*
X119461843Y-43208843D01*
%TO.N,QSPI_SD2*%
X123892000Y-44331533D02*
X123395548Y-43835081D01*
X117856000Y-42764000D02*
X115957000Y-42764000D01*
X123892000Y-46562500D02*
X123892000Y-44331533D01*
X104858000Y-51831000D02*
X105236000Y-51453000D01*
X103644000Y-51831000D02*
X104858000Y-51831000D01*
X115957000Y-42764000D02*
X113904500Y-44816500D01*
%TD*%
M02*
