M48
; DRILL file {KiCad 8.0.5} date 2025-01-09T16:38:25+0100
; FORMAT={-:-/ absolute / inch / decimal}
; #@! TF.CreationDate,2025-01-09T16:38:25+01:00
; #@! TF.GenerationSoftware,Kicad,Pcbnew,8.0.5
; #@! TF.FileFunction,Plated,1,2,PTH
FMAT,2
INCH
; #@! TA.AperFunction,Plated,PTH,ViaDrill
T1C0.0118
; #@! TA.AperFunction,Plated,PTH,ComponentDrill
T2C0.0256
; #@! TA.AperFunction,Plated,PTH,ComponentDrill
T3C0.0276
; #@! TA.AperFunction,Plated,PTH,ComponentDrill
T4C0.0394
; #@! TA.AperFunction,Plated,PTH,ComponentDrill
T5C0.0433
; #@! TA.AperFunction,Plated,PTH,ComponentDrill
T6C0.0591
; #@! TA.AperFunction,Plated,PTH,ComponentDrill
T7C0.1024
%
G90
G05
T1
X3.9Y-2.76
X3.9728Y-3.0406
X4.02Y-2.08
X4.08Y-1.66
X4.08Y-2.7
X4.1431Y-2.0257
X4.1631Y-1.8457
X4.225Y-1.8676
X4.4231Y-1.9857
X4.4236Y-2.5
X4.4291Y-1.6339
X4.4646Y-1.5118
X4.48Y-1.86
X4.48Y-2.7
X4.4844Y-1.7644
X4.5079Y-1.8209
X4.54Y-3.46
X4.5528Y-3.0206
X4.5534Y-2.0134
X4.56Y-2.36
X4.5777Y-1.8764
X4.58Y-1.9534
X4.58Y-2.52
X4.6Y-2.0044
X4.6236Y-2.88
X4.64Y-1.6836
X4.64Y-1.9
X4.64Y-3.52
X4.64Y-3.76
X4.6419Y-2.03
X4.66Y-2.0614
X4.669Y-1.9295
X4.68Y-1.9
X4.7Y-2.76
X4.72Y-1.8898
X4.72Y-3.02
X4.74Y-2.22
X4.78Y-1.46
X4.8Y-2.72
X4.8031Y-1.3543
X4.8146Y-2.3
X4.82Y-2.36
X4.82Y-2.6
X4.82Y-3.54
X4.84Y-2.48
X4.84Y-2.66
X4.8581Y-1.7258
X4.88Y-2.58
X4.9Y-1.88
X4.92Y-1.7
X4.94Y-1.88
X4.96Y-1.42
X4.96Y-1.78
X5.0315Y-2.622
X5.04Y-1.78
X5.04Y-3.64
X5.06Y-2.6
X5.0728Y-2.8231
X5.0945Y-2.1654
X5.1Y-2.34
X5.1024Y-2.7323
X5.12Y-1.42
X5.12Y-2.88
X5.12Y-3.44
X5.14Y-2.1
X5.14Y-2.6
X5.16Y-2.74
X5.28Y-2.38
X5.28Y-2.46
X5.32Y-3.04
X5.3237Y-2.4377
X5.3386Y-1.874
X5.3386Y-2.0
X5.3465Y-1.748
X5.3543Y-1.5984
X5.4Y-2.88
X5.52Y-2.0
X5.52Y-2.8
X5.54Y-1.64
X5.54Y-1.76
X5.54Y-1.88
X5.54Y-2.96
X5.56Y-3.52
X5.58Y-2.0
X5.7185Y-2.8642
X5.8Y-1.6
X5.8Y-3.54
X5.88Y-1.76
X5.88Y-2.12
X6.08Y-2.94
T4
X3.9474Y-2.4222
X3.9474Y-2.6191
X4.5183Y-2.4222
X4.5183Y-2.5206
X4.5183Y-2.6191
X5.4274Y-2.4222
X5.4274Y-2.5206
X5.4274Y-2.6191
X5.9983Y-2.4222
X5.9983Y-2.6191
T5
X3.9469Y-1.3681
X3.9469Y-1.5453
X4.2028Y-1.3681
X4.2028Y-1.5453
X4.3602Y-1.378
X4.3602Y-1.5551
X4.6161Y-1.378
X4.6161Y-1.5551
T6
X4.0546Y-3.1123
X4.0546Y-3.88
X4.3046Y-3.0123
X4.3046Y-3.78
X4.8223Y-3.1123
X4.8223Y-3.88
X5.0723Y-3.0123
X5.0723Y-3.78
X5.59Y-3.1107
X5.59Y-3.88
X5.84Y-3.0107
X5.84Y-3.78
T7
X4.223Y-2.3002
X4.223Y-2.7411
X5.7227Y-2.3002
X5.7227Y-2.7411
T2
G00X4.9063Y-1.3571
M15
G01X4.9063Y-1.3728
M16
G05
G00X5.0969Y-1.3571
M15
G01X5.0969Y-1.3728
M16
G05
T3
G00X4.8941Y-1.237
M15
G01X4.8941Y-1.2567
M16
G05
G00X5.1091Y-1.237
M15
G01X5.1091Y-1.2567
M16
G05
M30
