%TF.GenerationSoftware,KiCad,Pcbnew,8.0.5*%
%TF.CreationDate,2025-01-09T16:38:30+01:00*%
%TF.ProjectId,rp2040_pad,72703230-3430-45f7-9061-642e6b696361,rev?*%
%TF.SameCoordinates,Original*%
%TF.FileFunction,Paste,Top*%
%TF.FilePolarity,Positive*%
%FSLAX46Y46*%
G04 Gerber Fmt 4.6, Leading zero omitted, Abs format (unit mm)*
G04 Created by KiCad (PCBNEW 8.0.5) date 2025-01-09 16:38:30*
%MOMM*%
%LPD*%
G01*
G04 APERTURE LIST*
G04 Aperture macros list*
%AMRoundRect*
0 Rectangle with rounded corners*
0 $1 Rounding radius*
0 $2 $3 $4 $5 $6 $7 $8 $9 X,Y pos of 4 corners*
0 Add a 4 corners polygon primitive as box body*
4,1,4,$2,$3,$4,$5,$6,$7,$8,$9,$2,$3,0*
0 Add four circle primitives for the rounded corners*
1,1,$1+$1,$2,$3*
1,1,$1+$1,$4,$5*
1,1,$1+$1,$6,$7*
1,1,$1+$1,$8,$9*
0 Add four rect primitives between the rounded corners*
20,1,$1+$1,$2,$3,$4,$5,0*
20,1,$1+$1,$4,$5,$6,$7,0*
20,1,$1+$1,$6,$7,$8,$9,0*
20,1,$1+$1,$8,$9,$2,$3,0*%
G04 Aperture macros list end*
%ADD10RoundRect,0.150000X-0.650000X-0.150000X0.650000X-0.150000X0.650000X0.150000X-0.650000X0.150000X0*%
%ADD11RoundRect,0.250000X0.650000X-0.325000X0.650000X0.325000X-0.650000X0.325000X-0.650000X-0.325000X0*%
%ADD12RoundRect,0.250000X-0.325000X-0.650000X0.325000X-0.650000X0.325000X0.650000X-0.325000X0.650000X0*%
%ADD13RoundRect,0.250000X-0.250000X0.250000X-0.250000X-0.250000X0.250000X-0.250000X0.250000X0.250000X0*%
%ADD14RoundRect,0.250000X0.250000X-0.250000X0.250000X0.250000X-0.250000X0.250000X-0.250000X-0.250000X0*%
%ADD15RoundRect,0.250000X-0.625000X0.312500X-0.625000X-0.312500X0.625000X-0.312500X0.625000X0.312500X0*%
%ADD16RoundRect,0.250000X-0.650000X0.325000X-0.650000X-0.325000X0.650000X-0.325000X0.650000X0.325000X0*%
%ADD17R,0.400000X1.650000*%
%ADD18R,1.825000X0.700000*%
%ADD19R,2.000000X1.500000*%
%ADD20R,1.350000X2.000000*%
%ADD21R,1.430000X2.500000*%
%ADD22R,1.400000X1.100000*%
%ADD23RoundRect,0.250000X0.312500X0.625000X-0.312500X0.625000X-0.312500X-0.625000X0.312500X-0.625000X0*%
%ADD24RoundRect,0.375000X-0.375000X0.625000X-0.375000X-0.625000X0.375000X-0.625000X0.375000X0.625000X0*%
%ADD25RoundRect,0.500000X-1.400000X0.500000X-1.400000X-0.500000X1.400000X-0.500000X1.400000X0.500000X0*%
%ADD26RoundRect,0.249999X-0.395001X-0.395001X0.395001X-0.395001X0.395001X0.395001X-0.395001X0.395001X0*%
%ADD27RoundRect,0.050000X-0.387500X-0.050000X0.387500X-0.050000X0.387500X0.050000X-0.387500X0.050000X0*%
%ADD28RoundRect,0.050000X-0.050000X-0.387500X0.050000X-0.387500X0.050000X0.387500X-0.050000X0.387500X0*%
%ADD29RoundRect,0.250000X0.625000X-0.312500X0.625000X0.312500X-0.625000X0.312500X-0.625000X-0.312500X0*%
G04 APERTURE END LIST*
D10*
%TO.C,U4*%
X103644000Y-49291000D03*
X103644000Y-50561000D03*
X103644000Y-51831000D03*
X103644000Y-53101000D03*
X110844000Y-53101000D03*
X110844000Y-51831000D03*
X110844000Y-50561000D03*
X110844000Y-49291000D03*
%TD*%
D11*
%TO.C,C4*%
X123444000Y-64467000D03*
X123444000Y-61517000D03*
%TD*%
D12*
%TO.C,C15*%
X136609000Y-49252000D03*
X139559000Y-49252000D03*
%TD*%
D13*
%TO.C,D3*%
X137486000Y-77052000D03*
X137486000Y-79552000D03*
%TD*%
D12*
%TO.C,C10*%
X131529000Y-44488000D03*
X134479000Y-44488000D03*
%TD*%
D14*
%TO.C,D4*%
X97536000Y-74910000D03*
X97536000Y-72410000D03*
%TD*%
D12*
%TO.C,C13*%
X136609000Y-42648000D03*
X139559000Y-42648000D03*
%TD*%
D15*
%TO.C,R5*%
X128016000Y-37653500D03*
X128016000Y-40578500D03*
%TD*%
D16*
%TO.C,C3*%
X120904000Y-61566000D03*
X120904000Y-64516000D03*
%TD*%
D13*
%TO.C,D2*%
X117986000Y-76802000D03*
X117986000Y-79302000D03*
%TD*%
D12*
%TO.C,C17*%
X140765000Y-73152000D03*
X143715000Y-73152000D03*
%TD*%
D17*
%TO.C,J1*%
X128340000Y-34550000D03*
X127690000Y-34550000D03*
X127040000Y-34550000D03*
X126390000Y-34550000D03*
X125740000Y-34550000D03*
D18*
X129990000Y-33350000D03*
D19*
X129890000Y-34650000D03*
D20*
X129770000Y-32600000D03*
D21*
X128000000Y-31400000D03*
X126080000Y-31400000D03*
D20*
X124290000Y-32600000D03*
D19*
X124140000Y-34670000D03*
D18*
X124040000Y-33350000D03*
%TD*%
D16*
%TO.C,C7*%
X131064000Y-61468000D03*
X131064000Y-64418000D03*
%TD*%
D22*
%TO.C,U3*%
X124292000Y-66980000D03*
X124292000Y-68580000D03*
X126492000Y-68580000D03*
X126492000Y-66980000D03*
%TD*%
D12*
%TO.C,C16*%
X136560000Y-52300000D03*
X139510000Y-52300000D03*
%TD*%
D15*
%TO.C,R4*%
X125718000Y-37604500D03*
X125718000Y-40529500D03*
%TD*%
D12*
%TO.C,C11*%
X131529000Y-47838000D03*
X134479000Y-47838000D03*
%TD*%
%TO.C,C9*%
X131529000Y-41138000D03*
X134479000Y-41138000D03*
%TD*%
D23*
%TO.C,R6*%
X102212500Y-43750000D03*
X99287500Y-43750000D03*
%TD*%
D12*
%TO.C,C19*%
X142338000Y-90932000D03*
X145288000Y-90932000D03*
%TD*%
D13*
%TO.C,D7*%
X117986000Y-97302000D03*
X117986000Y-99802000D03*
%TD*%
D24*
%TO.C,U2*%
X146988000Y-44070000D03*
X144688000Y-44070000D03*
D25*
X144688000Y-50370000D03*
D24*
X142388000Y-44070000D03*
%TD*%
D26*
%TO.C,U1*%
X124892000Y-49200000D03*
X124892000Y-50800000D03*
X126492000Y-49200000D03*
X126492000Y-50800000D03*
D27*
X122254500Y-47400000D03*
X122254500Y-47800000D03*
X122254500Y-48200000D03*
X122254500Y-48600000D03*
X122254500Y-49000000D03*
X122254500Y-49400000D03*
X122254500Y-49800000D03*
X122254500Y-50200000D03*
X122254500Y-50600000D03*
X122254500Y-51000000D03*
X122254500Y-51400000D03*
X122254500Y-51800000D03*
X122254500Y-52200000D03*
X122254500Y-52600000D03*
D28*
X123092000Y-53437500D03*
X123492000Y-53437500D03*
X123892000Y-53437500D03*
X124292000Y-53437500D03*
X124692000Y-53437500D03*
X125092000Y-53437500D03*
X125492000Y-53437500D03*
X125892000Y-53437500D03*
X126292000Y-53437500D03*
X126692000Y-53437500D03*
X127092000Y-53437500D03*
X127492000Y-53437500D03*
X127892000Y-53437500D03*
X128292000Y-53437500D03*
D27*
X129129500Y-52600000D03*
X129129500Y-52200000D03*
X129129500Y-51800000D03*
X129129500Y-51400000D03*
X129129500Y-51000000D03*
X129129500Y-50600000D03*
X129129500Y-50200000D03*
X129129500Y-49800000D03*
X129129500Y-49400000D03*
X129129500Y-49000000D03*
X129129500Y-48600000D03*
X129129500Y-48200000D03*
X129129500Y-47800000D03*
X129129500Y-47400000D03*
D28*
X128292000Y-46562500D03*
X127892000Y-46562500D03*
X127492000Y-46562500D03*
X127092000Y-46562500D03*
X126692000Y-46562500D03*
X126292000Y-46562500D03*
X125892000Y-46562500D03*
X125492000Y-46562500D03*
X125092000Y-46562500D03*
X124692000Y-46562500D03*
X124292000Y-46562500D03*
X123892000Y-46562500D03*
X123492000Y-46562500D03*
X123092000Y-46562500D03*
%TD*%
D13*
%TO.C,D1*%
X98486000Y-77052000D03*
X98486000Y-79552000D03*
%TD*%
%TO.C,D6*%
X98486000Y-96802000D03*
X98486000Y-99302000D03*
%TD*%
%TO.C,D8*%
X137486000Y-97552000D03*
X137486000Y-100052000D03*
%TD*%
D29*
%TO.C,R2*%
X110744000Y-45658500D03*
X110744000Y-42733500D03*
%TD*%
D12*
%TO.C,C1*%
X143038000Y-40070000D03*
X145988000Y-40070000D03*
%TD*%
%TO.C,C22*%
X122477000Y-72644000D03*
X125427000Y-72644000D03*
%TD*%
%TO.C,C18*%
X122526000Y-91440000D03*
X125476000Y-91440000D03*
%TD*%
D11*
%TO.C,C6*%
X123444000Y-40542000D03*
X123444000Y-37592000D03*
%TD*%
D12*
%TO.C,C2*%
X144713000Y-54220000D03*
X147663000Y-54220000D03*
%TD*%
%TO.C,C14*%
X136609000Y-45998000D03*
X139559000Y-45998000D03*
%TD*%
D15*
%TO.C,R3*%
X108244000Y-42733500D03*
X108244000Y-45658500D03*
%TD*%
D12*
%TO.C,C12*%
X131529000Y-51188000D03*
X134479000Y-51188000D03*
%TD*%
D29*
%TO.C,R1*%
X125984000Y-64454500D03*
X125984000Y-61529500D03*
%TD*%
D13*
%TO.C,D5*%
X154940000Y-67000000D03*
X154940000Y-69500000D03*
%TD*%
D11*
%TO.C,C5*%
X105744000Y-45671000D03*
X105744000Y-42721000D03*
%TD*%
D16*
%TO.C,C8*%
X128524000Y-61468000D03*
X128524000Y-64418000D03*
%TD*%
M02*
